<?xml version="1.0" encoding="us-ascii" standalone="no"?><svg xmlns="http://www.w3.org/2000/svg" xmlns:xlink="http://www.w3.org/1999/xlink" contentStyleType="text/css" height="157px" preserveAspectRatio="none" style="width:313px;height:157px;background:#FFFFFF;" version="1.1" viewBox="0 0 313 157" width="313px" zoomAndPan="magnify"><defs/><g><text fill="#000000" font-family="sans-serif" font-size="14" font-weight="bold" lengthAdjust="spacing" textLength="154" x="72.5" y="22.9951">exception&#12497;&#12483;&#12465;&#12540;&#12472;</text><!--cluster exception--><g id="cluster_exception"><polygon fill="none" points="16,43.2969,101,43.2969,108,65.5938,296,65.5938,296,150.2969,16,150.2969,16,43.2969" style="stroke:#000000;stroke-width:1.5;"/><line style="stroke:#000000;stroke-width:1.5;" x1="16" x2="108" y1="65.5938" y2="65.5938"/><text fill="#000000" font-family="sans-serif" font-size="14" font-weight="bold" lengthAdjust="spacing" textLength="79" x="20" y="58.292">exception</text></g><!--class BusinessException--><g id="elem_BusinessException"><rect codeLine="7" fill="#FEFECE" height="56.2969" id="BusinessException" style="stroke:#A80036;stroke-width:1.0;" width="248" x="32" y="78.2969"/><ellipse cx="84.75" cy="94.2969" fill="#ADD1B2" rx="11" ry="11" style="stroke:#A80036;stroke-width:1.0;"/><path d="M87.0938,89.9688 C86.1563,89.5313 85.5625,89.3906 84.6875,89.3906 C82.0625,89.3906 80.0625,91.4688 80.0625,94.1875 L80.0625,95.3125 C80.0625,97.8906 82.1719,99.7813 85.0625,99.7813 C86.2813,99.7813 87.4375,99.4844 88.1875,98.9375 C88.7656,98.5313 89.0938,98.0781 89.0938,97.6875 C89.0938,97.2344 88.7031,96.8438 88.2344,96.8438 C88.0156,96.8438 87.8125,96.9219 87.625,97.1094 C87.1719,97.5938 87.1719,97.5938 86.9844,97.6875 C86.5625,97.9531 85.875,98.0781 85.1094,98.0781 C83.0625,98.0781 81.7656,96.9844 81.7656,95.2813 L81.7656,94.1875 C81.7656,92.4063 83.0156,91.0938 84.75,91.0938 C85.3281,91.0938 85.9375,91.25 86.4063,91.5 C86.8906,91.7813 87.0625,92 87.1563,92.4063 C87.2188,92.8125 87.25,92.9375 87.3906,93.0625 C87.5313,93.2031 87.7656,93.3125 87.9844,93.3125 C88.25,93.3125 88.5156,93.1719 88.6875,92.9531 C88.7969,92.7969 88.8281,92.6094 88.8281,92.1875 L88.8281,90.7656 C88.8281,90.3281 88.8125,90.2031 88.7188,90.0469 C88.5625,89.7813 88.2813,89.6406 87.9844,89.6406 C87.6875,89.6406 87.4844,89.7344 87.2656,90.0469 L87.0938,89.9688 Z " fill="#000000"/><text fill="#000000" font-family="sans-serif" font-size="14" lengthAdjust="spacing" textLength="134" x="105.25" y="99.1436">BusinessException</text><line style="stroke:#A80036;stroke-width:1.0;" x1="33" x2="279" y1="110.2969" y2="110.2969"/><ellipse cx="43" cy="123.9453" fill="#84BE84" rx="3" ry="3" style="stroke:#038048;stroke-width:1.0;"/><text fill="#000000" font-family="sans-serif" font-size="14" lengthAdjust="spacing" textLength="222" x="52" y="127.292">BusinessException(String msg)</text></g><!--SRC=[POwz3S8m48LxJt4bY2sGc809Z7DnJl6VV8S0eJJn11c5Ze9jl0WE5OXNFRtlAnwF5217HiMj9Psr1nvq5oyKBFJQDUAm5v08cUmWq5568nI36gX3G9_a1Xxz2JCh8N5jknfCgrBBKakfywEMLvsVAcapQlibt1Mq6AUPONzc2iXy-8LhTlzmSvIyNlHijnzlKjCR]--></g></svg>