<svg xmlns="http://www.w3.org/2000/svg" xmlns:xlink="http://www.w3.org/1999/xlink" contentStyleType="text/css" height="157px" preserveAspectRatio="none" style="width:308px;height:157px;background:#FFFFFF;" version="1.1" viewBox="0 0 308 157" width="308px" zoomAndPan="magnify"><defs/><g><text fill="#000000" font-family="sans-serif" font-size="14" font-weight="bold" lengthAdjust="spacing" textLength="147.4167" x="73.7167" y="22.9951">exception&#12497;&#12483;&#12465;&#12540;&#12472;</text><!--cluster exception--><g id="cluster_exception"><polygon fill="none" points="16,43.2969,90.9131,43.2969,97.9131,65.5938,291.85,65.5938,291.85,150.2969,16,150.2969,16,43.2969" style="stroke:#000000;stroke-width:1.5;"/><line style="stroke:#000000;stroke-width:1.5;" x1="16" x2="97.9131" y1="65.5938" y2="65.5938"/><text fill="#000000" font-family="sans-serif" font-size="14" lengthAdjust="spacing" textLength="68.9131" x="20" y="58.292">exception</text></g><!--class BusinessException--><g id="elem_BusinessException"><rect codeLine="7" fill="#FEFECE" height="56.2969" id="BusinessException" style="stroke:#A80036;stroke-width:1.0;" width="243.8545" x="32" y="78.1469"/><ellipse cx="84.2368" cy="94.1469" fill="#ADD1B2" rx="11" ry="11" style="stroke:#A80036;stroke-width:1.0;"/><path d="M87.2056,99.7875 Q86.6274,100.0844 85.9868,100.225 Q85.3462,100.3813 84.6431,100.3813 Q82.1431,100.3813 80.8149,98.7406 Q79.5024,97.0844 79.5024,93.9594 Q79.5024,90.8344 80.8149,89.1781 Q82.1431,87.5219 84.6431,87.5219 Q85.3462,87.5219 85.9868,87.6781 Q86.6431,87.8344 87.2056,88.1313 L87.2056,90.85 Q86.5806,90.2719 85.9868,90.0063 Q85.3931,89.725 84.7681,89.725 Q83.4243,89.725 82.7368,90.8031 Q82.0493,91.8656 82.0493,93.9594 Q82.0493,96.0531 82.7368,97.1313 Q83.4243,98.1938 84.7681,98.1938 Q85.3931,98.1938 85.9868,97.9281 Q86.5806,97.6469 87.2056,97.0688 L87.2056,99.7875 Z " fill="#000000"/><text fill="#000000" font-family="sans-serif" font-size="14" lengthAdjust="spacing" textLength="130.8809" x="104.7368" y="98.9936">BusinessException</text><line style="stroke:#A80036;stroke-width:1.0;" x1="33" x2="274.8545" y1="110.1469" y2="110.1469"/><ellipse cx="43" cy="123.7953" fill="#84BE84" rx="3" ry="3" style="stroke:#038048;stroke-width:1.0;"/><text fill="#000000" font-family="sans-serif" font-size="14" lengthAdjust="spacing" textLength="217.8545" x="52" y="127.142">BusinessException(String msg)</text></g><!--SRC=[POwz3S8m48LxJt4bY2sGc809Z7DnJl6VV8S0eJJn11c5Ze9jl0WE5OXNFRtlAnwF5217HiMj9Psr1nvq5oyKBFJQDUAm5v08cUmWq5568nI36gX3G9_a1Xxz2JCh8N5jknfCgrBBKakfywEMLvsVAcapQlibt1Mq6AUPONzc2iXy-8LhTlzmSvIyNlHijnzlKjCR]--></g></svg>