<?xml version="1.0" encoding="UTF-8" standalone="no"?><svg xmlns="http://www.w3.org/2000/svg" xmlns:xlink="http://www.w3.org/1999/xlink" contentScriptType="application/ecmascript" contentStyleType="text/css" height="546px" preserveAspectRatio="none" style="width:839px;height:546px;background:#FFFFFF;" version="1.1" viewBox="0 0 839 546" width="839px" zoomAndPan="magnify"><defs/><g><text fill="#000000" font-family="sans-serif" font-size="18" lengthAdjust="spacing" textLength="132" x="347" y="17.4023">formパッケージ</text><!--MD5=[23b08dc254e0f04d3588bdf63a9b02bc]
cluster form--><polygon fill="#FFFFFF" points="16,27.1992,57,27.1992,64,49.6875,822,49.6875,822,539.1992,16,539.1992,16,27.1992" style="stroke:#000000;stroke-width:1.5;"/><line style="stroke:#000000;stroke-width:1.5;" x1="16" x2="64" y1="49.6875" y2="49.6875"/><text fill="#000000" font-family="sans-serif" font-size="14" font-weight="bold" lengthAdjust="spacing" textLength="35" x="20" y="42.7344">form</text><!--MD5=[5781fd64b858718352344dee0a3b49d7]
class LoginForm--><rect codeLine="6" fill="#FEFECE" height="65.9102" id="LoginForm" style="stroke:#A80036;stroke-width:1.5;" width="119" x="99.5" y="457.1992"/><ellipse cx="127.1" cy="473.1992" fill="#ADD1B2" rx="11" ry="11" style="stroke:#A80036;stroke-width:1.0;"/><path d="M129.5731,479.3423 Q128.9921,479.6411 128.3529,479.7905 Q127.7138,479.9399 127.0082,479.9399 Q124.5014,479.9399 123.1815,478.2881 Q121.8617,476.6362 121.8617,473.5151 Q121.8617,470.3857 123.1815,468.7339 Q124.5014,467.082 127.0082,467.082 Q127.7138,467.082 128.3612,467.2314 Q129.0087,467.3809 129.5731,467.6797 L129.5731,470.4023 Q128.9423,469.8213 128.3488,469.5515 Q127.7553,469.2817 127.1244,469.2817 Q125.7797,469.2817 125.0949,470.3484 Q124.4101,471.415 124.4101,473.5151 Q124.4101,475.6069 125.0949,476.6736 Q125.7797,477.7402 127.1244,477.7402 Q127.7553,477.7402 128.3488,477.4705 Q128.9423,477.2007 129.5731,476.6196 Z " fill="#000000"/><text fill="#000000" font-family="sans-serif" font-size="12" lengthAdjust="spacing" textLength="59" x="143.9" y="477.7344">LoginForm</text><line style="stroke:#A80036;stroke-width:1.5;" x1="100.5" x2="217.5" y1="489.1992" y2="489.1992"/><rect fill="none" height="6" style="stroke:#C82930;stroke-width:1.0;" width="6" x="107.5" y="497.1992"/><text fill="#000000" font-family="sans-serif" font-size="11" lengthAdjust="spacing" textLength="70" x="119.5" y="503.834">name : String</text><rect fill="none" height="6" style="stroke:#C82930;stroke-width:1.0;" width="6" x="107.5" y="510.1543"/><text fill="#000000" font-family="sans-serif" font-size="11" lengthAdjust="spacing" textLength="93" x="119.5" y="516.7891">password : String</text><!--MD5=[703b11e85ef4edc49f2a2a76f4600067]
class ProductForm--><rect codeLine="10" fill="#FEFECE" height="104.7754" id="ProductForm" style="stroke:#A80036;stroke-width:1.5;" width="175" x="71.5" y="316.6992"/><ellipse cx="118.25" cy="332.6992" fill="#ADD1B2" rx="11" ry="11" style="stroke:#A80036;stroke-width:1.0;"/><path d="M120.7231,338.8423 Q120.1421,339.1411 119.5029,339.2905 Q118.8638,339.4399 118.1582,339.4399 Q115.6514,339.4399 114.3315,337.7881 Q113.0117,336.1362 113.0117,333.0151 Q113.0117,329.8857 114.3315,328.2339 Q115.6514,326.582 118.1582,326.582 Q118.8638,326.582 119.5112,326.7314 Q120.1587,326.8809 120.7231,327.1797 L120.7231,329.9023 Q120.0923,329.3213 119.4988,329.0515 Q118.9053,328.7817 118.2744,328.7817 Q116.9297,328.7817 116.2449,329.8484 Q115.5601,330.915 115.5601,333.0151 Q115.5601,335.1069 116.2449,336.1736 Q116.9297,337.2402 118.2744,337.2402 Q118.9053,337.2402 119.4988,336.9705 Q120.0923,336.7007 120.7231,336.1196 Z " fill="#000000"/><text fill="#000000" font-family="sans-serif" font-size="12" lengthAdjust="spacing" textLength="73" x="138.75" y="337.2344">ProductForm</text><line style="stroke:#A80036;stroke-width:1.5;" x1="72.5" x2="245.5" y1="348.6992" y2="348.6992"/><rect fill="none" height="6" style="stroke:#C82930;stroke-width:1.0;" width="6" x="79.5" y="356.6992"/><text fill="#000000" font-family="sans-serif" font-size="11" lengthAdjust="spacing" textLength="70" x="91.5" y="363.334">name : String</text><rect fill="none" height="6" style="stroke:#C82930;stroke-width:1.0;" width="6" x="79.5" y="369.6543"/><text fill="#000000" font-family="sans-serif" font-size="11" lengthAdjust="spacing" textLength="74" x="91.5" y="376.2891">price : Integer</text><rect fill="none" height="6" style="stroke:#C82930;stroke-width:1.0;" width="6" x="79.5" y="382.6094"/><text fill="#000000" font-family="sans-serif" font-size="11" lengthAdjust="spacing" textLength="76" x="91.5" y="389.2441">stock : Integer</text><rect fill="none" height="6" style="stroke:#C82930;stroke-width:1.0;" width="6" x="79.5" y="395.5645"/><text fill="#000000" font-family="sans-serif" font-size="11" lengthAdjust="spacing" textLength="149" x="91.5" y="402.1992">productCategoryId : Integer</text><rect fill="none" height="6" style="stroke:#C82930;stroke-width:1.0;" width="6" x="79.5" y="408.5195"/><text fill="#000000" font-family="sans-serif" font-size="11" lengthAdjust="spacing" textLength="107" x="91.5" y="415.1543">image : MultipartFile</text><!--MD5=[e6f5e1870d53ecb6cdbe7bfbe1cfe475]
class ProductFormValidator--><rect codeLine="17" fill="#FEFECE" height="65.9102" id="ProductFormValidator" style="stroke:#A80036;stroke-width:1.5;" width="254" x="32" y="215.1992"/><ellipse cx="92.25" cy="231.1992" fill="#ADD1B2" rx="11" ry="11" style="stroke:#A80036;stroke-width:1.0;"/><path d="M94.7231,237.3423 Q94.1421,237.6411 93.5029,237.7905 Q92.8638,237.9399 92.1582,237.9399 Q89.6514,237.9399 88.3315,236.2881 Q87.0117,234.6362 87.0117,231.5151 Q87.0117,228.3857 88.3315,226.7339 Q89.6514,225.082 92.1582,225.082 Q92.8638,225.082 93.5112,225.2314 Q94.1587,225.3809 94.7231,225.6797 L94.7231,228.4023 Q94.0923,227.8213 93.4988,227.5515 Q92.9053,227.2817 92.2744,227.2817 Q90.9297,227.2817 90.2449,228.3484 Q89.5601,229.415 89.5601,231.5151 Q89.5601,233.6069 90.2449,234.6736 Q90.9297,235.7402 92.2744,235.7402 Q92.9053,235.7402 93.4988,235.4705 Q94.0923,235.2007 94.7231,234.6196 Z " fill="#000000"/><text fill="#000000" font-family="sans-serif" font-size="12" lengthAdjust="spacing" textLength="125" x="112.75" y="235.7344">ProductFormValidator</text><line style="stroke:#A80036;stroke-width:1.5;" x1="33" x2="285" y1="247.1992" y2="247.1992"/><ellipse cx="43" cy="258.1992" fill="#84BE84" rx="3" ry="3" style="stroke:#038048;stroke-width:1.0;"/><text fill="#000000" font-family="sans-serif" font-size="11" lengthAdjust="spacing" textLength="191" x="52" y="261.834">supports(Class&lt;?&gt; clazz) : boolean</text><ellipse cx="43" cy="271.1543" fill="#84BE84" rx="3" ry="3" style="stroke:#038048;stroke-width:1.0;"/><text fill="#000000" font-family="sans-serif" font-size="11" lengthAdjust="spacing" textLength="228" x="52" y="274.7891">validate(Object target, Errors errors) : void</text><!--MD5=[ca618a2c5aa3c6e0d01b89824beef0f2]
class ProductCategoryForm--><rect codeLine="21" fill="#FEFECE" height="52.9551" id="ProductCategoryForm" style="stroke:#A80036;stroke-width:1.5;" width="156" x="81" y="126.6992"/><ellipse cx="96" cy="142.6992" fill="#ADD1B2" rx="11" ry="11" style="stroke:#A80036;stroke-width:1.0;"/><path d="M98.4731,148.8423 Q97.8921,149.1411 97.2529,149.2905 Q96.6138,149.4399 95.9082,149.4399 Q93.4014,149.4399 92.0815,147.7881 Q90.7617,146.1362 90.7617,143.0151 Q90.7617,139.8857 92.0815,138.2339 Q93.4014,136.582 95.9082,136.582 Q96.6138,136.582 97.2612,136.7314 Q97.9087,136.8809 98.4731,137.1797 L98.4731,139.9023 Q97.8423,139.3213 97.2488,139.0515 Q96.6553,138.7817 96.0244,138.7817 Q94.6797,138.7817 93.9949,139.8484 Q93.3101,140.915 93.3101,143.0151 Q93.3101,145.1069 93.9949,146.1736 Q94.6797,147.2402 96.0244,147.2402 Q96.6553,147.2402 97.2488,146.9705 Q97.8423,146.7007 98.4731,146.1196 Z " fill="#000000"/><text fill="#000000" font-family="sans-serif" font-size="12" lengthAdjust="spacing" textLength="124" x="110" y="147.2344">ProductCategoryForm</text><line style="stroke:#A80036;stroke-width:1.5;" x1="82" x2="236" y1="158.6992" y2="158.6992"/><rect fill="none" height="6" style="stroke:#C82930;stroke-width:1.0;" width="6" x="89" y="166.6992"/><text fill="#000000" font-family="sans-serif" font-size="11" lengthAdjust="spacing" textLength="70" x="101" y="173.334">name : String</text><!--MD5=[ac83b3ec6f2c04dd99465d602675377e]
class ProductCategoryFormValidator--><rect codeLine="24" fill="#FEFECE" height="65.9102" id="ProductCategoryFormValidator" style="stroke:#A80036;stroke-width:1.5;" width="254" x="346" y="457.1992"/><ellipse cx="381.7" cy="473.1992" fill="#ADD1B2" rx="11" ry="11" style="stroke:#A80036;stroke-width:1.0;"/><path d="M384.1731,479.3423 Q383.5921,479.6411 382.9529,479.7905 Q382.3138,479.9399 381.6082,479.9399 Q379.1014,479.9399 377.7815,478.2881 Q376.4617,476.6362 376.4617,473.5151 Q376.4617,470.3857 377.7815,468.7339 Q379.1014,467.082 381.6082,467.082 Q382.3138,467.082 382.9612,467.2314 Q383.6087,467.3809 384.1731,467.6797 L384.1731,470.4023 Q383.5423,469.8213 382.9488,469.5515 Q382.3553,469.2817 381.7244,469.2817 Q380.3797,469.2817 379.6949,470.3484 Q379.0101,471.415 379.0101,473.5151 Q379.0101,475.6069 379.6949,476.6736 Q380.3797,477.7402 381.7244,477.7402 Q382.3553,477.7402 382.9488,477.4705 Q383.5423,477.2007 384.1731,476.6196 Z " fill="#000000"/><text fill="#000000" font-family="sans-serif" font-size="12" lengthAdjust="spacing" textLength="176" x="400.3" y="477.7344">ProductCategoryFormValidator</text><line style="stroke:#A80036;stroke-width:1.5;" x1="347" x2="599" y1="489.1992" y2="489.1992"/><ellipse cx="357" cy="500.1992" fill="#84BE84" rx="3" ry="3" style="stroke:#038048;stroke-width:1.0;"/><text fill="#000000" font-family="sans-serif" font-size="11" lengthAdjust="spacing" textLength="191" x="366" y="503.834">supports(Class&lt;?&gt; clazz) : boolean</text><ellipse cx="357" cy="513.1543" fill="#84BE84" rx="3" ry="3" style="stroke:#038048;stroke-width:1.0;"/><text fill="#000000" font-family="sans-serif" font-size="11" lengthAdjust="spacing" textLength="228" x="366" y="516.7891">validate(Object target, Errors errors) : void</text><!--MD5=[caa2ec7a101dfe0cab6d068b09a4f12a]
class EmployeeAccountForm--><rect codeLine="28" fill="#FEFECE" height="78.8652" id="EmployeeAccountForm" style="stroke:#A80036;stroke-width:1.5;" width="162" x="392" y="342.6992"/><ellipse cx="407" cy="358.6992" fill="#ADD1B2" rx="11" ry="11" style="stroke:#A80036;stroke-width:1.0;"/><path d="M409.4731,364.8423 Q408.8921,365.1411 408.2529,365.2905 Q407.6138,365.4399 406.9082,365.4399 Q404.4014,365.4399 403.0815,363.7881 Q401.7617,362.1362 401.7617,359.0151 Q401.7617,355.8857 403.0815,354.2339 Q404.4014,352.582 406.9082,352.582 Q407.6138,352.582 408.2612,352.7314 Q408.9087,352.8809 409.4731,353.1797 L409.4731,355.9023 Q408.8423,355.3213 408.2488,355.0515 Q407.6553,354.7817 407.0244,354.7817 Q405.6797,354.7817 404.9949,355.8484 Q404.3101,356.915 404.3101,359.0151 Q404.3101,361.1069 404.9949,362.1736 Q405.6797,363.2402 407.0244,363.2402 Q407.6553,363.2402 408.2488,362.9705 Q408.8423,362.7007 409.4731,362.1196 Z " fill="#000000"/><text fill="#000000" font-family="sans-serif" font-size="12" lengthAdjust="spacing" textLength="130" x="421" y="363.2344">EmployeeAccountForm</text><line style="stroke:#A80036;stroke-width:1.5;" x1="393" x2="553" y1="374.6992" y2="374.6992"/><rect fill="none" height="6" style="stroke:#C82930;stroke-width:1.0;" width="6" x="400" y="382.6992"/><text fill="#000000" font-family="sans-serif" font-size="11" lengthAdjust="spacing" textLength="108" x="412" y="389.334">employeeId : Integer</text><rect fill="none" height="6" style="stroke:#C82930;stroke-width:1.0;" width="6" x="400" y="395.6543"/><text fill="#000000" font-family="sans-serif" font-size="11" lengthAdjust="spacing" textLength="95" x="412" y="402.2891">userName : String</text><rect fill="none" height="6" style="stroke:#C82930;stroke-width:1.0;" width="6" x="400" y="408.6094"/><text fill="#000000" font-family="sans-serif" font-size="11" lengthAdjust="spacing" textLength="93" x="412" y="415.2441">password : String</text><!--MD5=[4093fcaf5f2f89839d434420a47790f7]
class EmployeeAccountFormValidator--><rect codeLine="33" fill="#FEFECE" height="65.9102" id="EmployeeAccountFormValidator" style="stroke:#A80036;stroke-width:1.5;" width="254" x="346" y="241.1992"/><ellipse cx="379" cy="257.1992" fill="#ADD1B2" rx="11" ry="11" style="stroke:#A80036;stroke-width:1.0;"/><path d="M381.4731,263.3423 Q380.8921,263.6411 380.2529,263.7905 Q379.6138,263.9399 378.9082,263.9399 Q376.4014,263.9399 375.0815,262.2881 Q373.7617,260.6362 373.7617,257.5151 Q373.7617,254.3857 375.0815,252.7339 Q376.4014,251.082 378.9082,251.082 Q379.6138,251.082 380.2612,251.2314 Q380.9087,251.3809 381.4731,251.6797 L381.4731,254.4023 Q380.8423,253.8213 380.2488,253.5515 Q379.6553,253.2817 379.0244,253.2817 Q377.6797,253.2817 376.9949,254.3484 Q376.3101,255.415 376.3101,257.5151 Q376.3101,259.6069 376.9949,260.6736 Q377.6797,261.7402 379.0244,261.7402 Q379.6553,261.7402 380.2488,261.4705 Q380.8423,261.2007 381.4731,260.6196 Z " fill="#000000"/><text fill="#000000" font-family="sans-serif" font-size="12" lengthAdjust="spacing" textLength="182" x="397" y="261.7344">EmployeeAccountFormValidator</text><line style="stroke:#A80036;stroke-width:1.5;" x1="347" x2="599" y1="273.1992" y2="273.1992"/><ellipse cx="357" cy="284.1992" fill="#84BE84" rx="3" ry="3" style="stroke:#038048;stroke-width:1.0;"/><text fill="#000000" font-family="sans-serif" font-size="11" lengthAdjust="spacing" textLength="191" x="366" y="287.834">supports(Class&lt;?&gt; clazz) : boolean</text><ellipse cx="357" cy="297.1543" fill="#84BE84" rx="3" ry="3" style="stroke:#038048;stroke-width:1.0;"/><text fill="#000000" font-family="sans-serif" font-size="11" lengthAdjust="spacing" textLength="228" x="366" y="300.7891">validate(Object target, Errors errors) : void</text><!--MD5=[f798c1cd909c8316e15335bf949f9ed9]
class CustomerResigterForm--><rect codeLine="37" fill="#FEFECE" height="143.6406" id="CustomerResigterForm" style="stroke:#A80036;stroke-width:1.5;" width="163" x="391.5" y="62.1992"/><ellipse cx="406.5" cy="78.1992" fill="#ADD1B2" rx="11" ry="11" style="stroke:#A80036;stroke-width:1.0;"/><path d="M408.9731,84.3423 Q408.3921,84.6411 407.7529,84.7905 Q407.1138,84.9399 406.4082,84.9399 Q403.9014,84.9399 402.5815,83.2881 Q401.2617,81.6362 401.2617,78.5151 Q401.2617,75.3857 402.5815,73.7339 Q403.9014,72.082 406.4082,72.082 Q407.1138,72.082 407.7612,72.2314 Q408.4087,72.3809 408.9731,72.6797 L408.9731,75.4023 Q408.3423,74.8213 407.7488,74.5515 Q407.1553,74.2817 406.5244,74.2817 Q405.1797,74.2817 404.4949,75.3484 Q403.8101,76.415 403.8101,78.5151 Q403.8101,80.6069 404.4949,81.6736 Q405.1797,82.7402 406.5244,82.7402 Q407.1553,82.7402 407.7488,82.4705 Q408.3423,82.2007 408.9731,81.6196 Z " fill="#000000"/><text fill="#000000" font-family="sans-serif" font-size="12" lengthAdjust="spacing" textLength="131" x="420.5" y="82.7344">CustomerResigterForm</text><line style="stroke:#A80036;stroke-width:1.5;" x1="392.5" x2="553.5" y1="94.1992" y2="94.1992"/><rect fill="none" height="6" style="stroke:#C82930;stroke-width:1.0;" width="6" x="399.5" y="102.1992"/><text fill="#000000" font-family="sans-serif" font-size="11" lengthAdjust="spacing" textLength="70" x="411.5" y="108.834">name : String</text><rect fill="none" height="6" style="stroke:#C82930;stroke-width:1.0;" width="6" x="399.5" y="115.1543"/><text fill="#000000" font-family="sans-serif" font-size="11" lengthAdjust="spacing" textLength="96" x="411.5" y="121.7891">nameKana : String</text><rect fill="none" height="6" style="stroke:#C82930;stroke-width:1.0;" width="6" x="399.5" y="128.1094"/><text fill="#000000" font-family="sans-serif" font-size="11" lengthAdjust="spacing" textLength="91" x="411.5" y="134.7441">address1 : String</text><rect fill="none" height="6" style="stroke:#C82930;stroke-width:1.0;" width="6" x="399.5" y="141.0645"/><text fill="#000000" font-family="sans-serif" font-size="11" lengthAdjust="spacing" textLength="91" x="411.5" y="147.6992">address2 : String</text><rect fill="none" height="6" style="stroke:#C82930;stroke-width:1.0;" width="6" x="399.5" y="154.0195"/><text fill="#000000" font-family="sans-serif" font-size="11" lengthAdjust="spacing" textLength="118" x="411.5" y="160.6543">phoneNumber : String</text><rect fill="none" height="6" style="stroke:#C82930;stroke-width:1.0;" width="6" x="399.5" y="166.9746"/><text fill="#000000" font-family="sans-serif" font-size="11" lengthAdjust="spacing" textLength="108" x="411.5" y="173.6094">mailAddress : String</text><rect fill="none" height="6" style="stroke:#C82930;stroke-width:1.0;" width="6" x="399.5" y="179.9297"/><text fill="#000000" font-family="sans-serif" font-size="11" lengthAdjust="spacing" textLength="94" x="411.5" y="186.5645">username : String</text><rect fill="none" height="6" style="stroke:#C82930;stroke-width:1.0;" width="6" x="399.5" y="192.8848"/><text fill="#000000" font-family="sans-serif" font-size="11" lengthAdjust="spacing" textLength="93" x="411.5" y="199.5195">password : String</text><!--MD5=[12369ca98524ebf0f056ed6c2200f4e2]
class CustomerLoginForm--><rect codeLine="47" fill="#FEFECE" height="65.9102" id="CustomerLoginForm" style="stroke:#A80036;stroke-width:1.5;" width="146" x="660" y="457.1992"/><ellipse cx="675" cy="473.1992" fill="#ADD1B2" rx="11" ry="11" style="stroke:#A80036;stroke-width:1.0;"/><path d="M677.4731,479.3423 Q676.8921,479.6411 676.2529,479.7905 Q675.6138,479.9399 674.9082,479.9399 Q672.4014,479.9399 671.0815,478.2881 Q669.7617,476.6362 669.7617,473.5151 Q669.7617,470.3857 671.0815,468.7339 Q672.4014,467.082 674.9082,467.082 Q675.6138,467.082 676.2612,467.2314 Q676.9087,467.3809 677.4731,467.6797 L677.4731,470.4023 Q676.8423,469.8213 676.2488,469.5515 Q675.6553,469.2817 675.0244,469.2817 Q673.6797,469.2817 672.9949,470.3484 Q672.3101,471.415 672.3101,473.5151 Q672.3101,475.6069 672.9949,476.6736 Q673.6797,477.7402 675.0244,477.7402 Q675.6553,477.7402 676.2488,477.4705 Q676.8423,477.2007 677.4731,476.6196 Z " fill="#000000"/><text fill="#000000" font-family="sans-serif" font-size="12" lengthAdjust="spacing" textLength="114" x="689" y="477.7344">CustomerLoginForm</text><line style="stroke:#A80036;stroke-width:1.5;" x1="661" x2="805" y1="489.1992" y2="489.1992"/><rect fill="none" height="6" style="stroke:#C82930;stroke-width:1.0;" width="6" x="668" y="497.1992"/><text fill="#000000" font-family="sans-serif" font-size="11" lengthAdjust="spacing" textLength="70" x="680" y="503.834">name : String</text><rect fill="none" height="6" style="stroke:#C82930;stroke-width:1.0;" width="6" x="668" y="510.1543"/><text fill="#000000" font-family="sans-serif" font-size="11" lengthAdjust="spacing" textLength="93" x="680" y="516.7891">password : String</text><!--MD5=[90b4933ae61673e86d54630b91345478]
class OrderForm--><rect codeLine="51" fill="#FEFECE" height="32" id="OrderForm" style="stroke:#A80036;stroke-width:1.5;" width="95" x="685.5" y="390.1992"/><ellipse cx="700.5" cy="406.1992" fill="#ADD1B2" rx="11" ry="11" style="stroke:#A80036;stroke-width:1.0;"/><path d="M702.9731,412.3423 Q702.3921,412.6411 701.7529,412.7905 Q701.1138,412.9399 700.4082,412.9399 Q697.9014,412.9399 696.5815,411.2881 Q695.2617,409.6362 695.2617,406.5151 Q695.2617,403.3857 696.5815,401.7339 Q697.9014,400.082 700.4082,400.082 Q701.1138,400.082 701.7612,400.2314 Q702.4087,400.3809 702.9731,400.6797 L702.9731,403.4023 Q702.3423,402.8213 701.7488,402.5515 Q701.1553,402.2817 700.5244,402.2817 Q699.1797,402.2817 698.4949,403.3484 Q697.8101,404.415 697.8101,406.5151 Q697.8101,408.6069 698.4949,409.6736 Q699.1797,410.7402 700.5244,410.7402 Q701.1553,410.7402 701.7488,410.4705 Q702.3423,410.2007 702.9731,409.6196 Z " fill="#000000"/><text fill="#000000" font-family="sans-serif" font-size="12" lengthAdjust="spacing" textLength="63" x="714.5" y="410.7344">OrderForm</text><!--MD5=[eb495fd244d49c70a590e751ddb871bf]
link LoginForm to ProductForm--><!--MD5=[e16a0e10c725b04a1c788f2b20a89bd7]
link ProductForm to ProductFormValidator--><!--MD5=[f8a3bb4dee0c504b5cf645272847d922]
link ProductFormValidator to ProductCategoryForm--><!--MD5=[60cfdd698beddc9c512fc09dd215e87e]
link LoginForm to ProductCategoryFormValidator--><!--MD5=[b3f6e53ef21390afc624fc6f49951556]
link ProductCategoryFormValidator to EmployeeAccountForm--><!--MD5=[0452b28bc5ac566eddd3dc7ad22d17f7]
link EmployeeAccountForm to EmployeeAccountFormValidator--><!--MD5=[33799ea57eccd6c32013ef0e961dc5ab]
link EmployeeAccountFormValidator to CustomerResigterForm--><!--MD5=[e4274e68027f2a97b72abb5583b4a247]
link ProductCategoryFormValidator to CustomerLoginForm--><!--MD5=[3b5d62cecb729baf190960299e4ef66d]
link CustomerLoginForm to OrderForm--><!--MD5=[27696befd170958a19073f625d2fc290]
@startuml
skin rose
skinparam shadowing false
hide empty methods
hide empty fields

title formパッケージ
left to right direction

package form {
    class "LoginForm" as LoginForm{
        - name : String
        - password : String
    }
    class "ProductForm" as ProductForm{
        - name : String
        - price : Integer
        - stock : Integer
        - productCategoryId : Integer
        - image : MultipartFile
    }
    class "ProductFormValidator" as ProductFormValidator{
        + supports(Class<?> clazz) : boolean 
        + validate(Object target, Errors errors) : void 
    }
    class "ProductCategoryForm" as ProductCategoryForm{
        - name : String
    }
    class "ProductCategoryFormValidator" as ProductCategoryFormValidator{
        + supports(Class<?> clazz) : boolean 
        + validate(Object target, Errors errors) : void
    }
    class "EmployeeAccountForm" as EmployeeAccountForm{
        - employeeId : Integer
        - userName : String
        - password : String
    }
    class "EmployeeAccountFormValidator" as EmployeeAccountFormValidator{
        + supports(Class<?> clazz) : boolean 
        + validate(Object target, Errors errors) : void 
    }
    class "CustomerResigterForm" as CustomerResigterForm{
        - name : String
        - nameKana : String
        - address1 : String
        - address2 : String
        - phoneNumber : String
        - mailAddress : String
        - username : String
        - password : String
    }
    class "CustomerLoginForm" as CustomerLoginForm{
        - name : String
        - password : String
    }
    class "OrderForm" as OrderForm{
    }
}

@enduml

PlantUML version 1.2022.0(Wed Jan 12 01:16:42 JST 2022)
(GPL source distribution)
Java Runtime: OpenJDK Runtime Environment
JVM: OpenJDK 64-Bit Server VM
Default Encoding: UTF-8
Language: ja
Country: JP
--></g></svg>