<?xml version="1.0" encoding="us-ascii" standalone="no"?><svg xmlns="http://www.w3.org/2000/svg" xmlns:xlink="http://www.w3.org/1999/xlink" contentStyleType="text/css" height="1998px" preserveAspectRatio="none" style="width:1158px;height:1998px;background:#FFFFFF;" version="1.1" viewBox="0 0 1158 1998" width="1158px" zoomAndPan="magnify"><defs/><g><text fill="#000000" font-family="sans-serif" font-size="14" font-weight="bold" lengthAdjust="spacing" textLength="247" x="449.25" y="27.9951">UC012: &#21830;&#21697;&#20462;&#27491;&#27231;&#33021; &#12471;&#12540;&#12465;&#12531;&#12473;&#22259;</text><rect fill="#FFFFFF" height="1775.7734" style="stroke:#A80036;stroke-width:1.0;" width="10" x="24" y="131.5938"/><rect fill="#FFFFFF" height="719.1875" style="stroke:#A80036;stroke-width:1.0;" width="10" x="282" y="182.9922"/><rect fill="#FFFFFF" height="289" style="stroke:#A80036;stroke-width:1.0;" width="10" x="282" y="1003.7109"/><rect fill="#FFFFFF" height="504.125" style="stroke:#A80036;stroke-width:1.0;" width="10" x="282" y="1394.2422"/><rect fill="#FFFFFF" height="148.6641" style="stroke:#A80036;stroke-width:1.0;" width="10" x="466" y="299.3906"/><rect fill="#FFFFFF" height="87.3984" style="stroke:#A80036;stroke-width:1.0;" width="10" x="650" y="331.5234"/><rect fill="#FFFFFF" height="163.7969" style="stroke:#A80036;stroke-width:1.0;" width="10" x="763" y="480.1875"/><rect fill="#FFFFFF" height="262.1953" style="stroke:#A80036;stroke-width:1.0;" width="10" x="763" y="1522.7734"/><rect fill="#FFFFFF" height="87.3984" style="stroke:#A80036;stroke-width:1.0;" width="10" x="896" y="527.4531"/><rect fill="#FFFFFF" height="87.3984" style="stroke:#A80036;stroke-width:1.0;" width="10" x="896" y="1551.9063"/><rect fill="#FFFFFF" height="87.3984" style="stroke:#A80036;stroke-width:1.0;" width="10" x="1008.5" y="1668.4375"/><rect fill="#FFFFFF" height="29.1328" style="stroke:#A80036;stroke-width:1.0;" width="10" x="1118.5" y="360.6563"/><rect fill="#FFFFFF" height="29.1328" style="stroke:#A80036;stroke-width:1.0;" width="10" x="1118.5" y="556.5859"/><rect fill="#FFFFFF" height="29.1328" style="stroke:#A80036;stroke-width:1.0;" width="10" x="1118.5" y="1581.0391"/><rect fill="#FFFFFF" height="29.1328" style="stroke:#A80036;stroke-width:1.0;" width="10" x="1118.5" y="1697.5703"/><rect fill="none" height="203.7344" style="stroke:#000000;stroke-width:2.0;" width="238" x="216" y="1060.8438"/><line style="stroke:#A80036;stroke-width:1.0;stroke-dasharray:5.0,5.0;" x1="29" x2="29" y1="121.5938" y2="1916.3672"/><line style="stroke:#A80036;stroke-width:1.0;stroke-dasharray:5.0,5.0;" x1="287" x2="287" y1="121.5938" y2="1916.3672"/><line style="stroke:#A80036;stroke-width:1.0;stroke-dasharray:5.0,5.0;" x1="471" x2="471" y1="121.5938" y2="1916.3672"/><line style="stroke:#A80036;stroke-width:1.0;stroke-dasharray:5.0,5.0;" x1="655" x2="655" y1="121.5938" y2="1916.3672"/><line style="stroke:#A80036;stroke-width:1.0;stroke-dasharray:5.0,5.0;" x1="768" x2="768" y1="121.5938" y2="1916.3672"/><line style="stroke:#A80036;stroke-width:1.0;stroke-dasharray:5.0,5.0;" x1="900.5" x2="900.5" y1="121.5938" y2="1916.3672"/><line style="stroke:#A80036;stroke-width:1.0;stroke-dasharray:5.0,5.0;" x1="1013.5" x2="1013.5" y1="121.5938" y2="1916.3672"/><line style="stroke:#A80036;stroke-width:1.0;stroke-dasharray:5.0,5.0;" x1="1123.5" x2="1123.5" y1="121.5938" y2="1916.3672"/><text fill="#000000" font-family="sans-serif" font-size="14" lengthAdjust="spacing" textLength="42" x="5" y="118.292">&#12518;&#12540;&#12470;</text><ellipse cx="29" cy="52.2969" fill="#FEFECE" rx="8" ry="8" style="stroke:#A80036;stroke-width:2.0;"/><path d="M29,60.2969 L29,87.2969 M16,68.2969 L42,68.2969 M29,87.2969 L16,102.2969 M29,87.2969 L42,102.2969 " fill="none" style="stroke:#A80036;stroke-width:2.0;"/><text fill="#000000" font-family="sans-serif" font-size="14" lengthAdjust="spacing" textLength="42" x="5" y="1928.3623">&#12518;&#12540;&#12470;</text><ellipse cx="29" cy="1941.6641" fill="#FEFECE" rx="8" ry="8" style="stroke:#A80036;stroke-width:2.0;"/><path d="M29,1949.6641 L29,1976.6641 M16,1957.6641 L42,1957.6641 M29,1976.6641 L16,1991.6641 M29,1976.6641 L42,1991.6641 " fill="none" style="stroke:#A80036;stroke-width:2.0;"/><rect fill="#FEFECE" height="46.5938" style="stroke:#A80036;stroke-width:1.5;" width="122" x="226" y="74"/><text fill="#000000" font-family="sans-serif" font-size="14" lengthAdjust="spacing" textLength="108" x="233" y="93.9951">ProductUpdate</text><text fill="#000000" font-family="sans-serif" font-size="14" lengthAdjust="spacing" textLength="73" x="250.5" y="110.292">Controller</text><rect fill="#FEFECE" height="46.5938" style="stroke:#A80036;stroke-width:1.5;" width="122" x="226" y="1915.3672"/><text fill="#000000" font-family="sans-serif" font-size="14" lengthAdjust="spacing" textLength="108" x="233" y="1935.3623">ProductUpdate</text><text fill="#000000" font-family="sans-serif" font-size="14" lengthAdjust="spacing" textLength="73" x="250.5" y="1951.6592">Controller</text><rect fill="#FEFECE" height="46.5938" style="stroke:#A80036;stroke-width:1.5;" width="136" x="403" y="74"/><text fill="#000000" font-family="sans-serif" font-size="14" lengthAdjust="spacing" textLength="122" x="410" y="93.9951">ProductCategory</text><text fill="#000000" font-family="sans-serif" font-size="14" lengthAdjust="spacing" textLength="53" x="444.5" y="110.292">Service</text><rect fill="#FEFECE" height="46.5938" style="stroke:#A80036;stroke-width:1.5;" width="136" x="403" y="1915.3672"/><text fill="#000000" font-family="sans-serif" font-size="14" lengthAdjust="spacing" textLength="122" x="410" y="1935.3623">ProductCategory</text><text fill="#000000" font-family="sans-serif" font-size="14" lengthAdjust="spacing" textLength="53" x="444.5" y="1951.6592">Service</text><rect fill="#FEFECE" height="46.5938" style="stroke:#A80036;stroke-width:1.5;" width="136" x="587" y="74"/><text fill="#000000" font-family="sans-serif" font-size="14" lengthAdjust="spacing" textLength="122" x="594" y="93.9951">ProductCategory</text><text fill="#000000" font-family="sans-serif" font-size="14" lengthAdjust="spacing" textLength="79" x="615.5" y="110.292">Repository</text><rect fill="#FEFECE" height="46.5938" style="stroke:#A80036;stroke-width:1.5;" width="136" x="587" y="1915.3672"/><text fill="#000000" font-family="sans-serif" font-size="14" lengthAdjust="spacing" textLength="122" x="594" y="1935.3623">ProductCategory</text><text fill="#000000" font-family="sans-serif" font-size="14" lengthAdjust="spacing" textLength="79" x="615.5" y="1951.6592">Repository</text><rect fill="#FEFECE" height="46.5938" style="stroke:#A80036;stroke-width:1.5;" width="70" x="733" y="74"/><text fill="#000000" font-family="sans-serif" font-size="14" lengthAdjust="spacing" textLength="56" x="740" y="93.9951">Product</text><text fill="#000000" font-family="sans-serif" font-size="14" lengthAdjust="spacing" textLength="53" x="741.5" y="110.292">Service</text><rect fill="#FEFECE" height="46.5938" style="stroke:#A80036;stroke-width:1.5;" width="70" x="733" y="1915.3672"/><text fill="#000000" font-family="sans-serif" font-size="14" lengthAdjust="spacing" textLength="56" x="740" y="1935.3623">Product</text><text fill="#000000" font-family="sans-serif" font-size="14" lengthAdjust="spacing" textLength="53" x="741.5" y="1951.6592">Service</text><rect fill="#FEFECE" height="46.5938" style="stroke:#A80036;stroke-width:1.5;" width="93" x="854.5" y="74"/><text fill="#000000" font-family="sans-serif" font-size="14" lengthAdjust="spacing" textLength="56" x="873" y="93.9951">Product</text><text fill="#000000" font-family="sans-serif" font-size="14" lengthAdjust="spacing" textLength="79" x="861.5" y="110.292">Repository</text><rect fill="#FEFECE" height="46.5938" style="stroke:#A80036;stroke-width:1.5;" width="93" x="854.5" y="1915.3672"/><text fill="#000000" font-family="sans-serif" font-size="14" lengthAdjust="spacing" textLength="56" x="873" y="1935.3623">Product</text><text fill="#000000" font-family="sans-serif" font-size="14" lengthAdjust="spacing" textLength="79" x="861.5" y="1951.6592">Repository</text><rect fill="#FEFECE" height="46.5938" style="stroke:#A80036;stroke-width:1.5;" width="112" x="957.5" y="74"/><text fill="#000000" font-family="sans-serif" font-size="14" lengthAdjust="spacing" textLength="98" x="964.5" y="93.9951">ProductStock</text><text fill="#000000" font-family="sans-serif" font-size="14" lengthAdjust="spacing" textLength="79" x="974" y="110.292">Repository</text><rect fill="#FEFECE" height="46.5938" style="stroke:#A80036;stroke-width:1.5;" width="112" x="957.5" y="1915.3672"/><text fill="#000000" font-family="sans-serif" font-size="14" lengthAdjust="spacing" textLength="98" x="964.5" y="1935.3623">ProductStock</text><text fill="#000000" font-family="sans-serif" font-size="14" lengthAdjust="spacing" textLength="79" x="974" y="1951.6592">Repository</text><text fill="#000000" font-family="sans-serif" font-size="14" lengthAdjust="spacing" textLength="21" x="1110" y="118.292">DB</text><path d="M1105.5,69.2969 C1105.5,59.2969 1123.5,59.2969 1123.5,59.2969 C1123.5,59.2969 1141.5,59.2969 1141.5,69.2969 L1141.5,95.2969 C1141.5,105.2969 1123.5,105.2969 1123.5,105.2969 C1123.5,105.2969 1105.5,105.2969 1105.5,95.2969 L1105.5,69.2969 " fill="#FEFECE" style="stroke:#A80036;stroke-width:1.5;"/><path d="M1105.5,69.2969 C1105.5,79.2969 1123.5,79.2969 1123.5,79.2969 C1123.5,79.2969 1141.5,79.2969 1141.5,69.2969 " fill="none" style="stroke:#A80036;stroke-width:1.5;"/><text fill="#000000" font-family="sans-serif" font-size="14" lengthAdjust="spacing" textLength="21" x="1110" y="1928.3623">DB</text><path d="M1105.5,1941.6641 C1105.5,1931.6641 1123.5,1931.6641 1123.5,1931.6641 C1123.5,1931.6641 1141.5,1931.6641 1141.5,1941.6641 L1141.5,1967.6641 C1141.5,1977.6641 1123.5,1977.6641 1123.5,1977.6641 C1123.5,1977.6641 1105.5,1977.6641 1105.5,1967.6641 L1105.5,1941.6641 " fill="#FEFECE" style="stroke:#A80036;stroke-width:1.5;"/><path d="M1105.5,1941.6641 C1105.5,1951.6641 1123.5,1951.6641 1123.5,1951.6641 C1123.5,1951.6641 1141.5,1951.6641 1141.5,1941.6641 " fill="none" style="stroke:#A80036;stroke-width:1.5;"/><rect fill="#FFFFFF" height="1775.7734" style="stroke:#A80036;stroke-width:1.0;" width="10" x="24" y="131.5938"/><rect fill="#FFFFFF" height="719.1875" style="stroke:#A80036;stroke-width:1.0;" width="10" x="282" y="182.9922"/><rect fill="#FFFFFF" height="289" style="stroke:#A80036;stroke-width:1.0;" width="10" x="282" y="1003.7109"/><rect fill="#FFFFFF" height="504.125" style="stroke:#A80036;stroke-width:1.0;" width="10" x="282" y="1394.2422"/><rect fill="#FFFFFF" height="148.6641" style="stroke:#A80036;stroke-width:1.0;" width="10" x="466" y="299.3906"/><rect fill="#FFFFFF" height="87.3984" style="stroke:#A80036;stroke-width:1.0;" width="10" x="650" y="331.5234"/><rect fill="#FFFFFF" height="163.7969" style="stroke:#A80036;stroke-width:1.0;" width="10" x="763" y="480.1875"/><rect fill="#FFFFFF" height="262.1953" style="stroke:#A80036;stroke-width:1.0;" width="10" x="763" y="1522.7734"/><rect fill="#FFFFFF" height="87.3984" style="stroke:#A80036;stroke-width:1.0;" width="10" x="896" y="527.4531"/><rect fill="#FFFFFF" height="87.3984" style="stroke:#A80036;stroke-width:1.0;" width="10" x="896" y="1551.9063"/><rect fill="#FFFFFF" height="87.3984" style="stroke:#A80036;stroke-width:1.0;" width="10" x="1008.5" y="1668.4375"/><rect fill="#FFFFFF" height="29.1328" style="stroke:#A80036;stroke-width:1.0;" width="10" x="1118.5" y="360.6563"/><rect fill="#FFFFFF" height="29.1328" style="stroke:#A80036;stroke-width:1.0;" width="10" x="1118.5" y="556.5859"/><rect fill="#FFFFFF" height="29.1328" style="stroke:#A80036;stroke-width:1.0;" width="10" x="1118.5" y="1581.0391"/><rect fill="#FFFFFF" height="29.1328" style="stroke:#A80036;stroke-width:1.0;" width="10" x="1118.5" y="1697.5703"/><polygon fill="#A80036" points="270,178.9922,280,182.9922,270,186.9922,274,182.9922" style="stroke:#A80036;stroke-width:1.0;"/><line style="stroke:#A80036;stroke-width:1.0;" x1="34" x2="276" y1="182.9922" y2="182.9922"/><text fill="#000000" font-family="sans-serif" font-size="13" lengthAdjust="spacing" textLength="26" x="41" y="147.6606">GET</text><text fill="#000000" font-family="sans-serif" font-size="13" lengthAdjust="spacing" textLength="229" x="41" y="162.7935">/admin/product-update/{productId}</text><text fill="#000000" font-family="sans-serif" font-size="13" lengthAdjust="spacing" textLength="101" x="41" y="177.9263">form(productId)</text><line style="stroke:#A80036;stroke-width:1.0;" x1="292" x2="334" y1="212.125" y2="212.125"/><line style="stroke:#A80036;stroke-width:1.0;" x1="334" x2="334" y1="212.125" y2="225.125"/><line style="stroke:#A80036;stroke-width:1.0;" x1="293" x2="334" y1="225.125" y2="225.125"/><polygon fill="#A80036" points="303,221.125,293,225.125,303,229.125,299,225.125" style="stroke:#A80036;stroke-width:1.0;"/><text fill="#000000" font-family="sans-serif" font-size="13" lengthAdjust="spacing" textLength="80" x="299" y="207.0591">setUpForm()</text><line style="stroke:#A80036;stroke-width:1.0;" x1="292" x2="334" y1="254.2578" y2="254.2578"/><line style="stroke:#A80036;stroke-width:1.0;" x1="334" x2="334" y1="254.2578" y2="267.2578"/><line style="stroke:#A80036;stroke-width:1.0;" x1="293" x2="334" y1="267.2578" y2="267.2578"/><polygon fill="#A80036" points="303,263.2578,293,267.2578,303,271.2578,299,267.2578" style="stroke:#A80036;stroke-width:1.0;"/><text fill="#000000" font-family="sans-serif" font-size="13" lengthAdjust="spacing" textLength="37" x="299" y="249.1919">bind()</text><polygon fill="#A80036" points="454,295.3906,464,299.3906,454,303.3906,458,299.3906" style="stroke:#A80036;stroke-width:1.0;"/><line style="stroke:#A80036;stroke-width:1.0;" x1="292" x2="460" y1="299.3906" y2="299.3906"/><text fill="#000000" font-family="sans-serif" font-size="13" lengthAdjust="spacing" textLength="49" x="299" y="294.3247">findAll()</text><path d="M481,280.2578 L481,305.2578 L645,305.2578 L645,290.2578 L635,280.2578 L481,280.2578 " fill="#FBFB77" style="stroke:#A80036;stroke-width:1.0;"/><path d="M635,280.2578 L635,290.2578 L645,290.2578 L635,280.2578 " fill="#FBFB77" style="stroke:#A80036;stroke-width:1.0;"/><text fill="#000000" font-family="sans-serif" font-size="13" lengthAdjust="spacing" textLength="143" x="487" y="297.3247">&#21830;&#21697;&#12459;&#12486;&#12468;&#12522;&#12522;&#12473;&#12488;&#21462;&#24471;</text><polygon fill="#A80036" points="638,327.5234,648,331.5234,638,335.5234,642,331.5234" style="stroke:#A80036;stroke-width:1.0;"/><line style="stroke:#A80036;stroke-width:1.0;" x1="476" x2="644" y1="331.5234" y2="331.5234"/><text fill="#000000" font-family="sans-serif" font-size="13" lengthAdjust="spacing" textLength="49" x="483" y="326.4575">findAll()</text><polygon fill="#A80036" points="1106.5,356.6563,1116.5,360.6563,1106.5,364.6563,1110.5,360.6563" style="stroke:#A80036;stroke-width:1.0;"/><line style="stroke:#A80036;stroke-width:1.0;" x1="660" x2="1112.5" y1="360.6563" y2="360.6563"/><text fill="#000000" font-family="sans-serif" font-size="13" lengthAdjust="spacing" textLength="77" x="667" y="355.5903">SQL SELECT</text><polygon fill="#A80036" points="671,385.7891,661,389.7891,671,393.7891,667,389.7891" style="stroke:#A80036;stroke-width:1.0;"/><line style="stroke:#A80036;stroke-width:1.0;stroke-dasharray:2.0,2.0;" x1="665" x2="1122.5" y1="389.7891" y2="389.7891"/><text fill="#000000" font-family="sans-serif" font-size="13" lengthAdjust="spacing" textLength="150" x="677" y="384.7231">List&lt;ProductCategory&gt;</text><polygon fill="#A80036" points="487,414.9219,477,418.9219,487,422.9219,483,418.9219" style="stroke:#A80036;stroke-width:1.0;"/><line style="stroke:#A80036;stroke-width:1.0;" x1="481" x2="654" y1="418.9219" y2="418.9219"/><text fill="#000000" font-family="sans-serif" font-size="13" lengthAdjust="spacing" textLength="150" x="493" y="413.856">List&lt;ProductCategory&gt;</text><polygon fill="#A80036" points="303,444.0547,293,448.0547,303,452.0547,299,448.0547" style="stroke:#A80036;stroke-width:1.0;"/><line style="stroke:#A80036;stroke-width:1.0;stroke-dasharray:2.0,2.0;" x1="297" x2="470" y1="448.0547" y2="448.0547"/><text fill="#000000" font-family="sans-serif" font-size="13" lengthAdjust="spacing" textLength="150" x="309" y="442.9888">List&lt;ProductCategory&gt;</text><polygon fill="#A80036" points="751,476.1875,761,480.1875,751,484.1875,755,480.1875" style="stroke:#A80036;stroke-width:1.0;"/><line style="stroke:#A80036;stroke-width:1.0;" x1="292" x2="757" y1="480.1875" y2="480.1875"/><text fill="#000000" font-family="sans-serif" font-size="13" lengthAdjust="spacing" textLength="121" x="299" y="475.1216">findById(productId)</text><path d="M778,461.0547 L778,486.0547 L877,486.0547 L877,471.0547 L867,461.0547 L778,461.0547 " fill="#FBFB77" style="stroke:#A80036;stroke-width:1.0;"/><path d="M867,461.0547 L867,471.0547 L877,471.0547 L867,461.0547 " fill="#FBFB77" style="stroke:#A80036;stroke-width:1.0;"/><text fill="#000000" font-family="sans-serif" font-size="13" lengthAdjust="spacing" textLength="78" x="784" y="478.1216">&#21830;&#21697;&#24773;&#22577;&#21462;&#24471;</text><polygon fill="#A80036" points="884,523.4531,894,527.4531,884,531.4531,888,527.4531" style="stroke:#A80036;stroke-width:1.0;"/><line style="stroke:#A80036;stroke-width:1.0;" x1="773" x2="890" y1="527.4531" y2="527.4531"/><text fill="#000000" font-family="sans-serif" font-size="13" lengthAdjust="spacing" textLength="51" x="780" y="507.2544">findById</text><text fill="#000000" font-family="sans-serif" font-size="13" lengthAdjust="spacing" textLength="70" x="780" y="522.3872">(productId)</text><polygon fill="#A80036" points="1106.5,552.5859,1116.5,556.5859,1106.5,560.5859,1110.5,556.5859" style="stroke:#A80036;stroke-width:1.0;"/><line style="stroke:#A80036;stroke-width:1.0;" x1="906" x2="1112.5" y1="556.5859" y2="556.5859"/><text fill="#000000" font-family="sans-serif" font-size="13" lengthAdjust="spacing" textLength="77" x="913" y="551.52">SQL SELECT</text><polygon fill="#A80036" points="917,581.7188,907,585.7188,917,589.7188,913,585.7188" style="stroke:#A80036;stroke-width:1.0;"/><line style="stroke:#A80036;stroke-width:1.0;stroke-dasharray:2.0,2.0;" x1="911" x2="1122.5" y1="585.7188" y2="585.7188"/><text fill="#000000" font-family="sans-serif" font-size="13" lengthAdjust="spacing" textLength="49" x="923" y="580.6528">Product</text><polygon fill="#A80036" points="784,610.8516,774,614.8516,784,618.8516,780,614.8516" style="stroke:#A80036;stroke-width:1.0;"/><line style="stroke:#A80036;stroke-width:1.0;stroke-dasharray:2.0,2.0;" x1="778" x2="900" y1="614.8516" y2="614.8516"/><text fill="#000000" font-family="sans-serif" font-size="13" lengthAdjust="spacing" textLength="49" x="790" y="609.7856">Product</text><polygon fill="#A80036" points="303,639.9844,293,643.9844,303,647.9844,299,643.9844" style="stroke:#A80036;stroke-width:1.0;"/><line style="stroke:#A80036;stroke-width:1.0;stroke-dasharray:2.0,2.0;" x1="297" x2="767" y1="643.9844" y2="643.9844"/><text fill="#000000" font-family="sans-serif" font-size="13" lengthAdjust="spacing" textLength="49" x="309" y="638.9185">Product</text><line style="stroke:#A80036;stroke-width:1.0;" x1="292" x2="334" y1="688.25" y2="688.25"/><line style="stroke:#A80036;stroke-width:1.0;" x1="334" x2="334" y1="688.25" y2="701.25"/><line style="stroke:#A80036;stroke-width:1.0;" x1="293" x2="334" y1="701.25" y2="701.25"/><polygon fill="#A80036" points="303,697.25,293,701.25,303,705.25,299,701.25" style="stroke:#A80036;stroke-width:1.0;"/><text fill="#000000" font-family="sans-serif" font-size="13" lengthAdjust="spacing" textLength="104" x="299" y="668.0513">&#12456;&#12531;&#12486;&#12451;&#12486;&#12451;&#12363;&#12425;</text><text fill="#000000" font-family="sans-serif" font-size="13" lengthAdjust="spacing" textLength="91" x="299" y="683.1841">&#12501;&#12457;&#12540;&#12512;&#12395;&#22793;&#25563;</text><line style="stroke:#A80036;stroke-width:1.0;" x1="292" x2="334" y1="745.5156" y2="745.5156"/><line style="stroke:#A80036;stroke-width:1.0;" x1="334" x2="334" y1="745.5156" y2="758.5156"/><line style="stroke:#A80036;stroke-width:1.0;" x1="293" x2="334" y1="758.5156" y2="758.5156"/><polygon fill="#A80036" points="303,754.5156,293,758.5156,303,762.5156,299,758.5156" style="stroke:#A80036;stroke-width:1.0;"/><text fill="#000000" font-family="sans-serif" font-size="13" lengthAdjust="spacing" textLength="63" x="299" y="725.3169">Model&#36861;&#21152;</text><text fill="#000000" font-family="sans-serif" font-size="13" lengthAdjust="spacing" textLength="78" x="299" y="740.4497">&#65288;&#12501;&#12457;&#12540;&#12512;&#65289;</text><line style="stroke:#A80036;stroke-width:1.0;" x1="292" x2="334" y1="802.7813" y2="802.7813"/><line style="stroke:#A80036;stroke-width:1.0;" x1="334" x2="334" y1="802.7813" y2="815.7813"/><line style="stroke:#A80036;stroke-width:1.0;" x1="293" x2="334" y1="815.7813" y2="815.7813"/><polygon fill="#A80036" points="303,811.7813,293,815.7813,303,819.7813,299,815.7813" style="stroke:#A80036;stroke-width:1.0;"/><text fill="#000000" font-family="sans-serif" font-size="13" lengthAdjust="spacing" textLength="63" x="299" y="782.5825">Model&#36861;&#21152;</text><text fill="#000000" font-family="sans-serif" font-size="13" lengthAdjust="spacing" textLength="143" x="299" y="797.7153">&#65288;&#21830;&#21697;&#12459;&#12486;&#12468;&#12522;&#12522;&#12473;&#12488;&#65289;</text><line style="stroke:#A80036;stroke-width:1.0;" x1="292" x2="334" y1="860.0469" y2="860.0469"/><line style="stroke:#A80036;stroke-width:1.0;" x1="334" x2="334" y1="860.0469" y2="873.0469"/><line style="stroke:#A80036;stroke-width:1.0;" x1="293" x2="334" y1="873.0469" y2="873.0469"/><polygon fill="#A80036" points="303,869.0469,293,873.0469,303,877.0469,299,873.0469" style="stroke:#A80036;stroke-width:1.0;"/><text fill="#000000" font-family="sans-serif" font-size="13" lengthAdjust="spacing" textLength="63" x="299" y="839.8481">Model&#36861;&#21152;</text><text fill="#000000" font-family="sans-serif" font-size="13" lengthAdjust="spacing" textLength="52" x="299" y="854.981">&#65288;&#21830;&#21697;&#65289;</text><polygon fill="#A80036" points="45,898.1797,35,902.1797,45,906.1797,41,902.1797" style="stroke:#A80036;stroke-width:1.0;"/><line style="stroke:#A80036;stroke-width:1.0;" x1="39" x2="286" y1="902.1797" y2="902.1797"/><text fill="#000000" font-family="sans-serif" font-size="13" lengthAdjust="spacing" textLength="52" x="51" y="897.1138">&#20837;&#21147;&#30011;&#38754;</text><line style="stroke:#A80036;stroke-width:1.0;" x1="34" x2="76" y1="931.3125" y2="931.3125"/><line style="stroke:#A80036;stroke-width:1.0;" x1="76" x2="76" y1="931.3125" y2="944.3125"/><line style="stroke:#A80036;stroke-width:1.0;" x1="35" x2="76" y1="944.3125" y2="944.3125"/><polygon fill="#A80036" points="45,940.3125,35,944.3125,45,948.3125,41,944.3125" style="stroke:#A80036;stroke-width:1.0;"/><text fill="#000000" font-family="sans-serif" font-size="13" lengthAdjust="spacing" textLength="78" x="41" y="926.2466">&#21830;&#21697;&#24773;&#22577;&#20462;&#27491;</text><polygon fill="#A80036" points="270,999.7109,280,1003.7109,270,1007.7109,274,1003.7109" style="stroke:#A80036;stroke-width:1.0;"/><line style="stroke:#A80036;stroke-width:1.0;" x1="34" x2="276" y1="1003.7109" y2="1003.7109"/><text fill="#000000" font-family="sans-serif" font-size="13" lengthAdjust="spacing" textLength="34" x="41" y="968.3794">POST</text><text fill="#000000" font-family="sans-serif" font-size="13" lengthAdjust="spacing" textLength="200" x="41" y="983.5122">/admin/product-update/confirm</text><text fill="#000000" font-family="sans-serif" font-size="13" lengthAdjust="spacing" textLength="59" x="41" y="998.645">confirm()</text><line style="stroke:#A80036;stroke-width:1.0;" x1="292" x2="334" y1="1032.8438" y2="1032.8438"/><line style="stroke:#A80036;stroke-width:1.0;" x1="334" x2="334" y1="1032.8438" y2="1045.8438"/><line style="stroke:#A80036;stroke-width:1.0;" x1="293" x2="334" y1="1045.8438" y2="1045.8438"/><polygon fill="#A80036" points="303,1041.8438,293,1045.8438,303,1049.8438,299,1045.8438" style="stroke:#A80036;stroke-width:1.0;"/><text fill="#000000" font-family="sans-serif" font-size="13" lengthAdjust="spacing" textLength="65" x="299" y="1027.7778">&#12496;&#12522;&#12487;&#12540;&#12488;</text><path d="M216,1060.8438 L282,1060.8438 L282,1067.9766 L272,1077.9766 L216,1077.9766 L216,1060.8438 " fill="#EEEEEE" style="stroke:#000000;stroke-width:1.0;"/><rect fill="none" height="203.7344" style="stroke:#000000;stroke-width:2.0;" width="238" x="216" y="1060.8438"/><text fill="#000000" font-family="sans-serif" font-size="13" font-weight="bold" lengthAdjust="spacing" textLength="21" x="231" y="1073.9106">alt</text><text fill="#000000" font-family="sans-serif" font-size="11" font-weight="bold" lengthAdjust="spacing" textLength="76" x="297" y="1073.0542">[&#30011;&#20687;&#20462;&#27491;&#12354;&#12426;]</text><line style="stroke:#A80036;stroke-width:1.0;" x1="292" x2="334" y1="1114.2422" y2="1114.2422"/><line style="stroke:#A80036;stroke-width:1.0;" x1="334" x2="334" y1="1114.2422" y2="1127.2422"/><line style="stroke:#A80036;stroke-width:1.0;" x1="293" x2="334" y1="1127.2422" y2="1127.2422"/><polygon fill="#A80036" points="303,1123.2422,293,1127.2422,303,1131.2422,299,1127.2422" style="stroke:#A80036;stroke-width:1.0;"/><text fill="#000000" font-family="sans-serif" font-size="13" lengthAdjust="spacing" textLength="91" x="299" y="1094.0435">&#12475;&#12483;&#12471;&#12519;&#12531;&#36861;&#21152;</text><text fill="#000000" font-family="sans-serif" font-size="13" lengthAdjust="spacing" textLength="112" x="299" y="1109.1763">&#65288;&#26032;&#30011;&#20687;Base64&#65289;</text><line style="stroke:#A80036;stroke-width:1.0;" x1="292" x2="334" y1="1171.5078" y2="1171.5078"/><line style="stroke:#A80036;stroke-width:1.0;" x1="334" x2="334" y1="1171.5078" y2="1184.5078"/><line style="stroke:#A80036;stroke-width:1.0;" x1="293" x2="334" y1="1184.5078" y2="1184.5078"/><polygon fill="#A80036" points="303,1180.5078,293,1184.5078,303,1188.5078,299,1184.5078" style="stroke:#A80036;stroke-width:1.0;"/><text fill="#000000" font-family="sans-serif" font-size="13" lengthAdjust="spacing" textLength="91" x="299" y="1151.3091">&#12475;&#12483;&#12471;&#12519;&#12531;&#36861;&#21152;</text><text fill="#000000" font-family="sans-serif" font-size="13" lengthAdjust="spacing" textLength="143" x="299" y="1166.4419">&#65288;&#26032;&#30011;&#20687;&#12496;&#12452;&#12488;&#12487;&#12540;&#12479;&#65289;</text><line style="stroke:#000000;stroke-width:1.0;stroke-dasharray:2.0,2.0;" x1="216" x2="454" y1="1193.5078" y2="1193.5078"/><text fill="#000000" font-family="sans-serif" font-size="11" font-weight="bold" lengthAdjust="spacing" textLength="76" x="221" y="1203.7183">[&#30011;&#20687;&#20462;&#27491;&#12394;&#12375;]</text><line style="stroke:#A80036;stroke-width:1.0;" x1="292" x2="334" y1="1243.5781" y2="1243.5781"/><line style="stroke:#A80036;stroke-width:1.0;" x1="334" x2="334" y1="1243.5781" y2="1256.5781"/><line style="stroke:#A80036;stroke-width:1.0;" x1="293" x2="334" y1="1256.5781" y2="1256.5781"/><polygon fill="#A80036" points="303,1252.5781,293,1256.5781,303,1260.5781,299,1256.5781" style="stroke:#A80036;stroke-width:1.0;"/><text fill="#000000" font-family="sans-serif" font-size="13" lengthAdjust="spacing" textLength="63" x="299" y="1223.3794">Model&#36861;&#21152;</text><text fill="#000000" font-family="sans-serif" font-size="13" lengthAdjust="spacing" textLength="143" x="299" y="1238.5122">&#65288;"/img/"+&#12501;&#12449;&#12452;&#12523;&#21517;&#65289;</text><polygon fill="#A80036" points="45,1288.7109,35,1292.7109,45,1296.7109,41,1292.7109" style="stroke:#A80036;stroke-width:1.0;"/><line style="stroke:#A80036;stroke-width:1.0;" x1="39" x2="286" y1="1292.7109" y2="1292.7109"/><text fill="#000000" font-family="sans-serif" font-size="13" lengthAdjust="spacing" textLength="52" x="51" y="1287.645">&#30906;&#35469;&#30011;&#38754;</text><line style="stroke:#A80036;stroke-width:1.0;" x1="34" x2="76" y1="1321.8438" y2="1321.8438"/><line style="stroke:#A80036;stroke-width:1.0;" x1="76" x2="76" y1="1321.8438" y2="1334.8438"/><line style="stroke:#A80036;stroke-width:1.0;" x1="35" x2="76" y1="1334.8438" y2="1334.8438"/><polygon fill="#A80036" points="45,1330.8438,35,1334.8438,45,1338.8438,41,1334.8438" style="stroke:#A80036;stroke-width:1.0;"/><text fill="#000000" font-family="sans-serif" font-size="13" lengthAdjust="spacing" textLength="78" x="41" y="1316.7778">&#20837;&#21147;&#20869;&#23481;&#30906;&#35469;</text><polygon fill="#A80036" points="270,1390.2422,280,1394.2422,270,1398.2422,274,1394.2422" style="stroke:#A80036;stroke-width:1.0;"/><line style="stroke:#A80036;stroke-width:1.0;" x1="34" x2="276" y1="1394.2422" y2="1394.2422"/><text fill="#000000" font-family="sans-serif" font-size="13" lengthAdjust="spacing" textLength="34" x="41" y="1358.9106">POST</text><text fill="#000000" font-family="sans-serif" font-size="13" lengthAdjust="spacing" textLength="211" x="41" y="1374.0435">/admin/product-update/complete</text><text fill="#000000" font-family="sans-serif" font-size="13" lengthAdjust="spacing" textLength="70" x="41" y="1389.1763">complete()</text><line style="stroke:#A80036;stroke-width:1.0;" x1="292" x2="334" y1="1423.375" y2="1423.375"/><line style="stroke:#A80036;stroke-width:1.0;" x1="334" x2="334" y1="1423.375" y2="1436.375"/><line style="stroke:#A80036;stroke-width:1.0;" x1="293" x2="334" y1="1436.375" y2="1436.375"/><polygon fill="#A80036" points="303,1432.375,293,1436.375,303,1440.375,299,1436.375" style="stroke:#A80036;stroke-width:1.0;"/><text fill="#000000" font-family="sans-serif" font-size="13" lengthAdjust="spacing" textLength="91" x="299" y="1418.3091">&#12475;&#12483;&#12471;&#12519;&#12531;&#30906;&#35469;</text><path d="M402,1410.7422 L402,1435.7422 L644,1435.7422 L644,1420.7422 L634,1410.7422 L402,1410.7422 " fill="#FBFB77" style="stroke:#A80036;stroke-width:1.0;"/><path d="M634,1410.7422 L634,1420.7422 L644,1420.7422 L634,1410.7422 " fill="#FBFB77" style="stroke:#A80036;stroke-width:1.0;"/><text fill="#000000" font-family="sans-serif" font-size="13" lengthAdjust="spacing" textLength="221" x="408" y="1427.8091">&#12501;&#12457;&#12540;&#12512;&#12364;&#31354;&#12398;&#22580;&#21512;&#12399;&#12471;&#12473;&#12486;&#12512;&#12456;&#12521;&#12540;</text><line style="stroke:#A80036;stroke-width:1.0;" x1="292" x2="334" y1="1480.6406" y2="1480.6406"/><line style="stroke:#A80036;stroke-width:1.0;" x1="334" x2="334" y1="1480.6406" y2="1493.6406"/><line style="stroke:#A80036;stroke-width:1.0;" x1="293" x2="334" y1="1493.6406" y2="1493.6406"/><polygon fill="#A80036" points="303,1489.6406,293,1493.6406,303,1497.6406,299,1493.6406" style="stroke:#A80036;stroke-width:1.0;"/><text fill="#000000" font-family="sans-serif" font-size="13" lengthAdjust="spacing" textLength="78" x="299" y="1460.4419">&#12501;&#12457;&#12540;&#12512;&#12363;&#12425;</text><text fill="#000000" font-family="sans-serif" font-size="13" lengthAdjust="spacing" textLength="117" x="299" y="1475.5747">&#12456;&#12531;&#12486;&#12451;&#12486;&#12451;&#12395;&#22793;&#25563;</text><polygon fill="#A80036" points="751,1518.7734,761,1522.7734,751,1526.7734,755,1522.7734" style="stroke:#A80036;stroke-width:1.0;"/><line style="stroke:#A80036;stroke-width:1.0;" x1="292" x2="757" y1="1522.7734" y2="1522.7734"/><text fill="#000000" font-family="sans-serif" font-size="13" lengthAdjust="spacing" textLength="104" x="299" y="1517.7075">update(Product)</text><polygon fill="#A80036" points="884,1547.9063,894,1551.9063,884,1555.9063,888,1551.9063" style="stroke:#A80036;stroke-width:1.0;"/><line style="stroke:#A80036;stroke-width:1.0;" x1="773" x2="890" y1="1551.9063" y2="1551.9063"/><text fill="#000000" font-family="sans-serif" font-size="13" lengthAdjust="spacing" textLength="104" x="780" y="1546.8403">update(Product)</text><polygon fill="#A80036" points="1106.5,1577.0391,1116.5,1581.0391,1106.5,1585.0391,1110.5,1581.0391" style="stroke:#A80036;stroke-width:1.0;"/><line style="stroke:#A80036;stroke-width:1.0;" x1="906" x2="1112.5" y1="1581.0391" y2="1581.0391"/><text fill="#000000" font-family="sans-serif" font-size="13" lengthAdjust="spacing" textLength="81" x="913" y="1575.9731">SQL UPDATE</text><polygon fill="#A80036" points="917,1606.1719,907,1610.1719,917,1614.1719,913,1610.1719" style="stroke:#A80036;stroke-width:1.0;"/><line style="stroke:#A80036;stroke-width:1.0;stroke-dasharray:2.0,2.0;" x1="911" x2="1122.5" y1="1610.1719" y2="1610.1719"/><text fill="#000000" font-family="sans-serif" font-size="13" lengthAdjust="spacing" textLength="27" x="923" y="1605.106">void</text><polygon fill="#A80036" points="784,1635.3047,774,1639.3047,784,1643.3047,780,1639.3047" style="stroke:#A80036;stroke-width:1.0;"/><line style="stroke:#A80036;stroke-width:1.0;stroke-dasharray:2.0,2.0;" x1="778" x2="900" y1="1639.3047" y2="1639.3047"/><text fill="#000000" font-family="sans-serif" font-size="13" lengthAdjust="spacing" textLength="27" x="790" y="1634.2388">void</text><polygon fill="#A80036" points="996.5,1664.4375,1006.5,1668.4375,996.5,1672.4375,1000.5,1668.4375" style="stroke:#A80036;stroke-width:1.0;"/><line style="stroke:#A80036;stroke-width:1.0;" x1="773" x2="1002.5" y1="1668.4375" y2="1668.4375"/><text fill="#000000" font-family="sans-serif" font-size="13" lengthAdjust="spacing" textLength="139" x="780" y="1663.3716">update(ProductStock)</text><polygon fill="#A80036" points="1106.5,1693.5703,1116.5,1697.5703,1106.5,1701.5703,1110.5,1697.5703" style="stroke:#A80036;stroke-width:1.0;"/><line style="stroke:#A80036;stroke-width:1.0;" x1="1018.5" x2="1112.5" y1="1697.5703" y2="1697.5703"/><text fill="#000000" font-family="sans-serif" font-size="13" lengthAdjust="spacing" textLength="81" x="1025.5" y="1692.5044">SQL UPDATE</text><polygon fill="#A80036" points="1029.5,1722.7031,1019.5,1726.7031,1029.5,1730.7031,1025.5,1726.7031" style="stroke:#A80036;stroke-width:1.0;"/><line style="stroke:#A80036;stroke-width:1.0;stroke-dasharray:2.0,2.0;" x1="1023.5" x2="1122.5" y1="1726.7031" y2="1726.7031"/><text fill="#000000" font-family="sans-serif" font-size="13" lengthAdjust="spacing" textLength="27" x="1035.5" y="1721.6372">void</text><polygon fill="#A80036" points="784,1751.8359,774,1755.8359,784,1759.8359,780,1755.8359" style="stroke:#A80036;stroke-width:1.0;"/><line style="stroke:#A80036;stroke-width:1.0;stroke-dasharray:2.0,2.0;" x1="778" x2="1012.5" y1="1755.8359" y2="1755.8359"/><text fill="#000000" font-family="sans-serif" font-size="13" lengthAdjust="spacing" textLength="27" x="790" y="1750.77">void</text><polygon fill="#A80036" points="303,1780.9688,293,1784.9688,303,1788.9688,299,1784.9688" style="stroke:#A80036;stroke-width:1.0;"/><line style="stroke:#A80036;stroke-width:1.0;stroke-dasharray:2.0,2.0;" x1="297" x2="767" y1="1784.9688" y2="1784.9688"/><text fill="#000000" font-family="sans-serif" font-size="13" lengthAdjust="spacing" textLength="27" x="309" y="1779.9028">void</text><line style="stroke:#A80036;stroke-width:1.0;" x1="292" x2="334" y1="1814.1016" y2="1814.1016"/><line style="stroke:#A80036;stroke-width:1.0;" x1="334" x2="334" y1="1814.1016" y2="1827.1016"/><line style="stroke:#A80036;stroke-width:1.0;" x1="293" x2="334" y1="1827.1016" y2="1827.1016"/><polygon fill="#A80036" points="303,1823.1016,293,1827.1016,303,1831.1016,299,1827.1016" style="stroke:#A80036;stroke-width:1.0;"/><text fill="#000000" font-family="sans-serif" font-size="13" lengthAdjust="spacing" textLength="91" x="299" y="1809.0356">&#12475;&#12483;&#12471;&#12519;&#12531;&#30772;&#26820;</text><line style="stroke:#A80036;stroke-width:1.0;" x1="292" x2="334" y1="1856.2344" y2="1856.2344"/><line style="stroke:#A80036;stroke-width:1.0;" x1="334" x2="334" y1="1856.2344" y2="1869.2344"/><line style="stroke:#A80036;stroke-width:1.0;" x1="293" x2="334" y1="1869.2344" y2="1869.2344"/><polygon fill="#A80036" points="303,1865.2344,293,1869.2344,303,1873.2344,299,1869.2344" style="stroke:#A80036;stroke-width:1.0;"/><text fill="#000000" font-family="sans-serif" font-size="13" lengthAdjust="spacing" textLength="128" x="299" y="1851.1685">Model&#36861;&#21152;&#65288;&#21830;&#21697;&#21517;&#65289;</text><polygon fill="#A80036" points="45,1894.3672,35,1898.3672,45,1902.3672,41,1898.3672" style="stroke:#A80036;stroke-width:1.0;"/><line style="stroke:#A80036;stroke-width:1.0;" x1="39" x2="286" y1="1898.3672" y2="1898.3672"/><text fill="#000000" font-family="sans-serif" font-size="13" lengthAdjust="spacing" textLength="52" x="51" y="1893.3013">&#23436;&#20102;&#30011;&#38754;</text><!--SRC=[dLLTJzDG6BxlhpZPZH2oJ3RZ1J4aCAOXmOWExdhJjTrew4wNjimGuyLQcGCXa2XmGOmJy0E8KmBHy2K_vd06NlaNFEUqOrrtnbH2e3tlytu-vtbhJMiGc8Qb2XPvAaYcb0VMbAGOJpMO0rb99nR1rcnT1PF9s_tn0O1No_XrwUAyLl-oLTzvT-MU0UJyGEufSlQHUu2S8xnn84YoRPWWWjoFpF8z0YGBp5YgIIrQKR9Lxuraj3LPAqZG1f5nqr1cP7koe12x29C6j4r3rrMJUSksgNFnIOBE6UQi2DEgMTHabS6jejpV1Vv4BHYMHWgTPHucUUMxj4METu1n8lAXQTkGfxduX42wbpAIfOAHONgeP0JX5i1p7_32nkMRarzlDmKwEX0TP2C1VNrW03n8JOWm9Ybv3SOANehe39jZx9d_Fgey5s7MCFCzrmUz0elGY3G0B9LC_px5j9ao6bG2ftIyNkeiCGpfEh51Wz1gQhafkt5DaBE7t39o3f6xIt-T8-HMyF8Q_haki0Wa4XjxE9HtIAnAnZEb7u-1T6eibPmGo57qsYyQ9SOnpRBlXUWTRCRmCdK6-dQ_rHk0WURZpOg7PqULu4pRnr1tvt1rlzbtlD5tA8e8Wt4yGDSPnBsA_M8RNeqgMsp-IR3HXYd4Dd8-Kp5JxhRylwLNo9aN8N9NaRD3LUrMKMaFRy_NbpV2xWyDHTMlpi_mGbM4lqyhGQVVf_FTu3TSdh_s3W8zlT1sMsH4P7MvUNorknII5VlVofstxpZ26t-KxgWysO1PpSoBq7ze5nLoLrXpBzbeAeAasu0KWzrbBo4gESXP403vQIFe1BaksxoV25E1zkjhtxmGmsI7tBr3v_1__hGuPvkKvTVddDDOAlaaX6hSHQLrNeumCP6Obi_58dtiDhndiVVmoXAB2XKEMotiq2LOMxmuBdTWYp6BotEuTkJv_JDR-OAkqWzFuud3L-lK_3n1mRVAO_5ovnYLQhXwY5SggFILUj9hNAPMAZ6ARByKmH2-wZXw36klkPMyZdfyRVVoLauOmbqsa-CZGnCfph8f6fh2tJJC44oNuALZNpylPw9xpaGePw9ppfRLniwx45Wzh6-zk66XNAyJ_vvoDahWJlu1]--></g></svg>