<svg xmlns="http://www.w3.org/2000/svg" xmlns:xlink="http://www.w3.org/1999/xlink" contentStyleType="text/css" height="2114px" preserveAspectRatio="none" style="width:1165px;height:2114px;background:#FFFFFF;" version="1.1" viewBox="0 0 1165 2114" width="1165px" zoomAndPan="magnify"><defs/><g><text fill="#000000" font-family="sans-serif" font-size="14" font-weight="bold" lengthAdjust="spacing" textLength="234.2122" x="459.2152" y="27.9951">UC012: &#21830;&#21697;&#20462;&#27491;&#27231;&#33021; &#12471;&#12540;&#12465;&#12531;&#12473;&#22259;</text><rect fill="#FFFFFF" height="1891.3047" style="stroke:#A80036;stroke-width:1.0;" width="10" x="23.9999" y="131.5938"/><rect fill="#FFFFFF" height="719.1875" style="stroke:#A80036;stroke-width:1.0;" width="10" x="286.5683" y="182.9922"/><rect fill="#FFFFFF" height="289" style="stroke:#A80036;stroke-width:1.0;" width="10" x="286.5683" y="1003.7109"/><rect fill="#FFFFFF" height="504.125" style="stroke:#A80036;stroke-width:1.0;" width="10" x="286.5683" y="1394.2422"/><rect fill="#FFFFFF" height="65.1328" style="stroke:#A80036;stroke-width:1.0;" width="10" x="286.5683" y="1957.7656"/><rect fill="#FFFFFF" height="148.6641" style="stroke:#A80036;stroke-width:1.0;" width="10" x="474.3339" y="299.3906"/><rect fill="#FFFFFF" height="87.3984" style="stroke:#A80036;stroke-width:1.0;" width="10" x="662.0995" y="331.5234"/><rect fill="#FFFFFF" height="163.7969" style="stroke:#A80036;stroke-width:1.0;" width="10" x="771.7846" y="480.1875"/><rect fill="#FFFFFF" height="262.1953" style="stroke:#A80036;stroke-width:1.0;" width="10" x="771.7846" y="1522.7734"/><rect fill="#FFFFFF" height="87.3984" style="stroke:#A80036;stroke-width:1.0;" width="10" x="906.6064" y="527.4531"/><rect fill="#FFFFFF" height="87.3984" style="stroke:#A80036;stroke-width:1.0;" width="10" x="906.6064" y="1551.9063"/><rect fill="#FFFFFF" height="87.3984" style="stroke:#A80036;stroke-width:1.0;" width="10" x="1014.3705" y="1668.4375"/><rect fill="#FFFFFF" height="29.1328" style="stroke:#A80036;stroke-width:1.0;" width="10" x="1125.6425" y="360.6563"/><rect fill="#FFFFFF" height="29.1328" style="stroke:#A80036;stroke-width:1.0;" width="10" x="1125.6425" y="556.5859"/><rect fill="#FFFFFF" height="29.1328" style="stroke:#A80036;stroke-width:1.0;" width="10" x="1125.6425" y="1581.0391"/><rect fill="#FFFFFF" height="29.1328" style="stroke:#A80036;stroke-width:1.0;" width="10" x="1125.6425" y="1697.5703"/><rect fill="none" height="203.7344" style="stroke:#000000;stroke-width:2.0;" width="250.3448" x="222.3622" y="1060.8438"/><line style="stroke:#A80036;stroke-width:1.0;stroke-dasharray:5.0,5.0;" x1="28" x2="28" y1="121.5938" y2="2031.8984"/><line style="stroke:#A80036;stroke-width:1.0;stroke-dasharray:5.0,5.0;" x1="291.3622" x2="291.3622" y1="121.5938" y2="2031.8984"/><line style="stroke:#A80036;stroke-width:1.0;stroke-dasharray:5.0,5.0;" x1="478.5038" x2="478.5038" y1="121.5938" y2="2031.8984"/><line style="stroke:#A80036;stroke-width:1.0;stroke-dasharray:5.0,5.0;" x1="666.2694" x2="666.2694" y1="121.5938" y2="2031.8984"/><line style="stroke:#A80036;stroke-width:1.0;stroke-dasharray:5.0,5.0;" x1="775.9296" x2="775.9296" y1="121.5938" y2="2031.8984"/><line style="stroke:#A80036;stroke-width:1.0;stroke-dasharray:5.0,5.0;" x1="911.0702" x2="911.0702" y1="121.5938" y2="2031.8984"/><line style="stroke:#A80036;stroke-width:1.0;stroke-dasharray:5.0,5.0;" x1="1019.1425" x2="1019.1425" y1="121.5938" y2="2031.8984"/><line style="stroke:#A80036;stroke-width:1.0;stroke-dasharray:5.0,5.0;" x1="1130.6425" x2="1130.6425" y1="121.5938" y2="2031.8984"/><text fill="#000000" font-family="sans-serif" font-size="14" lengthAdjust="spacing" textLength="41.9998" x="5" y="118.292">&#12518;&#12540;&#12470;</text><ellipse cx="28.9999" cy="52.2969" fill="#FEFECE" rx="8" ry="8" style="stroke:#A80036;stroke-width:2.0;"/><path d="M28.9999,60.2969 L28.9999,87.2969 M15.9999,68.2969 L41.9999,68.2969 M28.9999,87.2969 L15.9999,102.2969 M28.9999,87.2969 L41.9999,102.2969 " fill="none" style="stroke:#A80036;stroke-width:2.0;"/><text fill="#000000" font-family="sans-serif" font-size="14" lengthAdjust="spacing" textLength="41.9998" x="5" y="2043.8936">&#12518;&#12540;&#12470;</text><ellipse cx="28.9999" cy="2057.1953" fill="#FEFECE" rx="8" ry="8" style="stroke:#A80036;stroke-width:2.0;"/><path d="M28.9999,2065.1953 L28.9999,2092.1953 M15.9999,2073.1953 L41.9999,2073.1953 M28.9999,2092.1953 L15.9999,2107.1953 M28.9999,2092.1953 L41.9999,2107.1953 " fill="none" style="stroke:#A80036;stroke-width:2.0;"/><rect fill="#FEFECE" height="46.5938" style="stroke:#A80036;stroke-width:1.5;" width="118.4121" x="232.3622" y="74"/><text fill="#000000" font-family="sans-serif" font-size="14" lengthAdjust="spacing" textLength="104.4121" x="239.3622" y="93.9951">ProductUpdate</text><text fill="#000000" font-family="sans-serif" font-size="14" lengthAdjust="spacing" textLength="69.1729" x="256.9818" y="110.292">Controller</text><rect fill="#FEFECE" height="46.5938" style="stroke:#A80036;stroke-width:1.5;" width="118.4121" x="232.3622" y="2030.8984"/><text fill="#000000" font-family="sans-serif" font-size="14" lengthAdjust="spacing" textLength="104.4121" x="239.3622" y="2050.8936">ProductUpdate</text><text fill="#000000" font-family="sans-serif" font-size="14" lengthAdjust="spacing" textLength="69.1729" x="256.9818" y="2067.1904">Controller</text><rect fill="#FEFECE" height="46.5938" style="stroke:#A80036;stroke-width:1.5;" width="131.6602" x="413.5038" y="74"/><text fill="#000000" font-family="sans-serif" font-size="14" lengthAdjust="spacing" textLength="117.6602" x="420.5038" y="93.9951">ProductCategory</text><text fill="#000000" font-family="sans-serif" font-size="14" lengthAdjust="spacing" textLength="51.7412" x="453.4633" y="110.292">Service</text><rect fill="#FEFECE" height="46.5938" style="stroke:#A80036;stroke-width:1.5;" width="131.6602" x="413.5038" y="2030.8984"/><text fill="#000000" font-family="sans-serif" font-size="14" lengthAdjust="spacing" textLength="117.6602" x="420.5038" y="2050.8936">ProductCategory</text><text fill="#000000" font-family="sans-serif" font-size="14" lengthAdjust="spacing" textLength="51.7412" x="453.4633" y="2067.1904">Service</text><rect fill="#FEFECE" height="46.5938" style="stroke:#A80036;stroke-width:1.5;" width="131.6602" x="601.2694" y="74"/><text fill="#000000" font-family="sans-serif" font-size="14" lengthAdjust="spacing" textLength="117.6602" x="608.2694" y="93.9951">ProductCategory</text><text fill="#000000" font-family="sans-serif" font-size="14" lengthAdjust="spacing" textLength="75.0723" x="629.5634" y="110.292">Repository</text><rect fill="#FEFECE" height="46.5938" style="stroke:#A80036;stroke-width:1.5;" width="131.6602" x="601.2694" y="2030.8984"/><text fill="#000000" font-family="sans-serif" font-size="14" lengthAdjust="spacing" textLength="117.6602" x="608.2694" y="2050.8936">ProductCategory</text><text fill="#000000" font-family="sans-serif" font-size="14" lengthAdjust="spacing" textLength="75.0723" x="629.5634" y="2067.1904">Repository</text><rect fill="#FEFECE" height="46.5938" style="stroke:#A80036;stroke-width:1.5;" width="67.71" x="742.9296" y="74"/><text fill="#000000" font-family="sans-serif" font-size="14" lengthAdjust="spacing" textLength="53.71" x="749.9296" y="93.9951">Product</text><text fill="#000000" font-family="sans-serif" font-size="14" lengthAdjust="spacing" textLength="51.7412" x="750.914" y="110.292">Service</text><rect fill="#FEFECE" height="46.5938" style="stroke:#A80036;stroke-width:1.5;" width="67.71" x="742.9296" y="2030.8984"/><text fill="#000000" font-family="sans-serif" font-size="14" lengthAdjust="spacing" textLength="53.71" x="749.9296" y="2050.8936">Product</text><text fill="#000000" font-family="sans-serif" font-size="14" lengthAdjust="spacing" textLength="51.7412" x="750.914" y="2067.1904">Service</text><rect fill="#FEFECE" height="46.5938" style="stroke:#A80036;stroke-width:1.5;" width="89.0723" x="867.0702" y="74"/><text fill="#000000" font-family="sans-serif" font-size="14" lengthAdjust="spacing" textLength="53.71" x="884.7514" y="93.9951">Product</text><text fill="#000000" font-family="sans-serif" font-size="14" lengthAdjust="spacing" textLength="75.0723" x="874.0702" y="110.292">Repository</text><rect fill="#FEFECE" height="46.5938" style="stroke:#A80036;stroke-width:1.5;" width="89.0723" x="867.0702" y="2030.8984"/><text fill="#000000" font-family="sans-serif" font-size="14" lengthAdjust="spacing" textLength="53.71" x="884.7514" y="2050.8936">Product</text><text fill="#000000" font-family="sans-serif" font-size="14" lengthAdjust="spacing" textLength="75.0723" x="874.0702" y="2067.1904">Repository</text><rect fill="#FEFECE" height="46.5938" style="stroke:#A80036;stroke-width:1.5;" width="106.4561" x="966.1425" y="74"/><text fill="#000000" font-family="sans-serif" font-size="14" lengthAdjust="spacing" textLength="92.4561" x="973.1425" y="93.9951">ProductStock</text><text fill="#000000" font-family="sans-serif" font-size="14" lengthAdjust="spacing" textLength="75.0723" x="981.8344" y="110.292">Repository</text><rect fill="#FEFECE" height="46.5938" style="stroke:#A80036;stroke-width:1.5;" width="106.4561" x="966.1425" y="2030.8984"/><text fill="#000000" font-family="sans-serif" font-size="14" lengthAdjust="spacing" textLength="92.4561" x="973.1425" y="2050.8936">ProductStock</text><text fill="#000000" font-family="sans-serif" font-size="14" lengthAdjust="spacing" textLength="75.0723" x="981.8344" y="2067.1904">Repository</text><text fill="#000000" font-family="sans-serif" font-size="14" lengthAdjust="spacing" textLength="20.3848" x="1117.4501" y="118.292">DB</text><path d="M1112.6425,69.2969 C1112.6425,59.2969 1130.6425,59.2969 1130.6425,59.2969 C1130.6425,59.2969 1148.6425,59.2969 1148.6425,69.2969 L1148.6425,95.2969 C1148.6425,105.2969 1130.6425,105.2969 1130.6425,105.2969 C1130.6425,105.2969 1112.6425,105.2969 1112.6425,95.2969 L1112.6425,69.2969 " fill="#FEFECE" style="stroke:#A80036;stroke-width:1.5;"/><path d="M1112.6425,69.2969 C1112.6425,79.2969 1130.6425,79.2969 1130.6425,79.2969 C1130.6425,79.2969 1148.6425,79.2969 1148.6425,69.2969 " fill="none" style="stroke:#A80036;stroke-width:1.5;"/><text fill="#000000" font-family="sans-serif" font-size="14" lengthAdjust="spacing" textLength="20.3848" x="1117.4501" y="2043.8936">DB</text><path d="M1112.6425,2057.1953 C1112.6425,2047.1953 1130.6425,2047.1953 1130.6425,2047.1953 C1130.6425,2047.1953 1148.6425,2047.1953 1148.6425,2057.1953 L1148.6425,2083.1953 C1148.6425,2093.1953 1130.6425,2093.1953 1130.6425,2093.1953 C1130.6425,2093.1953 1112.6425,2093.1953 1112.6425,2083.1953 L1112.6425,2057.1953 " fill="#FEFECE" style="stroke:#A80036;stroke-width:1.5;"/><path d="M1112.6425,2057.1953 C1112.6425,2067.1953 1130.6425,2067.1953 1130.6425,2067.1953 C1130.6425,2067.1953 1148.6425,2067.1953 1148.6425,2057.1953 " fill="none" style="stroke:#A80036;stroke-width:1.5;"/><rect fill="#FFFFFF" height="1891.3047" style="stroke:#A80036;stroke-width:1.0;" width="10" x="23.9999" y="131.5938"/><rect fill="#FFFFFF" height="719.1875" style="stroke:#A80036;stroke-width:1.0;" width="10" x="286.5683" y="182.9922"/><rect fill="#FFFFFF" height="289" style="stroke:#A80036;stroke-width:1.0;" width="10" x="286.5683" y="1003.7109"/><rect fill="#FFFFFF" height="504.125" style="stroke:#A80036;stroke-width:1.0;" width="10" x="286.5683" y="1394.2422"/><rect fill="#FFFFFF" height="65.1328" style="stroke:#A80036;stroke-width:1.0;" width="10" x="286.5683" y="1957.7656"/><rect fill="#FFFFFF" height="148.6641" style="stroke:#A80036;stroke-width:1.0;" width="10" x="474.3339" y="299.3906"/><rect fill="#FFFFFF" height="87.3984" style="stroke:#A80036;stroke-width:1.0;" width="10" x="662.0995" y="331.5234"/><rect fill="#FFFFFF" height="163.7969" style="stroke:#A80036;stroke-width:1.0;" width="10" x="771.7846" y="480.1875"/><rect fill="#FFFFFF" height="262.1953" style="stroke:#A80036;stroke-width:1.0;" width="10" x="771.7846" y="1522.7734"/><rect fill="#FFFFFF" height="87.3984" style="stroke:#A80036;stroke-width:1.0;" width="10" x="906.6064" y="527.4531"/><rect fill="#FFFFFF" height="87.3984" style="stroke:#A80036;stroke-width:1.0;" width="10" x="906.6064" y="1551.9063"/><rect fill="#FFFFFF" height="87.3984" style="stroke:#A80036;stroke-width:1.0;" width="10" x="1014.3705" y="1668.4375"/><rect fill="#FFFFFF" height="29.1328" style="stroke:#A80036;stroke-width:1.0;" width="10" x="1125.6425" y="360.6563"/><rect fill="#FFFFFF" height="29.1328" style="stroke:#A80036;stroke-width:1.0;" width="10" x="1125.6425" y="556.5859"/><rect fill="#FFFFFF" height="29.1328" style="stroke:#A80036;stroke-width:1.0;" width="10" x="1125.6425" y="1581.0391"/><rect fill="#FFFFFF" height="29.1328" style="stroke:#A80036;stroke-width:1.0;" width="10" x="1125.6425" y="1697.5703"/><polygon fill="#A80036" points="274.5683,178.9922,284.5683,182.9922,274.5683,186.9922,278.5683,182.9922" style="stroke:#A80036;stroke-width:1.0;"/><line style="stroke:#A80036;stroke-width:1.0;" x1="33.9999" x2="280.5683" y1="182.9922" y2="182.9922"/><text fill="#000000" font-family="sans-serif" font-size="13" lengthAdjust="spacing" textLength="26.2285" x="40.9999" y="147.6606">GET</text><text fill="#000000" font-family="sans-serif" font-size="13" lengthAdjust="spacing" textLength="233.5684" x="40.9999" y="162.7935">/admin/product-update/{productId}</text><text fill="#000000" font-family="sans-serif" font-size="13" lengthAdjust="spacing" textLength="103.0542" x="40.9999" y="177.9263">form(productId)</text><line style="stroke:#A80036;stroke-width:1.0;" x1="296.5683" x2="338.5683" y1="212.125" y2="212.125"/><line style="stroke:#A80036;stroke-width:1.0;" x1="338.5683" x2="338.5683" y1="212.125" y2="225.125"/><line style="stroke:#A80036;stroke-width:1.0;" x1="297.5683" x2="338.5683" y1="225.125" y2="225.125"/><polygon fill="#A80036" points="307.5683,221.125,297.5683,225.125,307.5683,229.125,303.5683,225.125" style="stroke:#A80036;stroke-width:1.0;"/><text fill="#000000" font-family="sans-serif" font-size="13" lengthAdjust="spacing" textLength="81.2183" x="303.5683" y="207.0591">setUpForm()</text><line style="stroke:#A80036;stroke-width:1.0;" x1="296.5683" x2="338.5683" y1="254.2578" y2="254.2578"/><line style="stroke:#A80036;stroke-width:1.0;" x1="338.5683" x2="338.5683" y1="254.2578" y2="267.2578"/><line style="stroke:#A80036;stroke-width:1.0;" x1="297.5683" x2="338.5683" y1="267.2578" y2="267.2578"/><polygon fill="#A80036" points="307.5683,263.2578,297.5683,267.2578,307.5683,271.2578,303.5683,267.2578" style="stroke:#A80036;stroke-width:1.0;"/><text fill="#000000" font-family="sans-serif" font-size="13" lengthAdjust="spacing" textLength="38.4985" x="303.5683" y="249.1919">bind()</text><polygon fill="#A80036" points="462.3339,295.3906,472.3339,299.3906,462.3339,303.3906,466.3339,299.3906" style="stroke:#A80036;stroke-width:1.0;"/><line style="stroke:#A80036;stroke-width:1.0;" x1="296.5683" x2="468.3339" y1="299.3906" y2="299.3906"/><text fill="#000000" font-family="sans-serif" font-size="13" lengthAdjust="spacing" textLength="50.9399" x="303.5683" y="294.3247">findAll()</text><path d="M489,280.2578 L489,305.2578 L653,305.2578 L653,290.2578 L643,280.2578 L489,280.2578 " fill="#FBFB77" style="stroke:#A80036;stroke-width:1.0;"/><path d="M643,280.2578 L643,290.2578 L653,290.2578 L643,280.2578 " fill="#FBFB77" style="stroke:#A80036;stroke-width:1.0;"/><text fill="#000000" font-family="sans-serif" font-size="13" lengthAdjust="spacing" textLength="143.0002" x="495" y="297.3247">&#21830;&#21697;&#12459;&#12486;&#12468;&#12522;&#12522;&#12473;&#12488;&#21462;&#24471;</text><polygon fill="#A80036" points="650.0995,327.5234,660.0995,331.5234,650.0995,335.5234,654.0995,331.5234" style="stroke:#A80036;stroke-width:1.0;"/><line style="stroke:#A80036;stroke-width:1.0;" x1="484.3339" x2="656.0995" y1="331.5234" y2="331.5234"/><text fill="#000000" font-family="sans-serif" font-size="13" lengthAdjust="spacing" textLength="50.9399" x="491.3339" y="326.4575">findAll()</text><polygon fill="#A80036" points="1113.6425,356.6563,1123.6425,360.6563,1113.6425,364.6563,1117.6425,360.6563" style="stroke:#A80036;stroke-width:1.0;"/><line style="stroke:#A80036;stroke-width:1.0;" x1="672.0995" x2="1119.6425" y1="360.6563" y2="360.6563"/><text fill="#000000" font-family="sans-serif" font-size="13" lengthAdjust="spacing" textLength="78.7998" x="679.0995" y="355.5903">SQL SELECT</text><polygon fill="#A80036" points="683.0995,385.7891,673.0995,389.7891,683.0995,393.7891,679.0995,389.7891" style="stroke:#A80036;stroke-width:1.0;"/><line style="stroke:#A80036;stroke-width:1.0;stroke-dasharray:2.0,2.0;" x1="677.0995" x2="1129.6425" y1="389.7891" y2="389.7891"/><text fill="#000000" font-family="sans-serif" font-size="13" lengthAdjust="spacing" textLength="153.7656" x="689.0995" y="384.7231">List&lt;ProductCategory&gt;</text><polygon fill="#A80036" points="495.3339,414.9219,485.3339,418.9219,495.3339,422.9219,491.3339,418.9219" style="stroke:#A80036;stroke-width:1.0;"/><line style="stroke:#A80036;stroke-width:1.0;" x1="489.3339" x2="666.0995" y1="418.9219" y2="418.9219"/><text fill="#000000" font-family="sans-serif" font-size="13" lengthAdjust="spacing" textLength="153.7656" x="501.3339" y="413.856">List&lt;ProductCategory&gt;</text><polygon fill="#A80036" points="307.5683,444.0547,297.5683,448.0547,307.5683,452.0547,303.5683,448.0547" style="stroke:#A80036;stroke-width:1.0;"/><line style="stroke:#A80036;stroke-width:1.0;stroke-dasharray:2.0,2.0;" x1="301.5683" x2="478.3339" y1="448.0547" y2="448.0547"/><text fill="#000000" font-family="sans-serif" font-size="13" lengthAdjust="spacing" textLength="153.7656" x="313.5683" y="442.9888">List&lt;ProductCategory&gt;</text><polygon fill="#A80036" points="759.7846,476.1875,769.7846,480.1875,759.7846,484.1875,763.7846,480.1875" style="stroke:#A80036;stroke-width:1.0;"/><line style="stroke:#A80036;stroke-width:1.0;" x1="296.5683" x2="765.7846" y1="480.1875" y2="480.1875"/><text fill="#000000" font-family="sans-serif" font-size="13" lengthAdjust="spacing" textLength="125.8931" x="303.5683" y="475.1216">findById(productId)</text><path d="M786,461.0547 L786,486.0547 L885,486.0547 L885,471.0547 L875,461.0547 L786,461.0547 " fill="#FBFB77" style="stroke:#A80036;stroke-width:1.0;"/><path d="M875,461.0547 L875,471.0547 L885,471.0547 L875,461.0547 " fill="#FBFB77" style="stroke:#A80036;stroke-width:1.0;"/><text fill="#000000" font-family="sans-serif" font-size="13" lengthAdjust="spacing" textLength="78.0001" x="792" y="478.1216">&#21830;&#21697;&#24773;&#22577;&#21462;&#24471;</text><polygon fill="#A80036" points="894.6064,523.4531,904.6064,527.4531,894.6064,531.4531,898.6064,527.4531" style="stroke:#A80036;stroke-width:1.0;"/><line style="stroke:#A80036;stroke-width:1.0;" x1="781.7846" x2="900.6064" y1="527.4531" y2="527.4531"/><text fill="#000000" font-family="sans-serif" font-size="13" lengthAdjust="spacing" textLength="53.3774" x="788.7846" y="507.2544">findById</text><text fill="#000000" font-family="sans-serif" font-size="13" lengthAdjust="spacing" textLength="72.5156" x="788.7846" y="522.3872">(productId)</text><polygon fill="#A80036" points="1113.6425,552.5859,1123.6425,556.5859,1113.6425,560.5859,1117.6425,556.5859" style="stroke:#A80036;stroke-width:1.0;"/><line style="stroke:#A80036;stroke-width:1.0;" x1="916.6064" x2="1119.6425" y1="556.5859" y2="556.5859"/><text fill="#000000" font-family="sans-serif" font-size="13" lengthAdjust="spacing" textLength="78.7998" x="923.6064" y="551.52">SQL SELECT</text><polygon fill="#A80036" points="927.6064,581.7188,917.6064,585.7188,927.6064,589.7188,923.6064,585.7188" style="stroke:#A80036;stroke-width:1.0;"/><line style="stroke:#A80036;stroke-width:1.0;stroke-dasharray:2.0,2.0;" x1="921.6064" x2="1129.6425" y1="585.7188" y2="585.7188"/><text fill="#000000" font-family="sans-serif" font-size="13" lengthAdjust="spacing" textLength="49.8735" x="933.6064" y="580.6528">Product</text><polygon fill="#A80036" points="792.7846,610.8516,782.7846,614.8516,792.7846,618.8516,788.7846,614.8516" style="stroke:#A80036;stroke-width:1.0;"/><line style="stroke:#A80036;stroke-width:1.0;stroke-dasharray:2.0,2.0;" x1="786.7846" x2="910.6064" y1="614.8516" y2="614.8516"/><text fill="#000000" font-family="sans-serif" font-size="13" lengthAdjust="spacing" textLength="49.8735" x="798.7846" y="609.7856">Product</text><polygon fill="#A80036" points="307.5683,639.9844,297.5683,643.9844,307.5683,647.9844,303.5683,643.9844" style="stroke:#A80036;stroke-width:1.0;"/><line style="stroke:#A80036;stroke-width:1.0;stroke-dasharray:2.0,2.0;" x1="301.5683" x2="775.7846" y1="643.9844" y2="643.9844"/><text fill="#000000" font-family="sans-serif" font-size="13" lengthAdjust="spacing" textLength="49.8735" x="313.5683" y="638.9185">Product</text><line style="stroke:#A80036;stroke-width:1.0;" x1="296.5683" x2="338.5683" y1="688.25" y2="688.25"/><line style="stroke:#A80036;stroke-width:1.0;" x1="338.5683" x2="338.5683" y1="688.25" y2="701.25"/><line style="stroke:#A80036;stroke-width:1.0;" x1="297.5683" x2="338.5683" y1="701.25" y2="701.25"/><polygon fill="#A80036" points="307.5683,697.25,297.5683,701.25,307.5683,705.25,303.5683,701.25" style="stroke:#A80036;stroke-width:1.0;"/><text fill="#000000" font-family="sans-serif" font-size="13" lengthAdjust="spacing" textLength="104.0001" x="303.5683" y="668.0513">&#12456;&#12531;&#12486;&#12451;&#12486;&#12451;&#12363;&#12425;</text><text fill="#000000" font-family="sans-serif" font-size="13" lengthAdjust="spacing" textLength="91.0001" x="303.5683" y="683.1841">&#12501;&#12457;&#12540;&#12512;&#12395;&#22793;&#25563;</text><line style="stroke:#A80036;stroke-width:1.0;" x1="296.5683" x2="338.5683" y1="745.5156" y2="745.5156"/><line style="stroke:#A80036;stroke-width:1.0;" x1="338.5683" x2="338.5683" y1="745.5156" y2="758.5156"/><line style="stroke:#A80036;stroke-width:1.0;" x1="297.5683" x2="338.5683" y1="758.5156" y2="758.5156"/><polygon fill="#A80036" points="307.5683,754.5156,297.5683,758.5156,307.5683,762.5156,303.5683,758.5156" style="stroke:#A80036;stroke-width:1.0;"/><text fill="#000000" font-family="sans-serif" font-size="13" lengthAdjust="spacing" textLength="65.0318" x="303.5683" y="725.3169">Model&#36861;&#21152;</text><text fill="#000000" font-family="sans-serif" font-size="13" lengthAdjust="spacing" textLength="78.0001" x="303.5683" y="740.4497">&#65288;&#12501;&#12457;&#12540;&#12512;&#65289;</text><line style="stroke:#A80036;stroke-width:1.0;" x1="296.5683" x2="338.5683" y1="802.7813" y2="802.7813"/><line style="stroke:#A80036;stroke-width:1.0;" x1="338.5683" x2="338.5683" y1="802.7813" y2="815.7813"/><line style="stroke:#A80036;stroke-width:1.0;" x1="297.5683" x2="338.5683" y1="815.7813" y2="815.7813"/><polygon fill="#A80036" points="307.5683,811.7813,297.5683,815.7813,307.5683,819.7813,303.5683,815.7813" style="stroke:#A80036;stroke-width:1.0;"/><text fill="#000000" font-family="sans-serif" font-size="13" lengthAdjust="spacing" textLength="65.0318" x="303.5683" y="782.5825">Model&#36861;&#21152;</text><text fill="#000000" font-family="sans-serif" font-size="13" lengthAdjust="spacing" textLength="143.0002" x="303.5683" y="797.7153">&#65288;&#21830;&#21697;&#12459;&#12486;&#12468;&#12522;&#12522;&#12473;&#12488;&#65289;</text><line style="stroke:#A80036;stroke-width:1.0;" x1="296.5683" x2="338.5683" y1="860.0469" y2="860.0469"/><line style="stroke:#A80036;stroke-width:1.0;" x1="338.5683" x2="338.5683" y1="860.0469" y2="873.0469"/><line style="stroke:#A80036;stroke-width:1.0;" x1="297.5683" x2="338.5683" y1="873.0469" y2="873.0469"/><polygon fill="#A80036" points="307.5683,869.0469,297.5683,873.0469,307.5683,877.0469,303.5683,873.0469" style="stroke:#A80036;stroke-width:1.0;"/><text fill="#000000" font-family="sans-serif" font-size="13" lengthAdjust="spacing" textLength="65.0318" x="303.5683" y="839.8481">Model&#36861;&#21152;</text><text fill="#000000" font-family="sans-serif" font-size="13" lengthAdjust="spacing" textLength="52.0001" x="303.5683" y="854.981">&#65288;&#21830;&#21697;&#65289;</text><polygon fill="#A80036" points="44.9999,898.1797,34.9999,902.1797,44.9999,906.1797,40.9999,902.1797" style="stroke:#A80036;stroke-width:1.0;"/><line style="stroke:#A80036;stroke-width:1.0;" x1="38.9999" x2="290.5683" y1="902.1797" y2="902.1797"/><text fill="#000000" font-family="sans-serif" font-size="13" lengthAdjust="spacing" textLength="52.0001" x="50.9999" y="897.1138">&#20837;&#21147;&#30011;&#38754;</text><line style="stroke:#A80036;stroke-width:1.0;" x1="33.9999" x2="75.9999" y1="931.3125" y2="931.3125"/><line style="stroke:#A80036;stroke-width:1.0;" x1="75.9999" x2="75.9999" y1="931.3125" y2="944.3125"/><line style="stroke:#A80036;stroke-width:1.0;" x1="34.9999" x2="75.9999" y1="944.3125" y2="944.3125"/><polygon fill="#A80036" points="44.9999,940.3125,34.9999,944.3125,44.9999,948.3125,40.9999,944.3125" style="stroke:#A80036;stroke-width:1.0;"/><text fill="#000000" font-family="sans-serif" font-size="13" lengthAdjust="spacing" textLength="78.0001" x="40.9999" y="926.2466">&#21830;&#21697;&#24773;&#22577;&#20462;&#27491;</text><polygon fill="#A80036" points="274.5683,999.7109,284.5683,1003.7109,274.5683,1007.7109,278.5683,1003.7109" style="stroke:#A80036;stroke-width:1.0;"/><line style="stroke:#A80036;stroke-width:1.0;" x1="33.9999" x2="280.5683" y1="1003.7109" y2="1003.7109"/><text fill="#000000" font-family="sans-serif" font-size="13" lengthAdjust="spacing" textLength="34.2646" x="40.9999" y="968.3794">POST</text><text fill="#000000" font-family="sans-serif" font-size="13" lengthAdjust="spacing" textLength="204.1914" x="40.9999" y="983.5122">/admin/product-update/confirm</text><text fill="#000000" font-family="sans-serif" font-size="13" lengthAdjust="spacing" textLength="59.6807" x="40.9999" y="998.645">confirm()</text><line style="stroke:#A80036;stroke-width:1.0;" x1="296.5683" x2="338.5683" y1="1032.8438" y2="1032.8438"/><line style="stroke:#A80036;stroke-width:1.0;" x1="338.5683" x2="338.5683" y1="1032.8438" y2="1045.8438"/><line style="stroke:#A80036;stroke-width:1.0;" x1="297.5683" x2="338.5683" y1="1045.8438" y2="1045.8438"/><polygon fill="#A80036" points="307.5683,1041.8438,297.5683,1045.8438,307.5683,1049.8438,303.5683,1045.8438" style="stroke:#A80036;stroke-width:1.0;"/><text fill="#000000" font-family="sans-serif" font-size="13" lengthAdjust="spacing" textLength="65.0001" x="303.5683" y="1027.7778">&#12496;&#12522;&#12487;&#12540;&#12488;</text><path d="M222.3622,1060.8438 L286.8051,1060.8438 L286.8051,1067.9766 L276.8051,1077.9766 L222.3622,1077.9766 L222.3622,1060.8438 " fill="#EEEEEE" style="stroke:#000000;stroke-width:1.0;"/><rect fill="none" height="203.7344" style="stroke:#000000;stroke-width:2.0;" width="250.3448" x="222.3622" y="1060.8438"/><text fill="#000000" font-family="sans-serif" font-size="13" font-weight="bold" lengthAdjust="spacing" textLength="19.4429" x="237.3622" y="1073.9106">alt</text><text fill="#000000" font-family="sans-serif" font-size="11" font-weight="bold" lengthAdjust="spacing" textLength="76.0542" x="301.8051" y="1073.0542">[&#30011;&#20687;&#20462;&#27491;&#12354;&#12426;]</text><line style="stroke:#A80036;stroke-width:1.0;" x1="296.5683" x2="338.5683" y1="1114.2422" y2="1114.2422"/><line style="stroke:#A80036;stroke-width:1.0;" x1="338.5683" x2="338.5683" y1="1114.2422" y2="1127.2422"/><line style="stroke:#A80036;stroke-width:1.0;" x1="297.5683" x2="338.5683" y1="1127.2422" y2="1127.2422"/><polygon fill="#A80036" points="307.5683,1123.2422,297.5683,1127.2422,307.5683,1131.2422,303.5683,1127.2422" style="stroke:#A80036;stroke-width:1.0;"/><text fill="#000000" font-family="sans-serif" font-size="13" lengthAdjust="spacing" textLength="91.0001" x="303.5683" y="1094.0435">&#12475;&#12483;&#12471;&#12519;&#12531;&#36861;&#21152;</text><text fill="#000000" font-family="sans-serif" font-size="13" lengthAdjust="spacing" textLength="113.1978" x="303.5683" y="1109.1763">&#65288;&#26032;&#30011;&#20687;Base64&#65289;</text><line style="stroke:#A80036;stroke-width:1.0;" x1="296.5683" x2="338.5683" y1="1171.5078" y2="1171.5078"/><line style="stroke:#A80036;stroke-width:1.0;" x1="338.5683" x2="338.5683" y1="1171.5078" y2="1184.5078"/><line style="stroke:#A80036;stroke-width:1.0;" x1="297.5683" x2="338.5683" y1="1184.5078" y2="1184.5078"/><polygon fill="#A80036" points="307.5683,1180.5078,297.5683,1184.5078,307.5683,1188.5078,303.5683,1184.5078" style="stroke:#A80036;stroke-width:1.0;"/><text fill="#000000" font-family="sans-serif" font-size="13" lengthAdjust="spacing" textLength="91.0001" x="303.5683" y="1151.3091">&#12475;&#12483;&#12471;&#12519;&#12531;&#36861;&#21152;</text><text fill="#000000" font-family="sans-serif" font-size="13" lengthAdjust="spacing" textLength="143.0002" x="303.5683" y="1166.4419">&#65288;&#26032;&#30011;&#20687;&#12496;&#12452;&#12488;&#12487;&#12540;&#12479;&#65289;</text><line style="stroke:#000000;stroke-width:1.0;stroke-dasharray:2.0,2.0;" x1="222.3622" x2="472.707" y1="1193.5078" y2="1193.5078"/><text fill="#000000" font-family="sans-serif" font-size="11" font-weight="bold" lengthAdjust="spacing" textLength="76.0542" x="227.3622" y="1203.7183">[&#30011;&#20687;&#20462;&#27491;&#12394;&#12375;]</text><line style="stroke:#A80036;stroke-width:1.0;" x1="296.5683" x2="338.5683" y1="1243.5781" y2="1243.5781"/><line style="stroke:#A80036;stroke-width:1.0;" x1="338.5683" x2="338.5683" y1="1243.5781" y2="1256.5781"/><line style="stroke:#A80036;stroke-width:1.0;" x1="297.5683" x2="338.5683" y1="1256.5781" y2="1256.5781"/><polygon fill="#A80036" points="307.5683,1252.5781,297.5683,1256.5781,307.5683,1260.5781,303.5683,1256.5781" style="stroke:#A80036;stroke-width:1.0;"/><text fill="#000000" font-family="sans-serif" font-size="13" lengthAdjust="spacing" textLength="65.0318" x="303.5683" y="1223.3794">Model&#36861;&#21152;</text><text fill="#000000" font-family="sans-serif" font-size="13" lengthAdjust="spacing" textLength="147.1388" x="303.5683" y="1238.5122">&#65288;"/img/"+&#12501;&#12449;&#12452;&#12523;&#21517;&#65289;</text><polygon fill="#A80036" points="44.9999,1288.7109,34.9999,1292.7109,44.9999,1296.7109,40.9999,1292.7109" style="stroke:#A80036;stroke-width:1.0;"/><line style="stroke:#A80036;stroke-width:1.0;" x1="38.9999" x2="290.5683" y1="1292.7109" y2="1292.7109"/><text fill="#000000" font-family="sans-serif" font-size="13" lengthAdjust="spacing" textLength="52.0001" x="50.9999" y="1287.645">&#30906;&#35469;&#30011;&#38754;</text><line style="stroke:#A80036;stroke-width:1.0;" x1="33.9999" x2="75.9999" y1="1321.8438" y2="1321.8438"/><line style="stroke:#A80036;stroke-width:1.0;" x1="75.9999" x2="75.9999" y1="1321.8438" y2="1334.8438"/><line style="stroke:#A80036;stroke-width:1.0;" x1="34.9999" x2="75.9999" y1="1334.8438" y2="1334.8438"/><polygon fill="#A80036" points="44.9999,1330.8438,34.9999,1334.8438,44.9999,1338.8438,40.9999,1334.8438" style="stroke:#A80036;stroke-width:1.0;"/><text fill="#000000" font-family="sans-serif" font-size="13" lengthAdjust="spacing" textLength="78.0001" x="40.9999" y="1316.7778">&#20837;&#21147;&#20869;&#23481;&#30906;&#35469;</text><polygon fill="#A80036" points="274.5683,1390.2422,284.5683,1394.2422,274.5683,1398.2422,278.5683,1394.2422" style="stroke:#A80036;stroke-width:1.0;"/><line style="stroke:#A80036;stroke-width:1.0;" x1="33.9999" x2="280.5683" y1="1394.2422" y2="1394.2422"/><text fill="#000000" font-family="sans-serif" font-size="13" lengthAdjust="spacing" textLength="34.2646" x="40.9999" y="1358.9106">POST</text><text fill="#000000" font-family="sans-serif" font-size="13" lengthAdjust="spacing" textLength="215.376" x="40.9999" y="1374.0435">/admin/product-update/complete</text><text fill="#000000" font-family="sans-serif" font-size="13" lengthAdjust="spacing" textLength="70.8652" x="40.9999" y="1389.1763">complete()</text><line style="stroke:#A80036;stroke-width:1.0;" x1="296.5683" x2="338.5683" y1="1423.375" y2="1423.375"/><line style="stroke:#A80036;stroke-width:1.0;" x1="338.5683" x2="338.5683" y1="1423.375" y2="1436.375"/><line style="stroke:#A80036;stroke-width:1.0;" x1="297.5683" x2="338.5683" y1="1436.375" y2="1436.375"/><polygon fill="#A80036" points="307.5683,1432.375,297.5683,1436.375,307.5683,1440.375,303.5683,1436.375" style="stroke:#A80036;stroke-width:1.0;"/><text fill="#000000" font-family="sans-serif" font-size="13" lengthAdjust="spacing" textLength="91.0001" x="303.5683" y="1418.3091">&#12475;&#12483;&#12471;&#12519;&#12531;&#30906;&#35469;</text><path d="M416.0001,1410.7422 L416.0001,1435.7422 L658.0001,1435.7422 L658.0001,1420.7422 L648.0001,1410.7422 L416.0001,1410.7422 " fill="#FBFB77" style="stroke:#A80036;stroke-width:1.0;"/><path d="M648.0001,1410.7422 L648.0001,1420.7422 L658.0001,1420.7422 L648.0001,1410.7422 " fill="#FBFB77" style="stroke:#A80036;stroke-width:1.0;"/><text fill="#000000" font-family="sans-serif" font-size="13" lengthAdjust="spacing" textLength="221.0003" x="422.0001" y="1427.8091">&#12501;&#12457;&#12540;&#12512;&#12364;&#31354;&#12398;&#22580;&#21512;&#12399;&#12471;&#12473;&#12486;&#12512;&#12456;&#12521;&#12540;</text><line style="stroke:#A80036;stroke-width:1.0;" x1="296.5683" x2="338.5683" y1="1480.6406" y2="1480.6406"/><line style="stroke:#A80036;stroke-width:1.0;" x1="338.5683" x2="338.5683" y1="1480.6406" y2="1493.6406"/><line style="stroke:#A80036;stroke-width:1.0;" x1="297.5683" x2="338.5683" y1="1493.6406" y2="1493.6406"/><polygon fill="#A80036" points="307.5683,1489.6406,297.5683,1493.6406,307.5683,1497.6406,303.5683,1493.6406" style="stroke:#A80036;stroke-width:1.0;"/><text fill="#000000" font-family="sans-serif" font-size="13" lengthAdjust="spacing" textLength="78.0001" x="303.5683" y="1460.4419">&#12501;&#12457;&#12540;&#12512;&#12363;&#12425;</text><text fill="#000000" font-family="sans-serif" font-size="13" lengthAdjust="spacing" textLength="117.0001" x="303.5683" y="1475.5747">&#12456;&#12531;&#12486;&#12451;&#12486;&#12451;&#12395;&#22793;&#25563;</text><polygon fill="#A80036" points="759.7846,1518.7734,769.7846,1522.7734,759.7846,1526.7734,763.7846,1522.7734" style="stroke:#A80036;stroke-width:1.0;"/><line style="stroke:#A80036;stroke-width:1.0;" x1="296.5683" x2="765.7846" y1="1522.7734" y2="1522.7734"/><text fill="#000000" font-family="sans-serif" font-size="13" lengthAdjust="spacing" textLength="105.8218" x="303.5683" y="1517.7075">update(Product)</text><polygon fill="#A80036" points="894.6064,1547.9063,904.6064,1551.9063,894.6064,1555.9063,898.6064,1551.9063" style="stroke:#A80036;stroke-width:1.0;"/><line style="stroke:#A80036;stroke-width:1.0;" x1="781.7846" x2="900.6064" y1="1551.9063" y2="1551.9063"/><text fill="#000000" font-family="sans-serif" font-size="13" lengthAdjust="spacing" textLength="105.8218" x="788.7846" y="1546.8403">update(Product)</text><polygon fill="#A80036" points="1113.6425,1577.0391,1123.6425,1581.0391,1113.6425,1585.0391,1117.6425,1581.0391" style="stroke:#A80036;stroke-width:1.0;"/><line style="stroke:#A80036;stroke-width:1.0;" x1="916.6064" x2="1119.6425" y1="1581.0391" y2="1581.0391"/><text fill="#000000" font-family="sans-serif" font-size="13" lengthAdjust="spacing" textLength="82.272" x="923.6064" y="1575.9731">SQL UPDATE</text><polygon fill="#A80036" points="927.6064,1606.1719,917.6064,1610.1719,927.6064,1614.1719,923.6064,1610.1719" style="stroke:#A80036;stroke-width:1.0;"/><line style="stroke:#A80036;stroke-width:1.0;stroke-dasharray:2.0,2.0;" x1="921.6064" x2="1129.6425" y1="1610.1719" y2="1610.1719"/><text fill="#000000" font-family="sans-serif" font-size="13" lengthAdjust="spacing" textLength="27.5107" x="933.6064" y="1605.106">void</text><polygon fill="#A80036" points="792.7846,1635.3047,782.7846,1639.3047,792.7846,1643.3047,788.7846,1639.3047" style="stroke:#A80036;stroke-width:1.0;"/><line style="stroke:#A80036;stroke-width:1.0;stroke-dasharray:2.0,2.0;" x1="786.7846" x2="910.6064" y1="1639.3047" y2="1639.3047"/><text fill="#000000" font-family="sans-serif" font-size="13" lengthAdjust="spacing" textLength="27.5107" x="798.7846" y="1634.2388">void</text><polygon fill="#A80036" points="1002.3705,1664.4375,1012.3705,1668.4375,1002.3705,1672.4375,1006.3705,1668.4375" style="stroke:#A80036;stroke-width:1.0;"/><line style="stroke:#A80036;stroke-width:1.0;" x1="781.7846" x2="1008.3705" y1="1668.4375" y2="1668.4375"/><text fill="#000000" font-family="sans-serif" font-size="13" lengthAdjust="spacing" textLength="141.8003" x="788.7846" y="1663.3716">update(ProductStock)</text><polygon fill="#A80036" points="1113.6425,1693.5703,1123.6425,1697.5703,1113.6425,1701.5703,1117.6425,1697.5703" style="stroke:#A80036;stroke-width:1.0;"/><line style="stroke:#A80036;stroke-width:1.0;" x1="1024.3705" x2="1119.6425" y1="1697.5703" y2="1697.5703"/><text fill="#000000" font-family="sans-serif" font-size="13" lengthAdjust="spacing" textLength="82.272" x="1031.3705" y="1692.5044">SQL UPDATE</text><polygon fill="#A80036" points="1035.3705,1722.7031,1025.3705,1726.7031,1035.3705,1730.7031,1031.3705,1726.7031" style="stroke:#A80036;stroke-width:1.0;"/><line style="stroke:#A80036;stroke-width:1.0;stroke-dasharray:2.0,2.0;" x1="1029.3705" x2="1129.6425" y1="1726.7031" y2="1726.7031"/><text fill="#000000" font-family="sans-serif" font-size="13" lengthAdjust="spacing" textLength="27.5107" x="1041.3705" y="1721.6372">void</text><polygon fill="#A80036" points="792.7846,1751.8359,782.7846,1755.8359,792.7846,1759.8359,788.7846,1755.8359" style="stroke:#A80036;stroke-width:1.0;"/><line style="stroke:#A80036;stroke-width:1.0;stroke-dasharray:2.0,2.0;" x1="786.7846" x2="1018.3705" y1="1755.8359" y2="1755.8359"/><text fill="#000000" font-family="sans-serif" font-size="13" lengthAdjust="spacing" textLength="27.5107" x="798.7846" y="1750.77">void</text><polygon fill="#A80036" points="307.5683,1780.9688,297.5683,1784.9688,307.5683,1788.9688,303.5683,1784.9688" style="stroke:#A80036;stroke-width:1.0;"/><line style="stroke:#A80036;stroke-width:1.0;stroke-dasharray:2.0,2.0;" x1="301.5683" x2="775.7846" y1="1784.9688" y2="1784.9688"/><text fill="#000000" font-family="sans-serif" font-size="13" lengthAdjust="spacing" textLength="27.5107" x="313.5683" y="1779.9028">void</text><line style="stroke:#A80036;stroke-width:1.0;" x1="296.5683" x2="338.5683" y1="1814.1016" y2="1814.1016"/><line style="stroke:#A80036;stroke-width:1.0;" x1="338.5683" x2="338.5683" y1="1814.1016" y2="1827.1016"/><line style="stroke:#A80036;stroke-width:1.0;" x1="297.5683" x2="338.5683" y1="1827.1016" y2="1827.1016"/><polygon fill="#A80036" points="307.5683,1823.1016,297.5683,1827.1016,307.5683,1831.1016,303.5683,1827.1016" style="stroke:#A80036;stroke-width:1.0;"/><text fill="#000000" font-family="sans-serif" font-size="13" lengthAdjust="spacing" textLength="91.0001" x="303.5683" y="1809.0356">&#12475;&#12483;&#12471;&#12519;&#12531;&#30772;&#26820;</text><line style="stroke:#A80036;stroke-width:1.0;" x1="296.5683" x2="338.5683" y1="1856.2344" y2="1856.2344"/><line style="stroke:#A80036;stroke-width:1.0;" x1="338.5683" x2="338.5683" y1="1856.2344" y2="1869.2344"/><line style="stroke:#A80036;stroke-width:1.0;" x1="297.5683" x2="338.5683" y1="1869.2344" y2="1869.2344"/><polygon fill="#A80036" points="307.5683,1865.2344,297.5683,1869.2344,307.5683,1873.2344,303.5683,1869.2344" style="stroke:#A80036;stroke-width:1.0;"/><text fill="#000000" font-family="sans-serif" font-size="13" lengthAdjust="spacing" textLength="130.0318" x="303.5683" y="1851.1685">Model&#36861;&#21152;&#65288;&#21830;&#21697;&#21517;&#65289;</text><polygon fill="#A80036" points="44.9999,1894.3672,34.9999,1898.3672,44.9999,1902.3672,40.9999,1898.3672" style="stroke:#A80036;stroke-width:1.0;"/><line style="stroke:#A80036;stroke-width:1.0;" x1="38.9999" x2="290.5683" y1="1898.3672" y2="1898.3672"/><text fill="#000000" font-family="sans-serif" font-size="13" lengthAdjust="spacing" textLength="78.0001" x="50.9999" y="1893.3013">&#12522;&#12480;&#12452;&#12524;&#12463;&#12488;</text><polygon fill="#A80036" points="274.5683,1953.7656,284.5683,1957.7656,274.5683,1961.7656,278.5683,1957.7656" style="stroke:#A80036;stroke-width:1.0;"/><line style="stroke:#A80036;stroke-width:1.0;" x1="33.9999" x2="280.5683" y1="1957.7656" y2="1957.7656"/><text fill="#000000" font-family="sans-serif" font-size="13" lengthAdjust="spacing" textLength="26.2285" x="40.9999" y="1922.4341">GET</text><text fill="#000000" font-family="sans-serif" font-size="13" lengthAdjust="spacing" textLength="215.376" x="40.9999" y="1937.5669">/admin/product-update/complete</text><text fill="#000000" font-family="sans-serif" font-size="13" lengthAdjust="spacing" textLength="70.8652" x="40.9999" y="1952.6997">complete()</text><line style="stroke:#A80036;stroke-width:1.0;" x1="296.5683" x2="338.5683" y1="1986.8984" y2="1986.8984"/><line style="stroke:#A80036;stroke-width:1.0;" x1="338.5683" x2="338.5683" y1="1986.8984" y2="1999.8984"/><line style="stroke:#A80036;stroke-width:1.0;" x1="297.5683" x2="338.5683" y1="1999.8984" y2="1999.8984"/><polygon fill="#A80036" points="307.5683,1995.8984,297.5683,1999.8984,307.5683,2003.8984,303.5683,1999.8984" style="stroke:#A80036;stroke-width:1.0;"/><text fill="#000000" font-family="sans-serif" font-size="13" lengthAdjust="spacing" textLength="130.0318" x="303.5683" y="1981.8325">Model&#36861;&#21152;&#65288;&#21830;&#21697;&#21517;&#65289;</text><path d="M455.0318,1974.2656 L455.0318,1999.2656 L646.0318,1999.2656 L646.0318,1984.2656 L636.0318,1974.2656 L455.0318,1974.2656 " fill="#FBFB77" style="stroke:#A80036;stroke-width:1.0;"/><path d="M636.0318,1974.2656 L636.0318,1984.2656 L646.0318,1984.2656 L636.0318,1974.2656 " fill="#FBFB77" style="stroke:#A80036;stroke-width:1.0;"/><text fill="#000000" font-family="sans-serif" font-size="13" lengthAdjust="spacing" textLength="170.8853" x="461.0318" y="1991.3325">RedirectAttributes&#12363;&#12425;&#21462;&#24471;</text><polygon fill="#A80036" points="44.9999,2009.8984,34.9999,2013.8984,44.9999,2017.8984,40.9999,2013.8984" style="stroke:#A80036;stroke-width:1.0;"/><line style="stroke:#A80036;stroke-width:1.0;stroke-dasharray:2.0,2.0;" x1="38.9999" x2="285.5683" y1="2013.8984" y2="2013.8984"/><!--SRC=[dLLTJzDG6BxlhpZPZH2oJ3RZ1J4aV4n3WX4PtEscQmkSq9qkxG53Z8bhPGw4GAB01J5Em0z0GGBHy2K_vj21L_u5pqS7NTTjuB9ixNcVz_jztcEDGmHCmz8aYpxbP5FE0cjCLerd48s24Lcd4Wb3h6jWkETkUxm3k4i5zst-_6od_7szlFdXqZa5nFv5d1DYxn5ddzY7xkg-92lOC464E9-vv6S4o1QOi3IJIU2aZ3NnHZrYgC2SZ32839Y6Eg7WuPnAvMdKOo1i6hgkcLnRmQOUYk-Xw573d4gZb6PEGaNZS6jIQMy27zHoXWLfe5DSmwIluIerbkDrO24Mmw4fR2ZZeVY4HBENCxAbWTvkTgXc9EaESAS_kREh5- -E_xnVarZfGBIJbmIqjO4Ey2Wvb4OnMSr25Ci95z49NiVOS- -zJtsHHYE6cMsvEcYLk8MAfGvWQRJw3nccHfI1IFMTil8AroDKqANhL8OCsbOJZexXofWGUviu1M8V46UBVUr3uXJTXMNtzuh4BL1BlEn1K-AGIjMC4AMUzeDKiZ_PCoJHe-YLNZHAXVtGmWy2xUsyjY4yrGTwSY_L1a1Vyl7hYBkd-bH_JMlBK7QctTBUTTxnIju1AsdajoC0JMiG5n5xmLQqAb5MoRmJVw8LKQ3RnFxAoCnwj-xzvjyGUoQDYBD4x4t6QgT4yjlknanvOJMe_jXGDVtoxDITBQNHtvEYN-dloKmpU8FXkR6s7oZumjAjeX6brSNQqUNMV81M_B-wTsBVXH1lu4cgBlCK0ur0Cvj6taCjgOYpo9DxpKjJb6GT0ngCwom8XoHl4tjM0lHJqw1ZuZXyytwXdVAbNrx-8Knqqnro_nwhm__fi-3i3HgM5vzzncnfz4e8nBX5yYjXFeADYSHWTZGMQUFJy97RtdONvxbLf8PqgwexR0dkp9qV5UfqYtVMBKoxEuT2xzRTokPqZLqybQUGVbLNpVFZ9tmrFUOkDez8ViSj7RYBHPBVPPfiZ0jCoYZ6aBL3uJVXiIw4Zq7kNMybaL6Bn-tMi9KJX8Gkc-61tgwXPCYocJIW6hffkC3lBX7cZjz-mcUYkSz4m6UYli-grSRFcpImT51UVzLWeLoj4szEQsUKy_Sb7-PlnDvbBBxLzNoJiMiGa7_s1ZKLcfg2kp0sOMO2QvOO7-_YyIeZWly7]--></g></svg>