<svg xmlns="http://www.w3.org/2000/svg" xmlns:xlink="http://www.w3.org/1999/xlink" contentStyleType="text/css" height="854px" preserveAspectRatio="none" style="width:1152px;height:854px;background:#FFFFFF;" version="1.1" viewBox="0 0 1152 854" width="1152px" zoomAndPan="magnify"><defs/><g><text fill="#000000" font-family="sans-serif" font-size="14" font-weight="bold" lengthAdjust="spacing" textLength="133.6149" x="502.2175" y="22.9951">security&#12497;&#12483;&#12465;&#12540;&#12472;</text><!--cluster security--><g id="cluster_security"><polygon fill="none" points="16,43.2969,77.8975,43.2969,84.8975,65.5938,1135.05,65.5938,1135.05,847.2969,16,847.2969,16,43.2969" style="stroke:#000000;stroke-width:1.5;"/><line style="stroke:#000000;stroke-width:1.5;" x1="16" x2="84.8975" y1="65.5938" y2="65.5938"/><text fill="#000000" font-family="sans-serif" font-size="14" lengthAdjust="spacing" textLength="55.8975" x="20" y="58.292">security</text></g><!--class EmployeeAccountUserDetails--><g id="elem_EmployeeAccountUserDetails"><rect codeLine="7" fill="#FEFECE" height="194.6719" id="EmployeeAccountUserDetails" style="stroke:#A80036;stroke-width:1.0;" width="436.7783" x="93.76" y="636.9569"/><ellipse cx="204.6218" cy="652.9569" fill="#ADD1B2" rx="11" ry="11" style="stroke:#A80036;stroke-width:1.0;"/><path d="M207.5906,658.5975 Q207.0124,658.8944 206.3718,659.035 Q205.7312,659.1913 205.0281,659.1913 Q202.5281,659.1913 201.1999,657.5506 Q199.8874,655.8944 199.8874,652.7694 Q199.8874,649.6444 201.1999,647.9881 Q202.5281,646.3319 205.0281,646.3319 Q205.7312,646.3319 206.3718,646.4881 Q207.0281,646.6444 207.5906,646.9413 L207.5906,649.66 Q206.9656,649.0819 206.3718,648.8163 Q205.7781,648.535 205.1531,648.535 Q203.8093,648.535 203.1218,649.6131 Q202.4343,650.6756 202.4343,652.7694 Q202.4343,654.8631 203.1218,655.9413 Q203.8093,657.0038 205.1531,657.0038 Q205.7781,657.0038 206.3718,656.7381 Q206.9656,656.4569 207.5906,655.8788 L207.5906,658.5975 Z " fill="#000000"/><text fill="#000000" font-family="sans-serif" font-size="14" lengthAdjust="spacing" textLength="206.5547" x="225.1218" y="657.8036">EmployeeAccountUserDetails</text><line style="stroke:#A80036;stroke-width:1.0;" x1="94.76" x2="529.5383" y1="668.9569" y2="668.9569"/><rect fill="none" height="6" style="stroke:#C82930;stroke-width:1.0;" width="6" x="101.76" y="679.6053"/><text fill="#000000" font-family="sans-serif" font-size="14" lengthAdjust="spacing" textLength="195.501" x="113.76" y="685.952">account : EmployeeAccount</text><rect fill="none" height="6" style="stroke:#C82930;stroke-width:1.0;" width="6" x="101.76" y="695.9022"/><text fill="#000000" font-family="sans-serif" font-size="14" lengthAdjust="spacing" textLength="299.5918" x="113.76" y="702.2489">authorites : Collection&lt;GrantedAuthority&gt;</text><line style="stroke:#A80036;stroke-width:1.0;" x1="94.76" x2="529.5383" y1="709.5506" y2="709.5506"/><ellipse cx="104.76" cy="723.1991" fill="#84BE84" rx="3" ry="3" style="stroke:#038048;stroke-width:1.0;"/><text fill="#000000" font-family="sans-serif" font-size="14" lengthAdjust="spacing" textLength="410.7783" x="113.76" y="726.5457">getAuthorities() : Collection&lt;? extends GrantedAuthority&gt;</text><ellipse cx="104.76" cy="739.4959" fill="#84BE84" rx="3" ry="3" style="stroke:#038048;stroke-width:1.0;"/><text fill="#000000" font-family="sans-serif" font-size="14" lengthAdjust="spacing" textLength="155.5791" x="113.76" y="742.8426">getPassword() : String</text><ellipse cx="104.76" cy="755.7928" fill="#84BE84" rx="3" ry="3" style="stroke:#038048;stroke-width:1.0;"/><text fill="#000000" font-family="sans-serif" font-size="14" lengthAdjust="spacing" textLength="160.9248" x="113.76" y="759.1395">getUsername() : String</text><ellipse cx="104.76" cy="772.0897" fill="#84BE84" rx="3" ry="3" style="stroke:#038048;stroke-width:1.0;"/><text fill="#000000" font-family="sans-serif" font-size="14" lengthAdjust="spacing" textLength="229.5439" x="113.76" y="775.4364">isAccountNonExpired() : boolean</text><ellipse cx="104.76" cy="788.3866" fill="#84BE84" rx="3" ry="3" style="stroke:#038048;stroke-width:1.0;"/><text fill="#000000" font-family="sans-serif" font-size="14" lengthAdjust="spacing" textLength="226.0508" x="113.76" y="791.7332">isAccountNonLocked() : boolean</text><ellipse cx="104.76" cy="804.6834" fill="#84BE84" rx="3" ry="3" style="stroke:#038048;stroke-width:1.0;"/><text fill="#000000" font-family="sans-serif" font-size="14" lengthAdjust="spacing" textLength="252.4307" x="113.76" y="808.0301">isCredentialsNonExpired() : boolean</text><ellipse cx="104.76" cy="820.9803" fill="#84BE84" rx="3" ry="3" style="stroke:#038048;stroke-width:1.0;"/><text fill="#000000" font-family="sans-serif" font-size="14" lengthAdjust="spacing" textLength="148.2715" x="113.76" y="824.327">isEnabled() : boolean</text></g><!--class EmployeeAccountUserDetailsService--><g id="elem_EmployeeAccountUserDetailsService"><rect codeLine="18" fill="#FEFECE" height="80.5938" id="EmployeeAccountUserDetailsService" style="stroke:#A80036;stroke-width:1.0;" width="441.748" x="677.3" y="496.9969"/><ellipse cx="764.7761" cy="512.9969" fill="#ADD1B2" rx="11" ry="11" style="stroke:#A80036;stroke-width:1.0;"/><path d="M767.7448,518.6375 Q767.1667,518.9344 766.5261,519.075 Q765.8854,519.2313 765.1823,519.2313 Q762.6823,519.2313 761.3542,517.5906 Q760.0417,515.9344 760.0417,512.8094 Q760.0417,509.6844 761.3542,508.0281 Q762.6823,506.3719 765.1823,506.3719 Q765.8854,506.3719 766.5261,506.5281 Q767.1823,506.6844 767.7448,506.9813 L767.7448,509.7 Q767.1198,509.1219 766.5261,508.8563 Q765.9323,508.575 765.3073,508.575 Q763.9636,508.575 763.2761,509.6531 Q762.5886,510.7156 762.5886,512.8094 Q762.5886,514.9031 763.2761,515.9813 Q763.9636,517.0438 765.3073,517.0438 Q765.9323,517.0438 766.5261,516.7781 Q767.1198,516.4969 767.7448,515.9188 L767.7448,518.6375 Z " fill="#000000"/><text fill="#000000" font-family="sans-serif" font-size="14" lengthAdjust="spacing" textLength="258.2959" x="785.2761" y="517.8436">EmployeeAccountUserDetailsService</text><line style="stroke:#A80036;stroke-width:1.0;" x1="678.3" x2="1118.048" y1="528.9969" y2="528.9969"/><rect fill="none" height="6" style="stroke:#C82930;stroke-width:1.0;" width="6" x="685.3" y="539.6453"/><text fill="#000000" font-family="sans-serif" font-size="14" lengthAdjust="spacing" textLength="415.748" x="697.3" y="545.992">employeeAccountRepository : EmployeeAccountRepository</text><line style="stroke:#A80036;stroke-width:1.0;" x1="678.3" x2="1118.048" y1="553.2938" y2="553.2938"/><ellipse cx="688.3" cy="566.9422" fill="#84BE84" rx="3" ry="3" style="stroke:#038048;stroke-width:1.0;"/><text fill="#000000" font-family="sans-serif" font-size="14" lengthAdjust="spacing" textLength="372.791" x="697.3" y="570.2889">loadUserByUsername(String username) : UserDetails</text></g><!--class EmployeeAccountSecurityConfig--><g id="elem_EmployeeAccountSecurityConfig"><rect codeLine="23" fill="#FEFECE" height="129.4844" id="EmployeeAccountSecurityConfig" style="stroke:#A80036;stroke-width:1.0;" width="560.3037" x="32" y="472.5569"/><ellipse cx="193.6426" cy="488.5569" fill="#ADD1B2" rx="11" ry="11" style="stroke:#A80036;stroke-width:1.0;"/><path d="M196.6113,494.1975 Q196.0332,494.4944 195.3926,494.635 Q194.752,494.7913 194.0488,494.7913 Q191.5488,494.7913 190.2207,493.1506 Q188.9082,491.4944 188.9082,488.3694 Q188.9082,485.2444 190.2207,483.5881 Q191.5488,481.9319 194.0488,481.9319 Q194.752,481.9319 195.3926,482.0881 Q196.0488,482.2444 196.6113,482.5413 L196.6113,485.26 Q195.9863,484.6819 195.3926,484.4163 Q194.7988,484.135 194.1738,484.135 Q192.8301,484.135 192.1426,485.2131 Q191.4551,486.2756 191.4551,488.3694 Q191.4551,490.4631 192.1426,491.5413 Q192.8301,492.6038 194.1738,492.6038 Q194.7988,492.6038 195.3926,492.3381 Q195.9863,492.0569 196.6113,491.4788 L196.6113,494.1975 Z " fill="#000000"/><text fill="#000000" font-family="sans-serif" font-size="14" lengthAdjust="spacing" textLength="228.5186" x="214.1426" y="493.4036">EmployeeAccountSecurityConfig</text><line style="stroke:#A80036;stroke-width:1.0;" x1="33" x2="591.3037" y1="504.5569" y2="504.5569"/><rect fill="none" height="6" style="stroke:#C82930;stroke-width:1.0;" width="6" x="40" y="515.2053"/><text fill="#000000" font-family="sans-serif" font-size="14" lengthAdjust="spacing" textLength="427.9639" x="52" y="521.552">accountDetailsService : EmployeeAccountUserDetailsService</text><line style="stroke:#A80036;stroke-width:1.0;" x1="33" x2="591.3037" y1="528.8538" y2="528.8538"/><ellipse cx="43" cy="542.5022" fill="#84BE84" rx="3" ry="3" style="stroke:#038048;stroke-width:1.0;"/><text fill="#000000" font-family="sans-serif" font-size="14" lengthAdjust="spacing" textLength="271.9951" x="52" y="545.8489">passwordEncoder() : PasswordEncoder</text><ellipse cx="43" cy="558.7991" fill="#84BE84" rx="3" ry="3" style="stroke:#038048;stroke-width:1.0;"/><text fill="#000000" font-family="sans-serif" font-size="14" lengthAdjust="spacing" textLength="534.3037" x="52" y="562.1457">configureAuthenticationManager(AuthenticationManagerBuilder auth) : void</text><ellipse cx="43" cy="575.0959" fill="#84BE84" rx="3" ry="3" style="stroke:#038048;stroke-width:1.0;"/><text fill="#000000" font-family="sans-serif" font-size="14" lengthAdjust="spacing" textLength="242.4844" x="52" y="578.4426">configure(WebSecurity web) : void</text><ellipse cx="43" cy="591.3928" fill="#84BE84" rx="3" ry="3" style="stroke:#038048;stroke-width:1.0;"/><text fill="#000000" font-family="sans-serif" font-size="14" lengthAdjust="spacing" textLength="241.3223" x="52" y="594.7395">configure(HttpSecurity http) : void</text></g><!--class CustomerAccountUserDetails--><g id="elem_CustomerAccountUserDetails"><rect codeLine="30" fill="#FEFECE" height="194.6719" id="CustomerAccountUserDetails" style="stroke:#A80036;stroke-width:1.0;" width="436.7783" x="93.76" y="242.9569"/><ellipse cx="205.2883" cy="258.9569" fill="#ADD1B2" rx="11" ry="11" style="stroke:#A80036;stroke-width:1.0;"/><path d="M208.2571,264.5975 Q207.6789,264.8944 207.0383,265.035 Q206.3977,265.1912 205.6946,265.1912 Q203.1946,265.1912 201.8664,263.5506 Q200.5539,261.8944 200.5539,258.7694 Q200.5539,255.6444 201.8664,253.9881 Q203.1946,252.3319 205.6946,252.3319 Q206.3977,252.3319 207.0383,252.4881 Q207.6946,252.6444 208.2571,252.9412 L208.2571,255.66 Q207.6321,255.0819 207.0383,254.8162 Q206.4446,254.535 205.8196,254.535 Q204.4758,254.535 203.7883,255.6131 Q203.1008,256.6756 203.1008,258.7694 Q203.1008,260.8631 203.7883,261.9412 Q204.4758,263.0037 205.8196,263.0037 Q206.4446,263.0037 207.0383,262.7381 Q207.6321,262.4569 208.2571,261.8787 L208.2571,264.5975 Z " fill="#000000"/><text fill="#000000" font-family="sans-serif" font-size="14" lengthAdjust="spacing" textLength="205.2217" x="225.7883" y="263.8036">CustomerAccountUserDetails</text><line style="stroke:#A80036;stroke-width:1.0;" x1="94.76" x2="529.5383" y1="274.9569" y2="274.9569"/><rect fill="none" height="6" style="stroke:#C82930;stroke-width:1.0;" width="6" x="101.76" y="285.6053"/><text fill="#000000" font-family="sans-serif" font-size="14" lengthAdjust="spacing" textLength="137.3955" x="113.76" y="291.952">account : Customer</text><rect fill="none" height="6" style="stroke:#C82930;stroke-width:1.0;" width="6" x="101.76" y="301.9022"/><text fill="#000000" font-family="sans-serif" font-size="14" lengthAdjust="spacing" textLength="299.5918" x="113.76" y="308.2489">authorites : Collection&lt;GrantedAuthority&gt;</text><line style="stroke:#A80036;stroke-width:1.0;" x1="94.76" x2="529.5383" y1="315.5506" y2="315.5506"/><ellipse cx="104.76" cy="329.1991" fill="#84BE84" rx="3" ry="3" style="stroke:#038048;stroke-width:1.0;"/><text fill="#000000" font-family="sans-serif" font-size="14" lengthAdjust="spacing" textLength="410.7783" x="113.76" y="332.5457">getAuthorities() : Collection&lt;? extends GrantedAuthority&gt;</text><ellipse cx="104.76" cy="345.4959" fill="#84BE84" rx="3" ry="3" style="stroke:#038048;stroke-width:1.0;"/><text fill="#000000" font-family="sans-serif" font-size="14" lengthAdjust="spacing" textLength="155.5791" x="113.76" y="348.8426">getPassword() : String</text><ellipse cx="104.76" cy="361.7928" fill="#84BE84" rx="3" ry="3" style="stroke:#038048;stroke-width:1.0;"/><text fill="#000000" font-family="sans-serif" font-size="14" lengthAdjust="spacing" textLength="160.9248" x="113.76" y="365.1395">getUsername() : String</text><ellipse cx="104.76" cy="378.0897" fill="#84BE84" rx="3" ry="3" style="stroke:#038048;stroke-width:1.0;"/><text fill="#000000" font-family="sans-serif" font-size="14" lengthAdjust="spacing" textLength="229.5439" x="113.76" y="381.4364">isAccountNonExpired() : boolean</text><ellipse cx="104.76" cy="394.3866" fill="#84BE84" rx="3" ry="3" style="stroke:#038048;stroke-width:1.0;"/><text fill="#000000" font-family="sans-serif" font-size="14" lengthAdjust="spacing" textLength="226.0508" x="113.76" y="397.7332">isAccountNonLocked() : boolean</text><ellipse cx="104.76" cy="410.6834" fill="#84BE84" rx="3" ry="3" style="stroke:#038048;stroke-width:1.0;"/><text fill="#000000" font-family="sans-serif" font-size="14" lengthAdjust="spacing" textLength="252.4307" x="113.76" y="414.0301">isCredentialsNonExpired() : boolean</text><ellipse cx="104.76" cy="426.9803" fill="#84BE84" rx="3" ry="3" style="stroke:#038048;stroke-width:1.0;"/><text fill="#000000" font-family="sans-serif" font-size="14" lengthAdjust="spacing" textLength="148.2715" x="113.76" y="430.327">isEnabled() : boolean</text></g><!--class CustomerUserDetailsService--><g id="elem_CustomerUserDetailsService"><rect codeLine="41" fill="#FEFECE" height="80.5938" id="CustomerUserDetailsService" style="stroke:#A80036;stroke-width:1.0;" width="398.791" x="698.78" y="102.9969"/><ellipse cx="793.8303" cy="118.9969" fill="#ADD1B2" rx="11" ry="11" style="stroke:#A80036;stroke-width:1.0;"/><path d="M796.799,124.6375 Q796.2209,124.9344 795.5803,125.075 Q794.9397,125.2313 794.2365,125.2313 Q791.7365,125.2313 790.4084,123.5906 Q789.0959,121.9344 789.0959,118.8094 Q789.0959,115.6844 790.4084,114.0281 Q791.7365,112.3719 794.2365,112.3719 Q794.9397,112.3719 795.5803,112.5281 Q796.2365,112.6844 796.799,112.9813 L796.799,115.7 Q796.174,115.1219 795.5803,114.8563 Q794.9865,114.575 794.3615,114.575 Q793.0178,114.575 792.3303,115.6531 Q791.6428,116.7156 791.6428,118.8094 Q791.6428,120.9031 792.3303,121.9813 Q793.0178,123.0438 794.3615,123.0438 Q794.9865,123.0438 795.5803,122.7781 Q796.174,122.4969 796.799,121.9188 L796.799,124.6375 Z " fill="#000000"/><text fill="#000000" font-family="sans-serif" font-size="14" lengthAdjust="spacing" textLength="200.1904" x="814.3303" y="123.8436">CustomerUserDetailsService</text><line style="stroke:#A80036;stroke-width:1.0;" x1="699.78" x2="1096.571" y1="134.9969" y2="134.9969"/><rect fill="none" height="6" style="stroke:#C82930;stroke-width:1.0;" width="6" x="706.78" y="145.6453"/><text fill="#000000" font-family="sans-serif" font-size="14" lengthAdjust="spacing" textLength="297.6914" x="718.78" y="151.992">customerRepository : CustomerRepository</text><line style="stroke:#A80036;stroke-width:1.0;" x1="699.78" x2="1096.571" y1="159.2938" y2="159.2938"/><ellipse cx="709.78" cy="172.9422" fill="#84BE84" rx="3" ry="3" style="stroke:#038048;stroke-width:1.0;"/><text fill="#000000" font-family="sans-serif" font-size="14" lengthAdjust="spacing" textLength="372.791" x="718.78" y="176.2889">loadUserByUsername(String username) : UserDetails</text></g><!--class CustomerSecurityConfig--><g id="elem_CustomerSecurityConfig"><rect codeLine="46" fill="#FEFECE" height="129.4844" id="CustomerSecurityConfig" style="stroke:#A80036;stroke-width:1.0;" width="560.3037" x="32" y="78.5569"/><ellipse cx="222.6953" cy="94.5569" fill="#ADD1B2" rx="11" ry="11" style="stroke:#A80036;stroke-width:1.0;"/><path d="M225.6641,100.1975 Q225.0859,100.4944 224.4453,100.635 Q223.8047,100.7912 223.1016,100.7912 Q220.6016,100.7912 219.2734,99.1506 Q217.9609,97.4944 217.9609,94.3694 Q217.9609,91.2444 219.2734,89.5881 Q220.6016,87.9319 223.1016,87.9319 Q223.8047,87.9319 224.4453,88.0881 Q225.1016,88.2444 225.6641,88.5412 L225.6641,91.26 Q225.0391,90.6819 224.4453,90.4162 Q223.8516,90.135 223.2266,90.135 Q221.8828,90.135 221.1953,91.2131 Q220.5078,92.2756 220.5078,94.3694 Q220.5078,96.4631 221.1953,97.5412 Q221.8828,98.6037 223.2266,98.6037 Q223.8516,98.6037 224.4453,98.3381 Q225.0391,98.0569 225.6641,97.4787 L225.6641,100.1975 Z " fill="#000000"/><text fill="#000000" font-family="sans-serif" font-size="14" lengthAdjust="spacing" textLength="170.4131" x="243.1953" y="99.4036">CustomerSecurityConfig</text><line style="stroke:#A80036;stroke-width:1.0;" x1="33" x2="591.3037" y1="110.5569" y2="110.5569"/><rect fill="none" height="6" style="stroke:#C82930;stroke-width:1.0;" width="6" x="40" y="121.2053"/><text fill="#000000" font-family="sans-serif" font-size="14" lengthAdjust="spacing" textLength="380.0098" x="52" y="127.552">customerDetailsService : CustomerUserDetailsService</text><line style="stroke:#A80036;stroke-width:1.0;" x1="33" x2="591.3037" y1="134.8538" y2="134.8538"/><ellipse cx="43" cy="148.5022" fill="#84BE84" rx="3" ry="3" style="stroke:#038048;stroke-width:1.0;"/><text fill="#000000" font-family="sans-serif" font-size="14" lengthAdjust="spacing" textLength="271.9951" x="52" y="151.8489">passwordEncoder() : PasswordEncoder</text><ellipse cx="43" cy="164.7991" fill="#84BE84" rx="3" ry="3" style="stroke:#038048;stroke-width:1.0;"/><text fill="#000000" font-family="sans-serif" font-size="14" lengthAdjust="spacing" textLength="534.3037" x="52" y="168.1457">configureAuthenticationManager(AuthenticationManagerBuilder auth) : void</text><ellipse cx="43" cy="181.0959" fill="#84BE84" rx="3" ry="3" style="stroke:#038048;stroke-width:1.0;"/><text fill="#000000" font-family="sans-serif" font-size="14" lengthAdjust="spacing" textLength="242.4844" x="52" y="184.4426">configure(WebSecurity web) : void</text><ellipse cx="43" cy="197.3928" fill="#84BE84" rx="3" ry="3" style="stroke:#038048;stroke-width:1.0;"/><text fill="#000000" font-family="sans-serif" font-size="14" lengthAdjust="spacing" textLength="241.3223" x="52" y="200.7395">configure(HttpSecurity http) : void</text></g><!--link EmployeeAccountSecurityConfig to EmployeeAccountUserDetailsService--><g id="link_EmployeeAccountSecurityConfig_EmployeeAccountUserDetailsService"><path codeLine="54" d="M592.76,537.2969 C621.04,537.2969 643.47,537.2969 670.99,537.2969 " fill="none" id="EmployeeAccountSecurityConfig-to-EmployeeAccountUserDetailsService" style="stroke:#A80036;stroke-width:1.0;"/><polygon fill="#A80036" points="676.99,537.2969,667.99,533.2969,671.99,537.2969,667.99,541.2969,676.99,537.2969" style="stroke:#A80036;stroke-width:1.0;"/><text fill="#000000" font-family="sans-serif" font-size="13" lengthAdjust="spacing" textLength="23.0103" x="623.3" y="533.3638">use</text></g><!--link CustomerSecurityConfig to CustomerUserDetailsService--><g id="link_CustomerSecurityConfig_CustomerUserDetailsService"><path codeLine="55" d="M592.76,143.2969 C628.51,143.2969 658.51,143.2969 692.6,143.2969 " fill="none" id="CustomerSecurityConfig-to-CustomerUserDetailsService" style="stroke:#A80036;stroke-width:1.0;"/><polygon fill="#A80036" points="698.6,143.2969,689.6,139.2969,693.6,143.2969,689.6,147.2969,698.6,143.2969" style="stroke:#A80036;stroke-width:1.0;"/><text fill="#000000" font-family="sans-serif" font-size="13" lengthAdjust="spacing" textLength="23.0103" x="623.3" y="139.3638">use</text></g><!--SRC=[xLH1Rjim4Bph5NkhWy8V28eKYMgaXxO8QXGzKzJQ8ann1N8LHoXoYL_Gf_JMGt-ZZvII9KUAPCMd8WZAayGT3dTdT-Wsoe0bXu7pNvcm8WMNY9YsognX9RIFQ5mnC85LwuGXLXObAp91ec84J3Ck8CKqGki2LgmH7ChSAYxAtSzojoiVVfMxF-N3xo0JSYFMZ_4V0VWbjN0E5cccgK2yb99omzySsW_8GcctHrLh3c8VXVEd-2ucvuGyFJeF2qdhVRhlhgqmZF5b4ouk3cVUmXgvtLVePcVza-y1xnXDxE0PZXjVoPPiN1CisNeD-u2gB2DI70SerrJpXSpYBlD2xvaY8et2745-8hcP08QU1GqhtyeJQ1T6H7eaVdzIgvPeRvN4RiUm3_wA6Jd5P8jX3nzZdPGqYRYwuQeuQBVN3VBclqgraqFmPhIjnUp9RUqidPqo9HFbBvjX3icir7faMFlQ3CiUwjSfFsicQc4anMZhljpqzpfeMUUGMwpIhvekHLNKPs6yxUniTFSgLzgprBQfs6z9nMEKi-yOjRN25gD9x4Vcx01E_4yFtLKpp1rJYlPKtxVu_uR_TuPlDPzskcnGFOk7WyqNxUqstUEcRgiSkFguIA_VplV1vAC8y_d5ywyUdFkk1-CTg1cEArmV_Gi0]--></g></svg>