<?xml version="1.0" encoding="us-ascii" standalone="no"?><svg xmlns="http://www.w3.org/2000/svg" xmlns:xlink="http://www.w3.org/1999/xlink" contentStyleType="text/css" height="855px" preserveAspectRatio="none" style="width:1180px;height:855px;background:#FFFFFF;" version="1.1" viewBox="0 0 1180 855" width="1180px" zoomAndPan="magnify"><defs/><g><text fill="#000000" font-family="sans-serif" font-size="14" font-weight="bold" lengthAdjust="spacing" textLength="141" x="512.5" y="22.9951">security&#12497;&#12483;&#12465;&#12540;&#12472;</text><!--cluster security--><g id="cluster_security"><polygon fill="none" points="16,43.2969,88,43.2969,95,65.5938,1163,65.5938,1163,848.2969,16,848.2969,16,43.2969" style="stroke:#000000;stroke-width:1.5;"/><line style="stroke:#000000;stroke-width:1.5;" x1="16" x2="95" y1="65.5938" y2="65.5938"/><text fill="#000000" font-family="sans-serif" font-size="14" font-weight="bold" lengthAdjust="spacing" textLength="66" x="20" y="58.292">security</text></g><!--class EmployeeAccountUserDetails--><g id="elem_EmployeeAccountUserDetails"><rect codeLine="7" fill="#FEFECE" height="194.6719" id="EmployeeAccountUserDetails" style="stroke:#A80036;stroke-width:1.0;" width="449" x="93" y="78.7969"/><ellipse cx="207.25" cy="94.7969" fill="#ADD1B2" rx="11" ry="11" style="stroke:#A80036;stroke-width:1.0;"/><path d="M209.5938,90.4688 C208.6563,90.0313 208.0625,89.8906 207.1875,89.8906 C204.5625,89.8906 202.5625,91.9688 202.5625,94.6875 L202.5625,95.8125 C202.5625,98.3906 204.6719,100.2813 207.5625,100.2813 C208.7813,100.2813 209.9375,99.9844 210.6875,99.4375 C211.2656,99.0313 211.5938,98.5781 211.5938,98.1875 C211.5938,97.7344 211.2031,97.3438 210.7344,97.3438 C210.5156,97.3438 210.3125,97.4219 210.125,97.6094 C209.6719,98.0938 209.6719,98.0938 209.4844,98.1875 C209.0625,98.4531 208.375,98.5781 207.6094,98.5781 C205.5625,98.5781 204.2656,97.4844 204.2656,95.7813 L204.2656,94.6875 C204.2656,92.9063 205.5156,91.5938 207.25,91.5938 C207.8281,91.5938 208.4375,91.75 208.9063,92 C209.3906,92.2813 209.5625,92.5 209.6563,92.9063 C209.7188,93.3125 209.75,93.4375 209.8906,93.5625 C210.0313,93.7031 210.2656,93.8125 210.4844,93.8125 C210.75,93.8125 211.0156,93.6719 211.1875,93.4531 C211.2969,93.2969 211.3281,93.1094 211.3281,92.6875 L211.3281,91.2656 C211.3281,90.8281 211.3125,90.7031 211.2188,90.5469 C211.0625,90.2813 210.7813,90.1406 210.4844,90.1406 C210.1875,90.1406 209.9844,90.2344 209.7656,90.5469 L209.5938,90.4688 Z " fill="#000000"/><text fill="#000000" font-family="sans-serif" font-size="14" lengthAdjust="spacing" textLength="212" x="227.75" y="99.6436">EmployeeAccountUserDetails</text><line style="stroke:#A80036;stroke-width:1.0;" x1="94" x2="541" y1="110.7969" y2="110.7969"/><rect fill="none" height="6" style="stroke:#C82930;stroke-width:1.0;" width="6" x="101" y="121.4453"/><text fill="#000000" font-family="sans-serif" font-size="14" lengthAdjust="spacing" textLength="201" x="113" y="127.792">account : EmployeeAccount</text><rect fill="none" height="6" style="stroke:#C82930;stroke-width:1.0;" width="6" x="101" y="137.7422"/><text fill="#000000" font-family="sans-serif" font-size="14" lengthAdjust="spacing" textLength="309" x="113" y="144.0889">authorites : Collection&lt;GrantedAuthority&gt;</text><line style="stroke:#A80036;stroke-width:1.0;" x1="94" x2="541" y1="151.3906" y2="151.3906"/><ellipse cx="104" cy="165.0391" fill="#84BE84" rx="3" ry="3" style="stroke:#038048;stroke-width:1.0;"/><text fill="#000000" font-family="sans-serif" font-size="14" lengthAdjust="spacing" textLength="423" x="113" y="168.3857">getAuthorities() : Collection&lt;? extends GrantedAuthority&gt;</text><ellipse cx="104" cy="181.3359" fill="#84BE84" rx="3" ry="3" style="stroke:#038048;stroke-width:1.0;"/><text fill="#000000" font-family="sans-serif" font-size="14" lengthAdjust="spacing" textLength="158" x="113" y="184.6826">getPassword() : String</text><ellipse cx="104" cy="197.6328" fill="#84BE84" rx="3" ry="3" style="stroke:#038048;stroke-width:1.0;"/><text fill="#000000" font-family="sans-serif" font-size="14" lengthAdjust="spacing" textLength="163" x="113" y="200.9795">getUsername() : String</text><ellipse cx="104" cy="213.9297" fill="#84BE84" rx="3" ry="3" style="stroke:#038048;stroke-width:1.0;"/><text fill="#000000" font-family="sans-serif" font-size="14" lengthAdjust="spacing" textLength="234" x="113" y="217.2764">isAccountNonExpired() : boolean</text><ellipse cx="104" cy="230.2266" fill="#84BE84" rx="3" ry="3" style="stroke:#038048;stroke-width:1.0;"/><text fill="#000000" font-family="sans-serif" font-size="14" lengthAdjust="spacing" textLength="231" x="113" y="233.5732">isAccountNonLocked() : boolean</text><ellipse cx="104" cy="246.5234" fill="#84BE84" rx="3" ry="3" style="stroke:#038048;stroke-width:1.0;"/><text fill="#000000" font-family="sans-serif" font-size="14" lengthAdjust="spacing" textLength="257" x="113" y="249.8701">isCredentialsNonExpired() : boolean</text><ellipse cx="104" cy="262.8203" fill="#84BE84" rx="3" ry="3" style="stroke:#038048;stroke-width:1.0;"/><text fill="#000000" font-family="sans-serif" font-size="14" lengthAdjust="spacing" textLength="150" x="113" y="266.167">isEnabled() : boolean</text></g><!--class EmployeeAccountUserDetailsService--><g id="elem_EmployeeAccountUserDetailsService"><rect codeLine="18" fill="#FEFECE" height="80.5938" id="EmployeeAccountUserDetailsService" style="stroke:#A80036;stroke-width:1.0;" width="459" x="688" y="332.7969"/><ellipse cx="780.75" cy="348.7969" fill="#ADD1B2" rx="11" ry="11" style="stroke:#A80036;stroke-width:1.0;"/><path d="M783.0938,344.4688 C782.1563,344.0313 781.5625,343.8906 780.6875,343.8906 C778.0625,343.8906 776.0625,345.9688 776.0625,348.6875 L776.0625,349.8125 C776.0625,352.3906 778.1719,354.2813 781.0625,354.2813 C782.2813,354.2813 783.4375,353.9844 784.1875,353.4375 C784.7656,353.0313 785.0938,352.5781 785.0938,352.1875 C785.0938,351.7344 784.7031,351.3438 784.2344,351.3438 C784.0156,351.3438 783.8125,351.4219 783.625,351.6094 C783.1719,352.0938 783.1719,352.0938 782.9844,352.1875 C782.5625,352.4531 781.875,352.5781 781.1094,352.5781 C779.0625,352.5781 777.7656,351.4844 777.7656,349.7813 L777.7656,348.6875 C777.7656,346.9063 779.0156,345.5938 780.75,345.5938 C781.3281,345.5938 781.9375,345.75 782.4063,346 C782.8906,346.2813 783.0625,346.5 783.1563,346.9063 C783.2188,347.3125 783.25,347.4375 783.3906,347.5625 C783.5313,347.7031 783.7656,347.8125 783.9844,347.8125 C784.25,347.8125 784.5156,347.6719 784.6875,347.4531 C784.7969,347.2969 784.8281,347.1094 784.8281,346.6875 L784.8281,345.2656 C784.8281,344.8281 784.8125,344.7031 784.7188,344.5469 C784.5625,344.2813 784.2813,344.1406 783.9844,344.1406 C783.6875,344.1406 783.4844,344.2344 783.2656,344.5469 L783.0938,344.4688 Z " fill="#000000"/><text fill="#000000" font-family="sans-serif" font-size="14" lengthAdjust="spacing" textLength="265" x="801.25" y="353.6436">EmployeeAccountUserDetailsService</text><line style="stroke:#A80036;stroke-width:1.0;" x1="689" x2="1146" y1="364.7969" y2="364.7969"/><rect fill="none" height="6" style="stroke:#C82930;stroke-width:1.0;" width="6" x="696" y="375.4453"/><text fill="#000000" font-family="sans-serif" font-size="14" lengthAdjust="spacing" textLength="433" x="708" y="381.792">employeeAccountRepository : EmployeeAccountRepository</text><line style="stroke:#A80036;stroke-width:1.0;" x1="689" x2="1146" y1="389.0938" y2="389.0938"/><ellipse cx="699" cy="402.7422" fill="#84BE84" rx="3" ry="3" style="stroke:#038048;stroke-width:1.0;"/><text fill="#000000" font-family="sans-serif" font-size="14" lengthAdjust="spacing" textLength="372" x="708" y="406.0889">loadUserByUsername(String username) : UserDetails</text></g><!--class EmployeeAccountSecurityConfig--><g id="elem_EmployeeAccountSecurityConfig"><rect codeLine="23" fill="#FEFECE" height="129.4844" id="EmployeeAccountSecurityConfig" style="stroke:#A80036;stroke-width:1.0;" width="571" x="32" y="308.7969"/><ellipse cx="194.75" cy="324.7969" fill="#ADD1B2" rx="11" ry="11" style="stroke:#A80036;stroke-width:1.0;"/><path d="M197.0938,320.4688 C196.1563,320.0313 195.5625,319.8906 194.6875,319.8906 C192.0625,319.8906 190.0625,321.9688 190.0625,324.6875 L190.0625,325.8125 C190.0625,328.3906 192.1719,330.2813 195.0625,330.2813 C196.2813,330.2813 197.4375,329.9844 198.1875,329.4375 C198.7656,329.0313 199.0938,328.5781 199.0938,328.1875 C199.0938,327.7344 198.7031,327.3438 198.2344,327.3438 C198.0156,327.3438 197.8125,327.4219 197.625,327.6094 C197.1719,328.0938 197.1719,328.0938 196.9844,328.1875 C196.5625,328.4531 195.875,328.5781 195.1094,328.5781 C193.0625,328.5781 191.7656,327.4844 191.7656,325.7813 L191.7656,324.6875 C191.7656,322.9063 193.0156,321.5938 194.75,321.5938 C195.3281,321.5938 195.9375,321.75 196.4063,322 C196.8906,322.2813 197.0625,322.5 197.1563,322.9063 C197.2188,323.3125 197.25,323.4375 197.3906,323.5625 C197.5313,323.7031 197.7656,323.8125 197.9844,323.8125 C198.25,323.8125 198.5156,323.6719 198.6875,323.4531 C198.7969,323.2969 198.8281,323.1094 198.8281,322.6875 L198.8281,321.2656 C198.8281,320.8281 198.8125,320.7031 198.7188,320.5469 C198.5625,320.2813 198.2813,320.1406 197.9844,320.1406 C197.6875,320.1406 197.4844,320.2344 197.2656,320.5469 L197.0938,320.4688 Z " fill="#000000"/><text fill="#000000" font-family="sans-serif" font-size="14" lengthAdjust="spacing" textLength="237" x="215.25" y="329.6436">EmployeeAccountSecurityConfig</text><line style="stroke:#A80036;stroke-width:1.0;" x1="33" x2="602" y1="340.7969" y2="340.7969"/><rect fill="none" height="6" style="stroke:#C82930;stroke-width:1.0;" width="6" x="40" y="351.4453"/><text fill="#000000" font-family="sans-serif" font-size="14" lengthAdjust="spacing" textLength="438" x="52" y="357.792">accountDetailsService : EmployeeAccountUserDetailsService</text><line style="stroke:#A80036;stroke-width:1.0;" x1="33" x2="602" y1="365.0938" y2="365.0938"/><ellipse cx="43" cy="378.7422" fill="#84BE84" rx="3" ry="3" style="stroke:#038048;stroke-width:1.0;"/><text fill="#000000" font-family="sans-serif" font-size="14" lengthAdjust="spacing" textLength="274" x="52" y="382.0889">passwordEncoder() : PasswordEncoder</text><ellipse cx="43" cy="395.0391" fill="#84BE84" rx="3" ry="3" style="stroke:#038048;stroke-width:1.0;"/><text fill="#000000" font-family="sans-serif" font-size="14" lengthAdjust="spacing" textLength="545" x="52" y="398.3857">configureAuthenticationManager(AuthenticationManagerBuilder auth) : void</text><ellipse cx="43" cy="411.3359" fill="#84BE84" rx="3" ry="3" style="stroke:#038048;stroke-width:1.0;"/><text fill="#000000" font-family="sans-serif" font-size="14" lengthAdjust="spacing" textLength="247" x="52" y="414.6826">configure(WebSecurity web) : void</text><ellipse cx="43" cy="427.6328" fill="#84BE84" rx="3" ry="3" style="stroke:#038048;stroke-width:1.0;"/><text fill="#000000" font-family="sans-serif" font-size="14" lengthAdjust="spacing" textLength="251" x="52" y="430.9795">configure(HttpSecurity http) : void</text></g><!--class CustomerAccountUserDetails--><g id="elem_CustomerAccountUserDetails"><rect codeLine="30" fill="#FEFECE" height="194.6719" id="CustomerAccountUserDetails" style="stroke:#A80036;stroke-width:1.0;" width="449" x="93" y="472.7969"/><ellipse cx="208.25" cy="488.7969" fill="#ADD1B2" rx="11" ry="11" style="stroke:#A80036;stroke-width:1.0;"/><path d="M210.5938,484.4688 C209.6563,484.0313 209.0625,483.8906 208.1875,483.8906 C205.5625,483.8906 203.5625,485.9688 203.5625,488.6875 L203.5625,489.8125 C203.5625,492.3906 205.6719,494.2813 208.5625,494.2813 C209.7813,494.2813 210.9375,493.9844 211.6875,493.4375 C212.2656,493.0313 212.5938,492.5781 212.5938,492.1875 C212.5938,491.7344 212.2031,491.3438 211.7344,491.3438 C211.5156,491.3438 211.3125,491.4219 211.125,491.6094 C210.6719,492.0938 210.6719,492.0938 210.4844,492.1875 C210.0625,492.4531 209.375,492.5781 208.6094,492.5781 C206.5625,492.5781 205.2656,491.4844 205.2656,489.7813 L205.2656,488.6875 C205.2656,486.9063 206.5156,485.5938 208.25,485.5938 C208.8281,485.5938 209.4375,485.75 209.9063,486 C210.3906,486.2813 210.5625,486.5 210.6563,486.9063 C210.7188,487.3125 210.75,487.4375 210.8906,487.5625 C211.0313,487.7031 211.2656,487.8125 211.4844,487.8125 C211.75,487.8125 212.0156,487.6719 212.1875,487.4531 C212.2969,487.2969 212.3281,487.1094 212.3281,486.6875 L212.3281,485.2656 C212.3281,484.8281 212.3125,484.7031 212.2188,484.5469 C212.0625,484.2813 211.7813,484.1406 211.4844,484.1406 C211.1875,484.1406 210.9844,484.2344 210.7656,484.5469 L210.5938,484.4688 Z " fill="#000000"/><text fill="#000000" font-family="sans-serif" font-size="14" lengthAdjust="spacing" textLength="210" x="228.75" y="493.6436">CustomerAccountUserDetails</text><line style="stroke:#A80036;stroke-width:1.0;" x1="94" x2="541" y1="504.7969" y2="504.7969"/><rect fill="none" height="6" style="stroke:#C82930;stroke-width:1.0;" width="6" x="101" y="515.4453"/><text fill="#000000" font-family="sans-serif" font-size="14" lengthAdjust="spacing" textLength="140" x="113" y="521.792">account : Customer</text><rect fill="none" height="6" style="stroke:#C82930;stroke-width:1.0;" width="6" x="101" y="531.7422"/><text fill="#000000" font-family="sans-serif" font-size="14" lengthAdjust="spacing" textLength="309" x="113" y="538.0889">authorites : Collection&lt;GrantedAuthority&gt;</text><line style="stroke:#A80036;stroke-width:1.0;" x1="94" x2="541" y1="545.3906" y2="545.3906"/><ellipse cx="104" cy="559.0391" fill="#84BE84" rx="3" ry="3" style="stroke:#038048;stroke-width:1.0;"/><text fill="#000000" font-family="sans-serif" font-size="14" lengthAdjust="spacing" textLength="423" x="113" y="562.3857">getAuthorities() : Collection&lt;? extends GrantedAuthority&gt;</text><ellipse cx="104" cy="575.3359" fill="#84BE84" rx="3" ry="3" style="stroke:#038048;stroke-width:1.0;"/><text fill="#000000" font-family="sans-serif" font-size="14" lengthAdjust="spacing" textLength="158" x="113" y="578.6826">getPassword() : String</text><ellipse cx="104" cy="591.6328" fill="#84BE84" rx="3" ry="3" style="stroke:#038048;stroke-width:1.0;"/><text fill="#000000" font-family="sans-serif" font-size="14" lengthAdjust="spacing" textLength="163" x="113" y="594.9795">getUsername() : String</text><ellipse cx="104" cy="607.9297" fill="#84BE84" rx="3" ry="3" style="stroke:#038048;stroke-width:1.0;"/><text fill="#000000" font-family="sans-serif" font-size="14" lengthAdjust="spacing" textLength="234" x="113" y="611.2764">isAccountNonExpired() : boolean</text><ellipse cx="104" cy="624.2266" fill="#84BE84" rx="3" ry="3" style="stroke:#038048;stroke-width:1.0;"/><text fill="#000000" font-family="sans-serif" font-size="14" lengthAdjust="spacing" textLength="231" x="113" y="627.5732">isAccountNonLocked() : boolean</text><ellipse cx="104" cy="640.5234" fill="#84BE84" rx="3" ry="3" style="stroke:#038048;stroke-width:1.0;"/><text fill="#000000" font-family="sans-serif" font-size="14" lengthAdjust="spacing" textLength="257" x="113" y="643.8701">isCredentialsNonExpired() : boolean</text><ellipse cx="104" cy="656.8203" fill="#84BE84" rx="3" ry="3" style="stroke:#038048;stroke-width:1.0;"/><text fill="#000000" font-family="sans-serif" font-size="14" lengthAdjust="spacing" textLength="150" x="113" y="660.167">isEnabled() : boolean</text></g><!--class CustomerUserDetailsService--><g id="elem_CustomerUserDetailsService"><rect codeLine="41" fill="#FEFECE" height="80.5938" id="CustomerUserDetailsService" style="stroke:#A80036;stroke-width:1.0;" width="398" x="718.5" y="726.7969"/><ellipse cx="811.25" cy="742.7969" fill="#ADD1B2" rx="11" ry="11" style="stroke:#A80036;stroke-width:1.0;"/><path d="M813.5938,738.4688 C812.6563,738.0313 812.0625,737.8906 811.1875,737.8906 C808.5625,737.8906 806.5625,739.9688 806.5625,742.6875 L806.5625,743.8125 C806.5625,746.3906 808.6719,748.2813 811.5625,748.2813 C812.7813,748.2813 813.9375,747.9844 814.6875,747.4375 C815.2656,747.0313 815.5938,746.5781 815.5938,746.1875 C815.5938,745.7344 815.2031,745.3438 814.7344,745.3438 C814.5156,745.3438 814.3125,745.4219 814.125,745.6094 C813.6719,746.0938 813.6719,746.0938 813.4844,746.1875 C813.0625,746.4531 812.375,746.5781 811.6094,746.5781 C809.5625,746.5781 808.2656,745.4844 808.2656,743.7813 L808.2656,742.6875 C808.2656,740.9063 809.5156,739.5938 811.25,739.5938 C811.8281,739.5938 812.4375,739.75 812.9063,740 C813.3906,740.2813 813.5625,740.5 813.6563,740.9063 C813.7188,741.3125 813.75,741.4375 813.8906,741.5625 C814.0313,741.7031 814.2656,741.8125 814.4844,741.8125 C814.75,741.8125 815.0156,741.6719 815.1875,741.4531 C815.2969,741.2969 815.3281,741.1094 815.3281,740.6875 L815.3281,739.2656 C815.3281,738.8281 815.3125,738.7031 815.2188,738.5469 C815.0625,738.2813 814.7813,738.1406 814.4844,738.1406 C814.1875,738.1406 813.9844,738.2344 813.7656,738.5469 L813.5938,738.4688 Z " fill="#000000"/><text fill="#000000" font-family="sans-serif" font-size="14" lengthAdjust="spacing" textLength="204" x="831.75" y="747.6436">CustomerUserDetailsService</text><line style="stroke:#A80036;stroke-width:1.0;" x1="719.5" x2="1115.5" y1="758.7969" y2="758.7969"/><rect fill="none" height="6" style="stroke:#C82930;stroke-width:1.0;" width="6" x="726.5" y="769.4453"/><text fill="#000000" font-family="sans-serif" font-size="14" lengthAdjust="spacing" textLength="309" x="738.5" y="775.792">customerRepository : CustomerRepository</text><line style="stroke:#A80036;stroke-width:1.0;" x1="719.5" x2="1115.5" y1="783.0938" y2="783.0938"/><ellipse cx="729.5" cy="796.7422" fill="#84BE84" rx="3" ry="3" style="stroke:#038048;stroke-width:1.0;"/><text fill="#000000" font-family="sans-serif" font-size="14" lengthAdjust="spacing" textLength="372" x="738.5" y="800.0889">loadUserByUsername(String username) : UserDetails</text></g><!--class CustomerSecurityConfig--><g id="elem_CustomerSecurityConfig"><rect codeLine="46" fill="#FEFECE" height="129.4844" id="CustomerSecurityConfig" style="stroke:#A80036;stroke-width:1.0;" width="571" x="32" y="702.7969"/><ellipse cx="225.25" cy="718.7969" fill="#ADD1B2" rx="11" ry="11" style="stroke:#A80036;stroke-width:1.0;"/><path d="M227.5938,714.4688 C226.6563,714.0313 226.0625,713.8906 225.1875,713.8906 C222.5625,713.8906 220.5625,715.9688 220.5625,718.6875 L220.5625,719.8125 C220.5625,722.3906 222.6719,724.2813 225.5625,724.2813 C226.7813,724.2813 227.9375,723.9844 228.6875,723.4375 C229.2656,723.0313 229.5938,722.5781 229.5938,722.1875 C229.5938,721.7344 229.2031,721.3438 228.7344,721.3438 C228.5156,721.3438 228.3125,721.4219 228.125,721.6094 C227.6719,722.0938 227.6719,722.0938 227.4844,722.1875 C227.0625,722.4531 226.375,722.5781 225.6094,722.5781 C223.5625,722.5781 222.2656,721.4844 222.2656,719.7813 L222.2656,718.6875 C222.2656,716.9063 223.5156,715.5938 225.25,715.5938 C225.8281,715.5938 226.4375,715.75 226.9063,716 C227.3906,716.2813 227.5625,716.5 227.6563,716.9063 C227.7188,717.3125 227.75,717.4375 227.8906,717.5625 C228.0313,717.7031 228.2656,717.8125 228.4844,717.8125 C228.75,717.8125 229.0156,717.6719 229.1875,717.4531 C229.2969,717.2969 229.3281,717.1094 229.3281,716.6875 L229.3281,715.2656 C229.3281,714.8281 229.3125,714.7031 229.2188,714.5469 C229.0625,714.2813 228.7813,714.1406 228.4844,714.1406 C228.1875,714.1406 227.9844,714.2344 227.7656,714.5469 L227.5938,714.4688 Z " fill="#000000"/><text fill="#000000" font-family="sans-serif" font-size="14" lengthAdjust="spacing" textLength="176" x="245.75" y="723.6436">CustomerSecurityConfig</text><line style="stroke:#A80036;stroke-width:1.0;" x1="33" x2="602" y1="734.7969" y2="734.7969"/><rect fill="none" height="6" style="stroke:#C82930;stroke-width:1.0;" width="6" x="40" y="745.4453"/><text fill="#000000" font-family="sans-serif" font-size="14" lengthAdjust="spacing" textLength="388" x="52" y="751.792">customerDetailsService : CustomerUserDetailsService</text><line style="stroke:#A80036;stroke-width:1.0;" x1="33" x2="602" y1="759.0938" y2="759.0938"/><ellipse cx="43" cy="772.7422" fill="#84BE84" rx="3" ry="3" style="stroke:#038048;stroke-width:1.0;"/><text fill="#000000" font-family="sans-serif" font-size="14" lengthAdjust="spacing" textLength="274" x="52" y="776.0889">passwordEncoder() : PasswordEncoder</text><ellipse cx="43" cy="789.0391" fill="#84BE84" rx="3" ry="3" style="stroke:#038048;stroke-width:1.0;"/><text fill="#000000" font-family="sans-serif" font-size="14" lengthAdjust="spacing" textLength="545" x="52" y="792.3857">configureAuthenticationManager(AuthenticationManagerBuilder auth) : void</text><ellipse cx="43" cy="805.3359" fill="#84BE84" rx="3" ry="3" style="stroke:#038048;stroke-width:1.0;"/><text fill="#000000" font-family="sans-serif" font-size="14" lengthAdjust="spacing" textLength="247" x="52" y="808.6826">configure(WebSecurity web) : void</text><ellipse cx="43" cy="821.6328" fill="#84BE84" rx="3" ry="3" style="stroke:#038048;stroke-width:1.0;"/><text fill="#000000" font-family="sans-serif" font-size="14" lengthAdjust="spacing" textLength="251" x="52" y="824.9795">configure(HttpSecurity http) : void</text></g><!--link EmployeeAccountSecurityConfig to EmployeeAccountUserDetailsService--><g id="link_EmployeeAccountSecurityConfig_EmployeeAccountUserDetailsService"><path codeLine="54" d="M603.051,373.2969 C629.726,373.2969 656.554,373.2969 682.684,373.2969 " fill="none" id="EmployeeAccountSecurityConfig-to-EmployeeAccountUserDetailsService" style="stroke:#A80036;stroke-width:1.0;"/><polygon fill="#A80036" points="687.901,373.2969,678.901,369.2969,682.901,373.2969,678.901,377.2969,687.901,373.2969" style="stroke:#A80036;stroke-width:1.0;"/><text fill="#000000" font-family="sans-serif" font-size="13" lengthAdjust="spacing" textLength="23" x="634" y="369.3638">use</text></g><!--link CustomerSecurityConfig to CustomerUserDetailsService--><g id="link_CustomerSecurityConfig_CustomerUserDetailsService"><path codeLine="55" d="M603.051,767.2969 C640.215,767.2969 677.676,767.2969 713.133,767.2969 " fill="none" id="CustomerSecurityConfig-to-CustomerUserDetailsService" style="stroke:#A80036;stroke-width:1.0;"/><polygon fill="#A80036" points="718.349,767.2969,709.349,763.2969,713.349,767.2969,709.349,771.2969,718.349,767.2969" style="stroke:#A80036;stroke-width:1.0;"/><text fill="#000000" font-family="sans-serif" font-size="13" lengthAdjust="spacing" textLength="23" x="634" y="763.3638">use</text></g><!--SRC=[xLH1Rjim4Bph5NkhWy8V28eKYMgaXxO8QXGzKzJQ8ann1N8LHoXoYL_Gf_JMGt-ZZvII9KUAPCMd8WZAayGT3dTdT-Wsoe0bXu7pNvcm8WMNY9YsognX9RIFQ5mnC85LwuGXLXObAp91ec84J3Ck8CKqGki2LgmH7ChSAYxAtSzojoiVVfMxF-N3xo0JSYFMZ_4V0VWbjN0E5cccgK2yb99omzySsW_8GcctHrLh3c8VXVEd-2ucvuGyFJeF2qdhVRhlhgqmZF5b4ouk3cVUmXgvtLVePcVza-y1xnXDxE0PZXjVoPPiN1CisNeD-u2gB2DI70SerrJpXSpYBlD2xvaY8et2745-8hcP08QU1GqhtyeJQ1T6H7eaVdzIgvPeRvN4RiUm3_wA6Jd5P8jX3nzZdPGqYRYwuQeuQBVN3VBclqgraqFmPhIjnUp9RUqidPqo9HFbBvjX3icir7faMFlQ3CiUwjSfFsicQc4anMZhljpqzpfeMUUGMwpIhvekHLNKPs6yxUniTFSgLzgprBQfs6z9nMEKi-yOjRN25gD9x4Vcx01E_4yFtLKpp1rJYlPKtxVu_uR_TuPlDPzskcnGFOk7WyqNxUqstUEcRgiSkFguIA_VplV1vAC8y_d5ywyUdFkk1-CTg1cEArmV_Gi0]--></g></svg>