<?xml version="1.0" encoding="us-ascii" standalone="no"?><svg xmlns="http://www.w3.org/2000/svg" xmlns:xlink="http://www.w3.org/1999/xlink" contentStyleType="text/css" height="612px" preserveAspectRatio="none" style="width:1029px;height:612px;background:#FFFFFF;" version="1.1" viewBox="0 0 1029 612" width="1029px" zoomAndPan="magnify"><defs/><g><text fill="#000000" font-family="sans-serif" font-size="14" font-weight="bold" lengthAdjust="spacing" textLength="114" x="450.5" y="22.9951">form&#12497;&#12483;&#12465;&#12540;&#12472;</text><!--cluster form--><g id="cluster_form"><polygon fill="none" points="16,43.2969,61,43.2969,68,65.5938,1012,65.5938,1012,605.2969,16,605.2969,16,43.2969" style="stroke:#000000;stroke-width:1.5;"/><line style="stroke:#000000;stroke-width:1.5;" x1="16" x2="68" y1="65.5938" y2="65.5938"/><text fill="#000000" font-family="sans-serif" font-size="14" font-weight="bold" lengthAdjust="spacing" textLength="39" x="20" y="58.292">form</text></g><!--class LoginForm--><g id="elem_LoginForm"><rect codeLine="7" fill="#FEFECE" height="72.5938" id="LoginForm" style="stroke:#A80036;stroke-width:1.0;" width="150" x="123.5" y="515.7969"/><ellipse cx="157.4" cy="531.7969" fill="#ADD1B2" rx="11" ry="11" style="stroke:#A80036;stroke-width:1.0;"/><path d="M159.7438,527.4688 C158.8063,527.0313 158.2125,526.8906 157.3375,526.8906 C154.7125,526.8906 152.7125,528.9688 152.7125,531.6875 L152.7125,532.8125 C152.7125,535.3906 154.8219,537.2813 157.7125,537.2813 C158.9313,537.2813 160.0875,536.9844 160.8375,536.4375 C161.4156,536.0313 161.7438,535.5781 161.7438,535.1875 C161.7438,534.7344 161.3531,534.3438 160.8844,534.3438 C160.6656,534.3438 160.4625,534.4219 160.275,534.6094 C159.8219,535.0938 159.8219,535.0938 159.6344,535.1875 C159.2125,535.4531 158.525,535.5781 157.7594,535.5781 C155.7125,535.5781 154.4156,534.4844 154.4156,532.7813 L154.4156,531.6875 C154.4156,529.9063 155.6656,528.5938 157.4,528.5938 C157.9781,528.5938 158.5875,528.75 159.0563,529 C159.5406,529.2813 159.7125,529.5 159.8063,529.9063 C159.8688,530.3125 159.9,530.4375 160.0406,530.5625 C160.1813,530.7031 160.4156,530.8125 160.6344,530.8125 C160.9,530.8125 161.1656,530.6719 161.3375,530.4531 C161.4469,530.2969 161.4781,530.1094 161.4781,529.6875 L161.4781,528.2656 C161.4781,527.8281 161.4625,527.7031 161.3688,527.5469 C161.2125,527.2813 160.9313,527.1406 160.6344,527.1406 C160.3375,527.1406 160.1344,527.2344 159.9156,527.5469 L159.7438,527.4688 Z " fill="#000000"/><text fill="#000000" font-family="sans-serif" font-size="14" lengthAdjust="spacing" textLength="76" x="175.6" y="536.6436">LoginForm</text><line style="stroke:#A80036;stroke-width:1.0;" x1="124.5" x2="272.5" y1="547.7969" y2="547.7969"/><rect fill="none" height="6" style="stroke:#C82930;stroke-width:1.0;" width="6" x="131.5" y="558.4453"/><text fill="#000000" font-family="sans-serif" font-size="14" lengthAdjust="spacing" textLength="97" x="143.5" y="564.792">name : String</text><rect fill="none" height="6" style="stroke:#C82930;stroke-width:1.0;" width="6" x="131.5" y="574.7422"/><text fill="#000000" font-family="sans-serif" font-size="14" lengthAdjust="spacing" textLength="124" x="143.5" y="581.0889">password : String</text></g><!--class ProductForm--><g id="elem_ProductForm"><rect codeLine="11" fill="#FEFECE" height="121.4844" id="ProductForm" style="stroke:#A80036;stroke-width:1.0;" width="228" x="84.5" y="359.7969"/><ellipse cx="147.75" cy="375.7969" fill="#ADD1B2" rx="11" ry="11" style="stroke:#A80036;stroke-width:1.0;"/><path d="M150.0938,371.4688 C149.1563,371.0313 148.5625,370.8906 147.6875,370.8906 C145.0625,370.8906 143.0625,372.9688 143.0625,375.6875 L143.0625,376.8125 C143.0625,379.3906 145.1719,381.2813 148.0625,381.2813 C149.2813,381.2813 150.4375,380.9844 151.1875,380.4375 C151.7656,380.0313 152.0938,379.5781 152.0938,379.1875 C152.0938,378.7344 151.7031,378.3438 151.2344,378.3438 C151.0156,378.3438 150.8125,378.4219 150.625,378.6094 C150.1719,379.0938 150.1719,379.0938 149.9844,379.1875 C149.5625,379.4531 148.875,379.5781 148.1094,379.5781 C146.0625,379.5781 144.7656,378.4844 144.7656,376.7813 L144.7656,375.6875 C144.7656,373.9063 146.0156,372.5938 147.75,372.5938 C148.3281,372.5938 148.9375,372.75 149.4063,373 C149.8906,373.2813 150.0625,373.5 150.1563,373.9063 C150.2188,374.3125 150.25,374.4375 150.3906,374.5625 C150.5313,374.7031 150.7656,374.8125 150.9844,374.8125 C151.25,374.8125 151.5156,374.6719 151.6875,374.4531 C151.7969,374.2969 151.8281,374.1094 151.8281,373.6875 L151.8281,372.2656 C151.8281,371.8281 151.8125,371.7031 151.7188,371.5469 C151.5625,371.2813 151.2813,371.1406 150.9844,371.1406 C150.6875,371.1406 150.4844,371.2344 150.2656,371.5469 L150.0938,371.4688 Z " fill="#000000"/><text fill="#000000" font-family="sans-serif" font-size="14" lengthAdjust="spacing" textLength="93" x="168.25" y="380.6436">ProductForm</text><line style="stroke:#A80036;stroke-width:1.0;" x1="85.5" x2="311.5" y1="391.7969" y2="391.7969"/><rect fill="none" height="6" style="stroke:#C82930;stroke-width:1.0;" width="6" x="92.5" y="402.4453"/><text fill="#000000" font-family="sans-serif" font-size="14" lengthAdjust="spacing" textLength="97" x="104.5" y="408.792">name : String</text><rect fill="none" height="6" style="stroke:#C82930;stroke-width:1.0;" width="6" x="92.5" y="418.7422"/><text fill="#000000" font-family="sans-serif" font-size="14" lengthAdjust="spacing" textLength="103" x="104.5" y="425.0889">price : Integer</text><rect fill="none" height="6" style="stroke:#C82930;stroke-width:1.0;" width="6" x="92.5" y="435.0391"/><text fill="#000000" font-family="sans-serif" font-size="14" lengthAdjust="spacing" textLength="106" x="104.5" y="441.3857">stock : Integer</text><rect fill="none" height="6" style="stroke:#C82930;stroke-width:1.0;" width="6" x="92.5" y="451.3359"/><text fill="#000000" font-family="sans-serif" font-size="14" lengthAdjust="spacing" textLength="202" x="104.5" y="457.6826">productCategoryId : Integer</text><rect fill="none" height="6" style="stroke:#C82930;stroke-width:1.0;" width="6" x="92.5" y="467.6328"/><text fill="#000000" font-family="sans-serif" font-size="14" lengthAdjust="spacing" textLength="148" x="104.5" y="473.9795">image : MultipartFile</text></g><!--class ProductFormValidator--><g id="elem_ProductFormValidator"><rect codeLine="18" fill="#FEFECE" height="72.5938" id="ProductFormValidator" style="stroke:#A80036;stroke-width:1.0;" width="333" x="32" y="251.7969"/><ellipse cx="115.25" cy="267.7969" fill="#ADD1B2" rx="11" ry="11" style="stroke:#A80036;stroke-width:1.0;"/><path d="M117.5938,263.4688 C116.6563,263.0313 116.0625,262.8906 115.1875,262.8906 C112.5625,262.8906 110.5625,264.9688 110.5625,267.6875 L110.5625,268.8125 C110.5625,271.3906 112.6719,273.2813 115.5625,273.2813 C116.7813,273.2813 117.9375,272.9844 118.6875,272.4375 C119.2656,272.0313 119.5938,271.5781 119.5938,271.1875 C119.5938,270.7344 119.2031,270.3438 118.7344,270.3438 C118.5156,270.3438 118.3125,270.4219 118.125,270.6094 C117.6719,271.0938 117.6719,271.0938 117.4844,271.1875 C117.0625,271.4531 116.375,271.5781 115.6094,271.5781 C113.5625,271.5781 112.2656,270.4844 112.2656,268.7813 L112.2656,267.6875 C112.2656,265.9063 113.5156,264.5938 115.25,264.5938 C115.8281,264.5938 116.4375,264.75 116.9063,265 C117.3906,265.2813 117.5625,265.5 117.6563,265.9063 C117.7188,266.3125 117.75,266.4375 117.8906,266.5625 C118.0313,266.7031 118.2656,266.8125 118.4844,266.8125 C118.75,266.8125 119.0156,266.6719 119.1875,266.4531 C119.2969,266.2969 119.3281,266.1094 119.3281,265.6875 L119.3281,264.2656 C119.3281,263.8281 119.3125,263.7031 119.2188,263.5469 C119.0625,263.2813 118.7813,263.1406 118.4844,263.1406 C118.1875,263.1406 117.9844,263.2344 117.7656,263.5469 L117.5938,263.4688 Z " fill="#000000"/><text fill="#000000" font-family="sans-serif" font-size="14" lengthAdjust="spacing" textLength="158" x="135.75" y="272.6436">ProductFormValidator</text><line style="stroke:#A80036;stroke-width:1.0;" x1="33" x2="364" y1="283.7969" y2="283.7969"/><ellipse cx="43" cy="297.4453" fill="#84BE84" rx="3" ry="3" style="stroke:#038048;stroke-width:1.0;"/><text fill="#000000" font-family="sans-serif" font-size="14" lengthAdjust="spacing" textLength="250" x="52" y="300.792">supports(Class&lt;?&gt; clazz) : boolean</text><ellipse cx="43" cy="313.7422" fill="#84BE84" rx="3" ry="3" style="stroke:#038048;stroke-width:1.0;"/><text fill="#000000" font-family="sans-serif" font-size="14" lengthAdjust="spacing" textLength="307" x="52" y="317.0889">validate(Object target, Errors errors) : void</text></g><!--class ProductCategoryForm--><g id="elem_ProductCategoryForm"><rect codeLine="22" fill="#FEFECE" height="56.2969" id="ProductCategoryForm" style="stroke:#A80036;stroke-width:1.0;" width="191" x="103" y="160.2969"/><ellipse cx="118" cy="176.2969" fill="#ADD1B2" rx="11" ry="11" style="stroke:#A80036;stroke-width:1.0;"/><path d="M120.3438,171.9688 C119.4063,171.5313 118.8125,171.3906 117.9375,171.3906 C115.3125,171.3906 113.3125,173.4688 113.3125,176.1875 L113.3125,177.3125 C113.3125,179.8906 115.4219,181.7813 118.3125,181.7813 C119.5313,181.7813 120.6875,181.4844 121.4375,180.9375 C122.0156,180.5313 122.3438,180.0781 122.3438,179.6875 C122.3438,179.2344 121.9531,178.8438 121.4844,178.8438 C121.2656,178.8438 121.0625,178.9219 120.875,179.1094 C120.4219,179.5938 120.4219,179.5938 120.2344,179.6875 C119.8125,179.9531 119.125,180.0781 118.3594,180.0781 C116.3125,180.0781 115.0156,178.9844 115.0156,177.2813 L115.0156,176.1875 C115.0156,174.4063 116.2656,173.0938 118,173.0938 C118.5781,173.0938 119.1875,173.25 119.6563,173.5 C120.1406,173.7813 120.3125,174 120.4063,174.4063 C120.4688,174.8125 120.5,174.9375 120.6406,175.0625 C120.7813,175.2031 121.0156,175.3125 121.2344,175.3125 C121.5,175.3125 121.7656,175.1719 121.9375,174.9531 C122.0469,174.7969 122.0781,174.6094 122.0781,174.1875 L122.0781,172.7656 C122.0781,172.3281 122.0625,172.2031 121.9688,172.0469 C121.8125,171.7813 121.5313,171.6406 121.2344,171.6406 C120.9375,171.6406 120.7344,171.7344 120.5156,172.0469 L120.3438,171.9688 Z " fill="#000000"/><text fill="#000000" font-family="sans-serif" font-size="14" lengthAdjust="spacing" textLength="159" x="132" y="181.1436">ProductCategoryForm</text><line style="stroke:#A80036;stroke-width:1.0;" x1="104" x2="293" y1="192.2969" y2="192.2969"/><rect fill="none" height="6" style="stroke:#C82930;stroke-width:1.0;" width="6" x="111" y="202.9453"/><text fill="#000000" font-family="sans-serif" font-size="14" lengthAdjust="spacing" textLength="97" x="123" y="209.292">name : String</text></g><!--class ProductCategoryFormValidator--><g id="elem_ProductCategoryFormValidator"><rect codeLine="25" fill="#FEFECE" height="72.5938" id="ProductCategoryFormValidator" style="stroke:#A80036;stroke-width:1.0;" width="333" x="425" y="515.7969"/><ellipse cx="475.25" cy="531.7969" fill="#ADD1B2" rx="11" ry="11" style="stroke:#A80036;stroke-width:1.0;"/><path d="M477.5938,527.4688 C476.6563,527.0313 476.0625,526.8906 475.1875,526.8906 C472.5625,526.8906 470.5625,528.9688 470.5625,531.6875 L470.5625,532.8125 C470.5625,535.3906 472.6719,537.2813 475.5625,537.2813 C476.7813,537.2813 477.9375,536.9844 478.6875,536.4375 C479.2656,536.0313 479.5938,535.5781 479.5938,535.1875 C479.5938,534.7344 479.2031,534.3438 478.7344,534.3438 C478.5156,534.3438 478.3125,534.4219 478.125,534.6094 C477.6719,535.0938 477.6719,535.0938 477.4844,535.1875 C477.0625,535.4531 476.375,535.5781 475.6094,535.5781 C473.5625,535.5781 472.2656,534.4844 472.2656,532.7813 L472.2656,531.6875 C472.2656,529.9063 473.5156,528.5938 475.25,528.5938 C475.8281,528.5938 476.4375,528.75 476.9063,529 C477.3906,529.2813 477.5625,529.5 477.6563,529.9063 C477.7188,530.3125 477.75,530.4375 477.8906,530.5625 C478.0313,530.7031 478.2656,530.8125 478.4844,530.8125 C478.75,530.8125 479.0156,530.6719 479.1875,530.4531 C479.2969,530.2969 479.3281,530.1094 479.3281,529.6875 L479.3281,528.2656 C479.3281,527.8281 479.3125,527.7031 479.2188,527.5469 C479.0625,527.2813 478.7813,527.1406 478.4844,527.1406 C478.1875,527.1406 477.9844,527.2344 477.7656,527.5469 L477.5938,527.4688 Z " fill="#000000"/><text fill="#000000" font-family="sans-serif" font-size="14" lengthAdjust="spacing" textLength="224" x="495.75" y="536.6436">ProductCategoryFormValidator</text><line style="stroke:#A80036;stroke-width:1.0;" x1="426" x2="757" y1="547.7969" y2="547.7969"/><ellipse cx="436" cy="561.4453" fill="#84BE84" rx="3" ry="3" style="stroke:#038048;stroke-width:1.0;"/><text fill="#000000" font-family="sans-serif" font-size="14" lengthAdjust="spacing" textLength="250" x="445" y="564.792">supports(Class&lt;?&gt; clazz) : boolean</text><ellipse cx="436" cy="577.7422" fill="#84BE84" rx="3" ry="3" style="stroke:#038048;stroke-width:1.0;"/><text fill="#000000" font-family="sans-serif" font-size="14" lengthAdjust="spacing" textLength="307" x="445" y="581.0889">validate(Object target, Errors errors) : void</text></g><!--class EmployeeAccountForm--><g id="elem_EmployeeAccountForm"><rect codeLine="29" fill="#FEFECE" height="88.8906" id="EmployeeAccountForm" style="stroke:#A80036;stroke-width:1.0;" width="200" x="491.5" y="391.7969"/><ellipse cx="506.5" cy="407.7969" fill="#ADD1B2" rx="11" ry="11" style="stroke:#A80036;stroke-width:1.0;"/><path d="M508.8438,403.4688 C507.9063,403.0313 507.3125,402.8906 506.4375,402.8906 C503.8125,402.8906 501.8125,404.9688 501.8125,407.6875 L501.8125,408.8125 C501.8125,411.3906 503.9219,413.2813 506.8125,413.2813 C508.0313,413.2813 509.1875,412.9844 509.9375,412.4375 C510.5156,412.0313 510.8438,411.5781 510.8438,411.1875 C510.8438,410.7344 510.4531,410.3438 509.9844,410.3438 C509.7656,410.3438 509.5625,410.4219 509.375,410.6094 C508.9219,411.0938 508.9219,411.0938 508.7344,411.1875 C508.3125,411.4531 507.625,411.5781 506.8594,411.5781 C504.8125,411.5781 503.5156,410.4844 503.5156,408.7813 L503.5156,407.6875 C503.5156,405.9063 504.7656,404.5938 506.5,404.5938 C507.0781,404.5938 507.6875,404.75 508.1563,405 C508.6406,405.2813 508.8125,405.5 508.9063,405.9063 C508.9688,406.3125 509,406.4375 509.1406,406.5625 C509.2813,406.7031 509.5156,406.8125 509.7344,406.8125 C510,406.8125 510.2656,406.6719 510.4375,406.4531 C510.5469,406.2969 510.5781,406.1094 510.5781,405.6875 L510.5781,404.2656 C510.5781,403.8281 510.5625,403.7031 510.4688,403.5469 C510.3125,403.2813 510.0313,403.1406 509.7344,403.1406 C509.4375,403.1406 509.2344,403.2344 509.0156,403.5469 L508.8438,403.4688 Z " fill="#000000"/><text fill="#000000" font-family="sans-serif" font-size="14" lengthAdjust="spacing" textLength="168" x="520.5" y="412.6436">EmployeeAccountForm</text><line style="stroke:#A80036;stroke-width:1.0;" x1="492.5" x2="690.5" y1="423.7969" y2="423.7969"/><rect fill="none" height="6" style="stroke:#C82930;stroke-width:1.0;" width="6" x="499.5" y="434.4453"/><text fill="#000000" font-family="sans-serif" font-size="14" lengthAdjust="spacing" textLength="151" x="511.5" y="440.792">employeeId : Integer</text><rect fill="none" height="6" style="stroke:#C82930;stroke-width:1.0;" width="6" x="499.5" y="450.7422"/><text fill="#000000" font-family="sans-serif" font-size="14" lengthAdjust="spacing" textLength="128" x="511.5" y="457.0889">userName : String</text><rect fill="none" height="6" style="stroke:#C82930;stroke-width:1.0;" width="6" x="499.5" y="467.0391"/><text fill="#000000" font-family="sans-serif" font-size="14" lengthAdjust="spacing" textLength="124" x="511.5" y="473.3857">password : String</text></g><!--class EmployeeAccountFormValidator--><g id="elem_EmployeeAccountFormValidator"><rect codeLine="34" fill="#FEFECE" height="72.5938" id="EmployeeAccountFormValidator" style="stroke:#A80036;stroke-width:1.0;" width="333" x="425" y="283.7969"/><ellipse cx="470.75" cy="299.7969" fill="#ADD1B2" rx="11" ry="11" style="stroke:#A80036;stroke-width:1.0;"/><path d="M473.0938,295.4688 C472.1563,295.0313 471.5625,294.8906 470.6875,294.8906 C468.0625,294.8906 466.0625,296.9688 466.0625,299.6875 L466.0625,300.8125 C466.0625,303.3906 468.1719,305.2813 471.0625,305.2813 C472.2813,305.2813 473.4375,304.9844 474.1875,304.4375 C474.7656,304.0313 475.0938,303.5781 475.0938,303.1875 C475.0938,302.7344 474.7031,302.3438 474.2344,302.3438 C474.0156,302.3438 473.8125,302.4219 473.625,302.6094 C473.1719,303.0938 473.1719,303.0938 472.9844,303.1875 C472.5625,303.4531 471.875,303.5781 471.1094,303.5781 C469.0625,303.5781 467.7656,302.4844 467.7656,300.7813 L467.7656,299.6875 C467.7656,297.9063 469.0156,296.5938 470.75,296.5938 C471.3281,296.5938 471.9375,296.75 472.4063,297 C472.8906,297.2813 473.0625,297.5 473.1563,297.9063 C473.2188,298.3125 473.25,298.4375 473.3906,298.5625 C473.5313,298.7031 473.7656,298.8125 473.9844,298.8125 C474.25,298.8125 474.5156,298.6719 474.6875,298.4531 C474.7969,298.2969 474.8281,298.1094 474.8281,297.6875 L474.8281,296.2656 C474.8281,295.8281 474.8125,295.7031 474.7188,295.5469 C474.5625,295.2813 474.2813,295.1406 473.9844,295.1406 C473.6875,295.1406 473.4844,295.2344 473.2656,295.5469 L473.0938,295.4688 Z " fill="#000000"/><text fill="#000000" font-family="sans-serif" font-size="14" lengthAdjust="spacing" textLength="233" x="491.25" y="304.6436">EmployeeAccountFormValidator</text><line style="stroke:#A80036;stroke-width:1.0;" x1="426" x2="757" y1="315.7969" y2="315.7969"/><ellipse cx="436" cy="329.4453" fill="#84BE84" rx="3" ry="3" style="stroke:#038048;stroke-width:1.0;"/><text fill="#000000" font-family="sans-serif" font-size="14" lengthAdjust="spacing" textLength="250" x="445" y="332.792">supports(Class&lt;?&gt; clazz) : boolean</text><ellipse cx="436" cy="345.7422" fill="#84BE84" rx="3" ry="3" style="stroke:#038048;stroke-width:1.0;"/><text fill="#000000" font-family="sans-serif" font-size="14" lengthAdjust="spacing" textLength="307" x="445" y="349.0889">validate(Object target, Errors errors) : void</text></g><!--class CustomerResigterForm--><g id="elem_CustomerResigterForm"><rect codeLine="38" fill="#FEFECE" height="170.375" id="CustomerResigterForm" style="stroke:#A80036;stroke-width:1.0;" width="200" x="491.5" y="78.2969"/><ellipse cx="506.5" cy="94.2969" fill="#ADD1B2" rx="11" ry="11" style="stroke:#A80036;stroke-width:1.0;"/><path d="M508.8438,89.9688 C507.9063,89.5313 507.3125,89.3906 506.4375,89.3906 C503.8125,89.3906 501.8125,91.4688 501.8125,94.1875 L501.8125,95.3125 C501.8125,97.8906 503.9219,99.7813 506.8125,99.7813 C508.0313,99.7813 509.1875,99.4844 509.9375,98.9375 C510.5156,98.5313 510.8438,98.0781 510.8438,97.6875 C510.8438,97.2344 510.4531,96.8438 509.9844,96.8438 C509.7656,96.8438 509.5625,96.9219 509.375,97.1094 C508.9219,97.5938 508.9219,97.5938 508.7344,97.6875 C508.3125,97.9531 507.625,98.0781 506.8594,98.0781 C504.8125,98.0781 503.5156,96.9844 503.5156,95.2813 L503.5156,94.1875 C503.5156,92.4063 504.7656,91.0938 506.5,91.0938 C507.0781,91.0938 507.6875,91.25 508.1563,91.5 C508.6406,91.7813 508.8125,92 508.9063,92.4063 C508.9688,92.8125 509,92.9375 509.1406,93.0625 C509.2813,93.2031 509.5156,93.3125 509.7344,93.3125 C510,93.3125 510.2656,93.1719 510.4375,92.9531 C510.5469,92.7969 510.5781,92.6094 510.5781,92.1875 L510.5781,90.7656 C510.5781,90.3281 510.5625,90.2031 510.4688,90.0469 C510.3125,89.7813 510.0313,89.6406 509.7344,89.6406 C509.4375,89.6406 509.2344,89.7344 509.0156,90.0469 L508.8438,89.9688 Z " fill="#000000"/><text fill="#000000" font-family="sans-serif" font-size="14" lengthAdjust="spacing" textLength="168" x="520.5" y="99.1436">CustomerResigterForm</text><line style="stroke:#A80036;stroke-width:1.0;" x1="492.5" x2="690.5" y1="110.2969" y2="110.2969"/><rect fill="none" height="6" style="stroke:#C82930;stroke-width:1.0;" width="6" x="499.5" y="120.9453"/><text fill="#000000" font-family="sans-serif" font-size="14" lengthAdjust="spacing" textLength="97" x="511.5" y="127.292">name : String</text><rect fill="none" height="6" style="stroke:#C82930;stroke-width:1.0;" width="6" x="499.5" y="137.2422"/><text fill="#000000" font-family="sans-serif" font-size="14" lengthAdjust="spacing" textLength="132" x="511.5" y="143.5889">nameKana : String</text><rect fill="none" height="6" style="stroke:#C82930;stroke-width:1.0;" width="6" x="499.5" y="153.5391"/><text fill="#000000" font-family="sans-serif" font-size="14" lengthAdjust="spacing" textLength="121" x="511.5" y="159.8857">address1 : String</text><rect fill="none" height="6" style="stroke:#C82930;stroke-width:1.0;" width="6" x="499.5" y="169.8359"/><text fill="#000000" font-family="sans-serif" font-size="14" lengthAdjust="spacing" textLength="120" x="511.5" y="176.1826">address2 : String</text><rect fill="none" height="6" style="stroke:#C82930;stroke-width:1.0;" width="6" x="499.5" y="186.1328"/><text fill="#000000" font-family="sans-serif" font-size="14" lengthAdjust="spacing" textLength="160" x="511.5" y="192.4795">phoneNumber : String</text><rect fill="none" height="6" style="stroke:#C82930;stroke-width:1.0;" width="6" x="499.5" y="202.4297"/><text fill="#000000" font-family="sans-serif" font-size="14" lengthAdjust="spacing" textLength="144" x="511.5" y="208.7764">mailAddress : String</text><rect fill="none" height="6" style="stroke:#C82930;stroke-width:1.0;" width="6" x="499.5" y="218.7266"/><text fill="#000000" font-family="sans-serif" font-size="14" lengthAdjust="spacing" textLength="127" x="511.5" y="225.0732">username : String</text><rect fill="none" height="6" style="stroke:#C82930;stroke-width:1.0;" width="6" x="499.5" y="235.0234"/><text fill="#000000" font-family="sans-serif" font-size="14" lengthAdjust="spacing" textLength="124" x="511.5" y="241.3701">password : String</text></g><!--class CustomerLoginForm--><g id="elem_CustomerLoginForm"><rect codeLine="48" fill="#FEFECE" height="72.5938" id="CustomerLoginForm" style="stroke:#A80036;stroke-width:1.0;" width="178" x="818" y="515.7969"/><ellipse cx="833" cy="531.7969" fill="#ADD1B2" rx="11" ry="11" style="stroke:#A80036;stroke-width:1.0;"/><path d="M835.3438,527.4688 C834.4063,527.0313 833.8125,526.8906 832.9375,526.8906 C830.3125,526.8906 828.3125,528.9688 828.3125,531.6875 L828.3125,532.8125 C828.3125,535.3906 830.4219,537.2813 833.3125,537.2813 C834.5313,537.2813 835.6875,536.9844 836.4375,536.4375 C837.0156,536.0313 837.3438,535.5781 837.3438,535.1875 C837.3438,534.7344 836.9531,534.3438 836.4844,534.3438 C836.2656,534.3438 836.0625,534.4219 835.875,534.6094 C835.4219,535.0938 835.4219,535.0938 835.2344,535.1875 C834.8125,535.4531 834.125,535.5781 833.3594,535.5781 C831.3125,535.5781 830.0156,534.4844 830.0156,532.7813 L830.0156,531.6875 C830.0156,529.9063 831.2656,528.5938 833,528.5938 C833.5781,528.5938 834.1875,528.75 834.6563,529 C835.1406,529.2813 835.3125,529.5 835.4063,529.9063 C835.4688,530.3125 835.5,530.4375 835.6406,530.5625 C835.7813,530.7031 836.0156,530.8125 836.2344,530.8125 C836.5,530.8125 836.7656,530.6719 836.9375,530.4531 C837.0469,530.2969 837.0781,530.1094 837.0781,529.6875 L837.0781,528.2656 C837.0781,527.8281 837.0625,527.7031 836.9688,527.5469 C836.8125,527.2813 836.5313,527.1406 836.2344,527.1406 C835.9375,527.1406 835.7344,527.2344 835.5156,527.5469 L835.3438,527.4688 Z " fill="#000000"/><text fill="#000000" font-family="sans-serif" font-size="14" lengthAdjust="spacing" textLength="146" x="847" y="536.6436">CustomerLoginForm</text><line style="stroke:#A80036;stroke-width:1.0;" x1="819" x2="995" y1="547.7969" y2="547.7969"/><rect fill="none" height="6" style="stroke:#C82930;stroke-width:1.0;" width="6" x="826" y="558.4453"/><text fill="#000000" font-family="sans-serif" font-size="14" lengthAdjust="spacing" textLength="97" x="838" y="564.792">name : String</text><rect fill="none" height="6" style="stroke:#C82930;stroke-width:1.0;" width="6" x="826" y="574.7422"/><text fill="#000000" font-family="sans-serif" font-size="14" lengthAdjust="spacing" textLength="124" x="838" y="581.0889">password : String</text></g><!--class OrderForm--><g id="elem_OrderForm"><rect codeLine="52" fill="#FEFECE" height="32" id="OrderForm" style="stroke:#A80036;stroke-width:1.0;" width="110" x="852" y="448.2969"/><ellipse cx="867" cy="464.2969" fill="#ADD1B2" rx="11" ry="11" style="stroke:#A80036;stroke-width:1.0;"/><path d="M869.3438,459.9688 C868.4063,459.5313 867.8125,459.3906 866.9375,459.3906 C864.3125,459.3906 862.3125,461.4688 862.3125,464.1875 L862.3125,465.3125 C862.3125,467.8906 864.4219,469.7813 867.3125,469.7813 C868.5313,469.7813 869.6875,469.4844 870.4375,468.9375 C871.0156,468.5313 871.3438,468.0781 871.3438,467.6875 C871.3438,467.2344 870.9531,466.8438 870.4844,466.8438 C870.2656,466.8438 870.0625,466.9219 869.875,467.1094 C869.4219,467.5938 869.4219,467.5938 869.2344,467.6875 C868.8125,467.9531 868.125,468.0781 867.3594,468.0781 C865.3125,468.0781 864.0156,466.9844 864.0156,465.2813 L864.0156,464.1875 C864.0156,462.4063 865.2656,461.0938 867,461.0938 C867.5781,461.0938 868.1875,461.25 868.6563,461.5 C869.1406,461.7813 869.3125,462 869.4063,462.4063 C869.4688,462.8125 869.5,462.9375 869.6406,463.0625 C869.7813,463.2031 870.0156,463.3125 870.2344,463.3125 C870.5,463.3125 870.7656,463.1719 870.9375,462.9531 C871.0469,462.7969 871.0781,462.6094 871.0781,462.1875 L871.0781,460.7656 C871.0781,460.3281 871.0625,460.2031 870.9688,460.0469 C870.8125,459.7813 870.5313,459.6406 870.2344,459.6406 C869.9375,459.6406 869.7344,459.7344 869.5156,460.0469 L869.3438,459.9688 Z " fill="#000000"/><text fill="#000000" font-family="sans-serif" font-size="14" lengthAdjust="spacing" textLength="78" x="881" y="469.1436">OrderForm</text></g><!--SRC=[nPJ1RXGn38RlynHMJqN0eHmh1AfMhLG1BGA9ktVYdGsRn2F7qsfRzT9z0Xw56mVUPbw4JAUTphRfjW84kSp4dsCxVnB7XGqW7Ac8wQz6GGznZePFRQXWXYuHHpC5PH1RpHMC5IhLSYZcrX2GhtK9dloK91PgrH7CM7ox-jQkLktbztRrixtyKTHOBh3g6PmNa4RfC4ROUi-L3GV9l0KOOPZrFjru2G4zmIvyLabLZUnr2d3AOjRPnJZwHs7Jb3h47ysVb45isO73e5IHZ4XKBXTPKlSf9fW0o_BGPBsix-JOXG-DKvk4rmFhQ6FzNz1PWyfoToC3kDtHSuXDNRDet9vqWLw_VTD5F3jxbb9EcHrXW97tIH-2je-dNzFnWg9Kf2zWNuGb0brzkhKdR0qyMERDdk_AFRPlblsng5aHiWx_I8pxLU_xsl6IQAyikGctLozZ7sj1r_Y1-z94agFVVmUPvEjIRdBuV_TgqgHtvaa-KRILaWnYvi1J7dHdVuS1SmoD4OfnPmDxbPL_pe6Ecgu5vh17w_RwvJdS7UmVDBWR8TRRw3thNsgdns96Xp3CpgyzBtu1]--></g></svg>