<svg xmlns="http://www.w3.org/2000/svg" xmlns:xlink="http://www.w3.org/1999/xlink" contentStyleType="text/css" height="610px" preserveAspectRatio="none" style="width:1011px;height:610px;background:#FFFFFF;" version="1.1" viewBox="0 0 1011 610" width="1011px" zoomAndPan="magnify"><defs/><g><text fill="#000000" font-family="sans-serif" font-size="14" font-weight="bold" lengthAdjust="spacing" textLength="107.2009" x="445.2196" y="22.9951">form&#12497;&#12483;&#12465;&#12540;&#12472;</text><!--cluster form--><g id="cluster_form"><polygon fill="none" points="16,43.2969,54.8877,43.2969,61.8877,65.5938,994.64,65.5938,994.64,603.2969,16,603.2969,16,43.2969" style="stroke:#000000;stroke-width:1.5;"/><line style="stroke:#000000;stroke-width:1.5;" x1="16" x2="61.8877" y1="65.5938" y2="65.5938"/><text fill="#000000" font-family="sans-serif" font-size="14" lengthAdjust="spacing" textLength="32.8877" x="20" y="58.292">form</text></g><!--class LoginForm--><g id="elem_LoginForm"><rect codeLine="7" fill="#FEFECE" height="72.5938" id="LoginForm" style="stroke:#A80036;stroke-width:1.0;" width="148.1104" x="121.1" y="514.9969"/><ellipse cx="155.0378" cy="530.9969" fill="#ADD1B2" rx="11" ry="11" style="stroke:#A80036;stroke-width:1.0;"/><path d="M158.0065,536.6375 Q157.4284,536.9344 156.7878,537.075 Q156.1472,537.2313 155.444,537.2313 Q152.944,537.2313 151.6159,535.5906 Q150.3034,533.9344 150.3034,530.8094 Q150.3034,527.6844 151.6159,526.0281 Q152.944,524.3719 155.444,524.3719 Q156.1472,524.3719 156.7878,524.5281 Q157.444,524.6844 158.0065,524.9813 L158.0065,527.7 Q157.3815,527.1219 156.7878,526.8563 Q156.194,526.575 155.569,526.575 Q154.2253,526.575 153.5378,527.6531 Q152.8503,528.7156 152.8503,530.8094 Q152.8503,532.9031 153.5378,533.9813 Q154.2253,535.0438 155.569,535.0438 Q156.194,535.0438 156.7878,534.7781 Q157.3815,534.4969 158.0065,533.9188 L158.0065,536.6375 Z " fill="#000000"/><text fill="#000000" font-family="sans-serif" font-size="14" lengthAdjust="spacing" textLength="74.0264" x="173.2462" y="535.8436">LoginForm</text><line style="stroke:#A80036;stroke-width:1.0;" x1="122.1" x2="268.2104" y1="546.9969" y2="546.9969"/><rect fill="none" height="6" style="stroke:#C82930;stroke-width:1.0;" width="6" x="129.1" y="557.6453"/><text fill="#000000" font-family="sans-serif" font-size="14" lengthAdjust="spacing" textLength="95.1016" x="141.1" y="563.992">name : String</text><rect fill="none" height="6" style="stroke:#C82930;stroke-width:1.0;" width="6" x="129.1" y="573.9422"/><text fill="#000000" font-family="sans-serif" font-size="14" lengthAdjust="spacing" textLength="122.1104" x="141.1" y="580.2889">password : String</text></g><!--class ProductForm--><g id="elem_ProductForm"><rect codeLine="11" fill="#FEFECE" height="121.4844" id="ProductForm" style="stroke:#A80036;stroke-width:1.0;" width="221.0977" x="84.6" y="358.5569"/><ellipse cx="146.038" cy="374.5569" fill="#ADD1B2" rx="11" ry="11" style="stroke:#A80036;stroke-width:1.0;"/><path d="M149.0067,380.1975 Q148.4286,380.4944 147.788,380.635 Q147.1474,380.7913 146.4442,380.7913 Q143.9442,380.7913 142.6161,379.1506 Q141.3036,377.4944 141.3036,374.3694 Q141.3036,371.2444 142.6161,369.5881 Q143.9442,367.9319 146.4442,367.9319 Q147.1474,367.9319 147.788,368.0881 Q148.4442,368.2444 149.0067,368.5413 L149.0067,371.26 Q148.3817,370.6819 147.788,370.4163 Q147.1942,370.135 146.5692,370.135 Q145.2255,370.135 144.538,371.2131 Q143.8505,372.2756 143.8505,374.3694 Q143.8505,376.4631 144.538,377.5413 Q145.2255,378.6038 146.5692,378.6038 Q147.1942,378.6038 147.788,378.3381 Q148.3817,378.0569 149.0067,377.4788 L149.0067,380.1975 Z " fill="#000000"/><text fill="#000000" font-family="sans-serif" font-size="14" lengthAdjust="spacing" textLength="89.7217" x="166.538" y="379.4036">ProductForm</text><line style="stroke:#A80036;stroke-width:1.0;" x1="85.6" x2="304.6977" y1="390.5569" y2="390.5569"/><rect fill="none" height="6" style="stroke:#C82930;stroke-width:1.0;" width="6" x="92.6" y="401.2053"/><text fill="#000000" font-family="sans-serif" font-size="14" lengthAdjust="spacing" textLength="95.1016" x="104.6" y="407.552">name : String</text><rect fill="none" height="6" style="stroke:#C82930;stroke-width:1.0;" width="6" x="92.6" y="417.5022"/><text fill="#000000" font-family="sans-serif" font-size="14" lengthAdjust="spacing" textLength="98.8203" x="104.6" y="423.8489">price : Integer</text><rect fill="none" height="6" style="stroke:#C82930;stroke-width:1.0;" width="6" x="92.6" y="433.7991"/><text fill="#000000" font-family="sans-serif" font-size="14" lengthAdjust="spacing" textLength="101.1309" x="104.6" y="440.1457">stock : Integer</text><rect fill="none" height="6" style="stroke:#C82930;stroke-width:1.0;" width="6" x="92.6" y="450.0959"/><text fill="#000000" font-family="sans-serif" font-size="14" lengthAdjust="spacing" textLength="195.0977" x="104.6" y="456.4426">productCategoryId : Integer</text><rect fill="none" height="6" style="stroke:#C82930;stroke-width:1.0;" width="6" x="92.6" y="466.3928"/><text fill="#000000" font-family="sans-serif" font-size="14" lengthAdjust="spacing" textLength="144.6006" x="104.6" y="472.7395">image : MultipartFile</text></g><!--class ProductFormValidator--><g id="elem_ProductFormValidator"><rect codeLine="18" fill="#FEFECE" height="72.5938" id="ProductFormValidator" style="stroke:#A80036;stroke-width:1.0;" width="326.3027" x="32" y="250.9969"/><ellipse cx="114.4346" cy="266.9969" fill="#ADD1B2" rx="11" ry="11" style="stroke:#A80036;stroke-width:1.0;"/><path d="M117.4033,272.6375 Q116.8252,272.9344 116.1846,273.075 Q115.5439,273.2313 114.8408,273.2313 Q112.3408,273.2313 111.0127,271.5906 Q109.7002,269.9344 109.7002,266.8094 Q109.7002,263.6844 111.0127,262.0281 Q112.3408,260.3719 114.8408,260.3719 Q115.5439,260.3719 116.1846,260.5281 Q116.8408,260.6844 117.4033,260.9813 L117.4033,263.7 Q116.7783,263.1219 116.1846,262.8563 Q115.5908,262.575 114.9658,262.575 Q113.6221,262.575 112.9346,263.6531 Q112.2471,264.7156 112.2471,266.8094 Q112.2471,268.9031 112.9346,269.9813 Q113.6221,271.0438 114.9658,271.0438 Q115.5908,271.0438 116.1846,270.7781 Q116.7783,270.4969 117.4033,269.9188 L117.4033,272.6375 Z " fill="#000000"/><text fill="#000000" font-family="sans-serif" font-size="14" lengthAdjust="spacing" textLength="152.9336" x="134.9346" y="271.8436">ProductFormValidator</text><line style="stroke:#A80036;stroke-width:1.0;" x1="33" x2="357.3027" y1="282.9969" y2="282.9969"/><ellipse cx="43" cy="296.6453" fill="#84BE84" rx="3" ry="3" style="stroke:#038048;stroke-width:1.0;"/><text fill="#000000" font-family="sans-serif" font-size="14" lengthAdjust="spacing" textLength="248.5957" x="52" y="299.992">supports(Class&lt;?&gt; clazz) : boolean</text><ellipse cx="43" cy="312.9422" fill="#84BE84" rx="3" ry="3" style="stroke:#038048;stroke-width:1.0;"/><text fill="#000000" font-family="sans-serif" font-size="14" lengthAdjust="spacing" textLength="300.3027" x="52" y="316.2889">validate(Object target, Errors errors) : void</text></g><!--class ProductCategoryForm--><g id="elem_ProductCategoryForm"><rect codeLine="22" fill="#FEFECE" height="56.2969" id="ProductCategoryForm" style="stroke:#A80036;stroke-width:1.0;" width="185.6719" x="102.32" y="160.1469"/><ellipse cx="117.32" cy="176.1469" fill="#ADD1B2" rx="11" ry="11" style="stroke:#A80036;stroke-width:1.0;"/><path d="M120.2888,181.7875 Q119.7106,182.0844 119.07,182.225 Q118.4294,182.3813 117.7263,182.3813 Q115.2263,182.3813 113.8981,180.7406 Q112.5856,179.0844 112.5856,175.9594 Q112.5856,172.8344 113.8981,171.1781 Q115.2263,169.5219 117.7263,169.5219 Q118.4294,169.5219 119.07,169.6781 Q119.7263,169.8344 120.2888,170.1313 L120.2888,172.85 Q119.6638,172.2719 119.07,172.0063 Q118.4763,171.725 117.8513,171.725 Q116.5075,171.725 115.82,172.8031 Q115.1325,173.8656 115.1325,175.9594 Q115.1325,178.0531 115.82,179.1313 Q116.5075,180.1938 117.8513,180.1938 Q118.4763,180.1938 119.07,179.9281 Q119.6638,179.6469 120.2888,179.0688 L120.2888,181.7875 Z " fill="#000000"/><text fill="#000000" font-family="sans-serif" font-size="14" lengthAdjust="spacing" textLength="153.6719" x="131.32" y="180.9936">ProductCategoryForm</text><line style="stroke:#A80036;stroke-width:1.0;" x1="103.32" x2="286.9919" y1="192.1469" y2="192.1469"/><rect fill="none" height="6" style="stroke:#C82930;stroke-width:1.0;" width="6" x="110.32" y="202.7953"/><text fill="#000000" font-family="sans-serif" font-size="14" lengthAdjust="spacing" textLength="95.1016" x="122.32" y="209.142">name : String</text></g><!--class ProductCategoryFormValidator--><g id="elem_ProductCategoryFormValidator"><rect codeLine="25" fill="#FEFECE" height="72.5938" id="ProductCategoryFormValidator" style="stroke:#A80036;stroke-width:1.0;" width="326.3027" x="418.3" y="514.9969"/><ellipse cx="468.7595" cy="530.9969" fill="#ADD1B2" rx="11" ry="11" style="stroke:#A80036;stroke-width:1.0;"/><path d="M471.7282,536.6375 Q471.1501,536.9344 470.5095,537.075 Q469.8688,537.2313 469.1657,537.2313 Q466.6657,537.2313 465.3376,535.5906 Q464.0251,533.9344 464.0251,530.8094 Q464.0251,527.6844 465.3376,526.0281 Q466.6657,524.3719 469.1657,524.3719 Q469.8688,524.3719 470.5095,524.5281 Q471.1657,524.6844 471.7282,524.9813 L471.7282,527.7 Q471.1032,527.1219 470.5095,526.8563 Q469.9157,526.575 469.2907,526.575 Q467.947,526.575 467.2595,527.6531 Q466.572,528.7156 466.572,530.8094 Q466.572,532.9031 467.2595,533.9813 Q467.947,535.0438 469.2907,535.0438 Q469.9157,535.0438 470.5095,534.7781 Q471.1032,534.4969 471.7282,533.9188 L471.7282,536.6375 Z " fill="#000000"/><text fill="#000000" font-family="sans-serif" font-size="14" lengthAdjust="spacing" textLength="216.8838" x="489.2595" y="535.8436">ProductCategoryFormValidator</text><line style="stroke:#A80036;stroke-width:1.0;" x1="419.3" x2="743.6027" y1="546.9969" y2="546.9969"/><ellipse cx="429.3" cy="560.6453" fill="#84BE84" rx="3" ry="3" style="stroke:#038048;stroke-width:1.0;"/><text fill="#000000" font-family="sans-serif" font-size="14" lengthAdjust="spacing" textLength="248.5957" x="438.3" y="563.992">supports(Class&lt;?&gt; clazz) : boolean</text><ellipse cx="429.3" cy="576.9422" fill="#84BE84" rx="3" ry="3" style="stroke:#038048;stroke-width:1.0;"/><text fill="#000000" font-family="sans-serif" font-size="14" lengthAdjust="spacing" textLength="300.3027" x="438.3" y="580.2889">validate(Object target, Errors errors) : void</text></g><!--class EmployeeAccountForm--><g id="elem_EmployeeAccountForm"><rect codeLine="29" fill="#FEFECE" height="88.8906" id="EmployeeAccountForm" style="stroke:#A80036;stroke-width:1.0;" width="194.1211" x="484.39" y="390.8469"/><ellipse cx="499.39" cy="406.8469" fill="#ADD1B2" rx="11" ry="11" style="stroke:#A80036;stroke-width:1.0;"/><path d="M502.3588,412.4875 Q501.7806,412.7844 501.14,412.925 Q500.4994,413.0813 499.7963,413.0813 Q497.2963,413.0813 495.9681,411.4406 Q494.6556,409.7844 494.6556,406.6594 Q494.6556,403.5344 495.9681,401.8781 Q497.2963,400.2219 499.7963,400.2219 Q500.4994,400.2219 501.14,400.3781 Q501.7963,400.5344 502.3588,400.8313 L502.3588,403.55 Q501.7338,402.9719 501.14,402.7063 Q500.5463,402.425 499.9213,402.425 Q498.5775,402.425 497.89,403.5031 Q497.2025,404.5656 497.2025,406.6594 Q497.2025,408.7531 497.89,409.8313 Q498.5775,410.8938 499.9213,410.8938 Q500.5463,410.8938 501.14,410.6281 Q501.7338,410.3469 502.3588,409.7688 L502.3588,412.4875 Z " fill="#000000"/><text fill="#000000" font-family="sans-serif" font-size="14" lengthAdjust="spacing" textLength="162.1211" x="513.39" y="411.6936">EmployeeAccountForm</text><line style="stroke:#A80036;stroke-width:1.0;" x1="485.39" x2="677.5111" y1="422.8469" y2="422.8469"/><rect fill="none" height="6" style="stroke:#C82930;stroke-width:1.0;" width="6" x="492.39" y="433.4953"/><text fill="#000000" font-family="sans-serif" font-size="14" lengthAdjust="spacing" textLength="146.0977" x="504.39" y="439.842">employeeId : Integer</text><rect fill="none" height="6" style="stroke:#C82930;stroke-width:1.0;" width="6" x="492.39" y="449.7922"/><text fill="#000000" font-family="sans-serif" font-size="14" lengthAdjust="spacing" textLength="127.2373" x="504.39" y="456.1389">userName : String</text><rect fill="none" height="6" style="stroke:#C82930;stroke-width:1.0;" width="6" x="492.39" y="466.0891"/><text fill="#000000" font-family="sans-serif" font-size="14" lengthAdjust="spacing" textLength="122.1104" x="504.39" y="472.4357">password : String</text></g><!--class EmployeeAccountFormValidator--><g id="elem_EmployeeAccountFormValidator"><rect codeLine="34" fill="#FEFECE" height="72.5938" id="EmployeeAccountFormValidator" style="stroke:#A80036;stroke-width:1.0;" width="326.3027" x="418.3" y="282.9969"/><ellipse cx="464.5349" cy="298.9969" fill="#ADD1B2" rx="11" ry="11" style="stroke:#A80036;stroke-width:1.0;"/><path d="M467.5036,304.6375 Q466.9255,304.9344 466.2849,305.075 Q465.6442,305.2313 464.9411,305.2313 Q462.4411,305.2313 461.113,303.5906 Q459.8005,301.9344 459.8005,298.8094 Q459.8005,295.6844 461.113,294.0281 Q462.4411,292.3719 464.9411,292.3719 Q465.6442,292.3719 466.2849,292.5281 Q466.9411,292.6844 467.5036,292.9813 L467.5036,295.7 Q466.8786,295.1219 466.2849,294.8563 Q465.6911,294.575 465.0661,294.575 Q463.7224,294.575 463.0349,295.6531 Q462.3474,296.7156 462.3474,298.8094 Q462.3474,300.9031 463.0349,301.9813 Q463.7224,303.0438 465.0661,303.0438 Q465.6911,303.0438 466.2849,302.7781 Q466.8786,302.4969 467.5036,301.9188 L467.5036,304.6375 Z " fill="#000000"/><text fill="#000000" font-family="sans-serif" font-size="14" lengthAdjust="spacing" textLength="225.333" x="485.0349" y="303.8436">EmployeeAccountFormValidator</text><line style="stroke:#A80036;stroke-width:1.0;" x1="419.3" x2="743.6027" y1="314.9969" y2="314.9969"/><ellipse cx="429.3" cy="328.6453" fill="#84BE84" rx="3" ry="3" style="stroke:#038048;stroke-width:1.0;"/><text fill="#000000" font-family="sans-serif" font-size="14" lengthAdjust="spacing" textLength="248.5957" x="438.3" y="331.992">supports(Class&lt;?&gt; clazz) : boolean</text><ellipse cx="429.3" cy="344.9422" fill="#84BE84" rx="3" ry="3" style="stroke:#038048;stroke-width:1.0;"/><text fill="#000000" font-family="sans-serif" font-size="14" lengthAdjust="spacing" textLength="300.3027" x="438.3" y="348.2889">validate(Object target, Errors errors) : void</text></g><!--class CustomerResigterForm--><g id="elem_CustomerResigterForm"><rect codeLine="38" fill="#FEFECE" height="170.375" id="CustomerResigterForm" style="stroke:#A80036;stroke-width:1.0;" width="194.2852" x="484.31" y="78.1069"/><ellipse cx="499.31" cy="94.1069" fill="#ADD1B2" rx="11" ry="11" style="stroke:#A80036;stroke-width:1.0;"/><path d="M502.2788,99.7475 Q501.7006,100.0444 501.06,100.185 Q500.4194,100.3412 499.7163,100.3412 Q497.2163,100.3412 495.8881,98.7006 Q494.5756,97.0444 494.5756,93.9194 Q494.5756,90.7944 495.8881,89.1381 Q497.2163,87.4819 499.7163,87.4819 Q500.4194,87.4819 501.06,87.6381 Q501.7163,87.7944 502.2788,88.0912 L502.2788,90.81 Q501.6538,90.2319 501.06,89.9662 Q500.4663,89.685 499.8413,89.685 Q498.4975,89.685 497.81,90.7631 Q497.1225,91.8256 497.1225,93.9194 Q497.1225,96.0131 497.81,97.0912 Q498.4975,98.1537 499.8413,98.1537 Q500.4663,98.1537 501.06,97.8881 Q501.6538,97.6069 502.2788,97.0287 L502.2788,99.7475 Z " fill="#000000"/><text fill="#000000" font-family="sans-serif" font-size="14" lengthAdjust="spacing" textLength="162.2852" x="513.31" y="98.9536">CustomerResigterForm</text><line style="stroke:#A80036;stroke-width:1.0;" x1="485.31" x2="677.5952" y1="110.1069" y2="110.1069"/><rect fill="none" height="6" style="stroke:#C82930;stroke-width:1.0;" width="6" x="492.31" y="120.7553"/><text fill="#000000" font-family="sans-serif" font-size="14" lengthAdjust="spacing" textLength="95.1016" x="504.31" y="127.102">name : String</text><rect fill="none" height="6" style="stroke:#C82930;stroke-width:1.0;" width="6" x="492.31" y="137.0522"/><text fill="#000000" font-family="sans-serif" font-size="14" lengthAdjust="spacing" textLength="130.3135" x="504.31" y="143.3989">nameKana : String</text><rect fill="none" height="6" style="stroke:#C82930;stroke-width:1.0;" width="6" x="492.31" y="153.3491"/><text fill="#000000" font-family="sans-serif" font-size="14" lengthAdjust="spacing" textLength="119.6152" x="504.31" y="159.6957">address1 : String</text><rect fill="none" height="6" style="stroke:#C82930;stroke-width:1.0;" width="6" x="492.31" y="169.6459"/><text fill="#000000" font-family="sans-serif" font-size="14" lengthAdjust="spacing" textLength="119.6152" x="504.31" y="175.9926">address2 : String</text><rect fill="none" height="6" style="stroke:#C82930;stroke-width:1.0;" width="6" x="492.31" y="185.9428"/><text fill="#000000" font-family="sans-serif" font-size="14" lengthAdjust="spacing" textLength="155.4492" x="504.31" y="192.2895">phoneNumber : String</text><rect fill="none" height="6" style="stroke:#C82930;stroke-width:1.0;" width="6" x="492.31" y="202.2397"/><text fill="#000000" font-family="sans-serif" font-size="14" lengthAdjust="spacing" textLength="141.7021" x="504.31" y="208.5864">mailAddress : String</text><rect fill="none" height="6" style="stroke:#C82930;stroke-width:1.0;" width="6" x="492.31" y="218.5366"/><text fill="#000000" font-family="sans-serif" font-size="14" lengthAdjust="spacing" textLength="125.6377" x="504.31" y="224.8832">username : String</text><rect fill="none" height="6" style="stroke:#C82930;stroke-width:1.0;" width="6" x="492.31" y="234.8334"/><text fill="#000000" font-family="sans-serif" font-size="14" lengthAdjust="spacing" textLength="122.1104" x="504.31" y="241.1801">password : String</text></g><!--class CustomerLoginForm--><g id="elem_CustomerLoginForm"><rect codeLine="48" fill="#FEFECE" height="72.5938" id="CustomerLoginForm" style="stroke:#A80036;stroke-width:1.0;" width="174.0303" x="804.61" y="514.9969"/><ellipse cx="819.61" cy="530.9969" fill="#ADD1B2" rx="11" ry="11" style="stroke:#A80036;stroke-width:1.0;"/><path d="M822.5788,536.6375 Q822.0006,536.9344 821.36,537.075 Q820.7194,537.2313 820.0163,537.2313 Q817.5163,537.2313 816.1881,535.5906 Q814.8756,533.9344 814.8756,530.8094 Q814.8756,527.6844 816.1881,526.0281 Q817.5163,524.3719 820.0163,524.3719 Q820.7194,524.3719 821.36,524.5281 Q822.0163,524.6844 822.5788,524.9813 L822.5788,527.7 Q821.9538,527.1219 821.36,526.8563 Q820.7663,526.575 820.1413,526.575 Q818.7975,526.575 818.11,527.6531 Q817.4225,528.7156 817.4225,530.8094 Q817.4225,532.9031 818.11,533.9813 Q818.7975,535.0438 820.1413,535.0438 Q820.7663,535.0438 821.36,534.7781 Q821.9538,534.4969 822.5788,533.9188 L822.5788,536.6375 Z " fill="#000000"/><text fill="#000000" font-family="sans-serif" font-size="14" lengthAdjust="spacing" textLength="142.0303" x="833.61" y="535.8436">CustomerLoginForm</text><line style="stroke:#A80036;stroke-width:1.0;" x1="805.61" x2="977.6403" y1="546.9969" y2="546.9969"/><rect fill="none" height="6" style="stroke:#C82930;stroke-width:1.0;" width="6" x="812.61" y="557.6453"/><text fill="#000000" font-family="sans-serif" font-size="14" lengthAdjust="spacing" textLength="95.1016" x="824.61" y="563.992">name : String</text><rect fill="none" height="6" style="stroke:#C82930;stroke-width:1.0;" width="6" x="812.61" y="573.9422"/><text fill="#000000" font-family="sans-serif" font-size="14" lengthAdjust="spacing" textLength="122.1104" x="824.61" y="580.2889">password : String</text></g><!--class OrderForm--><g id="elem_OrderForm"><rect codeLine="52" fill="#FEFECE" height="32" id="OrderForm" style="stroke:#A80036;stroke-width:1.0;" width="108.043" x="837.6" y="448.2969"/><ellipse cx="852.6" cy="464.2969" fill="#ADD1B2" rx="11" ry="11" style="stroke:#A80036;stroke-width:1.0;"/><path d="M855.5688,469.9375 Q854.9906,470.2344 854.35,470.375 Q853.7094,470.5313 853.0063,470.5313 Q850.5063,470.5313 849.1781,468.8906 Q847.8656,467.2344 847.8656,464.1094 Q847.8656,460.9844 849.1781,459.3281 Q850.5063,457.6719 853.0063,457.6719 Q853.7094,457.6719 854.35,457.8281 Q855.0063,457.9844 855.5688,458.2813 L855.5688,461 Q854.9438,460.4219 854.35,460.1563 Q853.7563,459.875 853.1313,459.875 Q851.7875,459.875 851.1,460.9531 Q850.4125,462.0156 850.4125,464.1094 Q850.4125,466.2031 851.1,467.2813 Q851.7875,468.3438 853.1313,468.3438 Q853.7563,468.3438 854.35,468.0781 Q854.9438,467.7969 855.5688,467.2188 L855.5688,469.9375 Z " fill="#000000"/><text fill="#000000" font-family="sans-serif" font-size="14" lengthAdjust="spacing" textLength="76.043" x="866.6" y="469.1436">OrderForm</text></g><!--SRC=[nPJ1RXGn38RlynHMJqN0eHmh1AfMhLG1BGA9ktVYdGsRn2F7qsfRzT9z0Xw56mVUPbw4JAUTphRfjW84kSp4dsCxVnB7XGqW7Ac8wQz6GGznZePFRQXWXYuHHpC5PH1RpHMC5IhLSYZcrX2GhtK9dloK91PgrH7CM7ox-jQkLktbztRrixtyKTHOBh3g6PmNa4RfC4ROUi-L3GV9l0KOOPZrFjru2G4zmIvyLabLZUnr2d3AOjRPnJZwHs7Jb3h47ysVb45isO73e5IHZ4XKBXTPKlSf9fW0o_BGPBsix-JOXG-DKvk4rmFhQ6FzNz1PWyfoToC3kDtHSuXDNRDet9vqWLw_VTD5F3jxbb9EcHrXW97tIH-2je-dNzFnWg9Kf2zWNuGb0brzkhKdR0qyMERDdk_AFRPlblsng5aHiWx_I8pxLU_xsl6IQAyikGctLozZ7sj1r_Y1-z94agFVVmUPvEjIRdBuV_TgqgHtvaa-KRILaWnYvi1J7dHdVuS1SmoD4OfnPmDxbPL_pe6Ecgu5vh17w_RwvJdS7UmVDBWR8TRRw3thNsgdns96Xp3CpgyzBtu1]--></g></svg>