<?xml version="1.0" encoding="UTF-8" standalone="no"?><svg xmlns="http://www.w3.org/2000/svg" xmlns:xlink="http://www.w3.org/1999/xlink" contentScriptType="application/ecmascript" contentStyleType="text/css" height="766px" preserveAspectRatio="none" style="width:1387px;height:766px;background:#FFFFFF;" version="1.1" viewBox="0 0 1387 766" width="1387px" zoomAndPan="magnify"><defs/><g><text fill="#000000" font-family="sans-serif" font-size="18" lengthAdjust="spacing" textLength="173" x="600.5" y="17.4023">controllerパッケージ</text><!--MD5=[10ea673caf457862023e152271927b45]
cluster controller--><polygon fill="#FFFFFF" points="16,27.1992,92,27.1992,99,49.6875,1370,49.6875,1370,759.1992,16,759.1992,16,27.1992" style="stroke:#000000;stroke-width:1.5;"/><line style="stroke:#000000;stroke-width:1.5;" x1="16" x2="99" y1="49.6875" y2="49.6875"/><text fill="#000000" font-family="sans-serif" font-size="14" font-weight="bold" lengthAdjust="spacing" textLength="70" x="20" y="42.7344">controller</text><!--MD5=[47c14c564e796a575e671c2b0469a7bb]
cluster backend--><polygon fill="#FFFFFF" points="40,70.1992,105,70.1992,112,92.6875,1346,92.6875,1346,673.1992,40,673.1992,40,70.1992" style="stroke:#000000;stroke-width:1.5;"/><line style="stroke:#000000;stroke-width:1.5;" x1="40" x2="112" y1="92.6875" y2="92.6875"/><text fill="#000000" font-family="sans-serif" font-size="14" font-weight="bold" lengthAdjust="spacing" textLength="59" x="44" y="85.7344">backend</text><!--MD5=[24a916c6bcaa6320abc6175eeee43ee3]
class GlobalExceptionAspect--><rect codeLine="6" fill="#FEFECE" height="52.9551" id="GlobalExceptionAspect" style="stroke:#A80036;stroke-width:1.5;" width="193" x="106.5" y="689.6992"/><ellipse cx="134.55" cy="705.6992" fill="#ADD1B2" rx="11" ry="11" style="stroke:#A80036;stroke-width:1.0;"/><path d="M137.0231,711.8423 Q136.4421,712.1411 135.8029,712.2905 Q135.1638,712.4399 134.4582,712.4399 Q131.9514,712.4399 130.6315,710.7881 Q129.3117,709.1362 129.3117,706.0151 Q129.3117,702.8857 130.6315,701.2339 Q131.9514,699.582 134.4582,699.582 Q135.1638,699.582 135.8112,699.7314 Q136.4587,699.8809 137.0231,700.1797 L137.0231,702.9023 Q136.3923,702.3213 135.7988,702.0515 Q135.2053,701.7817 134.5744,701.7817 Q133.2297,701.7817 132.5449,702.8484 Q131.8601,703.915 131.8601,706.0151 Q131.8601,708.1069 132.5449,709.1736 Q133.2297,710.2402 134.5744,710.2402 Q135.2053,710.2402 135.7988,709.9705 Q136.3923,709.7007 137.0231,709.1196 Z " fill="#000000"/><text fill="#000000" font-family="sans-serif" font-size="12" lengthAdjust="spacing" textLength="132" x="151.45" y="710.2344">GlobalExceptionAspect</text><line style="stroke:#A80036;stroke-width:1.5;" x1="107.5" x2="298.5" y1="721.6992" y2="721.6992"/><text fill="#000000" font-family="sans-serif" font-size="11" lengthAdjust="spacing" textLength="181" x="112.5" y="736.334">ModelAndView exceptionCaught()</text><!--MD5=[cb62662ac00a6bbafa71e2e8e2c6aa47]
class MenuController--><rect codeLine="10" fill="#FEFECE" height="52.9551" id="MenuController" style="stroke:#A80036;stroke-width:1.5;" width="119" x="143.5" y="541.6992"/><ellipse cx="158.5" cy="557.6992" fill="#ADD1B2" rx="11" ry="11" style="stroke:#A80036;stroke-width:1.0;"/><path d="M160.9731,563.8423 Q160.3921,564.1411 159.7529,564.2905 Q159.1138,564.4399 158.4082,564.4399 Q155.9014,564.4399 154.5815,562.7881 Q153.2617,561.1362 153.2617,558.0151 Q153.2617,554.8857 154.5815,553.2339 Q155.9014,551.582 158.4082,551.582 Q159.1138,551.582 159.7612,551.7314 Q160.4087,551.8809 160.9731,552.1797 L160.9731,554.9023 Q160.3423,554.3213 159.7488,554.0515 Q159.1553,553.7817 158.5244,553.7817 Q157.1797,553.7817 156.4949,554.8484 Q155.8101,555.915 155.8101,558.0151 Q155.8101,560.1069 156.4949,561.1736 Q157.1797,562.2402 158.5244,562.2402 Q159.1553,562.2402 159.7488,561.9705 Q160.3423,561.7007 160.9731,561.1196 Z " fill="#000000"/><text fill="#000000" font-family="sans-serif" font-size="12" lengthAdjust="spacing" textLength="87" x="172.5" y="562.2344">MenuController</text><line style="stroke:#A80036;stroke-width:1.5;" x1="144.5" x2="261.5" y1="573.6992" y2="573.6992"/><ellipse cx="154.5" cy="584.6992" fill="#84BE84" rx="3" ry="3" style="stroke:#038048;stroke-width:1.0;"/><text fill="#000000" font-family="sans-serif" font-size="11" lengthAdjust="spacing" textLength="79" x="163.5" y="588.334">menu() : String</text><!--MD5=[5103e3471bf31fadd75905833dcba617]
class LoginController--><rect codeLine="13" fill="#FEFECE" height="86.8652" id="LoginController" style="stroke:#A80036;stroke-width:1.5;" width="207" x="99.5" y="419.6992"/><ellipse cx="155.75" cy="435.6992" fill="#ADD1B2" rx="11" ry="11" style="stroke:#A80036;stroke-width:1.0;"/><path d="M158.2231,441.8423 Q157.6421,442.1411 157.0029,442.2905 Q156.3638,442.4399 155.6582,442.4399 Q153.1514,442.4399 151.8315,440.7881 Q150.5117,439.1362 150.5117,436.0151 Q150.5117,432.8857 151.8315,431.2339 Q153.1514,429.582 155.6582,429.582 Q156.3638,429.582 157.0112,429.7314 Q157.6587,429.8809 158.2231,430.1797 L158.2231,432.9023 Q157.5923,432.3213 156.9988,432.0515 Q156.4053,431.7817 155.7744,431.7817 Q154.4297,431.7817 153.7449,432.8484 Q153.0601,433.915 153.0601,436.0151 Q153.0601,438.1069 153.7449,439.1736 Q154.4297,440.2402 155.7744,440.2402 Q156.4053,440.2402 156.9988,439.9705 Q157.5923,439.7007 158.2231,439.1196 Z " fill="#000000"/><text fill="#000000" font-family="sans-serif" font-size="12" lengthAdjust="spacing" textLength="86" x="176.25" y="440.2344">LoginController</text><line style="stroke:#A80036;stroke-width:1.5;" x1="100.5" x2="305.5" y1="451.6992" y2="451.6992"/><rect fill="none" height="6" style="stroke:#C82930;stroke-width:1.0;" width="6" x="107.5" y="459.6992"/><text fill="#000000" font-family="sans-serif" font-size="11" lengthAdjust="spacing" textLength="181" x="119.5" y="466.334">service : EmployeeAccountService</text><line style="stroke:#A80036;stroke-width:1.5;" x1="100.5" x2="305.5" y1="472.6543" y2="472.6543"/><ellipse cx="110.5" cy="483.6543" fill="#84BE84" rx="3" ry="3" style="stroke:#038048;stroke-width:1.0;"/><text fill="#000000" font-family="sans-serif" font-size="11" lengthAdjust="spacing" textLength="134" x="119.5" y="487.2891">setUpForm() : LoginForm</text><ellipse cx="110.5" cy="496.6094" fill="#84BE84" rx="3" ry="3" style="stroke:#038048;stroke-width:1.0;"/><text fill="#000000" font-family="sans-serif" font-size="11" lengthAdjust="spacing" textLength="75" x="119.5" y="500.2441">form() : String</text><!--MD5=[34415305ba981eff0da19c4f564a359e]
class ProductSearchController--><rect codeLine="18" fill="#FEFECE" height="99.8203" id="ProductSearchController" style="stroke:#A80036;stroke-width:1.5;" width="294" x="56" y="284.1992"/><ellipse cx="129.75" cy="300.1992" fill="#ADD1B2" rx="11" ry="11" style="stroke:#A80036;stroke-width:1.0;"/><path d="M132.2231,306.3423 Q131.6421,306.6411 131.0029,306.7905 Q130.3638,306.9399 129.6582,306.9399 Q127.1514,306.9399 125.8315,305.2881 Q124.5117,303.6362 124.5117,300.5151 Q124.5117,297.3857 125.8315,295.7339 Q127.1514,294.082 129.6582,294.082 Q130.3638,294.082 131.0112,294.2314 Q131.6587,294.3809 132.2231,294.6797 L132.2231,297.4023 Q131.5923,296.8213 130.9988,296.5515 Q130.4053,296.2817 129.7744,296.2817 Q128.4297,296.2817 127.7449,297.3484 Q127.0601,298.415 127.0601,300.5151 Q127.0601,302.6069 127.7449,303.6736 Q128.4297,304.7402 129.7744,304.7402 Q130.4053,304.7402 130.9988,304.4705 Q131.5923,304.2007 132.2231,303.6196 Z " fill="#000000"/><text fill="#000000" font-family="sans-serif" font-size="12" lengthAdjust="spacing" textLength="138" x="150.25" y="304.7344">ProductSearchController</text><line style="stroke:#A80036;stroke-width:1.5;" x1="57" x2="349" y1="316.1992" y2="316.1992"/><rect fill="none" height="6" style="stroke:#C82930;stroke-width:1.0;" width="6" x="64" y="324.1992"/><text fill="#000000" font-family="sans-serif" font-size="11" lengthAdjust="spacing" textLength="170" x="76" y="330.834">productService : ProductService</text><rect fill="none" height="6" style="stroke:#C82930;stroke-width:1.0;" width="6" x="64" y="337.1543"/><text fill="#000000" font-family="sans-serif" font-size="11" lengthAdjust="spacing" textLength="268" x="76" y="343.7891">productCategoryService : ProductCategoryService</text><line style="stroke:#A80036;stroke-width:1.5;" x1="57" x2="349" y1="350.1094" y2="350.1094"/><ellipse cx="67" cy="361.1094" fill="#84BE84" rx="3" ry="3" style="stroke:#038048;stroke-width:1.0;"/><text fill="#000000" font-family="sans-serif" font-size="11" lengthAdjust="spacing" textLength="133" x="76" y="364.7441">list(Model model) : String</text><ellipse cx="67" cy="374.0645" fill="#84BE84" rx="3" ry="3" style="stroke:#038048;stroke-width:1.0;"/><text fill="#000000" font-family="sans-serif" font-size="11" lengthAdjust="spacing" textLength="153" x="76" y="377.6992">search(Model model) : String</text><!--MD5=[5a2e20ec24a9907f4e8d7817e4660cc5]
class ProductAddController--><rect codeLine="24" fill="#FEFECE" height="177.5508" id="ProductAddController" style="stroke:#A80036;stroke-width:1.5;" width="403" x="410" y="479.1992"/><ellipse cx="545.25" cy="495.1992" fill="#ADD1B2" rx="11" ry="11" style="stroke:#A80036;stroke-width:1.0;"/><path d="M547.7231,501.3423 Q547.1421,501.6411 546.5029,501.7905 Q545.8638,501.9399 545.1582,501.9399 Q542.6514,501.9399 541.3315,500.2881 Q540.0117,498.6362 540.0117,495.5151 Q540.0117,492.3857 541.3315,490.7339 Q542.6514,489.082 545.1582,489.082 Q545.8638,489.082 546.5112,489.2314 Q547.1587,489.3809 547.7231,489.6797 L547.7231,492.4023 Q547.0923,491.8213 546.4988,491.5515 Q545.9053,491.2817 545.2744,491.2817 Q543.9297,491.2817 543.2449,492.3484 Q542.5601,493.415 542.5601,495.5151 Q542.5601,497.6069 543.2449,498.6736 Q543.9297,499.7402 545.2744,499.7402 Q545.9053,499.7402 546.4988,499.4705 Q547.0923,499.2007 547.7231,498.6196 Z " fill="#000000"/><text fill="#000000" font-family="sans-serif" font-size="12" lengthAdjust="spacing" textLength="124" x="565.75" y="499.7344">ProductAddController</text><line style="stroke:#A80036;stroke-width:1.5;" x1="411" x2="812" y1="511.1992" y2="511.1992"/><rect fill="none" height="6" style="stroke:#C82930;stroke-width:1.0;" width="6" x="418" y="519.1992"/><text fill="#000000" font-family="sans-serif" font-size="11" lengthAdjust="spacing" textLength="174" x="430" y="525.834">validator : ProductFormValidator</text><rect fill="none" height="6" style="stroke:#C82930;stroke-width:1.0;" width="6" x="418" y="532.1543"/><text fill="#000000" font-family="sans-serif" font-size="11" lengthAdjust="spacing" textLength="170" x="430" y="538.7891">productService : ProductService</text><rect fill="none" height="6" style="stroke:#C82930;stroke-width:1.0;" width="6" x="418" y="545.1094"/><text fill="#000000" font-family="sans-serif" font-size="11" lengthAdjust="spacing" textLength="268" x="430" y="551.7441">productCategoryService : ProductCategoryService</text><line style="stroke:#A80036;stroke-width:1.5;" x1="411" x2="812" y1="558.0645" y2="558.0645"/><ellipse cx="421" cy="569.0645" fill="#84BE84" rx="3" ry="3" style="stroke:#038048;stroke-width:1.0;"/><text fill="#000000" font-family="sans-serif" font-size="11" lengthAdjust="spacing" textLength="146" x="430" y="572.6992">setUpForm() : ProductForm</text><ellipse cx="421" cy="582.0195" fill="#84BE84" rx="3" ry="3" style="stroke:#038048;stroke-width:1.0;"/><text fill="#000000" font-family="sans-serif" font-size="11" lengthAdjust="spacing" textLength="182" x="430" y="585.6543">bind(WebDataBinder binder) : void</text><ellipse cx="421" cy="594.9746" fill="#84BE84" rx="3" ry="3" style="stroke:#038048;stroke-width:1.0;"/><text fill="#000000" font-family="sans-serif" font-size="11" lengthAdjust="spacing" textLength="143" x="430" y="598.6094">form(Model model) : String</text><ellipse cx="421" cy="607.9297" fill="#84BE84" rx="3" ry="3" style="stroke:#038048;stroke-width:1.0;"/><text fill="#000000" font-family="sans-serif" font-size="11" lengthAdjust="spacing" textLength="377" x="430" y="611.5645">confirm(ProductForm form, BindingResult result, Model model) : String</text><ellipse cx="421" cy="620.8848" fill="#84BE84" rx="3" ry="3" style="stroke:#038048;stroke-width:1.0;"/><text fill="#000000" font-family="sans-serif" font-size="11" lengthAdjust="spacing" textLength="190" x="430" y="624.5195">execute(ProductForm form) : String</text><ellipse cx="421" cy="633.8398" fill="#84BE84" rx="3" ry="3" style="stroke:#038048;stroke-width:1.0;"/><text fill="#000000" font-family="sans-serif" font-size="11" lengthAdjust="spacing" textLength="321" x="430" y="637.4746">complete(ProductForm form, SessionStatus session) : String</text><ellipse cx="421" cy="646.7949" fill="#84BE84" rx="3" ry="3" style="stroke:#038048;stroke-width:1.0;"/><text fill="#000000" font-family="sans-serif" font-size="11" lengthAdjust="spacing" textLength="83" x="430" y="650.4297">cancel() : String</text><!--MD5=[b1ec36c9af18abf088d1930528987fc8]
class ProductUpdateController--><rect codeLine="36" fill="#FEFECE" height="177.5508" id="ProductUpdateController" style="stroke:#A80036;stroke-width:1.5;" width="403" x="410" y="266.1992"/><ellipse cx="536.25" cy="282.1992" fill="#ADD1B2" rx="11" ry="11" style="stroke:#A80036;stroke-width:1.0;"/><path d="M538.7231,288.3423 Q538.1421,288.6411 537.5029,288.7905 Q536.8638,288.9399 536.1582,288.9399 Q533.6514,288.9399 532.3315,287.2881 Q531.0117,285.6362 531.0117,282.5151 Q531.0117,279.3857 532.3315,277.7339 Q533.6514,276.082 536.1582,276.082 Q536.8638,276.082 537.5112,276.2314 Q538.1587,276.3809 538.7231,276.6797 L538.7231,279.4023 Q538.0923,278.8213 537.4988,278.5515 Q536.9053,278.2817 536.2744,278.2817 Q534.9297,278.2817 534.2449,279.3484 Q533.5601,280.415 533.5601,282.5151 Q533.5601,284.6069 534.2449,285.6736 Q534.9297,286.7402 536.2744,286.7402 Q536.9053,286.7402 537.4988,286.4705 Q538.0923,286.2007 538.7231,285.6196 Z " fill="#000000"/><text fill="#000000" font-family="sans-serif" font-size="12" lengthAdjust="spacing" textLength="142" x="556.75" y="286.7344">ProductUpdateController</text><line style="stroke:#A80036;stroke-width:1.5;" x1="411" x2="812" y1="298.1992" y2="298.1992"/><rect fill="none" height="6" style="stroke:#C82930;stroke-width:1.0;" width="6" x="418" y="306.1992"/><text fill="#000000" font-family="sans-serif" font-size="11" lengthAdjust="spacing" textLength="174" x="430" y="312.834">validator : ProductFormValidator</text><rect fill="none" height="6" style="stroke:#C82930;stroke-width:1.0;" width="6" x="418" y="319.1543"/><text fill="#000000" font-family="sans-serif" font-size="11" lengthAdjust="spacing" textLength="170" x="430" y="325.7891">productService : ProductService</text><rect fill="none" height="6" style="stroke:#C82930;stroke-width:1.0;" width="6" x="418" y="332.1094"/><text fill="#000000" font-family="sans-serif" font-size="11" lengthAdjust="spacing" textLength="268" x="430" y="338.7441">productCategoryService : ProductCategoryService</text><line style="stroke:#A80036;stroke-width:1.5;" x1="411" x2="812" y1="345.0645" y2="345.0645"/><ellipse cx="421" cy="356.0645" fill="#84BE84" rx="3" ry="3" style="stroke:#038048;stroke-width:1.0;"/><text fill="#000000" font-family="sans-serif" font-size="11" lengthAdjust="spacing" textLength="146" x="430" y="359.6992">setUpForm() : ProductForm</text><ellipse cx="421" cy="369.0195" fill="#84BE84" rx="3" ry="3" style="stroke:#038048;stroke-width:1.0;"/><text fill="#000000" font-family="sans-serif" font-size="11" lengthAdjust="spacing" textLength="182" x="430" y="372.6543">bind(WebDataBinder binder) : void</text><ellipse cx="421" cy="381.9746" fill="#84BE84" rx="3" ry="3" style="stroke:#038048;stroke-width:1.0;"/><text fill="#000000" font-family="sans-serif" font-size="11" lengthAdjust="spacing" textLength="143" x="430" y="385.6094">form(Model model) : String</text><ellipse cx="421" cy="394.9297" fill="#84BE84" rx="3" ry="3" style="stroke:#038048;stroke-width:1.0;"/><text fill="#000000" font-family="sans-serif" font-size="11" lengthAdjust="spacing" textLength="377" x="430" y="398.5645">confirm(ProductForm form, BindingResult result, Model model) : String</text><ellipse cx="421" cy="407.8848" fill="#84BE84" rx="3" ry="3" style="stroke:#038048;stroke-width:1.0;"/><text fill="#000000" font-family="sans-serif" font-size="11" lengthAdjust="spacing" textLength="190" x="430" y="411.5195">execute(ProductForm form) : String</text><ellipse cx="421" cy="420.8398" fill="#84BE84" rx="3" ry="3" style="stroke:#038048;stroke-width:1.0;"/><text fill="#000000" font-family="sans-serif" font-size="11" lengthAdjust="spacing" textLength="321" x="430" y="424.4746">complete(ProductForm form, SessionStatus session) : String</text><ellipse cx="421" cy="433.7949" fill="#84BE84" rx="3" ry="3" style="stroke:#038048;stroke-width:1.0;"/><text fill="#000000" font-family="sans-serif" font-size="11" lengthAdjust="spacing" textLength="201" x="430" y="437.4297">cancel(SessionStatus session) : String</text><!--MD5=[07667f7f066eebfcc093258b3f2f15d5]
class ProductDeleteController--><rect codeLine="48" fill="#FEFECE" height="125.7305" id="ProductDeleteController" style="stroke:#A80036;stroke-width:1.5;" width="403" x="410" y="105.1992"/><ellipse cx="538.75" cy="121.1992" fill="#ADD1B2" rx="11" ry="11" style="stroke:#A80036;stroke-width:1.0;"/><path d="M541.2231,127.3423 Q540.6421,127.6411 540.0029,127.7905 Q539.3638,127.9399 538.6582,127.9399 Q536.1514,127.9399 534.8315,126.2881 Q533.5117,124.6362 533.5117,121.5151 Q533.5117,118.3857 534.8315,116.7339 Q536.1514,115.082 538.6582,115.082 Q539.3638,115.082 540.0112,115.2314 Q540.6587,115.3809 541.2231,115.6797 L541.2231,118.4023 Q540.5923,117.8213 539.9988,117.5515 Q539.4053,117.2817 538.7744,117.2817 Q537.4297,117.2817 536.7449,118.3484 Q536.0601,119.415 536.0601,121.5151 Q536.0601,123.6069 536.7449,124.6736 Q537.4297,125.7402 538.7744,125.7402 Q539.4053,125.7402 539.9988,125.4705 Q540.5923,125.2007 541.2231,124.6196 Z " fill="#000000"/><text fill="#000000" font-family="sans-serif" font-size="12" lengthAdjust="spacing" textLength="137" x="559.25" y="125.7344">ProductDeleteController</text><line style="stroke:#A80036;stroke-width:1.5;" x1="411" x2="812" y1="137.1992" y2="137.1992"/><rect fill="none" height="6" style="stroke:#C82930;stroke-width:1.0;" width="6" x="418" y="145.1992"/><text fill="#000000" font-family="sans-serif" font-size="11" lengthAdjust="spacing" textLength="170" x="430" y="151.834">productService : ProductService</text><rect fill="none" height="6" style="stroke:#C82930;stroke-width:1.0;" width="6" x="418" y="158.1543"/><text fill="#000000" font-family="sans-serif" font-size="11" lengthAdjust="spacing" textLength="268" x="430" y="164.7891">productCategoryService : ProductCategoryService</text><line style="stroke:#A80036;stroke-width:1.5;" x1="411" x2="812" y1="171.1094" y2="171.1094"/><ellipse cx="421" cy="182.1094" fill="#84BE84" rx="3" ry="3" style="stroke:#038048;stroke-width:1.0;"/><text fill="#000000" font-family="sans-serif" font-size="11" lengthAdjust="spacing" textLength="377" x="430" y="185.7441">confirm(ProductForm form, BindingResult result, Model model) : String</text><ellipse cx="421" cy="195.0645" fill="#84BE84" rx="3" ry="3" style="stroke:#038048;stroke-width:1.0;"/><text fill="#000000" font-family="sans-serif" font-size="11" lengthAdjust="spacing" textLength="321" x="430" y="198.6992">complete(ProductForm form, SessionStatus session) : String</text><ellipse cx="421" cy="208.0195" fill="#84BE84" rx="3" ry="3" style="stroke:#038048;stroke-width:1.0;"/><text fill="#000000" font-family="sans-serif" font-size="11" lengthAdjust="spacing" textLength="190" x="430" y="211.6543">execute(ProductForm form) : String</text><ellipse cx="421" cy="220.9746" fill="#84BE84" rx="3" ry="3" style="stroke:#038048;stroke-width:1.0;"/><text fill="#000000" font-family="sans-serif" font-size="11" lengthAdjust="spacing" textLength="201" x="430" y="224.6094">cancel(SessionStatus session) : String</text><!--MD5=[fd3ade52011de7ddafd55523ae1c4c7e]
class ProductCategoryAddController--><rect codeLine="56" fill="#FEFECE" height="112.7754" id="ProductCategoryAddController" style="stroke:#A80036;stroke-width:1.5;" width="390" x="906.5" y="511.6992"/><ellipse cx="1009.75" cy="527.6992" fill="#ADD1B2" rx="11" ry="11" style="stroke:#A80036;stroke-width:1.0;"/><path d="M1012.2231,533.8423 Q1011.6421,534.1411 1011.0029,534.2905 Q1010.3638,534.4399 1009.6582,534.4399 Q1007.1514,534.4399 1005.8315,532.7881 Q1004.5117,531.1362 1004.5117,528.0151 Q1004.5117,524.8857 1005.8315,523.2339 Q1007.1514,521.582 1009.6582,521.582 Q1010.3638,521.582 1011.0112,521.7314 Q1011.6587,521.8809 1012.2231,522.1797 L1012.2231,524.9023 Q1011.5923,524.3213 1010.9988,524.0515 Q1010.4053,523.7817 1009.7744,523.7817 Q1008.4297,523.7817 1007.7449,524.8484 Q1007.0601,525.915 1007.0601,528.0151 Q1007.0601,530.1069 1007.7449,531.1736 Q1008.4297,532.2402 1009.7744,532.2402 Q1010.4053,532.2402 1010.9988,531.9705 Q1011.5923,531.7007 1012.2231,531.1196 Z " fill="#000000"/><text fill="#000000" font-family="sans-serif" font-size="12" lengthAdjust="spacing" textLength="175" x="1030.25" y="532.2344">ProductCategoryAddController</text><line style="stroke:#A80036;stroke-width:1.5;" x1="907.5" x2="1295.5" y1="543.6992" y2="543.6992"/><rect fill="none" height="6" style="stroke:#C82930;stroke-width:1.0;" width="6" x="914.5" y="551.6992"/><text fill="#000000" font-family="sans-serif" font-size="11" lengthAdjust="spacing" textLength="262" x="926.5" y="558.334">ProductCategoryService productCategoryService</text><line style="stroke:#A80036;stroke-width:1.5;" x1="907.5" x2="1295.5" y1="564.6543" y2="564.6543"/><ellipse cx="917.5" cy="575.6543" fill="#84BE84" rx="3" ry="3" style="stroke:#038048;stroke-width:1.0;"/><text fill="#000000" font-family="sans-serif" font-size="11" lengthAdjust="spacing" textLength="69" x="926.5" y="579.2891">String form()</text><ellipse cx="917.5" cy="588.6094" fill="#84BE84" rx="3" ry="3" style="stroke:#038048;stroke-width:1.0;"/><text fill="#000000" font-family="sans-serif" font-size="11" lengthAdjust="spacing" textLength="346" x="926.5" y="592.2441">String confirm(ProductCategoryForm form, BindingResult result)</text><ellipse cx="917.5" cy="601.5645" fill="#84BE84" rx="3" ry="3" style="stroke:#038048;stroke-width:1.0;"/><text fill="#000000" font-family="sans-serif" font-size="11" lengthAdjust="spacing" textLength="364" x="926.5" y="605.1992">String complete(ProductCategoryForm form, SessionStatus session)</text><ellipse cx="917.5" cy="614.5195" fill="#84BE84" rx="3" ry="3" style="stroke:#038048;stroke-width:1.0;"/><text fill="#000000" font-family="sans-serif" font-size="11" lengthAdjust="spacing" textLength="195" x="926.5" y="618.1543">String cancel(SessionStatus session)</text><!--MD5=[799f3b9c66ec8af5dbcad41089cd95b3]
class EmployeeAccountAddController--><rect codeLine="63" fill="#FEFECE" height="164.5957" id="EmployeeAccountAddController" style="stroke:#A80036;stroke-width:1.5;" width="457" x="873" y="311.6992"/><ellipse cx="1006.75" cy="327.6992" fill="#ADD1B2" rx="11" ry="11" style="stroke:#A80036;stroke-width:1.0;"/><path d="M1009.2231,333.8423 Q1008.6421,334.1411 1008.0029,334.2905 Q1007.3638,334.4399 1006.6582,334.4399 Q1004.1514,334.4399 1002.8315,332.7881 Q1001.5117,331.1362 1001.5117,328.0151 Q1001.5117,324.8857 1002.8315,323.2339 Q1004.1514,321.582 1006.6582,321.582 Q1007.3638,321.582 1008.0112,321.7314 Q1008.6587,321.8809 1009.2231,322.1797 L1009.2231,324.9023 Q1008.5923,324.3213 1007.9988,324.0515 Q1007.4053,323.7817 1006.7744,323.7817 Q1005.4297,323.7817 1004.7449,324.8484 Q1004.0601,325.915 1004.0601,328.0151 Q1004.0601,330.1069 1004.7449,331.1736 Q1005.4297,332.2402 1006.7744,332.2402 Q1007.4053,332.2402 1007.9988,331.9705 Q1008.5923,331.7007 1009.2231,331.1196 Z " fill="#000000"/><text fill="#000000" font-family="sans-serif" font-size="12" lengthAdjust="spacing" textLength="181" x="1027.25" y="332.2344">EmployeeAccountAddController</text><line style="stroke:#A80036;stroke-width:1.5;" x1="874" x2="1329" y1="343.6992" y2="343.6992"/><rect fill="none" height="6" style="stroke:#C82930;stroke-width:1.0;" width="6" x="881" y="351.6992"/><text fill="#000000" font-family="sans-serif" font-size="11" lengthAdjust="spacing" textLength="277" x="893" y="358.334">employeeAccountService : EmployeeAccountService</text><rect fill="none" height="6" style="stroke:#C82930;stroke-width:1.0;" width="6" x="881" y="364.6543"/><text fill="#000000" font-family="sans-serif" font-size="11" lengthAdjust="spacing" textLength="228" x="893" y="371.2891">validator : EmployeeAccountFormValidator</text><line style="stroke:#A80036;stroke-width:1.5;" x1="874" x2="1329" y1="377.6094" y2="377.6094"/><ellipse cx="884" cy="388.6094" fill="#84BE84" rx="3" ry="3" style="stroke:#038048;stroke-width:1.0;"/><text fill="#000000" font-family="sans-serif" font-size="11" lengthAdjust="spacing" textLength="200" x="893" y="392.2441">setUpForm() : EmployeeAccountForm</text><ellipse cx="884" cy="401.5645" fill="#84BE84" rx="3" ry="3" style="stroke:#038048;stroke-width:1.0;"/><text fill="#000000" font-family="sans-serif" font-size="11" lengthAdjust="spacing" textLength="182" x="893" y="405.1992">bind(WebDataBinder binder) : void</text><ellipse cx="884" cy="414.5195" fill="#84BE84" rx="3" ry="3" style="stroke:#038048;stroke-width:1.0;"/><text fill="#000000" font-family="sans-serif" font-size="11" lengthAdjust="spacing" textLength="143" x="893" y="418.1543">form(Model model) : String</text><ellipse cx="884" cy="427.4746" fill="#84BE84" rx="3" ry="3" style="stroke:#038048;stroke-width:1.0;"/><text fill="#000000" font-family="sans-serif" font-size="11" lengthAdjust="spacing" textLength="431" x="893" y="431.1094">confirm(EmployeeAccountForm form, BindingResult result, Model model) : String</text><ellipse cx="884" cy="440.4297" fill="#84BE84" rx="3" ry="3" style="stroke:#038048;stroke-width:1.0;"/><text fill="#000000" font-family="sans-serif" font-size="11" lengthAdjust="spacing" textLength="244" x="893" y="444.0645">execute(EmployeeAccountForm form) : String</text><ellipse cx="884" cy="453.3848" fill="#84BE84" rx="3" ry="3" style="stroke:#038048;stroke-width:1.0;"/><text fill="#000000" font-family="sans-serif" font-size="11" lengthAdjust="spacing" textLength="251" x="893" y="457.0195">complete(EmployeeAccountForm form) : String</text><ellipse cx="884" cy="466.3398" fill="#84BE84" rx="3" ry="3" style="stroke:#038048;stroke-width:1.0;"/><text fill="#000000" font-family="sans-serif" font-size="11" lengthAdjust="spacing" textLength="201" x="893" y="469.9746">cancel(SessionStatus session) : String</text><!--MD5=[5f7d45b9ce1e9df8f1802a5defda4c2b]
link MenuController to LoginController--><!--MD5=[82b8b31501c591efbf51a4e6074e3b79]
link LoginController to ProductSearchController--><!--MD5=[7b72953ad33e2e1e6aee4b9f03db3606]
link MenuController to ProductAddController--><!--MD5=[0bda33131c5e357f343312b8bed97a06]
link ProductAddController to ProductUpdateController--><!--MD5=[a3bcfec2d22debbf6adb983a83620da2]
link ProductUpdateController to ProductDeleteController--><!--MD5=[cb4a48f3edfcb107cb7136f806fca686]
link ProductAddController to ProductCategoryAddController--><!--MD5=[3e33d0c445923746627bbc8064c6f9c5]
link ProductCategoryAddController to EmployeeAccountAddController--><!--MD5=[73c1d6ab5222d6ec2aa4899657a50876]
@startuml
skin rose
skinparam shadowing false
hide empty methods
hide empty fields

title controllerパッケージ
left to right direction

package controller{
    class GlobalExceptionAspect{
        ModelAndView exceptionCaught()
    }
    package backend{
        class MenuController{
            + menu() : String
        }
        class LoginController{
            - service : EmployeeAccountService
            + setUpForm() : LoginForm
            + form() : String
        }
        class ProductSearchController{
            - productService : ProductService
            - productCategoryService : ProductCategoryService
            + list(Model model) : String
            + search(Model model) : String
        }
        class ProductAddController{
            - validator : ProductFormValidator
            - productService : ProductService
            - productCategoryService : ProductCategoryService
            + setUpForm() : ProductForm
            + bind(WebDataBinder binder) : void
            + form(Model model) : String
            + confirm(ProductForm form, BindingResult result, Model model) : String
            + execute(ProductForm form) : String
            + complete(ProductForm form, SessionStatus session) : String
            + cancel() : String
        }
        class ProductUpdateController{
            - validator : ProductFormValidator
            - productService : ProductService
            - productCategoryService : ProductCategoryService
            + setUpForm() : ProductForm
            + bind(WebDataBinder binder) : void
            + form(Model model) : String
            + confirm(ProductForm form, BindingResult result, Model model) : String
            + execute(ProductForm form) : String
            + complete(ProductForm form, SessionStatus session) : String
            + cancel(SessionStatus session) : String
        }
        class ProductDeleteController{
            - productService : ProductService
            - productCategoryService : ProductCategoryService
            + confirm(ProductForm form, BindingResult result, Model model) : String
            + complete(ProductForm form, SessionStatus session) : String
            + execute(ProductForm form) : String
            + cancel(SessionStatus session) : String
        }
        class ProductCategoryAddController{
            - ProductCategoryService productCategoryService
            + String form()
            + String confirm(ProductCategoryForm form, BindingResult result)
            + String complete(ProductCategoryForm form, SessionStatus session)
            + String cancel(SessionStatus session)
        }
        class EmployeeAccountAddController{
            - employeeAccountService : EmployeeAccountService
            - validator : EmployeeAccountFormValidator
            + setUpForm() : EmployeeAccountForm
            + bind(WebDataBinder binder) : void
            + form(Model model) : String
            + confirm(EmployeeAccountForm form, BindingResult result, Model model) : String
            + execute(EmployeeAccountForm form) : String
            + complete(EmployeeAccountForm form) : String
            + cancel(SessionStatus session) : String
        }
    }
}

@enduml

PlantUML version 1.2022.0(Wed Jan 12 01:16:42 JST 2022)
(GPL source distribution)
Java Runtime: OpenJDK Runtime Environment
JVM: OpenJDK 64-Bit Server VM
Default Encoding: UTF-8
Language: ja
Country: JP
--></g></svg>