<?xml version="1.0" encoding="UTF-8" standalone="no"?><svg xmlns="http://www.w3.org/2000/svg" xmlns:xlink="http://www.w3.org/1999/xlink" contentScriptType="application/ecmascript" contentStyleType="text/css" height="976px" preserveAspectRatio="none" style="width:740px;height:976px;background:#FFFFFF;" version="1.1" viewBox="0 0 740 976" width="740px" zoomAndPan="magnify"><defs/><g><text fill="#000000" font-family="sans-serif" font-size="18" lengthAdjust="spacing" textLength="291" x="223.5" y="29.4023">UC004: 購入確認機能 シーケンス図</text><rect fill="#FFFFFF" height="755.7637" style="stroke:#A80036;stroke-width:1.0;" width="10" x="24" y="129.6875"/><rect fill="#FFFFFF" height="250.4844" style="stroke:#A80036;stroke-width:1.0;" width="10" x="152" y="153.998"/><rect fill="#FFFFFF" height="389.6924" style="stroke:#A80036;stroke-width:1.0;" width="10" x="152" y="486.7588"/><rect fill="#FFFFFF" height="71.6211" style="stroke:#A80036;stroke-width:1.0;" width="10" x="306" y="526.7246"/><rect fill="#FFFFFF" height="146.5527" style="stroke:#A80036;stroke-width:1.0;" width="10" x="434" y="186.3086"/><rect fill="#FFFFFF" height="161.8633" style="stroke:#A80036;stroke-width:1.0;" width="10" x="434" y="642.9668"/><rect fill="#FFFFFF" height="87.9316" style="stroke:#A80036;stroke-width:1.0;" width="10" x="585" y="215.6191"/><rect fill="#FFFFFF" height="87.9316" style="stroke:#A80036;stroke-width:1.0;" width="10" x="585" y="687.5879"/><rect fill="#FFFFFF" height="29.3105" style="stroke:#A80036;stroke-width:1.0;" width="10" x="710" y="244.9297"/><rect fill="#FFFFFF" height="29.3105" style="stroke:#A80036;stroke-width:1.0;" width="10" x="710" y="716.8984"/><line style="stroke:#A80036;stroke-width:1.0;stroke-dasharray:5.0,5.0;" x1="29" x2="29" y1="119.6875" y2="894.4512"/><line style="stroke:#A80036;stroke-width:1.0;stroke-dasharray:5.0,5.0;" x1="157" x2="157" y1="119.6875" y2="894.4512"/><line style="stroke:#A80036;stroke-width:1.0;stroke-dasharray:5.0,5.0;" x1="310.5" x2="310.5" y1="119.6875" y2="894.4512"/><line style="stroke:#A80036;stroke-width:1.0;stroke-dasharray:5.0,5.0;" x1="438.5" x2="438.5" y1="119.6875" y2="894.4512"/><line style="stroke:#A80036;stroke-width:1.0;stroke-dasharray:5.0,5.0;" x1="590" x2="590" y1="119.6875" y2="894.4512"/><line style="stroke:#A80036;stroke-width:1.0;stroke-dasharray:5.0,5.0;" x1="715" x2="715" y1="119.6875" y2="894.4512"/><text fill="#000000" font-family="sans-serif" font-size="14" lengthAdjust="spacing" textLength="42" x="5" y="116.7344">ユーザ</text><ellipse cx="29" cy="50.1992" fill="#FEFECE" rx="8" ry="8" style="stroke:#A80036;stroke-width:2.0;"/><path d="M29,58.1992 L29,85.1992 M16,66.1992 L42,66.1992 M29,85.1992 L16,100.1992 M29,85.1992 L42,100.1992 " fill="none" style="stroke:#A80036;stroke-width:2.0;"/><text fill="#000000" font-family="sans-serif" font-size="14" lengthAdjust="spacing" textLength="42" x="5" y="906.9863">ユーザ</text><ellipse cx="29" cy="919.9395" fill="#FEFECE" rx="8" ry="8" style="stroke:#A80036;stroke-width:2.0;"/><path d="M29,927.9395 L29,954.9395 M16,935.9395 L42,935.9395 M29,954.9395 L16,969.9395 M29,954.9395 L42,969.9395 " fill="none" style="stroke:#A80036;stroke-width:2.0;"/><rect fill="#FEFECE" height="30.4883" style="stroke:#A80036;stroke-width:1.5;" width="146" x="84" y="88.1992"/><text fill="#000000" font-family="sans-serif" font-size="14" lengthAdjust="spacing" textLength="132" x="91" y="108.7344">PurchaseController</text><rect fill="#FEFECE" height="30.4883" style="stroke:#A80036;stroke-width:1.5;" width="146" x="84" y="893.4512"/><text fill="#000000" font-family="sans-serif" font-size="14" lengthAdjust="spacing" textLength="132" x="91" y="913.9863">PurchaseController</text><rect fill="#FEFECE" height="30.4883" style="stroke:#A80036;stroke-width:1.5;" width="43" x="289.5" y="88.1992"/><text fill="#000000" font-family="sans-serif" font-size="14" lengthAdjust="spacing" textLength="29" x="296.5" y="108.7344">Cart</text><rect fill="#FEFECE" height="30.4883" style="stroke:#A80036;stroke-width:1.5;" width="43" x="289.5" y="893.4512"/><text fill="#000000" font-family="sans-serif" font-size="14" lengthAdjust="spacing" textLength="29" x="296.5" y="913.9863">Cart</text><rect fill="#FEFECE" height="30.4883" style="stroke:#A80036;stroke-width:1.5;" width="115" x="381.5" y="88.1992"/><text fill="#000000" font-family="sans-serif" font-size="14" lengthAdjust="spacing" textLength="101" x="388.5" y="108.7344">ProductService</text><rect fill="#FEFECE" height="30.4883" style="stroke:#A80036;stroke-width:1.5;" width="115" x="381.5" y="893.4512"/><text fill="#000000" font-family="sans-serif" font-size="14" lengthAdjust="spacing" textLength="101" x="388.5" y="913.9863">ProductService</text><rect fill="#FEFECE" height="30.4883" style="stroke:#A80036;stroke-width:1.5;" width="140" x="520" y="88.1992"/><text fill="#000000" font-family="sans-serif" font-size="14" lengthAdjust="spacing" textLength="126" x="527" y="108.7344">ProductRepository</text><rect fill="#FEFECE" height="30.4883" style="stroke:#A80036;stroke-width:1.5;" width="140" x="520" y="893.4512"/><text fill="#000000" font-family="sans-serif" font-size="14" lengthAdjust="spacing" textLength="126" x="527" y="913.9863">ProductRepository</text><text fill="#000000" font-family="sans-serif" font-size="14" lengthAdjust="spacing" textLength="18" x="703" y="116.7344">DB</text><path d="M697,67.1992 C697,57.1992 715,57.1992 715,57.1992 C715,57.1992 733,57.1992 733,67.1992 L733,93.1992 C733,103.1992 715,103.1992 715,103.1992 C715,103.1992 697,103.1992 697,93.1992 L697,67.1992 " fill="#FEFECE" style="stroke:#000000;stroke-width:1.5;"/><path d="M697,67.1992 C697,77.1992 715,77.1992 715,77.1992 C715,77.1992 733,77.1992 733,67.1992 " fill="none" style="stroke:#000000;stroke-width:1.5;"/><text fill="#000000" font-family="sans-serif" font-size="14" lengthAdjust="spacing" textLength="18" x="703" y="906.9863">DB</text><path d="M697,919.9395 C697,909.9395 715,909.9395 715,909.9395 C715,909.9395 733,909.9395 733,919.9395 L733,945.9395 C733,955.9395 715,955.9395 715,955.9395 C715,955.9395 697,955.9395 697,945.9395 L697,919.9395 " fill="#FEFECE" style="stroke:#000000;stroke-width:1.5;"/><path d="M697,919.9395 C697,929.9395 715,929.9395 715,929.9395 C715,929.9395 733,929.9395 733,919.9395 " fill="none" style="stroke:#000000;stroke-width:1.5;"/><rect fill="#FFFFFF" height="755.7637" style="stroke:#A80036;stroke-width:1.0;" width="10" x="24" y="129.6875"/><rect fill="#FFFFFF" height="250.4844" style="stroke:#A80036;stroke-width:1.0;" width="10" x="152" y="153.998"/><rect fill="#FFFFFF" height="389.6924" style="stroke:#A80036;stroke-width:1.0;" width="10" x="152" y="486.7588"/><rect fill="#FFFFFF" height="71.6211" style="stroke:#A80036;stroke-width:1.0;" width="10" x="306" y="526.7246"/><rect fill="#FFFFFF" height="146.5527" style="stroke:#A80036;stroke-width:1.0;" width="10" x="434" y="186.3086"/><rect fill="#FFFFFF" height="161.8633" style="stroke:#A80036;stroke-width:1.0;" width="10" x="434" y="642.9668"/><rect fill="#FFFFFF" height="87.9316" style="stroke:#A80036;stroke-width:1.0;" width="10" x="585" y="215.6191"/><rect fill="#FFFFFF" height="87.9316" style="stroke:#A80036;stroke-width:1.0;" width="10" x="585" y="687.5879"/><rect fill="#FFFFFF" height="29.3105" style="stroke:#A80036;stroke-width:1.0;" width="10" x="710" y="244.9297"/><rect fill="#FFFFFF" height="29.3105" style="stroke:#A80036;stroke-width:1.0;" width="10" x="710" y="716.8984"/><polygon fill="#A80036" points="140,149.998,150,153.998,140,157.998,144,153.998" style="stroke:#A80036;stroke-width:1.0;"/><line style="stroke:#A80036;stroke-width:1.0;" x1="34" x2="146" y1="153.998" y2="153.998"/><text fill="#000000" font-family="sans-serif" font-size="13" lengthAdjust="spacing" textLength="99" x="41" y="149.2559">form(productId)</text><path d="M167,134.6875 L167,159.6875 L266,159.6875 L266,144.6875 L256,134.6875 L167,134.6875 " fill="#FBFB77" style="stroke:#A80036;stroke-width:1.0;"/><path d="M256,134.6875 L256,144.6875 L266,144.6875 L256,134.6875 " fill="#FBFB77" style="stroke:#A80036;stroke-width:1.0;"/><text fill="#000000" font-family="sans-serif" font-size="13" lengthAdjust="spacing" textLength="78" x="173" y="152.2559">商品情報取得</text><polygon fill="#A80036" points="422,182.3086,432,186.3086,422,190.3086,426,186.3086" style="stroke:#A80036;stroke-width:1.0;"/><line style="stroke:#A80036;stroke-width:1.0;" x1="162" x2="428" y1="186.3086" y2="186.3086"/><text fill="#000000" font-family="sans-serif" font-size="13" lengthAdjust="spacing" textLength="120" x="169" y="181.5664">findById(productId)</text><polygon fill="#A80036" points="573,211.6191,583,215.6191,573,219.6191,577,215.6191" style="stroke:#A80036;stroke-width:1.0;"/><line style="stroke:#A80036;stroke-width:1.0;" x1="444" x2="579" y1="215.6191" y2="215.6191"/><text fill="#000000" font-family="sans-serif" font-size="13" lengthAdjust="spacing" textLength="120" x="451" y="210.877">findById(productId)</text><polygon fill="#A80036" points="698,240.9297,708,244.9297,698,248.9297,702,244.9297" style="stroke:#A80036;stroke-width:1.0;"/><line style="stroke:#A80036;stroke-width:1.0;" x1="595" x2="704" y1="244.9297" y2="244.9297"/><text fill="#000000" font-family="sans-serif" font-size="13" lengthAdjust="spacing" textLength="58" x="602" y="240.1875">SELECT文</text><polygon fill="#A80036" points="606,270.2402,596,274.2402,606,278.2402,602,274.2402" style="stroke:#A80036;stroke-width:1.0;"/><line style="stroke:#A80036;stroke-width:1.0;stroke-dasharray:2.0,2.0;" x1="600" x2="714" y1="274.2402" y2="274.2402"/><text fill="#000000" font-family="sans-serif" font-size="13" lengthAdjust="spacing" textLength="48" x="612" y="269.498">Product</text><polygon fill="#A80036" points="455,299.5508,445,303.5508,455,307.5508,451,303.5508" style="stroke:#A80036;stroke-width:1.0;"/><line style="stroke:#A80036;stroke-width:1.0;stroke-dasharray:2.0,2.0;" x1="449" x2="589" y1="303.5508" y2="303.5508"/><text fill="#000000" font-family="sans-serif" font-size="13" lengthAdjust="spacing" textLength="48" x="461" y="298.8086">Product</text><polygon fill="#A80036" points="173,328.8613,163,332.8613,173,336.8613,169,332.8613" style="stroke:#A80036;stroke-width:1.0;"/><line style="stroke:#A80036;stroke-width:1.0;stroke-dasharray:2.0,2.0;" x1="167" x2="438" y1="332.8613" y2="332.8613"/><text fill="#000000" font-family="sans-serif" font-size="13" lengthAdjust="spacing" textLength="48" x="179" y="328.1191">Product</text><line style="stroke:#A80036;stroke-width:1.0;" x1="162" x2="204" y1="362.1719" y2="362.1719"/><line style="stroke:#A80036;stroke-width:1.0;" x1="204" x2="204" y1="362.1719" y2="375.1719"/><line style="stroke:#A80036;stroke-width:1.0;" x1="163" x2="204" y1="375.1719" y2="375.1719"/><polygon fill="#A80036" points="173,371.1719,163,375.1719,173,379.1719,169,375.1719" style="stroke:#A80036;stroke-width:1.0;"/><text fill="#000000" font-family="sans-serif" font-size="13" lengthAdjust="spacing" textLength="120" x="169" y="357.4297">Model追加(Product)</text><polygon fill="#A80036" points="45,400.4824,35,404.4824,45,408.4824,41,404.4824" style="stroke:#A80036;stroke-width:1.0;"/><line style="stroke:#A80036;stroke-width:1.0;" x1="39" x2="156" y1="404.4824" y2="404.4824"/><text fill="#000000" font-family="sans-serif" font-size="13" lengthAdjust="spacing" textLength="52" x="51" y="399.7402">入力画面</text><line style="stroke:#A80036;stroke-width:1.0;" x1="34" x2="76" y1="433.793" y2="433.793"/><line style="stroke:#A80036;stroke-width:1.0;" x1="76" x2="76" y1="433.793" y2="446.793"/><line style="stroke:#A80036;stroke-width:1.0;" x1="35" x2="76" y1="446.793" y2="446.793"/><polygon fill="#A80036" points="45,442.793,35,446.793,45,450.793,41,446.793" style="stroke:#A80036;stroke-width:1.0;"/><text fill="#000000" font-family="sans-serif" font-size="13" lengthAdjust="spacing" textLength="52" x="41" y="429.0508">個数入力</text><polygon fill="#A80036" points="140,482.7588,150,486.7588,140,490.7588,144,486.7588" style="stroke:#A80036;stroke-width:1.0;"/><line style="stroke:#A80036;stroke-width:1.0;" x1="34" x2="146" y1="486.7588" y2="486.7588"/><text fill="#000000" font-family="sans-serif" font-size="13" lengthAdjust="spacing" textLength="57" x="41" y="482.0166">confirm()</text><path d="M167,459.793 L167,499.793 L370,499.793 L370,469.793 L360,459.793 L167,459.793 " fill="#FBFB77" style="stroke:#A80036;stroke-width:1.0;"/><path d="M360,459.793 L360,469.793 L370,469.793 L360,459.793 " fill="#FBFB77" style="stroke:#A80036;stroke-width:1.0;"/><text fill="#000000" font-family="sans-serif" font-size="13" lengthAdjust="spacing" textLength="182" x="173" y="477.3613">カートに入れた商品の在庫数を</text><text fill="#000000" font-family="sans-serif" font-size="13" lengthAdjust="spacing" textLength="182" x="173" y="492.6719">取得してプルダウン項目を生成</text><polygon fill="#A80036" points="294,522.7246,304,526.7246,294,530.7246,298,526.7246" style="stroke:#A80036;stroke-width:1.0;"/><line style="stroke:#A80036;stroke-width:1.0;" x1="162" x2="300" y1="526.7246" y2="526.7246"/><text fill="#000000" font-family="sans-serif" font-size="13" lengthAdjust="spacing" textLength="79" x="169" y="521.9824">add(Product)</text><line style="stroke:#A80036;stroke-width:1.0;" x1="316" x2="358" y1="556.0352" y2="556.0352"/><line style="stroke:#A80036;stroke-width:1.0;" x1="358" x2="358" y1="556.0352" y2="569.0352"/><line style="stroke:#A80036;stroke-width:1.0;" x1="317" x2="358" y1="569.0352" y2="569.0352"/><polygon fill="#A80036" points="327,565.0352,317,569.0352,327,573.0352,323,569.0352" style="stroke:#A80036;stroke-width:1.0;"/><text fill="#000000" font-family="sans-serif" font-size="13" lengthAdjust="spacing" textLength="104" x="323" y="551.293">カートに商品追加</text><polygon fill="#A80036" points="173,594.3457,163,598.3457,173,602.3457,169,598.3457" style="stroke:#A80036;stroke-width:1.0;"/><line style="stroke:#A80036;stroke-width:1.0;stroke-dasharray:2.0,2.0;" x1="167" x2="310" y1="598.3457" y2="598.3457"/><text fill="#000000" font-family="sans-serif" font-size="13" lengthAdjust="spacing" textLength="27" x="179" y="593.6035">void</text><polygon fill="#A80036" points="422,638.9668,432,642.9668,422,646.9668,426,642.9668" style="stroke:#A80036;stroke-width:1.0;"/><line style="stroke:#A80036;stroke-width:1.0;" x1="162" x2="428" y1="642.9668" y2="642.9668"/><text fill="#000000" font-family="sans-serif" font-size="13" lengthAdjust="spacing" textLength="122" x="169" y="622.9141">selectByProductList</text><text fill="#000000" font-family="sans-serif" font-size="13" lengthAdjust="spacing" textLength="99" x="169" y="638.2246">(List&lt;Product&gt;)</text><polygon fill="#A80036" points="573,683.5879,583,687.5879,573,691.5879,577,687.5879" style="stroke:#A80036;stroke-width:1.0;"/><line style="stroke:#A80036;stroke-width:1.0;" x1="444" x2="579" y1="687.5879" y2="687.5879"/><text fill="#000000" font-family="sans-serif" font-size="13" lengthAdjust="spacing" textLength="122" x="451" y="667.5352">selectByProductList</text><text fill="#000000" font-family="sans-serif" font-size="13" lengthAdjust="spacing" textLength="99" x="451" y="682.8457">(List&lt;Product&gt;)</text><polygon fill="#A80036" points="698,712.8984,708,716.8984,698,720.8984,702,716.8984" style="stroke:#A80036;stroke-width:1.0;"/><line style="stroke:#A80036;stroke-width:1.0;" x1="595" x2="704" y1="716.8984" y2="716.8984"/><text fill="#000000" font-family="sans-serif" font-size="13" lengthAdjust="spacing" textLength="77" x="602" y="712.1563">SQL(SELECT)</text><polygon fill="#A80036" points="606,742.209,596,746.209,606,750.209,602,746.209" style="stroke:#A80036;stroke-width:1.0;"/><line style="stroke:#A80036;stroke-width:1.0;stroke-dasharray:2.0,2.0;" x1="600" x2="714" y1="746.209" y2="746.209"/><text fill="#000000" font-family="sans-serif" font-size="13" lengthAdjust="spacing" textLength="91" x="612" y="741.4668">List&lt;Product&gt;</text><polygon fill="#A80036" points="455,771.5195,445,775.5195,455,779.5195,451,775.5195" style="stroke:#A80036;stroke-width:1.0;"/><line style="stroke:#A80036;stroke-width:1.0;stroke-dasharray:2.0,2.0;" x1="449" x2="589" y1="775.5195" y2="775.5195"/><text fill="#000000" font-family="sans-serif" font-size="13" lengthAdjust="spacing" textLength="91" x="461" y="770.7773">List&lt;Product&gt;</text><polygon fill="#A80036" points="173,800.8301,163,804.8301,173,808.8301,169,804.8301" style="stroke:#A80036;stroke-width:1.0;"/><line style="stroke:#A80036;stroke-width:1.0;stroke-dasharray:2.0,2.0;" x1="167" x2="438" y1="804.8301" y2="804.8301"/><text fill="#000000" font-family="sans-serif" font-size="13" lengthAdjust="spacing" textLength="91" x="179" y="800.0879">List&lt;Product&gt;</text><line style="stroke:#A80036;stroke-width:1.0;" x1="162" x2="204" y1="834.1406" y2="834.1406"/><line style="stroke:#A80036;stroke-width:1.0;" x1="204" x2="204" y1="834.1406" y2="847.1406"/><line style="stroke:#A80036;stroke-width:1.0;" x1="163" x2="204" y1="847.1406" y2="847.1406"/><polygon fill="#A80036" points="173,843.1406,163,847.1406,173,851.1406,169,847.1406" style="stroke:#A80036;stroke-width:1.0;"/><text fill="#000000" font-family="sans-serif" font-size="13" lengthAdjust="spacing" textLength="130" x="169" y="829.3984">個数のプルダウン生成</text><polygon fill="#A80036" points="45,872.4512,35,876.4512,45,880.4512,41,876.4512" style="stroke:#A80036;stroke-width:1.0;"/><line style="stroke:#A80036;stroke-width:1.0;" x1="39" x2="156" y1="876.4512" y2="876.4512"/><text fill="#000000" font-family="sans-serif" font-size="13" lengthAdjust="spacing" textLength="65" x="51" y="871.709">カート画面</text><!--MD5=[812bbc40dfdedc86b00cdb1c2bc30c48]
@startuml
skin rose
skinparam shadowing false
hide empty methods
hide empty fields
skin rose
title UC004: 購入確認機能 シーケンス図
skinparam shadowing false
actor "ユーザ" as user
activate user
participant "PurchaseController" as ctrl
' participant "PurchaseForm" as form
participant "Cart" as cart
participant "ProductService" as svc
participant "ProductRepository" as repo
database DB as db

' 入力画面
user -> ctrl ++ : form(productId)
note right: 商品情報取得
ctrl -> svc ++ : findById(productId)
svc -> repo ++ : findById(productId)
repo -> db ++ : SELECT文
db - -> repo - - : Product
repo - -> svc - - : Product
svc - -> ctrl - - : Product
' ctrl -> form : エンティティから\nフォームに変換
' ctrl <- - form : PurchaseForm
ctrl -> ctrl : Model追加(Product)
ctrl -> user - - : 入力画面

' 確認画面
user -> user : 個数入力
user -> ctrl ++ : confirm()
note right: カートに入れた商品の在庫数を\n取得してプルダウン項目を生成
ctrl -> cart ++ : add(Product)
cart -> cart : カートに商品追加
ctrl <- - cart - - : void
ctrl -> svc ++ : selectByProductList\n(List<Product>)
svc -> repo ++ : selectByProductList\n(List<Product>)
repo -> db ++ : SQL(SELECT)
repo <- - db - - : List<Product>
svc <- - repo - - : List<Product> 
ctrl <- - svc - - : List<Product>
ctrl -> ctrl : 個数のプルダウン生成
ctrl -> user - - : カート画面

@enduml

@startuml
skin rose
skinparam shadowing false
hide empty methods
hide empty fields
skin rose
title UC004: 購入確認機能 シーケンス図
skinparam shadowing false
actor "ユーザ" as user
activate user
participant "PurchaseController" as ctrl
participant "Cart" as cart
participant "ProductService" as svc
participant "ProductRepository" as repo
database DB as db

user -> ctrl ++ : form(productId)
note right: 商品情報取得
ctrl -> svc ++ : findById(productId)
svc -> repo ++ : findById(productId)
repo -> db ++ : SELECT文
db - -> repo - - : Product
repo - -> svc - - : Product
svc - -> ctrl - - : Product
ctrl -> ctrl : Model追加(Product)
ctrl -> user - - : 入力画面

user -> user : 個数入力
user -> ctrl ++ : confirm()
note right: カートに入れた商品の在庫数を\n取得してプルダウン項目を生成
ctrl -> cart ++ : add(Product)
cart -> cart : カートに商品追加
ctrl <- - cart - - : void
ctrl -> svc ++ : selectByProductList\n(List<Product>)
svc -> repo ++ : selectByProductList\n(List<Product>)
repo -> db ++ : SQL(SELECT)
repo <- - db - - : List<Product>
svc <- - repo - - : List<Product> 
ctrl <- - svc - - : List<Product>
ctrl -> ctrl : 個数のプルダウン生成
ctrl -> user - - : カート画面

@enduml

PlantUML version 1.2022.0(Wed Jan 12 01:16:42 JST 2022)
(GPL source distribution)
Java Runtime: OpenJDK Runtime Environment
JVM: OpenJDK 64-Bit Server VM
Default Encoding: UTF-8
Language: ja
Country: JP
--></g></svg>