<?xml version="1.0" encoding="UTF-8" standalone="no"?><svg xmlns="http://www.w3.org/2000/svg" xmlns:xlink="http://www.w3.org/1999/xlink" contentScriptType="application/ecmascript" contentStyleType="text/css" height="139px" preserveAspectRatio="none" style="width:317px;height:139px;background:#FFFFFF;" version="1.1" viewBox="0 0 317 139" width="317px" zoomAndPan="magnify"><defs/><g><text fill="#000000" font-family="sans-serif" font-size="18" lengthAdjust="spacing" textLength="122" x="91" y="17.4023">aopパッケージ</text><!--MD5=[9feedbae695d32c132c17364b1c0acc2]
cluster aop--><polygon fill="#FFFFFF" points="16,27.1992,48,27.1992,55,49.6875,300,49.6875,300,132.1992,16,132.1992,16,27.1992" style="stroke:#000000;stroke-width:1.5;"/><line style="stroke:#000000;stroke-width:1.5;" x1="16" x2="55" y1="49.6875" y2="49.6875"/><text fill="#000000" font-family="sans-serif" font-size="14" font-weight="bold" lengthAdjust="spacing" textLength="26" x="20" y="42.7344">aop</text><!--MD5=[e1aaee1b0a4fe865efbd3cc9c86e2fee]
class AppAdvice--><rect codeLine="6" fill="#FEFECE" height="52.9551" id="AppAdvice" style="stroke:#A80036;stroke-width:1.5;" width="252" x="32" y="62.6992"/><ellipse cx="122.75" cy="78.6992" fill="#ADD1B2" rx="11" ry="11" style="stroke:#A80036;stroke-width:1.0;"/><path d="M125.2231,84.8423 Q124.6421,85.1411 124.0029,85.2905 Q123.3638,85.4399 122.6582,85.4399 Q120.1514,85.4399 118.8315,83.7881 Q117.5117,82.1362 117.5117,79.0151 Q117.5117,75.8857 118.8315,74.2339 Q120.1514,72.582 122.6582,72.582 Q123.3638,72.582 124.0112,72.7314 Q124.6587,72.8809 125.2231,73.1797 L125.2231,75.9023 Q124.5923,75.3213 123.9988,75.0515 Q123.4053,74.7817 122.7744,74.7817 Q121.4297,74.7817 120.7449,75.8484 Q120.0601,76.915 120.0601,79.0151 Q120.0601,81.1069 120.7449,82.1736 Q121.4297,83.2402 122.7744,83.2402 Q123.4053,83.2402 123.9988,82.9705 Q124.5923,82.7007 125.2231,82.1196 Z " fill="#000000"/><text fill="#000000" font-family="sans-serif" font-size="12" lengthAdjust="spacing" textLength="62" x="143.25" y="83.2344">AppAdvice</text><line style="stroke:#A80036;stroke-width:1.5;" x1="33" x2="283" y1="94.6992" y2="94.6992"/><text fill="#000000" font-family="sans-serif" font-size="11" lengthAdjust="spacing" textLength="240" x="38" y="109.334">aroundAdvice(ProceedingJoinPoint joinPoint)</text><!--MD5=[a947dc1b63cccebf170378dfdcdbc500]
@startuml
skin rose
skinparam shadowing false
hide empty methods
hide empty fields

title aopパッケージ
left to right direction

package aop{
    class AppAdvice{
        aroundAdvice(ProceedingJoinPoint joinPoint)
    }
}
@enduml

PlantUML version 1.2022.0(Wed Jan 12 01:16:42 JST 2022)
(GPL source distribution)
Java Runtime: OpenJDK Runtime Environment
JVM: OpenJDK 64-Bit Server VM
Default Encoding: UTF-8
Language: ja
Country: JP
--></g></svg>