<?xml version="1.0" encoding="us-ascii" standalone="no"?><svg xmlns="http://www.w3.org/2000/svg" xmlns:xlink="http://www.w3.org/1999/xlink" contentStyleType="text/css" height="984px" preserveAspectRatio="none" style="width:888px;height:984px;background:#FFFFFF;" version="1.1" viewBox="0 0 888 984" width="888px" zoomAndPan="magnify"><defs/><g><text fill="#000000" font-family="sans-serif" font-size="14" font-weight="bold" lengthAdjust="spacing" textLength="197" x="339" y="27.9951">UC016: &#27880;&#25991;&#12473;&#12486;&#12540;&#12479;&#12473;&#26356;&#26032;</text><rect fill="#FFFFFF" height="234.1953" style="stroke:#A80036;stroke-width:1.0;" width="10" x="242" y="167.8594"/><rect fill="#FFFFFF" height="29.1328" style="stroke:#A80036;stroke-width:1.0;" width="10" x="242" y="488.4531"/><rect fill="#FFFFFF" height="234.1953" style="stroke:#A80036;stroke-width:1.0;" width="10" x="242" y="561.8516"/><rect fill="#FFFFFF" height="44.2656" style="stroke:#A80036;stroke-width:1.0;" width="10" x="242" y="840.3125"/><rect fill="#FFFFFF" height="160.7969" style="stroke:#A80036;stroke-width:1.0;" width="10" x="419" y="196.9922"/><rect fill="#FFFFFF" height="160.7969" style="stroke:#A80036;stroke-width:1.0;" width="10" x="419" y="606.1172"/><rect fill="#FFFFFF" height="102.5313" style="stroke:#A80036;stroke-width:1.0;" width="10" x="550" y="226.125"/><rect fill="#FFFFFF" height="87.3984" style="stroke:#A80036;stroke-width:1.0;" width="10" x="717" y="650.3828"/><rect fill="#FFFFFF" height="29.1328" style="stroke:#A80036;stroke-width:1.0;" width="10" x="848" y="270.3906"/><rect fill="#FFFFFF" height="29.1328" style="stroke:#A80036;stroke-width:1.0;" width="10" x="848" y="679.5156"/><line style="stroke:#A80036;stroke-width:1.0;stroke-dasharray:5.0,5.0;" x1="22" x2="22" y1="121.5938" y2="902.5781"/><line style="stroke:#A80036;stroke-width:1.0;stroke-dasharray:5.0,5.0;" x1="247" x2="247" y1="121.5938" y2="902.5781"/><line style="stroke:#A80036;stroke-width:1.0;stroke-dasharray:5.0,5.0;" x1="424" x2="424" y1="121.5938" y2="902.5781"/><line style="stroke:#A80036;stroke-width:1.0;stroke-dasharray:5.0,5.0;" x1="555" x2="555" y1="121.5938" y2="902.5781"/><line style="stroke:#A80036;stroke-width:1.0;stroke-dasharray:5.0,5.0;" x1="722" x2="722" y1="121.5938" y2="902.5781"/><line style="stroke:#A80036;stroke-width:1.0;stroke-dasharray:5.0,5.0;" x1="853" x2="853" y1="121.5938" y2="902.5781"/><text fill="#000000" font-family="sans-serif" font-size="14" lengthAdjust="spacing" textLength="28" x="5" y="118.292">&#39015;&#23458;</text><ellipse cx="22" cy="52.2969" fill="#FEFECE" rx="8" ry="8" style="stroke:#A80036;stroke-width:2.0;"/><path d="M22,60.2969 L22,87.2969 M9,68.2969 L35,68.2969 M22,87.2969 L9,102.2969 M22,87.2969 L35,102.2969 " fill="none" style="stroke:#A80036;stroke-width:2.0;"/><text fill="#000000" font-family="sans-serif" font-size="14" lengthAdjust="spacing" textLength="28" x="5" y="914.5732">&#39015;&#23458;</text><ellipse cx="22" cy="927.875" fill="#FEFECE" rx="8" ry="8" style="stroke:#A80036;stroke-width:2.0;"/><path d="M22,935.875 L22,962.875 M9,943.875 L35,943.875 M22,962.875 L9,977.875 M22,962.875 L35,977.875 " fill="none" style="stroke:#A80036;stroke-width:2.0;"/><rect fill="#FEFECE" height="30.2969" style="stroke:#A80036;stroke-width:1.5;" width="226" x="134" y="90.2969"/><text fill="#000000" font-family="sans-serif" font-size="14" lengthAdjust="spacing" textLength="212" x="141" y="110.292">OrderStatusUpdateController</text><rect fill="#FEFECE" height="30.2969" style="stroke:#A80036;stroke-width:1.5;" width="226" x="134" y="901.5781"/><text fill="#000000" font-family="sans-serif" font-size="14" lengthAdjust="spacing" textLength="212" x="141" y="921.5732">OrderStatusUpdateController</text><rect fill="#FEFECE" height="30.2969" style="stroke:#A80036;stroke-width:1.5;" width="108" x="370" y="90.2969"/><text fill="#000000" font-family="sans-serif" font-size="14" lengthAdjust="spacing" textLength="94" x="377" y="110.292">OrderService</text><rect fill="#FEFECE" height="30.2969" style="stroke:#A80036;stroke-width:1.5;" width="108" x="370" y="901.5781"/><text fill="#000000" font-family="sans-serif" font-size="14" lengthAdjust="spacing" textLength="94" x="377" y="921.5732">OrderService</text><rect fill="#FEFECE" height="30.2969" style="stroke:#A80036;stroke-width:1.5;" width="134" x="488" y="90.2969"/><text fill="#000000" font-family="sans-serif" font-size="14" lengthAdjust="spacing" textLength="120" x="495" y="110.292">OrderRepository</text><rect fill="#FEFECE" height="30.2969" style="stroke:#A80036;stroke-width:1.5;" width="134" x="488" y="901.5781"/><text fill="#000000" font-family="sans-serif" font-size="14" lengthAdjust="spacing" textLength="120" x="495" y="921.5732">OrderRepository</text><rect fill="#FEFECE" height="30.2969" style="stroke:#A80036;stroke-width:1.5;" width="180" x="632" y="90.2969"/><text fill="#000000" font-family="sans-serif" font-size="14" lengthAdjust="spacing" textLength="166" x="639" y="110.292">OrderStatusRepository</text><rect fill="#FEFECE" height="30.2969" style="stroke:#A80036;stroke-width:1.5;" width="180" x="632" y="901.5781"/><text fill="#000000" font-family="sans-serif" font-size="14" lengthAdjust="spacing" textLength="166" x="639" y="921.5732">OrderStatusRepository</text><text fill="#000000" font-family="sans-serif" font-size="14" lengthAdjust="spacing" textLength="21" x="839.5" y="118.292">DB</text><path d="M835,69.2969 C835,59.2969 853,59.2969 853,59.2969 C853,59.2969 871,59.2969 871,69.2969 L871,95.2969 C871,105.2969 853,105.2969 853,105.2969 C853,105.2969 835,105.2969 835,95.2969 L835,69.2969 " fill="#FEFECE" style="stroke:#A80036;stroke-width:1.5;"/><path d="M835,69.2969 C835,79.2969 853,79.2969 853,79.2969 C853,79.2969 871,79.2969 871,69.2969 " fill="none" style="stroke:#A80036;stroke-width:1.5;"/><text fill="#000000" font-family="sans-serif" font-size="14" lengthAdjust="spacing" textLength="21" x="839.5" y="914.5732">DB</text><path d="M835,927.875 C835,917.875 853,917.875 853,917.875 C853,917.875 871,917.875 871,927.875 L871,953.875 C871,963.875 853,963.875 853,963.875 C853,963.875 835,963.875 835,953.875 L835,927.875 " fill="#FEFECE" style="stroke:#A80036;stroke-width:1.5;"/><path d="M835,927.875 C835,937.875 853,937.875 853,937.875 C853,937.875 871,937.875 871,927.875 " fill="none" style="stroke:#A80036;stroke-width:1.5;"/><rect fill="#FFFFFF" height="234.1953" style="stroke:#A80036;stroke-width:1.0;" width="10" x="242" y="167.8594"/><rect fill="#FFFFFF" height="29.1328" style="stroke:#A80036;stroke-width:1.0;" width="10" x="242" y="488.4531"/><rect fill="#FFFFFF" height="234.1953" style="stroke:#A80036;stroke-width:1.0;" width="10" x="242" y="561.8516"/><rect fill="#FFFFFF" height="44.2656" style="stroke:#A80036;stroke-width:1.0;" width="10" x="242" y="840.3125"/><rect fill="#FFFFFF" height="160.7969" style="stroke:#A80036;stroke-width:1.0;" width="10" x="419" y="196.9922"/><rect fill="#FFFFFF" height="160.7969" style="stroke:#A80036;stroke-width:1.0;" width="10" x="419" y="606.1172"/><rect fill="#FFFFFF" height="102.5313" style="stroke:#A80036;stroke-width:1.0;" width="10" x="550" y="226.125"/><rect fill="#FFFFFF" height="87.3984" style="stroke:#A80036;stroke-width:1.0;" width="10" x="717" y="650.3828"/><rect fill="#FFFFFF" height="29.1328" style="stroke:#A80036;stroke-width:1.0;" width="10" x="848" y="270.3906"/><rect fill="#FFFFFF" height="29.1328" style="stroke:#A80036;stroke-width:1.0;" width="10" x="848" y="679.5156"/><polygon fill="#A80036" points="230,163.8594,240,167.8594,230,171.8594,234,167.8594" style="stroke:#A80036;stroke-width:1.0;"/><line style="stroke:#A80036;stroke-width:1.0;" x1="22" x2="236" y1="167.8594" y2="167.8594"/><text fill="#000000" font-family="sans-serif" font-size="13" lengthAdjust="spacing" textLength="26" x="29" y="147.6606">GET</text><text fill="#000000" font-family="sans-serif" font-size="13" lengthAdjust="spacing" textLength="96" x="29" y="162.7935">/backend/order</text><polygon fill="#A80036" points="407,192.9922,417,196.9922,407,200.9922,411,196.9922" style="stroke:#A80036;stroke-width:1.0;"/><line style="stroke:#A80036;stroke-width:1.0;" x1="252" x2="413" y1="196.9922" y2="196.9922"/><text fill="#000000" font-family="sans-serif" font-size="13" lengthAdjust="spacing" textLength="89" x="259" y="191.9263">getOrderList()</text><polygon fill="#A80036" points="538,222.125,548,226.125,538,230.125,542,226.125" style="stroke:#A80036;stroke-width:1.0;"/><line style="stroke:#A80036;stroke-width:1.0;" x1="429" x2="544" y1="226.125" y2="226.125"/><text fill="#000000" font-family="sans-serif" font-size="13" lengthAdjust="spacing" textLength="63" x="436" y="221.0591">selectAll()</text><polygon fill="#A80036" points="836,266.3906,846,270.3906,836,274.3906,840,270.3906" style="stroke:#A80036;stroke-width:1.0;"/><line style="stroke:#A80036;stroke-width:1.0;" x1="560" x2="842" y1="270.3906" y2="270.3906"/><text fill="#000000" font-family="sans-serif" font-size="13" lengthAdjust="spacing" textLength="48" x="567" y="250.1919">SELECT</text><text fill="#000000" font-family="sans-serif" font-size="13" lengthAdjust="spacing" textLength="157" x="567" y="265.3247">ORDER, ORDER_STATUS</text><polygon fill="#A80036" points="571,295.5234,561,299.5234,571,303.5234,567,299.5234" style="stroke:#A80036;stroke-width:1.0;"/><line style="stroke:#A80036;stroke-width:1.0;stroke-dasharray:2.0,2.0;" x1="565" x2="852" y1="299.5234" y2="299.5234"/><text fill="#000000" font-family="sans-serif" font-size="13" lengthAdjust="spacing" textLength="78" x="577" y="294.4575">List&lt;Order&gt;</text><polygon fill="#A80036" points="440,324.6563,430,328.6563,440,332.6563,436,328.6563" style="stroke:#A80036;stroke-width:1.0;"/><line style="stroke:#A80036;stroke-width:1.0;stroke-dasharray:2.0,2.0;" x1="434" x2="554" y1="328.6563" y2="328.6563"/><text fill="#000000" font-family="sans-serif" font-size="13" lengthAdjust="spacing" textLength="78" x="446" y="323.5903">List&lt;Order&gt;</text><polygon fill="#A80036" points="263,353.7891,253,357.7891,263,361.7891,259,357.7891" style="stroke:#A80036;stroke-width:1.0;"/><line style="stroke:#A80036;stroke-width:1.0;stroke-dasharray:2.0,2.0;" x1="257" x2="423" y1="357.7891" y2="357.7891"/><text fill="#000000" font-family="sans-serif" font-size="13" lengthAdjust="spacing" textLength="78" x="269" y="352.7231">List&lt;Order&gt;</text><polygon fill="#A80036" points="33,398.0547,23,402.0547,33,406.0547,29,402.0547" style="stroke:#A80036;stroke-width:1.0;"/><line style="stroke:#A80036;stroke-width:1.0;stroke-dasharray:2.0,2.0;" x1="27" x2="246" y1="402.0547" y2="402.0547"/><text fill="#000000" font-family="sans-serif" font-size="13" lengthAdjust="spacing" textLength="91" x="39" y="381.856">&#27880;&#25991;&#12473;&#12486;&#12540;&#12479;&#12473;</text><text fill="#000000" font-family="sans-serif" font-size="13" lengthAdjust="spacing" textLength="52" x="39" y="396.9888">&#19968;&#35239;&#30011;&#38754;</text><line style="stroke:#A80036;stroke-width:1.0;" x1="22" x2="64" y1="431.1875" y2="431.1875"/><line style="stroke:#A80036;stroke-width:1.0;" x1="64" x2="64" y1="431.1875" y2="444.1875"/><line style="stroke:#A80036;stroke-width:1.0;" x1="23" x2="64" y1="444.1875" y2="444.1875"/><polygon fill="#A80036" points="33,440.1875,23,444.1875,33,448.1875,29,444.1875" style="stroke:#A80036;stroke-width:1.0;"/><text fill="#000000" font-family="sans-serif" font-size="13" lengthAdjust="spacing" textLength="117" x="29" y="426.1216">&#27880;&#25991;&#12473;&#12486;&#12540;&#12479;&#12473;&#26356;&#26032;</text><polygon fill="#A80036" points="230,484.4531,240,488.4531,230,492.4531,234,488.4531" style="stroke:#A80036;stroke-width:1.0;"/><line style="stroke:#A80036;stroke-width:1.0;" x1="22" x2="236" y1="488.4531" y2="488.4531"/><text fill="#000000" font-family="sans-serif" font-size="13" lengthAdjust="spacing" textLength="26" x="29" y="468.2544">GET</text><text fill="#000000" font-family="sans-serif" font-size="13" lengthAdjust="spacing" textLength="149" x="29" y="483.3872">/backend/order/confirm</text><polygon fill="#A80036" points="33,513.5859,23,517.5859,33,521.5859,29,517.5859" style="stroke:#A80036;stroke-width:1.0;"/><line style="stroke:#A80036;stroke-width:1.0;" x1="27" x2="246" y1="517.5859" y2="517.5859"/><text fill="#000000" font-family="sans-serif" font-size="13" lengthAdjust="spacing" textLength="52" x="39" y="512.52">&#30906;&#35469;&#30011;&#38754;</text><polygon fill="#A80036" points="230,557.8516,240,561.8516,230,565.8516,234,561.8516" style="stroke:#A80036;stroke-width:1.0;"/><line style="stroke:#A80036;stroke-width:1.0;" x1="22" x2="236" y1="561.8516" y2="561.8516"/><text fill="#000000" font-family="sans-serif" font-size="13" lengthAdjust="spacing" textLength="34" x="29" y="541.6528">POST</text><text fill="#000000" font-family="sans-serif" font-size="13" lengthAdjust="spacing" textLength="201" x="29" y="556.7856">/backend/order/update/execute</text><polygon fill="#A80036" points="407,602.1172,417,606.1172,407,610.1172,411,606.1172" style="stroke:#A80036;stroke-width:1.0;"/><line style="stroke:#A80036;stroke-width:1.0;" x1="252" x2="413" y1="606.1172" y2="606.1172"/><text fill="#000000" font-family="sans-serif" font-size="13" lengthAdjust="spacing" textLength="122" x="259" y="585.9185">updateOrderStatus</text><text fill="#000000" font-family="sans-serif" font-size="13" lengthAdjust="spacing" textLength="134" x="259" y="601.0513">(orderId,orderStatus)</text><polygon fill="#A80036" points="705,646.3828,715,650.3828,705,654.3828,709,650.3828" style="stroke:#A80036;stroke-width:1.0;"/><line style="stroke:#A80036;stroke-width:1.0;" x1="429" x2="711" y1="650.3828" y2="650.3828"/><text fill="#000000" font-family="sans-serif" font-size="13" lengthAdjust="spacing" textLength="45" x="436" y="630.1841">update</text><text fill="#000000" font-family="sans-serif" font-size="13" lengthAdjust="spacing" textLength="134" x="436" y="645.3169">(orderId,orderStatus)</text><polygon fill="#A80036" points="836,675.5156,846,679.5156,836,683.5156,840,679.5156" style="stroke:#A80036;stroke-width:1.0;"/><line style="stroke:#A80036;stroke-width:1.0;" x1="727" x2="842" y1="679.5156" y2="679.5156"/><text fill="#000000" font-family="sans-serif" font-size="13" lengthAdjust="spacing" textLength="102" x="734" y="674.4497">UPDATE ORDER</text><polygon fill="#A80036" points="738,704.6484,728,708.6484,738,712.6484,734,708.6484" style="stroke:#A80036;stroke-width:1.0;"/><line style="stroke:#A80036;stroke-width:1.0;stroke-dasharray:2.0,2.0;" x1="732" x2="852" y1="708.6484" y2="708.6484"/><text fill="#000000" font-family="sans-serif" font-size="13" lengthAdjust="spacing" textLength="27" x="744" y="703.5825">void</text><polygon fill="#A80036" points="440,733.7813,430,737.7813,440,741.7813,436,737.7813" style="stroke:#A80036;stroke-width:1.0;"/><line style="stroke:#A80036;stroke-width:1.0;stroke-dasharray:2.0,2.0;" x1="434" x2="721" y1="737.7813" y2="737.7813"/><text fill="#000000" font-family="sans-serif" font-size="13" lengthAdjust="spacing" textLength="27" x="446" y="732.7153">void</text><polygon fill="#A80036" points="263,762.9141,253,766.9141,263,770.9141,259,766.9141" style="stroke:#A80036;stroke-width:1.0;"/><line style="stroke:#A80036;stroke-width:1.0;stroke-dasharray:2.0,2.0;" x1="257" x2="423" y1="766.9141" y2="766.9141"/><text fill="#000000" font-family="sans-serif" font-size="13" lengthAdjust="spacing" textLength="27" x="269" y="761.8481">void</text><polygon fill="#A80036" points="33,792.0469,23,796.0469,33,800.0469,29,796.0469" style="stroke:#A80036;stroke-width:1.0;"/><line style="stroke:#A80036;stroke-width:1.0;stroke-dasharray:2.0,2.0;" x1="27" x2="246" y1="796.0469" y2="796.0469"/><text fill="#000000" font-family="sans-serif" font-size="13" lengthAdjust="spacing" textLength="78" x="39" y="790.981">&#12522;&#12480;&#12452;&#12524;&#12463;&#12488;</text><polygon fill="#A80036" points="230,836.3125,240,840.3125,230,844.3125,234,840.3125" style="stroke:#A80036;stroke-width:1.0;"/><line style="stroke:#A80036;stroke-width:1.0;" x1="22" x2="236" y1="840.3125" y2="840.3125"/><text fill="#000000" font-family="sans-serif" font-size="13" lengthAdjust="spacing" textLength="26" x="29" y="820.1138">GET</text><text fill="#000000" font-family="sans-serif" font-size="13" lengthAdjust="spacing" textLength="160" x="29" y="835.2466">/backend/order/complete</text><polygon fill="#A80036" points="33,880.5781,23,884.5781,33,888.5781,29,884.5781" style="stroke:#A80036;stroke-width:1.0;"/><line style="stroke:#A80036;stroke-width:1.0;stroke-dasharray:2.0,2.0;" x1="27" x2="246" y1="884.5781" y2="884.5781"/><text fill="#000000" font-family="sans-serif" font-size="13" lengthAdjust="spacing" textLength="91" x="39" y="864.3794">&#27880;&#25991;&#12473;&#12486;&#12540;&#12479;&#12473;</text><text fill="#000000" font-family="sans-serif" font-size="13" lengthAdjust="spacing" textLength="78" x="39" y="879.5122">&#26356;&#26032;&#23436;&#20102;&#30011;&#38754;</text><!--SRC=[XL91QnD16BtFhnXoghGX9WSFHGenMKGef6IJMq1cPwRjqCtCCZDRzLQoK3teJNeH3mPfIv6se8TQ1N_Cj6dxBvpzLkjgKdFQuRqtxvlllJLRGcAj34V6dnAYoH2RJSBKCo4ty3g9FME5ZJdkj-xN7opZoUV3oTvBD_hgibsNVNUZ7_uyUVTbidUA4A5MQLov-N1mUJokO69mYhod5LGaH5fSwMZ6TMY9JKq_OSJobf9MgpZc6kHqbfphRK4vy6O6t-M9Ci8FVW4INRzpvB_A1l9F814n75VQZm1Z4K8fhgvWkhY8b_7Ze3UGjOZGBIvPJULMYEQq0Ng3Mx1V5SOkt4CcPtGTACDZJcqpZZskwpd18Y32O3LeUTTEjnrqbp1ydeQzPgyV8XRXAbXKgrwPkpu4_nMmoCTE4GPmEeLJm5F0PtOsa1TdEzVx1rTllzsy7__QEiLp6lv_DZMgvBhGmoAZOlZL-FpwwCrVKuhxQvrmsY25lwB6dtEQMbxEkc1ARGxa0jnvmfRK7_Ht2utIfRkKkb7gfR_MRlQ2ee_R8XgmmhOI3CIt3G1IZXw0SkOkEtBPZXjzTDadDpfnsQlvsGsJc1TBpwkkgEFo-FN5-MuHxKy0]--></g></svg>