<svg xmlns="http://www.w3.org/2000/svg" xmlns:xlink="http://www.w3.org/1999/xlink" contentStyleType="text/css" height="984px" preserveAspectRatio="none" style="width:879px;height:984px;background:#FFFFFF;" version="1.1" viewBox="0 0 879 984" width="879px" zoomAndPan="magnify"><defs/><g><text fill="#000000" font-family="sans-serif" font-size="14" font-weight="bold" lengthAdjust="spacing" textLength="187.3383" x="339.7463" y="27.9951">UC016: &#27880;&#25991;&#12473;&#12486;&#12540;&#12479;&#12473;&#26356;&#26032;</text><rect fill="#FFFFFF" height="234.1953" style="stroke:#A80036;stroke-width:1.0;" width="10" x="246.7719" y="167.8594"/><rect fill="#FFFFFF" height="29.1328" style="stroke:#A80036;stroke-width:1.0;" width="10" x="246.7719" y="488.4531"/><rect fill="#FFFFFF" height="234.1953" style="stroke:#A80036;stroke-width:1.0;" width="10" x="246.7719" y="561.8516"/><rect fill="#FFFFFF" height="44.2656" style="stroke:#A80036;stroke-width:1.0;" width="10" x="246.7719" y="840.3125"/><rect fill="#FFFFFF" height="160.7969" style="stroke:#A80036;stroke-width:1.0;" width="10" x="418.9169" y="196.9922"/><rect fill="#FFFFFF" height="160.7969" style="stroke:#A80036;stroke-width:1.0;" width="10" x="418.9169" y="606.1172"/><rect fill="#FFFFFF" height="102.5313" style="stroke:#A80036;stroke-width:1.0;" width="10" x="546.3549" y="226.125"/><rect fill="#FFFFFF" height="87.3984" style="stroke:#A80036;stroke-width:1.0;" width="10" x="707.7641" y="650.3828"/><rect fill="#FFFFFF" height="29.1328" style="stroke:#A80036;stroke-width:1.0;" width="10" x="839.831" y="270.3906"/><rect fill="#FFFFFF" height="29.1328" style="stroke:#A80036;stroke-width:1.0;" width="10" x="839.831" y="679.5156"/><line style="stroke:#A80036;stroke-width:1.0;stroke-dasharray:5.0,5.0;" x1="21" x2="21" y1="121.5938" y2="902.5781"/><line style="stroke:#A80036;stroke-width:1.0;stroke-dasharray:5.0,5.0;" x1="251.5131" x2="251.5131" y1="121.5938" y2="902.5781"/><line style="stroke:#A80036;stroke-width:1.0;stroke-dasharray:5.0,5.0;" x1="423.0307" x2="423.0307" y1="121.5938" y2="902.5781"/><line style="stroke:#A80036;stroke-width:1.0;stroke-dasharray:5.0,5.0;" x1="550.8032" x2="550.8032" y1="121.5938" y2="902.5781"/><line style="stroke:#A80036;stroke-width:1.0;stroke-dasharray:5.0,5.0;" x1="711.9067" x2="711.9067" y1="121.5938" y2="902.5781"/><line style="stroke:#A80036;stroke-width:1.0;stroke-dasharray:5.0,5.0;" x1="844.831" x2="844.831" y1="121.5938" y2="902.5781"/><text fill="#000000" font-family="sans-serif" font-size="14" lengthAdjust="spacing" textLength="27.9999" x="5" y="118.292">&#39015;&#23458;</text><ellipse cx="21.9999" cy="52.2969" fill="#FEFECE" rx="8" ry="8" style="stroke:#A80036;stroke-width:2.0;"/><path d="M21.9999,60.2969 L21.9999,87.2969 M8.9999,68.2969 L34.9999,68.2969 M21.9999,87.2969 L8.9999,102.2969 M21.9999,87.2969 L34.9999,102.2969 " fill="none" style="stroke:#A80036;stroke-width:2.0;"/><text fill="#000000" font-family="sans-serif" font-size="14" lengthAdjust="spacing" textLength="27.9999" x="5" y="914.5732">&#39015;&#23458;</text><ellipse cx="21.9999" cy="927.875" fill="#FEFECE" rx="8" ry="8" style="stroke:#A80036;stroke-width:2.0;"/><path d="M21.9999,935.875 L21.9999,962.875 M8.9999,943.875 L34.9999,943.875 M21.9999,962.875 L8.9999,977.875 M21.9999,962.875 L34.9999,977.875 " fill="none" style="stroke:#A80036;stroke-width:2.0;"/><rect fill="#FEFECE" height="30.2969" style="stroke:#A80036;stroke-width:1.5;" width="218.5176" x="142.5131" y="90.2969"/><text fill="#000000" font-family="sans-serif" font-size="14" lengthAdjust="spacing" textLength="204.5176" x="149.5131" y="110.292">OrderStatusUpdateController</text><rect fill="#FEFECE" height="30.2969" style="stroke:#A80036;stroke-width:1.5;" width="218.5176" x="142.5131" y="901.5781"/><text fill="#000000" font-family="sans-serif" font-size="14" lengthAdjust="spacing" textLength="204.5176" x="149.5131" y="921.5732">OrderStatusUpdateController</text><rect fill="#FEFECE" height="30.2969" style="stroke:#A80036;stroke-width:1.5;" width="105.7725" x="371.0307" y="90.2969"/><text fill="#000000" font-family="sans-serif" font-size="14" lengthAdjust="spacing" textLength="91.7725" x="378.0307" y="110.292">OrderService</text><rect fill="#FEFECE" height="30.2969" style="stroke:#A80036;stroke-width:1.5;" width="105.7725" x="371.0307" y="901.5781"/><text fill="#000000" font-family="sans-serif" font-size="14" lengthAdjust="spacing" textLength="91.7725" x="378.0307" y="921.5732">OrderService</text><rect fill="#FEFECE" height="30.2969" style="stroke:#A80036;stroke-width:1.5;" width="129.1035" x="486.8032" y="90.2969"/><text fill="#000000" font-family="sans-serif" font-size="14" lengthAdjust="spacing" textLength="115.1035" x="493.8032" y="110.292">OrderRepository</text><rect fill="#FEFECE" height="30.2969" style="stroke:#A80036;stroke-width:1.5;" width="129.1035" x="486.8032" y="901.5781"/><text fill="#000000" font-family="sans-serif" font-size="14" lengthAdjust="spacing" textLength="115.1035" x="493.8032" y="921.5732">OrderRepository</text><rect fill="#FEFECE" height="30.2969" style="stroke:#A80036;stroke-width:1.5;" width="173.7148" x="625.9067" y="90.2969"/><text fill="#000000" font-family="sans-serif" font-size="14" lengthAdjust="spacing" textLength="159.7148" x="632.9067" y="110.292">OrderStatusRepository</text><rect fill="#FEFECE" height="30.2969" style="stroke:#A80036;stroke-width:1.5;" width="173.7148" x="625.9067" y="901.5781"/><text fill="#000000" font-family="sans-serif" font-size="14" lengthAdjust="spacing" textLength="159.7148" x="632.9067" y="921.5732">OrderStatusRepository</text><text fill="#000000" font-family="sans-serif" font-size="14" lengthAdjust="spacing" textLength="20.3848" x="831.6386" y="118.292">DB</text><path d="M826.831,69.2969 C826.831,59.2969 844.831,59.2969 844.831,59.2969 C844.831,59.2969 862.831,59.2969 862.831,69.2969 L862.831,95.2969 C862.831,105.2969 844.831,105.2969 844.831,105.2969 C844.831,105.2969 826.831,105.2969 826.831,95.2969 L826.831,69.2969 " fill="#FEFECE" style="stroke:#A80036;stroke-width:1.5;"/><path d="M826.831,69.2969 C826.831,79.2969 844.831,79.2969 844.831,79.2969 C844.831,79.2969 862.831,79.2969 862.831,69.2969 " fill="none" style="stroke:#A80036;stroke-width:1.5;"/><text fill="#000000" font-family="sans-serif" font-size="14" lengthAdjust="spacing" textLength="20.3848" x="831.6386" y="914.5732">DB</text><path d="M826.831,927.875 C826.831,917.875 844.831,917.875 844.831,917.875 C844.831,917.875 862.831,917.875 862.831,927.875 L862.831,953.875 C862.831,963.875 844.831,963.875 844.831,963.875 C844.831,963.875 826.831,963.875 826.831,953.875 L826.831,927.875 " fill="#FEFECE" style="stroke:#A80036;stroke-width:1.5;"/><path d="M826.831,927.875 C826.831,937.875 844.831,937.875 844.831,937.875 C844.831,937.875 862.831,937.875 862.831,927.875 " fill="none" style="stroke:#A80036;stroke-width:1.5;"/><rect fill="#FFFFFF" height="234.1953" style="stroke:#A80036;stroke-width:1.0;" width="10" x="246.7719" y="167.8594"/><rect fill="#FFFFFF" height="29.1328" style="stroke:#A80036;stroke-width:1.0;" width="10" x="246.7719" y="488.4531"/><rect fill="#FFFFFF" height="234.1953" style="stroke:#A80036;stroke-width:1.0;" width="10" x="246.7719" y="561.8516"/><rect fill="#FFFFFF" height="44.2656" style="stroke:#A80036;stroke-width:1.0;" width="10" x="246.7719" y="840.3125"/><rect fill="#FFFFFF" height="160.7969" style="stroke:#A80036;stroke-width:1.0;" width="10" x="418.9169" y="196.9922"/><rect fill="#FFFFFF" height="160.7969" style="stroke:#A80036;stroke-width:1.0;" width="10" x="418.9169" y="606.1172"/><rect fill="#FFFFFF" height="102.5313" style="stroke:#A80036;stroke-width:1.0;" width="10" x="546.3549" y="226.125"/><rect fill="#FFFFFF" height="87.3984" style="stroke:#A80036;stroke-width:1.0;" width="10" x="707.7641" y="650.3828"/><rect fill="#FFFFFF" height="29.1328" style="stroke:#A80036;stroke-width:1.0;" width="10" x="839.831" y="270.3906"/><rect fill="#FFFFFF" height="29.1328" style="stroke:#A80036;stroke-width:1.0;" width="10" x="839.831" y="679.5156"/><polygon fill="#A80036" points="234.7719,163.8594,244.7719,167.8594,234.7719,171.8594,238.7719,167.8594" style="stroke:#A80036;stroke-width:1.0;"/><line style="stroke:#A80036;stroke-width:1.0;" x1="21.9999" x2="240.7719" y1="167.8594" y2="167.8594"/><text fill="#000000" font-family="sans-serif" font-size="13" lengthAdjust="spacing" textLength="26.2285" x="28.9999" y="147.6606">GET</text><text fill="#000000" font-family="sans-serif" font-size="13" lengthAdjust="spacing" textLength="99.0361" x="28.9999" y="162.7935">/backend/order</text><polygon fill="#A80036" points="406.9169,192.9922,416.9169,196.9922,406.9169,200.9922,410.9169,196.9922" style="stroke:#A80036;stroke-width:1.0;"/><line style="stroke:#A80036;stroke-width:1.0;" x1="256.7719" x2="412.9169" y1="196.9922" y2="196.9922"/><text fill="#000000" font-family="sans-serif" font-size="13" lengthAdjust="spacing" textLength="91.3872" x="263.7719" y="191.9263">getOrderList()</text><polygon fill="#A80036" points="534.3549,222.125,544.3549,226.125,534.3549,230.125,538.3549,226.125" style="stroke:#A80036;stroke-width:1.0;"/><line style="stroke:#A80036;stroke-width:1.0;" x1="428.9169" x2="540.3549" y1="226.125" y2="226.125"/><text fill="#000000" font-family="sans-serif" font-size="13" lengthAdjust="spacing" textLength="64.8857" x="435.9169" y="221.0591">selectAll()</text><polygon fill="#A80036" points="827.831,266.3906,837.831,270.3906,827.831,274.3906,831.831,270.3906" style="stroke:#A80036;stroke-width:1.0;"/><line style="stroke:#A80036;stroke-width:1.0;" x1="556.3549" x2="833.831" y1="270.3906" y2="270.3906"/><text fill="#000000" font-family="sans-serif" font-size="13" lengthAdjust="spacing" textLength="48.9404" x="563.3549" y="250.1919">SELECT</text><text fill="#000000" font-family="sans-serif" font-size="13" lengthAdjust="spacing" textLength="158.6025" x="563.3549" y="265.3247">ORDER, ORDER_STATUS</text><polygon fill="#A80036" points="567.3549,295.5234,557.3549,299.5234,567.3549,303.5234,563.3549,299.5234" style="stroke:#A80036;stroke-width:1.0;"/><line style="stroke:#A80036;stroke-width:1.0;stroke-dasharray:2.0,2.0;" x1="561.3549" x2="843.831" y1="299.5234" y2="299.5234"/><text fill="#000000" font-family="sans-serif" font-size="13" lengthAdjust="spacing" textLength="81.6816" x="573.3549" y="294.4575">List&lt;Order&gt;</text><polygon fill="#A80036" points="439.9169,324.6563,429.9169,328.6563,439.9169,332.6563,435.9169,328.6563" style="stroke:#A80036;stroke-width:1.0;"/><line style="stroke:#A80036;stroke-width:1.0;stroke-dasharray:2.0,2.0;" x1="433.9169" x2="550.3549" y1="328.6563" y2="328.6563"/><text fill="#000000" font-family="sans-serif" font-size="13" lengthAdjust="spacing" textLength="81.6816" x="445.9169" y="323.5903">List&lt;Order&gt;</text><polygon fill="#A80036" points="267.7719,353.7891,257.7719,357.7891,267.7719,361.7891,263.7719,357.7891" style="stroke:#A80036;stroke-width:1.0;"/><line style="stroke:#A80036;stroke-width:1.0;stroke-dasharray:2.0,2.0;" x1="261.7719" x2="422.9169" y1="357.7891" y2="357.7891"/><text fill="#000000" font-family="sans-serif" font-size="13" lengthAdjust="spacing" textLength="81.6816" x="273.7719" y="352.7231">List&lt;Order&gt;</text><polygon fill="#A80036" points="32.9999,398.0547,22.9999,402.0547,32.9999,406.0547,28.9999,402.0547" style="stroke:#A80036;stroke-width:1.0;"/><line style="stroke:#A80036;stroke-width:1.0;stroke-dasharray:2.0,2.0;" x1="26.9999" x2="250.7719" y1="402.0547" y2="402.0547"/><text fill="#000000" font-family="sans-serif" font-size="13" lengthAdjust="spacing" textLength="91.0001" x="38.9999" y="381.856">&#27880;&#25991;&#12473;&#12486;&#12540;&#12479;&#12473;</text><text fill="#000000" font-family="sans-serif" font-size="13" lengthAdjust="spacing" textLength="52.0001" x="38.9999" y="396.9888">&#19968;&#35239;&#30011;&#38754;</text><line style="stroke:#A80036;stroke-width:1.0;" x1="21.9999" x2="63.9999" y1="431.1875" y2="431.1875"/><line style="stroke:#A80036;stroke-width:1.0;" x1="63.9999" x2="63.9999" y1="431.1875" y2="444.1875"/><line style="stroke:#A80036;stroke-width:1.0;" x1="22.9999" x2="63.9999" y1="444.1875" y2="444.1875"/><polygon fill="#A80036" points="32.9999,440.1875,22.9999,444.1875,32.9999,448.1875,28.9999,444.1875" style="stroke:#A80036;stroke-width:1.0;"/><text fill="#000000" font-family="sans-serif" font-size="13" lengthAdjust="spacing" textLength="117.0001" x="28.9999" y="426.1216">&#27880;&#25991;&#12473;&#12486;&#12540;&#12479;&#12473;&#26356;&#26032;</text><polygon fill="#A80036" points="234.7719,484.4531,244.7719,488.4531,234.7719,492.4531,238.7719,488.4531" style="stroke:#A80036;stroke-width:1.0;"/><line style="stroke:#A80036;stroke-width:1.0;" x1="21.9999" x2="240.7719" y1="488.4531" y2="488.4531"/><text fill="#000000" font-family="sans-serif" font-size="13" lengthAdjust="spacing" textLength="26.2285" x="28.9999" y="468.2544">GET</text><text fill="#000000" font-family="sans-serif" font-size="13" lengthAdjust="spacing" textLength="152.9531" x="28.9999" y="483.3872">/backend/order/confirm</text><polygon fill="#A80036" points="32.9999,513.5859,22.9999,517.5859,32.9999,521.5859,28.9999,517.5859" style="stroke:#A80036;stroke-width:1.0;"/><line style="stroke:#A80036;stroke-width:1.0;" x1="26.9999" x2="250.7719" y1="517.5859" y2="517.5859"/><text fill="#000000" font-family="sans-serif" font-size="13" lengthAdjust="spacing" textLength="52.0001" x="38.9999" y="512.52">&#30906;&#35469;&#30011;&#38754;</text><polygon fill="#A80036" points="234.7719,557.8516,244.7719,561.8516,234.7719,565.8516,238.7719,561.8516" style="stroke:#A80036;stroke-width:1.0;"/><line style="stroke:#A80036;stroke-width:1.0;" x1="21.9999" x2="240.7719" y1="561.8516" y2="561.8516"/><text fill="#000000" font-family="sans-serif" font-size="13" lengthAdjust="spacing" textLength="34.2646" x="28.9999" y="541.6528">POST</text><text fill="#000000" font-family="sans-serif" font-size="13" lengthAdjust="spacing" textLength="205.772" x="28.9999" y="556.7856">/backend/order/update/execute</text><polygon fill="#A80036" points="406.9169,602.1172,416.9169,606.1172,406.9169,610.1172,410.9169,606.1172" style="stroke:#A80036;stroke-width:1.0;"/><line style="stroke:#A80036;stroke-width:1.0;" x1="256.7719" x2="412.9169" y1="606.1172" y2="606.1172"/><text fill="#000000" font-family="sans-serif" font-size="13" lengthAdjust="spacing" textLength="124.4014" x="263.7719" y="585.9185">updateOrderStatus</text><text fill="#000000" font-family="sans-serif" font-size="13" lengthAdjust="spacing" textLength="137.5728" x="263.7719" y="601.0513">(orderId,orderStatus)</text><polygon fill="#A80036" points="695.7641,646.3828,705.7641,650.3828,695.7641,654.3828,699.7641,650.3828" style="stroke:#A80036;stroke-width:1.0;"/><line style="stroke:#A80036;stroke-width:1.0;" x1="428.9169" x2="701.7641" y1="650.3828" y2="650.3828"/><text fill="#000000" font-family="sans-serif" font-size="13" lengthAdjust="spacing" textLength="45.8047" x="435.9169" y="630.1841">update</text><text fill="#000000" font-family="sans-serif" font-size="13" lengthAdjust="spacing" textLength="137.5728" x="435.9169" y="645.3169">(orderId,orderStatus)</text><polygon fill="#A80036" points="827.831,675.5156,837.831,679.5156,827.831,683.5156,831.831,679.5156" style="stroke:#A80036;stroke-width:1.0;"/><line style="stroke:#A80036;stroke-width:1.0;" x1="717.7641" x2="833.831" y1="679.5156" y2="679.5156"/><text fill="#000000" font-family="sans-serif" font-size="13" lengthAdjust="spacing" textLength="103.0669" x="724.7641" y="674.4497">UPDATE ORDER</text><polygon fill="#A80036" points="728.7641,704.6484,718.7641,708.6484,728.7641,712.6484,724.7641,708.6484" style="stroke:#A80036;stroke-width:1.0;"/><line style="stroke:#A80036;stroke-width:1.0;stroke-dasharray:2.0,2.0;" x1="722.7641" x2="843.831" y1="708.6484" y2="708.6484"/><text fill="#000000" font-family="sans-serif" font-size="13" lengthAdjust="spacing" textLength="27.5107" x="734.7641" y="703.5825">void</text><polygon fill="#A80036" points="439.9169,733.7813,429.9169,737.7813,439.9169,741.7813,435.9169,737.7813" style="stroke:#A80036;stroke-width:1.0;"/><line style="stroke:#A80036;stroke-width:1.0;stroke-dasharray:2.0,2.0;" x1="433.9169" x2="711.7641" y1="737.7813" y2="737.7813"/><text fill="#000000" font-family="sans-serif" font-size="13" lengthAdjust="spacing" textLength="27.5107" x="445.9169" y="732.7153">void</text><polygon fill="#A80036" points="267.7719,762.9141,257.7719,766.9141,267.7719,770.9141,263.7719,766.9141" style="stroke:#A80036;stroke-width:1.0;"/><line style="stroke:#A80036;stroke-width:1.0;stroke-dasharray:2.0,2.0;" x1="261.7719" x2="422.9169" y1="766.9141" y2="766.9141"/><text fill="#000000" font-family="sans-serif" font-size="13" lengthAdjust="spacing" textLength="27.5107" x="273.7719" y="761.8481">void</text><polygon fill="#A80036" points="32.9999,792.0469,22.9999,796.0469,32.9999,800.0469,28.9999,796.0469" style="stroke:#A80036;stroke-width:1.0;"/><line style="stroke:#A80036;stroke-width:1.0;stroke-dasharray:2.0,2.0;" x1="26.9999" x2="250.7719" y1="796.0469" y2="796.0469"/><text fill="#000000" font-family="sans-serif" font-size="13" lengthAdjust="spacing" textLength="78.0001" x="38.9999" y="790.981">&#12522;&#12480;&#12452;&#12524;&#12463;&#12488;</text><polygon fill="#A80036" points="234.7719,836.3125,244.7719,840.3125,234.7719,844.3125,238.7719,840.3125" style="stroke:#A80036;stroke-width:1.0;"/><line style="stroke:#A80036;stroke-width:1.0;" x1="21.9999" x2="240.7719" y1="840.3125" y2="840.3125"/><text fill="#000000" font-family="sans-serif" font-size="13" lengthAdjust="spacing" textLength="26.2285" x="28.9999" y="820.1138">GET</text><text fill="#000000" font-family="sans-serif" font-size="13" lengthAdjust="spacing" textLength="164.1377" x="28.9999" y="835.2466">/backend/order/complete</text><polygon fill="#A80036" points="32.9999,880.5781,22.9999,884.5781,32.9999,888.5781,28.9999,884.5781" style="stroke:#A80036;stroke-width:1.0;"/><line style="stroke:#A80036;stroke-width:1.0;stroke-dasharray:2.0,2.0;" x1="26.9999" x2="250.7719" y1="884.5781" y2="884.5781"/><text fill="#000000" font-family="sans-serif" font-size="13" lengthAdjust="spacing" textLength="91.0001" x="38.9999" y="864.3794">&#27880;&#25991;&#12473;&#12486;&#12540;&#12479;&#12473;</text><text fill="#000000" font-family="sans-serif" font-size="13" lengthAdjust="spacing" textLength="78.0001" x="38.9999" y="879.5122">&#26356;&#26032;&#23436;&#20102;&#30011;&#38754;</text><!--SRC=[XL91QnD16BtFhnXoghGX9WSFHGenMKGef6IJMq1cPwRjqCtCCZDRzLQoK3teJNeH3mPfIv6se8TQ1N_Cj6dxBvpzLkjgKdFQuRqtxvlllJLRGcAj34V6dnAYoH2RJSBKCo4ty3g9FME5ZJdkj-xN7opZoUV3oTvBD_hgibsNVNUZ7_uyUVTbidUA4A5MQLov-N1mUJokO69mYhod5LGaH5fSwMZ6TMY9JKq_OSJobf9MgpZc6kHqbfphRK4vy6O6t-M9Ci8FVW4INRzpvB_A1l9F814n75VQZm1Z4K8fhgvWkhY8b_7Ze3UGjOZGBIvPJULMYEQq0Ng3Mx1V5SOkt4CcPtGTACDZJcqpZZskwpd18Y32O3LeUTTEjnrqbp1ydeQzPgyV8XRXAbXKgrwPkpu4_nMmoCTE4GPmEeLJm5F0PtOsa1TdEzVx1rTllzsy7__QEiLp6lv_DZMgvBhGmoAZOlZL-FpwwCrVKuhxQvrmsY25lwB6dtEQMbxEkc1ARGxa0jnvmfRK7_Ht2utIfRkKkb7gfR_MRlQ2ee_R8XgmmhOI3CIt3G1IZXw0SkOkEtBPZXjzTDadDpfnsQlvsGsJc1TBpwkkgEFo-FN5-MuHxKy0]--></g></svg>