<svg xmlns="http://www.w3.org/2000/svg" xmlns:xlink="http://www.w3.org/1999/xlink" contentStyleType="text/css" height="165px" preserveAspectRatio="none" style="width:649px;height:165px;background:#FFFFFF;" version="1.1" viewBox="0 0 649 165" width="649px" zoomAndPan="magnify"><defs/><g><text fill="#000000" font-family="sans-serif" font-size="14" font-weight="bold" lengthAdjust="spacing" textLength="118.7946" x="258.5027" y="22.9951">config&#12497;&#12483;&#12465;&#12540;&#12472;</text><!--cluster config--><g id="cluster_config"><polygon fill="none" points="16,43.2969,64.8408,43.2969,71.8408,65.5938,632.8,65.5938,632.8,158.2969,16,158.2969,16,43.2969" style="stroke:#000000;stroke-width:1.5;"/><line style="stroke:#000000;stroke-width:1.5;" x1="16" x2="71.8408" y1="65.5938" y2="65.5938"/><text fill="#000000" font-family="sans-serif" font-size="14" lengthAdjust="spacing" textLength="42.8408" x="20" y="58.292">config</text></g><!--class AppConfig--><g id="elem_AppConfig"><rect codeLine="7" fill="#FEFECE" height="64.5625" id="AppConfig" style="stroke:#A80036;stroke-width:1.0;" width="584.7969" x="32" y="78.0169"/><ellipse cx="268.1162" cy="98.1497" fill="#ADD1B2" rx="11" ry="11" style="stroke:#A80036;stroke-width:1.0;"/><path d="M271.085,103.7903 Q270.5068,104.0872 269.8662,104.2278 Q269.2256,104.3841 268.5225,104.3841 Q266.0225,104.3841 264.6943,102.7434 Q263.3818,101.0872 263.3818,97.9622 Q263.3818,94.8372 264.6943,93.1809 Q266.0225,91.5247 268.5225,91.5247 Q269.2256,91.5247 269.8662,91.6809 Q270.5225,91.8372 271.085,92.1341 L271.085,94.8528 Q270.46,94.2747 269.8662,94.0091 Q269.2725,93.7278 268.6475,93.7278 Q267.3037,93.7278 266.6162,94.8059 Q265.9287,95.8684 265.9287,97.9622 Q265.9287,100.0559 266.6162,101.1341 Q267.3037,102.1966 268.6475,102.1966 Q269.2725,102.1966 269.8662,101.9309 Q270.46,101.6497 271.085,101.0716 L271.085,103.7903 Z " fill="#000000"/><text fill="#000000" font-family="sans-serif" font-size="12" font-style="italic" lengthAdjust="spacing" textLength="108.0645" x="286.6162" y="94.1555">&#171;@Configuration&#187;</text><text fill="#000000" font-family="sans-serif" font-size="14" lengthAdjust="spacing" textLength="72.2695" x="304.5137" y="109.9807">AppConfig</text><line style="stroke:#A80036;stroke-width:1.0;" x1="33" x2="615.7969" y1="118.2825" y2="118.2825"/><text fill="#000000" font-family="sans-serif" font-size="14" lengthAdjust="spacing" textLength="572.7969" x="38" y="135.2776">addArgumentResolvers(List&lt;HandlerMethodArgumentResolver&gt; resolvers) : void</text></g><!--SRC=[POqxRW9144JpEKM7zXMirSh82O59V8DcftUsnVpKtM1P5Wbx0X_5cGFVPYx20YAYebBLKvNkE8CK9QUBgoYOG2VqvPDpW17ZqaGQ3Qo0S9WCF0iDnYMxYJq1fMfVa2XjITGPMoGOIXuvjFcdpNCx_RRvlvt-NCLXX-7UVZjOD4HKXLMjRzSGkkxrvlQ2bu- -lt4NeVSh2Vj4sJv8IpmiXq_lhDQjCVj8iY6RoWFJWzpfPtY1Gs5_dJowuna0]--></g></svg>