<?xml version="1.0" encoding="us-ascii" standalone="no"?><svg xmlns="http://www.w3.org/2000/svg" xmlns:xlink="http://www.w3.org/1999/xlink" contentStyleType="text/css" height="167px" preserveAspectRatio="none" style="width:658px;height:167px;background:#FFFFFF;" version="1.1" viewBox="0 0 658 167" width="658px" zoomAndPan="magnify"><defs/><g><text fill="#000000" font-family="sans-serif" font-size="14" font-weight="bold" lengthAdjust="spacing" textLength="126" x="259" y="22.9951">config&#12497;&#12483;&#12465;&#12540;&#12472;</text><!--cluster config--><g id="cluster_config"><polygon fill="none" points="16,43.2969,73,43.2969,80,65.5938,641,65.5938,641,160.2969,16,160.2969,16,43.2969" style="stroke:#000000;stroke-width:1.5;"/><line style="stroke:#000000;stroke-width:1.5;" x1="16" x2="80" y1="65.5938" y2="65.5938"/><text fill="#000000" font-family="sans-serif" font-size="14" font-weight="bold" lengthAdjust="spacing" textLength="51" x="20" y="58.292">config</text></g><!--class AppConfig--><g id="elem_AppConfig"><rect codeLine="7" fill="#FEFECE" height="64.5625" id="AppConfig" style="stroke:#A80036;stroke-width:1.0;" width="593" x="32" y="78.7969"/><ellipse cx="272.75" cy="98.9297" fill="#ADD1B2" rx="11" ry="11" style="stroke:#A80036;stroke-width:1.0;"/><path d="M275.0938,94.6016 C274.1563,94.1641 273.5625,94.0234 272.6875,94.0234 C270.0625,94.0234 268.0625,96.1016 268.0625,98.8203 L268.0625,99.9453 C268.0625,102.5234 270.1719,104.4141 273.0625,104.4141 C274.2813,104.4141 275.4375,104.1172 276.1875,103.5703 C276.7656,103.1641 277.0938,102.7109 277.0938,102.3203 C277.0938,101.8672 276.7031,101.4766 276.2344,101.4766 C276.0156,101.4766 275.8125,101.5547 275.625,101.7422 C275.1719,102.2266 275.1719,102.2266 274.9844,102.3203 C274.5625,102.5859 273.875,102.7109 273.1094,102.7109 C271.0625,102.7109 269.7656,101.6172 269.7656,99.9141 L269.7656,98.8203 C269.7656,97.0391 271.0156,95.7266 272.75,95.7266 C273.3281,95.7266 273.9375,95.8828 274.4063,96.1328 C274.8906,96.4141 275.0625,96.6328 275.1563,97.0391 C275.2188,97.4453 275.25,97.5703 275.3906,97.6953 C275.5313,97.8359 275.7656,97.9453 275.9844,97.9453 C276.25,97.9453 276.5156,97.8047 276.6875,97.5859 C276.7969,97.4297 276.8281,97.2422 276.8281,96.8203 L276.8281,95.3984 C276.8281,94.9609 276.8125,94.8359 276.7188,94.6797 C276.5625,94.4141 276.2813,94.2734 275.9844,94.2734 C275.6875,94.2734 275.4844,94.3672 275.2656,94.6797 L275.0938,94.6016 Z " fill="#000000"/><text fill="#000000" font-family="sans-serif" font-size="12" font-style="italic" lengthAdjust="spacing" textLength="107" x="291.25" y="94.9355">&#171;@Configuration&#187;</text><text fill="#000000" font-family="sans-serif" font-size="14" lengthAdjust="spacing" textLength="77" x="306.25" y="110.7607">AppConfig</text><line style="stroke:#A80036;stroke-width:1.0;" x1="33" x2="624" y1="119.0625" y2="119.0625"/><text fill="#000000" font-family="sans-serif" font-size="14" lengthAdjust="spacing" textLength="581" x="38" y="136.0576">addArgumentResolvers(List&lt;HandlerMethodArgumentResolver&gt; resolvers) : void</text></g><!--SRC=[POqxRW9144JpEKM7zXMirSh82O59V8DcftUsnVpKtM1P5Wbx0X_5cGFVPYx20YAYebBLKvNkE8CK9QUBgoYOG2VqvPDpW17ZqaGQ3Qo0S9WCF0iDnYMxYJq1fMfVa2XjITGPMoGOIXuvjFcdpNCx_RRvlvt-NCLXX-7UVZjOD4HKXLMjRzSGkkxrvlQ2bu- -lt4NeVSh2Vj4sJv8IpmiXq_lhDQjCVj8iY6RoWFJWzpfPtY1Gs5_dJowuna0]--></g></svg>