<?xml version="1.0" encoding="us-ascii" standalone="no"?><svg xmlns="http://www.w3.org/2000/svg" xmlns:xlink="http://www.w3.org/1999/xlink" contentStyleType="text/css" height="720px" preserveAspectRatio="none" style="width:916px;height:720px;background:#FFFFFF;" version="1.1" viewBox="0 0 916 720" width="916px" zoomAndPan="magnify"><defs/><g><!--cluster target_system--><g id="cluster_target_system"><path d="M6,16 C6,6 452.5,6 452.5,6 C452.5,6 899,6 899,16 L899,693 C899,703 452.5,703 452.5,703 C452.5,703 6,703 6,693 L6,16 " fill="none" style="stroke:#181818;stroke-width:1.0;"/><path d="M6,16 C6,26 452.5,26 452.5,26 C452.5,26 899,26 899,16 " fill="none" style="stroke:#181818;stroke-width:1.0;"/><text fill="#000000" font-family="sans-serif" font-size="14" font-weight="bold" lengthAdjust="spacing" textLength="195" x="355" y="40.9951">&#12487;&#12540;&#12479;&#12505;&#12540;&#12473; : fullness_ec</text></g><!--class employee_account--><g id="elem_employee_account"><rect codeLine="5" fill="#F1F1F1" height="129.4531" id="employee_account" rx="2.5" ry="2.5" style="stroke:#181818;stroke-width:0.5;" width="207" x="667.5" y="549.5"/><ellipse cx="700.05" cy="569.6328" fill="#ADD1B2" rx="11" ry="11" style="stroke:#181818;stroke-width:1.0;"/><path d="M698.8469,570.5078 L700.3,570.5078 L700.3,570.6172 C700.3,571.0234 700.3313,571.1797 700.4094,571.3359 C700.5656,571.5859 700.8469,571.7422 701.1438,571.7422 C701.3938,571.7422 701.6594,571.6016 701.8156,571.3828 C701.9406,571.2266 701.9719,571.0703 701.9719,570.6172 L701.9719,568.6953 C701.9719,568.5391 701.9719,568.4922 701.9563,568.3359 C701.8938,567.8672 701.5813,567.5547 701.1281,567.5547 C700.8781,567.5547 700.6125,567.6953 700.4406,567.9141 C700.3313,568.0859 700.3,568.2422 700.3,568.6953 L700.3,568.8203 L698.8469,568.8203 L698.8469,566.4141 L702.8313,566.4141 L702.8313,567.2734 C702.8313,567.6797 702.8625,567.8516 702.9406,568.0078 C703.1125,568.2578 703.3938,568.4141 703.675,568.4141 C703.9406,568.4141 704.2063,568.2734 704.3781,568.0547 C704.4875,567.8828 704.5188,567.7422 704.5188,567.2734 L704.5188,564.7266 L696.8938,564.7266 C696.4563,564.7266 696.3313,564.7422 696.175,564.8359 C695.925,564.9922 695.7688,565.2891 695.7688,565.5703 C695.7688,565.8516 695.9094,566.1016 696.1281,566.2734 C696.2844,566.3828 696.4719,566.4141 696.8938,566.4141 L697.1438,566.4141 L697.1438,572.9297 L696.8938,572.9297 C696.4875,572.9297 696.3313,572.9453 696.175,573.0547 C695.925,573.2266 695.7688,573.4922 695.7688,573.7891 C695.7688,574.0547 695.9094,574.3047 696.1281,574.4609 C696.2688,574.5859 696.5031,574.6328 696.8938,574.6328 L704.8938,574.6328 L704.8938,572.0547 C704.8938,571.6172 704.8625,571.4766 704.7844,571.3203 C704.6125,571.0703 704.3313,570.9141 704.05,570.9141 C703.7844,570.9141 703.5188,571.0234 703.3469,571.2734 C703.2375,571.4297 703.2063,571.5703 703.2063,572.0547 L703.2063,572.9297 L698.8469,572.9297 L698.8469,570.5078 Z " fill="#000000"/><text fill="#000000" font-family="sans-serif" font-size="12" font-style="italic" lengthAdjust="spacing" textLength="98" x="736.95" y="565.6387">&#171;&#31038;&#21729;&#12450;&#12459;&#12454;&#12531;&#12488;&#187;</text><text fill="#000000" font-family="sans-serif" font-size="14" lengthAdjust="spacing" textLength="136" x="717.95" y="581.4639">employee_account</text><line style="stroke:#181818;stroke-width:0.5;" x1="668.5" x2="873.5" y1="589.7656" y2="589.7656"/><ellipse cx="678.5" cy="603.4141" fill="none" rx="3" ry="3" style="stroke:#038048;stroke-width:1.0;"/><text fill="#000000" font-family="sans-serif" font-size="14" lengthAdjust="spacing" textLength="88" x="687.5" y="606.7607">id serial [PK]</text><line style="stroke:#181818;stroke-width:1.0;stroke-dasharray:1.0,2.0;" x1="668.5" x2="873.5" y1="614.0625" y2="614.0625"/><polygon fill="none" points="678.5,622.7109,682.5,626.7109,678.5,630.7109,674.5,626.7109" style="stroke:#B38D22;stroke-width:1.0;"/><text fill="#000000" font-family="sans-serif" font-size="14" lengthAdjust="spacing" textLength="181" x="687.5" y="631.0576">employee_id integer [FK]</text><line style="stroke:#181818;stroke-width:1.0;stroke-dasharray:1.0,2.0;" x1="668.5" x2="873.5" y1="638.3594" y2="638.3594"/><text fill="#000000" font-family="sans-serif" font-size="14" lengthAdjust="spacing" textLength="124" x="673.5" y="655.3545">name varchar(20)</text><text fill="#000000" font-family="sans-serif" font-size="14" lengthAdjust="spacing" textLength="151" x="673.5" y="671.6514">password varchar(20)</text></g><!--class employee--><g id="elem_employee"><rect codeLine="14" fill="#F1F1F1" height="129.4531" id="employee" rx="2.5" ry="2.5" style="stroke:#181818;stroke-width:0.5;" width="223" x="659.5" y="343.5"/><ellipse cx="730.75" cy="363.6328" fill="#ADD1B2" rx="11" ry="11" style="stroke:#181818;stroke-width:1.0;"/><path d="M729.5469,364.5078 L731,364.5078 L731,364.6172 C731,365.0234 731.0313,365.1797 731.1094,365.3359 C731.2656,365.5859 731.5469,365.7422 731.8438,365.7422 C732.0938,365.7422 732.3594,365.6016 732.5156,365.3828 C732.6406,365.2266 732.6719,365.0703 732.6719,364.6172 L732.6719,362.6953 C732.6719,362.5391 732.6719,362.4922 732.6563,362.3359 C732.5938,361.8672 732.2813,361.5547 731.8281,361.5547 C731.5781,361.5547 731.3125,361.6953 731.1406,361.9141 C731.0313,362.0859 731,362.2422 731,362.6953 L731,362.8203 L729.5469,362.8203 L729.5469,360.4141 L733.5313,360.4141 L733.5313,361.2734 C733.5313,361.6797 733.5625,361.8516 733.6406,362.0078 C733.8125,362.2578 734.0938,362.4141 734.375,362.4141 C734.6406,362.4141 734.9063,362.2734 735.0781,362.0547 C735.1875,361.8828 735.2188,361.7422 735.2188,361.2734 L735.2188,358.7266 L727.5938,358.7266 C727.1563,358.7266 727.0313,358.7422 726.875,358.8359 C726.625,358.9922 726.4688,359.2891 726.4688,359.5703 C726.4688,359.8516 726.6094,360.1016 726.8281,360.2734 C726.9844,360.3828 727.1719,360.4141 727.5938,360.4141 L727.8438,360.4141 L727.8438,366.9297 L727.5938,366.9297 C727.1875,366.9297 727.0313,366.9453 726.875,367.0547 C726.625,367.2266 726.4688,367.4922 726.4688,367.7891 C726.4688,368.0547 726.6094,368.3047 726.8281,368.4609 C726.9688,368.5859 727.2031,368.6328 727.5938,368.6328 L735.5938,368.6328 L735.5938,366.0547 C735.5938,365.6172 735.5625,365.4766 735.4844,365.3203 C735.3125,365.0703 735.0313,364.9141 734.75,364.9141 C734.4844,364.9141 734.2188,365.0234 734.0469,365.2734 C733.9375,365.4297 733.9063,365.5703 733.9063,366.0547 L733.9063,366.9297 L729.5469,366.9297 L729.5469,364.5078 Z " fill="#000000"/><text fill="#000000" font-family="sans-serif" font-size="12" font-style="italic" lengthAdjust="spacing" textLength="38" x="768.25" y="359.6387">&#171;&#31038;&#21729;&#187;</text><text fill="#000000" font-family="sans-serif" font-size="14" lengthAdjust="spacing" textLength="72" x="751.25" y="375.4639">employee</text><line style="stroke:#181818;stroke-width:0.5;" x1="660.5" x2="881.5" y1="383.7656" y2="383.7656"/><ellipse cx="670.5" cy="397.4141" fill="none" rx="3" ry="3" style="stroke:#038048;stroke-width:1.0;"/><text fill="#000000" font-family="sans-serif" font-size="14" lengthAdjust="spacing" textLength="88" x="679.5" y="400.7607">id serial [PK]</text><line style="stroke:#181818;stroke-width:1.0;stroke-dasharray:1.0,2.0;" x1="660.5" x2="881.5" y1="408.0625" y2="408.0625"/><polygon fill="none" points="670.5,416.7109,674.5,420.7109,670.5,424.7109,666.5,420.7109" style="stroke:#B38D22;stroke-width:1.0;"/><text fill="#000000" font-family="sans-serif" font-size="14" lengthAdjust="spacing" textLength="197" x="679.5" y="425.0576">department_id integer [FK]</text><line style="stroke:#181818;stroke-width:1.0;stroke-dasharray:1.0,2.0;" x1="660.5" x2="881.5" y1="432.3594" y2="432.3594"/><text fill="#000000" font-family="sans-serif" font-size="14" lengthAdjust="spacing" textLength="134" x="665.5" y="449.3545">name varchar(100)</text><text fill="#000000" font-family="sans-serif" font-size="14" lengthAdjust="spacing" textLength="175" x="665.5" y="465.6514">name_kana varchar(100)</text></g><!--class department--><g id="elem_department"><rect codeLine="23" fill="#F1F1F1" height="88.8594" id="department" rx="2.5" ry="2.5" style="stroke:#181818;stroke-width:0.5;" width="146" x="698" y="121"/><ellipse cx="724.7" cy="141.1328" fill="#ADD1B2" rx="11" ry="11" style="stroke:#181818;stroke-width:1.0;"/><path d="M723.4969,142.0078 L724.95,142.0078 L724.95,142.1172 C724.95,142.5234 724.9813,142.6797 725.0594,142.8359 C725.2156,143.0859 725.4969,143.2422 725.7938,143.2422 C726.0438,143.2422 726.3094,143.1016 726.4656,142.8828 C726.5906,142.7266 726.6219,142.5703 726.6219,142.1172 L726.6219,140.1953 C726.6219,140.0391 726.6219,139.9922 726.6063,139.8359 C726.5438,139.3672 726.2313,139.0547 725.7781,139.0547 C725.5281,139.0547 725.2625,139.1953 725.0906,139.4141 C724.9813,139.5859 724.95,139.7422 724.95,140.1953 L724.95,140.3203 L723.4969,140.3203 L723.4969,137.9141 L727.4813,137.9141 L727.4813,138.7734 C727.4813,139.1797 727.5125,139.3516 727.5906,139.5078 C727.7625,139.7578 728.0438,139.9141 728.325,139.9141 C728.5906,139.9141 728.8563,139.7734 729.0281,139.5547 C729.1375,139.3828 729.1688,139.2422 729.1688,138.7734 L729.1688,136.2266 L721.5438,136.2266 C721.1063,136.2266 720.9813,136.2422 720.825,136.3359 C720.575,136.4922 720.4188,136.7891 720.4188,137.0703 C720.4188,137.3516 720.5594,137.6016 720.7781,137.7734 C720.9344,137.8828 721.1219,137.9141 721.5438,137.9141 L721.7938,137.9141 L721.7938,144.4297 L721.5438,144.4297 C721.1375,144.4297 720.9813,144.4453 720.825,144.5547 C720.575,144.7266 720.4188,144.9922 720.4188,145.2891 C720.4188,145.5547 720.5594,145.8047 720.7781,145.9609 C720.9188,146.0859 721.1531,146.1328 721.5438,146.1328 L729.5438,146.1328 L729.5438,143.5547 C729.5438,143.1172 729.5125,142.9766 729.4344,142.8203 C729.2625,142.5703 728.9813,142.4141 728.7,142.4141 C728.4344,142.4141 728.1688,142.5234 727.9969,142.7734 C727.8875,142.9297 727.8563,143.0703 727.8563,143.5547 L727.8563,144.4297 L723.4969,144.4297 L723.4969,142.0078 Z " fill="#000000"/><text fill="#000000" font-family="sans-serif" font-size="12" font-style="italic" lengthAdjust="spacing" textLength="38" x="766.3" y="137.1387">&#171;&#37096;&#32626;&#187;</text><text fill="#000000" font-family="sans-serif" font-size="14" lengthAdjust="spacing" textLength="88" x="741.3" y="152.9639">department</text><line style="stroke:#181818;stroke-width:0.5;" x1="699" x2="843" y1="161.2656" y2="161.2656"/><ellipse cx="709" cy="174.9141" fill="none" rx="3" ry="3" style="stroke:#038048;stroke-width:1.0;"/><text fill="#000000" font-family="sans-serif" font-size="14" lengthAdjust="spacing" textLength="88" x="718" y="178.2607">id serial [PK]</text><line style="stroke:#181818;stroke-width:1.0;stroke-dasharray:1.0,2.0;" x1="699" x2="843" y1="185.5625" y2="185.5625"/><text fill="#000000" font-family="sans-serif" font-size="14" lengthAdjust="spacing" textLength="134" x="704" y="202.5576">name varchar(100)</text></g><!--class product_category--><g id="elem_product_category"><rect codeLine="29" fill="#F1F1F1" height="88.8594" id="product_category" rx="2.5" ry="2.5" style="stroke:#181818;stroke-width:0.5;" width="160" x="283" y="363.5"/><ellipse cx="298" cy="383.6328" fill="#ADD1B2" rx="11" ry="11" style="stroke:#181818;stroke-width:1.0;"/><path d="M296.7969,384.5078 L298.25,384.5078 L298.25,384.6172 C298.25,385.0234 298.2813,385.1797 298.3594,385.3359 C298.5156,385.5859 298.7969,385.7422 299.0938,385.7422 C299.3438,385.7422 299.6094,385.6016 299.7656,385.3828 C299.8906,385.2266 299.9219,385.0703 299.9219,384.6172 L299.9219,382.6953 C299.9219,382.5391 299.9219,382.4922 299.9063,382.3359 C299.8438,381.8672 299.5313,381.5547 299.0781,381.5547 C298.8281,381.5547 298.5625,381.6953 298.3906,381.9141 C298.2813,382.0859 298.25,382.2422 298.25,382.6953 L298.25,382.8203 L296.7969,382.8203 L296.7969,380.4141 L300.7813,380.4141 L300.7813,381.2734 C300.7813,381.6797 300.8125,381.8516 300.8906,382.0078 C301.0625,382.2578 301.3438,382.4141 301.625,382.4141 C301.8906,382.4141 302.1563,382.2734 302.3281,382.0547 C302.4375,381.8828 302.4688,381.7422 302.4688,381.2734 L302.4688,378.7266 L294.8438,378.7266 C294.4063,378.7266 294.2813,378.7422 294.125,378.8359 C293.875,378.9922 293.7188,379.2891 293.7188,379.5703 C293.7188,379.8516 293.8594,380.1016 294.0781,380.2734 C294.2344,380.3828 294.4219,380.4141 294.8438,380.4141 L295.0938,380.4141 L295.0938,386.9297 L294.8438,386.9297 C294.4375,386.9297 294.2813,386.9453 294.125,387.0547 C293.875,387.2266 293.7188,387.4922 293.7188,387.7891 C293.7188,388.0547 293.8594,388.3047 294.0781,388.4609 C294.2188,388.5859 294.4531,388.6328 294.8438,388.6328 L302.8438,388.6328 L302.8438,386.0547 C302.8438,385.6172 302.8125,385.4766 302.7344,385.3203 C302.5625,385.0703 302.2813,384.9141 302,384.9141 C301.7344,384.9141 301.4688,385.0234 301.2969,385.2734 C301.1875,385.4297 301.1563,385.5703 301.1563,386.0547 L301.1563,386.9297 L296.7969,386.9297 L296.7969,384.5078 Z " fill="#000000"/><text fill="#000000" font-family="sans-serif" font-size="12" font-style="italic" lengthAdjust="spacing" textLength="86" x="333" y="379.6387">&#171;&#21830;&#21697;&#12459;&#12486;&#12468;&#12522;&#187;</text><text fill="#000000" font-family="sans-serif" font-size="14" lengthAdjust="spacing" textLength="128" x="312" y="395.4639">product_category</text><line style="stroke:#181818;stroke-width:0.5;" x1="284" x2="442" y1="403.7656" y2="403.7656"/><ellipse cx="294" cy="417.4141" fill="none" rx="3" ry="3" style="stroke:#038048;stroke-width:1.0;"/><text fill="#000000" font-family="sans-serif" font-size="14" lengthAdjust="spacing" textLength="88" x="303" y="420.7607">id serial [PK]</text><line style="stroke:#181818;stroke-width:1.0;" x1="284" x2="442" y1="428.0625" y2="428.0625"/><text fill="#000000" font-family="sans-serif" font-size="14" lengthAdjust="spacing" textLength="124" x="289" y="445.0576">name varchar(20)</text></g><!--class product--><g id="elem_product"><rect codeLine="35" fill="#F1F1F1" height="162.0469" id="product" rx="2.5" ry="2.5" style="stroke:#181818;stroke-width:0.5;" width="263" x="336.5" y="84.5"/><ellipse cx="435.25" cy="104.6328" fill="#ADD1B2" rx="11" ry="11" style="stroke:#181818;stroke-width:1.0;"/><path d="M434.0469,105.5078 L435.5,105.5078 L435.5,105.6172 C435.5,106.0234 435.5313,106.1797 435.6094,106.3359 C435.7656,106.5859 436.0469,106.7422 436.3438,106.7422 C436.5938,106.7422 436.8594,106.6016 437.0156,106.3828 C437.1406,106.2266 437.1719,106.0703 437.1719,105.6172 L437.1719,103.6953 C437.1719,103.5391 437.1719,103.4922 437.1563,103.3359 C437.0938,102.8672 436.7813,102.5547 436.3281,102.5547 C436.0781,102.5547 435.8125,102.6953 435.6406,102.9141 C435.5313,103.0859 435.5,103.2422 435.5,103.6953 L435.5,103.8203 L434.0469,103.8203 L434.0469,101.4141 L438.0313,101.4141 L438.0313,102.2734 C438.0313,102.6797 438.0625,102.8516 438.1406,103.0078 C438.3125,103.2578 438.5938,103.4141 438.875,103.4141 C439.1406,103.4141 439.4063,103.2734 439.5781,103.0547 C439.6875,102.8828 439.7188,102.7422 439.7188,102.2734 L439.7188,99.7266 L432.0938,99.7266 C431.6563,99.7266 431.5313,99.7422 431.375,99.8359 C431.125,99.9922 430.9688,100.2891 430.9688,100.5703 C430.9688,100.8516 431.1094,101.1016 431.3281,101.2734 C431.4844,101.3828 431.6719,101.4141 432.0938,101.4141 L432.3438,101.4141 L432.3438,107.9297 L432.0938,107.9297 C431.6875,107.9297 431.5313,107.9453 431.375,108.0547 C431.125,108.2266 430.9688,108.4922 430.9688,108.7891 C430.9688,109.0547 431.1094,109.3047 431.3281,109.4609 C431.4688,109.5859 431.7031,109.6328 432.0938,109.6328 L440.0938,109.6328 L440.0938,107.0547 C440.0938,106.6172 440.0625,106.4766 439.9844,106.3203 C439.8125,106.0703 439.5313,105.9141 439.25,105.9141 C438.9844,105.9141 438.7188,106.0234 438.5469,106.2734 C438.4375,106.4297 438.4063,106.5703 438.4063,107.0547 L438.4063,107.9297 L434.0469,107.9297 L434.0469,105.5078 Z " fill="#000000"/><text fill="#000000" font-family="sans-serif" font-size="12" font-style="italic" lengthAdjust="spacing" textLength="38" x="465.25" y="100.6387">&#171;&#21830;&#21697;&#187;</text><text fill="#000000" font-family="sans-serif" font-size="14" lengthAdjust="spacing" textLength="57" x="455.75" y="116.4639">product</text><line style="stroke:#181818;stroke-width:0.5;" x1="337.5" x2="598.5" y1="124.7656" y2="124.7656"/><ellipse cx="347.5" cy="138.4141" fill="none" rx="3" ry="3" style="stroke:#038048;stroke-width:1.0;"/><text fill="#000000" font-family="sans-serif" font-size="14" lengthAdjust="spacing" textLength="88" x="356.5" y="141.7607">id serial [PK]</text><line style="stroke:#181818;stroke-width:1.0;stroke-dasharray:1.0,2.0;" x1="337.5" x2="598.5" y1="149.0625" y2="149.0625"/><polygon fill="none" points="347.5,157.7109,351.5,161.7109,347.5,165.7109,343.5,161.7109" style="stroke:#B38D22;stroke-width:1.0;"/><text fill="#000000" font-family="sans-serif" font-size="14" lengthAdjust="spacing" textLength="237" x="356.5" y="166.0576">product_category_id integer [FK]</text><line style="stroke:#181818;stroke-width:1.0;stroke-dasharray:1.0,2.0;" x1="337.5" x2="598.5" y1="173.3594" y2="173.3594"/><text fill="#000000" font-family="sans-serif" font-size="14" lengthAdjust="spacing" textLength="124" x="342.5" y="190.3545">name varchar(20)</text><text fill="#000000" font-family="sans-serif" font-size="14" lengthAdjust="spacing" textLength="94" x="342.5" y="206.6514">price integer</text><text fill="#000000" font-family="sans-serif" font-size="14" lengthAdjust="spacing" textLength="162" x="342.5" y="222.9482">image_url varchar(200)</text><text fill="#000000" font-family="sans-serif" font-size="14" lengthAdjust="spacing" textLength="138" x="342.5" y="239.2451">delete_flag integer</text></g><!--class product_stock--><g id="elem_product_stock"><rect codeLine="46" fill="#F1F1F1" height="105.1563" id="product_stock" rx="2.5" ry="2.5" style="stroke:#181818;stroke-width:0.5;" width="146" x="478" y="355.5"/><ellipse cx="497.5" cy="375.6328" fill="#ADD1B2" rx="11" ry="11" style="stroke:#181818;stroke-width:1.0;"/><path d="M496.2969,376.5078 L497.75,376.5078 L497.75,376.6172 C497.75,377.0234 497.7813,377.1797 497.8594,377.3359 C498.0156,377.5859 498.2969,377.7422 498.5938,377.7422 C498.8438,377.7422 499.1094,377.6016 499.2656,377.3828 C499.3906,377.2266 499.4219,377.0703 499.4219,376.6172 L499.4219,374.6953 C499.4219,374.5391 499.4219,374.4922 499.4063,374.3359 C499.3438,373.8672 499.0313,373.5547 498.5781,373.5547 C498.3281,373.5547 498.0625,373.6953 497.8906,373.9141 C497.7813,374.0859 497.75,374.2422 497.75,374.6953 L497.75,374.8203 L496.2969,374.8203 L496.2969,372.4141 L500.2813,372.4141 L500.2813,373.2734 C500.2813,373.6797 500.3125,373.8516 500.3906,374.0078 C500.5625,374.2578 500.8438,374.4141 501.125,374.4141 C501.3906,374.4141 501.6563,374.2734 501.8281,374.0547 C501.9375,373.8828 501.9688,373.7422 501.9688,373.2734 L501.9688,370.7266 L494.3438,370.7266 C493.9063,370.7266 493.7813,370.7422 493.625,370.8359 C493.375,370.9922 493.2188,371.2891 493.2188,371.5703 C493.2188,371.8516 493.3594,372.1016 493.5781,372.2734 C493.7344,372.3828 493.9219,372.4141 494.3438,372.4141 L494.5938,372.4141 L494.5938,378.9297 L494.3438,378.9297 C493.9375,378.9297 493.7813,378.9453 493.625,379.0547 C493.375,379.2266 493.2188,379.4922 493.2188,379.7891 C493.2188,380.0547 493.3594,380.3047 493.5781,380.4609 C493.7188,380.5859 493.9531,380.6328 494.3438,380.6328 L502.3438,380.6328 L502.3438,378.0547 C502.3438,377.6172 502.3125,377.4766 502.2344,377.3203 C502.0625,377.0703 501.7813,376.9141 501.5,376.9141 C501.2344,376.9141 500.9688,377.0234 500.7969,377.2734 C500.6875,377.4297 500.6563,377.5703 500.6563,378.0547 L500.6563,378.9297 L496.2969,378.9297 L496.2969,376.5078 Z " fill="#000000"/><text fill="#000000" font-family="sans-serif" font-size="12" font-style="italic" lengthAdjust="spacing" textLength="62" x="533.5" y="371.6387">&#171;&#21830;&#21697;&#22312;&#24235;&#187;</text><text fill="#000000" font-family="sans-serif" font-size="14" lengthAdjust="spacing" textLength="104" x="512.5" y="387.4639">product_stock</text><line style="stroke:#181818;stroke-width:0.5;" x1="479" x2="623" y1="395.7656" y2="395.7656"/><ellipse cx="489" cy="409.4141" fill="none" rx="3" ry="3" style="stroke:#038048;stroke-width:1.0;"/><text fill="#000000" font-family="sans-serif" font-size="14" lengthAdjust="spacing" textLength="88" x="498" y="412.7607">id serial [PK]</text><line style="stroke:#181818;stroke-width:1.0;stroke-dasharray:1.0,2.0;" x1="479" x2="623" y1="420.0625" y2="420.0625"/><text fill="#000000" font-family="sans-serif" font-size="14" lengthAdjust="spacing" textLength="117" x="484" y="437.0576">quantity integer</text><text fill="#000000" font-family="sans-serif" font-size="14" lengthAdjust="spacing" textLength="134" x="484" y="453.3545">product_id integer</text></g><!--class order_status--><g id="elem_order_status"><rect codeLine="53" fill="#F1F1F1" height="88.8594" id="order_status" rx="2.5" ry="2.5" style="stroke:#181818;stroke-width:0.5;" width="146" x="42" y="569.5"/><ellipse cx="66" cy="589.6328" fill="#ADD1B2" rx="11" ry="11" style="stroke:#181818;stroke-width:1.0;"/><path d="M64.7969,590.5078 L66.25,590.5078 L66.25,590.6172 C66.25,591.0234 66.2813,591.1797 66.3594,591.3359 C66.5156,591.5859 66.7969,591.7422 67.0938,591.7422 C67.3438,591.7422 67.6094,591.6016 67.7656,591.3828 C67.8906,591.2266 67.9219,591.0703 67.9219,590.6172 L67.9219,588.6953 C67.9219,588.5391 67.9219,588.4922 67.9063,588.3359 C67.8438,587.8672 67.5313,587.5547 67.0781,587.5547 C66.8281,587.5547 66.5625,587.6953 66.3906,587.9141 C66.2813,588.0859 66.25,588.2422 66.25,588.6953 L66.25,588.8203 L64.7969,588.8203 L64.7969,586.4141 L68.7813,586.4141 L68.7813,587.2734 C68.7813,587.6797 68.8125,587.8516 68.8906,588.0078 C69.0625,588.2578 69.3438,588.4141 69.625,588.4141 C69.8906,588.4141 70.1563,588.2734 70.3281,588.0547 C70.4375,587.8828 70.4688,587.7422 70.4688,587.2734 L70.4688,584.7266 L62.8438,584.7266 C62.4063,584.7266 62.2813,584.7422 62.125,584.8359 C61.875,584.9922 61.7188,585.2891 61.7188,585.5703 C61.7188,585.8516 61.8594,586.1016 62.0781,586.2734 C62.2344,586.3828 62.4219,586.4141 62.8438,586.4141 L63.0938,586.4141 L63.0938,592.9297 L62.8438,592.9297 C62.4375,592.9297 62.2813,592.9453 62.125,593.0547 C61.875,593.2266 61.7188,593.4922 61.7188,593.7891 C61.7188,594.0547 61.8594,594.3047 62.0781,594.4609 C62.2188,594.5859 62.4531,594.6328 62.8438,594.6328 L70.8438,594.6328 L70.8438,592.0547 C70.8438,591.6172 70.8125,591.4766 70.7344,591.3203 C70.5625,591.0703 70.2813,590.9141 70,590.9141 C69.7344,590.9141 69.4688,591.0234 69.2969,591.2734 C69.1875,591.4297 69.1563,591.5703 69.1563,592.0547 L69.1563,592.9297 L64.7969,592.9297 L64.7969,590.5078 Z " fill="#000000"/><text fill="#000000" font-family="sans-serif" font-size="12" font-style="italic" lengthAdjust="spacing" textLength="98" x="80" y="585.6387">&#171;&#27880;&#25991;&#12473;&#12486;&#12540;&#12479;&#12473;&#187;</text><text fill="#000000" font-family="sans-serif" font-size="14" lengthAdjust="spacing" textLength="90" x="84" y="601.4639">order_status</text><line style="stroke:#181818;stroke-width:0.5;" x1="43" x2="187" y1="609.7656" y2="609.7656"/><ellipse cx="53" cy="623.4141" fill="none" rx="3" ry="3" style="stroke:#038048;stroke-width:1.0;"/><text fill="#000000" font-family="sans-serif" font-size="14" lengthAdjust="spacing" textLength="88" x="62" y="626.7607">id serial [PK]</text><line style="stroke:#181818;stroke-width:1.0;stroke-dasharray:1.0,2.0;" x1="43" x2="187" y1="634.0625" y2="634.0625"/><text fill="#000000" font-family="sans-serif" font-size="14" lengthAdjust="spacing" textLength="134" x="48" y="651.0576">name varchar(100)</text></g><!--class customer--><g id="elem_customer"><rect codeLine="59" fill="#F1F1F1" height="219.2344" id="customer" rx="2.5" ry="2.5" style="stroke:#181818;stroke-width:0.5;" width="205" x="32.5" y="56"/><ellipse cx="96.75" cy="76.1328" fill="#ADD1B2" rx="11" ry="11" style="stroke:#181818;stroke-width:1.0;"/><path d="M95.5469,77.0078 L97,77.0078 L97,77.1172 C97,77.5234 97.0313,77.6797 97.1094,77.8359 C97.2656,78.0859 97.5469,78.2422 97.8438,78.2422 C98.0938,78.2422 98.3594,78.1016 98.5156,77.8828 C98.6406,77.7266 98.6719,77.5703 98.6719,77.1172 L98.6719,75.1953 C98.6719,75.0391 98.6719,74.9922 98.6563,74.8359 C98.5938,74.3672 98.2813,74.0547 97.8281,74.0547 C97.5781,74.0547 97.3125,74.1953 97.1406,74.4141 C97.0313,74.5859 97,74.7422 97,75.1953 L97,75.3203 L95.5469,75.3203 L95.5469,72.9141 L99.5313,72.9141 L99.5313,73.7734 C99.5313,74.1797 99.5625,74.3516 99.6406,74.5078 C99.8125,74.7578 100.0938,74.9141 100.375,74.9141 C100.6406,74.9141 100.9063,74.7734 101.0781,74.5547 C101.1875,74.3828 101.2188,74.2422 101.2188,73.7734 L101.2188,71.2266 L93.5938,71.2266 C93.1563,71.2266 93.0313,71.2422 92.875,71.3359 C92.625,71.4922 92.4688,71.7891 92.4688,72.0703 C92.4688,72.3516 92.6094,72.6016 92.8281,72.7734 C92.9844,72.8828 93.1719,72.9141 93.5938,72.9141 L93.8438,72.9141 L93.8438,79.4297 L93.5938,79.4297 C93.1875,79.4297 93.0313,79.4453 92.875,79.5547 C92.625,79.7266 92.4688,79.9922 92.4688,80.2891 C92.4688,80.5547 92.6094,80.8047 92.8281,80.9609 C92.9688,81.0859 93.2031,81.1328 93.5938,81.1328 L101.5938,81.1328 L101.5938,78.5547 C101.5938,78.1172 101.5625,77.9766 101.4844,77.8203 C101.3125,77.5703 101.0313,77.4141 100.75,77.4141 C100.4844,77.4141 100.2188,77.5234 100.0469,77.7734 C99.9375,77.9297 99.9063,78.0703 99.9063,78.5547 L99.9063,79.4297 L95.5469,79.4297 L95.5469,77.0078 Z " fill="#000000"/><text fill="#000000" font-family="sans-serif" font-size="12" font-style="italic" lengthAdjust="spacing" textLength="38" x="132.25" y="72.1387">&#171;&#39015;&#23458;&#187;</text><text fill="#000000" font-family="sans-serif" font-size="14" lengthAdjust="spacing" textLength="68" x="117.25" y="87.9639">customer</text><line style="stroke:#181818;stroke-width:0.5;" x1="33.5" x2="236.5" y1="96.2656" y2="96.2656"/><ellipse cx="43.5" cy="109.9141" fill="none" rx="3" ry="3" style="stroke:#038048;stroke-width:1.0;"/><text fill="#000000" font-family="sans-serif" font-size="14" lengthAdjust="spacing" textLength="88" x="52.5" y="113.2607">id serial [PK]</text><line style="stroke:#181818;stroke-width:1.0;stroke-dasharray:1.0,2.0;" x1="33.5" x2="236.5" y1="120.5625" y2="120.5625"/><text fill="#000000" font-family="sans-serif" font-size="14" lengthAdjust="spacing" textLength="124" x="38.5" y="137.5576">name varchar(20)</text><text fill="#000000" font-family="sans-serif" font-size="14" lengthAdjust="spacing" textLength="165" x="38.5" y="153.8545">name_kana varchar(20)</text><text fill="#000000" font-family="sans-serif" font-size="14" lengthAdjust="spacing" textLength="158" x="38.5" y="170.1514">address1 varchar(100)</text><text fill="#000000" font-family="sans-serif" font-size="14" lengthAdjust="spacing" textLength="157" x="38.5" y="186.4482">address2 varchar(100)</text><text fill="#000000" font-family="sans-serif" font-size="14" lengthAdjust="spacing" textLength="193" x="38.5" y="202.7451">phone_number varchar(20)</text><text fill="#000000" font-family="sans-serif" font-size="14" lengthAdjust="spacing" textLength="185" x="38.5" y="219.042">mail_address varchar(200)</text><text fill="#000000" font-family="sans-serif" font-size="14" lengthAdjust="spacing" textLength="155" x="38.5" y="235.3389">username varchar(30)</text><text fill="#000000" font-family="sans-serif" font-size="14" lengthAdjust="spacing" textLength="152" x="38.5" y="251.6357">password varchar(30)</text><text fill="#000000" font-family="sans-serif" font-size="14" lengthAdjust="spacing" textLength="181" x="38.5" y="267.9326">register_date timestamp</text></g><!--class orders--><g id="elem_orders"><rect codeLine="73" fill="#F1F1F1" height="145.75" id="orders" rx="2.5" ry="2.5" style="stroke:#181818;stroke-width:0.5;" width="225" x="22.5" y="335"/><ellipse cx="107.75" cy="355.1328" fill="#ADD1B2" rx="11" ry="11" style="stroke:#181818;stroke-width:1.0;"/><path d="M106.5469,356.0078 L108,356.0078 L108,356.1172 C108,356.5234 108.0313,356.6797 108.1094,356.8359 C108.2656,357.0859 108.5469,357.2422 108.8438,357.2422 C109.0938,357.2422 109.3594,357.1016 109.5156,356.8828 C109.6406,356.7266 109.6719,356.5703 109.6719,356.1172 L109.6719,354.1953 C109.6719,354.0391 109.6719,353.9922 109.6563,353.8359 C109.5938,353.3672 109.2813,353.0547 108.8281,353.0547 C108.5781,353.0547 108.3125,353.1953 108.1406,353.4141 C108.0313,353.5859 108,353.7422 108,354.1953 L108,354.3203 L106.5469,354.3203 L106.5469,351.9141 L110.5313,351.9141 L110.5313,352.7734 C110.5313,353.1797 110.5625,353.3516 110.6406,353.5078 C110.8125,353.7578 111.0938,353.9141 111.375,353.9141 C111.6406,353.9141 111.9063,353.7734 112.0781,353.5547 C112.1875,353.3828 112.2188,353.2422 112.2188,352.7734 L112.2188,350.2266 L104.5938,350.2266 C104.1563,350.2266 104.0313,350.2422 103.875,350.3359 C103.625,350.4922 103.4688,350.7891 103.4688,351.0703 C103.4688,351.3516 103.6094,351.6016 103.8281,351.7734 C103.9844,351.8828 104.1719,351.9141 104.5938,351.9141 L104.8438,351.9141 L104.8438,358.4297 L104.5938,358.4297 C104.1875,358.4297 104.0313,358.4453 103.875,358.5547 C103.625,358.7266 103.4688,358.9922 103.4688,359.2891 C103.4688,359.5547 103.6094,359.8047 103.8281,359.9609 C103.9688,360.0859 104.2031,360.1328 104.5938,360.1328 L112.5938,360.1328 L112.5938,357.5547 C112.5938,357.1172 112.5625,356.9766 112.4844,356.8203 C112.3125,356.5703 112.0313,356.4141 111.75,356.4141 C111.4844,356.4141 111.2188,356.5234 111.0469,356.7734 C110.9375,356.9297 110.9063,357.0703 110.9063,357.5547 L110.9063,358.4297 L106.5469,358.4297 L106.5469,356.0078 Z " fill="#000000"/><text fill="#000000" font-family="sans-serif" font-size="12" font-style="italic" lengthAdjust="spacing" textLength="38" x="132.25" y="351.1387">&#171;&#27880;&#25991;&#187;</text><text fill="#000000" font-family="sans-serif" font-size="14" lengthAdjust="spacing" textLength="46" x="128.25" y="366.9639">orders</text><line style="stroke:#181818;stroke-width:0.5;" x1="23.5" x2="246.5" y1="375.2656" y2="375.2656"/><ellipse cx="33.5" cy="388.9141" fill="none" rx="3" ry="3" style="stroke:#038048;stroke-width:1.0;"/><text fill="#000000" font-family="sans-serif" font-size="14" lengthAdjust="spacing" textLength="88" x="42.5" y="392.2607">id serial [PK]</text><line style="stroke:#181818;stroke-width:1.0;stroke-dasharray:1.0,2.0;" x1="23.5" x2="246.5" y1="399.5625" y2="399.5625"/><polygon fill="none" points="33.5,408.2109,37.5,412.2109,33.5,416.2109,29.5,412.2109" style="stroke:#B38D22;stroke-width:1.0;"/><text fill="#000000" font-family="sans-serif" font-size="14" lengthAdjust="spacing" textLength="177" x="42.5" y="416.5576">customer_id integer [FK]</text><polygon fill="none" points="33.5,424.5078,37.5,428.5078,33.5,432.5078,29.5,428.5078" style="stroke:#B38D22;stroke-width:1.0;"/><text fill="#000000" font-family="sans-serif" font-size="14" lengthAdjust="spacing" textLength="199" x="42.5" y="432.8545">order_status_id integer [FK]</text><line style="stroke:#181818;stroke-width:1.0;stroke-dasharray:1.0,2.0;" x1="23.5" x2="246.5" y1="440.1563" y2="440.1563"/><text fill="#000000" font-family="sans-serif" font-size="14" lengthAdjust="spacing" textLength="163" x="28.5" y="457.1514">order_date timestamp</text><text fill="#000000" font-family="sans-serif" font-size="14" lengthAdjust="spacing" textLength="154" x="28.5" y="473.4482">amount_total integer</text></g><!--class order_detail--><g id="elem_order_detail"><rect codeLine="83" fill="#F1F1F1" height="145.75" id="order_detail" rx="2.5" ry="2.5" style="stroke:#181818;stroke-width:0.5;" width="203" x="223.5" y="541"/><ellipse cx="277.25" cy="561.1328" fill="#ADD1B2" rx="11" ry="11" style="stroke:#181818;stroke-width:1.0;"/><path d="M276.0469,562.0078 L277.5,562.0078 L277.5,562.1172 C277.5,562.5234 277.5313,562.6797 277.6094,562.8359 C277.7656,563.0859 278.0469,563.2422 278.3438,563.2422 C278.5938,563.2422 278.8594,563.1016 279.0156,562.8828 C279.1406,562.7266 279.1719,562.5703 279.1719,562.1172 L279.1719,560.1953 C279.1719,560.0391 279.1719,559.9922 279.1563,559.8359 C279.0938,559.3672 278.7813,559.0547 278.3281,559.0547 C278.0781,559.0547 277.8125,559.1953 277.6406,559.4141 C277.5313,559.5859 277.5,559.7422 277.5,560.1953 L277.5,560.3203 L276.0469,560.3203 L276.0469,557.9141 L280.0313,557.9141 L280.0313,558.7734 C280.0313,559.1797 280.0625,559.3516 280.1406,559.5078 C280.3125,559.7578 280.5938,559.9141 280.875,559.9141 C281.1406,559.9141 281.4063,559.7734 281.5781,559.5547 C281.6875,559.3828 281.7188,559.2422 281.7188,558.7734 L281.7188,556.2266 L274.0938,556.2266 C273.6563,556.2266 273.5313,556.2422 273.375,556.3359 C273.125,556.4922 272.9688,556.7891 272.9688,557.0703 C272.9688,557.3516 273.1094,557.6016 273.3281,557.7734 C273.4844,557.8828 273.6719,557.9141 274.0938,557.9141 L274.3438,557.9141 L274.3438,564.4297 L274.0938,564.4297 C273.6875,564.4297 273.5313,564.4453 273.375,564.5547 C273.125,564.7266 272.9688,564.9922 272.9688,565.2891 C272.9688,565.5547 273.1094,565.8047 273.3281,565.9609 C273.4688,566.0859 273.7031,566.1328 274.0938,566.1328 L282.0938,566.1328 L282.0938,563.5547 C282.0938,563.1172 282.0625,562.9766 281.9844,562.8203 C281.8125,562.5703 281.5313,562.4141 281.25,562.4141 C280.9844,562.4141 280.7188,562.5234 280.5469,562.7734 C280.4375,562.9297 280.4063,563.0703 280.4063,563.5547 L280.4063,564.4297 L276.0469,564.4297 L276.0469,562.0078 Z " fill="#000000"/><text fill="#000000" font-family="sans-serif" font-size="12" font-style="italic" lengthAdjust="spacing" textLength="62" x="310.25" y="557.1387">&#171;&#27880;&#25991;&#26126;&#32048;&#187;</text><text fill="#000000" font-family="sans-serif" font-size="14" lengthAdjust="spacing" textLength="87" x="297.75" y="572.9639">order_detail</text><line style="stroke:#181818;stroke-width:0.5;" x1="224.5" x2="425.5" y1="581.2656" y2="581.2656"/><ellipse cx="234.5" cy="594.9141" fill="none" rx="3" ry="3" style="stroke:#038048;stroke-width:1.0;"/><text fill="#000000" font-family="sans-serif" font-size="14" lengthAdjust="spacing" textLength="88" x="243.5" y="598.2607">id serial [PK]</text><line style="stroke:#181818;stroke-width:1.0;stroke-dasharray:1.0,2.0;" x1="224.5" x2="425.5" y1="605.5625" y2="605.5625"/><polygon fill="none" points="234.5,614.2109,238.5,618.2109,234.5,622.2109,230.5,618.2109" style="stroke:#B38D22;stroke-width:1.0;"/><text fill="#000000" font-family="sans-serif" font-size="14" lengthAdjust="spacing" textLength="148" x="243.5" y="622.5576">order_id integer [FK]</text><polygon fill="none" points="234.5,630.5078,238.5,634.5078,234.5,638.5078,230.5,634.5078" style="stroke:#B38D22;stroke-width:1.0;"/><text fill="#000000" font-family="sans-serif" font-size="14" lengthAdjust="spacing" textLength="166" x="243.5" y="638.8545">product_id integer [FK]</text><polygon fill="none" points="234.5,646.8047,238.5,650.8047,234.5,654.8047,230.5,650.8047" style="stroke:#B38D22;stroke-width:1.0;"/><text fill="#000000" font-family="sans-serif" font-size="14" lengthAdjust="spacing" textLength="177" x="243.5" y="655.1514">customer_id integer [FK]</text><line style="stroke:#181818;stroke-width:1.0;stroke-dasharray:1.0,2.0;" x1="224.5" x2="425.5" y1="662.4531" y2="662.4531"/><text fill="#000000" font-family="sans-serif" font-size="14" lengthAdjust="spacing" textLength="98" x="229.5" y="679.4482">count integer</text></g><!--link department to employee--><g id="link_department_employee"><path codeLine="93" d="M771,218.144 C771,252.241 771,297.396 771,335.002 " fill="none" id="department-employee" style="stroke:#181818;stroke-width:1.0;"/><line style="stroke:#181818;stroke-width:1.0;" x1="767" x2="775" y1="214.053" y2="214.053"/><line style="stroke:#181818;stroke-width:1.0;" x1="767" x2="775" y1="217.053" y2="217.053"/><line style="stroke:#181818;stroke-width:1.0;" x1="771" x2="771" y1="218.053" y2="210.053"/><line style="stroke:#181818;stroke-width:1.0;" x1="771" x2="777" y1="335.397" y2="343.397"/><line style="stroke:#181818;stroke-width:1.0;" x1="771" x2="765" y1="335.397" y2="343.397"/><line style="stroke:#181818;stroke-width:1.0;" x1="771" x2="771" y1="335.397" y2="343.397"/><line style="stroke:#181818;stroke-width:1.0;" x1="775" x2="767" y1="333.397" y2="333.397"/></g><!--link orders to order_detail--><g id="link_orders_order_detail"><path codeLine="94" d="M207.793,487.157 C222.315,502.748 237.569,519.127 252.094,534.722 " fill="none" id="orders-order_detail" style="stroke:#181818;stroke-width:1.0;"/><line style="stroke:#181818;stroke-width:1.0;" x1="202.0526" x2="207.9073" y1="486.8633" y2="481.4114"/><line style="stroke:#181818;stroke-width:1.0;" x1="204.097" x2="209.9517" y1="489.0588" y2="483.607"/><line style="stroke:#181818;stroke-width:1.0;" x1="207.7058" x2="202.254" y1="487.0647" y2="481.21"/><line style="stroke:#181818;stroke-width:1.0;" x1="252.3842" x2="262.227" y1="535.0323" y2="536.7981"/><line style="stroke:#181818;stroke-width:1.0;" x1="252.3842" x2="253.445" y1="535.0323" y2="544.9759"/><line style="stroke:#181818;stroke-width:1.0;" x1="252.3842" x2="257.836" y1="535.0323" y2="540.887"/><line style="stroke:#181818;stroke-width:1.0;" x1="253.9486" x2="248.0939" y1="530.8427" y2="536.2945"/></g><!--link product to product_stock--><g id="link_product_product_stock"><path codeLine="95" d="M497.975,253.355 C508.882,284.959 520.942,319.905 530.802,348.474 " fill="none" id="product-product_stock" style="stroke:#181818;stroke-width:1.0;"/><line style="stroke:#181818;stroke-width:1.0;" x1="493.1616" x2="500.724" y1="251.669" y2="249.0594"/><line style="stroke:#181818;stroke-width:1.0;" x1="494.1401" x2="501.7026" y1="254.5049" y2="251.8954"/><line style="stroke:#181818;stroke-width:1.0;" x1="498.2475" x2="495.638" y1="254.1454" y2="246.583"/><line style="stroke:#181818;stroke-width:1.0;" x1="535.6048" x2="528.0427" y1="350.1307" y2="352.7412"/><line style="stroke:#181818;stroke-width:1.0;" x1="534.6259" x2="527.0638" y1="347.2949" y2="349.9054"/><line style="stroke:#181818;stroke-width:1.0;" x1="530.5185" x2="533.129" y1="347.6549" y2="355.217"/></g><!--link employee to employee_account--><g id="link_employee_employee_account"><path codeLine="96" d="M771,479.958 C771,500.167 771,522.174 771,542.365 " fill="none" id="employee-employee_account" style="stroke:#181818;stroke-width:1.0;"/><line style="stroke:#181818;stroke-width:1.0;" x1="767" x2="775" y1="476.708" y2="476.708"/><line style="stroke:#181818;stroke-width:1.0;" x1="767" x2="775" y1="479.708" y2="479.708"/><line style="stroke:#181818;stroke-width:1.0;" x1="771" x2="771" y1="480.708" y2="472.708"/><line style="stroke:#181818;stroke-width:1.0;" x1="775" x2="767" y1="545.425" y2="545.425"/><line style="stroke:#181818;stroke-width:1.0;" x1="775" x2="767" y1="542.425" y2="542.425"/><line style="stroke:#181818;stroke-width:1.0;" x1="771" x2="771" y1="541.425" y2="549.425"/></g><!--link product to product_category--><g id="link_product_product_category"><path codeLine="97" d="M429.818,253.955 C414.852,288.233 398.206,326.362 385.272,355.986 " fill="none" id="product-product_category" style="stroke:#181818;stroke-width:1.0;"/><line style="stroke:#181818;stroke-width:1.0;" x1="429.8361" x2="427.5382" y1="253.9147" y2="244.1823"/><line style="stroke:#181818;stroke-width:1.0;" x1="429.8361" x2="438.5358" y1="253.9147" y2="248.9837"/><line style="stroke:#181818;stroke-width:1.0;" x1="429.8361" x2="433.037" y1="253.9147" y2="246.583"/><line style="stroke:#181818;stroke-width:1.0;" x1="425.37" x2="432.7017" y1="254.1472" y2="257.3481"/><line style="stroke:#181818;stroke-width:1.0;" x1="387.3335" x2="380.002" y1="361.262" y2="358.0605"/><line style="stroke:#181818;stroke-width:1.0;" x1="388.534" x2="381.2025" y1="358.5127" y2="355.3112"/><line style="stroke:#181818;stroke-width:1.0;" x1="385.2685" x2="382.067" y1="355.9955" y2="363.327"/></g><!--link customer to orders--><g id="link_customer_orders"><path codeLine="98" d="M135,283.193 C135,297.867 135,312.612 135,326.552 " fill="none" id="customer-orders" style="stroke:#181818;stroke-width:1.0;"/><line style="stroke:#181818;stroke-width:1.0;" x1="131" x2="139" y1="279.14" y2="279.14"/><line style="stroke:#181818;stroke-width:1.0;" x1="131" x2="139" y1="282.14" y2="282.14"/><line style="stroke:#181818;stroke-width:1.0;" x1="135" x2="135" y1="283.14" y2="275.14"/><line style="stroke:#181818;stroke-width:1.0;" x1="135" x2="141" y1="326.66" y2="334.66"/><line style="stroke:#181818;stroke-width:1.0;" x1="135" x2="129" y1="326.66" y2="334.66"/><line style="stroke:#181818;stroke-width:1.0;" x1="135" x2="135" y1="326.66" y2="334.66"/><line style="stroke:#181818;stroke-width:1.0;" x1="139" x2="131" y1="324.66" y2="324.66"/></g><!--link orders to order_status--><g id="link_orders_order_status"><path codeLine="99" d="M127.203,488.526 C124.769,513.358 122.151,540.06 119.967,562.341 " fill="none" id="orders-order_status" style="stroke:#181818;stroke-width:1.0;"/><line style="stroke:#181818;stroke-width:1.0;" x1="123.5492" x2="131.5109" y1="484.7999" y2="485.5818"/><line style="stroke:#181818;stroke-width:1.0;" x1="123.2559" x2="131.2176" y1="487.7855" y2="488.5675"/><line style="stroke:#181818;stroke-width:1.0;" x1="127.139" x2="127.921" y1="489.1717" y2="481.21"/><line style="stroke:#181818;stroke-width:1.0;" x1="123.6441" x2="115.6822" y1="565.8202" y2="565.0399"/><line style="stroke:#181818;stroke-width:1.0;" x1="123.9367" x2="115.9749" y1="562.8346" y2="562.0542"/><line style="stroke:#181818;stroke-width:1.0;" x1="120.0533" x2="119.273" y1="561.4492" y2="569.411"/></g><!--SRC=[fLLDRzD04BtxLwpQ2mYbQiCDMJaXBbouLyYQsXF7YjSskskggEa1MsevSQb0875fLK549OHeBqLy_1ZBYVWNRE8uoJgRD0a-hVnsPjwRh-LjBuY00IMy1Kvuw0KkQOBFqJ0YiDlW8jdAqjCi_PabVxBqm-XmInwHPkpx0N9keRr5W1C1p4LXyGuNI8bfFWO11y2nqI17Xa7aXu7mH8SWZVomWsY1ROTn84npSFaxFplFaeiikSgIJrbwdQMlHtPa_3qWdaCuCWzyil_iwVC9iBCpEMvFFSlBNY3GHKRsd-Xl1q2Hl0Hcju3Tg-_Udm0HS7uOCcSEFDQgADblGDT1cNX1fSEr2U_jpZ0U8bOR0fY7LSxJWARvD-qDVdrlDDOZhIUXHebOwCIsi6oGWaBMCStyxKb-zcfOtFGaIswozCjgsQhLbfTB6xSCfuHO6gQYiIXELSN24cci5_RMgB-OPsFfIa4yAgVDYfa_OrinTj17WLRJ1rTneQy05w7TBlEHV-pbFwxMRjCNCHHEgupB8DEyQ9Z8EK8cUO28kMdshtlzTwToVGpxe5WeoUtQZ5RfGJkMsYaosUVdd_El5_yNfBvqs6PHS1mcT-AUVb37Q5sFHgqmG2k8wO5iCPrp2fvlZNteMoIMgXJc3vSjjbcGeUl9nSqiH_Ox4Hv5MJGQBIhff9WRhBsoDWidQbjfcrLsOt5VGtsKTJfyPImH2adhhbPrKCWib-hwxzyCRhvjeB5mjbZW_F1KRzoPfPbuesUqAcswxBlTMgrxL3vOHb50KlnLP1jZMWNMLVU8KJeeqUexFh4-LgtB3MgKafJGNE7JLKh_3m00]--></g></svg>