<svg xmlns="http://www.w3.org/2000/svg" xmlns:xlink="http://www.w3.org/1999/xlink" contentStyleType="text/css" height="719px" preserveAspectRatio="none" style="width:892px;height:719px;background:#FFFFFF;" version="1.1" viewBox="0 0 892 719" width="892px" zoomAndPan="magnify"><defs/><g><!--cluster target_system--><g id="cluster_target_system"><path d="M6,16 C6,6 440.5,6 440.5,6 C440.5,6 875,6 875,16 L875,692.73 C875,702.73 440.5,702.73 440.5,702.73 C440.5,702.73 6,702.73 6,692.73 L6,16 " fill="none" style="stroke:#181818;stroke-width:1.0;"/><path d="M6,16 C6,26 440.5,26 440.5,26 C440.5,26 875,26 875,16 " fill="none" style="stroke:#181818;stroke-width:1.0;"/><text fill="#000000" font-family="sans-serif" font-size="14" font-weight="bold" lengthAdjust="spacing" textLength="185.9235" x="347.5383" y="40.9951">&#12487;&#12540;&#12479;&#12505;&#12540;&#12473; : fullness_ec</text></g><!--class employee_account--><g id="elem_employee_account"><rect codeLine="5" fill="#F1F1F1" height="129.4531" id="employee_account" rx="2.5" ry="2.5" style="stroke:#181818;stroke-width:0.5;" width="202.0596" x="28.97" y="549.13"/><ellipse cx="61.1513" cy="569.2628" fill="#ADD1B2" rx="11" ry="11" style="stroke:#181818;stroke-width:1.0;"/><path d="M65.2607,575.2628 L57.5419,575.2628 L57.5419,562.8722 L65.2607,562.8722 L65.2607,565.0284 L59.995,565.0284 L59.995,567.7003 L64.7607,567.7003 L64.7607,569.8566 L59.995,569.8566 L59.995,573.1066 L65.2607,573.1066 L65.2607,575.2628 Z " fill="#000000"/><text fill="#000000" font-family="sans-serif" font-size="12" font-style="italic" lengthAdjust="spacing" textLength="98.6842" x="95.5667" y="565.2687">&#171;&#31038;&#21729;&#12450;&#12459;&#12454;&#12531;&#12488;&#187;</text><text fill="#000000" font-family="sans-serif" font-size="14" lengthAdjust="spacing" textLength="131.8789" x="78.9694" y="581.0939">employee_account</text><line style="stroke:#181818;stroke-width:0.5;" x1="29.97" x2="230.0296" y1="589.3956" y2="589.3956"/><ellipse cx="39.97" cy="603.0441" fill="none" rx="3" ry="3" style="stroke:#038048;stroke-width:1.0;"/><text fill="#000000" font-family="sans-serif" font-size="14" lengthAdjust="spacing" textLength="88.2451" x="48.97" y="606.3907">id serial [PK]</text><line style="stroke:#181818;stroke-width:1.0;stroke-dasharray:1.0,2.0;" x1="29.97" x2="230.0296" y1="613.6925" y2="613.6925"/><polygon fill="none" points="39.97,622.3409,43.97,626.3409,39.97,630.3409,35.97,626.3409" style="stroke:#B38D22;stroke-width:1.0;"/><text fill="#000000" font-family="sans-serif" font-size="14" lengthAdjust="spacing" textLength="176.0596" x="48.97" y="630.6876">employee_id integer [FK]</text><line style="stroke:#181818;stroke-width:1.0;stroke-dasharray:1.0,2.0;" x1="29.97" x2="230.0296" y1="637.9894" y2="637.9894"/><text fill="#000000" font-family="sans-serif" font-size="14" lengthAdjust="spacing" textLength="126.417" x="34.97" y="654.9845">name varchar(20)</text><text fill="#000000" font-family="sans-serif" font-size="14" lengthAdjust="spacing" textLength="153.4258" x="34.97" y="671.2814">password varchar(20)</text></g><!--class employee--><g id="elem_employee"><rect codeLine="14" fill="#F1F1F1" height="129.4531" id="employee" rx="2.5" ry="2.5" style="stroke:#181818;stroke-width:0.5;" width="215.7793" x="22.11" y="343.38"/><ellipse cx="91.1974" cy="363.5128" fill="#ADD1B2" rx="11" ry="11" style="stroke:#181818;stroke-width:1.0;"/><path d="M95.3068,369.5128 L87.588,369.5128 L87.588,357.1222 L95.3068,357.1222 L95.3068,359.2784 L90.0412,359.2784 L90.0412,361.9503 L94.8068,361.9503 L94.8068,364.1066 L90.0412,364.1066 L90.0412,367.3566 L95.3068,367.3566 L95.3068,369.5128 Z " fill="#000000"/><text fill="#000000" font-family="sans-serif" font-size="12" font-style="italic" lengthAdjust="spacing" textLength="38.6838" x="126.9078" y="359.5187">&#171;&#31038;&#21729;&#187;</text><text fill="#000000" font-family="sans-serif" font-size="14" lengthAdjust="spacing" textLength="69.1045" x="111.6974" y="375.3439">employee</text><line style="stroke:#181818;stroke-width:0.5;" x1="23.11" x2="236.8893" y1="383.6456" y2="383.6456"/><ellipse cx="33.11" cy="397.2941" fill="none" rx="3" ry="3" style="stroke:#038048;stroke-width:1.0;"/><text fill="#000000" font-family="sans-serif" font-size="14" lengthAdjust="spacing" textLength="88.2451" x="42.11" y="400.6407">id serial [PK]</text><line style="stroke:#181818;stroke-width:1.0;stroke-dasharray:1.0,2.0;" x1="23.11" x2="236.8893" y1="407.9425" y2="407.9425"/><polygon fill="none" points="33.11,416.5909,37.11,420.5909,33.11,424.5909,29.11,420.5909" style="stroke:#B38D22;stroke-width:1.0;"/><text fill="#000000" font-family="sans-serif" font-size="14" lengthAdjust="spacing" textLength="189.7793" x="42.11" y="424.9376">department_id integer [FK]</text><line style="stroke:#181818;stroke-width:1.0;stroke-dasharray:1.0,2.0;" x1="23.11" x2="236.8893" y1="432.2394" y2="432.2394"/><text fill="#000000" font-family="sans-serif" font-size="14" lengthAdjust="spacing" textLength="135.3242" x="28.11" y="449.2345">name varchar(100)</text><text fill="#000000" font-family="sans-serif" font-size="14" lengthAdjust="spacing" textLength="176.4629" x="28.11" y="465.5314">name_kana varchar(100)</text></g><!--class department--><g id="elem_department"><rect codeLine="23" fill="#F1F1F1" height="88.8594" id="department" rx="2.5" ry="2.5" style="stroke:#181818;stroke-width:0.5;" width="147.3242" x="56.34" y="121.18"/><ellipse cx="85.965" cy="141.3128" fill="#ADD1B2" rx="11" ry="11" style="stroke:#181818;stroke-width:1.0;"/><path d="M90.0744,147.3128 L82.3556,147.3128 L82.3556,134.9222 L90.0744,134.9222 L90.0744,137.0784 L84.8088,137.0784 L84.8088,139.7503 L89.5744,139.7503 L89.5744,141.9066 L84.8088,141.9066 L84.8088,145.1566 L90.0744,145.1566 L90.0744,147.3128 Z " fill="#000000"/><text fill="#000000" font-family="sans-serif" font-size="12" font-style="italic" lengthAdjust="spacing" textLength="38.6838" x="125.2852" y="137.3187">&#171;&#37096;&#32626;&#187;</text><text fill="#000000" font-family="sans-serif" font-size="14" lengthAdjust="spacing" textLength="82.8242" x="103.215" y="153.1439">department</text><line style="stroke:#181818;stroke-width:0.5;" x1="57.34" x2="202.6642" y1="161.4456" y2="161.4456"/><ellipse cx="67.34" cy="175.0941" fill="none" rx="3" ry="3" style="stroke:#038048;stroke-width:1.0;"/><text fill="#000000" font-family="sans-serif" font-size="14" lengthAdjust="spacing" textLength="88.2451" x="76.34" y="178.4407">id serial [PK]</text><line style="stroke:#181818;stroke-width:1.0;stroke-dasharray:1.0,2.0;" x1="57.34" x2="202.6642" y1="185.7425" y2="185.7425"/><text fill="#000000" font-family="sans-serif" font-size="14" lengthAdjust="spacing" textLength="135.3242" x="62.34" y="202.7376">name varchar(100)</text></g><!--class product_category--><g id="elem_product_category"><rect codeLine="29" fill="#F1F1F1" height="88.8594" id="product_category" rx="2.5" ry="2.5" style="stroke:#181818;stroke-width:0.5;" width="155.0264" x="272.49" y="363.68"/><ellipse cx="287.49" cy="383.8128" fill="#ADD1B2" rx="11" ry="11" style="stroke:#181818;stroke-width:1.0;"/><path d="M291.5994,389.8128 L283.8806,389.8128 L283.8806,377.4222 L291.5994,377.4222 L291.5994,379.5784 L286.3338,379.5784 L286.3338,382.2503 L291.0994,382.2503 L291.0994,384.4066 L286.3338,384.4066 L286.3338,387.6566 L291.5994,387.6566 L291.5994,389.8128 Z " fill="#000000"/><text fill="#000000" font-family="sans-serif" font-size="12" font-style="italic" lengthAdjust="spacing" textLength="86.6841" x="319.6611" y="379.8187">&#171;&#21830;&#21697;&#12459;&#12486;&#12468;&#12522;&#187;</text><text fill="#000000" font-family="sans-serif" font-size="14" lengthAdjust="spacing" textLength="123.0264" x="301.49" y="395.6439">product_category</text><line style="stroke:#181818;stroke-width:0.5;" x1="273.49" x2="426.5164" y1="403.9456" y2="403.9456"/><ellipse cx="283.49" cy="417.5941" fill="none" rx="3" ry="3" style="stroke:#038048;stroke-width:1.0;"/><text fill="#000000" font-family="sans-serif" font-size="14" lengthAdjust="spacing" textLength="88.2451" x="292.49" y="420.9407">id serial [PK]</text><line style="stroke:#181818;stroke-width:1.0;" x1="273.49" x2="426.5164" y1="428.2425" y2="428.2425"/><text fill="#000000" font-family="sans-serif" font-size="14" lengthAdjust="spacing" textLength="126.417" x="278.49" y="445.2376">name varchar(20)</text></g><!--class product--><g id="elem_product"><rect codeLine="35" fill="#F1F1F1" height="162.0469" id="product" rx="2.5" ry="2.5" style="stroke:#181818;stroke-width:0.5;" width="255.9814" x="298.01" y="84.59"/><ellipse cx="394.6736" cy="104.7228" fill="#ADD1B2" rx="11" ry="11" style="stroke:#181818;stroke-width:1.0;"/><path d="M398.7829,110.7228 L391.0642,110.7228 L391.0642,98.3322 L398.7829,98.3322 L398.7829,100.4884 L393.5173,100.4884 L393.5173,103.1603 L398.2829,103.1603 L398.2829,105.3166 L393.5173,105.3166 L393.5173,108.5666 L398.7829,108.5666 L398.7829,110.7228 Z " fill="#000000"/><text fill="#000000" font-family="sans-serif" font-size="12" font-style="italic" lengthAdjust="spacing" textLength="38.6838" x="422.9088" y="100.7287">&#171;&#21830;&#21697;&#187;</text><text fill="#000000" font-family="sans-serif" font-size="14" lengthAdjust="spacing" textLength="54.1543" x="415.1736" y="116.5539">product</text><line style="stroke:#181818;stroke-width:0.5;" x1="299.01" x2="552.9914" y1="124.8556" y2="124.8556"/><ellipse cx="309.01" cy="138.5041" fill="none" rx="3" ry="3" style="stroke:#038048;stroke-width:1.0;"/><text fill="#000000" font-family="sans-serif" font-size="14" lengthAdjust="spacing" textLength="88.2451" x="318.01" y="141.8507">id serial [PK]</text><line style="stroke:#181818;stroke-width:1.0;stroke-dasharray:1.0,2.0;" x1="299.01" x2="552.9914" y1="149.1525" y2="149.1525"/><polygon fill="none" points="309.01,157.8009,313.01,161.8009,309.01,165.8009,305.01,161.8009" style="stroke:#B38D22;stroke-width:1.0;"/><text fill="#000000" font-family="sans-serif" font-size="14" lengthAdjust="spacing" textLength="229.9814" x="318.01" y="166.1476">product_category_id integer [FK]</text><line style="stroke:#181818;stroke-width:1.0;stroke-dasharray:1.0,2.0;" x1="299.01" x2="552.9914" y1="173.4494" y2="173.4494"/><text fill="#000000" font-family="sans-serif" font-size="14" lengthAdjust="spacing" textLength="126.417" x="304.01" y="190.4445">name varchar(20)</text><text fill="#000000" font-family="sans-serif" font-size="14" lengthAdjust="spacing" textLength="89.4141" x="304.01" y="206.7414">price integer</text><text fill="#000000" font-family="sans-serif" font-size="14" lengthAdjust="spacing" textLength="164.7461" x="304.01" y="223.0382">image_url varchar(200)</text><text fill="#000000" font-family="sans-serif" font-size="14" lengthAdjust="spacing" textLength="131.9609" x="304.01" y="239.3351">delete_flag integer</text></g><!--class product_stock--><g id="elem_product_stock"><rect codeLine="46" fill="#F1F1F1" height="105.1563" id="product_stock" rx="2.5" ry="2.5" style="stroke:#181818;stroke-width:0.5;" width="140.502" x="462.75" y="355.53"/><ellipse cx="482.3375" cy="375.6628" fill="#ADD1B2" rx="11" ry="11" style="stroke:#181818;stroke-width:1.0;"/><path d="M486.4468,381.6628 L478.7281,381.6628 L478.7281,369.2722 L486.4468,369.2722 L486.4468,371.4284 L481.1812,371.4284 L481.1812,374.1003 L485.9468,374.1003 L485.9468,376.2566 L481.1812,376.2566 L481.1812,379.5066 L486.4468,379.5066 L486.4468,381.6628 Z " fill="#000000"/><text fill="#000000" font-family="sans-serif" font-size="12" font-style="italic" lengthAdjust="spacing" textLength="62.684" x="515.1687" y="371.6687">&#171;&#21830;&#21697;&#22312;&#24235;&#187;</text><text fill="#000000" font-family="sans-serif" font-size="14" lengthAdjust="spacing" textLength="98.3076" x="497.3569" y="387.4939">product_stock</text><line style="stroke:#181818;stroke-width:0.5;" x1="463.75" x2="602.252" y1="395.7956" y2="395.7956"/><ellipse cx="473.75" cy="409.4441" fill="none" rx="3" ry="3" style="stroke:#038048;stroke-width:1.0;"/><text fill="#000000" font-family="sans-serif" font-size="14" lengthAdjust="spacing" textLength="88.2451" x="482.75" y="412.7907">id serial [PK]</text><line style="stroke:#181818;stroke-width:1.0;stroke-dasharray:1.0,2.0;" x1="463.75" x2="602.252" y1="420.0925" y2="420.0925"/><text fill="#000000" font-family="sans-serif" font-size="14" lengthAdjust="spacing" textLength="112.9365" x="468.75" y="437.0876">quantity integer</text><text fill="#000000" font-family="sans-serif" font-size="14" lengthAdjust="spacing" textLength="128.502" x="468.75" y="453.3845">product_id integer</text></g><!--class order_status--><g id="elem_order_status"><rect codeLine="53" fill="#F1F1F1" height="88.8594" id="order_status" rx="2.5" ry="2.5" style="stroke:#181818;stroke-width:0.5;" width="147.3242" x="472.34" y="569.43"/><ellipse cx="496.628" cy="589.5628" fill="#ADD1B2" rx="11" ry="11" style="stroke:#181818;stroke-width:1.0;"/><path d="M500.7374,595.5628 L493.0186,595.5628 L493.0186,583.1722 L500.7374,583.1722 L500.7374,585.3284 L495.4717,585.3284 L495.4717,588.0003 L500.2374,588.0003 L500.2374,590.1566 L495.4717,590.1566 L495.4717,593.4066 L500.7374,593.4066 L500.7374,595.5628 Z " fill="#000000"/><text fill="#000000" font-family="sans-serif" font-size="12" font-style="italic" lengthAdjust="spacing" textLength="98.6842" x="510.692" y="585.5687">&#171;&#27880;&#25991;&#12473;&#12486;&#12540;&#12479;&#12473;&#187;</text><text fill="#000000" font-family="sans-serif" font-size="14" lengthAdjust="spacing" textLength="87.5957" x="516.2363" y="601.3939">order_status</text><line style="stroke:#181818;stroke-width:0.5;" x1="473.34" x2="618.6642" y1="609.6956" y2="609.6956"/><ellipse cx="483.34" cy="623.3441" fill="none" rx="3" ry="3" style="stroke:#038048;stroke-width:1.0;"/><text fill="#000000" font-family="sans-serif" font-size="14" lengthAdjust="spacing" textLength="88.2451" x="492.34" y="626.6907">id serial [PK]</text><line style="stroke:#181818;stroke-width:1.0;stroke-dasharray:1.0,2.0;" x1="473.34" x2="618.6642" y1="633.9925" y2="633.9925"/><text fill="#000000" font-family="sans-serif" font-size="14" lengthAdjust="spacing" textLength="135.3242" x="478.34" y="650.9876">name varchar(100)</text></g><!--class customer--><g id="elem_customer"><rect codeLine="59" fill="#F1F1F1" height="219.2344" id="customer" rx="2.5" ry="2.5" style="stroke:#181818;stroke-width:0.5;" width="204.165" x="646.92" y="56"/><ellipse cx="711.7896" cy="76.1328" fill="#ADD1B2" rx="11" ry="11" style="stroke:#181818;stroke-width:1.0;"/><path d="M715.899,82.1328 L708.1803,82.1328 L708.1803,69.7422 L715.899,69.7422 L715.899,71.8984 L710.6334,71.8984 L710.6334,74.5703 L715.399,74.5703 L715.399,76.7266 L710.6334,76.7266 L710.6334,79.9766 L715.899,79.9766 L715.899,82.1328 Z " fill="#000000"/><text fill="#000000" font-family="sans-serif" font-size="12" font-style="italic" lengthAdjust="spacing" textLength="38.6838" x="745.9106" y="72.1387">&#171;&#39015;&#23458;&#187;</text><text fill="#000000" font-family="sans-serif" font-size="14" lengthAdjust="spacing" textLength="65.9258" x="732.2896" y="87.9639">customer</text><line style="stroke:#181818;stroke-width:0.5;" x1="647.92" x2="850.085" y1="96.2656" y2="96.2656"/><ellipse cx="657.92" cy="109.9141" fill="none" rx="3" ry="3" style="stroke:#038048;stroke-width:1.0;"/><text fill="#000000" font-family="sans-serif" font-size="14" lengthAdjust="spacing" textLength="88.2451" x="666.92" y="113.2607">id serial [PK]</text><line style="stroke:#181818;stroke-width:1.0;stroke-dasharray:1.0,2.0;" x1="647.92" x2="850.085" y1="120.5625" y2="120.5625"/><text fill="#000000" font-family="sans-serif" font-size="14" lengthAdjust="spacing" textLength="126.417" x="652.92" y="137.5576">name varchar(20)</text><text fill="#000000" font-family="sans-serif" font-size="14" lengthAdjust="spacing" textLength="167.5557" x="652.92" y="153.8545">name_kana varchar(20)</text><text fill="#000000" font-family="sans-serif" font-size="14" lengthAdjust="spacing" textLength="159.8379" x="652.92" y="170.1514">address1 varchar(100)</text><text fill="#000000" font-family="sans-serif" font-size="14" lengthAdjust="spacing" textLength="159.8379" x="652.92" y="186.4482">address2 varchar(100)</text><text fill="#000000" font-family="sans-serif" font-size="14" lengthAdjust="spacing" textLength="192.165" x="652.92" y="202.7451">phone_number varchar(20)</text><text fill="#000000" font-family="sans-serif" font-size="14" lengthAdjust="spacing" textLength="187.9268" x="652.92" y="219.042">mail_address varchar(200)</text><text fill="#000000" font-family="sans-serif" font-size="14" lengthAdjust="spacing" textLength="156.9531" x="652.92" y="235.3389">username varchar(30)</text><text fill="#000000" font-family="sans-serif" font-size="14" lengthAdjust="spacing" textLength="153.4258" x="652.92" y="251.6357">password varchar(30)</text><text fill="#000000" font-family="sans-serif" font-size="14" lengthAdjust="spacing" textLength="172.833" x="652.92" y="267.9326">register_date timestamp</text></g><!--class orders--><g id="elem_orders"><rect codeLine="73" fill="#F1F1F1" height="145.75" id="orders" rx="2.5" ry="2.5" style="stroke:#181818;stroke-width:0.5;" width="220.5508" x="638.72" y="335.23"/><ellipse cx="722.3098" cy="355.3628" fill="#ADD1B2" rx="11" ry="11" style="stroke:#181818;stroke-width:1.0;"/><path d="M726.4192,361.3628 L718.7005,361.3628 L718.7005,348.9722 L726.4192,348.9722 L726.4192,351.1284 L721.1536,351.1284 L721.1536,353.8003 L725.9192,353.8003 L725.9192,355.9566 L721.1536,355.9566 L721.1536,359.2066 L726.4192,359.2066 L726.4192,361.3628 Z " fill="#000000"/><text fill="#000000" font-family="sans-serif" font-size="12" font-style="italic" lengthAdjust="spacing" textLength="38.6838" x="745.9035" y="351.3687">&#171;&#27880;&#25991;&#187;</text><text fill="#000000" font-family="sans-serif" font-size="14" lengthAdjust="spacing" textLength="44.8711" x="742.8098" y="367.1939">orders</text><line style="stroke:#181818;stroke-width:0.5;" x1="639.72" x2="858.2708" y1="375.4956" y2="375.4956"/><ellipse cx="649.72" cy="389.1441" fill="none" rx="3" ry="3" style="stroke:#038048;stroke-width:1.0;"/><text fill="#000000" font-family="sans-serif" font-size="14" lengthAdjust="spacing" textLength="88.2451" x="658.72" y="392.4907">id serial [PK]</text><line style="stroke:#181818;stroke-width:1.0;stroke-dasharray:1.0,2.0;" x1="639.72" x2="858.2708" y1="399.7925" y2="399.7925"/><polygon fill="none" points="649.72,408.4409,653.72,412.4409,649.72,416.4409,645.72,412.4409" style="stroke:#B38D22;stroke-width:1.0;"/><text fill="#000000" font-family="sans-serif" font-size="14" lengthAdjust="spacing" textLength="172.8809" x="658.72" y="416.7876">customer_id integer [FK]</text><polygon fill="none" points="649.72,424.7378,653.72,428.7378,649.72,432.7378,645.72,428.7378" style="stroke:#B38D22;stroke-width:1.0;"/><text fill="#000000" font-family="sans-serif" font-size="14" lengthAdjust="spacing" textLength="194.5508" x="658.72" y="433.0845">order_status_id integer [FK]</text><line style="stroke:#181818;stroke-width:1.0;stroke-dasharray:1.0,2.0;" x1="639.72" x2="858.2708" y1="440.3863" y2="440.3863"/><text fill="#000000" font-family="sans-serif" font-size="14" lengthAdjust="spacing" textLength="156.1123" x="644.72" y="457.3814">order_date timestamp</text><text fill="#000000" font-family="sans-serif" font-size="14" lengthAdjust="spacing" textLength="147.6016" x="644.72" y="473.6782">amount_total integer</text></g><!--class order_detail--><g id="elem_order_detail"><rect codeLine="83" fill="#F1F1F1" height="145.75" id="order_detail" rx="2.5" ry="2.5" style="stroke:#181818;stroke-width:0.5;" width="198.8809" x="654.56" y="540.98"/><ellipse cx="707.788" cy="561.1128" fill="#ADD1B2" rx="11" ry="11" style="stroke:#181818;stroke-width:1.0;"/><path d="M711.8974,567.1128 L704.1787,567.1128 L704.1787,554.7222 L711.8974,554.7222 L711.8974,556.8784 L706.6318,556.8784 L706.6318,559.5503 L711.3974,559.5503 L711.3974,561.7066 L706.6318,561.7066 L706.6318,564.9566 L711.8974,564.9566 L711.8974,567.1128 Z " fill="#000000"/><text fill="#000000" font-family="sans-serif" font-size="12" font-style="italic" lengthAdjust="spacing" textLength="62.684" x="738.9084" y="557.1187">&#171;&#27880;&#25991;&#26126;&#32048;&#187;</text><text fill="#000000" font-family="sans-serif" font-size="14" lengthAdjust="spacing" textLength="83.9248" x="728.288" y="572.9439">order_detail</text><line style="stroke:#181818;stroke-width:0.5;" x1="655.56" x2="852.4409" y1="581.2456" y2="581.2456"/><ellipse cx="665.56" cy="594.8941" fill="none" rx="3" ry="3" style="stroke:#038048;stroke-width:1.0;"/><text fill="#000000" font-family="sans-serif" font-size="14" lengthAdjust="spacing" textLength="88.2451" x="674.56" y="598.2407">id serial [PK]</text><line style="stroke:#181818;stroke-width:1.0;stroke-dasharray:1.0,2.0;" x1="655.56" x2="852.4409" y1="605.5425" y2="605.5425"/><polygon fill="none" points="665.56,614.1909,669.56,618.1909,665.56,622.1909,661.56,618.1909" style="stroke:#B38D22;stroke-width:1.0;"/><text fill="#000000" font-family="sans-serif" font-size="14" lengthAdjust="spacing" textLength="144.5322" x="674.56" y="622.5376">order_id integer [FK]</text><polygon fill="none" points="665.56,630.4878,669.56,634.4878,665.56,638.4878,661.56,634.4878" style="stroke:#B38D22;stroke-width:1.0;"/><text fill="#000000" font-family="sans-serif" font-size="14" lengthAdjust="spacing" textLength="161.1094" x="674.56" y="638.8345">product_id integer [FK]</text><polygon fill="none" points="665.56,646.7847,669.56,650.7847,665.56,654.7847,661.56,650.7847" style="stroke:#B38D22;stroke-width:1.0;"/><text fill="#000000" font-family="sans-serif" font-size="14" lengthAdjust="spacing" textLength="172.8809" x="674.56" y="655.1314">customer_id integer [FK]</text><line style="stroke:#181818;stroke-width:1.0;stroke-dasharray:1.0,2.0;" x1="655.56" x2="852.4409" y1="662.4331" y2="662.4331"/><text fill="#000000" font-family="sans-serif" font-size="14" lengthAdjust="spacing" textLength="94.0693" x="660.56" y="679.4282">count integer</text></g><!--link department to employee--><g id="link_department_employee"><path codeLine="93" d="M130,218.44 C130,255.56 130,293.28 130,335.19 " fill="none" id="department-employee" style="stroke:#181818;stroke-width:1.0;"/><line style="stroke:#181818;stroke-width:1.0;" x1="126" x2="134" y1="214.44" y2="214.44"/><line style="stroke:#181818;stroke-width:1.0;" x1="126" x2="134" y1="217.44" y2="217.44"/><line style="stroke:#181818;stroke-width:1.0;" x1="130" x2="130" y1="218.44" y2="210.44"/><line style="stroke:#181818;stroke-width:1.0;" x1="130" x2="136" y1="335.19" y2="343.19"/><line style="stroke:#181818;stroke-width:1.0;" x1="130" x2="124" y1="335.19" y2="343.19"/><line style="stroke:#181818;stroke-width:1.0;" x1="130" x2="130" y1="335.19" y2="343.19"/><line style="stroke:#181818;stroke-width:1.0;" x1="134" x2="126" y1="333.19" y2="333.19"/></g><!--link orders to order_detail--><g id="link_orders_order_detail"><path codeLine="94" d="M750.9655,489.2276 C751.4355,508.4576 751.5547,513.2424 752.0247,532.4924 " fill="none" id="orders-order_detail" style="stroke:#181818;stroke-width:1.0;"/><line style="stroke:#181818;stroke-width:1.0;" x1="746.8689" x2="754.8665" y1="485.3265" y2="485.1311"/><line style="stroke:#181818;stroke-width:1.0;" x1="746.9422" x2="754.9398" y1="488.3256" y2="488.1302"/><line style="stroke:#181818;stroke-width:1.0;" x1="750.9655" x2="750.77" y1="489.2276" y2="481.23"/><line style="stroke:#181818;stroke-width:1.0;" x1="752.0247" x2="758.2182" y1="532.4924" y2="540.3436"/><line style="stroke:#181818;stroke-width:1.0;" x1="752.0247" x2="746.2218" y1="532.4924" y2="540.6364"/><line style="stroke:#181818;stroke-width:1.0;" x1="752.0247" x2="752.22" y1="532.4924" y2="540.49"/><line style="stroke:#181818;stroke-width:1.0;" x1="755.9747" x2="747.9771" y1="530.3953" y2="530.5906"/></g><!--link product to product_stock--><g id="link_product_product_stock"><path codeLine="95" d="M465.0308,254.3397 C480.8808,289.9797 492.5785,316.2606 506.6085,347.8006 " fill="none" id="product-product_stock" style="stroke:#181818;stroke-width:1.0;"/><line style="stroke:#181818;stroke-width:1.0;" x1="459.7505" x2="467.0603" y1="252.3103" y2="249.0595"/><line style="stroke:#181818;stroke-width:1.0;" x1="460.9696" x2="468.2793" y1="255.0514" y2="251.8006"/><line style="stroke:#181818;stroke-width:1.0;" x1="465.0308" x2="461.78" y1="254.3397" y2="247.03"/><line style="stroke:#181818;stroke-width:1.0;" x1="511.889" x2="504.5795" y1="349.8295" y2="353.081"/><line style="stroke:#181818;stroke-width:1.0;" x1="510.6697" x2="503.3602" y1="347.0885" y2="350.34"/><line style="stroke:#181818;stroke-width:1.0;" x1="506.6085" x2="509.86" y1="347.8006" y2="355.11"/></g><!--link employee to employee_account--><g id="link_employee_employee_account"><path codeLine="96" d="M130,481.29 C130,505.32 130,516.61 130,540.64 " fill="none" id="employee-employee_account" style="stroke:#181818;stroke-width:1.0;"/><line style="stroke:#181818;stroke-width:1.0;" x1="126" x2="134" y1="477.29" y2="477.29"/><line style="stroke:#181818;stroke-width:1.0;" x1="126" x2="134" y1="480.29" y2="480.29"/><line style="stroke:#181818;stroke-width:1.0;" x1="130" x2="130" y1="481.29" y2="473.29"/><line style="stroke:#181818;stroke-width:1.0;" x1="134" x2="126" y1="544.64" y2="544.64"/><line style="stroke:#181818;stroke-width:1.0;" x1="134" x2="126" y1="541.64" y2="541.64"/><line style="stroke:#181818;stroke-width:1.0;" x1="130" x2="130" y1="540.64" y2="548.64"/></g><!--link product to product_category--><g id="link_product_product_category"><path codeLine="97" d="M398.1785,254.6579 C385.9185,293.4379 376.5209,323.1919 366.2809,355.5919 " fill="none" id="product-product_category" style="stroke:#181818;stroke-width:1.0;"/><line style="stroke:#181818;stroke-width:1.0;" x1="398.1785" x2="394.8691" y1="254.6579" y2="245.2214"/><line style="stroke:#181818;stroke-width:1.0;" x1="398.1785" x2="406.3109" y1="254.6579" y2="248.8386"/><line style="stroke:#181818;stroke-width:1.0;" x1="398.1785" x2="400.59" y1="254.6579" y2="247.03"/><line style="stroke:#181818;stroke-width:1.0;" x1="393.7617" x2="401.3896" y1="255.3591" y2="257.7706"/><line style="stroke:#181818;stroke-width:1.0;" x1="368.8895" x2="361.2614" y1="360.6114" y2="358.2005"/><line style="stroke:#181818;stroke-width:1.0;" x1="369.7935" x2="362.1655" y1="357.7508" y2="355.34"/><line style="stroke:#181818;stroke-width:1.0;" x1="366.2809" x2="363.87" y1="355.5919" y2="363.22"/></g><!--link customer to orders--><g id="link_customer_orders"><path codeLine="98" d="M749,283.6 C749,303.73 749,308.29 749,326.99 " fill="none" id="customer-orders" style="stroke:#181818;stroke-width:1.0;"/><line style="stroke:#181818;stroke-width:1.0;" x1="745" x2="753" y1="279.6" y2="279.6"/><line style="stroke:#181818;stroke-width:1.0;" x1="745" x2="753" y1="282.6" y2="282.6"/><line style="stroke:#181818;stroke-width:1.0;" x1="749" x2="749" y1="283.6" y2="275.6"/><line style="stroke:#181818;stroke-width:1.0;" x1="749" x2="755" y1="326.99" y2="334.99"/><line style="stroke:#181818;stroke-width:1.0;" x1="749" x2="743" y1="326.99" y2="334.99"/><line style="stroke:#181818;stroke-width:1.0;" x1="749" x2="749" y1="326.99" y2="334.99"/><line style="stroke:#181818;stroke-width:1.0;" x1="753" x2="745" y1="324.99" y2="324.99"/></g><!--link orders to order_status--><g id="link_orders_order_status"><path codeLine="99" d="M671.4938,486.8975 C642.3038,516.1975 620.8069,537.7732 595.3169,563.3532 " fill="none" id="orders-order_status" style="stroke:#181818;stroke-width:1.0;"/><line style="stroke:#181818;stroke-width:1.0;" x1="671.4832" x2="677.1506" y1="481.2406" y2="486.8868"/><line style="stroke:#181818;stroke-width:1.0;" x1="669.3658" x2="675.0333" y1="483.3659" y2="489.0122"/><line style="stroke:#181818;stroke-width:1.0;" x1="671.4938" x2="677.14" y1="486.8975" y2="481.23"/><line style="stroke:#181818;stroke-width:1.0;" x1="595.3268" x2="589.66" y1="569.01" y2="563.3632"/><line style="stroke:#181818;stroke-width:1.0;" x1="597.4444" x2="591.7776" y1="566.885" y2="561.2381"/><line style="stroke:#181818;stroke-width:1.0;" x1="595.3169" x2="589.67" y1="563.3532" y2="569.02"/></g><!--SRC=[fLLDRzD04BtxLwpQ2mYbQiCDMJaXBbouLyYQsXF7YjSskskggEa1MsevSQb0875fLK549OHeBqLy_1ZBYVWNRE8uoJgRD0a-hVnsPjwRh-LjBuY00IMy1Kvuw0KkQOBFqJ0YiDlW8jdAqjCi_PabVxBqm-XmInwHPkpx0N9keRr5W1C1p4LXyGuNI8bfFWO11y2nqI17Xa7aXu7mH8SWZVomWsY1ROTn84npSFaxFplFaeiikSgIJrbwdQMlHtPa_3qWdaCuCWzyil_iwVC9iBCpEMvFFSlBNY3GHKRsd-Xl1q2Hl0Hcju3Tg-_Udm0HS7uOCcSEFDQgADblGDT1cNX1fSEr2U_jpZ0U8bOR0fY7LSxJWARvD-qDVdrlDDOZhIUXHebOwCIsi6oGWaBMCStyxKb-zcfOtFGaIswozCjgsQhLbfTB6xSCfuHO6gQYiIXELSN24cci5_RMgB-OPsFfIa4yAgVDYfa_OrinTj17WLRJ1rTneQy05w7TBlEHV-pbFwxMRjCNCHHEgupB8DEyQ9Z8EK8cUO28kMdshtlzTwToVGpxe5WeoUtQZ5RfGJkMsYaosUVdd_El5_yNfBvqs6PHS1mcT-AUVb37Q5sFHgqmG2k8wO5iCPrp2fvlZNteMoIMgXJc3vSjjbcGeUl9nSqiH_Ox4Hv5MJGQBIhff9WRhBsoDWidQbjfcrLsOt5VGtsKTJfyPImH2adhhbPrKCWib-hwxzyCRhvjeB5mjbZW_F1KRzoPfPbuesUqAcswxBlTMgrxL3vOHb50KlnLP1jZMWNMLVU8KJeeqUexFh4-LgtB3MgKafJGNE7JLKh_3m00]--></g></svg>