<?xml version="1.0" encoding="us-ascii" standalone="no"?><svg xmlns="http://www.w3.org/2000/svg" xmlns:xlink="http://www.w3.org/1999/xlink" contentStyleType="text/css" height="1185px" preserveAspectRatio="none" style="width:915px;height:1185px;background:#FFFFFF;" version="1.1" viewBox="0 0 915 1185" width="915px" zoomAndPan="magnify"><defs/><g><text fill="#000000" font-family="sans-serif" font-size="14" font-weight="bold" lengthAdjust="spacing" textLength="277" x="312.75" y="27.9951">UC014: &#12459;&#12486;&#12468;&#12522;&#30331;&#37682;&#27231;&#33021; &#12471;&#12540;&#12465;&#12531;&#12473;&#22259;</text><rect fill="#FFFFFF" height="962.6484" style="stroke:#A80036;stroke-width:1.0;" width="10" x="24" y="131.5938"/><rect fill="#FFFFFF" height="113.3984" style="stroke:#A80036;stroke-width:1.0;" width="10" x="305" y="182.9922"/><rect fill="#FFFFFF" height="71.2656" style="stroke:#A80036;stroke-width:1.0;" width="10" x="305" y="397.9219"/><rect fill="#FFFFFF" height="341.7266" style="stroke:#A80036;stroke-width:1.0;" width="10" x="305" y="570.7188"/><rect fill="#FFFFFF" height="113.3984" style="stroke:#A80036;stroke-width:1.0;" width="10" x="305" y="971.8438"/><rect fill="#FFFFFF" height="160.7969" style="stroke:#A80036;stroke-width:1.0;" width="10" x="528" y="722.5156"/><rect fill="#FFFFFF" height="87.3984" style="stroke:#A80036;stroke-width:1.0;" width="10" x="740" y="766.7813"/><rect fill="#FFFFFF" height="29.1328" style="stroke:#A80036;stroke-width:1.0;" width="10" x="875.5" y="795.9141"/><line style="stroke:#A80036;stroke-width:1.0;stroke-dasharray:5.0,5.0;" x1="29" x2="29" y1="121.5938" y2="1103.2422"/><line style="stroke:#A80036;stroke-width:1.0;stroke-dasharray:5.0,5.0;" x1="309.5" x2="309.5" y1="121.5938" y2="1103.2422"/><line style="stroke:#A80036;stroke-width:1.0;stroke-dasharray:5.0,5.0;" x1="532.5" x2="532.5" y1="121.5938" y2="1103.2422"/><line style="stroke:#A80036;stroke-width:1.0;stroke-dasharray:5.0,5.0;" x1="744.5" x2="744.5" y1="121.5938" y2="1103.2422"/><line style="stroke:#A80036;stroke-width:1.0;stroke-dasharray:5.0,5.0;" x1="880.5" x2="880.5" y1="121.5938" y2="1103.2422"/><text fill="#000000" font-family="sans-serif" font-size="14" lengthAdjust="spacing" textLength="42" x="5" y="118.292">&#12518;&#12540;&#12470;</text><ellipse cx="29" cy="52.2969" fill="#FEFECE" rx="8" ry="8" style="stroke:#A80036;stroke-width:2.0;"/><path d="M29,60.2969 L29,87.2969 M16,68.2969 L42,68.2969 M29,87.2969 L16,102.2969 M29,87.2969 L42,102.2969 " fill="none" style="stroke:#A80036;stroke-width:2.0;"/><text fill="#000000" font-family="sans-serif" font-size="14" lengthAdjust="spacing" textLength="42" x="5" y="1115.2373">&#12518;&#12540;&#12470;</text><ellipse cx="29" cy="1128.5391" fill="#FEFECE" rx="8" ry="8" style="stroke:#A80036;stroke-width:2.0;"/><path d="M29,1136.5391 L29,1163.5391 M16,1144.5391 L42,1144.5391 M29,1163.5391 L16,1178.5391 M29,1163.5391 L42,1178.5391 " fill="none" style="stroke:#A80036;stroke-width:2.0;"/><rect fill="#FEFECE" height="30.2969" style="stroke:#A80036;stroke-width:1.5;" width="237" x="191.5" y="90.2969"/><text fill="#000000" font-family="sans-serif" font-size="14" lengthAdjust="spacing" textLength="223" x="198.5" y="110.292">ProductCategoryAddController</text><rect fill="#FEFECE" height="30.2969" style="stroke:#A80036;stroke-width:1.5;" width="237" x="191.5" y="1102.2422"/><text fill="#000000" font-family="sans-serif" font-size="14" lengthAdjust="spacing" textLength="223" x="198.5" y="1122.2373">ProductCategoryAddController</text><rect fill="#FEFECE" height="30.2969" style="stroke:#A80036;stroke-width:1.5;" width="189" x="438.5" y="90.2969"/><text fill="#000000" font-family="sans-serif" font-size="14" lengthAdjust="spacing" textLength="175" x="445.5" y="110.292">ProductCategoryService</text><rect fill="#FEFECE" height="30.2969" style="stroke:#A80036;stroke-width:1.5;" width="189" x="438.5" y="1102.2422"/><text fill="#000000" font-family="sans-serif" font-size="14" lengthAdjust="spacing" textLength="175" x="445.5" y="1122.2373">ProductCategoryService</text><rect fill="#FEFECE" height="30.2969" style="stroke:#A80036;stroke-width:1.5;" width="215" x="637.5" y="90.2969"/><text fill="#000000" font-family="sans-serif" font-size="14" lengthAdjust="spacing" textLength="201" x="644.5" y="110.292">ProductCategoryRepository</text><rect fill="#FEFECE" height="30.2969" style="stroke:#A80036;stroke-width:1.5;" width="215" x="637.5" y="1102.2422"/><text fill="#000000" font-family="sans-serif" font-size="14" lengthAdjust="spacing" textLength="201" x="644.5" y="1122.2373">ProductCategoryRepository</text><text fill="#000000" font-family="sans-serif" font-size="14" lengthAdjust="spacing" textLength="21" x="867" y="118.292">DB</text><path d="M862.5,69.2969 C862.5,59.2969 880.5,59.2969 880.5,59.2969 C880.5,59.2969 898.5,59.2969 898.5,69.2969 L898.5,95.2969 C898.5,105.2969 880.5,105.2969 880.5,105.2969 C880.5,105.2969 862.5,105.2969 862.5,95.2969 L862.5,69.2969 " fill="#FEFECE" style="stroke:#A80036;stroke-width:1.5;"/><path d="M862.5,69.2969 C862.5,79.2969 880.5,79.2969 880.5,79.2969 C880.5,79.2969 898.5,79.2969 898.5,69.2969 " fill="none" style="stroke:#A80036;stroke-width:1.5;"/><text fill="#000000" font-family="sans-serif" font-size="14" lengthAdjust="spacing" textLength="21" x="867" y="1115.2373">DB</text><path d="M862.5,1128.5391 C862.5,1118.5391 880.5,1118.5391 880.5,1118.5391 C880.5,1118.5391 898.5,1118.5391 898.5,1128.5391 L898.5,1154.5391 C898.5,1164.5391 880.5,1164.5391 880.5,1164.5391 C880.5,1164.5391 862.5,1164.5391 862.5,1154.5391 L862.5,1128.5391 " fill="#FEFECE" style="stroke:#A80036;stroke-width:1.5;"/><path d="M862.5,1128.5391 C862.5,1138.5391 880.5,1138.5391 880.5,1138.5391 C880.5,1138.5391 898.5,1138.5391 898.5,1128.5391 " fill="none" style="stroke:#A80036;stroke-width:1.5;"/><rect fill="#FFFFFF" height="962.6484" style="stroke:#A80036;stroke-width:1.0;" width="10" x="24" y="131.5938"/><rect fill="#FFFFFF" height="113.3984" style="stroke:#A80036;stroke-width:1.0;" width="10" x="305" y="182.9922"/><rect fill="#FFFFFF" height="71.2656" style="stroke:#A80036;stroke-width:1.0;" width="10" x="305" y="397.9219"/><rect fill="#FFFFFF" height="341.7266" style="stroke:#A80036;stroke-width:1.0;" width="10" x="305" y="570.7188"/><rect fill="#FFFFFF" height="113.3984" style="stroke:#A80036;stroke-width:1.0;" width="10" x="305" y="971.8438"/><rect fill="#FFFFFF" height="160.7969" style="stroke:#A80036;stroke-width:1.0;" width="10" x="528" y="722.5156"/><rect fill="#FFFFFF" height="87.3984" style="stroke:#A80036;stroke-width:1.0;" width="10" x="740" y="766.7813"/><rect fill="#FFFFFF" height="29.1328" style="stroke:#A80036;stroke-width:1.0;" width="10" x="875.5" y="795.9141"/><polygon fill="#A80036" points="293,178.9922,303,182.9922,293,186.9922,297,182.9922" style="stroke:#A80036;stroke-width:1.0;"/><line style="stroke:#A80036;stroke-width:1.0;" x1="34" x2="299" y1="182.9922" y2="182.9922"/><text fill="#000000" font-family="sans-serif" font-size="13" lengthAdjust="spacing" textLength="26" x="41" y="147.6606">GET</text><text fill="#000000" font-family="sans-serif" font-size="13" lengthAdjust="spacing" textLength="223" x="41" y="162.7935">/admin/product-category-add/form</text><text fill="#000000" font-family="sans-serif" font-size="13" lengthAdjust="spacing" textLength="41" x="41" y="177.9263">form()</text><line style="stroke:#A80036;stroke-width:1.0;" x1="315" x2="357" y1="212.125" y2="212.125"/><line style="stroke:#A80036;stroke-width:1.0;" x1="357" x2="357" y1="212.125" y2="225.125"/><line style="stroke:#A80036;stroke-width:1.0;" x1="316" x2="357" y1="225.125" y2="225.125"/><polygon fill="#A80036" points="326,221.125,316,225.125,326,229.125,322,225.125" style="stroke:#A80036;stroke-width:1.0;"/><text fill="#000000" font-family="sans-serif" font-size="13" lengthAdjust="spacing" textLength="80" x="322" y="207.0591">setUpForm()</text><path d="M414,199.4922 L414,224.4922 L526,224.4922 L526,209.4922 L516,199.4922 L414,199.4922 " fill="#FBFB77" style="stroke:#A80036;stroke-width:1.0;"/><path d="M516,199.4922 L516,209.4922 L526,209.4922 L516,199.4922 " fill="#FBFB77" style="stroke:#A80036;stroke-width:1.0;"/><text fill="#000000" font-family="sans-serif" font-size="13" lengthAdjust="spacing" textLength="91" x="420" y="216.5591">&#12475;&#12483;&#12471;&#12519;&#12531;&#29983;&#25104;</text><line style="stroke:#A80036;stroke-width:1.0;" x1="315" x2="357" y1="254.2578" y2="254.2578"/><line style="stroke:#A80036;stroke-width:1.0;" x1="357" x2="357" y1="254.2578" y2="267.2578"/><line style="stroke:#A80036;stroke-width:1.0;" x1="316" x2="357" y1="267.2578" y2="267.2578"/><polygon fill="#A80036" points="326,263.2578,316,267.2578,326,271.2578,322,267.2578" style="stroke:#A80036;stroke-width:1.0;"/><text fill="#000000" font-family="sans-serif" font-size="13" lengthAdjust="spacing" textLength="37" x="322" y="249.1919">bind()</text><polygon fill="#A80036" points="45,292.3906,35,296.3906,45,300.3906,41,296.3906" style="stroke:#A80036;stroke-width:1.0;"/><line style="stroke:#A80036;stroke-width:1.0;" x1="39" x2="309" y1="296.3906" y2="296.3906"/><text fill="#000000" font-family="sans-serif" font-size="13" lengthAdjust="spacing" textLength="52" x="51" y="291.3247">&#20837;&#21147;&#30011;&#38754;</text><line style="stroke:#A80036;stroke-width:1.0;" x1="34" x2="76" y1="325.5234" y2="325.5234"/><line style="stroke:#A80036;stroke-width:1.0;" x1="76" x2="76" y1="325.5234" y2="338.5234"/><line style="stroke:#A80036;stroke-width:1.0;" x1="35" x2="76" y1="338.5234" y2="338.5234"/><polygon fill="#A80036" points="45,334.5234,35,338.5234,45,342.5234,41,338.5234" style="stroke:#A80036;stroke-width:1.0;"/><text fill="#000000" font-family="sans-serif" font-size="13" lengthAdjust="spacing" textLength="78" x="41" y="320.4575">&#21830;&#21697;&#24773;&#22577;&#20837;&#21147;</text><polygon fill="#A80036" points="293,393.9219,303,397.9219,293,401.9219,297,397.9219" style="stroke:#A80036;stroke-width:1.0;"/><line style="stroke:#A80036;stroke-width:1.0;" x1="34" x2="299" y1="397.9219" y2="397.9219"/><text fill="#000000" font-family="sans-serif" font-size="13" lengthAdjust="spacing" textLength="34" x="41" y="362.5903">POST</text><text fill="#000000" font-family="sans-serif" font-size="13" lengthAdjust="spacing" textLength="241" x="41" y="377.7231">/admin/product-category-add/confirm</text><text fill="#000000" font-family="sans-serif" font-size="13" lengthAdjust="spacing" textLength="59" x="41" y="392.856">confirm()</text><line style="stroke:#A80036;stroke-width:1.0;" x1="315" x2="357" y1="427.0547" y2="427.0547"/><line style="stroke:#A80036;stroke-width:1.0;" x1="357" x2="357" y1="427.0547" y2="440.0547"/><line style="stroke:#A80036;stroke-width:1.0;" x1="316" x2="357" y1="440.0547" y2="440.0547"/><polygon fill="#A80036" points="326,436.0547,316,440.0547,326,444.0547,322,440.0547" style="stroke:#A80036;stroke-width:1.0;"/><text fill="#000000" font-family="sans-serif" font-size="13" lengthAdjust="spacing" textLength="65" x="322" y="421.9888">&#12496;&#12522;&#12487;&#12540;&#12488;</text><polygon fill="#A80036" points="45,465.1875,35,469.1875,45,473.1875,41,469.1875" style="stroke:#A80036;stroke-width:1.0;"/><line style="stroke:#A80036;stroke-width:1.0;stroke-dasharray:2.0,2.0;" x1="39" x2="309" y1="469.1875" y2="469.1875"/><text fill="#000000" font-family="sans-serif" font-size="13" lengthAdjust="spacing" textLength="52" x="51" y="464.1216">&#30906;&#35469;&#30011;&#38754;</text><line style="stroke:#A80036;stroke-width:1.0;" x1="34" x2="76" y1="498.3203" y2="498.3203"/><line style="stroke:#A80036;stroke-width:1.0;" x1="76" x2="76" y1="498.3203" y2="511.3203"/><line style="stroke:#A80036;stroke-width:1.0;" x1="35" x2="76" y1="511.3203" y2="511.3203"/><polygon fill="#A80036" points="45,507.3203,35,511.3203,45,515.3203,41,511.3203" style="stroke:#A80036;stroke-width:1.0;"/><text fill="#000000" font-family="sans-serif" font-size="13" lengthAdjust="spacing" textLength="78" x="41" y="493.2544">&#20837;&#21147;&#20869;&#23481;&#30906;&#35469;</text><polygon fill="#A80036" points="293,566.7188,303,570.7188,293,574.7188,297,570.7188" style="stroke:#A80036;stroke-width:1.0;"/><line style="stroke:#A80036;stroke-width:1.0;" x1="34" x2="299" y1="570.7188" y2="570.7188"/><text fill="#000000" font-family="sans-serif" font-size="13" lengthAdjust="spacing" textLength="34" x="41" y="535.3872">POST</text><text fill="#000000" font-family="sans-serif" font-size="13" lengthAdjust="spacing" textLength="244" x="41" y="550.52">/admin/product-category-add/execute</text><text fill="#000000" font-family="sans-serif" font-size="13" lengthAdjust="spacing" textLength="62" x="41" y="565.6528">execute()</text><line style="stroke:#A80036;stroke-width:1.0;" x1="315" x2="357" y1="603.918" y2="603.918"/><line style="stroke:#A80036;stroke-width:1.0;" x1="357" x2="357" y1="603.918" y2="616.918"/><line style="stroke:#A80036;stroke-width:1.0;" x1="316" x2="357" y1="616.918" y2="616.918"/><polygon fill="#A80036" points="326,612.918,316,616.918,326,620.918,322,616.918" style="stroke:#A80036;stroke-width:1.0;"/><text fill="#000000" font-family="sans-serif" font-size="13" lengthAdjust="spacing" textLength="91" x="322" y="598.8521">&#12475;&#12483;&#12471;&#12519;&#12531;&#30906;&#35469;</text><path d="M425,583.7188 L425,623.7188 L563,623.7188 L563,593.7188 L553,583.7188 L425,583.7188 " fill="#FBFB77" style="stroke:#A80036;stroke-width:1.0;"/><path d="M553,583.7188 L553,593.7188 L563,593.7188 L553,583.7188 " fill="#FBFB77" style="stroke:#A80036;stroke-width:1.0;"/><text fill="#000000" font-family="sans-serif" font-size="13" lengthAdjust="spacing" textLength="117" x="431" y="600.7856">&#12475;&#12483;&#12471;&#12519;&#12531;&#12364;&#31354;&#12394;&#12425;</text><text fill="#000000" font-family="sans-serif" font-size="13" lengthAdjust="spacing" textLength="91" x="431" y="615.9185">&#12471;&#12473;&#12486;&#12512;&#12456;&#12521;&#12540;</text><line style="stroke:#A80036;stroke-width:1.0;" x1="315" x2="357" y1="665.25" y2="665.25"/><line style="stroke:#A80036;stroke-width:1.0;" x1="357" x2="357" y1="665.25" y2="678.25"/><line style="stroke:#A80036;stroke-width:1.0;" x1="316" x2="357" y1="678.25" y2="678.25"/><polygon fill="#A80036" points="326,674.25,316,678.25,326,682.25,322,678.25" style="stroke:#A80036;stroke-width:1.0;"/><text fill="#000000" font-family="sans-serif" font-size="13" lengthAdjust="spacing" textLength="65" x="322" y="645.0513">&#12501;&#12457;&#12540;&#12512;&#12434;</text><text fill="#000000" font-family="sans-serif" font-size="13" lengthAdjust="spacing" textLength="117" x="322" y="660.1841">&#12456;&#12531;&#12486;&#12451;&#12486;&#12451;&#12395;&#22793;&#25563;</text><polygon fill="#A80036" points="516,718.5156,526,722.5156,516,726.5156,520,722.5156" style="stroke:#A80036;stroke-width:1.0;"/><line style="stroke:#A80036;stroke-width:1.0;" x1="315" x2="522" y1="722.5156" y2="722.5156"/><text fill="#000000" font-family="sans-serif" font-size="13" lengthAdjust="spacing" textLength="36" x="322" y="702.3169">insert</text><text fill="#000000" font-family="sans-serif" font-size="13" lengthAdjust="spacing" textLength="118" x="322" y="717.4497">(ProductCategory)</text><polygon fill="#A80036" points="728,762.7813,738,766.7813,728,770.7813,732,766.7813" style="stroke:#A80036;stroke-width:1.0;"/><line style="stroke:#A80036;stroke-width:1.0;" x1="538" x2="734" y1="766.7813" y2="766.7813"/><text fill="#000000" font-family="sans-serif" font-size="13" lengthAdjust="spacing" textLength="36" x="545" y="746.5825">insert</text><text fill="#000000" font-family="sans-serif" font-size="13" lengthAdjust="spacing" textLength="118" x="545" y="761.7153">(ProductCategory)</text><polygon fill="#A80036" points="863.5,791.9141,873.5,795.9141,863.5,799.9141,867.5,795.9141" style="stroke:#A80036;stroke-width:1.0;"/><line style="stroke:#A80036;stroke-width:1.0;" x1="750" x2="869.5" y1="795.9141" y2="795.9141"/><text fill="#000000" font-family="sans-serif" font-size="13" lengthAdjust="spacing" textLength="74" x="757" y="790.8481">SQL INSERT</text><polygon fill="#A80036" points="761,821.0469,751,825.0469,761,829.0469,757,825.0469" style="stroke:#A80036;stroke-width:1.0;"/><line style="stroke:#A80036;stroke-width:1.0;stroke-dasharray:2.0,2.0;" x1="755" x2="879.5" y1="825.0469" y2="825.0469"/><text fill="#000000" font-family="sans-serif" font-size="13" lengthAdjust="spacing" textLength="27" x="767" y="819.981">void</text><polygon fill="#A80036" points="549,850.1797,539,854.1797,549,858.1797,545,854.1797" style="stroke:#A80036;stroke-width:1.0;"/><line style="stroke:#A80036;stroke-width:1.0;stroke-dasharray:2.0,2.0;" x1="543" x2="744" y1="854.1797" y2="854.1797"/><text fill="#000000" font-family="sans-serif" font-size="13" lengthAdjust="spacing" textLength="27" x="555" y="849.1138">void</text><polygon fill="#A80036" points="326,879.3125,316,883.3125,326,887.3125,322,883.3125" style="stroke:#A80036;stroke-width:1.0;"/><line style="stroke:#A80036;stroke-width:1.0;" x1="320" x2="532" y1="883.3125" y2="883.3125"/><text fill="#000000" font-family="sans-serif" font-size="13" lengthAdjust="spacing" textLength="27" x="332" y="878.2466">void</text><polygon fill="#A80036" points="45,908.4453,35,912.4453,45,916.4453,41,912.4453" style="stroke:#A80036;stroke-width:1.0;"/><line style="stroke:#A80036;stroke-width:1.0;stroke-dasharray:2.0,2.0;" x1="39" x2="309" y1="912.4453" y2="912.4453"/><text fill="#000000" font-family="sans-serif" font-size="13" lengthAdjust="spacing" textLength="78" x="51" y="907.3794">&#12522;&#12480;&#12452;&#12524;&#12463;&#12488;</text><polygon fill="#A80036" points="293,967.8438,303,971.8438,293,975.8438,297,971.8438" style="stroke:#A80036;stroke-width:1.0;"/><line style="stroke:#A80036;stroke-width:1.0;" x1="34" x2="299" y1="971.8438" y2="971.8438"/><text fill="#000000" font-family="sans-serif" font-size="13" lengthAdjust="spacing" textLength="26" x="41" y="936.5122">GET</text><text fill="#000000" font-family="sans-serif" font-size="13" lengthAdjust="spacing" textLength="252" x="41" y="951.645">/admin/product-category-add/complete</text><text fill="#000000" font-family="sans-serif" font-size="13" lengthAdjust="spacing" textLength="70" x="41" y="966.7778">complete()</text><line style="stroke:#A80036;stroke-width:1.0;" x1="315" x2="357" y1="1000.9766" y2="1000.9766"/><line style="stroke:#A80036;stroke-width:1.0;" x1="357" x2="357" y1="1000.9766" y2="1013.9766"/><line style="stroke:#A80036;stroke-width:1.0;" x1="316" x2="357" y1="1013.9766" y2="1013.9766"/><polygon fill="#A80036" points="326,1009.9766,316,1013.9766,326,1017.9766,322,1013.9766" style="stroke:#A80036;stroke-width:1.0;"/><text fill="#000000" font-family="sans-serif" font-size="13" lengthAdjust="spacing" textLength="91" x="322" y="995.9106">&#12475;&#12483;&#12471;&#12519;&#12531;&#30772;&#26820;</text><line style="stroke:#A80036;stroke-width:1.0;" x1="315" x2="357" y1="1043.1094" y2="1043.1094"/><line style="stroke:#A80036;stroke-width:1.0;" x1="357" x2="357" y1="1043.1094" y2="1056.1094"/><line style="stroke:#A80036;stroke-width:1.0;" x1="316" x2="357" y1="1056.1094" y2="1056.1094"/><polygon fill="#A80036" points="326,1052.1094,316,1056.1094,326,1060.1094,322,1056.1094" style="stroke:#A80036;stroke-width:1.0;"/><text fill="#000000" font-family="sans-serif" font-size="13" lengthAdjust="spacing" textLength="141" x="322" y="1038.0435">Model&#12395;&#36861;&#21152;&#65288;&#21830;&#21697;&#21517;&#65289;</text><polygon fill="#A80036" points="45,1081.2422,35,1085.2422,45,1089.2422,41,1085.2422" style="stroke:#A80036;stroke-width:1.0;"/><line style="stroke:#A80036;stroke-width:1.0;" x1="39" x2="309" y1="1085.2422" y2="1085.2422"/><text fill="#000000" font-family="sans-serif" font-size="13" lengthAdjust="spacing" textLength="52" x="51" y="1080.1763">&#23436;&#20102;&#30011;&#38754;</text><!--SRC=[dLDDJnD16BxlhvXm4KAQQkAfCIQAQ4pyG0gtNgOxKvYudMbcfrLkTaTg8H29mi4GGmEe50m68Hg-ueyPjuKJVy6PsQr0AINXiZlpliypx_D- -Iy91PpvsF7rgG0vp0D_72BsYj0na8EUzWWYF0n61sxUkfq2AjXGigA27INNcv_sZsT-DkfBH_9GEtuhUQ22BIMtLR0RBcux3dG5uw17oQ_MzQi7G1yKVSoDXvIWmD5DnnN49GL81UWPuWmLNJ6WlMECJzn3Q81HmPddOMuVS0NtkbBIc9U8YotOBxbTiSEum7oYPKvOEDTN1q41iz37uC5zOqDPnxa1mialuVHYStx_-FEoOrI3n5qh1VJtWnHuD3YIeKc8yeGc2r68X1l7I424aZd6ynbglhrzZkMr-2dWOp5QU1YvADDLuMHiN9XYxoifRMM_wR8svvSQrRbsSfPGTER9I5f2EyufrXaqb_UErcVRCh1_ZLseX1_B3JaPrhOYNeSSXvwdhqZIPJH7J9xnuMAgIixfoL7odPa8MOtTvtIVqsaglpdpTwzoYMwhDQnCXfkx4UzQkl5hx1O5pj3uq45tMokYM5sQfSeppVgUAg-hO2f3ZJdODPiZQofOKxAkyxzOcmKLr6rXDEY3OQsPbyo-hSJVyaQuEjLul_YVgmSyof9GdRZ8qDws2Uzp34GZpMnV1RKOZKNP29b-yGGyVfOU71vnj2dHUiNsgSG8YWcnZbDp73BkRijgMtD7tq_jTXZUg61LoUyg-656uXhBvR9ymSEcWQtJrHsixJHMthQ3dZA4FLtaep-7uNJjvA0QBKOuDtjoCDLfnyxCvZy0]--></g></svg>