<svg xmlns="http://www.w3.org/2000/svg" xmlns:xlink="http://www.w3.org/1999/xlink" contentStyleType="text/css" height="1185px" preserveAspectRatio="none" style="width:901px;height:1185px;background:#FFFFFF;" version="1.1" viewBox="0 0 901 1185" width="901px" zoomAndPan="magnify"><defs/><g><text fill="#000000" font-family="sans-serif" font-size="14" font-weight="bold" lengthAdjust="spacing" textLength="262.212" x="313.0993" y="27.9951">UC014: &#12459;&#12486;&#12468;&#12522;&#30331;&#37682;&#27231;&#33021; &#12471;&#12540;&#12465;&#12531;&#12473;&#22259;</text><rect fill="#FFFFFF" height="962.6484" style="stroke:#A80036;stroke-width:1.0;" width="10" x="23.9999" y="131.5938"/><rect fill="#FFFFFF" height="113.3984" style="stroke:#A80036;stroke-width:1.0;" width="10" x="309.185" y="182.9922"/><rect fill="#FFFFFF" height="71.2656" style="stroke:#A80036;stroke-width:1.0;" width="10" x="309.185" y="397.9219"/><rect fill="#FFFFFF" height="383.8594" style="stroke:#A80036;stroke-width:1.0;" width="10" x="309.185" y="570.7188"/><rect fill="#FFFFFF" height="71.2656" style="stroke:#A80036;stroke-width:1.0;" width="10" x="309.185" y="1013.9766"/><rect fill="#FFFFFF" height="160.7969" style="stroke:#A80036;stroke-width:1.0;" width="10" x="524.9774" y="722.5156"/><rect fill="#FFFFFF" height="87.3984" style="stroke:#A80036;stroke-width:1.0;" width="10" x="730.0443" y="766.7813"/><rect fill="#FFFFFF" height="29.1328" style="stroke:#A80036;stroke-width:1.0;" width="10" x="861.4106" y="795.9141"/><line style="stroke:#A80036;stroke-width:1.0;stroke-dasharray:5.0,5.0;" x1="28" x2="28" y1="121.5938" y2="1103.2422"/><line style="stroke:#A80036;stroke-width:1.0;stroke-dasharray:5.0,5.0;" x1="314.0932" x2="314.0932" y1="121.5938" y2="1103.2422"/><line style="stroke:#A80036;stroke-width:1.0;stroke-dasharray:5.0,5.0;" x1="529.2768" x2="529.2768" y1="121.5938" y2="1103.2422"/><line style="stroke:#A80036;stroke-width:1.0;stroke-dasharray:5.0,5.0;" x1="734.6781" x2="734.6781" y1="121.5938" y2="1103.2422"/><line style="stroke:#A80036;stroke-width:1.0;stroke-dasharray:5.0,5.0;" x1="866.4106" x2="866.4106" y1="121.5938" y2="1103.2422"/><text fill="#000000" font-family="sans-serif" font-size="14" lengthAdjust="spacing" textLength="41.9998" x="5" y="118.292">&#12518;&#12540;&#12470;</text><ellipse cx="28.9999" cy="52.2969" fill="#FEFECE" rx="8" ry="8" style="stroke:#A80036;stroke-width:2.0;"/><path d="M28.9999,60.2969 L28.9999,87.2969 M15.9999,68.2969 L41.9999,68.2969 M28.9999,87.2969 L15.9999,102.2969 M28.9999,87.2969 L41.9999,102.2969 " fill="none" style="stroke:#A80036;stroke-width:2.0;"/><text fill="#000000" font-family="sans-serif" font-size="14" lengthAdjust="spacing" textLength="41.9998" x="5" y="1115.2373">&#12518;&#12540;&#12470;</text><ellipse cx="28.9999" cy="1128.5391" fill="#FEFECE" rx="8" ry="8" style="stroke:#A80036;stroke-width:2.0;"/><path d="M28.9999,1136.5391 L28.9999,1163.5391 M15.9999,1144.5391 L41.9999,1144.5391 M28.9999,1163.5391 L15.9999,1178.5391 M28.9999,1163.5391 L41.9999,1178.5391 " fill="none" style="stroke:#A80036;stroke-width:2.0;"/><rect fill="#FEFECE" height="30.2969" style="stroke:#A80036;stroke-width:1.5;" width="228.1836" x="200.0932" y="90.2969"/><text fill="#000000" font-family="sans-serif" font-size="14" lengthAdjust="spacing" textLength="214.1836" x="207.0932" y="110.292">ProductCategoryAddController</text><rect fill="#FEFECE" height="30.2969" style="stroke:#A80036;stroke-width:1.5;" width="228.1836" x="200.0932" y="1102.2422"/><text fill="#000000" font-family="sans-serif" font-size="14" lengthAdjust="spacing" textLength="214.1836" x="207.0932" y="1122.2373">ProductCategoryAddController</text><rect fill="#FEFECE" height="30.2969" style="stroke:#A80036;stroke-width:1.5;" width="183.4014" x="438.2768" y="90.2969"/><text fill="#000000" font-family="sans-serif" font-size="14" lengthAdjust="spacing" textLength="169.4014" x="445.2768" y="110.292">ProductCategoryService</text><rect fill="#FEFECE" height="30.2969" style="stroke:#A80036;stroke-width:1.5;" width="183.4014" x="438.2768" y="1102.2422"/><text fill="#000000" font-family="sans-serif" font-size="14" lengthAdjust="spacing" textLength="169.4014" x="445.2768" y="1122.2373">ProductCategoryService</text><rect fill="#FEFECE" height="30.2969" style="stroke:#A80036;stroke-width:1.5;" width="206.7324" x="631.6781" y="90.2969"/><text fill="#000000" font-family="sans-serif" font-size="14" lengthAdjust="spacing" textLength="192.7324" x="638.6781" y="110.292">ProductCategoryRepository</text><rect fill="#FEFECE" height="30.2969" style="stroke:#A80036;stroke-width:1.5;" width="206.7324" x="631.6781" y="1102.2422"/><text fill="#000000" font-family="sans-serif" font-size="14" lengthAdjust="spacing" textLength="192.7324" x="638.6781" y="1122.2373">ProductCategoryRepository</text><text fill="#000000" font-family="sans-serif" font-size="14" lengthAdjust="spacing" textLength="20.3848" x="853.2182" y="118.292">DB</text><path d="M848.4106,69.2969 C848.4106,59.2969 866.4106,59.2969 866.4106,59.2969 C866.4106,59.2969 884.4106,59.2969 884.4106,69.2969 L884.4106,95.2969 C884.4106,105.2969 866.4106,105.2969 866.4106,105.2969 C866.4106,105.2969 848.4106,105.2969 848.4106,95.2969 L848.4106,69.2969 " fill="#FEFECE" style="stroke:#A80036;stroke-width:1.5;"/><path d="M848.4106,69.2969 C848.4106,79.2969 866.4106,79.2969 866.4106,79.2969 C866.4106,79.2969 884.4106,79.2969 884.4106,69.2969 " fill="none" style="stroke:#A80036;stroke-width:1.5;"/><text fill="#000000" font-family="sans-serif" font-size="14" lengthAdjust="spacing" textLength="20.3848" x="853.2182" y="1115.2373">DB</text><path d="M848.4106,1128.5391 C848.4106,1118.5391 866.4106,1118.5391 866.4106,1118.5391 C866.4106,1118.5391 884.4106,1118.5391 884.4106,1128.5391 L884.4106,1154.5391 C884.4106,1164.5391 866.4106,1164.5391 866.4106,1164.5391 C866.4106,1164.5391 848.4106,1164.5391 848.4106,1154.5391 L848.4106,1128.5391 " fill="#FEFECE" style="stroke:#A80036;stroke-width:1.5;"/><path d="M848.4106,1128.5391 C848.4106,1138.5391 866.4106,1138.5391 866.4106,1138.5391 C866.4106,1138.5391 884.4106,1138.5391 884.4106,1128.5391 " fill="none" style="stroke:#A80036;stroke-width:1.5;"/><rect fill="#FFFFFF" height="962.6484" style="stroke:#A80036;stroke-width:1.0;" width="10" x="23.9999" y="131.5938"/><rect fill="#FFFFFF" height="113.3984" style="stroke:#A80036;stroke-width:1.0;" width="10" x="309.185" y="182.9922"/><rect fill="#FFFFFF" height="71.2656" style="stroke:#A80036;stroke-width:1.0;" width="10" x="309.185" y="397.9219"/><rect fill="#FFFFFF" height="383.8594" style="stroke:#A80036;stroke-width:1.0;" width="10" x="309.185" y="570.7188"/><rect fill="#FFFFFF" height="71.2656" style="stroke:#A80036;stroke-width:1.0;" width="10" x="309.185" y="1013.9766"/><rect fill="#FFFFFF" height="160.7969" style="stroke:#A80036;stroke-width:1.0;" width="10" x="524.9774" y="722.5156"/><rect fill="#FFFFFF" height="87.3984" style="stroke:#A80036;stroke-width:1.0;" width="10" x="730.0443" y="766.7813"/><rect fill="#FFFFFF" height="29.1328" style="stroke:#A80036;stroke-width:1.0;" width="10" x="861.4106" y="795.9141"/><polygon fill="#A80036" points="297.185,178.9922,307.185,182.9922,297.185,186.9922,301.185,182.9922" style="stroke:#A80036;stroke-width:1.0;"/><line style="stroke:#A80036;stroke-width:1.0;" x1="33.9999" x2="303.185" y1="182.9922" y2="182.9922"/><text fill="#000000" font-family="sans-serif" font-size="13" lengthAdjust="spacing" textLength="26.2285" x="40.9999" y="147.6606">GET</text><text fill="#000000" font-family="sans-serif" font-size="13" lengthAdjust="spacing" textLength="226.002" x="40.9999" y="162.7935">/admin/product-category-add/form</text><text fill="#000000" font-family="sans-serif" font-size="13" lengthAdjust="spacing" textLength="40.6821" x="40.9999" y="177.9263">form()</text><line style="stroke:#A80036;stroke-width:1.0;" x1="319.185" x2="361.185" y1="212.125" y2="212.125"/><line style="stroke:#A80036;stroke-width:1.0;" x1="361.185" x2="361.185" y1="212.125" y2="225.125"/><line style="stroke:#A80036;stroke-width:1.0;" x1="320.185" x2="361.185" y1="225.125" y2="225.125"/><polygon fill="#A80036" points="330.185,221.125,320.185,225.125,330.185,229.125,326.185,225.125" style="stroke:#A80036;stroke-width:1.0;"/><text fill="#000000" font-family="sans-serif" font-size="13" lengthAdjust="spacing" textLength="81.2183" x="326.185" y="207.0591">setUpForm()</text><path d="M429.2183,199.4922 L429.2183,224.4922 L541.2183,224.4922 L541.2183,209.4922 L531.2183,199.4922 L429.2183,199.4922 " fill="#FBFB77" style="stroke:#A80036;stroke-width:1.0;"/><path d="M531.2183,199.4922 L531.2183,209.4922 L541.2183,209.4922 L531.2183,199.4922 " fill="#FBFB77" style="stroke:#A80036;stroke-width:1.0;"/><text fill="#000000" font-family="sans-serif" font-size="13" lengthAdjust="spacing" textLength="91.0001" x="435.2183" y="216.5591">&#12475;&#12483;&#12471;&#12519;&#12531;&#29983;&#25104;</text><line style="stroke:#A80036;stroke-width:1.0;" x1="319.185" x2="361.185" y1="254.2578" y2="254.2578"/><line style="stroke:#A80036;stroke-width:1.0;" x1="361.185" x2="361.185" y1="254.2578" y2="267.2578"/><line style="stroke:#A80036;stroke-width:1.0;" x1="320.185" x2="361.185" y1="267.2578" y2="267.2578"/><polygon fill="#A80036" points="330.185,263.2578,320.185,267.2578,330.185,271.2578,326.185,267.2578" style="stroke:#A80036;stroke-width:1.0;"/><text fill="#000000" font-family="sans-serif" font-size="13" lengthAdjust="spacing" textLength="38.4985" x="326.185" y="249.1919">bind()</text><polygon fill="#A80036" points="44.9999,292.3906,34.9999,296.3906,44.9999,300.3906,40.9999,296.3906" style="stroke:#A80036;stroke-width:1.0;"/><line style="stroke:#A80036;stroke-width:1.0;" x1="38.9999" x2="313.185" y1="296.3906" y2="296.3906"/><text fill="#000000" font-family="sans-serif" font-size="13" lengthAdjust="spacing" textLength="52.0001" x="50.9999" y="291.3247">&#20837;&#21147;&#30011;&#38754;</text><line style="stroke:#A80036;stroke-width:1.0;" x1="33.9999" x2="75.9999" y1="325.5234" y2="325.5234"/><line style="stroke:#A80036;stroke-width:1.0;" x1="75.9999" x2="75.9999" y1="325.5234" y2="338.5234"/><line style="stroke:#A80036;stroke-width:1.0;" x1="34.9999" x2="75.9999" y1="338.5234" y2="338.5234"/><polygon fill="#A80036" points="44.9999,334.5234,34.9999,338.5234,44.9999,342.5234,40.9999,338.5234" style="stroke:#A80036;stroke-width:1.0;"/><text fill="#000000" font-family="sans-serif" font-size="13" lengthAdjust="spacing" textLength="78.0001" x="40.9999" y="320.4575">&#21830;&#21697;&#24773;&#22577;&#20837;&#21147;</text><polygon fill="#A80036" points="297.185,393.9219,307.185,397.9219,297.185,401.9219,301.185,397.9219" style="stroke:#A80036;stroke-width:1.0;"/><line style="stroke:#A80036;stroke-width:1.0;" x1="33.9999" x2="303.185" y1="397.9219" y2="397.9219"/><text fill="#000000" font-family="sans-serif" font-size="13" lengthAdjust="spacing" textLength="34.2646" x="40.9999" y="362.5903">POST</text><text fill="#000000" font-family="sans-serif" font-size="13" lengthAdjust="spacing" textLength="245.0005" x="40.9999" y="377.7231">/admin/product-category-add/confirm</text><text fill="#000000" font-family="sans-serif" font-size="13" lengthAdjust="spacing" textLength="59.6807" x="40.9999" y="392.856">confirm()</text><line style="stroke:#A80036;stroke-width:1.0;" x1="319.185" x2="361.185" y1="427.0547" y2="427.0547"/><line style="stroke:#A80036;stroke-width:1.0;" x1="361.185" x2="361.185" y1="427.0547" y2="440.0547"/><line style="stroke:#A80036;stroke-width:1.0;" x1="320.185" x2="361.185" y1="440.0547" y2="440.0547"/><polygon fill="#A80036" points="330.185,436.0547,320.185,440.0547,330.185,444.0547,326.185,440.0547" style="stroke:#A80036;stroke-width:1.0;"/><text fill="#000000" font-family="sans-serif" font-size="13" lengthAdjust="spacing" textLength="65.0001" x="326.185" y="421.9888">&#12496;&#12522;&#12487;&#12540;&#12488;</text><polygon fill="#A80036" points="44.9999,465.1875,34.9999,469.1875,44.9999,473.1875,40.9999,469.1875" style="stroke:#A80036;stroke-width:1.0;"/><line style="stroke:#A80036;stroke-width:1.0;stroke-dasharray:2.0,2.0;" x1="38.9999" x2="313.185" y1="469.1875" y2="469.1875"/><text fill="#000000" font-family="sans-serif" font-size="13" lengthAdjust="spacing" textLength="52.0001" x="50.9999" y="464.1216">&#30906;&#35469;&#30011;&#38754;</text><line style="stroke:#A80036;stroke-width:1.0;" x1="33.9999" x2="75.9999" y1="498.3203" y2="498.3203"/><line style="stroke:#A80036;stroke-width:1.0;" x1="75.9999" x2="75.9999" y1="498.3203" y2="511.3203"/><line style="stroke:#A80036;stroke-width:1.0;" x1="34.9999" x2="75.9999" y1="511.3203" y2="511.3203"/><polygon fill="#A80036" points="44.9999,507.3203,34.9999,511.3203,44.9999,515.3203,40.9999,511.3203" style="stroke:#A80036;stroke-width:1.0;"/><text fill="#000000" font-family="sans-serif" font-size="13" lengthAdjust="spacing" textLength="78.0001" x="40.9999" y="493.2544">&#20837;&#21147;&#20869;&#23481;&#30906;&#35469;</text><polygon fill="#A80036" points="297.185,566.7188,307.185,570.7188,297.185,574.7188,301.185,570.7188" style="stroke:#A80036;stroke-width:1.0;"/><line style="stroke:#A80036;stroke-width:1.0;" x1="33.9999" x2="303.185" y1="570.7188" y2="570.7188"/><text fill="#000000" font-family="sans-serif" font-size="13" lengthAdjust="spacing" textLength="34.2646" x="40.9999" y="535.3872">POST</text><text fill="#000000" font-family="sans-serif" font-size="13" lengthAdjust="spacing" textLength="247.6348" x="40.9999" y="550.52">/admin/product-category-add/execute</text><text fill="#000000" font-family="sans-serif" font-size="13" lengthAdjust="spacing" textLength="62.3149" x="40.9999" y="565.6528">execute()</text><line style="stroke:#A80036;stroke-width:1.0;" x1="319.185" x2="361.185" y1="603.918" y2="603.918"/><line style="stroke:#A80036;stroke-width:1.0;" x1="361.185" x2="361.185" y1="603.918" y2="616.918"/><line style="stroke:#A80036;stroke-width:1.0;" x1="320.185" x2="361.185" y1="616.918" y2="616.918"/><polygon fill="#A80036" points="330.185,612.918,320.185,616.918,330.185,620.918,326.185,616.918" style="stroke:#A80036;stroke-width:1.0;"/><text fill="#000000" font-family="sans-serif" font-size="13" lengthAdjust="spacing" textLength="91.0001" x="326.185" y="598.8521">&#12475;&#12483;&#12471;&#12519;&#12531;&#30906;&#35469;</text><path d="M439.0001,583.7188 L439.0001,623.7188 L577.0001,623.7188 L577.0001,593.7188 L567.0001,583.7188 L439.0001,583.7188 " fill="#FBFB77" style="stroke:#A80036;stroke-width:1.0;"/><path d="M567.0001,583.7188 L567.0001,593.7188 L577.0001,593.7188 L567.0001,583.7188 " fill="#FBFB77" style="stroke:#A80036;stroke-width:1.0;"/><text fill="#000000" font-family="sans-serif" font-size="13" lengthAdjust="spacing" textLength="117.0001" x="445.0001" y="600.7856">&#12475;&#12483;&#12471;&#12519;&#12531;&#12364;&#31354;&#12394;&#12425;</text><text fill="#000000" font-family="sans-serif" font-size="13" lengthAdjust="spacing" textLength="91.0001" x="445.0001" y="615.9185">&#12471;&#12473;&#12486;&#12512;&#12456;&#12521;&#12540;</text><line style="stroke:#A80036;stroke-width:1.0;" x1="319.185" x2="361.185" y1="665.25" y2="665.25"/><line style="stroke:#A80036;stroke-width:1.0;" x1="361.185" x2="361.185" y1="665.25" y2="678.25"/><line style="stroke:#A80036;stroke-width:1.0;" x1="320.185" x2="361.185" y1="678.25" y2="678.25"/><polygon fill="#A80036" points="330.185,674.25,320.185,678.25,330.185,682.25,326.185,678.25" style="stroke:#A80036;stroke-width:1.0;"/><text fill="#000000" font-family="sans-serif" font-size="13" lengthAdjust="spacing" textLength="65.0001" x="326.185" y="645.0513">&#12501;&#12457;&#12540;&#12512;&#12434;</text><text fill="#000000" font-family="sans-serif" font-size="13" lengthAdjust="spacing" textLength="117.0001" x="326.185" y="660.1841">&#12456;&#12531;&#12486;&#12451;&#12486;&#12451;&#12395;&#22793;&#25563;</text><polygon fill="#A80036" points="512.9774,718.5156,522.9774,722.5156,512.9774,726.5156,516.9774,722.5156" style="stroke:#A80036;stroke-width:1.0;"/><line style="stroke:#A80036;stroke-width:1.0;" x1="319.185" x2="518.9774" y1="722.5156" y2="722.5156"/><text fill="#000000" font-family="sans-serif" font-size="13" lengthAdjust="spacing" textLength="37.064" x="326.185" y="702.3169">insert</text><text fill="#000000" font-family="sans-serif" font-size="13" lengthAdjust="spacing" textLength="119.3994" x="326.185" y="717.4497">(ProductCategory)</text><polygon fill="#A80036" points="718.0443,762.7813,728.0443,766.7813,718.0443,770.7813,722.0443,766.7813" style="stroke:#A80036;stroke-width:1.0;"/><line style="stroke:#A80036;stroke-width:1.0;" x1="534.9774" x2="724.0443" y1="766.7813" y2="766.7813"/><text fill="#000000" font-family="sans-serif" font-size="13" lengthAdjust="spacing" textLength="37.064" x="541.9774" y="746.5825">insert</text><text fill="#000000" font-family="sans-serif" font-size="13" lengthAdjust="spacing" textLength="119.3994" x="541.9774" y="761.7153">(ProductCategory)</text><polygon fill="#A80036" points="849.4106,791.9141,859.4106,795.9141,849.4106,799.9141,853.4106,795.9141" style="stroke:#A80036;stroke-width:1.0;"/><line style="stroke:#A80036;stroke-width:1.0;" x1="740.0443" x2="855.4106" y1="795.9141" y2="795.9141"/><text fill="#000000" font-family="sans-serif" font-size="13" lengthAdjust="spacing" textLength="76.8574" x="747.0443" y="790.8481">SQL INSERT</text><polygon fill="#A80036" points="751.0443,821.0469,741.0443,825.0469,751.0443,829.0469,747.0443,825.0469" style="stroke:#A80036;stroke-width:1.0;"/><line style="stroke:#A80036;stroke-width:1.0;stroke-dasharray:2.0,2.0;" x1="745.0443" x2="865.4106" y1="825.0469" y2="825.0469"/><text fill="#000000" font-family="sans-serif" font-size="13" lengthAdjust="spacing" textLength="27.5107" x="757.0443" y="819.981">void</text><polygon fill="#A80036" points="545.9774,850.1797,535.9774,854.1797,545.9774,858.1797,541.9774,854.1797" style="stroke:#A80036;stroke-width:1.0;"/><line style="stroke:#A80036;stroke-width:1.0;stroke-dasharray:2.0,2.0;" x1="539.9774" x2="734.0443" y1="854.1797" y2="854.1797"/><text fill="#000000" font-family="sans-serif" font-size="13" lengthAdjust="spacing" textLength="27.5107" x="551.9774" y="849.1138">void</text><polygon fill="#A80036" points="330.185,879.3125,320.185,883.3125,330.185,887.3125,326.185,883.3125" style="stroke:#A80036;stroke-width:1.0;"/><line style="stroke:#A80036;stroke-width:1.0;" x1="324.185" x2="528.9774" y1="883.3125" y2="883.3125"/><text fill="#000000" font-family="sans-serif" font-size="13" lengthAdjust="spacing" textLength="27.5107" x="336.185" y="878.2466">void</text><line style="stroke:#A80036;stroke-width:1.0;" x1="319.185" x2="361.185" y1="912.4453" y2="912.4453"/><line style="stroke:#A80036;stroke-width:1.0;" x1="361.185" x2="361.185" y1="912.4453" y2="925.4453"/><line style="stroke:#A80036;stroke-width:1.0;" x1="320.185" x2="361.185" y1="925.4453" y2="925.4453"/><polygon fill="#A80036" points="330.185,921.4453,320.185,925.4453,330.185,929.4453,326.185,925.4453" style="stroke:#A80036;stroke-width:1.0;"/><text fill="#000000" font-family="sans-serif" font-size="13" lengthAdjust="spacing" textLength="91.0001" x="326.185" y="907.3794">&#12475;&#12483;&#12471;&#12519;&#12531;&#30772;&#26820;</text><polygon fill="#A80036" points="44.9999,950.5781,34.9999,954.5781,44.9999,958.5781,40.9999,954.5781" style="stroke:#A80036;stroke-width:1.0;"/><line style="stroke:#A80036;stroke-width:1.0;stroke-dasharray:2.0,2.0;" x1="38.9999" x2="313.185" y1="954.5781" y2="954.5781"/><text fill="#000000" font-family="sans-serif" font-size="13" lengthAdjust="spacing" textLength="78.0001" x="50.9999" y="949.5122">&#12522;&#12480;&#12452;&#12524;&#12463;&#12488;</text><polygon fill="#A80036" points="297.185,1009.9766,307.185,1013.9766,297.185,1017.9766,301.185,1013.9766" style="stroke:#A80036;stroke-width:1.0;"/><line style="stroke:#A80036;stroke-width:1.0;" x1="33.9999" x2="303.185" y1="1013.9766" y2="1013.9766"/><text fill="#000000" font-family="sans-serif" font-size="13" lengthAdjust="spacing" textLength="26.2285" x="40.9999" y="978.645">GET</text><text fill="#000000" font-family="sans-serif" font-size="13" lengthAdjust="spacing" textLength="256.1851" x="40.9999" y="993.7778">/admin/product-category-add/complete</text><text fill="#000000" font-family="sans-serif" font-size="13" lengthAdjust="spacing" textLength="70.8652" x="40.9999" y="1008.9106">complete()</text><line style="stroke:#A80036;stroke-width:1.0;" x1="319.185" x2="361.185" y1="1043.1094" y2="1043.1094"/><line style="stroke:#A80036;stroke-width:1.0;" x1="361.185" x2="361.185" y1="1043.1094" y2="1056.1094"/><line style="stroke:#A80036;stroke-width:1.0;" x1="320.185" x2="361.185" y1="1056.1094" y2="1056.1094"/><polygon fill="#A80036" points="330.185,1052.1094,320.185,1056.1094,330.185,1060.1094,326.185,1056.1094" style="stroke:#A80036;stroke-width:1.0;"/><text fill="#000000" font-family="sans-serif" font-size="13" lengthAdjust="spacing" textLength="143.0319" x="326.185" y="1038.0435">Model&#12395;&#36861;&#21152;&#65288;&#21830;&#21697;&#21517;&#65289;</text><path d="M491.0319,1030.4766 L491.0319,1055.4766 L682.0319,1055.4766 L682.0319,1040.4766 L672.0319,1030.4766 L491.0319,1030.4766 " fill="#FBFB77" style="stroke:#A80036;stroke-width:1.0;"/><path d="M672.0319,1030.4766 L672.0319,1040.4766 L682.0319,1040.4766 L672.0319,1030.4766 " fill="#FBFB77" style="stroke:#A80036;stroke-width:1.0;"/><text fill="#000000" font-family="sans-serif" font-size="13" lengthAdjust="spacing" textLength="170.8853" x="497.0319" y="1047.5435">RedirectAttributes&#12363;&#12425;&#21462;&#24471;</text><polygon fill="#A80036" points="44.9999,1081.2422,34.9999,1085.2422,44.9999,1089.2422,40.9999,1085.2422" style="stroke:#A80036;stroke-width:1.0;"/><line style="stroke:#A80036;stroke-width:1.0;" x1="38.9999" x2="313.185" y1="1085.2422" y2="1085.2422"/><text fill="#000000" font-family="sans-serif" font-size="13" lengthAdjust="spacing" textLength="52.0001" x="50.9999" y="1080.1763">&#23436;&#20102;&#30011;&#38754;</text><!--SRC=[dLDDJnD16BxlhvXm4K8QDF54Z0aY6XC_aCAjb-dE52PkPvhPeShDxaYX284eQ4nZQ02LWi4WHCEN_fXnMpZn5voPtGej20cNtPdtVPvvd_VBVqOeuCp7ZgzFESXX5lWZ4B7dX0w33FIqHn3XOJ3KU_t6pMwWWdKbYohOLdAj_c7lQFfxhRfuA0-quwUI-ohOL79B1JjXUSjne2iO1srAVhQk7sq0-c3KnznuI1uA7DrqN45SaeDKWBP-pj2eAtgrTvZniHw4UXaLd7aUvlO1Lt3lGaeIypnniGNxUVT2x03ECPzecMCMplNLGL30DFGnk7l7s53QSQw1SFnJE5Mkp-yTVLnoZ6gGk6sbWCvEq0tkzmscQ1T4MKAxSb68X1l7I424kZACPrFKVDix7CjhyBk1ZyLGxbxaeanNXPFX4M6AlQUaj9NzeijQdr-iJSwrajE4ebDFHj8Isj6aM6TGNzezN9jfoS3-DNQX6BujrEHuMDcCUEVasFyaUKcIBgCPOlAC3sTJLN9EJuwI4sOYv6JiRjBTfDDKVcFwpsxnFxgjrh0u7cxiHBmhwSOli3igS8h6XtDqjxGYYdL1irHXkbxTLOKr5PHIr9Y37RCvigA2LIMhEl-pjLbGGTKMHeFU6DQgUSdistByBQo7AwNQRFaVLmzub2MXEd6Hekqj4zxX68X6cjc-36en6elI4JBvz25uy3ZPDp3eQ5EYyOhjKvuH51DY7IVcE6JStORraffMjclBhwB-tTAa4xATc9SgM57ogmg-cRcvmWQwB9lpiEboutIspOyOmfukyk7lWt2gShm_6Ir6E3Tpl5zgQlS0HeHZL_G8mKbQpuol2gzrhyFPT-6lz-Ujuwan_Wi0]--></g></svg>