<?xml version="1.0" encoding="UTF-8" standalone="no"?><svg xmlns="http://www.w3.org/2000/svg" xmlns:xlink="http://www.w3.org/1999/xlink" contentScriptType="application/ecmascript" contentStyleType="text/css" height="1067px" preserveAspectRatio="none" style="width:742px;height:1067px;background:#FFFFFF;" version="1.1" viewBox="0 0 742 1067" width="742px" zoomAndPan="magnify"><defs/><g><text fill="#000000" font-family="sans-serif" font-size="18" lengthAdjust="spacing" textLength="327" x="206.5" y="29.4023">UC014: カテゴリ登録機能 シーケンス図</text><rect fill="#FFFFFF" height="846.3848" style="stroke:#A80036;stroke-width:1.0;" width="10" x="24" y="129.6875"/><rect fill="#FFFFFF" height="113.9316" style="stroke:#A80036;stroke-width:1.0;" width="10" x="171.5" y="150.998"/><rect fill="#FFFFFF" height="71.6211" style="stroke:#A80036;stroke-width:1.0;" width="10" x="171.5" y="336.5508"/><rect fill="#FFFFFF" height="344.0371" style="stroke:#A80036;stroke-width:1.0;" width="10" x="171.5" y="479.793"/><rect fill="#FFFFFF" height="113.9316" style="stroke:#A80036;stroke-width:1.0;" width="10" x="171.5" y="853.1406"/><rect fill="#FFFFFF" height="161.8633" style="stroke:#A80036;stroke-width:1.0;" width="10" x="383.5" y="632.6563"/><rect fill="#FFFFFF" height="87.9316" style="stroke:#A80036;stroke-width:1.0;" width="10" x="583" y="677.2773"/><rect fill="#FFFFFF" height="29.3105" style="stroke:#A80036;stroke-width:1.0;" width="10" x="712" y="706.5879"/><line style="stroke:#A80036;stroke-width:1.0;stroke-dasharray:5.0,5.0;" x1="29" x2="29" y1="119.6875" y2="985.0723"/><line style="stroke:#A80036;stroke-width:1.0;stroke-dasharray:5.0,5.0;" x1="176" x2="176" y1="119.6875" y2="985.0723"/><line style="stroke:#A80036;stroke-width:1.0;stroke-dasharray:5.0,5.0;" x1="388" x2="388" y1="119.6875" y2="985.0723"/><line style="stroke:#A80036;stroke-width:1.0;stroke-dasharray:5.0,5.0;" x1="588" x2="588" y1="119.6875" y2="985.0723"/><line style="stroke:#A80036;stroke-width:1.0;stroke-dasharray:5.0,5.0;" x1="717" x2="717" y1="119.6875" y2="985.0723"/><text fill="#000000" font-family="sans-serif" font-size="14" lengthAdjust="spacing" textLength="42" x="5" y="116.7344">ユーザ</text><ellipse cx="29" cy="50.1992" fill="#FEFECE" rx="8" ry="8" style="stroke:#A80036;stroke-width:2.0;"/><path d="M29,58.1992 L29,85.1992 M16,66.1992 L42,66.1992 M29,85.1992 L16,100.1992 M29,85.1992 L42,100.1992 " fill="none" style="stroke:#A80036;stroke-width:2.0;"/><text fill="#000000" font-family="sans-serif" font-size="14" lengthAdjust="spacing" textLength="42" x="5" y="997.6074">ユーザ</text><ellipse cx="29" cy="1010.5605" fill="#FEFECE" rx="8" ry="8" style="stroke:#A80036;stroke-width:2.0;"/><path d="M29,1018.5605 L29,1045.5605 M16,1026.5605 L42,1026.5605 M29,1045.5605 L16,1060.5605 M29,1045.5605 L42,1060.5605 " fill="none" style="stroke:#A80036;stroke-width:2.0;"/><rect fill="#FEFECE" height="30.4883" style="stroke:#A80036;stroke-width:1.5;" width="227" x="63" y="88.1992"/><text fill="#000000" font-family="sans-serif" font-size="14" lengthAdjust="spacing" textLength="213" x="70" y="108.7344">ProductCategoryAddController</text><rect fill="#FEFECE" height="30.4883" style="stroke:#A80036;stroke-width:1.5;" width="227" x="63" y="984.0723"/><text fill="#000000" font-family="sans-serif" font-size="14" lengthAdjust="spacing" textLength="213" x="70" y="1004.6074">ProductCategoryAddController</text><rect fill="#FEFECE" height="30.4883" style="stroke:#A80036;stroke-width:1.5;" width="177" x="300" y="88.1992"/><text fill="#000000" font-family="sans-serif" font-size="14" lengthAdjust="spacing" textLength="163" x="307" y="108.7344">ProductCategoryService</text><rect fill="#FEFECE" height="30.4883" style="stroke:#A80036;stroke-width:1.5;" width="177" x="300" y="984.0723"/><text fill="#000000" font-family="sans-serif" font-size="14" lengthAdjust="spacing" textLength="163" x="307" y="1004.6074">ProductCategoryService</text><rect fill="#FEFECE" height="30.4883" style="stroke:#A80036;stroke-width:1.5;" width="202" x="487" y="88.1992"/><text fill="#000000" font-family="sans-serif" font-size="14" lengthAdjust="spacing" textLength="188" x="494" y="108.7344">ProductCategoryRepository</text><rect fill="#FEFECE" height="30.4883" style="stroke:#A80036;stroke-width:1.5;" width="202" x="487" y="984.0723"/><text fill="#000000" font-family="sans-serif" font-size="14" lengthAdjust="spacing" textLength="188" x="494" y="1004.6074">ProductCategoryRepository</text><text fill="#000000" font-family="sans-serif" font-size="14" lengthAdjust="spacing" textLength="18" x="705" y="116.7344">DB</text><path d="M699,67.1992 C699,57.1992 717,57.1992 717,57.1992 C717,57.1992 735,57.1992 735,67.1992 L735,93.1992 C735,103.1992 717,103.1992 717,103.1992 C717,103.1992 699,103.1992 699,93.1992 L699,67.1992 " fill="#FEFECE" style="stroke:#000000;stroke-width:1.5;"/><path d="M699,67.1992 C699,77.1992 717,77.1992 717,77.1992 C717,77.1992 735,77.1992 735,67.1992 " fill="none" style="stroke:#000000;stroke-width:1.5;"/><text fill="#000000" font-family="sans-serif" font-size="14" lengthAdjust="spacing" textLength="18" x="705" y="997.6074">DB</text><path d="M699,1010.5605 C699,1000.5605 717,1000.5605 717,1000.5605 C717,1000.5605 735,1000.5605 735,1010.5605 L735,1036.5605 C735,1046.5605 717,1046.5605 717,1046.5605 C717,1046.5605 699,1046.5605 699,1036.5605 L699,1010.5605 " fill="#FEFECE" style="stroke:#000000;stroke-width:1.5;"/><path d="M699,1010.5605 C699,1020.5605 717,1020.5605 717,1020.5605 C717,1020.5605 735,1020.5605 735,1010.5605 " fill="none" style="stroke:#000000;stroke-width:1.5;"/><rect fill="#FFFFFF" height="846.3848" style="stroke:#A80036;stroke-width:1.0;" width="10" x="24" y="129.6875"/><rect fill="#FFFFFF" height="113.9316" style="stroke:#A80036;stroke-width:1.0;" width="10" x="171.5" y="150.998"/><rect fill="#FFFFFF" height="71.6211" style="stroke:#A80036;stroke-width:1.0;" width="10" x="171.5" y="336.5508"/><rect fill="#FFFFFF" height="344.0371" style="stroke:#A80036;stroke-width:1.0;" width="10" x="171.5" y="479.793"/><rect fill="#FFFFFF" height="113.9316" style="stroke:#A80036;stroke-width:1.0;" width="10" x="171.5" y="853.1406"/><rect fill="#FFFFFF" height="161.8633" style="stroke:#A80036;stroke-width:1.0;" width="10" x="383.5" y="632.6563"/><rect fill="#FFFFFF" height="87.9316" style="stroke:#A80036;stroke-width:1.0;" width="10" x="583" y="677.2773"/><rect fill="#FFFFFF" height="29.3105" style="stroke:#A80036;stroke-width:1.0;" width="10" x="712" y="706.5879"/><polygon fill="#A80036" points="159.5,146.998,169.5,150.998,159.5,154.998,163.5,150.998" style="stroke:#A80036;stroke-width:1.0;"/><line style="stroke:#A80036;stroke-width:1.0;" x1="34" x2="165.5" y1="150.998" y2="150.998"/><text fill="#000000" font-family="sans-serif" font-size="13" lengthAdjust="spacing" textLength="38" x="41" y="146.2559">form()</text><line style="stroke:#A80036;stroke-width:1.0;" x1="181.5" x2="223.5" y1="180.3086" y2="180.3086"/><line style="stroke:#A80036;stroke-width:1.0;" x1="223.5" x2="223.5" y1="180.3086" y2="193.3086"/><line style="stroke:#A80036;stroke-width:1.0;" x1="182.5" x2="223.5" y1="193.3086" y2="193.3086"/><polygon fill="#A80036" points="192.5,189.3086,182.5,193.3086,192.5,197.3086,188.5,193.3086" style="stroke:#A80036;stroke-width:1.0;"/><text fill="#000000" font-family="sans-serif" font-size="13" lengthAdjust="spacing" textLength="76" x="188.5" y="175.5664">setUpForm()</text><path d="M276,167.498 L276,192.498 L388,192.498 L388,177.498 L378,167.498 L276,167.498 " fill="#FBFB77" style="stroke:#A80036;stroke-width:1.0;"/><path d="M378,167.498 L378,177.498 L388,177.498 L378,167.498 " fill="#FBFB77" style="stroke:#A80036;stroke-width:1.0;"/><text fill="#000000" font-family="sans-serif" font-size="13" lengthAdjust="spacing" textLength="91" x="282" y="185.0664">セッション生成</text><line style="stroke:#A80036;stroke-width:1.0;" x1="181.5" x2="223.5" y1="222.6191" y2="222.6191"/><line style="stroke:#A80036;stroke-width:1.0;" x1="223.5" x2="223.5" y1="222.6191" y2="235.6191"/><line style="stroke:#A80036;stroke-width:1.0;" x1="182.5" x2="223.5" y1="235.6191" y2="235.6191"/><polygon fill="#A80036" points="192.5,231.6191,182.5,235.6191,192.5,239.6191,188.5,235.6191" style="stroke:#A80036;stroke-width:1.0;"/><text fill="#000000" font-family="sans-serif" font-size="13" lengthAdjust="spacing" textLength="36" x="188.5" y="217.877">bind()</text><polygon fill="#A80036" points="45,260.9297,35,264.9297,45,268.9297,41,264.9297" style="stroke:#A80036;stroke-width:1.0;"/><line style="stroke:#A80036;stroke-width:1.0;" x1="39" x2="175.5" y1="264.9297" y2="264.9297"/><text fill="#000000" font-family="sans-serif" font-size="13" lengthAdjust="spacing" textLength="52" x="51" y="260.1875">入力画面</text><line style="stroke:#A80036;stroke-width:1.0;" x1="34" x2="76" y1="294.2402" y2="294.2402"/><line style="stroke:#A80036;stroke-width:1.0;" x1="76" x2="76" y1="294.2402" y2="307.2402"/><line style="stroke:#A80036;stroke-width:1.0;" x1="35" x2="76" y1="307.2402" y2="307.2402"/><polygon fill="#A80036" points="45,303.2402,35,307.2402,45,311.2402,41,307.2402" style="stroke:#A80036;stroke-width:1.0;"/><text fill="#000000" font-family="sans-serif" font-size="13" lengthAdjust="spacing" textLength="78" x="41" y="289.498">商品情報入力</text><polygon fill="#A80036" points="159.5,332.5508,169.5,336.5508,159.5,340.5508,163.5,336.5508" style="stroke:#A80036;stroke-width:1.0;"/><line style="stroke:#A80036;stroke-width:1.0;" x1="34" x2="165.5" y1="336.5508" y2="336.5508"/><text fill="#000000" font-family="sans-serif" font-size="13" lengthAdjust="spacing" textLength="57" x="41" y="331.8086">confirm()</text><line style="stroke:#A80036;stroke-width:1.0;" x1="181.5" x2="223.5" y1="365.8613" y2="365.8613"/><line style="stroke:#A80036;stroke-width:1.0;" x1="223.5" x2="223.5" y1="365.8613" y2="378.8613"/><line style="stroke:#A80036;stroke-width:1.0;" x1="182.5" x2="223.5" y1="378.8613" y2="378.8613"/><polygon fill="#A80036" points="192.5,374.8613,182.5,378.8613,192.5,382.8613,188.5,378.8613" style="stroke:#A80036;stroke-width:1.0;"/><text fill="#000000" font-family="sans-serif" font-size="13" lengthAdjust="spacing" textLength="65" x="188.5" y="361.1191">バリデート</text><polygon fill="#A80036" points="45,404.1719,35,408.1719,45,412.1719,41,408.1719" style="stroke:#A80036;stroke-width:1.0;"/><line style="stroke:#A80036;stroke-width:1.0;stroke-dasharray:2.0,2.0;" x1="39" x2="175.5" y1="408.1719" y2="408.1719"/><text fill="#000000" font-family="sans-serif" font-size="13" lengthAdjust="spacing" textLength="52" x="51" y="403.4297">確認画面</text><line style="stroke:#A80036;stroke-width:1.0;" x1="34" x2="76" y1="437.4824" y2="437.4824"/><line style="stroke:#A80036;stroke-width:1.0;" x1="76" x2="76" y1="437.4824" y2="450.4824"/><line style="stroke:#A80036;stroke-width:1.0;" x1="35" x2="76" y1="450.4824" y2="450.4824"/><polygon fill="#A80036" points="45,446.4824,35,450.4824,45,454.4824,41,450.4824" style="stroke:#A80036;stroke-width:1.0;"/><text fill="#000000" font-family="sans-serif" font-size="13" lengthAdjust="spacing" textLength="78" x="41" y="432.7402">入力内容確認</text><polygon fill="#A80036" points="159.5,475.793,169.5,479.793,159.5,483.793,163.5,479.793" style="stroke:#A80036;stroke-width:1.0;"/><line style="stroke:#A80036;stroke-width:1.0;" x1="34" x2="165.5" y1="479.793" y2="479.793"/><text fill="#000000" font-family="sans-serif" font-size="13" lengthAdjust="spacing" textLength="57" x="41" y="475.0508">execute()</text><line style="stroke:#A80036;stroke-width:1.0;" x1="181.5" x2="223.5" y1="513.2588" y2="513.2588"/><line style="stroke:#A80036;stroke-width:1.0;" x1="223.5" x2="223.5" y1="513.2588" y2="526.2588"/><line style="stroke:#A80036;stroke-width:1.0;" x1="182.5" x2="223.5" y1="526.2588" y2="526.2588"/><polygon fill="#A80036" points="192.5,522.2588,182.5,526.2588,192.5,530.2588,188.5,526.2588" style="stroke:#A80036;stroke-width:1.0;"/><text fill="#000000" font-family="sans-serif" font-size="13" lengthAdjust="spacing" textLength="91" x="188.5" y="508.5166">セッション確認</text><path d="M291,492.793 L291,532.793 L429,532.793 L429,502.793 L419,492.793 L291,492.793 " fill="#FBFB77" style="stroke:#A80036;stroke-width:1.0;"/><path d="M419,492.793 L419,502.793 L429,502.793 L419,492.793 " fill="#FBFB77" style="stroke:#A80036;stroke-width:1.0;"/><text fill="#000000" font-family="sans-serif" font-size="13" lengthAdjust="spacing" textLength="117" x="297" y="510.3613">セッションが空なら</text><text fill="#000000" font-family="sans-serif" font-size="13" lengthAdjust="spacing" textLength="91" x="297" y="525.6719">システムエラー</text><line style="stroke:#A80036;stroke-width:1.0;" x1="181.5" x2="223.5" y1="575.0352" y2="575.0352"/><line style="stroke:#A80036;stroke-width:1.0;" x1="223.5" x2="223.5" y1="575.0352" y2="588.0352"/><line style="stroke:#A80036;stroke-width:1.0;" x1="182.5" x2="223.5" y1="588.0352" y2="588.0352"/><polygon fill="#A80036" points="192.5,584.0352,182.5,588.0352,192.5,592.0352,188.5,588.0352" style="stroke:#A80036;stroke-width:1.0;"/><text fill="#000000" font-family="sans-serif" font-size="13" lengthAdjust="spacing" textLength="65" x="188.5" y="554.9824">フォームを</text><text fill="#000000" font-family="sans-serif" font-size="13" lengthAdjust="spacing" textLength="117" x="188.5" y="570.293">エンティティに変換</text><polygon fill="#A80036" points="371.5,628.6563,381.5,632.6563,371.5,636.6563,375.5,632.6563" style="stroke:#A80036;stroke-width:1.0;"/><line style="stroke:#A80036;stroke-width:1.0;" x1="181.5" x2="377.5" y1="632.6563" y2="632.6563"/><text fill="#000000" font-family="sans-serif" font-size="13" lengthAdjust="spacing" textLength="36" x="188.5" y="612.6035">insert</text><text fill="#000000" font-family="sans-serif" font-size="13" lengthAdjust="spacing" textLength="112" x="188.5" y="627.9141">(ProductCategory)</text><polygon fill="#A80036" points="571,673.2773,581,677.2773,571,681.2773,575,677.2773" style="stroke:#A80036;stroke-width:1.0;"/><line style="stroke:#A80036;stroke-width:1.0;" x1="393.5" x2="577" y1="677.2773" y2="677.2773"/><text fill="#000000" font-family="sans-serif" font-size="13" lengthAdjust="spacing" textLength="36" x="400.5" y="657.2246">insert</text><text fill="#000000" font-family="sans-serif" font-size="13" lengthAdjust="spacing" textLength="112" x="400.5" y="672.5352">(ProductCategory)</text><polygon fill="#A80036" points="700,702.5879,710,706.5879,700,710.5879,704,706.5879" style="stroke:#A80036;stroke-width:1.0;"/><line style="stroke:#A80036;stroke-width:1.0;" x1="593" x2="706" y1="706.5879" y2="706.5879"/><text fill="#000000" font-family="sans-serif" font-size="13" lengthAdjust="spacing" textLength="57" x="600" y="701.8457">INSERT文</text><polygon fill="#A80036" points="604,731.8984,594,735.8984,604,739.8984,600,735.8984" style="stroke:#A80036;stroke-width:1.0;"/><line style="stroke:#A80036;stroke-width:1.0;stroke-dasharray:2.0,2.0;" x1="598" x2="716" y1="735.8984" y2="735.8984"/><text fill="#000000" font-family="sans-serif" font-size="13" lengthAdjust="spacing" textLength="27" x="610" y="731.1563">void</text><polygon fill="#A80036" points="404.5,761.209,394.5,765.209,404.5,769.209,400.5,765.209" style="stroke:#A80036;stroke-width:1.0;"/><line style="stroke:#A80036;stroke-width:1.0;stroke-dasharray:2.0,2.0;" x1="398.5" x2="587" y1="765.209" y2="765.209"/><text fill="#000000" font-family="sans-serif" font-size="13" lengthAdjust="spacing" textLength="27" x="410.5" y="760.4668">void</text><polygon fill="#A80036" points="192.5,790.5195,182.5,794.5195,192.5,798.5195,188.5,794.5195" style="stroke:#A80036;stroke-width:1.0;"/><line style="stroke:#A80036;stroke-width:1.0;" x1="186.5" x2="387.5" y1="794.5195" y2="794.5195"/><text fill="#000000" font-family="sans-serif" font-size="13" lengthAdjust="spacing" textLength="27" x="198.5" y="789.7773">void</text><polygon fill="#A80036" points="45,819.8301,35,823.8301,45,827.8301,41,823.8301" style="stroke:#A80036;stroke-width:1.0;"/><line style="stroke:#A80036;stroke-width:1.0;stroke-dasharray:2.0,2.0;" x1="39" x2="175.5" y1="823.8301" y2="823.8301"/><text fill="#000000" font-family="sans-serif" font-size="13" lengthAdjust="spacing" textLength="78" x="51" y="819.0879">リダイレクト</text><polygon fill="#A80036" points="159.5,849.1406,169.5,853.1406,159.5,857.1406,163.5,853.1406" style="stroke:#A80036;stroke-width:1.0;"/><line style="stroke:#A80036;stroke-width:1.0;" x1="34" x2="165.5" y1="853.1406" y2="853.1406"/><text fill="#000000" font-family="sans-serif" font-size="13" lengthAdjust="spacing" textLength="66" x="41" y="848.3984">complete()</text><line style="stroke:#A80036;stroke-width:1.0;" x1="181.5" x2="223.5" y1="882.4512" y2="882.4512"/><line style="stroke:#A80036;stroke-width:1.0;" x1="223.5" x2="223.5" y1="882.4512" y2="895.4512"/><line style="stroke:#A80036;stroke-width:1.0;" x1="182.5" x2="223.5" y1="895.4512" y2="895.4512"/><polygon fill="#A80036" points="192.5,891.4512,182.5,895.4512,192.5,899.4512,188.5,895.4512" style="stroke:#A80036;stroke-width:1.0;"/><text fill="#000000" font-family="sans-serif" font-size="13" lengthAdjust="spacing" textLength="91" x="188.5" y="877.709">セッション破棄</text><line style="stroke:#A80036;stroke-width:1.0;" x1="181.5" x2="223.5" y1="924.7617" y2="924.7617"/><line style="stroke:#A80036;stroke-width:1.0;" x1="223.5" x2="223.5" y1="924.7617" y2="937.7617"/><line style="stroke:#A80036;stroke-width:1.0;" x1="182.5" x2="223.5" y1="937.7617" y2="937.7617"/><polygon fill="#A80036" points="192.5,933.7617,182.5,937.7617,192.5,941.7617,188.5,937.7617" style="stroke:#A80036;stroke-width:1.0;"/><text fill="#000000" font-family="sans-serif" font-size="13" lengthAdjust="spacing" textLength="142" x="188.5" y="920.0195">Modelに追加（商品名）</text><polygon fill="#A80036" points="45,963.0723,35,967.0723,45,971.0723,41,967.0723" style="stroke:#A80036;stroke-width:1.0;"/><line style="stroke:#A80036;stroke-width:1.0;" x1="39" x2="175.5" y1="967.0723" y2="967.0723"/><text fill="#000000" font-family="sans-serif" font-size="13" lengthAdjust="spacing" textLength="52" x="51" y="962.3301">完了画面</text><!--MD5=[18f15f996be8538e0920fa84709b7b4e]
@startuml
skin rose
skinparam shadowing false
hide empty methods
hide empty fields

title UC014: カテゴリ登録機能 シーケンス図
skinparam shadowing false

actor "ユーザ" as user
activate user
participant "ProductCategoryAddController" as ctrl
participant "ProductCategoryService" as svc
participant "ProductCategoryRepository" as repo
database DB as db

' 入力画面
user -> ctrl ++ : form()
ctrl -> ctrl : setUpForm()
note right: セッション生成
ctrl -> ctrl : bind()
ctrl -> user - - : 入力画面

' 確認画面
user -> user : 商品情報入力
user -> ctrl ++ : confirm()
ctrl -> ctrl : バリデート
ctrl - -> user - - : 確認画面

' 完了画面
user -> user : 入力内容確認
user -> ctrl ++ : execute()
ctrl -> ctrl : セッション確認
note right: セッションが空なら\nシステムエラー
ctrl -> ctrl : フォームを\nエンティティに変換
ctrl -> svc ++ : insert\n(ProductCategory)
svc -> repo ++ : insert\n(ProductCategory)
repo -> db ++ : INSERT文
db - -> repo - - : void
repo - -> svc - - : void
svc -> ctrl - - : void
user <- - ctrl - - : リダイレクト
user -> ctrl ++ : complete()
ctrl -> ctrl : セッション破棄
ctrl -> ctrl : Modelに追加（商品名）
ctrl -> user - - : 完了画面

@enduml

@startuml
skin rose
skinparam shadowing false
hide empty methods
hide empty fields

title UC014: カテゴリ登録機能 シーケンス図
skinparam shadowing false

actor "ユーザ" as user
activate user
participant "ProductCategoryAddController" as ctrl
participant "ProductCategoryService" as svc
participant "ProductCategoryRepository" as repo
database DB as db

user -> ctrl ++ : form()
ctrl -> ctrl : setUpForm()
note right: セッション生成
ctrl -> ctrl : bind()
ctrl -> user - - : 入力画面

user -> user : 商品情報入力
user -> ctrl ++ : confirm()
ctrl -> ctrl : バリデート
ctrl - -> user - - : 確認画面

user -> user : 入力内容確認
user -> ctrl ++ : execute()
ctrl -> ctrl : セッション確認
note right: セッションが空なら\nシステムエラー
ctrl -> ctrl : フォームを\nエンティティに変換
ctrl -> svc ++ : insert\n(ProductCategory)
svc -> repo ++ : insert\n(ProductCategory)
repo -> db ++ : INSERT文
db - -> repo - - : void
repo - -> svc - - : void
svc -> ctrl - - : void
user <- - ctrl - - : リダイレクト
user -> ctrl ++ : complete()
ctrl -> ctrl : セッション破棄
ctrl -> ctrl : Modelに追加（商品名）
ctrl -> user - - : 完了画面

@enduml

PlantUML version 1.2022.0(Wed Jan 12 01:16:42 JST 2022)
(GPL source distribution)
Java Runtime: OpenJDK Runtime Environment
JVM: OpenJDK 64-Bit Server VM
Default Encoding: UTF-8
Language: ja
Country: JP
--></g></svg>