<?xml version="1.0" encoding="us-ascii" standalone="no"?><svg xmlns="http://www.w3.org/2000/svg" xmlns:xlink="http://www.w3.org/1999/xlink" contentStyleType="text/css" height="794px" preserveAspectRatio="none" style="width:959px;height:794px;background:#FFFFFF;" version="1.1" viewBox="0 0 959 794" width="959px" zoomAndPan="magnify"><defs/><g><text fill="#000000" font-family="sans-serif" font-size="14" font-weight="bold" lengthAdjust="spacing" textLength="352" x="297.25" y="27.9951">UC017: &#31038;&#21729;&#12450;&#12459;&#12454;&#12531;&#12488;&#12525;&#12464;&#12452;&#12531;&#27231;&#33021; &#12471;&#12540;&#12465;&#12531;&#12473;&#22259;</text><rect fill="#FFFFFF" height="563.0547" style="stroke:#A80036;stroke-width:1.0;" width="10" x="18" y="131.5938"/><rect fill="#FFFFFF" height="29.1328" style="stroke:#A80036;stroke-width:1.0;" width="10" x="130" y="167.8594"/><rect fill="#FFFFFF" height="29.1328" style="stroke:#A80036;stroke-width:1.0;" width="10" x="227" y="665.5156"/><rect fill="#FFFFFF" height="364.8594" style="stroke:#A80036;stroke-width:1.0;" width="10" x="340.5" y="241.2578"/><rect fill="#FFFFFF" height="249.3281" style="stroke:#A80036;stroke-width:1.0;" width="10" x="507.5" y="285.5234"/><rect fill="#FFFFFF" height="87.3984" style="stroke:#A80036;stroke-width:1.0;" width="10" x="664" y="329.7891"/><rect fill="#FFFFFF" height="44.2656" style="stroke:#A80036;stroke-width:1.0;" width="10" x="819" y="446.3203"/><rect fill="#FFFFFF" height="29.1328" style="stroke:#A80036;stroke-width:1.0;" width="10" x="919.5" y="358.9219"/><line style="stroke:#A80036;stroke-width:1.0;stroke-dasharray:5.0,5.0;" x1="23" x2="23" y1="121.5938" y2="712.6484"/><line style="stroke:#A80036;stroke-width:1.0;stroke-dasharray:5.0,5.0;" x1="134.5" x2="134.5" y1="121.5938" y2="712.6484"/><line style="stroke:#A80036;stroke-width:1.0;stroke-dasharray:5.0,5.0;" x1="231.5" x2="231.5" y1="121.5938" y2="712.6484"/><line style="stroke:#A80036;stroke-width:1.0;stroke-dasharray:5.0,5.0;" x1="345.5" x2="345.5" y1="121.5938" y2="712.6484"/><line style="stroke:#A80036;stroke-width:1.0;stroke-dasharray:5.0,5.0;" x1="512.5" x2="512.5" y1="121.5938" y2="712.6484"/><line style="stroke:#A80036;stroke-width:1.0;stroke-dasharray:5.0,5.0;" x1="668.5" x2="668.5" y1="121.5938" y2="712.6484"/><line style="stroke:#A80036;stroke-width:1.0;stroke-dasharray:5.0,5.0;" x1="823.5" x2="823.5" y1="121.5938" y2="712.6484"/><line style="stroke:#A80036;stroke-width:1.0;stroke-dasharray:5.0,5.0;" x1="924.5" x2="924.5" y1="121.5938" y2="712.6484"/><text fill="#000000" font-family="sans-serif" font-size="14" lengthAdjust="spacing" textLength="30" x="5" y="118.292">user</text><ellipse cx="23" cy="52.2969" fill="#FEFECE" rx="8" ry="8" style="stroke:#A80036;stroke-width:2.0;"/><path d="M23,60.2969 L23,87.2969 M10,68.2969 L36,68.2969 M23,87.2969 L10,102.2969 M23,87.2969 L36,102.2969 " fill="none" style="stroke:#A80036;stroke-width:2.0;"/><text fill="#000000" font-family="sans-serif" font-size="14" lengthAdjust="spacing" textLength="30" x="5" y="724.6436">user</text><ellipse cx="23" cy="737.9453" fill="#FEFECE" rx="8" ry="8" style="stroke:#A80036;stroke-width:2.0;"/><path d="M23,745.9453 L23,772.9453 M10,753.9453 L36,753.9453 M23,772.9453 L10,787.9453 M23,772.9453 L36,787.9453 " fill="none" style="stroke:#A80036;stroke-width:2.0;"/><rect fill="#FEFECE" height="46.5938" style="stroke:#A80036;stroke-width:1.5;" width="87" x="91.5" y="74"/><text fill="#000000" font-family="sans-serif" font-size="14" lengthAdjust="spacing" textLength="39" x="115.5" y="93.9951">Login</text><text fill="#000000" font-family="sans-serif" font-size="14" lengthAdjust="spacing" textLength="73" x="98.5" y="110.292">Controller</text><rect fill="#FEFECE" height="46.5938" style="stroke:#A80036;stroke-width:1.5;" width="87" x="91.5" y="711.6484"/><text fill="#000000" font-family="sans-serif" font-size="14" lengthAdjust="spacing" textLength="39" x="115.5" y="731.6436">Login</text><text fill="#000000" font-family="sans-serif" font-size="14" lengthAdjust="spacing" textLength="73" x="98.5" y="747.9404">Controller</text><rect fill="#FEFECE" height="46.5938" style="stroke:#A80036;stroke-width:1.5;" width="87" x="188.5" y="74"/><text fill="#000000" font-family="sans-serif" font-size="14" lengthAdjust="spacing" textLength="38" x="213" y="93.9951">Menu</text><text fill="#000000" font-family="sans-serif" font-size="14" lengthAdjust="spacing" textLength="73" x="195.5" y="110.292">Controller</text><rect fill="#FEFECE" height="46.5938" style="stroke:#A80036;stroke-width:1.5;" width="87" x="188.5" y="711.6484"/><text fill="#000000" font-family="sans-serif" font-size="14" lengthAdjust="spacing" textLength="38" x="213" y="731.6436">Menu</text><text fill="#000000" font-family="sans-serif" font-size="14" lengthAdjust="spacing" textLength="73" x="195.5" y="747.9404">Controller</text><rect fill="#FEFECE" height="30.2969" style="stroke:#A80036;stroke-width:1.5;" width="120" x="285.5" y="90.2969"/><text fill="#000000" font-family="sans-serif" font-size="14" lengthAdjust="spacing" textLength="106" x="292.5" y="110.292">SpringSecurity</text><rect fill="#FEFECE" height="30.2969" style="stroke:#A80036;stroke-width:1.5;" width="120" x="285.5" y="711.6484"/><text fill="#000000" font-family="sans-serif" font-size="14" lengthAdjust="spacing" textLength="106" x="292.5" y="731.6436">SpringSecurity</text><rect fill="#FEFECE" height="46.5938" style="stroke:#A80036;stroke-width:1.5;" width="148" x="438.5" y="74"/><text fill="#000000" font-family="sans-serif" font-size="14" lengthAdjust="spacing" textLength="131" x="447" y="93.9951">EmployeeAccount</text><text fill="#000000" font-family="sans-serif" font-size="14" lengthAdjust="spacing" textLength="134" x="445.5" y="110.292">UserDetailsService</text><rect fill="#FEFECE" height="46.5938" style="stroke:#A80036;stroke-width:1.5;" width="148" x="438.5" y="711.6484"/><text fill="#000000" font-family="sans-serif" font-size="14" lengthAdjust="spacing" textLength="131" x="447" y="731.6436">EmployeeAccount</text><text fill="#000000" font-family="sans-serif" font-size="14" lengthAdjust="spacing" textLength="134" x="445.5" y="747.9404">UserDetailsService</text><rect fill="#FEFECE" height="46.5938" style="stroke:#A80036;stroke-width:1.5;" width="145" x="596.5" y="74"/><text fill="#000000" font-family="sans-serif" font-size="14" lengthAdjust="spacing" textLength="131" x="603.5" y="93.9951">EmployeeAccount</text><text fill="#000000" font-family="sans-serif" font-size="14" lengthAdjust="spacing" textLength="79" x="629.5" y="110.292">Repository</text><rect fill="#FEFECE" height="46.5938" style="stroke:#A80036;stroke-width:1.5;" width="145" x="596.5" y="711.6484"/><text fill="#000000" font-family="sans-serif" font-size="14" lengthAdjust="spacing" textLength="131" x="603.5" y="731.6436">EmployeeAccount</text><text fill="#000000" font-family="sans-serif" font-size="14" lengthAdjust="spacing" textLength="79" x="629.5" y="747.9404">Repository</text><rect fill="#FEFECE" height="46.5938" style="stroke:#A80036;stroke-width:1.5;" width="145" x="751.5" y="74"/><text fill="#000000" font-family="sans-serif" font-size="14" lengthAdjust="spacing" textLength="131" x="758.5" y="93.9951">EmployeeAccount</text><text fill="#000000" font-family="sans-serif" font-size="14" lengthAdjust="spacing" textLength="81" x="783.5" y="110.292">UserDetails</text><rect fill="#FEFECE" height="46.5938" style="stroke:#A80036;stroke-width:1.5;" width="145" x="751.5" y="711.6484"/><text fill="#000000" font-family="sans-serif" font-size="14" lengthAdjust="spacing" textLength="131" x="758.5" y="731.6436">EmployeeAccount</text><text fill="#000000" font-family="sans-serif" font-size="14" lengthAdjust="spacing" textLength="81" x="783.5" y="747.9404">UserDetails</text><text fill="#000000" font-family="sans-serif" font-size="14" lengthAdjust="spacing" textLength="21" x="911" y="118.292">DB</text><path d="M906.5,69.2969 C906.5,59.2969 924.5,59.2969 924.5,59.2969 C924.5,59.2969 942.5,59.2969 942.5,69.2969 L942.5,95.2969 C942.5,105.2969 924.5,105.2969 924.5,105.2969 C924.5,105.2969 906.5,105.2969 906.5,95.2969 L906.5,69.2969 " fill="#FEFECE" style="stroke:#A80036;stroke-width:1.5;"/><path d="M906.5,69.2969 C906.5,79.2969 924.5,79.2969 924.5,79.2969 C924.5,79.2969 942.5,79.2969 942.5,69.2969 " fill="none" style="stroke:#A80036;stroke-width:1.5;"/><text fill="#000000" font-family="sans-serif" font-size="14" lengthAdjust="spacing" textLength="21" x="911" y="724.6436">DB</text><path d="M906.5,737.9453 C906.5,727.9453 924.5,727.9453 924.5,727.9453 C924.5,727.9453 942.5,727.9453 942.5,737.9453 L942.5,763.9453 C942.5,773.9453 924.5,773.9453 924.5,773.9453 C924.5,773.9453 906.5,773.9453 906.5,763.9453 L906.5,737.9453 " fill="#FEFECE" style="stroke:#A80036;stroke-width:1.5;"/><path d="M906.5,737.9453 C906.5,747.9453 924.5,747.9453 924.5,747.9453 C924.5,747.9453 942.5,747.9453 942.5,737.9453 " fill="none" style="stroke:#A80036;stroke-width:1.5;"/><rect fill="#FFFFFF" height="563.0547" style="stroke:#A80036;stroke-width:1.0;" width="10" x="18" y="131.5938"/><rect fill="#FFFFFF" height="29.1328" style="stroke:#A80036;stroke-width:1.0;" width="10" x="130" y="167.8594"/><rect fill="#FFFFFF" height="29.1328" style="stroke:#A80036;stroke-width:1.0;" width="10" x="227" y="665.5156"/><rect fill="#FFFFFF" height="364.8594" style="stroke:#A80036;stroke-width:1.0;" width="10" x="340.5" y="241.2578"/><rect fill="#FFFFFF" height="249.3281" style="stroke:#A80036;stroke-width:1.0;" width="10" x="507.5" y="285.5234"/><rect fill="#FFFFFF" height="87.3984" style="stroke:#A80036;stroke-width:1.0;" width="10" x="664" y="329.7891"/><rect fill="#FFFFFF" height="44.2656" style="stroke:#A80036;stroke-width:1.0;" width="10" x="819" y="446.3203"/><rect fill="#FFFFFF" height="29.1328" style="stroke:#A80036;stroke-width:1.0;" width="10" x="919.5" y="358.9219"/><polygon fill="#A80036" points="118,163.8594,128,167.8594,118,171.8594,122,167.8594" style="stroke:#A80036;stroke-width:1.0;"/><line style="stroke:#A80036;stroke-width:1.0;" x1="28" x2="124" y1="167.8594" y2="167.8594"/><text fill="#000000" font-family="sans-serif" font-size="13" lengthAdjust="spacing" textLength="26" x="35" y="147.6606">GET</text><text fill="#000000" font-family="sans-serif" font-size="13" lengthAdjust="spacing" textLength="78" x="35" y="162.7935">/admin/login</text><polygon fill="#A80036" points="39,192.9922,29,196.9922,39,200.9922,35,196.9922" style="stroke:#A80036;stroke-width:1.0;"/><line style="stroke:#A80036;stroke-width:1.0;" x1="33" x2="134" y1="196.9922" y2="196.9922"/><text fill="#000000" font-family="sans-serif" font-size="13" lengthAdjust="spacing" textLength="78" x="45" y="191.9263">&#12525;&#12464;&#12452;&#12531;&#30011;&#38754;</text><polygon fill="#A80036" points="328.5,237.2578,338.5,241.2578,328.5,245.2578,332.5,241.2578" style="stroke:#A80036;stroke-width:1.0;"/><line style="stroke:#A80036;stroke-width:1.0;" x1="28" x2="334.5" y1="241.2578" y2="241.2578"/><text fill="#000000" font-family="sans-serif" font-size="13" lengthAdjust="spacing" textLength="34" x="35" y="221.0591">POST</text><text fill="#000000" font-family="sans-serif" font-size="13" lengthAdjust="spacing" textLength="77" x="35" y="236.1919">/admin/auth</text><polygon fill="#A80036" points="495.5,281.5234,505.5,285.5234,495.5,289.5234,499.5,285.5234" style="stroke:#A80036;stroke-width:1.0;"/><line style="stroke:#A80036;stroke-width:1.0;" x1="350.5" x2="501.5" y1="285.5234" y2="285.5234"/><text fill="#000000" font-family="sans-serif" font-size="13" lengthAdjust="spacing" textLength="138" x="357.5" y="265.3247">loadUserByUsername</text><text fill="#000000" font-family="sans-serif" font-size="13" lengthAdjust="spacing" textLength="76" x="357.5" y="280.4575">(userName)</text><polygon fill="#A80036" points="652,325.7891,662,329.7891,652,333.7891,656,329.7891" style="stroke:#A80036;stroke-width:1.0;"/><line style="stroke:#A80036;stroke-width:1.0;" x1="517.5" x2="658" y1="329.7891" y2="329.7891"/><text fill="#000000" font-family="sans-serif" font-size="13" lengthAdjust="spacing" textLength="107" x="524.5" y="309.5903">findByUserName</text><text fill="#000000" font-family="sans-serif" font-size="13" lengthAdjust="spacing" textLength="76" x="524.5" y="324.7231">(userName)</text><polygon fill="#A80036" points="907.5,354.9219,917.5,358.9219,907.5,362.9219,911.5,358.9219" style="stroke:#A80036;stroke-width:1.0;"/><line style="stroke:#A80036;stroke-width:1.0;" x1="674" x2="913.5" y1="358.9219" y2="358.9219"/><text fill="#000000" font-family="sans-serif" font-size="13" lengthAdjust="spacing" textLength="77" x="681" y="353.856">SQL SELECT</text><polygon fill="#A80036" points="685,384.0547,675,388.0547,685,392.0547,681,388.0547" style="stroke:#A80036;stroke-width:1.0;"/><line style="stroke:#A80036;stroke-width:1.0;stroke-dasharray:2.0,2.0;" x1="679" x2="923.5" y1="388.0547" y2="388.0547"/><text fill="#000000" font-family="sans-serif" font-size="13" lengthAdjust="spacing" textLength="116" x="691" y="382.9888">EmployeeAccount</text><polygon fill="#A80036" points="528.5,413.1875,518.5,417.1875,528.5,421.1875,524.5,417.1875" style="stroke:#A80036;stroke-width:1.0;"/><line style="stroke:#A80036;stroke-width:1.0;stroke-dasharray:2.0,2.0;" x1="522.5" x2="668" y1="417.1875" y2="417.1875"/><text fill="#000000" font-family="sans-serif" font-size="13" lengthAdjust="spacing" textLength="116" x="534.5" y="412.1216">EmployeeAccount</text><polygon fill="#A80036" points="807,442.3203,817,446.3203,807,450.3203,811,446.3203" style="stroke:#A80036;stroke-width:1.0;"/><line style="stroke:#A80036;stroke-width:1.0;" x1="517.5" x2="813" y1="446.3203" y2="446.3203"/><text fill="#000000" font-family="sans-serif" font-size="13" lengthAdjust="spacing" textLength="27" x="524.5" y="441.2544">new</text><polygon fill="#A80036" points="528.5,486.5859,518.5,490.5859,528.5,494.5859,524.5,490.5859" style="stroke:#A80036;stroke-width:1.0;"/><line style="stroke:#A80036;stroke-width:1.0;stroke-dasharray:2.0,2.0;" x1="522.5" x2="823" y1="490.5859" y2="490.5859"/><text fill="#000000" font-family="sans-serif" font-size="13" lengthAdjust="spacing" textLength="116" x="534.5" y="470.3872">EmployeeAccount</text><text fill="#000000" font-family="sans-serif" font-size="13" lengthAdjust="spacing" textLength="73" x="534.5" y="485.52">UserDetails</text><polygon fill="#A80036" points="361.5,530.8516,351.5,534.8516,361.5,538.8516,357.5,534.8516" style="stroke:#A80036;stroke-width:1.0;"/><line style="stroke:#A80036;stroke-width:1.0;stroke-dasharray:2.0,2.0;" x1="355.5" x2="511.5" y1="534.8516" y2="534.8516"/><text fill="#000000" font-family="sans-serif" font-size="13" lengthAdjust="spacing" textLength="116" x="367.5" y="514.6528">EmployeeAccount</text><text fill="#000000" font-family="sans-serif" font-size="13" lengthAdjust="spacing" textLength="73" x="367.5" y="529.7856">UserDetails</text><line style="stroke:#A80036;stroke-width:1.0;" x1="350.5" x2="392.5" y1="563.9844" y2="563.9844"/><line style="stroke:#A80036;stroke-width:1.0;" x1="392.5" x2="392.5" y1="563.9844" y2="576.9844"/><line style="stroke:#A80036;stroke-width:1.0;" x1="351.5" x2="392.5" y1="576.9844" y2="576.9844"/><polygon fill="#A80036" points="361.5,572.9844,351.5,576.9844,361.5,580.9844,357.5,576.9844" style="stroke:#A80036;stroke-width:1.0;"/><text fill="#000000" font-family="sans-serif" font-size="13" lengthAdjust="spacing" textLength="104" x="357.5" y="558.9185">&#12475;&#12483;&#12471;&#12519;&#12531;&#12395;&#26684;&#32013;</text><polygon fill="#A80036" points="39,602.1172,29,606.1172,39,610.1172,35,606.1172" style="stroke:#A80036;stroke-width:1.0;"/><line style="stroke:#A80036;stroke-width:1.0;stroke-dasharray:2.0,2.0;" x1="33" x2="344.5" y1="606.1172" y2="606.1172"/><text fill="#000000" font-family="sans-serif" font-size="13" lengthAdjust="spacing" textLength="78" x="45" y="601.0513">&#12522;&#12480;&#12452;&#12524;&#12463;&#12488;</text><polygon fill="#A80036" points="215,661.5156,225,665.5156,215,669.5156,219,665.5156" style="stroke:#A80036;stroke-width:1.0;"/><line style="stroke:#A80036;stroke-width:1.0;" x1="28" x2="221" y1="665.5156" y2="665.5156"/><text fill="#000000" font-family="sans-serif" font-size="13" lengthAdjust="spacing" textLength="26" x="35" y="630.1841">GET</text><text fill="#000000" font-family="sans-serif" font-size="13" lengthAdjust="spacing" textLength="85" x="35" y="645.3169">/admin/menu</text><text fill="#000000" font-family="sans-serif" font-size="13" lengthAdjust="spacing" textLength="47" x="35" y="660.4497">menu()</text><polygon fill="#A80036" points="34,690.6484,24,694.6484,34,698.6484,30,694.6484" style="stroke:#A80036;stroke-width:1.0;"/><line style="stroke:#A80036;stroke-width:1.0;stroke-dasharray:2.0,2.0;" x1="28" x2="231" y1="694.6484" y2="694.6484"/><text fill="#000000" font-family="sans-serif" font-size="13" lengthAdjust="spacing" textLength="78" x="40" y="689.5825">&#12513;&#12491;&#12517;&#12540;&#30011;&#38754;</text><!--SRC=[ZPFFJnGn5CVl_IkQFK78XXyN4mucicoyhFXZuBQNxhH0uqmxQJjBzgRjnSHuqfiX2a498W63YJ6W_qm3g_-5hzFnnwn4kRIlxUUzldvVdtx81LPICwJ1AeWYETQRXCejBZRmEidWn72JCRpMcPk_iOZ7Uryldkzuk-ljeRTllJlrxebtHzwUUBi7oyk3Lz_S5-pj9-_ElVqG2FlvukKf8gcH2hTApLGB4us34JRva1WMLv20uIalY32urPCRNFH5HmgZP9RLNgbHsNmJlCD4UIMtqEIIGi6h4fQMYfjHHMcMDfbkNcHonDYjD9MbC7sn1dajCqDufXEcXZnbqN7uFyS7h92QmvFZJGgMrxyg2aGH9OOCY6PuUIdiq052GIZSlXc5m3CpU17VxgxsnIoXEHUpML0DnKEW8jq6wCyYZL-SVT_U_HKAL8Y1xjrDVaSYfTb4uIWGmvh89A4XpwLH60N9MLzCXJWhO4wZm04U7XlvTIveP5ScsGe2c0uYcjpluQJRwtPM4MorVuQfaf_GglQj4xkIg3CfQGmks1O2-rykZG94_rgRQz2rJ321qlRCErTrm7xu_eyFBr-VZpy-YzH4KTvvzwWgodjlZw6N6lLT-Bk-UVNPmpWrZI8p6NB7kwVUlO7-g-kCA6lqsGy0]--></g></svg>