<svg xmlns="http://www.w3.org/2000/svg" xmlns:xlink="http://www.w3.org/1999/xlink" contentStyleType="text/css" height="794px" preserveAspectRatio="none" style="width:944px;height:794px;background:#FFFFFF;" version="1.1" viewBox="0 0 944 794" width="944px" zoomAndPan="magnify"><defs/><g><text fill="#000000" font-family="sans-serif" font-size="14" font-weight="bold" lengthAdjust="spacing" textLength="332.2117" x="299.4933" y="27.9951">UC017: &#31038;&#21729;&#12450;&#12459;&#12454;&#12531;&#12488;&#12525;&#12464;&#12452;&#12531;&#27231;&#33021; &#12471;&#12540;&#12465;&#12531;&#12473;&#22259;</text><rect fill="#FFFFFF" height="563.0547" style="stroke:#A80036;stroke-width:1.0;" width="10" x="18.2681" y="131.5938"/><rect fill="#FFFFFF" height="29.1328" style="stroke:#A80036;stroke-width:1.0;" width="10" x="130.2682" y="167.8594"/><rect fill="#FFFFFF" height="29.1328" style="stroke:#A80036;stroke-width:1.0;" width="10" x="223.441" y="665.5156"/><rect fill="#FFFFFF" height="364.8594" style="stroke:#A80036;stroke-width:1.0;" width="10" x="333.3619" y="241.2578"/><rect fill="#FFFFFF" height="249.3281" style="stroke:#A80036;stroke-width:1.0;" width="10" x="502.8863" y="285.5234"/><rect fill="#FFFFFF" height="87.3984" style="stroke:#A80036;stroke-width:1.0;" width="10" x="656.0343" y="329.7891"/><rect fill="#FFFFFF" height="44.2656" style="stroke:#A80036;stroke-width:1.0;" width="10" x="806.1436" y="446.3203"/><rect fill="#FFFFFF" height="29.1328" style="stroke:#A80036;stroke-width:1.0;" width="10" x="904.1983" y="358.9219"/><line style="stroke:#A80036;stroke-width:1.0;stroke-dasharray:5.0,5.0;" x1="23" x2="23" y1="121.5938" y2="712.6484"/><line style="stroke:#A80036;stroke-width:1.0;stroke-dasharray:5.0,5.0;" x1="134.6817" x2="134.6817" y1="121.5938" y2="712.6484"/><line style="stroke:#A80036;stroke-width:1.0;stroke-dasharray:5.0,5.0;" x1="227.8546" x2="227.8546" y1="121.5938" y2="712.6484"/><line style="stroke:#A80036;stroke-width:1.0;stroke-dasharray:5.0,5.0;" x1="338.0274" x2="338.0274" y1="121.5938" y2="712.6484"/><line style="stroke:#A80036;stroke-width:1.0;stroke-dasharray:5.0,5.0;" x1="507.7931" x2="507.7931" y1="121.5938" y2="712.6484"/><line style="stroke:#A80036;stroke-width:1.0;stroke-dasharray:5.0,5.0;" x1="660.9796" x2="660.9796" y1="121.5938" y2="712.6484"/><line style="stroke:#A80036;stroke-width:1.0;stroke-dasharray:5.0,5.0;" x1="811.089" x2="811.089" y1="121.5938" y2="712.6484"/><line style="stroke:#A80036;stroke-width:1.0;stroke-dasharray:5.0,5.0;" x1="909.1983" x2="909.1983" y1="121.5938" y2="712.6484"/><text fill="#000000" font-family="sans-serif" font-size="14" lengthAdjust="spacing" textLength="30.5361" x="5" y="118.292">user</text><ellipse cx="23.2681" cy="52.2969" fill="#FEFECE" rx="8" ry="8" style="stroke:#A80036;stroke-width:2.0;"/><path d="M23.2681,60.2969 L23.2681,87.2969 M10.2681,68.2969 L36.2681,68.2969 M23.2681,87.2969 L10.2681,102.2969 M23.2681,87.2969 L36.2681,102.2969 " fill="none" style="stroke:#A80036;stroke-width:2.0;"/><text fill="#000000" font-family="sans-serif" font-size="14" lengthAdjust="spacing" textLength="30.5361" x="5" y="724.6436">user</text><ellipse cx="23.2681" cy="737.9453" fill="#FEFECE" rx="8" ry="8" style="stroke:#A80036;stroke-width:2.0;"/><path d="M23.2681,745.9453 L23.2681,772.9453 M10.2681,753.9453 L36.2681,753.9453 M23.2681,772.9453 L10.2681,787.9453 M23.2681,772.9453 L36.2681,787.9453 " fill="none" style="stroke:#A80036;stroke-width:2.0;"/><rect fill="#FEFECE" height="46.5938" style="stroke:#A80036;stroke-width:1.5;" width="83.1729" x="93.6817" y="74"/><text fill="#000000" font-family="sans-serif" font-size="14" lengthAdjust="spacing" textLength="38.0146" x="116.2608" y="93.9951">Login</text><text fill="#000000" font-family="sans-serif" font-size="14" lengthAdjust="spacing" textLength="69.1729" x="100.6817" y="110.292">Controller</text><rect fill="#FEFECE" height="46.5938" style="stroke:#A80036;stroke-width:1.5;" width="83.1729" x="93.6817" y="711.6484"/><text fill="#000000" font-family="sans-serif" font-size="14" lengthAdjust="spacing" textLength="38.0146" x="116.2608" y="731.6436">Login</text><text fill="#000000" font-family="sans-serif" font-size="14" lengthAdjust="spacing" textLength="69.1729" x="100.6817" y="747.9404">Controller</text><rect fill="#FEFECE" height="46.5938" style="stroke:#A80036;stroke-width:1.5;" width="83.1729" x="186.8546" y="74"/><text fill="#000000" font-family="sans-serif" font-size="14" lengthAdjust="spacing" textLength="38.4385" x="209.2218" y="93.9951">Menu</text><text fill="#000000" font-family="sans-serif" font-size="14" lengthAdjust="spacing" textLength="69.1729" x="193.8546" y="110.292">Controller</text><rect fill="#FEFECE" height="46.5938" style="stroke:#A80036;stroke-width:1.5;" width="83.1729" x="186.8546" y="711.6484"/><text fill="#000000" font-family="sans-serif" font-size="14" lengthAdjust="spacing" textLength="38.4385" x="209.2218" y="731.6436">Menu</text><text fill="#000000" font-family="sans-serif" font-size="14" lengthAdjust="spacing" textLength="69.1729" x="193.8546" y="747.9404">Controller</text><rect fill="#FEFECE" height="30.2969" style="stroke:#A80036;stroke-width:1.5;" width="116.6689" x="280.0274" y="90.2969"/><text fill="#000000" font-family="sans-serif" font-size="14" lengthAdjust="spacing" textLength="102.6689" x="287.0274" y="110.292">SpringSecurity</text><rect fill="#FEFECE" height="30.2969" style="stroke:#A80036;stroke-width:1.5;" width="116.6689" x="280.0274" y="711.6484"/><text fill="#000000" font-family="sans-serif" font-size="14" lengthAdjust="spacing" textLength="102.6689" x="287.0274" y="731.6436">SpringSecurity</text><rect fill="#FEFECE" height="46.5938" style="stroke:#A80036;stroke-width:1.5;" width="146.1865" x="434.7931" y="74"/><text fill="#000000" font-family="sans-serif" font-size="14" lengthAdjust="spacing" textLength="126.1094" x="444.8316" y="93.9951">EmployeeAccount</text><text fill="#000000" font-family="sans-serif" font-size="14" lengthAdjust="spacing" textLength="132.1865" x="441.7931" y="110.292">UserDetailsService</text><rect fill="#FEFECE" height="46.5938" style="stroke:#A80036;stroke-width:1.5;" width="146.1865" x="434.7931" y="711.6484"/><text fill="#000000" font-family="sans-serif" font-size="14" lengthAdjust="spacing" textLength="126.1094" x="444.8316" y="731.6436">EmployeeAccount</text><text fill="#000000" font-family="sans-serif" font-size="14" lengthAdjust="spacing" textLength="132.1865" x="441.7931" y="747.9404">UserDetailsService</text><rect fill="#FEFECE" height="46.5938" style="stroke:#A80036;stroke-width:1.5;" width="140.1094" x="590.9796" y="74"/><text fill="#000000" font-family="sans-serif" font-size="14" lengthAdjust="spacing" textLength="126.1094" x="597.9796" y="93.9951">EmployeeAccount</text><text fill="#000000" font-family="sans-serif" font-size="14" lengthAdjust="spacing" textLength="75.0723" x="623.4981" y="110.292">Repository</text><rect fill="#FEFECE" height="46.5938" style="stroke:#A80036;stroke-width:1.5;" width="140.1094" x="590.9796" y="711.6484"/><text fill="#000000" font-family="sans-serif" font-size="14" lengthAdjust="spacing" textLength="126.1094" x="597.9796" y="731.6436">EmployeeAccount</text><text fill="#000000" font-family="sans-serif" font-size="14" lengthAdjust="spacing" textLength="75.0723" x="623.4981" y="747.9404">Repository</text><rect fill="#FEFECE" height="46.5938" style="stroke:#A80036;stroke-width:1.5;" width="140.1094" x="741.089" y="74"/><text fill="#000000" font-family="sans-serif" font-size="14" lengthAdjust="spacing" textLength="126.1094" x="748.089" y="93.9951">EmployeeAccount</text><text fill="#000000" font-family="sans-serif" font-size="14" lengthAdjust="spacing" textLength="80.4453" x="770.921" y="110.292">UserDetails</text><rect fill="#FEFECE" height="46.5938" style="stroke:#A80036;stroke-width:1.5;" width="140.1094" x="741.089" y="711.6484"/><text fill="#000000" font-family="sans-serif" font-size="14" lengthAdjust="spacing" textLength="126.1094" x="748.089" y="731.6436">EmployeeAccount</text><text fill="#000000" font-family="sans-serif" font-size="14" lengthAdjust="spacing" textLength="80.4453" x="770.921" y="747.9404">UserDetails</text><text fill="#000000" font-family="sans-serif" font-size="14" lengthAdjust="spacing" textLength="20.3848" x="896.006" y="118.292">DB</text><path d="M891.1983,69.2969 C891.1983,59.2969 909.1983,59.2969 909.1983,59.2969 C909.1983,59.2969 927.1983,59.2969 927.1983,69.2969 L927.1983,95.2969 C927.1983,105.2969 909.1983,105.2969 909.1983,105.2969 C909.1983,105.2969 891.1983,105.2969 891.1983,95.2969 L891.1983,69.2969 " fill="#FEFECE" style="stroke:#A80036;stroke-width:1.5;"/><path d="M891.1983,69.2969 C891.1983,79.2969 909.1983,79.2969 909.1983,79.2969 C909.1983,79.2969 927.1983,79.2969 927.1983,69.2969 " fill="none" style="stroke:#A80036;stroke-width:1.5;"/><text fill="#000000" font-family="sans-serif" font-size="14" lengthAdjust="spacing" textLength="20.3848" x="896.006" y="724.6436">DB</text><path d="M891.1983,737.9453 C891.1983,727.9453 909.1983,727.9453 909.1983,727.9453 C909.1983,727.9453 927.1983,727.9453 927.1983,737.9453 L927.1983,763.9453 C927.1983,773.9453 909.1983,773.9453 909.1983,773.9453 C909.1983,773.9453 891.1983,773.9453 891.1983,763.9453 L891.1983,737.9453 " fill="#FEFECE" style="stroke:#A80036;stroke-width:1.5;"/><path d="M891.1983,737.9453 C891.1983,747.9453 909.1983,747.9453 909.1983,747.9453 C909.1983,747.9453 927.1983,747.9453 927.1983,737.9453 " fill="none" style="stroke:#A80036;stroke-width:1.5;"/><rect fill="#FFFFFF" height="563.0547" style="stroke:#A80036;stroke-width:1.0;" width="10" x="18.2681" y="131.5938"/><rect fill="#FFFFFF" height="29.1328" style="stroke:#A80036;stroke-width:1.0;" width="10" x="130.2682" y="167.8594"/><rect fill="#FFFFFF" height="29.1328" style="stroke:#A80036;stroke-width:1.0;" width="10" x="223.441" y="665.5156"/><rect fill="#FFFFFF" height="364.8594" style="stroke:#A80036;stroke-width:1.0;" width="10" x="333.3619" y="241.2578"/><rect fill="#FFFFFF" height="249.3281" style="stroke:#A80036;stroke-width:1.0;" width="10" x="502.8863" y="285.5234"/><rect fill="#FFFFFF" height="87.3984" style="stroke:#A80036;stroke-width:1.0;" width="10" x="656.0343" y="329.7891"/><rect fill="#FFFFFF" height="44.2656" style="stroke:#A80036;stroke-width:1.0;" width="10" x="806.1436" y="446.3203"/><rect fill="#FFFFFF" height="29.1328" style="stroke:#A80036;stroke-width:1.0;" width="10" x="904.1983" y="358.9219"/><polygon fill="#A80036" points="118.2682,163.8594,128.2682,167.8594,118.2682,171.8594,122.2682,167.8594" style="stroke:#A80036;stroke-width:1.0;"/><line style="stroke:#A80036;stroke-width:1.0;" x1="28.2681" x2="124.2682" y1="167.8594" y2="167.8594"/><text fill="#000000" font-family="sans-serif" font-size="13" lengthAdjust="spacing" textLength="26.2285" x="35.2681" y="147.6606">GET</text><text fill="#000000" font-family="sans-serif" font-size="13" lengthAdjust="spacing" textLength="81.1611" x="35.2681" y="162.7935">/admin/login</text><polygon fill="#A80036" points="39.2681,192.9922,29.2681,196.9922,39.2681,200.9922,35.2681,196.9922" style="stroke:#A80036;stroke-width:1.0;"/><line style="stroke:#A80036;stroke-width:1.0;" x1="33.2681" x2="134.2682" y1="196.9922" y2="196.9922"/><text fill="#000000" font-family="sans-serif" font-size="13" lengthAdjust="spacing" textLength="78.0001" x="45.2681" y="191.9263">&#12525;&#12464;&#12452;&#12531;&#30011;&#38754;</text><polygon fill="#A80036" points="321.3619,237.2578,331.3619,241.2578,321.3619,245.2578,325.3619,241.2578" style="stroke:#A80036;stroke-width:1.0;"/><line style="stroke:#A80036;stroke-width:1.0;" x1="28.2681" x2="327.3619" y1="241.2578" y2="241.2578"/><text fill="#000000" font-family="sans-serif" font-size="13" lengthAdjust="spacing" textLength="34.2646" x="35.2681" y="221.0591">POST</text><text fill="#000000" font-family="sans-serif" font-size="13" lengthAdjust="spacing" textLength="79.0347" x="35.2681" y="236.1919">/admin/auth</text><polygon fill="#A80036" points="490.8863,281.5234,500.8863,285.5234,490.8863,289.5234,494.8863,285.5234" style="stroke:#A80036;stroke-width:1.0;"/><line style="stroke:#A80036;stroke-width:1.0;" x1="343.3619" x2="496.8863" y1="285.5234" y2="285.5234"/><text fill="#000000" font-family="sans-serif" font-size="13" lengthAdjust="spacing" textLength="140.5244" x="350.3619" y="265.3247">loadUserByUsername</text><text fill="#000000" font-family="sans-serif" font-size="13" lengthAdjust="spacing" textLength="76.8511" x="350.3619" y="280.4575">(userName)</text><polygon fill="#A80036" points="644.0343,325.7891,654.0343,329.7891,644.0343,333.7891,648.0343,329.7891" style="stroke:#A80036;stroke-width:1.0;"/><line style="stroke:#A80036;stroke-width:1.0;" x1="512.8863" x2="650.0343" y1="329.7891" y2="329.7891"/><text fill="#000000" font-family="sans-serif" font-size="13" lengthAdjust="spacing" textLength="109.2749" x="519.8863" y="309.5903">findByUserName</text><text fill="#000000" font-family="sans-serif" font-size="13" lengthAdjust="spacing" textLength="76.8511" x="519.8863" y="324.7231">(userName)</text><polygon fill="#A80036" points="892.1983,354.9219,902.1983,358.9219,892.1983,362.9219,896.1983,358.9219" style="stroke:#A80036;stroke-width:1.0;"/><line style="stroke:#A80036;stroke-width:1.0;" x1="666.0343" x2="898.1983" y1="358.9219" y2="358.9219"/><text fill="#000000" font-family="sans-serif" font-size="13" lengthAdjust="spacing" textLength="78.7998" x="673.0343" y="353.856">SQL SELECT</text><polygon fill="#A80036" points="677.0343,384.0547,667.0343,388.0547,677.0343,392.0547,673.0343,388.0547" style="stroke:#A80036;stroke-width:1.0;"/><line style="stroke:#A80036;stroke-width:1.0;stroke-dasharray:2.0,2.0;" x1="671.0343" x2="908.1983" y1="388.0547" y2="388.0547"/><text fill="#000000" font-family="sans-serif" font-size="13" lengthAdjust="spacing" textLength="117.1016" x="683.0343" y="382.9888">EmployeeAccount</text><polygon fill="#A80036" points="523.8863,413.1875,513.8863,417.1875,523.8863,421.1875,519.8863,417.1875" style="stroke:#A80036;stroke-width:1.0;"/><line style="stroke:#A80036;stroke-width:1.0;stroke-dasharray:2.0,2.0;" x1="517.8863" x2="660.0343" y1="417.1875" y2="417.1875"/><text fill="#000000" font-family="sans-serif" font-size="13" lengthAdjust="spacing" textLength="117.1016" x="529.8863" y="412.1216">EmployeeAccount</text><polygon fill="#A80036" points="794.1436,442.3203,804.1436,446.3203,794.1436,450.3203,798.1436,446.3203" style="stroke:#A80036;stroke-width:1.0;"/><line style="stroke:#A80036;stroke-width:1.0;" x1="512.8863" x2="800.1436" y1="446.3203" y2="446.3203"/><text fill="#000000" font-family="sans-serif" font-size="13" lengthAdjust="spacing" textLength="26.8696" x="519.8863" y="441.2544">new</text><polygon fill="#A80036" points="523.8863,486.5859,513.8863,490.5859,523.8863,494.5859,519.8863,490.5859" style="stroke:#A80036;stroke-width:1.0;"/><line style="stroke:#A80036;stroke-width:1.0;stroke-dasharray:2.0,2.0;" x1="517.8863" x2="810.1436" y1="490.5859" y2="490.5859"/><text fill="#000000" font-family="sans-serif" font-size="13" lengthAdjust="spacing" textLength="117.1016" x="529.8863" y="470.3872">EmployeeAccount</text><text fill="#000000" font-family="sans-serif" font-size="13" lengthAdjust="spacing" textLength="74.6992" x="529.8863" y="485.52">UserDetails</text><polygon fill="#A80036" points="354.3619,530.8516,344.3619,534.8516,354.3619,538.8516,350.3619,534.8516" style="stroke:#A80036;stroke-width:1.0;"/><line style="stroke:#A80036;stroke-width:1.0;stroke-dasharray:2.0,2.0;" x1="348.3619" x2="506.8863" y1="534.8516" y2="534.8516"/><text fill="#000000" font-family="sans-serif" font-size="13" lengthAdjust="spacing" textLength="117.1016" x="360.3619" y="514.6528">EmployeeAccount</text><text fill="#000000" font-family="sans-serif" font-size="13" lengthAdjust="spacing" textLength="74.6992" x="360.3619" y="529.7856">UserDetails</text><line style="stroke:#A80036;stroke-width:1.0;" x1="343.3619" x2="385.3619" y1="563.9844" y2="563.9844"/><line style="stroke:#A80036;stroke-width:1.0;" x1="385.3619" x2="385.3619" y1="563.9844" y2="576.9844"/><line style="stroke:#A80036;stroke-width:1.0;" x1="344.3619" x2="385.3619" y1="576.9844" y2="576.9844"/><polygon fill="#A80036" points="354.3619,572.9844,344.3619,576.9844,354.3619,580.9844,350.3619,576.9844" style="stroke:#A80036;stroke-width:1.0;"/><text fill="#000000" font-family="sans-serif" font-size="13" lengthAdjust="spacing" textLength="104.0001" x="350.3619" y="558.9185">&#12475;&#12483;&#12471;&#12519;&#12531;&#12395;&#26684;&#32013;</text><polygon fill="#A80036" points="39.2681,602.1172,29.2681,606.1172,39.2681,610.1172,35.2681,606.1172" style="stroke:#A80036;stroke-width:1.0;"/><line style="stroke:#A80036;stroke-width:1.0;stroke-dasharray:2.0,2.0;" x1="33.2681" x2="337.3619" y1="606.1172" y2="606.1172"/><text fill="#000000" font-family="sans-serif" font-size="13" lengthAdjust="spacing" textLength="78.0001" x="45.2681" y="601.0513">&#12522;&#12480;&#12452;&#12524;&#12463;&#12488;</text><polygon fill="#A80036" points="211.441,661.5156,221.441,665.5156,211.441,669.5156,215.441,665.5156" style="stroke:#A80036;stroke-width:1.0;"/><line style="stroke:#A80036;stroke-width:1.0;" x1="28.2681" x2="217.441" y1="665.5156" y2="665.5156"/><text fill="#000000" font-family="sans-serif" font-size="13" lengthAdjust="spacing" textLength="26.2285" x="35.2681" y="630.1841">GET</text><text fill="#000000" font-family="sans-serif" font-size="13" lengthAdjust="spacing" textLength="86.6328" x="35.2681" y="645.3169">/admin/menu</text><text fill="#000000" font-family="sans-serif" font-size="13" lengthAdjust="spacing" textLength="47.2837" x="35.2681" y="660.4497">menu()</text><polygon fill="#A80036" points="34.2681,690.6484,24.2681,694.6484,34.2681,698.6484,30.2681,694.6484" style="stroke:#A80036;stroke-width:1.0;"/><line style="stroke:#A80036;stroke-width:1.0;stroke-dasharray:2.0,2.0;" x1="28.2681" x2="227.441" y1="694.6484" y2="694.6484"/><text fill="#000000" font-family="sans-serif" font-size="13" lengthAdjust="spacing" textLength="78.0001" x="40.2681" y="689.5825">&#12513;&#12491;&#12517;&#12540;&#30011;&#38754;</text><!--SRC=[ZPFFJnGn5CVl_IkQFK78XXyN4mucicoyhFXZuBQNxhH0uqmxQJjBzgRjnSHuqfiX2a498W63YJ6W_qm3g_-5hzFnnwn4kRIlxUUzldvVdtx81LPICwJ1AeWYETQRXCejBZRmEidWn72JCRpMcPk_iOZ7Uryldkzuk-ljeRTllJlrxebtHzwUUBi7oyk3Lz_S5-pj9-_ElVqG2FlvukKf8gcH2hTApLGB4us34JRva1WMLv20uIalY32urPCRNFH5HmgZP9RLNgbHsNmJlCD4UIMtqEIIGi6h4fQMYfjHHMcMDfbkNcHonDYjD9MbC7sn1dajCqDufXEcXZnbqN7uFyS7h92QmvFZJGgMrxyg2aGH9OOCY6PuUIdiq052GIZSlXc5m3CpU17VxgxsnIoXEHUpML0DnKEW8jq6wCyYZL-SVT_U_HKAL8Y1xjrDVaSYfTb4uIWGmvh89A4XpwLH60N9MLzCXJWhO4wZm04U7XlvTIveP5ScsGe2c0uYcjpluQJRwtPM4MorVuQfaf_GglQj4xkIg3CfQGmks1O2-rykZG94_rgRQz2rJ321qlRCErTrm7xu_eyFBr-VZpy-YzH4KTvvzwWgodjlZw6N6lLT-Bk-UVNPmpWrZI8p6NB7kwVUlO7-g-kCA6lqsGy0]--></g></svg>