<svg xmlns="http://www.w3.org/2000/svg" xmlns:xlink="http://www.w3.org/1999/xlink" contentStyleType="text/css" height="1707px" preserveAspectRatio="none" style="width:1288px;height:1707px;background:#FFFFFF;" version="1.1" viewBox="0 0 1288 1707" width="1288px" zoomAndPan="magnify"><defs/><g><!--entity p001_before--><g id="elem_p001_before"><rect fill="#F1F1F1" height="78.8906" rx="2.5" ry="2.5" style="stroke:#181818;stroke-width:0.5;" width="137.9996" x="103" y="868.44"/><path d="M148.9999,868.44 L148.9999,873.44 L141.9999,880.44 L103,880.44 " fill="none" style="stroke:#181818;stroke-width:0.5;"/><text fill="#000000" font-family="sans-serif" font-size="14" font-style="italic" lengthAdjust="spacing" textLength="52.2949" x="140.8523" y="901.4351">&#171;P001&#187;</text><text fill="#000000" font-family="sans-serif" font-size="14" lengthAdjust="spacing" textLength="55.9998" x="118" y="917.732">&#12513;&#12491;&#12517;&#12540;</text><text fill="#000000" font-family="sans-serif" font-size="14" lengthAdjust="spacing" textLength="97.9996" x="118" y="934.0289">&#65288;&#12525;&#12464;&#12452;&#12531;&#21069;&#65289;</text></g><!--entity p001_after--><g id="elem_p001_after"><rect fill="#F1F1F1" height="78.8906" rx="2.5" ry="2.5" style="stroke:#181818;stroke-width:0.5;" width="137.9996" x="103" y="1141.44"/><path d="M148.9999,1141.44 L148.9999,1146.44 L141.9999,1153.44 L103,1153.44 " fill="none" style="stroke:#181818;stroke-width:0.5;"/><text fill="#000000" font-family="sans-serif" font-size="14" font-style="italic" lengthAdjust="spacing" textLength="52.2949" x="140.8523" y="1174.4351">&#171;P001&#187;</text><text fill="#000000" font-family="sans-serif" font-size="14" lengthAdjust="spacing" textLength="55.9998" x="118" y="1190.732">&#12513;&#12491;&#12517;&#12540;</text><text fill="#000000" font-family="sans-serif" font-size="14" lengthAdjust="spacing" textLength="97.9996" x="118" y="1207.0289">&#65288;&#12525;&#12464;&#12452;&#12531;&#24460;&#65289;</text></g><!--entity p002--><g id="elem_p002"><rect fill="#F1F1F1" height="62.5938" rx="2.5" ry="2.5" style="stroke:#181818;stroke-width:0.5;" width="137.9996" x="103" y="1027.59"/><path d="M148.9999,1027.59 L148.9999,1032.59 L141.9999,1039.59 L103,1039.59 " fill="none" style="stroke:#181818;stroke-width:0.5;"/><text fill="#000000" font-family="sans-serif" font-size="14" font-style="italic" lengthAdjust="spacing" textLength="52.2949" x="140.8523" y="1060.5851">&#171;P002&#187;</text><text fill="#000000" font-family="sans-serif" font-size="14" lengthAdjust="spacing" textLength="97.9996" x="118" y="1076.882">&#25285;&#24403;&#32773;&#12525;&#12464;&#12452;&#12531;</text></g><!--entity p003--><g id="elem_p003"><rect fill="#F1F1F1" height="78.8906" rx="2.5" ry="2.5" style="stroke:#181818;stroke-width:0.5;" width="109.9997" x="440" y="210.44"/><path d="M476.6666,210.44 L476.6666,215.44 L469.6666,222.44 L440,222.44 " fill="none" style="stroke:#181818;stroke-width:0.5;"/><text fill="#000000" font-family="sans-serif" font-size="14" font-style="italic" lengthAdjust="spacing" textLength="52.2949" x="463.8524" y="243.4351">&#171;P003&#187;</text><text fill="#000000" font-family="sans-serif" font-size="14" lengthAdjust="spacing" textLength="69.9997" x="455" y="259.732">&#12450;&#12459;&#12454;&#12531;&#12488;</text><text fill="#000000" font-family="sans-serif" font-size="14" lengthAdjust="spacing" textLength="66.9236" x="455" y="276.0289">&#30331;&#37682;(&#20837;&#21147;)</text></g><!--entity p004--><g id="elem_p004"><rect fill="#F1F1F1" height="78.8906" rx="2.5" ry="2.5" style="stroke:#181818;stroke-width:0.5;" width="109.9997" x="691" y="146.44"/><path d="M727.6666,146.44 L727.6666,151.44 L720.6666,158.44 L691,158.44 " fill="none" style="stroke:#181818;stroke-width:0.5;"/><text fill="#000000" font-family="sans-serif" font-size="14" font-style="italic" lengthAdjust="spacing" textLength="52.2949" x="714.8524" y="179.4351">&#171;P004&#187;</text><text fill="#000000" font-family="sans-serif" font-size="14" lengthAdjust="spacing" textLength="69.9997" x="706" y="195.732">&#12450;&#12459;&#12454;&#12531;&#12488;</text><text fill="#000000" font-family="sans-serif" font-size="14" lengthAdjust="spacing" textLength="66.9236" x="706" y="212.0289">&#30331;&#37682;(&#30906;&#35469;)</text></g><!--entity p005--><g id="elem_p005"><rect fill="#F1F1F1" height="78.8906" rx="2.5" ry="2.5" style="stroke:#181818;stroke-width:0.5;" width="109.9997" x="968" y="146.44"/><path d="M1004.6666,146.44 L1004.6666,151.44 L997.6666,158.44 L968,158.44 " fill="none" style="stroke:#181818;stroke-width:0.5;"/><text fill="#000000" font-family="sans-serif" font-size="14" font-style="italic" lengthAdjust="spacing" textLength="52.2949" x="991.8524" y="179.4351">&#171;P005&#187;</text><text fill="#000000" font-family="sans-serif" font-size="14" lengthAdjust="spacing" textLength="69.9997" x="983" y="195.732">&#12450;&#12459;&#12454;&#12531;&#12488;</text><text fill="#000000" font-family="sans-serif" font-size="14" lengthAdjust="spacing" textLength="66.9236" x="983" y="212.0289">&#30331;&#37682;(&#23436;&#20102;)</text></g><!--entity p006--><g id="elem_p006"><rect fill="#F1F1F1" height="78.8906" rx="2.5" ry="2.5" style="stroke:#181818;stroke-width:0.5;" width="95.9998" x="447" y="804.44"/><path d="M478.9999,804.44 L478.9999,809.44 L471.9999,816.44 L447,816.44 " fill="none" style="stroke:#181818;stroke-width:0.5;"/><text fill="#000000" font-family="sans-serif" font-size="14" font-style="italic" lengthAdjust="spacing" textLength="52.2949" x="463.8524" y="837.4351">&#171;P006&#187;</text><text fill="#000000" font-family="sans-serif" font-size="14" lengthAdjust="spacing" textLength="55.9998" x="462" y="853.732">&#21830;&#21697;&#26908;&#32034;</text><text fill="#000000" font-family="sans-serif" font-size="14" lengthAdjust="spacing" textLength="4.4502" x="462" y="870.0289">&#160;</text></g><!--entity p007--><g id="elem_p007"><rect fill="#F1F1F1" height="78.8906" rx="2.5" ry="2.5" style="stroke:#181818;stroke-width:0.5;" width="95.9998" x="698" y="591.44"/><path d="M729.9999,591.44 L729.9999,596.44 L722.9999,603.44 L698,603.44 " fill="none" style="stroke:#181818;stroke-width:0.5;"/><text fill="#000000" font-family="sans-serif" font-size="14" font-style="italic" lengthAdjust="spacing" textLength="52.2949" x="714.8524" y="624.4351">&#171;P007&#187;</text><text fill="#000000" font-family="sans-serif" font-size="14" lengthAdjust="spacing" textLength="55.9998" x="713" y="640.732">&#21830;&#21697;&#21066;&#38500;</text><text fill="#000000" font-family="sans-serif" font-size="14" lengthAdjust="spacing" textLength="38.9237" x="713" y="657.0289">(&#30906;&#35469;)</text></g><!--entity p008--><g id="elem_p008"><rect fill="#F1F1F1" height="78.8906" rx="2.5" ry="2.5" style="stroke:#181818;stroke-width:0.5;" width="95.9998" x="975" y="482.44"/><path d="M1006.9999,482.44 L1006.9999,487.44 L999.9999,494.44 L975,494.44 " fill="none" style="stroke:#181818;stroke-width:0.5;"/><text fill="#000000" font-family="sans-serif" font-size="14" font-style="italic" lengthAdjust="spacing" textLength="52.2949" x="991.8524" y="515.4351">&#171;P008&#187;</text><text fill="#000000" font-family="sans-serif" font-size="14" lengthAdjust="spacing" textLength="55.9998" x="990" y="531.732">&#21830;&#21697;&#21066;&#38500;</text><text fill="#000000" font-family="sans-serif" font-size="14" lengthAdjust="spacing" textLength="38.9237" x="990" y="548.0289">(&#23436;&#20102;)</text></g><!--entity p009--><g id="elem_p009"><rect fill="#F1F1F1" height="78.8906" rx="2.5" ry="2.5" style="stroke:#181818;stroke-width:0.5;" width="95.9998" x="698" y="750.44"/><path d="M729.9999,750.44 L729.9999,755.44 L722.9999,762.44 L698,762.44 " fill="none" style="stroke:#181818;stroke-width:0.5;"/><text fill="#000000" font-family="sans-serif" font-size="14" font-style="italic" lengthAdjust="spacing" textLength="52.2949" x="714.8524" y="783.4351">&#171;P009&#187;</text><text fill="#000000" font-family="sans-serif" font-size="14" lengthAdjust="spacing" textLength="55.9998" x="713" y="799.732">&#21830;&#21697;&#20462;&#27491;</text><text fill="#000000" font-family="sans-serif" font-size="14" lengthAdjust="spacing" textLength="38.9237" x="713" y="816.0289">(&#20837;&#21147;)</text></g><!--entity p010--><g id="elem_p010"><rect fill="#F1F1F1" height="78.8906" rx="2.5" ry="2.5" style="stroke:#181818;stroke-width:0.5;" width="95.9998" x="975" y="701.44"/><path d="M1006.9999,701.44 L1006.9999,706.44 L999.9999,713.44 L975,713.44 " fill="none" style="stroke:#181818;stroke-width:0.5;"/><text fill="#000000" font-family="sans-serif" font-size="14" font-style="italic" lengthAdjust="spacing" textLength="52.2949" x="991.8524" y="734.4351">&#171;P010&#187;</text><text fill="#000000" font-family="sans-serif" font-size="14" lengthAdjust="spacing" textLength="55.9998" x="990" y="750.732">&#21830;&#21697;&#20462;&#27491;</text><text fill="#000000" font-family="sans-serif" font-size="14" lengthAdjust="spacing" textLength="38.9237" x="990" y="767.0289">(&#30906;&#35469;)</text></g><!--entity p011--><g id="elem_p011"><rect fill="#F1F1F1" height="78.8906" rx="2.5" ry="2.5" style="stroke:#181818;stroke-width:0.5;" width="95.9998" x="1180" y="701.44"/><path d="M1211.9999,701.44 L1211.9999,706.44 L1204.9999,713.44 L1180,713.44 " fill="none" style="stroke:#181818;stroke-width:0.5;"/><text fill="#000000" font-family="sans-serif" font-size="14" font-style="italic" lengthAdjust="spacing" textLength="52.2949" x="1196.8524" y="734.4351">&#171;P011&#187;</text><text fill="#000000" font-family="sans-serif" font-size="14" lengthAdjust="spacing" textLength="55.9998" x="1195" y="750.732">&#21830;&#21697;&#20462;&#27491;</text><text fill="#000000" font-family="sans-serif" font-size="14" lengthAdjust="spacing" textLength="38.9237" x="1195" y="767.0289">(&#23436;&#20102;)</text></g><!--entity p012--><g id="elem_p012"><rect fill="#F1F1F1" height="78.8906" rx="2.5" ry="2.5" style="stroke:#181818;stroke-width:0.5;" width="95.9998" x="698" y="979.44"/><path d="M729.9999,979.44 L729.9999,984.44 L722.9999,991.44 L698,991.44 " fill="none" style="stroke:#181818;stroke-width:0.5;"/><text fill="#000000" font-family="sans-serif" font-size="14" font-style="italic" lengthAdjust="spacing" textLength="52.2949" x="714.8524" y="1012.4351">&#171;P012&#187;</text><text fill="#000000" font-family="sans-serif" font-size="14" lengthAdjust="spacing" textLength="55.9998" x="713" y="1028.732">&#21830;&#21697;&#30331;&#37682;</text><text fill="#000000" font-family="sans-serif" font-size="14" lengthAdjust="spacing" textLength="38.9237" x="713" y="1045.0289">(&#20837;&#21147;)</text></g><!--entity p013--><g id="elem_p013"><rect fill="#F1F1F1" height="78.8906" rx="2.5" ry="2.5" style="stroke:#181818;stroke-width:0.5;" width="95.9998" x="975" y="979.44"/><path d="M1006.9999,979.44 L1006.9999,984.44 L999.9999,991.44 L975,991.44 " fill="none" style="stroke:#181818;stroke-width:0.5;"/><text fill="#000000" font-family="sans-serif" font-size="14" font-style="italic" lengthAdjust="spacing" textLength="52.2949" x="991.8524" y="1012.4351">&#171;P013&#187;</text><text fill="#000000" font-family="sans-serif" font-size="14" lengthAdjust="spacing" textLength="55.9998" x="990" y="1028.732">&#21830;&#21697;&#30331;&#37682;</text><text fill="#000000" font-family="sans-serif" font-size="14" lengthAdjust="spacing" textLength="38.9237" x="990" y="1045.0289">(&#30906;&#35469;)</text></g><!--entity p014--><g id="elem_p014"><rect fill="#F1F1F1" height="78.8906" rx="2.5" ry="2.5" style="stroke:#181818;stroke-width:0.5;" width="95.9998" x="1180" y="1034.44"/><path d="M1211.9999,1034.44 L1211.9999,1039.44 L1204.9999,1046.44 L1180,1046.44 " fill="none" style="stroke:#181818;stroke-width:0.5;"/><text fill="#000000" font-family="sans-serif" font-size="14" font-style="italic" lengthAdjust="spacing" textLength="52.2949" x="1196.8524" y="1067.4351">&#171;P014&#187;</text><text fill="#000000" font-family="sans-serif" font-size="14" lengthAdjust="spacing" textLength="55.9998" x="1195" y="1083.732">&#21830;&#21697;&#30331;&#37682;</text><text fill="#000000" font-family="sans-serif" font-size="14" lengthAdjust="spacing" textLength="38.9237" x="1195" y="1100.0289">(&#23436;&#20102;)</text></g><!--entity p015--><g id="elem_p015"><rect fill="#F1F1F1" height="62.5938" rx="2.5" ry="2.5" style="stroke:#181818;stroke-width:0.5;" width="123.9996" x="433" y="1398.59"/><path d="M474.3332,1398.59 L474.3332,1403.59 L467.3332,1410.59 L433,1410.59 " fill="none" style="stroke:#181818;stroke-width:0.5;"/><text fill="#000000" font-family="sans-serif" font-size="14" font-style="italic" lengthAdjust="spacing" textLength="52.2949" x="463.8524" y="1431.5851">&#171;P015&#187;</text><text fill="#000000" font-family="sans-serif" font-size="14" lengthAdjust="spacing" textLength="83.9996" x="448" y="1447.882">&#36092;&#20837;&#23653;&#27508;&#26908;&#32034;</text></g><!--entity p016--><g id="elem_p016"><rect fill="#F1F1F1" height="78.8906" rx="2.5" ry="2.5" style="stroke:#181818;stroke-width:0.5;" width="109.9997" x="691" y="1382.44"/><path d="M727.6666,1382.44 L727.6666,1387.44 L720.6666,1394.44 L691,1394.44 " fill="none" style="stroke:#181818;stroke-width:0.5;"/><text fill="#000000" font-family="sans-serif" font-size="14" font-style="italic" lengthAdjust="spacing" textLength="52.2949" x="714.8524" y="1415.4351">&#171;P016&#187;</text><text fill="#000000" font-family="sans-serif" font-size="14" lengthAdjust="spacing" textLength="69.9997" x="706" y="1431.732">&#37197;&#36865;&#25163;&#32154;&#12365;</text><text fill="#000000" font-family="sans-serif" font-size="14" lengthAdjust="spacing" textLength="38.9237" x="706" y="1448.0289">(&#20837;&#21147;)</text></g><!--entity p017--><g id="elem_p017"><rect fill="#F1F1F1" height="78.8906" rx="2.5" ry="2.5" style="stroke:#181818;stroke-width:0.5;" width="109.9997" x="968" y="1411.44"/><path d="M1004.6666,1411.44 L1004.6666,1416.44 L997.6666,1423.44 L968,1423.44 " fill="none" style="stroke:#181818;stroke-width:0.5;"/><text fill="#000000" font-family="sans-serif" font-size="14" font-style="italic" lengthAdjust="spacing" textLength="52.2949" x="991.8524" y="1444.4351">&#171;P017&#187;</text><text fill="#000000" font-family="sans-serif" font-size="14" lengthAdjust="spacing" textLength="69.9997" x="983" y="1460.732">&#37197;&#36865;&#25163;&#32154;&#12365;</text><text fill="#000000" font-family="sans-serif" font-size="14" lengthAdjust="spacing" textLength="38.9237" x="983" y="1477.0289">(&#30906;&#35469;)</text></g><!--entity p018--><g id="elem_p018"><rect fill="#F1F1F1" height="78.8906" rx="2.5" ry="2.5" style="stroke:#181818;stroke-width:0.5;" width="109.9997" x="1173" y="1302.44"/><path d="M1209.6666,1302.44 L1209.6666,1307.44 L1202.6666,1314.44 L1173,1314.44 " fill="none" style="stroke:#181818;stroke-width:0.5;"/><text fill="#000000" font-family="sans-serif" font-size="14" font-style="italic" lengthAdjust="spacing" textLength="52.2949" x="1196.8524" y="1335.4351">&#171;P018&#187;</text><text fill="#000000" font-family="sans-serif" font-size="14" lengthAdjust="spacing" textLength="69.9997" x="1188" y="1351.732">&#37197;&#36865;&#25163;&#32154;&#12365;</text><text fill="#000000" font-family="sans-serif" font-size="14" lengthAdjust="spacing" textLength="38.9237" x="1188" y="1368.0289">(&#23436;&#20102;)</text></g><!--entity p019--><g id="elem_p019"><rect fill="#F1F1F1" height="78.8906" rx="2.5" ry="2.5" style="stroke:#181818;stroke-width:0.5;" width="123.9996" x="433" y="1611.44"/><path d="M474.3332,1611.44 L474.3332,1616.44 L467.3332,1623.44 L433,1623.44 " fill="none" style="stroke:#181818;stroke-width:0.5;"/><text fill="#000000" font-family="sans-serif" font-size="14" font-style="italic" lengthAdjust="spacing" textLength="52.2949" x="463.8524" y="1644.4351">&#171;P019&#187;</text><text fill="#000000" font-family="sans-serif" font-size="14" lengthAdjust="spacing" textLength="83.9996" x="448" y="1660.732">&#21830;&#21697;&#12459;&#12486;&#12468;&#12522;</text><text fill="#000000" font-family="sans-serif" font-size="14" lengthAdjust="spacing" textLength="66.9236" x="448" y="1677.0289">&#30331;&#37682;(&#20837;&#21147;)</text></g><!--entity p020--><g id="elem_p020"><rect fill="#F1F1F1" height="78.8906" rx="2.5" ry="2.5" style="stroke:#181818;stroke-width:0.5;" width="123.9996" x="684" y="1572.44"/><path d="M725.3332,1572.44 L725.3332,1577.44 L718.3332,1584.44 L684,1584.44 " fill="none" style="stroke:#181818;stroke-width:0.5;"/><text fill="#000000" font-family="sans-serif" font-size="14" font-style="italic" lengthAdjust="spacing" textLength="52.2949" x="714.8524" y="1605.4351">&#171;P020&#187;</text><text fill="#000000" font-family="sans-serif" font-size="14" lengthAdjust="spacing" textLength="83.9996" x="699" y="1621.732">&#21830;&#21697;&#12459;&#12486;&#12468;&#12522;</text><text fill="#000000" font-family="sans-serif" font-size="14" lengthAdjust="spacing" textLength="66.9236" x="699" y="1638.0289">&#30331;&#37682;(&#30906;&#35469;)</text></g><!--entity p021--><g id="elem_p021"><rect fill="#F1F1F1" height="78.8906" rx="2.5" ry="2.5" style="stroke:#181818;stroke-width:0.5;" width="123.9996" x="961" y="1572.44"/><path d="M1002.3332,1572.44 L1002.3332,1577.44 L995.3332,1584.44 L961,1584.44 " fill="none" style="stroke:#181818;stroke-width:0.5;"/><text fill="#000000" font-family="sans-serif" font-size="14" font-style="italic" lengthAdjust="spacing" textLength="52.2949" x="991.8524" y="1605.4351">&#171;P021&#187;</text><text fill="#000000" font-family="sans-serif" font-size="14" lengthAdjust="spacing" textLength="83.9996" x="976" y="1621.732">&#21830;&#21697;&#12459;&#12486;&#12468;&#12522;</text><text fill="#000000" font-family="sans-serif" font-size="14" lengthAdjust="spacing" textLength="66.9236" x="976" y="1638.0289">&#30331;&#37682;(&#23436;&#20102;)</text></g><!--entity start--><g id="elem_start"><ellipse cx="172" cy="824.89" fill="#F1F1F1" rx="8" ry="8" style="stroke:#181818;stroke-width:0.5;"/><text fill="#000000" font-family="sans-serif" font-size="14" lengthAdjust="spacing" textLength="32.6074" x="155.6963" y="854.8851">start</text></g><!--link start to p001_before--><g id="link_start_p001_before"><path d="M172,834.32 C172,845.55 172,850.78 172,862.01 " fill="none" id="start-to-p001_before" style="stroke:#181818;stroke-width:1.0;"/><polygon fill="#181818" points="172,868.01,176,859.01,172,863.01,168,859.01,172,868.01" style="stroke:#181818;stroke-width:1.0;"/></g><!--link p001_before to p002--><g id="link_p001_before_p002"><path d="M172,947.55 C172,974.14 172,994.74 172,1021.33 " fill="none" id="p001_before-to-p002" style="stroke:#181818;stroke-width:1.0;"/><polygon fill="#181818" points="172,1027.33,176,1018.33,172,1022.33,168,1018.33,172,1027.33" style="stroke:#181818;stroke-width:1.0;"/></g><!--link p002 to p002--><g id="link_p002_p002"><path d="M148.43,1027.17 C143.83,1009.21 151.68,992.59 172,992.59 C192.31,992.59 201.6587,1003.3976 197.0587,1021.3576 " fill="none" id="p002-to-p002" style="stroke:#181818;stroke-width:1.0;"/><polygon fill="#181818" points="195.57,1027.17,201.678,1019.4439,196.8106,1022.3263,193.9281,1017.459,195.57,1027.17" style="stroke:#181818;stroke-width:1.0;"/><text fill="#000000" font-family="sans-serif" font-size="13" lengthAdjust="spacing" textLength="78.0001" x="133" y="983.6569">&#12525;&#12464;&#12452;&#12531;&#22833;&#25943;</text></g><!--link p002 to p001_after--><g id="link_p002_p001_after"><path d="M172,1090.59 C172,1106.07 172,1118.86 172,1135.28 " fill="none" id="p002-to-p001_after" style="stroke:#181818;stroke-width:1.0;"/><polygon fill="#181818" points="172,1141.28,176,1132.28,172,1136.28,168,1132.28,172,1141.28" style="stroke:#181818;stroke-width:1.0;"/><text fill="#000000" font-family="sans-serif" font-size="13" lengthAdjust="spacing" textLength="78.0001" x="121.5" y="1120.3769">&#12525;&#12464;&#12452;&#12531;&#25104;&#21151;</text></g><!--reverse link p001_before to p001_after--><g id="link_p001_before_p001_after"><path d="M100.7256,951.2537 C70.8656,973.2037 43.7,999.9 28.08,1036.39 C7.88,1083.59 56.74,1123.68 102.9,1149.57 " fill="none" id="p001_before-backto-p001_after" style="stroke:#181818;stroke-width:1.0;"/><polygon fill="#181818" points="105.56,947.7,95.9393,949.8077,101.5314,950.6614,100.6776,956.2535,105.56,947.7" style="stroke:#181818;stroke-width:1.0;"/><text fill="#000000" font-family="sans-serif" font-size="13" lengthAdjust="spacing" textLength="65.0001" x="7" y="1049.4569">&#12525;&#12464;&#12450;&#12454;&#12488;</text></g><!--link p001_after to p015--><g id="link_p001_after_p015"><path d="M182.92,1220.76 C195.85,1264.37 222.72,1333.2 271,1371.89 C317.04,1408.79 378.0907,1421.8136 426.6207,1426.7436 " fill="none" id="p001_after-to-p015" style="stroke:#181818;stroke-width:1.0;"/><polygon fill="#181818" points="432.59,1427.35,424.0403,1422.4609,427.6156,1426.8447,423.2318,1430.4199,432.59,1427.35" style="stroke:#181818;stroke-width:1.0;"/><text fill="#000000" font-family="sans-serif" font-size="13" lengthAdjust="spacing" textLength="52.0001" x="311" y="1367.9569">&#36092;&#20837;&#23653;&#27508;</text></g><!--link p015 to p016--><g id="link_p015_p016"><path d="M557.23,1427.92 C598.13,1426.61 645.4231,1425.082 684.7831,1423.822 " fill="none" id="p015-to-p016" style="stroke:#181818;stroke-width:1.0;"/><polygon fill="#181818" points="690.78,1423.63,681.6566,1419.92,685.7826,1423.79,681.9126,1427.9159,690.78,1423.63" style="stroke:#181818;stroke-width:1.0;"/></g><!--link p001_after to p006--><g id="link_p001_after_p006"><path d="M210.77,1141.24 C272.5,1076.43 390.1917,952.8745 451.9917,887.9945 " fill="none" id="p001_after-to-p006" style="stroke:#181818;stroke-width:1.0;"/><polygon fill="#181818" points="456.13,883.65,447.0263,887.4079,452.6814,887.2704,452.8189,892.9256,456.13,883.65" style="stroke:#181818;stroke-width:1.0;"/><text fill="#000000" font-family="sans-serif" font-size="13" lengthAdjust="spacing" textLength="130.0002" x="272" y="939.9569">&#21830;&#21697;&#24773;&#22577;&#12513;&#12531;&#12486;&#12490;&#12531;&#12473;</text></g><!--link p001_after to p003--><g id="link_p001_after_p003"><path d="M219.42,1141 C228.1,1131.11 236.01,1119.88 241,1107.89 C273.9,1028.84 221.46,407.72 271,337.89 C309.53,283.57 381.0672,263.6652 433.7572,255.7152 " fill="none" id="p001_after-to-p003" style="stroke:#181818;stroke-width:1.0;"/><polygon fill="#181818" points="439.69,254.82,430.194,252.2075,434.746,255.566,431.3875,260.118,439.69,254.82" style="stroke:#181818;stroke-width:1.0;"/><text fill="#000000" font-family="sans-serif" font-size="13" lengthAdjust="spacing" textLength="91.0001" x="291.5" y="258.9569">&#12450;&#12459;&#12454;&#12531;&#12488;&#30331;&#37682;</text></g><!--link p001_after to p019--><g id="link_p001_after_p019"><path d="M172.41,1220.69 C173.43,1295.57 186.02,1458.7 271,1556.89 C312.38,1604.7 376.3356,1627.4225 426.8356,1639.1525 " fill="none" id="p001_after-to-p019" style="stroke:#181818;stroke-width:1.0;"/><polygon fill="#181818" points="432.68,1640.51,424.8184,1634.5774,427.8097,1639.3787,423.0084,1642.37,432.68,1640.51" style="stroke:#181818;stroke-width:1.0;"/><text fill="#000000" font-family="sans-serif" font-size="13" lengthAdjust="spacing" textLength="104.0001" x="285" y="1552.9569">&#21830;&#21697;&#12459;&#12486;&#12468;&#12522;&#30331;&#37682;</text></g><!--link p019 to p019--><g id="link_p019_p019"><path d="M471.93,1611.06 C469.42,1592.58 477.11,1576.44 495,1576.44 C512.89,1576.44 521.3875,1586.6346 518.8775,1605.1146 " fill="none" id="p019-to-p019" style="stroke:#181818;stroke-width:1.0;"/><polygon fill="#181818" points="518.07,1611.06,523.2449,1602.6802,518.7429,1606.1055,515.3177,1601.6035,518.07,1611.06" style="stroke:#181818;stroke-width:1.0;"/><text fill="#000000" font-family="sans-serif" font-size="13" lengthAdjust="spacing" textLength="65.0001" x="462.5" y="1567.5069">&#20837;&#21147;&#12456;&#12521;&#12540;</text></g><!--link p019 to p020--><g id="link_p019_p020"><path d="M557.49,1635.7 C567.32,1633.56 577.41,1631.53 587,1629.89 C618.7,1624.44 648.3007,1620.8361 677.6507,1617.8561 " fill="none" id="p019-to-p020" style="stroke:#181818;stroke-width:1.0;"/><polygon fill="#181818" points="683.62,1617.25,674.262,1614.1796,678.6456,1617.7551,675.0701,1622.1387,683.62,1617.25" style="stroke:#181818;stroke-width:1.0;"/><text fill="#000000" font-family="sans-serif" font-size="13" lengthAdjust="spacing" textLength="26" x="607.5" y="1616.9569">&#30906;&#35469;</text></g><!--reverse link p019 to p020--><g id="link_p019_p020"><path d="M563.4316,1659.8299 C592.9616,1662.1499 622.67,1661.92 654,1654.89 C663.89,1652.67 673.97,1649.25 683.64,1645.28 " fill="none" id="p019-backto-p020" style="stroke:#181818;stroke-width:1.0;"/><polygon fill="#181818" points="557.45,1659.36,566.1091,1664.0526,562.4346,1659.7516,566.7356,1656.0772,557.45,1659.36" style="stroke:#181818;stroke-width:1.0;"/><text fill="#000000" font-family="sans-serif" font-size="13" lengthAdjust="spacing" textLength="26" x="607.5" y="1650.9569">&#25147;&#12427;</text></g><!--link p020 to p021--><g id="link_p020_p021"><path d="M808.37,1611.89 C853.8,1611.89 909.43,1611.89 954.81,1611.89 " fill="none" id="p020-to-p021" style="stroke:#181818;stroke-width:1.0;"/><polygon fill="#181818" points="960.81,1611.89,951.81,1607.89,955.81,1611.89,951.81,1615.89,960.81,1611.89" style="stroke:#181818;stroke-width:1.0;"/><text fill="#000000" font-family="sans-serif" font-size="13" lengthAdjust="spacing" textLength="26" x="871.5" y="1607.9569">&#30331;&#37682;</text></g><!--link p021 to p019--><g id="link_p021_p019"><path d="M960.69,1639.21 C918.66,1656.4 861.11,1676.96 808,1685.89 C721.46,1700.43 626.2062,1684.2325 563.0862,1669.1725 " fill="none" id="p021-to-p019" style="stroke:#181818;stroke-width:1.0;"/><polygon fill="#181818" points="557.25,1667.78,565.076,1673.7595,562.1135,1668.9404,566.9326,1665.9779,557.25,1667.78" style="stroke:#181818;stroke-width:1.0;"/><text fill="#000000" font-family="sans-serif" font-size="13" lengthAdjust="spacing" textLength="65.0001" x="713.5" y="1681.9569">&#20837;&#21147;&#12395;&#25147;&#12427;</text></g><!--link p021 to p001_after--><g id="link_p021_p001_after"><path d="M960.92,1594.47 C918.26,1582.58 859.88,1566.88 808,1554.89 C619.26,1511.25 314.3,1471.46 271,1431.89 C209.36,1375.55 186.9389,1281.6808 178.4689,1226.4108 " fill="none" id="p021-to-p001_after" style="stroke:#181818;stroke-width:1.0;"/><polygon fill="#181818" points="177.56,1220.48,174.9695,1229.9821,178.3174,1225.4223,182.8772,1228.7702,177.56,1220.48" style="stroke:#181818;stroke-width:1.0;"/><text fill="#000000" font-family="sans-serif" font-size="13" lengthAdjust="spacing" textLength="52.0001" x="594.5" y="1507.9569">&#26989;&#21209;&#32066;&#20102;</text></g><!--link p003 to p003--><g id="link_p003_p003"><path d="M471.93,210.06 C469.42,191.58 477.11,175.44 495,175.44 C512.89,175.44 521.3875,185.6346 518.8775,204.1146 " fill="none" id="p003-to-p003" style="stroke:#181818;stroke-width:1.0;"/><polygon fill="#181818" points="518.07,210.06,523.2449,201.6802,518.7429,205.1055,515.3177,200.6035,518.07,210.06" style="stroke:#181818;stroke-width:1.0;"/><text fill="#000000" font-family="sans-serif" font-size="13" lengthAdjust="spacing" textLength="65.0001" x="462.5" y="166.5069">&#20837;&#21147;&#12456;&#12521;&#12540;</text></g><!--link p003 to p004--><g id="link_p003_p004"><path d="M550.29,216.14 C562.03,210.15 574.64,204.64 587,200.89 C620.49,190.74 653.6347,187.2083 684.5847,185.9783 " fill="none" id="p003-to-p004" style="stroke:#181818;stroke-width:1.0;"/><polygon fill="#181818" points="690.58,185.74,681.4283,182.1005,685.5839,185.9386,681.7459,190.0942,690.58,185.74" style="stroke:#181818;stroke-width:1.0;"/><text fill="#000000" font-family="sans-serif" font-size="13" lengthAdjust="spacing" textLength="26" x="607.5" y="184.9569">&#30906;&#35469;</text></g><!--reverse link p003 to p004--><g id="link_p003_p004"><path d="M556.1109,244.5462 C586.9709,241.0062 620.16,235.71 654,225.89 C666.1,222.38 678.7,217.62 690.53,212.6 " fill="none" id="p003-backto-p004" style="stroke:#181818;stroke-width:1.0;"/><polygon fill="#181818" points="550.15,245.23,559.5472,248.1783,555.1174,244.6602,558.6355,240.2304,550.15,245.23" style="stroke:#181818;stroke-width:1.0;"/><text fill="#000000" font-family="sans-serif" font-size="13" lengthAdjust="spacing" textLength="26" x="607.5" y="221.9569">&#25147;&#12427;</text></g><!--link p004 to p005--><g id="link_p004_p005"><path d="M801.33,185.89 C849.54,185.89 913.6,185.89 961.78,185.89 " fill="none" id="p004-to-p005" style="stroke:#181818;stroke-width:1.0;"/><polygon fill="#181818" points="967.78,185.89,958.78,181.89,962.78,185.89,958.78,189.89,967.78,185.89" style="stroke:#181818;stroke-width:1.0;"/><text fill="#000000" font-family="sans-serif" font-size="13" lengthAdjust="spacing" textLength="26" x="871.5" y="181.9569">&#30331;&#37682;</text></g><!--link p005 to p003--><g id="link_p005_p003"><path d="M967.89,210.23 C925.4,227.96 864.21,250.44 808,259.89 C718.61,274.91 618.8021,266.787 556.2121,258.827 " fill="none" id="p005-to-p003" style="stroke:#181818;stroke-width:1.0;"/><polygon fill="#181818" points="550.26,258.07,558.6834,263.1735,555.22,258.7008,559.6927,255.2374,550.26,258.07" style="stroke:#181818;stroke-width:1.0;"/><text fill="#000000" font-family="sans-serif" font-size="13" lengthAdjust="spacing" textLength="65.0001" x="713.5" y="255.9569">&#20837;&#21147;&#12395;&#25147;&#12427;</text></g><!--link p005 to p001_after--><g id="link_p005_p001_after"><path d="M967.66,166.23 C819.98,116.6 412.88,6 271,237.89 C220.52,320.39 277.97,1018.51 241,1107.89 C236.03,1119.89 232.0978,1126.6205 223.4178,1136.5105 " fill="none" id="p005-to-p001_after" style="stroke:#181818;stroke-width:1.0;"/><polygon fill="#181818" points="219.46,1141.02,228.4031,1136.8942,222.7582,1137.2621,222.3904,1131.6172,219.46,1141.02" style="stroke:#181818;stroke-width:1.0;"/><text fill="#000000" font-family="sans-serif" font-size="13" lengthAdjust="spacing" textLength="52.0001" x="594.5" y="92.9569">&#26989;&#21209;&#32066;&#20102;</text></g><!--link p006 to p012--><g id="link_p006_p012"><path d="M537.18,883.55 C552.32,897.3 569.93,912.39 587,924.89 C622.41,950.81 660.1076,973.1096 692.2876,990.8796 " fill="none" id="p006-to-p012" style="stroke:#181818;stroke-width:1.0;"/><polygon fill="#181818" points="697.54,993.78,691.595,985.9278,693.163,991.363,687.7278,992.931,697.54,993.78" style="stroke:#181818;stroke-width:1.0;"/><text fill="#000000" font-family="sans-serif" font-size="13" lengthAdjust="spacing" textLength="52.0001" x="594.5" y="920.9569">&#21830;&#21697;&#30331;&#37682;</text></g><!--link p012 to p012--><g id="link_p012_p012"><path d="M722.93,979.06 C720.42,960.58 728.11,944.44 746,944.44 C763.89,944.44 772.3907,954.635 769.8707,973.115 " fill="none" id="p012-to-p012" style="stroke:#181818;stroke-width:1.0;"/><polygon fill="#181818" points="769.06,979.06,774.2393,970.683,769.7356,974.1058,766.3127,969.6021,769.06,979.06" style="stroke:#181818;stroke-width:1.0;"/><text fill="#000000" font-family="sans-serif" font-size="13" lengthAdjust="spacing" textLength="65.0001" x="713.5" y="935.5069">&#20837;&#21147;&#12456;&#12521;&#12540;</text></g><!--link p012 to p013--><g id="link_p012_p013"><path d="M794.35,1031.95 C808.29,1035.22 823.66,1038.25 838,1039.89 C879.07,1044.56 889.93,1044.56 931,1039.89 C945.34,1038.25 954.8583,1036.5893 968.8083,1033.3193 " fill="none" id="p012-to-p013" style="stroke:#181818;stroke-width:1.0;"/><polygon fill="#181818" points="974.65,1031.95,964.9746,1030.1096,969.782,1033.0911,966.8004,1037.8984,974.65,1031.95" style="stroke:#181818;stroke-width:1.0;"/><text fill="#000000" font-family="sans-serif" font-size="13" lengthAdjust="spacing" textLength="26" x="871.5" y="1035.9569">&#30906;&#35469;</text></g><!--reverse link p012 to p013--><g id="link_p012_p013"><path d="M800.27,1018.89 C850.8,1018.89 924.42,1018.89 974.88,1018.89 " fill="none" id="p012-backto-p013" style="stroke:#181818;stroke-width:1.0;"/><polygon fill="#181818" points="794.27,1018.89,803.27,1022.89,799.27,1018.89,803.27,1014.89,794.27,1018.89" style="stroke:#181818;stroke-width:1.0;"/><text fill="#000000" font-family="sans-serif" font-size="13" lengthAdjust="spacing" textLength="26" x="871.5" y="1014.9569">&#25147;&#12427;</text></g><!--link p013 to p014--><g id="link_p013_p014"><path d="M1071.34,1031.71 C1103.91,1040.54 1141.2089,1050.6405 1173.7889,1059.4705 " fill="none" id="p013-to-p014" style="stroke:#181818;stroke-width:1.0;"/><polygon fill="#181818" points="1179.58,1061.04,1171.9397,1054.825,1174.7541,1059.7321,1169.847,1062.5464,1179.58,1061.04" style="stroke:#181818;stroke-width:1.0;"/><text fill="#000000" font-family="sans-serif" font-size="13" lengthAdjust="spacing" textLength="26" x="1116" y="1040.9569">&#30331;&#37682;</text></g><!--link p014 to p006--><g id="link_p014_p006"><path d="M1179.51,1086.1 C1081.98,1108.67 853.98,1148.32 684,1075.89 C598.15,1039.31 542.6769,944.8789 515.7669,888.8289 " fill="none" id="p014-to-p006" style="stroke:#181818;stroke-width:1.0;"/><polygon fill="#181818" points="513.17,883.42,513.4593,893.2646,515.334,887.9274,520.6712,889.8021,513.17,883.42" style="stroke:#181818;stroke-width:1.0;"/><text fill="#000000" font-family="sans-serif" font-size="13" lengthAdjust="spacing" textLength="91.0001" x="839" y="1109.9569">&#21830;&#21697;&#26908;&#32034;&#12395;&#25147;&#12427;</text></g><!--link p014 to p012--><g id="link_p014_p012"><path d="M1190.97,1034.05 C1164.55,1007.98 1126.23,976.19 1085,961.89 C985.06,927.22 866.4718,965.8228 799.9418,994.1028 " fill="none" id="p014-to-p012" style="stroke:#181818;stroke-width:1.0;"/><polygon fill="#181818" points="794.42,996.45,804.2676,996.6105,799.0215,994.494,801.138,989.248,794.42,996.45" style="stroke:#181818;stroke-width:1.0;"/><text fill="#000000" font-family="sans-serif" font-size="13" lengthAdjust="spacing" textLength="65.0001" x="990.5" y="944.9569">&#20837;&#21147;&#12395;&#25147;&#12427;</text></g><!--link p014 to p001_after--><g id="link_p014_p001_after"><path d="M1179.81,1095.45 C1152.69,1106.66 1117.64,1119.18 1085,1124.89 C773.46,1179.4 400.0098,1183.0129 247.3898,1181.9229 " fill="none" id="p014-to-p001_after" style="stroke:#181818;stroke-width:1.0;"/><polygon fill="#181818" points="241.39,1181.88,250.3612,1185.9442,246.3899,1181.9157,250.4183,1177.9444,241.39,1181.88" style="stroke:#181818;stroke-width:1.0;"/><text fill="#000000" font-family="sans-serif" font-size="13" lengthAdjust="spacing" textLength="52.0001" x="720" y="1156.9569">&#26989;&#21209;&#32066;&#20102;</text></g><!--link p006 to p009--><g id="link_p006_p009"><path d="M543.42,833.6 C587.73,823.99 647.6465,811.0024 691.8865,801.4024 " fill="none" id="p006-to-p009" style="stroke:#181818;stroke-width:1.0;"/><polygon fill="#181818" points="697.75,800.13,688.1064,798.1295,692.8637,801.1903,689.8029,805.9476,697.75,800.13" style="stroke:#181818;stroke-width:1.0;"/><text fill="#000000" font-family="sans-serif" font-size="13" lengthAdjust="spacing" textLength="52.0001" x="594.5" y="806.9569">&#21830;&#21697;&#20462;&#27491;</text></g><!--link p009 to p009--><g id="link_p009_p009"><path d="M722.93,750.06 C720.42,731.58 728.11,715.44 746,715.44 C763.89,715.44 772.3907,725.635 769.8707,744.115 " fill="none" id="p009-to-p009" style="stroke:#181818;stroke-width:1.0;"/><polygon fill="#181818" points="769.06,750.06,774.2393,741.683,769.7356,745.1058,766.3127,740.6021,769.06,750.06" style="stroke:#181818;stroke-width:1.0;"/><text fill="#000000" font-family="sans-serif" font-size="13" lengthAdjust="spacing" textLength="65.0001" x="713.5" y="706.5069">&#20837;&#21147;&#12456;&#12521;&#12540;</text></g><!--link p009 to p010--><g id="link_p009_p010"><path d="M794.21,780.95 C808.29,778.32 823.76,775.45 838,772.89 C884.43,764.51 931.6062,756.3332 968.7862,749.9632 " fill="none" id="p009-to-p010" style="stroke:#181818;stroke-width:1.0;"/><polygon fill="#181818" points="974.7,748.95,965.1538,746.5273,969.7718,749.7943,966.5047,754.4124,974.7,748.95" style="stroke:#181818;stroke-width:1.0;"/><text fill="#000000" font-family="sans-serif" font-size="13" lengthAdjust="spacing" textLength="26" x="871.5" y="753.9569">&#30906;&#35469;</text></g><!--reverse link p009 to p010--><g id="link_p009_p010"><path d="M800.4007,801.1024 C838.1507,807.3024 885.98,810.82 931,797.89 C946.23,793.51 961.38,785.76 974.82,777.35 " fill="none" id="p009-backto-p010" style="stroke:#181818;stroke-width:1.0;"/><polygon fill="#181818" points="794.48,800.13,802.7127,805.5357,799.4139,800.9403,804.0093,797.6415,794.48,800.13" style="stroke:#181818;stroke-width:1.0;"/><text fill="#000000" font-family="sans-serif" font-size="13" lengthAdjust="spacing" textLength="26" x="871.5" y="793.9569">&#25147;&#12427;</text></g><!--link p010 to p011--><g id="link_p010_p011"><path d="M1071.34,740.89 C1103.91,740.89 1141,740.89 1173.58,740.89 " fill="none" id="p010-to-p011" style="stroke:#181818;stroke-width:1.0;"/><polygon fill="#181818" points="1179.58,740.89,1170.58,736.89,1174.58,740.89,1170.58,744.89,1179.58,740.89" style="stroke:#181818;stroke-width:1.0;"/><text fill="#000000" font-family="sans-serif" font-size="13" lengthAdjust="spacing" textLength="26" x="1116" y="736.9569">&#20462;&#27491;</text></g><!--link p011 to p006--><g id="link_p011_p006"><path d="M1179.72,762.14 C1152.43,773.83 1117.23,787.93 1085,797.89 C913.44,850.86 863.54,848.32 684,846.89 C636.02,846.5 587.1489,845.6836 549.1289,844.9636 " fill="none" id="p011-to-p006" style="stroke:#181818;stroke-width:1.0;"/><polygon fill="#181818" points="543.13,844.85,552.0527,849.0197,548.1291,844.9447,552.2041,841.0211,543.13,844.85" style="stroke:#181818;stroke-width:1.0;"/><text fill="#000000" font-family="sans-serif" font-size="13" lengthAdjust="spacing" textLength="91.0001" x="839" y="833.9569">&#21830;&#21697;&#26908;&#32034;&#12395;&#25147;&#12427;</text></g><!--link p011 to p001_after--><g id="link_p011_p001_after"><path d="M1224.11,701.25 C1214.7,604.46 1176.02,363.89 1024,363.89 C494,363.89 494,363.89 494,363.89 C285,363.89 331.24,577.76 271,777.89 C228.55,918.91 301.09,973.43 241,1107.89 C235.63,1119.91 231.4306,1126.7306 222.5906,1136.7006 " fill="none" id="p011-to-p001_after" style="stroke:#181818;stroke-width:1.0;"/><polygon fill="#181818" points="218.61,1141.19,227.5738,1137.1096,221.9272,1137.4488,221.5879,1131.8021,218.61,1141.19" style="stroke:#181818;stroke-width:1.0;"/><text fill="#000000" font-family="sans-serif" font-size="13" lengthAdjust="spacing" textLength="52.0001" x="720" y="359.9569">&#26989;&#21209;&#32066;&#20102;</text></g><!--link p006 to p007--><g id="link_p006_p007"><path d="M542.54,804.07 C587.16,765.9 649.5806,712.5102 694.1206,674.4102 " fill="none" id="p006-to-p007" style="stroke:#181818;stroke-width:1.0;"/><polygon fill="#181818" points="698.68,670.51,689.2407,673.3207,694.8805,673.7602,694.441,679.3999,698.68,670.51" style="stroke:#181818;stroke-width:1.0;"/><text fill="#000000" font-family="sans-serif" font-size="13" lengthAdjust="spacing" textLength="52.0001" x="594.5" y="708.9569">&#21830;&#21697;&#21066;&#38500;</text></g><!--reverse link p006 to p007--><g id="link_p006_p007"><path d="M512.4309,798.4863 C526.7709,763.4163 549.9,718.79 587,687.89 C618.82,661.39 663.95,646.75 697.84,638.96 " fill="none" id="p006-backto-p007" style="stroke:#181818;stroke-width:1.0;"/><polygon fill="#181818" points="510.16,804.04,517.2687,797.2234,512.0524,799.4119,509.8639,794.1956,510.16,804.04" style="stroke:#181818;stroke-width:1.0;"/><text fill="#000000" font-family="sans-serif" font-size="13" lengthAdjust="spacing" textLength="65.0001" x="588" y="649.9569">&#12461;&#12515;&#12531;&#12475;&#12523;</text></g><!--link p007 to p008--><g id="link_p007_p008"><path d="M794.37,615.31 C831.82,602.66 885.23,583.86 931,564.89 C945.37,558.93 955.3179,554.4892 969.2679,547.8792 " fill="none" id="p007-to-p008" style="stroke:#181818;stroke-width:1.0;"/><polygon fill="#181818" points="974.69,545.31,964.844,545.549,970.1716,547.451,968.2696,552.7785,974.69,545.31" style="stroke:#181818;stroke-width:1.0;"/><text fill="#000000" font-family="sans-serif" font-size="13" lengthAdjust="spacing" textLength="26" x="871.5" y="560.9569">&#21066;&#38500;</text></g><!--link p008 to p006--><g id="link_p008_p006"><path d="M974.77,517.81 C884.4,512.89 687.1,516.52 587,628.89 C541.44,680.04 517.8381,751.5324 506.0681,798.1724 " fill="none" id="p008-to-p006" style="stroke:#181818;stroke-width:1.0;"/><polygon fill="#181818" points="504.6,803.99,510.6806,796.2423,505.8234,799.142,502.9238,794.2848,504.6,803.99" style="stroke:#181818;stroke-width:1.0;"/><text fill="#000000" font-family="sans-serif" font-size="13" lengthAdjust="spacing" textLength="91.0001" x="700.5" y="522.9569">&#21830;&#21697;&#26908;&#32034;&#12395;&#25147;&#12427;</text></g><!--link p008 to p001_after--><g id="link_p008_p001_after"><path d="M974.96,503.86 C961.02,499.35 945.58,495.15 931,492.89 C822.45,476.01 786.87,463.37 684,501.89 C439.72,593.36 384.85,684.2 271,918.89 C233.88,995.41 278.28,1031.44 241,1107.89 C235.15,1119.88 230.6727,1126.7903 221.6727,1136.8403 " fill="none" id="p008-to-p001_after" style="stroke:#181818;stroke-width:1.0;"/><polygon fill="#181818" points="217.67,1141.31,226.6539,1137.2739,221.0056,1137.5852,220.6943,1131.937,217.67,1141.31" style="stroke:#181818;stroke-width:1.0;"/><text fill="#000000" font-family="sans-serif" font-size="13" lengthAdjust="spacing" textLength="52.0001" x="594.5" y="510.9569">&#26989;&#21209;&#32066;&#20102;</text></g><!--link p001_after to p016--><g id="link_p001_after_p016"><path d="M201.88,1220.73 C219.59,1242.54 244,1268.4 271,1284.89 C307.42,1307.13 568.482,1376.2343 685.012,1406.4443 " fill="none" id="p001_after-to-p016" style="stroke:#181818;stroke-width:1.0;"/><polygon fill="#181818" points="690.82,1407.95,683.1118,1401.8194,685.98,1406.6952,681.1042,1409.5634,690.82,1407.95" style="stroke:#181818;stroke-width:1.0;"/><text fill="#000000" font-family="sans-serif" font-size="13" lengthAdjust="spacing" textLength="65.0001" x="462.5" y="1335.9569">&#37197;&#36865;&#25163;&#32154;&#12365;</text></g><!--link p016 to p016--><g id="link_p016_p016"><path d="M722.93,1382.06 C720.42,1363.58 728.11,1347.44 746,1347.44 C763.89,1347.44 772.3907,1357.635 769.8707,1376.115 " fill="none" id="p016-to-p016" style="stroke:#181818;stroke-width:1.0;"/><polygon fill="#181818" points="769.06,1382.06,774.2393,1373.683,769.7356,1377.1058,766.3127,1372.6021,769.06,1382.06" style="stroke:#181818;stroke-width:1.0;"/><text fill="#000000" font-family="sans-serif" font-size="13" lengthAdjust="spacing" textLength="65.0001" x="713.5" y="1338.5069">&#20837;&#21147;&#12456;&#12521;&#12540;</text></g><!--link p016 to p017--><g id="link_p016_p017"><path d="M801.45,1445.81 C813.28,1449.99 825.88,1453.7 838,1455.89 C881.08,1463.67 924.7772,1462.2604 961.6372,1458.7404 " fill="none" id="p016-to-p017" style="stroke:#181818;stroke-width:1.0;"/><polygon fill="#181818" points="967.61,1458.17,958.2705,1455.0437,962.6326,1458.6453,959.031,1463.0075,967.61,1458.17" style="stroke:#181818;stroke-width:1.0;"/><text fill="#000000" font-family="sans-serif" font-size="13" lengthAdjust="spacing" textLength="26" x="871.5" y="1451.9569">&#30906;&#35469;</text></g><!--reverse link p016 to p017--><g id="link_p016_p017"><path d="M807.4815,1424.5784 C844.1715,1426.5284 887.61,1429.56 931,1434.89 C942.94,1436.36 955.69,1438.34 967.76,1440.4 " fill="none" id="p016-backto-p017" style="stroke:#181818;stroke-width:1.0;"/><polygon fill="#181818" points="801.49,1424.26,810.265,1428.732,806.483,1424.5254,810.6896,1420.7433,801.49,1424.26" style="stroke:#181818;stroke-width:1.0;"/><text fill="#000000" font-family="sans-serif" font-size="13" lengthAdjust="spacing" textLength="26" x="871.5" y="1422.9569">&#25147;&#12427;</text></g><!--link p017 to p018--><g id="link_p017_p018"><path d="M1078.4,1421.68 C1107.64,1405.98 1138.3035,1389.5078 1167.5135,1373.8278 " fill="none" id="p017-to-p018" style="stroke:#181818;stroke-width:1.0;"/><polygon fill="#181818" points="1172.8,1370.99,1162.9784,1371.7224,1168.3946,1373.3548,1166.7621,1378.771,1172.8,1370.99" style="stroke:#181818;stroke-width:1.0;"/><text fill="#000000" font-family="sans-serif" font-size="13" lengthAdjust="spacing" textLength="26" x="1116" y="1385.9569">&#30331;&#37682;</text></g><!--link p018 to p016--><g id="link_p018_p016"><path d="M1172.69,1349.16 C1097.34,1359.5 956.89,1379.68 838,1401.89 C826.07,1404.12 819.1832,1405.4762 807.1232,1408.0962 " fill="none" id="p018-to-p016" style="stroke:#181818;stroke-width:1.0;"/><polygon fill="#181818" points="801.26,1409.37,810.904,1411.3682,806.146,1408.3085,809.2057,1403.5505,801.26,1409.37" style="stroke:#181818;stroke-width:1.0;"/><text fill="#000000" font-family="sans-serif" font-size="13" lengthAdjust="spacing" textLength="65.0001" x="990.5" y="1358.9569">&#20837;&#21147;&#12395;&#25147;&#12427;</text></g><!--link p018 to p001_after--><g id="link_p018_p001_after"><path d="M1172.5,1333.56 C995.48,1306.52 442.7412,1222.096 247.2712,1192.236 " fill="none" id="p018-to-p001_after" style="stroke:#181818;stroke-width:1.0;"/><polygon fill="#181818" points="241.34,1191.33,249.6328,1196.6432,246.2827,1192.085,250.8408,1188.7349,241.34,1191.33" style="stroke:#181818;stroke-width:1.0;"/><text fill="#000000" font-family="sans-serif" font-size="13" lengthAdjust="spacing" textLength="52.0001" x="720" y="1256.9569">&#26989;&#21209;&#32066;&#20102;</text></g><!--SRC=[bLNBRjD05DtFLuow0HQHFCuxgleDV40aP5gdjMYToZ5YszXAbKSZ8LKLAY01QOAWLIfA2n9jW8-PscbM_GNi6NiyOpjfM2M-zvovvyuzlcwyqFHTnL1sO6DBsQY_qlHDM5Es6ohOLcicDElGq3QtJBYX6UgwgTLryAZ1A3jrlRw-PTHtL6WQBrK0QbvKXIlO_eJj7hP7s9vKzVj96zjZR7t3rX3RbqwdVp_fh42b0NSb2JrxhjRgXWfNLvzwJsjhovtnvq0uGwcPgf4umksrdD-7TtijdXgIP0gNkOhM05jdsFhieR3ThkhJuvlPmVV7JclaTDyz2ObPIim-J9mEhkzE-uoOeyJS4XNF3swlznanJudvYEWSxJk7JNVuVdergEeXha1nXJZEwNHdnyEg7XTKfFZYN7nCHudYIt7yxTzpTtpYuyMRAbDyUIvUr8CaWaVI_FC5FGXHF8hZwIqcz20wSYJFnSVqq4cZxFppHJrqm8WRyDtbnDTmCNB7LtHQ8PRE574pdRNwixscs-bDVxx5pNvIFXqlAYoYn3gW4qR5XLN49kYGKMB8lb7jVMnTOVjqpgk1wC1HUIckA5McmvUbvUeAccLg1Dat0j1qRnNKb7KLDap5C04WFp1ZQ9arVk40Vlcmh0m0sGsPu15MeB1tXXVkqPi04fr8ruy8TTkldUu7mEKpsweeWMCCo19e0m5Fq9vJAf3t4I2n85b8ONXxe0A33M6td8yNP9LU-hTeT_q_rgyKKjPN8-uZUjafaigi03-T00u8W4SIas3h2xQ_UikSptjJhq1g11fUpMJ2iDk-mLOFaAS0ZNnqACfxIXPfdaMqCCyDo1sDdTxnz8VbkOVSN9PlFoaqokTueVutW0WbOLRHUmhGULweb4yfmWcDyWk45i9cPNRth02IXMJokba-Arot77H1mamE2dj6ERuBb4kn5rbfV2yCnKj9oo_JgnJvZ7u208dnoUJ4cFK4QqcXjP1WBHHQ2_dMOaKGMgfNz3-z5Db9zFDAau6DYkJb6sFxXBoVDzW-0oGSa4i-cT5AowYBK0lKnTvh_xpO1mAGC9TFiHVB5mLxXTsHS7HhOLEe9DYhb5A4l-m7sla7]--></g></svg>