<?xml version="1.0" encoding="us-ascii" standalone="no"?><svg xmlns="http://www.w3.org/2000/svg" xmlns:xlink="http://www.w3.org/1999/xlink" contentStyleType="text/css" height="1711px" preserveAspectRatio="none" style="width:1289px;height:1711px;background:#FFFFFF;" version="1.1" viewBox="0 0 1289 1711" width="1289px" zoomAndPan="magnify"><defs/><g><!--entity p001_before--><g id="elem_p001_before"><rect fill="#F1F1F1" height="78.8906" rx="2.5" ry="2.5" style="stroke:#181818;stroke-width:0.5;" width="138" x="103" y="871.55"/><path d="M149,871.55 L149,876.55 L142,883.55 L103,883.55 " fill="none" style="stroke:#181818;stroke-width:0.5;"/><text fill="#000000" font-family="sans-serif" font-size="14" font-style="italic" lengthAdjust="spacing" textLength="53" x="140.5" y="904.5451">&#171;P001&#187;</text><text fill="#000000" font-family="sans-serif" font-size="14" lengthAdjust="spacing" textLength="56" x="118" y="920.842">&#12513;&#12491;&#12517;&#12540;</text><text fill="#000000" font-family="sans-serif" font-size="14" lengthAdjust="spacing" textLength="98" x="118" y="937.1389">&#65288;&#12525;&#12464;&#12452;&#12531;&#21069;&#65289;</text></g><!--entity p001_after--><g id="elem_p001_after"><rect fill="#F1F1F1" height="78.8906" rx="2.5" ry="2.5" style="stroke:#181818;stroke-width:0.5;" width="138" x="103" y="1145.55"/><path d="M149,1145.55 L149,1150.55 L142,1157.55 L103,1157.55 " fill="none" style="stroke:#181818;stroke-width:0.5;"/><text fill="#000000" font-family="sans-serif" font-size="14" font-style="italic" lengthAdjust="spacing" textLength="53" x="140.5" y="1178.5451">&#171;P001&#187;</text><text fill="#000000" font-family="sans-serif" font-size="14" lengthAdjust="spacing" textLength="56" x="118" y="1194.842">&#12513;&#12491;&#12517;&#12540;</text><text fill="#000000" font-family="sans-serif" font-size="14" lengthAdjust="spacing" textLength="98" x="118" y="1211.1389">&#65288;&#12525;&#12464;&#12452;&#12531;&#24460;&#65289;</text></g><!--entity p002--><g id="elem_p002"><rect fill="#F1F1F1" height="62.5938" rx="2.5" ry="2.5" style="stroke:#181818;stroke-width:0.5;" width="138" x="103" y="1030.55"/><path d="M149,1030.55 L149,1035.55 L142,1042.55 L103,1042.55 " fill="none" style="stroke:#181818;stroke-width:0.5;"/><text fill="#000000" font-family="sans-serif" font-size="14" font-style="italic" lengthAdjust="spacing" textLength="53" x="140.5" y="1063.5451">&#171;P002&#187;</text><text fill="#000000" font-family="sans-serif" font-size="14" lengthAdjust="spacing" textLength="98" x="118" y="1079.842">&#25285;&#24403;&#32773;&#12525;&#12464;&#12452;&#12531;</text></g><!--entity p003--><g id="elem_p003"><rect fill="#F1F1F1" height="78.8906" rx="2.5" ry="2.5" style="stroke:#181818;stroke-width:0.5;" width="110" x="440" y="210.55"/><path d="M476.6667,210.55 L476.6667,215.55 L469.6667,222.55 L440,222.55 " fill="none" style="stroke:#181818;stroke-width:0.5;"/><text fill="#000000" font-family="sans-serif" font-size="14" font-style="italic" lengthAdjust="spacing" textLength="53" x="463.5" y="243.5451">&#171;P003&#187;</text><text fill="#000000" font-family="sans-serif" font-size="14" lengthAdjust="spacing" textLength="70" x="455" y="259.842">&#12450;&#12459;&#12454;&#12531;&#12488;</text><text fill="#000000" font-family="sans-serif" font-size="14" lengthAdjust="spacing" textLength="66" x="455" y="276.1389">&#30331;&#37682;(&#20837;&#21147;)</text></g><!--entity p004--><g id="elem_p004"><rect fill="#F1F1F1" height="78.8906" rx="2.5" ry="2.5" style="stroke:#181818;stroke-width:0.5;" width="110" x="691" y="145.55"/><path d="M727.6667,145.55 L727.6667,150.55 L720.6667,157.55 L691,157.55 " fill="none" style="stroke:#181818;stroke-width:0.5;"/><text fill="#000000" font-family="sans-serif" font-size="14" font-style="italic" lengthAdjust="spacing" textLength="53" x="714.5" y="178.5451">&#171;P004&#187;</text><text fill="#000000" font-family="sans-serif" font-size="14" lengthAdjust="spacing" textLength="70" x="706" y="194.842">&#12450;&#12459;&#12454;&#12531;&#12488;</text><text fill="#000000" font-family="sans-serif" font-size="14" lengthAdjust="spacing" textLength="66" x="706" y="211.1389">&#30331;&#37682;(&#30906;&#35469;)</text></g><!--entity p005--><g id="elem_p005"><rect fill="#F1F1F1" height="78.8906" rx="2.5" ry="2.5" style="stroke:#181818;stroke-width:0.5;" width="110" x="968" y="145.55"/><path d="M1004.6667,145.55 L1004.6667,150.55 L997.6667,157.55 L968,157.55 " fill="none" style="stroke:#181818;stroke-width:0.5;"/><text fill="#000000" font-family="sans-serif" font-size="14" font-style="italic" lengthAdjust="spacing" textLength="53" x="991.5" y="178.5451">&#171;P005&#187;</text><text fill="#000000" font-family="sans-serif" font-size="14" lengthAdjust="spacing" textLength="70" x="983" y="194.842">&#12450;&#12459;&#12454;&#12531;&#12488;</text><text fill="#000000" font-family="sans-serif" font-size="14" lengthAdjust="spacing" textLength="66" x="983" y="211.1389">&#30331;&#37682;(&#23436;&#20102;)</text></g><!--entity p006--><g id="elem_p006"><rect fill="#F1F1F1" height="78.8906" rx="2.5" ry="2.5" style="stroke:#181818;stroke-width:0.5;" width="96" x="447" y="806.55"/><path d="M479,806.55 L479,811.55 L472,818.55 L447,818.55 " fill="none" style="stroke:#181818;stroke-width:0.5;"/><text fill="#000000" font-family="sans-serif" font-size="14" font-style="italic" lengthAdjust="spacing" textLength="53" x="463.5" y="839.5451">&#171;P006&#187;</text><text fill="#000000" font-family="sans-serif" font-size="14" lengthAdjust="spacing" textLength="56" x="462" y="855.842">&#21830;&#21697;&#26908;&#32034;</text><text fill="#000000" font-family="sans-serif" font-size="14" lengthAdjust="spacing" textLength="4" x="462" y="872.1389">&#160;</text></g><!--entity p007--><g id="elem_p007"><rect fill="#F1F1F1" height="78.8906" rx="2.5" ry="2.5" style="stroke:#181818;stroke-width:0.5;" width="96" x="698" y="592.55"/><path d="M730,592.55 L730,597.55 L723,604.55 L698,604.55 " fill="none" style="stroke:#181818;stroke-width:0.5;"/><text fill="#000000" font-family="sans-serif" font-size="14" font-style="italic" lengthAdjust="spacing" textLength="53" x="714.5" y="625.5451">&#171;P007&#187;</text><text fill="#000000" font-family="sans-serif" font-size="14" lengthAdjust="spacing" textLength="56" x="713" y="641.842">&#21830;&#21697;&#21066;&#38500;</text><text fill="#000000" font-family="sans-serif" font-size="14" lengthAdjust="spacing" textLength="38" x="713" y="658.1389">(&#30906;&#35469;)</text></g><!--entity p008--><g id="elem_p008"><rect fill="#F1F1F1" height="78.8906" rx="2.5" ry="2.5" style="stroke:#181818;stroke-width:0.5;" width="96" x="975" y="482.55"/><path d="M1007,482.55 L1007,487.55 L1000,494.55 L975,494.55 " fill="none" style="stroke:#181818;stroke-width:0.5;"/><text fill="#000000" font-family="sans-serif" font-size="14" font-style="italic" lengthAdjust="spacing" textLength="53" x="991.5" y="515.5451">&#171;P008&#187;</text><text fill="#000000" font-family="sans-serif" font-size="14" lengthAdjust="spacing" textLength="56" x="990" y="531.842">&#21830;&#21697;&#21066;&#38500;</text><text fill="#000000" font-family="sans-serif" font-size="14" lengthAdjust="spacing" textLength="38" x="990" y="548.1389">(&#23436;&#20102;)</text></g><!--entity p009--><g id="elem_p009"><rect fill="#F1F1F1" height="78.8906" rx="2.5" ry="2.5" style="stroke:#181818;stroke-width:0.5;" width="96" x="698" y="751.55"/><path d="M730,751.55 L730,756.55 L723,763.55 L698,763.55 " fill="none" style="stroke:#181818;stroke-width:0.5;"/><text fill="#000000" font-family="sans-serif" font-size="14" font-style="italic" lengthAdjust="spacing" textLength="53" x="714.5" y="784.5451">&#171;P009&#187;</text><text fill="#000000" font-family="sans-serif" font-size="14" lengthAdjust="spacing" textLength="56" x="713" y="800.842">&#21830;&#21697;&#20462;&#27491;</text><text fill="#000000" font-family="sans-serif" font-size="14" lengthAdjust="spacing" textLength="38" x="713" y="817.1389">(&#20837;&#21147;)</text></g><!--entity p010--><g id="elem_p010"><rect fill="#F1F1F1" height="78.8906" rx="2.5" ry="2.5" style="stroke:#181818;stroke-width:0.5;" width="96" x="975" y="702.55"/><path d="M1007,702.55 L1007,707.55 L1000,714.55 L975,714.55 " fill="none" style="stroke:#181818;stroke-width:0.5;"/><text fill="#000000" font-family="sans-serif" font-size="14" font-style="italic" lengthAdjust="spacing" textLength="53" x="991.5" y="735.5451">&#171;P010&#187;</text><text fill="#000000" font-family="sans-serif" font-size="14" lengthAdjust="spacing" textLength="56" x="990" y="751.842">&#21830;&#21697;&#20462;&#27491;</text><text fill="#000000" font-family="sans-serif" font-size="14" lengthAdjust="spacing" textLength="38" x="990" y="768.1389">(&#30906;&#35469;)</text></g><!--entity p011--><g id="elem_p011"><rect fill="#F1F1F1" height="78.8906" rx="2.5" ry="2.5" style="stroke:#181818;stroke-width:0.5;" width="96" x="1180" y="702.55"/><path d="M1212,702.55 L1212,707.55 L1205,714.55 L1180,714.55 " fill="none" style="stroke:#181818;stroke-width:0.5;"/><text fill="#000000" font-family="sans-serif" font-size="14" font-style="italic" lengthAdjust="spacing" textLength="53" x="1196.5" y="735.5451">&#171;P011&#187;</text><text fill="#000000" font-family="sans-serif" font-size="14" lengthAdjust="spacing" textLength="56" x="1195" y="751.842">&#21830;&#21697;&#20462;&#27491;</text><text fill="#000000" font-family="sans-serif" font-size="14" lengthAdjust="spacing" textLength="38" x="1195" y="768.1389">(&#23436;&#20102;)</text></g><!--entity p012--><g id="elem_p012"><rect fill="#F1F1F1" height="78.8906" rx="2.5" ry="2.5" style="stroke:#181818;stroke-width:0.5;" width="96" x="698" y="982.55"/><path d="M730,982.55 L730,987.55 L723,994.55 L698,994.55 " fill="none" style="stroke:#181818;stroke-width:0.5;"/><text fill="#000000" font-family="sans-serif" font-size="14" font-style="italic" lengthAdjust="spacing" textLength="53" x="714.5" y="1015.5451">&#171;P012&#187;</text><text fill="#000000" font-family="sans-serif" font-size="14" lengthAdjust="spacing" textLength="56" x="713" y="1031.842">&#21830;&#21697;&#30331;&#37682;</text><text fill="#000000" font-family="sans-serif" font-size="14" lengthAdjust="spacing" textLength="38" x="713" y="1048.1389">(&#20837;&#21147;)</text></g><!--entity p013--><g id="elem_p013"><rect fill="#F1F1F1" height="78.8906" rx="2.5" ry="2.5" style="stroke:#181818;stroke-width:0.5;" width="96" x="975" y="982.55"/><path d="M1007,982.55 L1007,987.55 L1000,994.55 L975,994.55 " fill="none" style="stroke:#181818;stroke-width:0.5;"/><text fill="#000000" font-family="sans-serif" font-size="14" font-style="italic" lengthAdjust="spacing" textLength="53" x="991.5" y="1015.5451">&#171;P013&#187;</text><text fill="#000000" font-family="sans-serif" font-size="14" lengthAdjust="spacing" textLength="56" x="990" y="1031.842">&#21830;&#21697;&#30331;&#37682;</text><text fill="#000000" font-family="sans-serif" font-size="14" lengthAdjust="spacing" textLength="38" x="990" y="1048.1389">(&#30906;&#35469;)</text></g><!--entity p014--><g id="elem_p014"><rect fill="#F1F1F1" height="78.8906" rx="2.5" ry="2.5" style="stroke:#181818;stroke-width:0.5;" width="96" x="1180" y="1037.55"/><path d="M1212,1037.55 L1212,1042.55 L1205,1049.55 L1180,1049.55 " fill="none" style="stroke:#181818;stroke-width:0.5;"/><text fill="#000000" font-family="sans-serif" font-size="14" font-style="italic" lengthAdjust="spacing" textLength="53" x="1196.5" y="1070.5451">&#171;P014&#187;</text><text fill="#000000" font-family="sans-serif" font-size="14" lengthAdjust="spacing" textLength="56" x="1195" y="1086.842">&#21830;&#21697;&#30331;&#37682;</text><text fill="#000000" font-family="sans-serif" font-size="14" lengthAdjust="spacing" textLength="38" x="1195" y="1103.1389">(&#23436;&#20102;)</text></g><!--entity p015--><g id="elem_p015"><rect fill="#F1F1F1" height="62.5938" rx="2.5" ry="2.5" style="stroke:#181818;stroke-width:0.5;" width="124" x="433" y="1403.55"/><path d="M474.3333,1403.55 L474.3333,1408.55 L467.3333,1415.55 L433,1415.55 " fill="none" style="stroke:#181818;stroke-width:0.5;"/><text fill="#000000" font-family="sans-serif" font-size="14" font-style="italic" lengthAdjust="spacing" textLength="53" x="463.5" y="1436.5451">&#171;P015&#187;</text><text fill="#000000" font-family="sans-serif" font-size="14" lengthAdjust="spacing" textLength="84" x="448" y="1452.842">&#36092;&#20837;&#23653;&#27508;&#26908;&#32034;</text></g><!--entity p016--><g id="elem_p016"><rect fill="#F1F1F1" height="78.8906" rx="2.5" ry="2.5" style="stroke:#181818;stroke-width:0.5;" width="110" x="691" y="1387.55"/><path d="M727.6667,1387.55 L727.6667,1392.55 L720.6667,1399.55 L691,1399.55 " fill="none" style="stroke:#181818;stroke-width:0.5;"/><text fill="#000000" font-family="sans-serif" font-size="14" font-style="italic" lengthAdjust="spacing" textLength="53" x="714.5" y="1420.5451">&#171;P016&#187;</text><text fill="#000000" font-family="sans-serif" font-size="14" lengthAdjust="spacing" textLength="70" x="706" y="1436.842">&#37197;&#36865;&#25163;&#32154;&#12365;</text><text fill="#000000" font-family="sans-serif" font-size="14" lengthAdjust="spacing" textLength="38" x="706" y="1453.1389">(&#20837;&#21147;)</text></g><!--entity p017--><g id="elem_p017"><rect fill="#F1F1F1" height="78.8906" rx="2.5" ry="2.5" style="stroke:#181818;stroke-width:0.5;" width="110" x="968" y="1417.55"/><path d="M1004.6667,1417.55 L1004.6667,1422.55 L997.6667,1429.55 L968,1429.55 " fill="none" style="stroke:#181818;stroke-width:0.5;"/><text fill="#000000" font-family="sans-serif" font-size="14" font-style="italic" lengthAdjust="spacing" textLength="53" x="991.5" y="1450.5451">&#171;P017&#187;</text><text fill="#000000" font-family="sans-serif" font-size="14" lengthAdjust="spacing" textLength="70" x="983" y="1466.842">&#37197;&#36865;&#25163;&#32154;&#12365;</text><text fill="#000000" font-family="sans-serif" font-size="14" lengthAdjust="spacing" textLength="38" x="983" y="1483.1389">(&#30906;&#35469;)</text></g><!--entity p018--><g id="elem_p018"><rect fill="#F1F1F1" height="78.8906" rx="2.5" ry="2.5" style="stroke:#181818;stroke-width:0.5;" width="110" x="1173" y="1307.55"/><path d="M1209.6667,1307.55 L1209.6667,1312.55 L1202.6667,1319.55 L1173,1319.55 " fill="none" style="stroke:#181818;stroke-width:0.5;"/><text fill="#000000" font-family="sans-serif" font-size="14" font-style="italic" lengthAdjust="spacing" textLength="53" x="1196.5" y="1340.5451">&#171;P018&#187;</text><text fill="#000000" font-family="sans-serif" font-size="14" lengthAdjust="spacing" textLength="70" x="1188" y="1356.842">&#37197;&#36865;&#25163;&#32154;&#12365;</text><text fill="#000000" font-family="sans-serif" font-size="14" lengthAdjust="spacing" textLength="38" x="1188" y="1373.1389">(&#23436;&#20102;)</text></g><!--entity p019--><g id="elem_p019"><rect fill="#F1F1F1" height="78.8906" rx="2.5" ry="2.5" style="stroke:#181818;stroke-width:0.5;" width="124" x="433" y="1618.55"/><path d="M474.3333,1618.55 L474.3333,1623.55 L467.3333,1630.55 L433,1630.55 " fill="none" style="stroke:#181818;stroke-width:0.5;"/><text fill="#000000" font-family="sans-serif" font-size="14" font-style="italic" lengthAdjust="spacing" textLength="53" x="463.5" y="1651.5451">&#171;P019&#187;</text><text fill="#000000" font-family="sans-serif" font-size="14" lengthAdjust="spacing" textLength="84" x="448" y="1667.842">&#21830;&#21697;&#12459;&#12486;&#12468;&#12522;</text><text fill="#000000" font-family="sans-serif" font-size="14" lengthAdjust="spacing" textLength="66" x="448" y="1684.1389">&#30331;&#37682;(&#20837;&#21147;)</text></g><!--entity p020--><g id="elem_p020"><rect fill="#F1F1F1" height="78.8906" rx="2.5" ry="2.5" style="stroke:#181818;stroke-width:0.5;" width="124" x="684" y="1576.55"/><path d="M725.3333,1576.55 L725.3333,1581.55 L718.3333,1588.55 L684,1588.55 " fill="none" style="stroke:#181818;stroke-width:0.5;"/><text fill="#000000" font-family="sans-serif" font-size="14" font-style="italic" lengthAdjust="spacing" textLength="53" x="714.5" y="1609.5451">&#171;P020&#187;</text><text fill="#000000" font-family="sans-serif" font-size="14" lengthAdjust="spacing" textLength="84" x="699" y="1625.842">&#21830;&#21697;&#12459;&#12486;&#12468;&#12522;</text><text fill="#000000" font-family="sans-serif" font-size="14" lengthAdjust="spacing" textLength="66" x="699" y="1642.1389">&#30331;&#37682;(&#30906;&#35469;)</text></g><!--entity p021--><g id="elem_p021"><rect fill="#F1F1F1" height="78.8906" rx="2.5" ry="2.5" style="stroke:#181818;stroke-width:0.5;" width="124" x="961" y="1576.55"/><path d="M1002.3333,1576.55 L1002.3333,1581.55 L995.3333,1588.55 L961,1588.55 " fill="none" style="stroke:#181818;stroke-width:0.5;"/><text fill="#000000" font-family="sans-serif" font-size="14" font-style="italic" lengthAdjust="spacing" textLength="53" x="991.5" y="1609.5451">&#171;P021&#187;</text><text fill="#000000" font-family="sans-serif" font-size="14" lengthAdjust="spacing" textLength="84" x="976" y="1625.842">&#21830;&#21697;&#12459;&#12486;&#12468;&#12522;</text><text fill="#000000" font-family="sans-serif" font-size="14" lengthAdjust="spacing" textLength="66" x="976" y="1642.1389">&#30331;&#37682;(&#23436;&#20102;)</text></g><!--entity start--><g id="elem_start"><ellipse cx="172" cy="827.05" fill="#F1F1F1" rx="8" ry="8" style="stroke:#181818;stroke-width:0.5;"/><text fill="#000000" font-family="sans-serif" font-size="14" lengthAdjust="spacing" textLength="35" x="154.5" y="857.0451">start</text></g><!--link start to p001_before--><g id="link_start_p001_before"><path d="M172,836.394 C172,846.315 172,856.237 172,866.159 " fill="none" id="start-to-p001_before" style="stroke:#181818;stroke-width:1.0;"/><polygon fill="#181818" points="172,871.347,176,862.347,172,866.347,168,862.347,172,871.347" style="stroke:#181818;stroke-width:1.0;"/></g><!--link p001_before to p002--><g id="link_p001_before_p002"><path d="M172,950.709 C172,975.538 172,1000.366 172,1025.195 " fill="none" id="p001_before-to-p002" style="stroke:#181818;stroke-width:1.0;"/><polygon fill="#181818" points="172,1030.493,176,1021.493,172,1025.493,168,1021.493,172,1030.493" style="stroke:#181818;stroke-width:1.0;"/></g><!--link p002 to p002--><g id="link_p002_p002"><path d="M148.52,1030.234 C143.935,1012.224 151.762,995.55 172,995.55 C190.341,995.55 198.488,1009.244 196.442,1025.217 " fill="none" id="p002-to-p002" style="stroke:#181818;stroke-width:1.0;"/><polygon fill="#181818" points="195.48,1030.234,201.1032,1022.1482,196.4215,1025.3234,193.2463,1020.6418,195.48,1030.234" style="stroke:#181818;stroke-width:1.0;"/><text fill="#000000" font-family="sans-serif" font-size="13" lengthAdjust="spacing" textLength="78" x="133" y="986.6169">&#12525;&#12464;&#12452;&#12531;&#22833;&#25943;</text></g><!--link p002 to p001_after--><g id="link_p002_p001_after"><path d="M172,1093.783 C172,1107.943 172,1124.877 172,1140.292 " fill="none" id="p002-to-p001_after" style="stroke:#181818;stroke-width:1.0;"/><polygon fill="#181818" points="172,1145.455,176,1136.455,172,1140.455,168,1136.455,172,1145.455" style="stroke:#181818;stroke-width:1.0;"/><text fill="#000000" font-family="sans-serif" font-size="13" lengthAdjust="spacing" textLength="78" x="121.5" y="1124.1169">&#12525;&#12464;&#12452;&#12531;&#25104;&#21151;</text></g><!--reverse link p001_before to p001_after--><g id="link_p001_before_p001_after"><path d="M98.485,945.095 C53.2497,971.349 7.5227,1010.832 28,1056.55 C44.2989,1092.939 76.56,1123.264 106.422,1145.3 " fill="none" id="p001_before-backto-p001_after" style="stroke:#181818;stroke-width:1.0;"/><polygon fill="#181818" points="102.859,942.595,93.0604,943.5883,98.518,945.0762,97.0302,950.5338,102.859,942.595" style="stroke:#181818;stroke-width:1.0;"/><text fill="#000000" font-family="sans-serif" font-size="13" lengthAdjust="spacing" textLength="65" x="7" y="1052.6169">&#12525;&#12464;&#12450;&#12454;&#12488;</text></g><!--link p001_after to p015--><g id="link_p001_after_p015"><path d="M182.95,1224.889 C195.906,1268.465 222.803,1337.259 271,1376.05 C315.399,1411.784 379.35,1426.022 427.394,1431.62 " fill="none" id="p001_after-to-p015" style="stroke:#181818;stroke-width:1.0;"/><polygon fill="#181818" points="432.58,1432.198,424.079,1427.2248,427.6108,1431.6436,423.192,1435.1755,432.58,1432.198" style="stroke:#181818;stroke-width:1.0;"/><text fill="#000000" font-family="sans-serif" font-size="13" lengthAdjust="spacing" textLength="52" x="311" y="1372.1169">&#36092;&#20837;&#23653;&#27508;</text></g><!--link p015 to p016--><g id="link_p015_p016"><path d="M557.231,1433.083 C596.369,1431.825 646.868,1430.203 685.637,1428.957 " fill="none" id="p015-to-p016" style="stroke:#181818;stroke-width:1.0;"/><polygon fill="#181818" points="690.786,1428.792,681.6616,1425.0846,685.7886,1428.9534,681.9198,1433.0804,690.786,1428.792" style="stroke:#181818;stroke-width:1.0;"/></g><!--link p001_after to p006--><g id="link_p001_after_p006"><path d="M210.451,1145.499 C271.015,1081.539 389.999,955.882 452.851,889.506 " fill="none" id="p001_after-to-p006" style="stroke:#181818;stroke-width:1.0;"/><polygon fill="#181818" points="456.54,885.611,447.4474,889.3959,453.1022,889.2416,453.2564,894.8964,456.54,885.611" style="stroke:#181818;stroke-width:1.0;"/><text fill="#000000" font-family="sans-serif" font-size="13" lengthAdjust="spacing" textLength="130" x="272" y="942.1169">&#21830;&#21697;&#24773;&#22577;&#12513;&#12531;&#12486;&#12490;&#12531;&#12473;</text></g><!--link p001_after to p003--><g id="link_p001_after_p003"><path d="M218.736,1145.325 C227.688,1135.115 235.88,1123.471 241,1111.05 C273.756,1031.583 221.278,408.16 271,338.05 C308.319,285.43 382.197,264.27 434.683,255.76 " fill="none" id="p001_after-to-p003" style="stroke:#181818;stroke-width:1.0;"/><polygon fill="#181818" points="439.693,254.98,430.1831,252.4183,434.753,255.7524,431.419,260.3223,439.693,254.98" style="stroke:#181818;stroke-width:1.0;"/><text fill="#000000" font-family="sans-serif" font-size="13" lengthAdjust="spacing" textLength="91" x="291.5" y="259.1169">&#12450;&#12459;&#12454;&#12531;&#12488;&#30331;&#37682;</text></g><!--link p001_after to p019--><g id="link_p001_after_p019"><path d="M172.376,1224.737 C173.311,1299.829 185.736,1464.026 271,1563.05 C311.019,1609.5271 377.75,1633.8754 427.807,1646.2272 " fill="none" id="p001_after-to-p019" style="stroke:#181818;stroke-width:1.0;"/><polygon fill="#181818" points="432.903,1647.4577,425.0941,1641.456,428.0428,1646.2835,423.2153,1649.2322,432.903,1647.4577" style="stroke:#181818;stroke-width:1.0;"/><text fill="#000000" font-family="sans-serif" font-size="13" lengthAdjust="spacing" textLength="104" x="285" y="1559.1169">&#21830;&#21697;&#12459;&#12486;&#12468;&#12522;&#30331;&#37682;</text></g><!--link p019 to p019--><g id="link_p019_p019"><path d="M472.21,1618.1936 C469.724,1599.7044 477.32,1583.55 495,1583.55 C511.022,1583.55 518.763,1596.817 518.224,1613.0665 " fill="none" id="p019-to-p019" style="stroke:#181818;stroke-width:1.0;"/><polygon fill="#181818" points="517.79,1618.1936,522.534,1609.5626,518.2112,1613.2114,514.5624,1608.8886,517.79,1618.1936" style="stroke:#181818;stroke-width:1.0;"/><text fill="#000000" font-family="sans-serif" font-size="13" lengthAdjust="spacing" textLength="65" x="462.5" y="1574.6169">&#20837;&#21147;&#12456;&#12521;&#12540;</text></g><!--link p019 to p020--><g id="link_p019_p020"><path d="M557.023,1643.1319 C567.008,1640.932 577.268,1638.8155 587,1637.05 C616.861,1631.6326 650.136,1627.0026 678.418,1623.4798 " fill="none" id="p019-to-p020" style="stroke:#181818;stroke-width:1.0;"/><polygon fill="#181818" points="683.639,1622.8349,674.2166,1619.9682,678.6767,1623.4478,675.1972,1627.9079,683.639,1622.8349" style="stroke:#181818;stroke-width:1.0;"/><text fill="#000000" font-family="sans-serif" font-size="13" lengthAdjust="spacing" textLength="26" x="607.5" y="1622.1169">&#30906;&#35469;</text></g><!--reverse link p019 to p020--><g id="link_p019_p020"><path d="M562.428,1667.2649 C590.966,1669.2974 624.475,1669.0882 654,1662.05 C663.988,1659.6691 674.121,1656.0059 683.82,1651.7636 " fill="none" id="p019-backto-p020" style="stroke:#181818;stroke-width:1.0;"/><polygon fill="#181818" points="557.16,1666.8604,565.8273,1671.5378,562.1453,1667.2433,566.4399,1663.5613,557.16,1666.8604" style="stroke:#181818;stroke-width:1.0;"/><text fill="#000000" font-family="sans-serif" font-size="13" lengthAdjust="spacing" textLength="26" x="607.5" y="1658.1169">&#25147;&#12427;</text></g><!--link p020 to p021--><g id="link_p020_p021"><path d="M808.031,1616.05 C851.76,1616.05 910.618,1616.05 955.535,1616.05 " fill="none" id="p020-to-p021" style="stroke:#181818;stroke-width:1.0;"/><polygon fill="#181818" points="960.664,1616.05,951.664,1612.05,955.664,1616.05,951.664,1620.05,960.664,1616.05" style="stroke:#181818;stroke-width:1.0;"/><text fill="#000000" font-family="sans-serif" font-size="13" lengthAdjust="spacing" textLength="26" x="871.5" y="1612.1169">&#30331;&#37682;</text></g><!--link p021 to p019--><g id="link_p021_p019"><path d="M960.696,1643.3694 C918.666,1660.5607 861.112,1681.1263 808,1690.05 C723.741,1704.2069 625.557,1688.987 562.174,1675.084 " fill="none" id="p021-to-p019" style="stroke:#181818;stroke-width:1.0;"/><polygon fill="#181818" points="557.292,1674.0006,565.2121,1679.8549,562.1733,1675.0835,566.9447,1672.0448,557.292,1674.0006" style="stroke:#181818;stroke-width:1.0;"/><text fill="#000000" font-family="sans-serif" font-size="13" lengthAdjust="spacing" textLength="65" x="713.5" y="1686.1169">&#20837;&#21147;&#12395;&#25147;&#12427;</text></g><!--link p021 to p001_after--><g id="link_p021_p001_after"><path d="M960.935,1598.5889 C918.277,1586.685 859.897,1570.98 808,1559.05 C640.413,1520.524 321.594,1481.756 271,1435.05 C211.814,1380.412 187.879,1285.642 178.572,1229.804 " fill="none" id="p021-to-p001_after" style="stroke:#181818;stroke-width:1.0;"/><polygon fill="#181818" points="177.768,1224.857,175.2626,1234.3819,178.5696,1229.7923,183.1591,1233.0993,177.768,1224.857" style="stroke:#181818;stroke-width:1.0;"/><text fill="#000000" font-family="sans-serif" font-size="13" lengthAdjust="spacing" textLength="52" x="594.5" y="1513.1169">&#26989;&#21209;&#32066;&#20102;</text></g><!--link p003 to p003--><g id="link_p003_p003"><path d="M472.21,210.19 C469.724,191.7 477.32,175.55 495,175.55 C511.022,175.55 518.763,188.82 518.224,205.07 " fill="none" id="p003-to-p003" style="stroke:#181818;stroke-width:1.0;"/><polygon fill="#181818" points="517.79,210.19,522.5467,201.566,518.2186,205.2084,514.5762,200.8803,517.79,210.19" style="stroke:#181818;stroke-width:1.0;"/><text fill="#000000" font-family="sans-serif" font-size="13" lengthAdjust="spacing" textLength="65" x="462.5" y="166.6169">&#20837;&#21147;&#12456;&#12521;&#12540;</text></g><!--link p003 to p004--><g id="link_p003_p004"><path d="M550.311,216.37 C562.046,210.37 574.648,204.84 587,201.05 C618.771,191.31 655.649,187.2 685.782,185.57 " fill="none" id="p003-to-p004" style="stroke:#181818;stroke-width:1.0;"/><polygon fill="#181818" points="690.941,185.31,681.7525,181.7644,685.9472,185.5597,682.152,189.7544,690.941,185.31" style="stroke:#181818;stroke-width:1.0;"/><text fill="#000000" font-family="sans-serif" font-size="13" lengthAdjust="spacing" textLength="26" x="607.5" y="185.1169">&#30906;&#35469;</text></g><!--reverse link p003 to p004--><g id="link_p003_p004"><path d="M555.319,244.91 C585.322,241.34 622.053,235.48 654,226.05 C666.132,222.47 678.745,217.6 690.577,212.46 " fill="none" id="p003-backto-p004" style="stroke:#181818;stroke-width:1.0;"/><polygon fill="#181818" points="550.182,245.51,559.5832,248.4455,555.1486,244.9334,558.6607,240.4988,550.182,245.51" style="stroke:#181818;stroke-width:1.0;"/><text fill="#000000" font-family="sans-serif" font-size="13" lengthAdjust="spacing" textLength="26" x="607.5" y="222.1169">&#25147;&#12427;</text></g><!--link p004 to p005--><g id="link_p004_p005"><path d="M801.003,185.05 C847.487,185.05 914.46,185.05 962.479,185.05 " fill="none" id="p004-to-p005" style="stroke:#181818;stroke-width:1.0;"/><polygon fill="#181818" points="967.651,185.05,958.651,181.05,962.651,185.05,958.651,189.05,967.651,185.05" style="stroke:#181818;stroke-width:1.0;"/><text fill="#000000" font-family="sans-serif" font-size="13" lengthAdjust="spacing" textLength="26" x="871.5" y="181.1169">&#30331;&#37682;</text></g><!--link p005 to p003--><g id="link_p005_p003"><path d="M967.896,209.4 C925.402,227.12 864.213,249.61 808,259.05 C721.065,273.66 618.63,266.07 555.499,258.59 " fill="none" id="p005-to-p003" style="stroke:#181818;stroke-width:1.0;"/><polygon fill="#181818" points="550.269,257.96,558.726,263.0077,555.2331,258.558,559.6828,255.0651,550.269,257.96" style="stroke:#181818;stroke-width:1.0;"/><text fill="#000000" font-family="sans-serif" font-size="13" lengthAdjust="spacing" textLength="65" x="713.5" y="255.1169">&#20837;&#21147;&#12395;&#25147;&#12427;</text></g><!--link p005 to p001_after--><g id="link_p005_p001_after"><path d="M967.923,165.57 C820.47,116.23 412.961,6 271,238.05 C220.35,320.84 277.789,1021.235 241,1111.05 C236.544,1121.928 229.724,1132.206 222.092,1141.446 " fill="none" id="p005-to-p001_after" style="stroke:#181818;stroke-width:1.0;"/><polygon fill="#181818" points="218.776,1145.341,227.6561,1141.0814,222.0174,1141.5339,221.5648,1135.8952,218.776,1145.341" style="stroke:#181818;stroke-width:1.0;"/><text fill="#000000" font-family="sans-serif" font-size="13" lengthAdjust="spacing" textLength="52" x="594.5" y="92.1169">&#26989;&#21209;&#32066;&#20102;</text></g><!--link p006 to p012--><g id="link_p006_p012"><path d="M537.213,885.663 C552.352,899.414 569.964,914.515 587,927.05 C620.91,952 661.684,976.39 693.317,994.209 " fill="none" id="p006-to-p012" style="stroke:#181818;stroke-width:1.0;"/><polygon fill="#181818" points="697.916,996.79,692.0255,988.8968,693.5558,994.3428,688.1099,995.8731,697.916,996.79" style="stroke:#181818;stroke-width:1.0;"/><text fill="#000000" font-family="sans-serif" font-size="13" lengthAdjust="spacing" textLength="52" x="594.5" y="923.1169">&#21830;&#21697;&#30331;&#37682;</text></g><!--link p012 to p012--><g id="link_p012_p012"><path d="M723.21,982.194 C720.724,963.704 728.32,947.55 746,947.55 C762.022,947.55 769.763,960.817 769.224,977.066 " fill="none" id="p012-to-p012" style="stroke:#181818;stroke-width:1.0;"/><polygon fill="#181818" points="768.79,982.194,773.5345,973.5632,769.2115,977.2118,765.5629,972.8888,768.79,982.194" style="stroke:#181818;stroke-width:1.0;"/><text fill="#000000" font-family="sans-serif" font-size="13" lengthAdjust="spacing" textLength="65" x="713.5" y="938.6169">&#20837;&#21147;&#12456;&#12521;&#12540;</text></g><!--link p012 to p013--><g id="link_p012_p013"><path d="M794.347,1035.116 C808.295,1038.381 823.662,1041.417 838,1043.05 C879.068,1047.727 889.932,1047.727 931,1043.05 C943.657,1041.608 957.117,1039.074 969.695,1036.252 " fill="none" id="p012-to-p013" style="stroke:#181818;stroke-width:1.0;"/><polygon fill="#181818" points="974.65,1035.116,964.9839,1033.2277,969.7764,1036.233,966.7711,1041.0255,974.65,1035.116" style="stroke:#181818;stroke-width:1.0;"/><text fill="#000000" font-family="sans-serif" font-size="13" lengthAdjust="spacing" textLength="26" x="871.5" y="1039.1169">&#30906;&#35469;</text></g><!--reverse link p012 to p013--><g id="link_p012_p013"><path d="M799.401,1022.05 C850.053,1022.05 926.096,1022.05 974.88,1022.05 " fill="none" id="p012-backto-p013" style="stroke:#181818;stroke-width:1.0;"/><polygon fill="#181818" points="794.274,1022.05,803.274,1026.05,799.274,1022.05,803.274,1018.05,794.274,1022.05" style="stroke:#181818;stroke-width:1.0;"/><text fill="#000000" font-family="sans-serif" font-size="13" lengthAdjust="spacing" textLength="26" x="871.5" y="1018.1169">&#25147;&#12427;</text></g><!--link p013 to p014--><g id="link_p013_p014"><path d="M1071.08,1034.806 C1102.1,1043.21 1142.75,1054.223 1174.76,1062.896 " fill="none" id="p013-to-p014" style="stroke:#181818;stroke-width:1.0;"/><polygon fill="#181818" points="1179.82,1064.268,1172.1703,1058.0646,1174.9921,1062.9674,1170.0893,1065.7893,1179.82,1064.268" style="stroke:#181818;stroke-width:1.0;"/><text fill="#000000" font-family="sans-serif" font-size="13" lengthAdjust="spacing" textLength="26" x="1116" y="1043.1169">&#30331;&#37682;</text></g><!--link p014 to p006--><g id="link_p014_p006"><path d="M1179.82,1089.314 C1082.39,1112.116 853.844,1152.404 684,1079.05 C600.458,1042.969 543.254,947.261 515.436,890.36 " fill="none" id="p014-to-p006" style="stroke:#181818;stroke-width:1.0;"/><polygon fill="#181818" points="513.16,885.655,513.4789,895.4987,515.3376,890.1559,520.6804,892.0146,513.16,885.655" style="stroke:#181818;stroke-width:1.0;"/><text fill="#000000" font-family="sans-serif" font-size="13" lengthAdjust="spacing" textLength="91" x="839" y="1113.1169">&#21830;&#21697;&#26908;&#32034;&#12395;&#25147;&#12427;</text></g><!--link p014 to p012--><g id="link_p014_p012"><path d="M1191.25,1037.495 C1164.83,1011.373 1126.38,979.405 1085,965.05 C987.27,931.147 866.421,969.566 798.909,997.723 " fill="none" id="p014-to-p012" style="stroke:#181818;stroke-width:1.0;"/><polygon fill="#181818" points="794.142,999.731,803.989,999.9233,798.7498,997.7899,800.8832,992.5507,794.142,999.731" style="stroke:#181818;stroke-width:1.0;"/><text fill="#000000" font-family="sans-serif" font-size="13" lengthAdjust="spacing" textLength="65" x="990.5" y="947.1169">&#20837;&#21147;&#12395;&#25147;&#12427;</text></g><!--link p014 to p001_after--><g id="link_p014_p001_after"><path d="M1179.75,1098.087 C1152.62,1109.04 1117.56,1121.316 1085,1127.05 C776.936,1181.301 402.436,1186.39 246.563,1185.864 " fill="none" id="p014-to-p001_after" style="stroke:#181818;stroke-width:1.0;"/><polygon fill="#181818" points="241.11,1185.843,250.0951,1189.8764,246.11,1185.8616,250.1248,1181.8765,241.11,1185.843" style="stroke:#181818;stroke-width:1.0;"/><text fill="#000000" font-family="sans-serif" font-size="13" lengthAdjust="spacing" textLength="52" x="720" y="1158.1169">&#26989;&#21209;&#32066;&#20102;</text></g><!--link p006 to p009--><g id="link_p006_p009"><path d="M543.128,835.64 C585.756,826.224 648.435,812.38 692.618,802.62 " fill="none" id="p006-to-p009" style="stroke:#181818;stroke-width:1.0;"/><polygon fill="#181818" points="697.642,801.511,687.9911,799.5464,692.7597,802.5895,689.7166,807.3581,697.642,801.511" style="stroke:#181818;stroke-width:1.0;"/><text fill="#000000" font-family="sans-serif" font-size="13" lengthAdjust="spacing" textLength="52" x="594.5" y="807.1169">&#21830;&#21697;&#20462;&#27491;</text></g><!--link p009 to p009--><g id="link_p009_p009"><path d="M723.21,751.194 C720.724,732.704 728.32,716.55 746,716.55 C762.022,716.55 769.763,729.817 769.224,746.066 " fill="none" id="p009-to-p009" style="stroke:#181818;stroke-width:1.0;"/><polygon fill="#181818" points="768.79,751.194,773.5345,742.5632,769.2115,746.2118,765.5629,741.8888,768.79,751.194" style="stroke:#181818;stroke-width:1.0;"/><text fill="#000000" font-family="sans-serif" font-size="13" lengthAdjust="spacing" textLength="65" x="713.5" y="707.6169">&#20837;&#21147;&#12456;&#12521;&#12540;</text></g><!--link p009 to p010--><g id="link_p009_p010"><path d="M794.21,782.115 C808.292,779.481 823.765,776.617 838,774.05 C882.251,766.069 932.556,757.344 969.369,751.024 " fill="none" id="p009-to-p010" style="stroke:#181818;stroke-width:1.0;"/><polygon fill="#181818" points="974.7,750.109,965.153,747.6892,969.7721,750.9549,966.5064,755.5739,974.7,750.109" style="stroke:#181818;stroke-width:1.0;"/><text fill="#000000" font-family="sans-serif" font-size="13" lengthAdjust="spacing" textLength="26" x="871.5" y="754.1169">&#30906;&#35469;</text></g><!--reverse link p009 to p010--><g id="link_p009_p010"><path d="M799.053,802.019 C836.482,807.825 887.766,811.472 931,799.05 C946.229,794.674 961.378,786.92 974.82,778.514 " fill="none" id="p009-backto-p010" style="stroke:#181818;stroke-width:1.0;"/><polygon fill="#181818" points="794.097,801.225,802.3504,806.5991,799.034,802.0164,803.6167,798.6999,794.097,801.225" style="stroke:#181818;stroke-width:1.0;"/><text fill="#000000" font-family="sans-serif" font-size="13" lengthAdjust="spacing" textLength="26" x="871.5" y="795.1169">&#25147;&#12427;</text></g><!--link p010 to p011--><g id="link_p010_p011"><path d="M1071.08,742.05 C1102.1,742.05 1142.75,742.05 1174.76,742.05 " fill="none" id="p010-to-p011" style="stroke:#181818;stroke-width:1.0;"/><polygon fill="#181818" points="1179.82,742.05,1170.82,738.05,1174.82,742.05,1170.82,746.05,1179.82,742.05" style="stroke:#181818;stroke-width:1.0;"/><text fill="#000000" font-family="sans-serif" font-size="13" lengthAdjust="spacing" textLength="26" x="1116" y="738.1169">&#20462;&#27491;</text></g><!--link p011 to p006--><g id="link_p011_p006"><path d="M1179.75,763.377 C1152.47,775.091 1117.27,789.196 1085,799.05 C965.429,835.567 932.761,839.969 808,848.05 C753.004,851.612 739.11,848.343 684,848.05 C638.268,847.807 586.281,847.231 548.584,846.759 " fill="none" id="p011-to-p006" style="stroke:#181818;stroke-width:1.0;"/><polygon fill="#181818" points="543.129,846.69,552.078,850.8028,548.1286,846.7529,552.1786,842.8034,543.129,846.69" style="stroke:#181818;stroke-width:1.0;"/><text fill="#000000" font-family="sans-serif" font-size="13" lengthAdjust="spacing" textLength="91" x="839" y="833.1169">&#21830;&#21697;&#26908;&#32034;&#12395;&#25147;&#12427;</text></g><!--link p011 to p001_after--><g id="link_p011_p001_after"><path d="M1224.15,702.312 C1214.83,605.26 1176.33,364.05 1024,364.05 C494,364.05 494,364.05 494,364.05 C285.005,364.05 331.156,577.9 271,778.05 C228.228,920.361 301.119,975.155 241,1111.05 C236.182,1121.94 229.1,1132.283 221.304,1141.597 " fill="none" id="p011-to-p001_after" style="stroke:#181818;stroke-width:1.0;"/><polygon fill="#181818" points="217.923,1145.524,226.8262,1141.3129,221.1851,1141.7347,220.7633,1136.0936,217.923,1145.524" style="stroke:#181818;stroke-width:1.0;"/><text fill="#000000" font-family="sans-serif" font-size="13" lengthAdjust="spacing" textLength="52" x="720" y="360.1169">&#26989;&#21209;&#32066;&#20102;</text></g><!--link p006 to p007--><g id="link_p006_p007"><path d="M541.961,806.55 C585.337,769.27 650.213,713.514 694.897,675.11 " fill="none" id="p006-to-p007" style="stroke:#181818;stroke-width:1.0;"/><polygon fill="#181818" points="698.886,671.68,689.4507,674.5042,695.0911,674.9356,694.6597,680.576,698.886,671.68" style="stroke:#181818;stroke-width:1.0;"/><text fill="#000000" font-family="sans-serif" font-size="13" lengthAdjust="spacing" textLength="52" x="594.5" y="709.1169">&#21830;&#21697;&#21066;&#38500;</text></g><!--reverse link p006 to p007--><g id="link_p006_p007"><path d="M511.601,801.666 C526.097,766.376 550.918,718.1 587,688.05 C618.755,661.6 663.895,647.27 697.801,639.74 " fill="none" id="p006-backto-p007" style="stroke:#181818;stroke-width:1.0;"/><polygon fill="#181818" points="509.711,806.338,516.7947,799.4954,511.5864,801.703,509.3788,796.4947,509.711,806.338" style="stroke:#181818;stroke-width:1.0;"/><text fill="#000000" font-family="sans-serif" font-size="13" lengthAdjust="spacing" textLength="65" x="588" y="650.1169">&#12461;&#12515;&#12531;&#12475;&#12523;</text></g><!--link p007 to p008--><g id="link_p007_p008"><path d="M794.35,616.16 C831.788,603.27 885.193,584.16 931,565.05 C943.782,559.72 957.373,553.56 970.047,547.61 " fill="none" id="p007-to-p008" style="stroke:#181818;stroke-width:1.0;"/><polygon fill="#181818" points="974.67,545.43,964.824,545.6682,970.1514,547.5706,968.249,552.898,974.67,545.43" style="stroke:#181818;stroke-width:1.0;"/><text fill="#000000" font-family="sans-serif" font-size="13" lengthAdjust="spacing" textLength="26" x="871.5" y="561.1169">&#21066;&#38500;</text></g><!--link p008 to p006--><g id="link_p008_p006"><path d="M974.82,518.02 C884.525,513.16 687.351,516.9 587,629.05 C542.449,678.84 517.681,753.572 505.602,801.062 " fill="none" id="p008-to-p006" style="stroke:#181818;stroke-width:1.0;"/><polygon fill="#181818" points="504.332,806.142,510.3954,798.3809,505.5447,801.2913,502.6343,796.4406,504.332,806.142" style="stroke:#181818;stroke-width:1.0;"/><text fill="#000000" font-family="sans-serif" font-size="13" lengthAdjust="spacing" textLength="91" x="700.5" y="523.1169">&#21830;&#21697;&#26908;&#32034;&#12395;&#25147;&#12427;</text></g><!--link p008 to p001_after--><g id="link_p008_p001_after"><path d="M974.97,504.02 C961.024,499.51 945.582,495.32 931,493.05 C822.454,476.17 786.875,463.53 684,502.05 C439.124,593.74 384.687,685.58 271,921.05 C233.83,998.037 278.177,1034.066 241,1111.05 C235.822,1121.773 228.571,1132.038 220.722,1141.328 " fill="none" id="p008-to-p001_after" style="stroke:#181818;stroke-width:1.0;"/><polygon fill="#181818" points="217.325,1145.247,226.2418,1141.0649,220.5994,1141.4683,220.1959,1135.8259,217.325,1145.247" style="stroke:#181818;stroke-width:1.0;"/><text fill="#000000" font-family="sans-serif" font-size="13" lengthAdjust="spacing" textLength="52" x="594.5" y="511.1169">&#26989;&#21209;&#32066;&#20102;</text></g><!--link p001_after to p016--><g id="link_p001_after_p016"><path d="M201.686,1224.618 C219.415,1246.474 243.915,1272.474 271,1289.05 C306.917,1311.032 567.032,1380.591 685.953,1411.725 " fill="none" id="p001_after-to-p016" style="stroke:#181818;stroke-width:1.0;"/><polygon fill="#181818" points="690.816,1412.997,683.1217,1406.849,685.9789,1411.7313,681.0966,1414.5884,690.816,1412.997" style="stroke:#181818;stroke-width:1.0;"/><text fill="#000000" font-family="sans-serif" font-size="13" lengthAdjust="spacing" textLength="65" x="462.5" y="1339.1169">&#37197;&#36865;&#25163;&#32154;&#12365;</text></g><!--link p016 to p016--><g id="link_p016_p016"><path d="M723.21,1387.194 C720.724,1368.704 728.32,1352.55 746,1352.55 C762.022,1352.55 769.763,1365.817 769.224,1382.066 " fill="none" id="p016-to-p016" style="stroke:#181818;stroke-width:1.0;"/><polygon fill="#181818" points="768.79,1387.194,773.5345,1378.5632,769.2115,1382.2118,765.5629,1377.8888,768.79,1387.194" style="stroke:#181818;stroke-width:1.0;"/><text fill="#000000" font-family="sans-serif" font-size="13" lengthAdjust="spacing" textLength="65" x="713.5" y="1343.6169">&#20837;&#21147;&#12456;&#12521;&#12540;</text></g><!--link p016 to p017--><g id="link_p016_p017"><path d="M801.397,1451.677 C813.231,1455.979 825.851,1459.794 838,1462.05 C879.176,1469.696 926.415,1468.203 962.719,1464.924 " fill="none" id="p016-to-p017" style="stroke:#181818;stroke-width:1.0;"/><polygon fill="#181818" points="967.993,1464.428,958.6587,1461.2863,963.0149,1464.8951,959.406,1469.2513,967.993,1464.428" style="stroke:#181818;stroke-width:1.0;"/><text fill="#000000" font-family="sans-serif" font-size="13" lengthAdjust="spacing" textLength="26" x="871.5" y="1458.1169">&#30906;&#35469;</text></g><!--reverse link p016 to p017--><g id="link_p016_p017"><path d="M806.332,1430.083 C842.458,1432.297 889.493,1435.835 931,1441.05 C942.937,1442.55 955.69,1444.544 967.757,1446.614 " fill="none" id="p016-backto-p017" style="stroke:#181818;stroke-width:1.0;"/><polygon fill="#181818" points="801.083,1429.766,809.8254,1434.3014,806.0739,1430.0675,810.3078,1426.3159,801.083,1429.766" style="stroke:#181818;stroke-width:1.0;"/><text fill="#000000" font-family="sans-serif" font-size="13" lengthAdjust="spacing" textLength="26" x="871.5" y="1428.1169">&#25147;&#12427;</text></g><!--link p017 to p018--><g id="link_p017_p018"><path d="M1078.13,1427.717 C1105.89,1412.674 1139.75,1394.329 1168.15,1378.937 " fill="none" id="p017-to-p018" style="stroke:#181818;stroke-width:1.0;"/><polygon fill="#181818" points="1172.66,1376.493,1162.84,1377.2458,1168.2595,1378.867,1166.6383,1384.2866,1172.66,1376.493" style="stroke:#181818;stroke-width:1.0;"/><text fill="#000000" font-family="sans-serif" font-size="13" lengthAdjust="spacing" textLength="26" x="1116" y="1391.1169">&#30331;&#37682;</text></g><!--link p018 to p016--><g id="link_p018_p016"><path d="M1172.7,1354.319 C1097.34,1364.659 956.893,1384.839 838,1407.05 C827.752,1408.965 816.895,1411.183 806.387,1413.431 " fill="none" id="p018-to-p016" style="stroke:#181818;stroke-width:1.0;"/><polygon fill="#181818" points="801.26,1414.535,810.9004,1416.5504,806.1479,1413.4823,809.2161,1408.7298,801.26,1414.535" style="stroke:#181818;stroke-width:1.0;"/><text fill="#000000" font-family="sans-serif" font-size="13" lengthAdjust="spacing" textLength="65" x="990.5" y="1363.1169">&#20837;&#21147;&#12395;&#25147;&#12427;</text></g><!--link p018 to p001_after--><g id="link_p018_p001_after"><path d="M1172.78,1338.649 C1162.87,1337.117 1152.63,1335.534 1143,1334.05 C808.176,1282.425 408.284,1221.105 246.402,1196.296 " fill="none" id="p018-to-p001_after" style="stroke:#181818;stroke-width:1.0;"/><polygon fill="#181818" points="241.213,1195.501,249.5019,1200.8203,246.1551,1196.2597,250.7157,1192.9129,241.213,1195.501" style="stroke:#181818;stroke-width:1.0;"/><text fill="#000000" font-family="sans-serif" font-size="13" lengthAdjust="spacing" textLength="52" x="720" y="1260.1169">&#26989;&#21209;&#32066;&#20102;</text></g><!--SRC=[bLNBRjD05DtFLuow0HQHFCuxgleDV40aP5gdjMYToZ5YszXAbKSZ8LKLAY01QOAWLIfA2n9jW8-PscbM_GNi6NiyOpjfM2M-zvovvyuzlcwyqFHTnL1sO6DBsQY_qlHDM5Es6ohOLcicDElGq3QtJBYX6UgwgTLryAZ1A3jrlRw-PTHtL6WQBrK0QbvKXIlO_eJj7hP7s9vKzVj96zjZR7t3rX3RbqwdVp_fh42b0NSb2JrxhjRgXWfNLvzwJsjhovtnvq0uGwcPgf4umksrdD-7TtijdXgIP0gNkOhM05jdsFhieR3ThkhJuvlPmVV7JclaTDyz2ObPIim-J9mEhkzE-uoOeyJS4XNF3swlznanJudvYEWSxJk7JNVuVdergEeXha1nXJZEwNHdnyEg7XTKfFZYN7nCHudYIt7yxTzpTtpYuyMRAbDyUIvUr8CaWaVI_FC5FGXHF8hZwIqcz20wSYJFnSVqq4cZxFppHJrqm8WRyDtbnDTmCNB7LtHQ8PRE574pdRNwixscs-bDVxx5pNvIFXqlAYoYn3gW4qR5XLN49kYGKMB8lb7jVMnTOVjqpgk1wC1HUIckA5McmvUbvUeAccLg1Dat0j1qRnNKb7KLDap5C04WFp1ZQ9arVk40Vlcmh0m0sGsPu15MeB1tXXVkqPi04fr8ruy8TTkldUu7mEKpsweeWMCCo19e0m5Fq9vJAf3t4I2n85b8ONXxe0A33M6td8yNP9LU-hTeT_q_rgyKKjPN8-uZUjafaigi03-T00u8W4SIas3h2xQ_UikSptjJhq1g11fUpMJ2iDk-mLOFaAS0ZNnqACfxIXPfdaMqCCyDo1sDdTxnz8VbkOVSN9PlFoaqokTueVutW0WbOLRHUmhGULweb4yfmWcDyWk45i9cPNRth02IXMJokba-Arot77H1mamE2dj6ERuBb4kn5rbfV2yCnKj9oo_JgnJvZ7u208dnoUJ4cFK4QqcXjP1WBHHQ2_dMOaKGMgfNz3-z5Db9zFDAau6DYkJb6sFxXBoVDzW-0oGSa4i-cT5AowYBK0lKnTvh_xpO1mAGC9TFiHVB5mLxXTsHS7HhOLEe9DYhb5A4l-m7sla7]--></g></svg>