<?xml version="1.0" encoding="us-ascii" standalone="no"?><svg xmlns="http://www.w3.org/2000/svg" xmlns:xlink="http://www.w3.org/1999/xlink" contentStyleType="text/css" height="1273px" preserveAspectRatio="none" style="width:992px;height:1273px;background:#FFFFFF;" version="1.1" viewBox="0 0 992 1273" width="992px" zoomAndPan="magnify"><defs/><g><text fill="#000000" font-family="sans-serif" font-size="14" font-weight="bold" lengthAdjust="spacing" textLength="247" x="366.25" y="27.9951">UC011: &#21830;&#21697;&#26908;&#32034;&#27231;&#33021; &#12471;&#12540;&#12465;&#12531;&#12473;&#22259;</text><rect fill="#FFFFFF" height="1041.9141" style="stroke:#A80036;stroke-width:1.0;" width="10" x="24" y="131.5938"/><rect fill="#FFFFFF" height="627.7891" style="stroke:#A80036;stroke-width:1.0;" width="10" x="198" y="182.9922"/><rect fill="#FFFFFF" height="261.1953" style="stroke:#A80036;stroke-width:1.0;" width="10" x="198" y="912.3125"/><rect fill="#FFFFFF" height="145.6641" style="stroke:#A80036;stroke-width:1.0;" width="10" x="382" y="346.6563"/><rect fill="#FFFFFF" height="145.6641" style="stroke:#A80036;stroke-width:1.0;" width="10" x="495" y="521.4531"/><rect fill="#FFFFFF" height="145.6641" style="stroke:#A80036;stroke-width:1.0;" width="10" x="495" y="941.4453"/><rect fill="#FFFFFF" height="87.3984" style="stroke:#A80036;stroke-width:1.0;" width="10" x="644" y="550.5859"/><rect fill="#FFFFFF" height="87.3984" style="stroke:#A80036;stroke-width:1.0;" width="10" x="644" y="970.5781"/><rect fill="#FFFFFF" height="87.3984" style="stroke:#A80036;stroke-width:1.0;" width="10" x="768.5" y="375.7891"/><rect fill="#FFFFFF" height="29.1328" style="stroke:#A80036;stroke-width:1.0;" width="10" x="952.5" y="404.9219"/><rect fill="#FFFFFF" height="29.1328" style="stroke:#A80036;stroke-width:1.0;" width="10" x="952.5" y="579.7188"/><rect fill="#FFFFFF" height="29.1328" style="stroke:#A80036;stroke-width:1.0;" width="10" x="952.5" y="999.7109"/><line style="stroke:#A80036;stroke-width:1.0;stroke-dasharray:5.0,5.0;" x1="29" x2="29" y1="121.5938" y2="1191.5078"/><line style="stroke:#A80036;stroke-width:1.0;stroke-dasharray:5.0,5.0;" x1="202.5" x2="202.5" y1="121.5938" y2="1191.5078"/><line style="stroke:#A80036;stroke-width:1.0;stroke-dasharray:5.0,5.0;" x1="387" x2="387" y1="121.5938" y2="1191.5078"/><line style="stroke:#A80036;stroke-width:1.0;stroke-dasharray:5.0,5.0;" x1="500" x2="500" y1="121.5938" y2="1191.5078"/><line style="stroke:#A80036;stroke-width:1.0;stroke-dasharray:5.0,5.0;" x1="648.5" x2="648.5" y1="121.5938" y2="1191.5078"/><line style="stroke:#A80036;stroke-width:1.0;stroke-dasharray:5.0,5.0;" x1="773.5" x2="773.5" y1="121.5938" y2="1191.5078"/><line style="stroke:#A80036;stroke-width:1.0;stroke-dasharray:5.0,5.0;" x1="957.5" x2="957.5" y1="121.5938" y2="1191.5078"/><text fill="#000000" font-family="sans-serif" font-size="14" lengthAdjust="spacing" textLength="42" x="5" y="118.292">&#12518;&#12540;&#12470;</text><ellipse cx="29" cy="52.2969" fill="#FEFECE" rx="8" ry="8" style="stroke:#A80036;stroke-width:2.0;"/><path d="M29,60.2969 L29,87.2969 M16,68.2969 L42,68.2969 M29,87.2969 L16,102.2969 M29,87.2969 L42,102.2969 " fill="none" style="stroke:#A80036;stroke-width:2.0;"/><text fill="#000000" font-family="sans-serif" font-size="14" lengthAdjust="spacing" textLength="42" x="5" y="1203.5029">&#12518;&#12540;&#12470;</text><ellipse cx="29" cy="1216.8047" fill="#FEFECE" rx="8" ry="8" style="stroke:#A80036;stroke-width:2.0;"/><path d="M29,1224.8047 L29,1251.8047 M16,1232.8047 L42,1232.8047 M29,1251.8047 L16,1266.8047 M29,1251.8047 L42,1266.8047 " fill="none" style="stroke:#A80036;stroke-width:2.0;"/><rect fill="#FEFECE" height="46.5938" style="stroke:#A80036;stroke-width:1.5;" width="119" x="143.5" y="74"/><text fill="#000000" font-family="sans-serif" font-size="14" lengthAdjust="spacing" textLength="105" x="150.5" y="93.9951">ProductSearch</text><text fill="#000000" font-family="sans-serif" font-size="14" lengthAdjust="spacing" textLength="73" x="166.5" y="110.292">Controller</text><rect fill="#FEFECE" height="46.5938" style="stroke:#A80036;stroke-width:1.5;" width="119" x="143.5" y="1190.5078"/><text fill="#000000" font-family="sans-serif" font-size="14" lengthAdjust="spacing" textLength="105" x="150.5" y="1210.5029">ProductSearch</text><text fill="#000000" font-family="sans-serif" font-size="14" lengthAdjust="spacing" textLength="73" x="166.5" y="1226.7998">Controller</text><rect fill="#FEFECE" height="46.5938" style="stroke:#A80036;stroke-width:1.5;" width="136" x="319" y="74"/><text fill="#000000" font-family="sans-serif" font-size="14" lengthAdjust="spacing" textLength="122" x="326" y="93.9951">ProductCategory</text><text fill="#000000" font-family="sans-serif" font-size="14" lengthAdjust="spacing" textLength="53" x="360.5" y="110.292">Service</text><rect fill="#FEFECE" height="46.5938" style="stroke:#A80036;stroke-width:1.5;" width="136" x="319" y="1190.5078"/><text fill="#000000" font-family="sans-serif" font-size="14" lengthAdjust="spacing" textLength="122" x="326" y="1210.5029">ProductCategory</text><text fill="#000000" font-family="sans-serif" font-size="14" lengthAdjust="spacing" textLength="53" x="360.5" y="1226.7998">Service</text><rect fill="#FEFECE" height="46.5938" style="stroke:#A80036;stroke-width:1.5;" width="70" x="465" y="74"/><text fill="#000000" font-family="sans-serif" font-size="14" lengthAdjust="spacing" textLength="56" x="472" y="93.9951">Product</text><text fill="#000000" font-family="sans-serif" font-size="14" lengthAdjust="spacing" textLength="53" x="473.5" y="110.292">Service</text><rect fill="#FEFECE" height="46.5938" style="stroke:#A80036;stroke-width:1.5;" width="70" x="465" y="1190.5078"/><text fill="#000000" font-family="sans-serif" font-size="14" lengthAdjust="spacing" textLength="56" x="472" y="1210.5029">Product</text><text fill="#000000" font-family="sans-serif" font-size="14" lengthAdjust="spacing" textLength="53" x="473.5" y="1226.7998">Service</text><rect fill="#FEFECE" height="46.5938" style="stroke:#A80036;stroke-width:1.5;" width="93" x="602.5" y="74"/><text fill="#000000" font-family="sans-serif" font-size="14" lengthAdjust="spacing" textLength="56" x="621" y="93.9951">Product</text><text fill="#000000" font-family="sans-serif" font-size="14" lengthAdjust="spacing" textLength="79" x="609.5" y="110.292">Repository</text><rect fill="#FEFECE" height="46.5938" style="stroke:#A80036;stroke-width:1.5;" width="93" x="602.5" y="1190.5078"/><text fill="#000000" font-family="sans-serif" font-size="14" lengthAdjust="spacing" textLength="56" x="621" y="1210.5029">Product</text><text fill="#000000" font-family="sans-serif" font-size="14" lengthAdjust="spacing" textLength="79" x="609.5" y="1226.7998">Repository</text><rect fill="#FEFECE" height="46.5938" style="stroke:#A80036;stroke-width:1.5;" width="136" x="705.5" y="74"/><text fill="#000000" font-family="sans-serif" font-size="14" lengthAdjust="spacing" textLength="122" x="712.5" y="93.9951">ProductCategory</text><text fill="#000000" font-family="sans-serif" font-size="14" lengthAdjust="spacing" textLength="79" x="734" y="110.292">Repository</text><rect fill="#FEFECE" height="46.5938" style="stroke:#A80036;stroke-width:1.5;" width="136" x="705.5" y="1190.5078"/><text fill="#000000" font-family="sans-serif" font-size="14" lengthAdjust="spacing" textLength="122" x="712.5" y="1210.5029">ProductCategory</text><text fill="#000000" font-family="sans-serif" font-size="14" lengthAdjust="spacing" textLength="79" x="734" y="1226.7998">Repository</text><text fill="#000000" font-family="sans-serif" font-size="14" lengthAdjust="spacing" textLength="21" x="944" y="118.292">DB</text><path d="M939.5,69.2969 C939.5,59.2969 957.5,59.2969 957.5,59.2969 C957.5,59.2969 975.5,59.2969 975.5,69.2969 L975.5,95.2969 C975.5,105.2969 957.5,105.2969 957.5,105.2969 C957.5,105.2969 939.5,105.2969 939.5,95.2969 L939.5,69.2969 " fill="#FEFECE" style="stroke:#A80036;stroke-width:1.5;"/><path d="M939.5,69.2969 C939.5,79.2969 957.5,79.2969 957.5,79.2969 C957.5,79.2969 975.5,79.2969 975.5,69.2969 " fill="none" style="stroke:#A80036;stroke-width:1.5;"/><text fill="#000000" font-family="sans-serif" font-size="14" lengthAdjust="spacing" textLength="21" x="944" y="1203.5029">DB</text><path d="M939.5,1216.8047 C939.5,1206.8047 957.5,1206.8047 957.5,1206.8047 C957.5,1206.8047 975.5,1206.8047 975.5,1216.8047 L975.5,1242.8047 C975.5,1252.8047 957.5,1252.8047 957.5,1252.8047 C957.5,1252.8047 939.5,1252.8047 939.5,1242.8047 L939.5,1216.8047 " fill="#FEFECE" style="stroke:#A80036;stroke-width:1.5;"/><path d="M939.5,1216.8047 C939.5,1226.8047 957.5,1226.8047 957.5,1226.8047 C957.5,1226.8047 975.5,1226.8047 975.5,1216.8047 " fill="none" style="stroke:#A80036;stroke-width:1.5;"/><rect fill="#FFFFFF" height="1041.9141" style="stroke:#A80036;stroke-width:1.0;" width="10" x="24" y="131.5938"/><rect fill="#FFFFFF" height="627.7891" style="stroke:#A80036;stroke-width:1.0;" width="10" x="198" y="182.9922"/><rect fill="#FFFFFF" height="261.1953" style="stroke:#A80036;stroke-width:1.0;" width="10" x="198" y="912.3125"/><rect fill="#FFFFFF" height="145.6641" style="stroke:#A80036;stroke-width:1.0;" width="10" x="382" y="346.6563"/><rect fill="#FFFFFF" height="145.6641" style="stroke:#A80036;stroke-width:1.0;" width="10" x="495" y="521.4531"/><rect fill="#FFFFFF" height="145.6641" style="stroke:#A80036;stroke-width:1.0;" width="10" x="495" y="941.4453"/><rect fill="#FFFFFF" height="87.3984" style="stroke:#A80036;stroke-width:1.0;" width="10" x="644" y="550.5859"/><rect fill="#FFFFFF" height="87.3984" style="stroke:#A80036;stroke-width:1.0;" width="10" x="644" y="970.5781"/><rect fill="#FFFFFF" height="87.3984" style="stroke:#A80036;stroke-width:1.0;" width="10" x="768.5" y="375.7891"/><rect fill="#FFFFFF" height="29.1328" style="stroke:#A80036;stroke-width:1.0;" width="10" x="952.5" y="404.9219"/><rect fill="#FFFFFF" height="29.1328" style="stroke:#A80036;stroke-width:1.0;" width="10" x="952.5" y="579.7188"/><rect fill="#FFFFFF" height="29.1328" style="stroke:#A80036;stroke-width:1.0;" width="10" x="952.5" y="999.7109"/><polygon fill="#A80036" points="186,178.9922,196,182.9922,186,186.9922,190,182.9922" style="stroke:#A80036;stroke-width:1.0;"/><line style="stroke:#A80036;stroke-width:1.0;" x1="34" x2="192" y1="182.9922" y2="182.9922"/><text fill="#000000" font-family="sans-serif" font-size="13" lengthAdjust="spacing" textLength="26" x="41" y="147.6606">GET</text><text fill="#000000" font-family="sans-serif" font-size="13" lengthAdjust="spacing" textLength="145" x="41" y="162.7935">/admin/product-search</text><text fill="#000000" font-family="sans-serif" font-size="13" lengthAdjust="spacing" textLength="28" x="41" y="177.9263">list()</text><line style="stroke:#A80036;stroke-width:1.0;" x1="208" x2="250" y1="216.1914" y2="216.1914"/><line style="stroke:#A80036;stroke-width:1.0;" x1="250" x2="250" y1="216.1914" y2="229.1914"/><line style="stroke:#A80036;stroke-width:1.0;" x1="209" x2="250" y1="229.1914" y2="229.1914"/><polygon fill="#A80036" points="219,225.1914,209,229.1914,219,233.1914,215,229.1914" style="stroke:#A80036;stroke-width:1.0;"/><text fill="#000000" font-family="sans-serif" font-size="13" lengthAdjust="spacing" textLength="91" x="215" y="211.1255">&#12475;&#12483;&#12471;&#12519;&#12531;&#30772;&#26820;</text><path d="M318,195.9922 L318,235.9922 L534,235.9922 L534,205.9922 L524,195.9922 L318,195.9922 " fill="#FBFB77" style="stroke:#A80036;stroke-width:1.0;"/><path d="M524,195.9922 L524,205.9922 L534,205.9922 L524,195.9922 " fill="#FBFB77" style="stroke:#A80036;stroke-width:1.0;"/><text fill="#000000" font-family="sans-serif" font-size="13" lengthAdjust="spacing" textLength="195" x="324" y="213.0591">&#20182;&#12467;&#12531;&#12488;&#12525;&#12540;&#12521;&#12391;&#30772;&#26820;&#12375;&#12390;&#12356;&#12394;&#12356;</text><text fill="#000000" font-family="sans-serif" font-size="13" lengthAdjust="spacing" textLength="130" x="324" y="228.1919">&#12475;&#12483;&#12471;&#12519;&#12531;&#12434;&#19968;&#25993;&#30772;&#26820;</text><line style="stroke:#A80036;stroke-width:1.0;" x1="208" x2="250" y1="262.3906" y2="262.3906"/><line style="stroke:#A80036;stroke-width:1.0;" x1="250" x2="250" y1="262.3906" y2="275.3906"/><line style="stroke:#A80036;stroke-width:1.0;" x1="209" x2="250" y1="275.3906" y2="275.3906"/><polygon fill="#A80036" points="219,271.3906,209,275.3906,219,279.3906,215,275.3906" style="stroke:#A80036;stroke-width:1.0;"/><text fill="#000000" font-family="sans-serif" font-size="13" lengthAdjust="spacing" textLength="80" x="215" y="257.3247">setUpForm()</text><line style="stroke:#A80036;stroke-width:1.0;" x1="208" x2="250" y1="304.5234" y2="304.5234"/><line style="stroke:#A80036;stroke-width:1.0;" x1="250" x2="250" y1="304.5234" y2="317.5234"/><line style="stroke:#A80036;stroke-width:1.0;" x1="209" x2="250" y1="317.5234" y2="317.5234"/><polygon fill="#A80036" points="219,313.5234,209,317.5234,219,321.5234,215,317.5234" style="stroke:#A80036;stroke-width:1.0;"/><text fill="#000000" font-family="sans-serif" font-size="13" lengthAdjust="spacing" textLength="37" x="215" y="299.4575">bind()</text><polygon fill="#A80036" points="370,342.6563,380,346.6563,370,350.6563,374,346.6563" style="stroke:#A80036;stroke-width:1.0;"/><line style="stroke:#A80036;stroke-width:1.0;" x1="208" x2="376" y1="346.6563" y2="346.6563"/><text fill="#000000" font-family="sans-serif" font-size="13" lengthAdjust="spacing" textLength="49" x="215" y="341.5903">findAll()</text><polygon fill="#A80036" points="756.5,371.7891,766.5,375.7891,756.5,379.7891,760.5,375.7891" style="stroke:#A80036;stroke-width:1.0;"/><line style="stroke:#A80036;stroke-width:1.0;" x1="392" x2="762.5" y1="375.7891" y2="375.7891"/><text fill="#000000" font-family="sans-serif" font-size="13" lengthAdjust="spacing" textLength="49" x="399" y="370.7231">findAll()</text><polygon fill="#A80036" points="940.5,400.9219,950.5,404.9219,940.5,408.9219,944.5,404.9219" style="stroke:#A80036;stroke-width:1.0;"/><line style="stroke:#A80036;stroke-width:1.0;" x1="778.5" x2="946.5" y1="404.9219" y2="404.9219"/><text fill="#000000" font-family="sans-serif" font-size="13" lengthAdjust="spacing" textLength="61" x="785.5" y="399.856">SELECT&#25991;</text><polygon fill="#A80036" points="789.5,430.0547,779.5,434.0547,789.5,438.0547,785.5,434.0547" style="stroke:#A80036;stroke-width:1.0;"/><line style="stroke:#A80036;stroke-width:1.0;stroke-dasharray:2.0,2.0;" x1="783.5" x2="956.5" y1="434.0547" y2="434.0547"/><text fill="#000000" font-family="sans-serif" font-size="13" lengthAdjust="spacing" textLength="150" x="795.5" y="428.9888">List&lt;ProductCategory&gt;</text><polygon fill="#A80036" points="403,459.1875,393,463.1875,403,467.1875,399,463.1875" style="stroke:#A80036;stroke-width:1.0;"/><line style="stroke:#A80036;stroke-width:1.0;stroke-dasharray:2.0,2.0;" x1="397" x2="772.5" y1="463.1875" y2="463.1875"/><text fill="#000000" font-family="sans-serif" font-size="13" lengthAdjust="spacing" textLength="150" x="409" y="458.1216">List&lt;ProductCategory&gt;</text><polygon fill="#A80036" points="219,488.3203,209,492.3203,219,496.3203,215,492.3203" style="stroke:#A80036;stroke-width:1.0;"/><line style="stroke:#A80036;stroke-width:1.0;stroke-dasharray:2.0,2.0;" x1="213" x2="386" y1="492.3203" y2="492.3203"/><text fill="#000000" font-family="sans-serif" font-size="13" lengthAdjust="spacing" textLength="150" x="225" y="487.2544">List&lt;ProductCategory&gt;</text><polygon fill="#A80036" points="483,517.4531,493,521.4531,483,525.4531,487,521.4531" style="stroke:#A80036;stroke-width:1.0;"/><line style="stroke:#A80036;stroke-width:1.0;" x1="208" x2="489" y1="521.4531" y2="521.4531"/><text fill="#000000" font-family="sans-serif" font-size="13" lengthAdjust="spacing" textLength="49" x="215" y="516.3872">findAll()</text><polygon fill="#A80036" points="632,546.5859,642,550.5859,632,554.5859,636,550.5859" style="stroke:#A80036;stroke-width:1.0;"/><line style="stroke:#A80036;stroke-width:1.0;" x1="505" x2="638" y1="550.5859" y2="550.5859"/><text fill="#000000" font-family="sans-serif" font-size="13" lengthAdjust="spacing" textLength="49" x="512" y="545.52">findAll()</text><polygon fill="#A80036" points="940.5,575.7188,950.5,579.7188,940.5,583.7188,944.5,579.7188" style="stroke:#A80036;stroke-width:1.0;"/><line style="stroke:#A80036;stroke-width:1.0;" x1="654" x2="946.5" y1="579.7188" y2="579.7188"/><text fill="#000000" font-family="sans-serif" font-size="13" lengthAdjust="spacing" textLength="61" x="661" y="574.6528">SELECT&#25991;</text><polygon fill="#A80036" points="665,604.8516,655,608.8516,665,612.8516,661,608.8516" style="stroke:#A80036;stroke-width:1.0;"/><line style="stroke:#A80036;stroke-width:1.0;stroke-dasharray:2.0,2.0;" x1="659" x2="956.5" y1="608.8516" y2="608.8516"/><text fill="#000000" font-family="sans-serif" font-size="13" lengthAdjust="spacing" textLength="91" x="671" y="603.7856">List&lt;Product&gt;</text><polygon fill="#A80036" points="516,633.9844,506,637.9844,516,641.9844,512,637.9844" style="stroke:#A80036;stroke-width:1.0;"/><line style="stroke:#A80036;stroke-width:1.0;stroke-dasharray:2.0,2.0;" x1="510" x2="648" y1="637.9844" y2="637.9844"/><text fill="#000000" font-family="sans-serif" font-size="13" lengthAdjust="spacing" textLength="91" x="522" y="632.9185">List&lt;Product&gt;</text><polygon fill="#A80036" points="219,663.1172,209,667.1172,219,671.1172,215,667.1172" style="stroke:#A80036;stroke-width:1.0;"/><line style="stroke:#A80036;stroke-width:1.0;stroke-dasharray:2.0,2.0;" x1="213" x2="499" y1="667.1172" y2="667.1172"/><text fill="#000000" font-family="sans-serif" font-size="13" lengthAdjust="spacing" textLength="91" x="225" y="662.0513">List&lt;Product&gt;</text><line style="stroke:#A80036;stroke-width:1.0;" x1="208" x2="250" y1="711.3828" y2="711.3828"/><line style="stroke:#A80036;stroke-width:1.0;" x1="250" x2="250" y1="711.3828" y2="724.3828"/><line style="stroke:#A80036;stroke-width:1.0;" x1="209" x2="250" y1="724.3828" y2="724.3828"/><polygon fill="#A80036" points="219,720.3828,209,724.3828,219,728.3828,215,724.3828" style="stroke:#A80036;stroke-width:1.0;"/><text fill="#000000" font-family="sans-serif" font-size="13" lengthAdjust="spacing" textLength="63" x="215" y="691.1841">Mpdel&#36861;&#21152;</text><text fill="#000000" font-family="sans-serif" font-size="13" lengthAdjust="spacing" textLength="117" x="215" y="706.3169">&#65288;&#12459;&#12486;&#12468;&#12522;&#12522;&#12473;&#12488;&#65289;</text><line style="stroke:#A80036;stroke-width:1.0;" x1="208" x2="250" y1="768.6484" y2="768.6484"/><line style="stroke:#A80036;stroke-width:1.0;" x1="250" x2="250" y1="768.6484" y2="781.6484"/><line style="stroke:#A80036;stroke-width:1.0;" x1="209" x2="250" y1="781.6484" y2="781.6484"/><polygon fill="#A80036" points="219,777.6484,209,781.6484,219,785.6484,215,781.6484" style="stroke:#A80036;stroke-width:1.0;"/><text fill="#000000" font-family="sans-serif" font-size="13" lengthAdjust="spacing" textLength="63" x="215" y="748.4497">Model&#36861;&#21152;</text><text fill="#000000" font-family="sans-serif" font-size="13" lengthAdjust="spacing" textLength="91" x="215" y="763.5825">&#65288;&#21830;&#21697;&#12522;&#12473;&#12488;&#65289;</text><polygon fill="#A80036" points="45,806.7813,35,810.7813,45,814.7813,41,810.7813" style="stroke:#A80036;stroke-width:1.0;"/><line style="stroke:#A80036;stroke-width:1.0;" x1="39" x2="202" y1="810.7813" y2="810.7813"/><text fill="#000000" font-family="sans-serif" font-size="13" lengthAdjust="spacing" textLength="78" x="51" y="805.7153">&#26908;&#32034;&#21021;&#26399;&#30011;&#38754;</text><line style="stroke:#A80036;stroke-width:1.0;" x1="34" x2="76" y1="839.9141" y2="839.9141"/><line style="stroke:#A80036;stroke-width:1.0;" x1="76" x2="76" y1="839.9141" y2="852.9141"/><line style="stroke:#A80036;stroke-width:1.0;" x1="35" x2="76" y1="852.9141" y2="852.9141"/><polygon fill="#A80036" points="45,848.9141,35,852.9141,45,856.9141,41,852.9141" style="stroke:#A80036;stroke-width:1.0;"/><text fill="#000000" font-family="sans-serif" font-size="13" lengthAdjust="spacing" textLength="78" x="41" y="834.8481">&#12459;&#12486;&#12468;&#12522;&#36984;&#25246;</text><polygon fill="#A80036" points="186,908.3125,196,912.3125,186,916.3125,190,912.3125" style="stroke:#A80036;stroke-width:1.0;"/><line style="stroke:#A80036;stroke-width:1.0;" x1="34" x2="192" y1="912.3125" y2="912.3125"/><text fill="#000000" font-family="sans-serif" font-size="13" lengthAdjust="spacing" textLength="34" x="41" y="876.981">POST</text><text fill="#000000" font-family="sans-serif" font-size="13" lengthAdjust="spacing" textLength="145" x="41" y="892.1138">/admin/product-search</text><text fill="#000000" font-family="sans-serif" font-size="13" lengthAdjust="spacing" textLength="53" x="41" y="907.2466">search()</text><polygon fill="#A80036" points="483,937.4453,493,941.4453,483,945.4453,487,941.4453" style="stroke:#A80036;stroke-width:1.0;"/><line style="stroke:#A80036;stroke-width:1.0;" x1="208" x2="489" y1="941.4453" y2="941.4453"/><text fill="#000000" font-family="sans-serif" font-size="13" lengthAdjust="spacing" textLength="120" x="215" y="936.3794">findbyCategoryId()</text><polygon fill="#A80036" points="632,966.5781,642,970.5781,632,974.5781,636,970.5781" style="stroke:#A80036;stroke-width:1.0;"/><line style="stroke:#A80036;stroke-width:1.0;" x1="505" x2="638" y1="970.5781" y2="970.5781"/><text fill="#000000" font-family="sans-serif" font-size="13" lengthAdjust="spacing" textLength="120" x="512" y="965.5122">findbyCategoryId()</text><polygon fill="#A80036" points="940.5,995.7109,950.5,999.7109,940.5,1003.7109,944.5,999.7109" style="stroke:#A80036;stroke-width:1.0;"/><line style="stroke:#A80036;stroke-width:1.0;" x1="654" x2="946.5" y1="999.7109" y2="999.7109"/><text fill="#000000" font-family="sans-serif" font-size="13" lengthAdjust="spacing" textLength="61" x="661" y="994.645">SELECT&#25991;</text><polygon fill="#A80036" points="665,1024.8438,655,1028.8438,665,1032.8438,661,1028.8438" style="stroke:#A80036;stroke-width:1.0;"/><line style="stroke:#A80036;stroke-width:1.0;stroke-dasharray:2.0,2.0;" x1="659" x2="956.5" y1="1028.8438" y2="1028.8438"/><text fill="#000000" font-family="sans-serif" font-size="13" lengthAdjust="spacing" textLength="91" x="671" y="1023.7778">List&lt;Product&gt;</text><polygon fill="#A80036" points="516,1053.9766,506,1057.9766,516,1061.9766,512,1057.9766" style="stroke:#A80036;stroke-width:1.0;"/><line style="stroke:#A80036;stroke-width:1.0;stroke-dasharray:2.0,2.0;" x1="510" x2="648" y1="1057.9766" y2="1057.9766"/><text fill="#000000" font-family="sans-serif" font-size="13" lengthAdjust="spacing" textLength="91" x="522" y="1052.9106">List&lt;Product&gt;</text><polygon fill="#A80036" points="219,1083.1094,209,1087.1094,219,1091.1094,215,1087.1094" style="stroke:#A80036;stroke-width:1.0;"/><line style="stroke:#A80036;stroke-width:1.0;stroke-dasharray:2.0,2.0;" x1="213" x2="499" y1="1087.1094" y2="1087.1094"/><text fill="#000000" font-family="sans-serif" font-size="13" lengthAdjust="spacing" textLength="91" x="225" y="1082.0435">List&lt;Product&gt;</text><line style="stroke:#A80036;stroke-width:1.0;" x1="208" x2="250" y1="1131.375" y2="1131.375"/><line style="stroke:#A80036;stroke-width:1.0;" x1="250" x2="250" y1="1131.375" y2="1144.375"/><line style="stroke:#A80036;stroke-width:1.0;" x1="209" x2="250" y1="1144.375" y2="1144.375"/><polygon fill="#A80036" points="219,1140.375,209,1144.375,219,1148.375,215,1144.375" style="stroke:#A80036;stroke-width:1.0;"/><text fill="#000000" font-family="sans-serif" font-size="13" lengthAdjust="spacing" textLength="63" x="215" y="1111.1763">Model&#36861;&#21152;</text><text fill="#000000" font-family="sans-serif" font-size="13" lengthAdjust="spacing" textLength="104" x="215" y="1126.3091">&#65288;&#36984;&#25246;&#12459;&#12486;&#12468;&#12522;&#65289;</text><path d="M331,1103.6094 L331,1143.6094 L573,1143.6094 L573,1113.6094 L563,1103.6094 L331,1103.6094 " fill="#FBFB77" style="stroke:#A80036;stroke-width:1.0;"/><path d="M563,1103.6094 L563,1113.6094 L573,1113.6094 L563,1103.6094 " fill="#FBFB77" style="stroke:#A80036;stroke-width:1.0;"/><text fill="#000000" font-family="sans-serif" font-size="13" lengthAdjust="spacing" textLength="117" x="337" y="1120.6763">&#36984;&#25246;&#12375;&#12383;&#12459;&#12486;&#12468;&#12522;&#12364;</text><text fill="#000000" font-family="sans-serif" font-size="13" lengthAdjust="spacing" textLength="221" x="337" y="1135.8091">&#12475;&#12524;&#12463;&#12488;&#12508;&#12483;&#12463;&#12473;&#12391;&#36984;&#25246;&#12373;&#12428;&#12427;&#12424;&#12358;&#12395;</text><polygon fill="#A80036" points="40,1169.5078,30,1173.5078,40,1177.5078,36,1173.5078" style="stroke:#A80036;stroke-width:1.0;"/><line style="stroke:#A80036;stroke-width:1.0;" x1="34" x2="202" y1="1173.5078" y2="1173.5078"/><text fill="#000000" font-family="sans-serif" font-size="13" lengthAdjust="spacing" textLength="78" x="46" y="1168.4419">&#26908;&#32034;&#32080;&#26524;&#30011;&#38754;</text><!--SRC=[pLN1RjD04BtxArQv0AgYuXmZ50b2G4X5LAIzvRAnjyaAnxRMRb1ls4OXBJqWeE50sbG5DMeBgb02j4egFcORfptr5rZRSOWTnxaYHR5tvitipBoPiVO2ou0e6k8qzgP20Yj0AqDHUOdb4bY34jDmEjOb15QpTta-3GOxjS47m_xQ77OFxAFMbNK1gFcRMdrg_g1MXvhdWyyT3WgwGW2r3bt5Bm0riAuXuiXn5Uh8Ex7xT2nW5SewI2mJHLmNz3o2H2WNvAmYwqIH94GIZhKmFaPQPPdFaa8s2d8UaIeMa6kaLGK-4Zu5Iys0FKUgec6MouQB9Ep8pmaWmYJ5YL27HQWXa7Zum1MBHOwx1Rmo3kgxThCr_DYxtZtWdCA0P6OYOR2m0DBWSMwb82z2iOBbHTMxCwcDQYLXJRzzXvim2Jf8CufwrB9SejgCfU5-r_xocfCLnWJ1fRAU1fUz1ZKx3eDMdLhV7Twi8sgqFIWrFb7Za1hivPZz5-IGGsg-lpnxPJSsHvvZGj6Glge-KaWbFk8YbiKfX4EeLuurfhulIGpXofZEBNHOwGcPLYnwgdnkAPTTiHjlE2P9ZisIIQPROcMy5-8puxlmRuz1ZlI1H6BWKwcb8b9B-QdnKQdnSrEB23ZZc_gtHY16ylXKCd7yFLL595tzkHXixHVactwTcYVKgb6pIwrZvsUUiqQxwM_6-b22FhpT4sFj3OyJPyHaZUTj-FETlTSCpPlxT0RbNvZNnfczjJTp8fUVvMUFfFUCQk09beiRVZSy4MVJ7KBzxxo7EFEAE5bMXxR9pJD2E1kc5UWIOtkqPxvHyzHTIqrtvvmwz1jjtsw7cjlKV4lDEZLgr3YPqnC1zZaH1Jv9Vm40]--></g></svg>