<svg xmlns="http://www.w3.org/2000/svg" xmlns:xlink="http://www.w3.org/1999/xlink" contentStyleType="text/css" height="1273px" preserveAspectRatio="none" style="width:997px;height:1273px;background:#FFFFFF;" version="1.1" viewBox="0 0 997 1273" width="997px" zoomAndPan="magnify"><defs/><g><text fill="#000000" font-family="sans-serif" font-size="14" font-weight="bold" lengthAdjust="spacing" textLength="234.2122" x="375.2728" y="27.9951">UC011: &#21830;&#21697;&#26908;&#32034;&#27231;&#33021; &#12471;&#12540;&#12465;&#12531;&#12473;&#22259;</text><rect fill="#FFFFFF" height="1041.9141" style="stroke:#A80036;stroke-width:1.0;" width="10" x="23.9999" y="131.5938"/><rect fill="#FFFFFF" height="627.7891" style="stroke:#A80036;stroke-width:1.0;" width="10" x="200.9384" y="182.9922"/><rect fill="#FFFFFF" height="261.1953" style="stroke:#A80036;stroke-width:1.0;" width="10" x="200.9384" y="912.3125"/><rect fill="#FFFFFF" height="145.6641" style="stroke:#A80036;stroke-width:1.0;" width="10" x="388.704" y="346.6563"/><rect fill="#FFFFFF" height="145.6641" style="stroke:#A80036;stroke-width:1.0;" width="10" x="498.3891" y="521.4531"/><rect fill="#FFFFFF" height="145.6641" style="stroke:#A80036;stroke-width:1.0;" width="10" x="498.3891" y="941.4453"/><rect fill="#FFFFFF" height="87.3984" style="stroke:#A80036;stroke-width:1.0;" width="10" x="649.6259" y="550.5859"/><rect fill="#FFFFFF" height="87.3984" style="stroke:#A80036;stroke-width:1.0;" width="10" x="649.6259" y="970.5781"/><rect fill="#FFFFFF" height="87.3984" style="stroke:#A80036;stroke-width:1.0;" width="10" x="769.9921" y="375.7891"/><rect fill="#FFFFFF" height="29.1328" style="stroke:#A80036;stroke-width:1.0;" width="10" x="957.7577" y="404.9219"/><rect fill="#FFFFFF" height="29.1328" style="stroke:#A80036;stroke-width:1.0;" width="10" x="957.7577" y="579.7188"/><rect fill="#FFFFFF" height="29.1328" style="stroke:#A80036;stroke-width:1.0;" width="10" x="957.7577" y="999.7109"/><line style="stroke:#A80036;stroke-width:1.0;stroke-dasharray:5.0,5.0;" x1="28" x2="28" y1="121.5938" y2="1191.5078"/><line style="stroke:#A80036;stroke-width:1.0;stroke-dasharray:5.0,5.0;" x1="205.8808" x2="205.8808" y1="121.5938" y2="1191.5078"/><line style="stroke:#A80036;stroke-width:1.0;stroke-dasharray:5.0,5.0;" x1="392.8739" x2="392.8739" y1="121.5938" y2="1191.5078"/><line style="stroke:#A80036;stroke-width:1.0;stroke-dasharray:5.0,5.0;" x1="502.5341" x2="502.5341" y1="121.5938" y2="1191.5078"/><line style="stroke:#A80036;stroke-width:1.0;stroke-dasharray:5.0,5.0;" x1="654.0898" x2="654.0898" y1="121.5938" y2="1191.5078"/><line style="stroke:#A80036;stroke-width:1.0;stroke-dasharray:5.0,5.0;" x1="774.162" x2="774.162" y1="121.5938" y2="1191.5078"/><line style="stroke:#A80036;stroke-width:1.0;stroke-dasharray:5.0,5.0;" x1="962.7577" x2="962.7577" y1="121.5938" y2="1191.5078"/><text fill="#000000" font-family="sans-serif" font-size="14" lengthAdjust="spacing" textLength="41.9998" x="5" y="118.292">&#12518;&#12540;&#12470;</text><ellipse cx="28.9999" cy="52.2969" fill="#FEFECE" rx="8" ry="8" style="stroke:#A80036;stroke-width:2.0;"/><path d="M28.9999,60.2969 L28.9999,87.2969 M15.9999,68.2969 L41.9999,68.2969 M28.9999,87.2969 L15.9999,102.2969 M28.9999,87.2969 L41.9999,102.2969 " fill="none" style="stroke:#A80036;stroke-width:2.0;"/><text fill="#000000" font-family="sans-serif" font-size="14" lengthAdjust="spacing" textLength="41.9998" x="5" y="1203.5029">&#12518;&#12540;&#12470;</text><ellipse cx="28.9999" cy="1216.8047" fill="#FEFECE" rx="8" ry="8" style="stroke:#A80036;stroke-width:2.0;"/><path d="M28.9999,1224.8047 L28.9999,1251.8047 M15.9999,1232.8047 L41.9999,1232.8047 M28.9999,1251.8047 L15.9999,1266.8047 M28.9999,1251.8047 L41.9999,1266.8047 " fill="none" style="stroke:#A80036;stroke-width:2.0;"/><rect fill="#FEFECE" height="46.5938" style="stroke:#A80036;stroke-width:1.5;" width="116.1152" x="147.8808" y="74"/><text fill="#000000" font-family="sans-serif" font-size="14" lengthAdjust="spacing" textLength="102.1152" x="154.8808" y="93.9951">ProductSearch</text><text fill="#000000" font-family="sans-serif" font-size="14" lengthAdjust="spacing" textLength="69.1729" x="171.352" y="110.292">Controller</text><rect fill="#FEFECE" height="46.5938" style="stroke:#A80036;stroke-width:1.5;" width="116.1152" x="147.8808" y="1190.5078"/><text fill="#000000" font-family="sans-serif" font-size="14" lengthAdjust="spacing" textLength="102.1152" x="154.8808" y="1210.5029">ProductSearch</text><text fill="#000000" font-family="sans-serif" font-size="14" lengthAdjust="spacing" textLength="69.1729" x="171.352" y="1226.7998">Controller</text><rect fill="#FEFECE" height="46.5938" style="stroke:#A80036;stroke-width:1.5;" width="131.6602" x="327.8739" y="74"/><text fill="#000000" font-family="sans-serif" font-size="14" lengthAdjust="spacing" textLength="117.6602" x="334.8739" y="93.9951">ProductCategory</text><text fill="#000000" font-family="sans-serif" font-size="14" lengthAdjust="spacing" textLength="51.7412" x="367.8334" y="110.292">Service</text><rect fill="#FEFECE" height="46.5938" style="stroke:#A80036;stroke-width:1.5;" width="131.6602" x="327.8739" y="1190.5078"/><text fill="#000000" font-family="sans-serif" font-size="14" lengthAdjust="spacing" textLength="117.6602" x="334.8739" y="1210.5029">ProductCategory</text><text fill="#000000" font-family="sans-serif" font-size="14" lengthAdjust="spacing" textLength="51.7412" x="367.8334" y="1226.7998">Service</text><rect fill="#FEFECE" height="46.5938" style="stroke:#A80036;stroke-width:1.5;" width="67.71" x="469.5341" y="74"/><text fill="#000000" font-family="sans-serif" font-size="14" lengthAdjust="spacing" textLength="53.71" x="476.5341" y="93.9951">Product</text><text fill="#000000" font-family="sans-serif" font-size="14" lengthAdjust="spacing" textLength="51.7412" x="477.5185" y="110.292">Service</text><rect fill="#FEFECE" height="46.5938" style="stroke:#A80036;stroke-width:1.5;" width="67.71" x="469.5341" y="1190.5078"/><text fill="#000000" font-family="sans-serif" font-size="14" lengthAdjust="spacing" textLength="53.71" x="476.5341" y="1210.5029">Product</text><text fill="#000000" font-family="sans-serif" font-size="14" lengthAdjust="spacing" textLength="51.7412" x="477.5185" y="1226.7998">Service</text><rect fill="#FEFECE" height="46.5938" style="stroke:#A80036;stroke-width:1.5;" width="89.0723" x="610.0898" y="74"/><text fill="#000000" font-family="sans-serif" font-size="14" lengthAdjust="spacing" textLength="53.71" x="627.7709" y="93.9951">Product</text><text fill="#000000" font-family="sans-serif" font-size="14" lengthAdjust="spacing" textLength="75.0723" x="617.0898" y="110.292">Repository</text><rect fill="#FEFECE" height="46.5938" style="stroke:#A80036;stroke-width:1.5;" width="89.0723" x="610.0898" y="1190.5078"/><text fill="#000000" font-family="sans-serif" font-size="14" lengthAdjust="spacing" textLength="53.71" x="627.7709" y="1210.5029">Product</text><text fill="#000000" font-family="sans-serif" font-size="14" lengthAdjust="spacing" textLength="75.0723" x="617.0898" y="1226.7998">Repository</text><rect fill="#FEFECE" height="46.5938" style="stroke:#A80036;stroke-width:1.5;" width="131.6602" x="709.162" y="74"/><text fill="#000000" font-family="sans-serif" font-size="14" lengthAdjust="spacing" textLength="117.6602" x="716.162" y="93.9951">ProductCategory</text><text fill="#000000" font-family="sans-serif" font-size="14" lengthAdjust="spacing" textLength="75.0723" x="737.456" y="110.292">Repository</text><rect fill="#FEFECE" height="46.5938" style="stroke:#A80036;stroke-width:1.5;" width="131.6602" x="709.162" y="1190.5078"/><text fill="#000000" font-family="sans-serif" font-size="14" lengthAdjust="spacing" textLength="117.6602" x="716.162" y="1210.5029">ProductCategory</text><text fill="#000000" font-family="sans-serif" font-size="14" lengthAdjust="spacing" textLength="75.0723" x="737.456" y="1226.7998">Repository</text><text fill="#000000" font-family="sans-serif" font-size="14" lengthAdjust="spacing" textLength="20.3848" x="949.5653" y="118.292">DB</text><path d="M944.7577,69.2969 C944.7577,59.2969 962.7577,59.2969 962.7577,59.2969 C962.7577,59.2969 980.7577,59.2969 980.7577,69.2969 L980.7577,95.2969 C980.7577,105.2969 962.7577,105.2969 962.7577,105.2969 C962.7577,105.2969 944.7577,105.2969 944.7577,95.2969 L944.7577,69.2969 " fill="#FEFECE" style="stroke:#A80036;stroke-width:1.5;"/><path d="M944.7577,69.2969 C944.7577,79.2969 962.7577,79.2969 962.7577,79.2969 C962.7577,79.2969 980.7577,79.2969 980.7577,69.2969 " fill="none" style="stroke:#A80036;stroke-width:1.5;"/><text fill="#000000" font-family="sans-serif" font-size="14" lengthAdjust="spacing" textLength="20.3848" x="949.5653" y="1203.5029">DB</text><path d="M944.7577,1216.8047 C944.7577,1206.8047 962.7577,1206.8047 962.7577,1206.8047 C962.7577,1206.8047 980.7577,1206.8047 980.7577,1216.8047 L980.7577,1242.8047 C980.7577,1252.8047 962.7577,1252.8047 962.7577,1252.8047 C962.7577,1252.8047 944.7577,1252.8047 944.7577,1242.8047 L944.7577,1216.8047 " fill="#FEFECE" style="stroke:#A80036;stroke-width:1.5;"/><path d="M944.7577,1216.8047 C944.7577,1226.8047 962.7577,1226.8047 962.7577,1226.8047 C962.7577,1226.8047 980.7577,1226.8047 980.7577,1216.8047 " fill="none" style="stroke:#A80036;stroke-width:1.5;"/><rect fill="#FFFFFF" height="1041.9141" style="stroke:#A80036;stroke-width:1.0;" width="10" x="23.9999" y="131.5938"/><rect fill="#FFFFFF" height="627.7891" style="stroke:#A80036;stroke-width:1.0;" width="10" x="200.9384" y="182.9922"/><rect fill="#FFFFFF" height="261.1953" style="stroke:#A80036;stroke-width:1.0;" width="10" x="200.9384" y="912.3125"/><rect fill="#FFFFFF" height="145.6641" style="stroke:#A80036;stroke-width:1.0;" width="10" x="388.704" y="346.6563"/><rect fill="#FFFFFF" height="145.6641" style="stroke:#A80036;stroke-width:1.0;" width="10" x="498.3891" y="521.4531"/><rect fill="#FFFFFF" height="145.6641" style="stroke:#A80036;stroke-width:1.0;" width="10" x="498.3891" y="941.4453"/><rect fill="#FFFFFF" height="87.3984" style="stroke:#A80036;stroke-width:1.0;" width="10" x="649.6259" y="550.5859"/><rect fill="#FFFFFF" height="87.3984" style="stroke:#A80036;stroke-width:1.0;" width="10" x="649.6259" y="970.5781"/><rect fill="#FFFFFF" height="87.3984" style="stroke:#A80036;stroke-width:1.0;" width="10" x="769.9921" y="375.7891"/><rect fill="#FFFFFF" height="29.1328" style="stroke:#A80036;stroke-width:1.0;" width="10" x="957.7577" y="404.9219"/><rect fill="#FFFFFF" height="29.1328" style="stroke:#A80036;stroke-width:1.0;" width="10" x="957.7577" y="579.7188"/><rect fill="#FFFFFF" height="29.1328" style="stroke:#A80036;stroke-width:1.0;" width="10" x="957.7577" y="999.7109"/><polygon fill="#A80036" points="188.9384,178.9922,198.9384,182.9922,188.9384,186.9922,192.9384,182.9922" style="stroke:#A80036;stroke-width:1.0;"/><line style="stroke:#A80036;stroke-width:1.0;" x1="33.9999" x2="194.9384" y1="182.9922" y2="182.9922"/><text fill="#000000" font-family="sans-serif" font-size="13" lengthAdjust="spacing" textLength="26.2285" x="40.9999" y="147.6606">GET</text><text fill="#000000" font-family="sans-serif" font-size="13" lengthAdjust="spacing" textLength="147.9385" x="40.9999" y="162.7935">/admin/product-search</text><text fill="#000000" font-family="sans-serif" font-size="13" lengthAdjust="spacing" textLength="29.2373" x="40.9999" y="177.9263">list()</text><line style="stroke:#A80036;stroke-width:1.0;" x1="210.9384" x2="252.9384" y1="216.1914" y2="216.1914"/><line style="stroke:#A80036;stroke-width:1.0;" x1="252.9384" x2="252.9384" y1="216.1914" y2="229.1914"/><line style="stroke:#A80036;stroke-width:1.0;" x1="211.9384" x2="252.9384" y1="229.1914" y2="229.1914"/><polygon fill="#A80036" points="221.9384,225.1914,211.9384,229.1914,221.9384,233.1914,217.9384,229.1914" style="stroke:#A80036;stroke-width:1.0;"/><text fill="#000000" font-family="sans-serif" font-size="13" lengthAdjust="spacing" textLength="91.0001" x="217.9384" y="211.1255">&#12475;&#12483;&#12471;&#12519;&#12531;&#30772;&#26820;</text><path d="M330.0001,195.9922 L330.0001,235.9922 L546.0001,235.9922 L546.0001,205.9922 L536.0001,195.9922 L330.0001,195.9922 " fill="#FBFB77" style="stroke:#A80036;stroke-width:1.0;"/><path d="M536.0001,195.9922 L536.0001,205.9922 L546.0001,205.9922 L536.0001,195.9922 " fill="#FBFB77" style="stroke:#A80036;stroke-width:1.0;"/><text fill="#000000" font-family="sans-serif" font-size="13" lengthAdjust="spacing" textLength="195.0002" x="336.0001" y="213.0591">&#20182;&#12467;&#12531;&#12488;&#12525;&#12540;&#12521;&#12391;&#30772;&#26820;&#12375;&#12390;&#12356;&#12394;&#12356;</text><text fill="#000000" font-family="sans-serif" font-size="13" lengthAdjust="spacing" textLength="130.0002" x="336.0001" y="228.1919">&#12475;&#12483;&#12471;&#12519;&#12531;&#12434;&#19968;&#25993;&#30772;&#26820;</text><line style="stroke:#A80036;stroke-width:1.0;" x1="210.9384" x2="252.9384" y1="262.3906" y2="262.3906"/><line style="stroke:#A80036;stroke-width:1.0;" x1="252.9384" x2="252.9384" y1="262.3906" y2="275.3906"/><line style="stroke:#A80036;stroke-width:1.0;" x1="211.9384" x2="252.9384" y1="275.3906" y2="275.3906"/><polygon fill="#A80036" points="221.9384,271.3906,211.9384,275.3906,221.9384,279.3906,217.9384,275.3906" style="stroke:#A80036;stroke-width:1.0;"/><text fill="#000000" font-family="sans-serif" font-size="13" lengthAdjust="spacing" textLength="81.2183" x="217.9384" y="257.3247">setUpForm()</text><line style="stroke:#A80036;stroke-width:1.0;" x1="210.9384" x2="252.9384" y1="304.5234" y2="304.5234"/><line style="stroke:#A80036;stroke-width:1.0;" x1="252.9384" x2="252.9384" y1="304.5234" y2="317.5234"/><line style="stroke:#A80036;stroke-width:1.0;" x1="211.9384" x2="252.9384" y1="317.5234" y2="317.5234"/><polygon fill="#A80036" points="221.9384,313.5234,211.9384,317.5234,221.9384,321.5234,217.9384,317.5234" style="stroke:#A80036;stroke-width:1.0;"/><text fill="#000000" font-family="sans-serif" font-size="13" lengthAdjust="spacing" textLength="38.4985" x="217.9384" y="299.4575">bind()</text><polygon fill="#A80036" points="376.704,342.6563,386.704,346.6563,376.704,350.6563,380.704,346.6563" style="stroke:#A80036;stroke-width:1.0;"/><line style="stroke:#A80036;stroke-width:1.0;" x1="210.9384" x2="382.704" y1="346.6563" y2="346.6563"/><text fill="#000000" font-family="sans-serif" font-size="13" lengthAdjust="spacing" textLength="50.9399" x="217.9384" y="341.5903">findAll()</text><polygon fill="#A80036" points="757.9921,371.7891,767.9921,375.7891,757.9921,379.7891,761.9921,375.7891" style="stroke:#A80036;stroke-width:1.0;"/><line style="stroke:#A80036;stroke-width:1.0;" x1="398.704" x2="763.9921" y1="375.7891" y2="375.7891"/><text fill="#000000" font-family="sans-serif" font-size="13" lengthAdjust="spacing" textLength="50.9399" x="405.704" y="370.7231">findAll()</text><polygon fill="#A80036" points="945.7577,400.9219,955.7577,404.9219,945.7577,408.9219,949.7577,404.9219" style="stroke:#A80036;stroke-width:1.0;"/><line style="stroke:#A80036;stroke-width:1.0;" x1="779.9921" x2="951.7577" y1="404.9219" y2="404.9219"/><text fill="#000000" font-family="sans-serif" font-size="13" lengthAdjust="spacing" textLength="61.9404" x="786.9921" y="399.856">SELECT&#25991;</text><polygon fill="#A80036" points="790.9921,430.0547,780.9921,434.0547,790.9921,438.0547,786.9921,434.0547" style="stroke:#A80036;stroke-width:1.0;"/><line style="stroke:#A80036;stroke-width:1.0;stroke-dasharray:2.0,2.0;" x1="784.9921" x2="961.7577" y1="434.0547" y2="434.0547"/><text fill="#000000" font-family="sans-serif" font-size="13" lengthAdjust="spacing" textLength="153.7656" x="796.9921" y="428.9888">List&lt;ProductCategory&gt;</text><polygon fill="#A80036" points="409.704,459.1875,399.704,463.1875,409.704,467.1875,405.704,463.1875" style="stroke:#A80036;stroke-width:1.0;"/><line style="stroke:#A80036;stroke-width:1.0;stroke-dasharray:2.0,2.0;" x1="403.704" x2="773.9921" y1="463.1875" y2="463.1875"/><text fill="#000000" font-family="sans-serif" font-size="13" lengthAdjust="spacing" textLength="153.7656" x="415.704" y="458.1216">List&lt;ProductCategory&gt;</text><polygon fill="#A80036" points="221.9384,488.3203,211.9384,492.3203,221.9384,496.3203,217.9384,492.3203" style="stroke:#A80036;stroke-width:1.0;"/><line style="stroke:#A80036;stroke-width:1.0;stroke-dasharray:2.0,2.0;" x1="215.9384" x2="392.704" y1="492.3203" y2="492.3203"/><text fill="#000000" font-family="sans-serif" font-size="13" lengthAdjust="spacing" textLength="153.7656" x="227.9384" y="487.2544">List&lt;ProductCategory&gt;</text><polygon fill="#A80036" points="486.3891,517.4531,496.3891,521.4531,486.3891,525.4531,490.3891,521.4531" style="stroke:#A80036;stroke-width:1.0;"/><line style="stroke:#A80036;stroke-width:1.0;" x1="210.9384" x2="492.3891" y1="521.4531" y2="521.4531"/><text fill="#000000" font-family="sans-serif" font-size="13" lengthAdjust="spacing" textLength="50.9399" x="217.9384" y="516.3872">findAll()</text><polygon fill="#A80036" points="637.6259,546.5859,647.6259,550.5859,637.6259,554.5859,641.6259,550.5859" style="stroke:#A80036;stroke-width:1.0;"/><line style="stroke:#A80036;stroke-width:1.0;" x1="508.3891" x2="643.6259" y1="550.5859" y2="550.5859"/><text fill="#000000" font-family="sans-serif" font-size="13" lengthAdjust="spacing" textLength="50.9399" x="515.3891" y="545.52">findAll()</text><polygon fill="#A80036" points="945.7577,575.7188,955.7577,579.7188,945.7577,583.7188,949.7577,579.7188" style="stroke:#A80036;stroke-width:1.0;"/><line style="stroke:#A80036;stroke-width:1.0;" x1="659.6259" x2="951.7577" y1="579.7188" y2="579.7188"/><text fill="#000000" font-family="sans-serif" font-size="13" lengthAdjust="spacing" textLength="61.9404" x="666.6259" y="574.6528">SELECT&#25991;</text><polygon fill="#A80036" points="670.6259,604.8516,660.6259,608.8516,670.6259,612.8516,666.6259,608.8516" style="stroke:#A80036;stroke-width:1.0;"/><line style="stroke:#A80036;stroke-width:1.0;stroke-dasharray:2.0,2.0;" x1="664.6259" x2="961.7577" y1="608.8516" y2="608.8516"/><text fill="#000000" font-family="sans-serif" font-size="13" lengthAdjust="spacing" textLength="94.3833" x="676.6259" y="603.7856">List&lt;Product&gt;</text><polygon fill="#A80036" points="519.3891,633.9844,509.3891,637.9844,519.3891,641.9844,515.3891,637.9844" style="stroke:#A80036;stroke-width:1.0;"/><line style="stroke:#A80036;stroke-width:1.0;stroke-dasharray:2.0,2.0;" x1="513.3891" x2="653.6259" y1="637.9844" y2="637.9844"/><text fill="#000000" font-family="sans-serif" font-size="13" lengthAdjust="spacing" textLength="94.3833" x="525.3891" y="632.9185">List&lt;Product&gt;</text><polygon fill="#A80036" points="221.9384,663.1172,211.9384,667.1172,221.9384,671.1172,217.9384,667.1172" style="stroke:#A80036;stroke-width:1.0;"/><line style="stroke:#A80036;stroke-width:1.0;stroke-dasharray:2.0,2.0;" x1="215.9384" x2="502.3891" y1="667.1172" y2="667.1172"/><text fill="#000000" font-family="sans-serif" font-size="13" lengthAdjust="spacing" textLength="94.3833" x="227.9384" y="662.0513">List&lt;Product&gt;</text><line style="stroke:#A80036;stroke-width:1.0;" x1="210.9384" x2="252.9384" y1="711.3828" y2="711.3828"/><line style="stroke:#A80036;stroke-width:1.0;" x1="252.9384" x2="252.9384" y1="711.3828" y2="724.3828"/><line style="stroke:#A80036;stroke-width:1.0;" x1="211.9384" x2="252.9384" y1="724.3828" y2="724.3828"/><polygon fill="#A80036" points="221.9384,720.3828,211.9384,724.3828,221.9384,728.3828,217.9384,724.3828" style="stroke:#A80036;stroke-width:1.0;"/><text fill="#000000" font-family="sans-serif" font-size="13" lengthAdjust="spacing" textLength="65.3301" x="217.9384" y="691.1841">Mpdel&#36861;&#21152;</text><text fill="#000000" font-family="sans-serif" font-size="13" lengthAdjust="spacing" textLength="117.0001" x="217.9384" y="706.3169">&#65288;&#12459;&#12486;&#12468;&#12522;&#12522;&#12473;&#12488;&#65289;</text><line style="stroke:#A80036;stroke-width:1.0;" x1="210.9384" x2="252.9384" y1="768.6484" y2="768.6484"/><line style="stroke:#A80036;stroke-width:1.0;" x1="252.9384" x2="252.9384" y1="768.6484" y2="781.6484"/><line style="stroke:#A80036;stroke-width:1.0;" x1="211.9384" x2="252.9384" y1="781.6484" y2="781.6484"/><polygon fill="#A80036" points="221.9384,777.6484,211.9384,781.6484,221.9384,785.6484,217.9384,781.6484" style="stroke:#A80036;stroke-width:1.0;"/><text fill="#000000" font-family="sans-serif" font-size="13" lengthAdjust="spacing" textLength="65.0318" x="217.9384" y="748.4497">Model&#36861;&#21152;</text><text fill="#000000" font-family="sans-serif" font-size="13" lengthAdjust="spacing" textLength="91.0001" x="217.9384" y="763.5825">&#65288;&#21830;&#21697;&#12522;&#12473;&#12488;&#65289;</text><polygon fill="#A80036" points="44.9999,806.7813,34.9999,810.7813,44.9999,814.7813,40.9999,810.7813" style="stroke:#A80036;stroke-width:1.0;"/><line style="stroke:#A80036;stroke-width:1.0;" x1="38.9999" x2="204.9384" y1="810.7813" y2="810.7813"/><text fill="#000000" font-family="sans-serif" font-size="13" lengthAdjust="spacing" textLength="78.0001" x="50.9999" y="805.7153">&#26908;&#32034;&#21021;&#26399;&#30011;&#38754;</text><line style="stroke:#A80036;stroke-width:1.0;" x1="33.9999" x2="75.9999" y1="839.9141" y2="839.9141"/><line style="stroke:#A80036;stroke-width:1.0;" x1="75.9999" x2="75.9999" y1="839.9141" y2="852.9141"/><line style="stroke:#A80036;stroke-width:1.0;" x1="34.9999" x2="75.9999" y1="852.9141" y2="852.9141"/><polygon fill="#A80036" points="44.9999,848.9141,34.9999,852.9141,44.9999,856.9141,40.9999,852.9141" style="stroke:#A80036;stroke-width:1.0;"/><text fill="#000000" font-family="sans-serif" font-size="13" lengthAdjust="spacing" textLength="78.0001" x="40.9999" y="834.8481">&#12459;&#12486;&#12468;&#12522;&#36984;&#25246;</text><polygon fill="#A80036" points="188.9384,908.3125,198.9384,912.3125,188.9384,916.3125,192.9384,912.3125" style="stroke:#A80036;stroke-width:1.0;"/><line style="stroke:#A80036;stroke-width:1.0;" x1="33.9999" x2="194.9384" y1="912.3125" y2="912.3125"/><text fill="#000000" font-family="sans-serif" font-size="13" lengthAdjust="spacing" textLength="34.2646" x="40.9999" y="876.981">POST</text><text fill="#000000" font-family="sans-serif" font-size="13" lengthAdjust="spacing" textLength="147.9385" x="40.9999" y="892.1138">/admin/product-search</text><text fill="#000000" font-family="sans-serif" font-size="13" lengthAdjust="spacing" textLength="53.6123" x="40.9999" y="907.2466">search()</text><polygon fill="#A80036" points="486.3891,937.4453,496.3891,941.4453,486.3891,945.4453,490.3891,941.4453" style="stroke:#A80036;stroke-width:1.0;"/><line style="stroke:#A80036;stroke-width:1.0;" x1="210.9384" x2="492.3891" y1="941.4453" y2="941.4453"/><text fill="#000000" font-family="sans-serif" font-size="13" lengthAdjust="spacing" textLength="122.2368" x="217.9384" y="936.3794">findbyCategoryId()</text><polygon fill="#A80036" points="637.6259,966.5781,647.6259,970.5781,637.6259,974.5781,641.6259,970.5781" style="stroke:#A80036;stroke-width:1.0;"/><line style="stroke:#A80036;stroke-width:1.0;" x1="508.3891" x2="643.6259" y1="970.5781" y2="970.5781"/><text fill="#000000" font-family="sans-serif" font-size="13" lengthAdjust="spacing" textLength="122.2368" x="515.3891" y="965.5122">findbyCategoryId()</text><polygon fill="#A80036" points="945.7577,995.7109,955.7577,999.7109,945.7577,1003.7109,949.7577,999.7109" style="stroke:#A80036;stroke-width:1.0;"/><line style="stroke:#A80036;stroke-width:1.0;" x1="659.6259" x2="951.7577" y1="999.7109" y2="999.7109"/><text fill="#000000" font-family="sans-serif" font-size="13" lengthAdjust="spacing" textLength="61.9404" x="666.6259" y="994.645">SELECT&#25991;</text><polygon fill="#A80036" points="670.6259,1024.8438,660.6259,1028.8438,670.6259,1032.8438,666.6259,1028.8438" style="stroke:#A80036;stroke-width:1.0;"/><line style="stroke:#A80036;stroke-width:1.0;stroke-dasharray:2.0,2.0;" x1="664.6259" x2="961.7577" y1="1028.8438" y2="1028.8438"/><text fill="#000000" font-family="sans-serif" font-size="13" lengthAdjust="spacing" textLength="94.3833" x="676.6259" y="1023.7778">List&lt;Product&gt;</text><polygon fill="#A80036" points="519.3891,1053.9766,509.3891,1057.9766,519.3891,1061.9766,515.3891,1057.9766" style="stroke:#A80036;stroke-width:1.0;"/><line style="stroke:#A80036;stroke-width:1.0;stroke-dasharray:2.0,2.0;" x1="513.3891" x2="653.6259" y1="1057.9766" y2="1057.9766"/><text fill="#000000" font-family="sans-serif" font-size="13" lengthAdjust="spacing" textLength="94.3833" x="525.3891" y="1052.9106">List&lt;Product&gt;</text><polygon fill="#A80036" points="221.9384,1083.1094,211.9384,1087.1094,221.9384,1091.1094,217.9384,1087.1094" style="stroke:#A80036;stroke-width:1.0;"/><line style="stroke:#A80036;stroke-width:1.0;stroke-dasharray:2.0,2.0;" x1="215.9384" x2="502.3891" y1="1087.1094" y2="1087.1094"/><text fill="#000000" font-family="sans-serif" font-size="13" lengthAdjust="spacing" textLength="94.3833" x="227.9384" y="1082.0435">List&lt;Product&gt;</text><line style="stroke:#A80036;stroke-width:1.0;" x1="210.9384" x2="252.9384" y1="1131.375" y2="1131.375"/><line style="stroke:#A80036;stroke-width:1.0;" x1="252.9384" x2="252.9384" y1="1131.375" y2="1144.375"/><line style="stroke:#A80036;stroke-width:1.0;" x1="211.9384" x2="252.9384" y1="1144.375" y2="1144.375"/><polygon fill="#A80036" points="221.9384,1140.375,211.9384,1144.375,221.9384,1148.375,217.9384,1144.375" style="stroke:#A80036;stroke-width:1.0;"/><text fill="#000000" font-family="sans-serif" font-size="13" lengthAdjust="spacing" textLength="65.0318" x="217.9384" y="1111.1763">Model&#36861;&#21152;</text><text fill="#000000" font-family="sans-serif" font-size="13" lengthAdjust="spacing" textLength="104.0001" x="217.9384" y="1126.3091">&#65288;&#36984;&#25246;&#12459;&#12486;&#12468;&#12522;&#65289;</text><path d="M343.0001,1103.6094 L343.0001,1143.6094 L585.0001,1143.6094 L585.0001,1113.6094 L575.0001,1103.6094 L343.0001,1103.6094 " fill="#FBFB77" style="stroke:#A80036;stroke-width:1.0;"/><path d="M575.0001,1103.6094 L575.0001,1113.6094 L585.0001,1113.6094 L575.0001,1103.6094 " fill="#FBFB77" style="stroke:#A80036;stroke-width:1.0;"/><text fill="#000000" font-family="sans-serif" font-size="13" lengthAdjust="spacing" textLength="117.0001" x="349.0001" y="1120.6763">&#36984;&#25246;&#12375;&#12383;&#12459;&#12486;&#12468;&#12522;&#12364;</text><text fill="#000000" font-family="sans-serif" font-size="13" lengthAdjust="spacing" textLength="221.0003" x="349.0001" y="1135.8091">&#12475;&#12524;&#12463;&#12488;&#12508;&#12483;&#12463;&#12473;&#12391;&#36984;&#25246;&#12373;&#12428;&#12427;&#12424;&#12358;&#12395;</text><polygon fill="#A80036" points="39.9999,1169.5078,29.9999,1173.5078,39.9999,1177.5078,35.9999,1173.5078" style="stroke:#A80036;stroke-width:1.0;"/><line style="stroke:#A80036;stroke-width:1.0;" x1="33.9999" x2="204.9384" y1="1173.5078" y2="1173.5078"/><text fill="#000000" font-family="sans-serif" font-size="13" lengthAdjust="spacing" textLength="78.0001" x="45.9999" y="1168.4419">&#26908;&#32034;&#32080;&#26524;&#30011;&#38754;</text><!--SRC=[pLN1RjD04BtxArQv0AgYuXmZ50b2G4X5LAIzvRAnjyaAnxRMRb1ls4OXBJqWeE50sbG5DMeBgb02j4egFcORfptr5rZRSOWTnxaYHR5tvitipBoPiVO2ou0e6k8qzgP20Yj0AqDHUOdb4bY34jDmEjOb15QpTta-3GOxjS47m_xQ77OFxAFMbNK1gFcRMdrg_g1MXvhdWyyT3WgwGW2r3bt5Bm0riAuXuiXn5Uh8Ex7xT2nW5SewI2mJHLmNz3o2H2WNvAmYwqIH94GIZhKmFaPQPPdFaa8s2d8UaIeMa6kaLGK-4Zu5Iys0FKUgec6MouQB9Ep8pmaWmYJ5YL27HQWXa7Zum1MBHOwx1Rmo3kgxThCr_DYxtZtWdCA0P6OYOR2m0DBWSMwb82z2iOBbHTMxCwcDQYLXJRzzXvim2Jf8CufwrB9SejgCfU5-r_xocfCLnWJ1fRAU1fUz1ZKx3eDMdLhV7Twi8sgqFIWrFb7Za1hivPZz5-IGGsg-lpnxPJSsHvvZGj6Glge-KaWbFk8YbiKfX4EeLuurfhulIGpXofZEBNHOwGcPLYnwgdnkAPTTiHjlE2P9ZisIIQPROcMy5-8puxlmRuz1ZlI1H6BWKwcb8b9B-QdnKQdnSrEB23ZZc_gtHY16ylXKCd7yFLL595tzkHXixHVactwTcYVKgb6pIwrZvsUUiqQxwM_6-b22FhpT4sFj3OyJPyHaZUTj-FETlTSCpPlxT0RbNvZNnfczjJTp8fUVvMUFfFUCQk09beiRVZSy4MVJ7KBzxxo7EFEAE5bMXxR9pJD2E1kc5UWIOtkqPxvHyzHTIqrtvvmwz1jjtsw7cjlKV4lDEZLgr3YPqnC1zZaH1Jv9Vm40]--></g></svg>