<?xml version="1.0" encoding="UTF-8" standalone="no"?><svg xmlns="http://www.w3.org/2000/svg" xmlns:xlink="http://www.w3.org/1999/xlink" contentScriptType="application/ecmascript" contentStyleType="text/css" height="723px" preserveAspectRatio="none" style="width:791px;height:723px;background:#FFFFFF;" version="1.1" viewBox="0 0 791 723" width="791px" zoomAndPan="magnify"><defs/><g><text fill="#000000" font-family="sans-serif" font-size="18" lengthAdjust="spacing" textLength="149" x="314.5" y="17.4023">serviceパッケージ</text><!--MD5=[7579d5565d2521d5936cec86ed3dadee]
cluster service--><polygon fill="#FFFFFF" points="16,27.1992,72,27.1992,79,49.6875,774,49.6875,774,716.1992,16,716.1992,16,27.1992" style="stroke:#000000;stroke-width:1.5;"/><line style="stroke:#000000;stroke-width:1.5;" x1="16" x2="79" y1="49.6875" y2="49.6875"/><text fill="#000000" font-family="sans-serif" font-size="14" font-weight="bold" lengthAdjust="spacing" textLength="50" x="20" y="42.7344">service</text><!--MD5=[58a28f2d5507ae66b1dc95167690ce61]
class ProductService--><rect codeLine="6" fill="#FEFECE" height="117.7305" id="ProductService" style="stroke:#A80036;stroke-width:1.5;" width="333" x="32" y="62.1992"/><ellipse cx="152.25" cy="78.1992" fill="#B4A7E5" rx="11" ry="11" style="stroke:#A80036;stroke-width:1.0;"/><path d="M148.6777,74.4644 L148.6777,72.3062 L156.0571,72.3062 L156.0571,74.4644 L153.5918,74.4644 L153.5918,82.541 L156.0571,82.541 L156.0571,84.6992 L148.6777,84.6992 L148.6777,82.541 L151.1431,82.541 L151.1431,74.4644 Z " fill="#000000"/><text fill="#000000" font-family="sans-serif" font-size="12" font-style="italic" lengthAdjust="spacing" textLength="84" x="172.75" y="82.7344">ProductService</text><line style="stroke:#A80036;stroke-width:1.5;" x1="33" x2="364" y1="94.1992" y2="94.1992"/><ellipse cx="43" cy="105.1992" fill="#84BE84" rx="3" ry="3" style="stroke:#038048;stroke-width:1.0;"/><text fill="#000000" font-family="sans-serif" font-size="11" font-style="italic" lengthAdjust="spacing" textLength="131" x="52" y="108.834">findAll() : List&lt;Product&gt;</text><ellipse cx="43" cy="118.1543" fill="#84BE84" rx="3" ry="3" style="stroke:#038048;stroke-width:1.0;"/><text fill="#000000" font-family="sans-serif" font-size="11" font-style="italic" lengthAdjust="spacing" textLength="307" x="52" y="121.7891">findByCategoryId(int productCategoryId) : List&lt;Product&gt;</text><ellipse cx="43" cy="131.1094" fill="#84BE84" rx="3" ry="3" style="stroke:#038048;stroke-width:1.0;"/><text fill="#000000" font-family="sans-serif" font-size="11" font-style="italic" lengthAdjust="spacing" textLength="153" x="52" y="134.7441">findById(Integer id) : Product</text><ellipse cx="43" cy="144.0645" fill="#84BE84" rx="3" ry="3" style="stroke:#038048;stroke-width:1.0;"/><text fill="#000000" font-family="sans-serif" font-size="11" font-style="italic" lengthAdjust="spacing" textLength="159" x="52" y="147.6992">insert(Product product) : void</text><ellipse cx="43" cy="157.0195" fill="#84BE84" rx="3" ry="3" style="stroke:#038048;stroke-width:1.0;"/><text fill="#000000" font-family="sans-serif" font-size="11" font-style="italic" lengthAdjust="spacing" textLength="165" x="52" y="160.6543">update(Product product) : void</text><ellipse cx="43" cy="169.9746" fill="#84BE84" rx="3" ry="3" style="stroke:#038048;stroke-width:1.0;"/><text fill="#000000" font-family="sans-serif" font-size="11" font-style="italic" lengthAdjust="spacing" textLength="123" x="52" y="173.6094">delete(Integer id) : void</text><!--MD5=[995e7ea07ac4e414ed6eb23d37d5a552]
class ProductServiceImpl--><rect codeLine="14" fill="#FEFECE" height="117.7305" id="ProductServiceImpl" style="stroke:#A80036;stroke-width:1.5;" width="333" x="425" y="62.1992"/><ellipse cx="532.75" cy="78.1992" fill="#ADD1B2" rx="11" ry="11" style="stroke:#A80036;stroke-width:1.0;"/><path d="M535.2231,84.3423 Q534.6421,84.6411 534.0029,84.7905 Q533.3638,84.9399 532.6582,84.9399 Q530.1514,84.9399 528.8315,83.2881 Q527.5117,81.6362 527.5117,78.5151 Q527.5117,75.3857 528.8315,73.7339 Q530.1514,72.082 532.6582,72.082 Q533.3638,72.082 534.0112,72.2314 Q534.6587,72.3809 535.2231,72.6797 L535.2231,75.4023 Q534.5923,74.8213 533.9988,74.5515 Q533.4053,74.2817 532.7744,74.2817 Q531.4297,74.2817 530.7449,75.3484 Q530.0601,76.415 530.0601,78.5151 Q530.0601,80.6069 530.7449,81.6736 Q531.4297,82.7402 532.7744,82.7402 Q533.4053,82.7402 533.9988,82.4705 Q534.5923,82.2007 535.2231,81.6196 Z " fill="#000000"/><text fill="#000000" font-family="sans-serif" font-size="12" lengthAdjust="spacing" textLength="109" x="553.25" y="82.7344">ProductServiceImpl</text><line style="stroke:#A80036;stroke-width:1.5;" x1="426" x2="757" y1="94.1992" y2="94.1992"/><ellipse cx="436" cy="105.1992" fill="#84BE84" rx="3" ry="3" style="stroke:#038048;stroke-width:1.0;"/><text fill="#000000" font-family="sans-serif" font-size="11" lengthAdjust="spacing" textLength="131" x="445" y="108.834">findAll() : List&lt;Product&gt;</text><ellipse cx="436" cy="118.1543" fill="#84BE84" rx="3" ry="3" style="stroke:#038048;stroke-width:1.0;"/><text fill="#000000" font-family="sans-serif" font-size="11" lengthAdjust="spacing" textLength="307" x="445" y="121.7891">findByCategoryId(int productCategoryId) : List&lt;Product&gt;</text><ellipse cx="436" cy="131.1094" fill="#84BE84" rx="3" ry="3" style="stroke:#038048;stroke-width:1.0;"/><text fill="#000000" font-family="sans-serif" font-size="11" lengthAdjust="spacing" textLength="153" x="445" y="134.7441">findById(Integer id) : Product</text><ellipse cx="436" cy="144.0645" fill="#84BE84" rx="3" ry="3" style="stroke:#038048;stroke-width:1.0;"/><text fill="#000000" font-family="sans-serif" font-size="11" lengthAdjust="spacing" textLength="159" x="445" y="147.6992">insert(Product product) : void</text><ellipse cx="436" cy="157.0195" fill="#84BE84" rx="3" ry="3" style="stroke:#038048;stroke-width:1.0;"/><text fill="#000000" font-family="sans-serif" font-size="11" lengthAdjust="spacing" textLength="165" x="445" y="160.6543">update(Product product) : void</text><ellipse cx="436" cy="169.9746" fill="#84BE84" rx="3" ry="3" style="stroke:#038048;stroke-width:1.0;"/><text fill="#000000" font-family="sans-serif" font-size="11" lengthAdjust="spacing" textLength="123" x="445" y="173.6094">delete(Integer id) : void</text><!--MD5=[46c2be75f30f3dbee4802f1162887fb5]
class ProductCategoryService--><rect codeLine="23" fill="#FEFECE" height="78.8652" id="ProductCategoryService" style="stroke:#A80036;stroke-width:1.5;" width="283" x="57" y="215.6992"/><ellipse cx="126.75" cy="231.6992" fill="#B4A7E5" rx="11" ry="11" style="stroke:#A80036;stroke-width:1.0;"/><path d="M123.1777,227.9644 L123.1777,225.8062 L130.5571,225.8062 L130.5571,227.9644 L128.0918,227.9644 L128.0918,236.041 L130.5571,236.041 L130.5571,238.1992 L123.1777,238.1992 L123.1777,236.041 L125.6431,236.041 L125.6431,227.9644 Z " fill="#000000"/><text fill="#000000" font-family="sans-serif" font-size="12" font-style="italic" lengthAdjust="spacing" textLength="135" x="147.25" y="236.2344">ProductCategoryService</text><line style="stroke:#A80036;stroke-width:1.5;" x1="58" x2="339" y1="247.6992" y2="247.6992"/><ellipse cx="68" cy="258.6992" fill="#84BE84" rx="3" ry="3" style="stroke:#038048;stroke-width:1.0;"/><text fill="#000000" font-family="sans-serif" font-size="11" font-style="italic" lengthAdjust="spacing" textLength="180" x="77" y="262.334">findAll() : List&lt;ProductCategory&gt;</text><ellipse cx="68" cy="271.6543" fill="#84BE84" rx="3" ry="3" style="stroke:#038048;stroke-width:1.0;"/><text fill="#000000" font-family="sans-serif" font-size="11" font-style="italic" lengthAdjust="spacing" textLength="202" x="77" y="275.2891">findById(Integer id) : ProductCategory</text><ellipse cx="68" cy="284.6094" fill="#84BE84" rx="3" ry="3" style="stroke:#038048;stroke-width:1.0;"/><text fill="#000000" font-family="sans-serif" font-size="11" font-style="italic" lengthAdjust="spacing" textLength="257" x="77" y="288.2441">insert(ProductCategory productCategory) : void</text><!--MD5=[5aefabacba69a69834d0fa5e3bc6bc6c]
class ProductCategoryServiceImpl--><rect codeLine="28" fill="#FEFECE" height="78.8652" id="ProductCategoryServiceImpl" style="stroke:#A80036;stroke-width:1.5;" width="283" x="450" y="215.6992"/><ellipse cx="507.25" cy="231.6992" fill="#ADD1B2" rx="11" ry="11" style="stroke:#A80036;stroke-width:1.0;"/><path d="M509.7231,237.8423 Q509.1421,238.1411 508.5029,238.2905 Q507.8638,238.4399 507.1582,238.4399 Q504.6514,238.4399 503.3315,236.7881 Q502.0117,235.1362 502.0117,232.0151 Q502.0117,228.8857 503.3315,227.2339 Q504.6514,225.582 507.1582,225.582 Q507.8638,225.582 508.5112,225.7314 Q509.1587,225.8809 509.7231,226.1797 L509.7231,228.9023 Q509.0923,228.3213 508.4988,228.0515 Q507.9053,227.7817 507.2744,227.7817 Q505.9297,227.7817 505.2449,228.8484 Q504.5601,229.915 504.5601,232.0151 Q504.5601,234.1069 505.2449,235.1736 Q505.9297,236.2402 507.2744,236.2402 Q507.9053,236.2402 508.4988,235.9705 Q509.0923,235.7007 509.7231,235.1196 Z " fill="#000000"/><text fill="#000000" font-family="sans-serif" font-size="12" lengthAdjust="spacing" textLength="160" x="527.75" y="236.2344">ProductCategoryServiceImpl</text><line style="stroke:#A80036;stroke-width:1.5;" x1="451" x2="732" y1="247.6992" y2="247.6992"/><ellipse cx="461" cy="258.6992" fill="#84BE84" rx="3" ry="3" style="stroke:#038048;stroke-width:1.0;"/><text fill="#000000" font-family="sans-serif" font-size="11" lengthAdjust="spacing" textLength="180" x="470" y="262.334">findAll() : List&lt;ProductCategory&gt;</text><ellipse cx="461" cy="271.6543" fill="#84BE84" rx="3" ry="3" style="stroke:#038048;stroke-width:1.0;"/><text fill="#000000" font-family="sans-serif" font-size="11" lengthAdjust="spacing" textLength="202" x="470" y="275.2891">findById(Integer id) : ProductCategory</text><ellipse cx="461" cy="284.6094" fill="#84BE84" rx="3" ry="3" style="stroke:#038048;stroke-width:1.0;"/><text fill="#000000" font-family="sans-serif" font-size="11" lengthAdjust="spacing" textLength="257" x="470" y="288.2441">insert(ProductCategory productCategory) : void</text><!--MD5=[4d07fe4bed074ae1698a4d0d0c4eec02]
class EmployeeAccountService--><rect codeLine="35" fill="#FEFECE" height="91.8203" id="EmployeeAccountService" style="stroke:#A80036;stroke-width:1.5;" width="292" x="52.5" y="330.1992"/><ellipse cx="123.75" cy="346.1992" fill="#B4A7E5" rx="11" ry="11" style="stroke:#A80036;stroke-width:1.0;"/><path d="M120.1777,342.4644 L120.1777,340.3062 L127.5571,340.3062 L127.5571,342.4644 L125.0918,342.4644 L125.0918,350.541 L127.5571,350.541 L127.5571,352.6992 L120.1777,352.6992 L120.1777,350.541 L122.6431,350.541 L122.6431,342.4644 Z " fill="#000000"/><text fill="#000000" font-family="sans-serif" font-size="12" font-style="italic" lengthAdjust="spacing" textLength="141" x="144.25" y="350.7344">EmployeeAccountService</text><line style="stroke:#A80036;stroke-width:1.5;" x1="53.5" x2="343.5" y1="362.1992" y2="362.1992"/><ellipse cx="63.5" cy="373.1992" fill="#84BE84" rx="3" ry="3" style="stroke:#038048;stroke-width:1.0;"/><text fill="#000000" font-family="sans-serif" font-size="11" font-style="italic" lengthAdjust="spacing" textLength="185" x="72.5" y="376.834">findAll() : List&lt;EmployeeAccount&gt;</text><ellipse cx="63.5" cy="386.1543" fill="#84BE84" rx="3" ry="3" style="stroke:#038048;stroke-width:1.0;"/><text fill="#000000" font-family="sans-serif" font-size="11" font-style="italic" lengthAdjust="spacing" textLength="207" x="72.5" y="389.7891">findById(Integer id) : EmployeeAccount</text><ellipse cx="63.5" cy="399.1094" fill="#84BE84" rx="3" ry="3" style="stroke:#038048;stroke-width:1.0;"/><text fill="#000000" font-family="sans-serif" font-size="11" font-style="italic" lengthAdjust="spacing" textLength="184" x="72.5" y="402.7441">isExist(String userName) : boolean</text><ellipse cx="63.5" cy="412.0645" fill="#84BE84" rx="3" ry="3" style="stroke:#038048;stroke-width:1.0;"/><text fill="#000000" font-family="sans-serif" font-size="11" font-style="italic" lengthAdjust="spacing" textLength="266" x="72.5" y="415.6992">insert(EmployeeAccount employeeAccount) : void</text><!--MD5=[e43d1cfc79d1d44b27f2e6940b1b0b9d]
class EmployeeAccountServiceImpl--><rect codeLine="41" fill="#FEFECE" height="91.8203" id="EmployeeAccountServiceImpl" style="stroke:#A80036;stroke-width:1.5;" width="292" x="445.5" y="330.1992"/><ellipse cx="504.25" cy="346.1992" fill="#ADD1B2" rx="11" ry="11" style="stroke:#A80036;stroke-width:1.0;"/><path d="M506.7231,352.3423 Q506.1421,352.6411 505.5029,352.7905 Q504.8638,352.9399 504.1582,352.9399 Q501.6514,352.9399 500.3315,351.2881 Q499.0117,349.6362 499.0117,346.5151 Q499.0117,343.3857 500.3315,341.7339 Q501.6514,340.082 504.1582,340.082 Q504.8638,340.082 505.5112,340.2314 Q506.1587,340.3809 506.7231,340.6797 L506.7231,343.4023 Q506.0923,342.8213 505.4988,342.5515 Q504.9053,342.2817 504.2744,342.2817 Q502.9297,342.2817 502.2449,343.3484 Q501.5601,344.415 501.5601,346.5151 Q501.5601,348.6069 502.2449,349.6736 Q502.9297,350.7402 504.2744,350.7402 Q504.9053,350.7402 505.4988,350.4705 Q506.0923,350.2007 506.7231,349.6196 Z " fill="#000000"/><text fill="#000000" font-family="sans-serif" font-size="12" lengthAdjust="spacing" textLength="166" x="524.75" y="350.7344">EmployeeAccountServiceImpl</text><line style="stroke:#A80036;stroke-width:1.5;" x1="446.5" x2="736.5" y1="362.1992" y2="362.1992"/><ellipse cx="456.5" cy="373.1992" fill="#84BE84" rx="3" ry="3" style="stroke:#038048;stroke-width:1.0;"/><text fill="#000000" font-family="sans-serif" font-size="11" lengthAdjust="spacing" textLength="185" x="465.5" y="376.834">findAll() : List&lt;EmployeeAccount&gt;</text><ellipse cx="456.5" cy="386.1543" fill="#84BE84" rx="3" ry="3" style="stroke:#038048;stroke-width:1.0;"/><text fill="#000000" font-family="sans-serif" font-size="11" lengthAdjust="spacing" textLength="207" x="465.5" y="389.7891">findById(Integer id) : EmployeeAccount</text><ellipse cx="456.5" cy="399.1094" fill="#84BE84" rx="3" ry="3" style="stroke:#038048;stroke-width:1.0;"/><text fill="#000000" font-family="sans-serif" font-size="11" lengthAdjust="spacing" textLength="184" x="465.5" y="402.7441">isExist(String userName) : boolean</text><ellipse cx="456.5" cy="412.0645" fill="#84BE84" rx="3" ry="3" style="stroke:#038048;stroke-width:1.0;"/><text fill="#000000" font-family="sans-serif" font-size="11" lengthAdjust="spacing" textLength="266" x="465.5" y="415.6992">insert(EmployeeAccount employeeAccount) : void</text><!--MD5=[0f20495fd379aae9fdd57608b6a794fe]
class EmployeeService--><rect codeLine="47" fill="#FEFECE" height="52.9551" id="EmployeeService" style="stroke:#A80036;stroke-width:1.5;" width="166" x="115.5" y="457.6992"/><ellipse cx="147.6" cy="473.6992" fill="#B4A7E5" rx="11" ry="11" style="stroke:#A80036;stroke-width:1.0;"/><path d="M144.0277,469.9644 L144.0277,467.8062 L151.4071,467.8062 L151.4071,469.9644 L148.9418,469.9644 L148.9418,478.041 L151.4071,478.041 L151.4071,480.1992 L144.0277,480.1992 L144.0277,478.041 L146.4931,478.041 L146.4931,469.9644 Z " fill="#000000"/><text fill="#000000" font-family="sans-serif" font-size="12" font-style="italic" lengthAdjust="spacing" textLength="96" x="165.4" y="478.2344">EmployeeService</text><line style="stroke:#A80036;stroke-width:1.5;" x1="116.5" x2="280.5" y1="489.6992" y2="489.6992"/><ellipse cx="126.5" cy="500.6992" fill="#84BE84" rx="3" ry="3" style="stroke:#038048;stroke-width:1.0;"/><text fill="#000000" font-family="sans-serif" font-size="11" font-style="italic" lengthAdjust="spacing" textLength="140" x="135.5" y="504.334">findAll() : List&lt;Employee&gt;</text><!--MD5=[11bfd379c9bf15b9dc51a6e36b83315c]
class EmployeeServiceImpl--><rect codeLine="50" fill="#FEFECE" height="52.9551" id="EmployeeServiceImpl" style="stroke:#A80036;stroke-width:1.5;" width="166" x="508.5" y="457.6992"/><ellipse cx="529.35" cy="473.6992" fill="#ADD1B2" rx="11" ry="11" style="stroke:#A80036;stroke-width:1.0;"/><path d="M531.8231,479.8423 Q531.2421,480.1411 530.6029,480.2905 Q529.9638,480.4399 529.2582,480.4399 Q526.7514,480.4399 525.4315,478.7881 Q524.1117,477.1362 524.1117,474.0151 Q524.1117,470.8857 525.4315,469.2339 Q526.7514,467.582 529.2582,467.582 Q529.9638,467.582 530.6112,467.7314 Q531.2587,467.8809 531.8231,468.1797 L531.8231,470.9023 Q531.1923,470.3213 530.5988,470.0515 Q530.0053,469.7817 529.3744,469.7817 Q528.0297,469.7817 527.3449,470.8484 Q526.6601,471.915 526.6601,474.0151 Q526.6601,476.1069 527.3449,477.1736 Q528.0297,478.2402 529.3744,478.2402 Q530.0053,478.2402 530.5988,477.9705 Q531.1923,477.7007 531.8231,477.1196 Z " fill="#000000"/><text fill="#000000" font-family="sans-serif" font-size="12" lengthAdjust="spacing" textLength="121" x="544.65" y="478.2344">EmployeeServiceImpl</text><line style="stroke:#A80036;stroke-width:1.5;" x1="509.5" x2="673.5" y1="489.6992" y2="489.6992"/><ellipse cx="519.5" cy="500.6992" fill="#84BE84" rx="3" ry="3" style="stroke:#038048;stroke-width:1.0;"/><text fill="#000000" font-family="sans-serif" font-size="11" lengthAdjust="spacing" textLength="140" x="528.5" y="504.334">findAll() : List&lt;Employee&gt;</text><!--MD5=[d15d779f82eb0841a74074b76eee0862]
class CustomerService--><rect codeLine="53" fill="#FEFECE" height="52.9551" id="CustomerService" style="stroke:#A80036;stroke-width:1.5;" width="161" x="118" y="545.6992"/><ellipse cx="148.3" cy="561.6992" fill="#B4A7E5" rx="11" ry="11" style="stroke:#A80036;stroke-width:1.0;"/><path d="M144.7277,557.9644 L144.7277,555.8062 L152.1071,555.8062 L152.1071,557.9644 L149.6418,557.9644 L149.6418,566.041 L152.1071,566.041 L152.1071,568.1992 L144.7277,568.1992 L144.7277,566.041 L147.1931,566.041 L147.1931,557.9644 Z " fill="#000000"/><text fill="#000000" font-family="sans-serif" font-size="12" font-style="italic" lengthAdjust="spacing" textLength="95" x="165.7" y="566.2344">CustomerService</text><line style="stroke:#A80036;stroke-width:1.5;" x1="119" x2="278" y1="577.6992" y2="577.6992"/><ellipse cx="129" cy="588.6992" fill="#84BE84" rx="3" ry="3" style="stroke:#038048;stroke-width:1.0;"/><text fill="#000000" font-family="sans-serif" font-size="11" font-style="italic" lengthAdjust="spacing" textLength="135" x="138" y="592.334">registerCustomer() : void</text><!--MD5=[4710f7781af61cefc2e39e8ae1f29ef6]
class CustomerServiceImpl--><rect codeLine="56" fill="#FEFECE" height="52.9551" id="CustomerServiceImpl" style="stroke:#A80036;stroke-width:1.5;" width="161" x="511" y="545.6992"/><ellipse cx="530.05" cy="561.6992" fill="#ADD1B2" rx="11" ry="11" style="stroke:#A80036;stroke-width:1.0;"/><path d="M532.5231,567.8423 Q531.9421,568.1411 531.3029,568.2905 Q530.6638,568.4399 529.9582,568.4399 Q527.4514,568.4399 526.1315,566.7881 Q524.8117,565.1362 524.8117,562.0151 Q524.8117,558.8857 526.1315,557.2339 Q527.4514,555.582 529.9582,555.582 Q530.6638,555.582 531.3112,555.7314 Q531.9587,555.8809 532.5231,556.1797 L532.5231,558.9023 Q531.8923,558.3213 531.2988,558.0515 Q530.7053,557.7817 530.0744,557.7817 Q528.7297,557.7817 528.0449,558.8484 Q527.3601,559.915 527.3601,562.0151 Q527.3601,564.1069 528.0449,565.1736 Q528.7297,566.2402 530.0744,566.2402 Q530.7053,566.2402 531.2988,565.9705 Q531.8923,565.7007 532.5231,565.1196 Z " fill="#000000"/><text fill="#000000" font-family="sans-serif" font-size="12" lengthAdjust="spacing" textLength="120" x="544.95" y="566.2344">CustomerServiceImpl</text><line style="stroke:#A80036;stroke-width:1.5;" x1="512" x2="671" y1="577.6992" y2="577.6992"/><ellipse cx="522" cy="588.6992" fill="#84BE84" rx="3" ry="3" style="stroke:#038048;stroke-width:1.0;"/><text fill="#000000" font-family="sans-serif" font-size="11" lengthAdjust="spacing" textLength="135" x="531" y="592.334">registerCustomer() : void</text><!--MD5=[7655a4d4bd54a6253b7313a085dd4122]
class OrderService--><rect codeLine="59" fill="#FEFECE" height="65.9102" id="OrderService" style="stroke:#A80036;stroke-width:1.5;" width="168" x="114.5" y="634.1992"/><ellipse cx="157.4" cy="650.1992" fill="#B4A7E5" rx="11" ry="11" style="stroke:#A80036;stroke-width:1.0;"/><path d="M153.8277,646.4644 L153.8277,644.3062 L161.2071,644.3062 L161.2071,646.4644 L158.7418,646.4644 L158.7418,654.541 L161.2071,654.541 L161.2071,656.6992 L153.8277,656.6992 L153.8277,654.541 L156.2931,654.541 L156.2931,646.4644 Z " fill="#000000"/><text fill="#000000" font-family="sans-serif" font-size="12" font-style="italic" lengthAdjust="spacing" textLength="74" x="177.6" y="654.7344">OrderService</text><line style="stroke:#A80036;stroke-width:1.5;" x1="115.5" x2="281.5" y1="666.1992" y2="666.1992"/><ellipse cx="125.5" cy="677.1992" fill="#84BE84" rx="3" ry="3" style="stroke:#038048;stroke-width:1.0;"/><text fill="#000000" font-family="sans-serif" font-size="11" font-style="italic" lengthAdjust="spacing" textLength="92" x="134.5" y="680.834">addOrder() : void</text><ellipse cx="125.5" cy="690.1543" fill="#84BE84" rx="3" ry="3" style="stroke:#038048;stroke-width:1.0;"/><text fill="#000000" font-family="sans-serif" font-size="11" font-style="italic" lengthAdjust="spacing" textLength="142" x="134.5" y="693.7891">updateOrderStatus() : void</text><!--MD5=[6bdff844b087db04de33b3e9814c0adf]
class OrderServiceImpl--><rect codeLine="63" fill="#FEFECE" height="65.9102" id="OrderServiceImpl" style="stroke:#A80036;stroke-width:1.5;" width="168" x="507.5" y="634.1992"/><ellipse cx="539.15" cy="650.1992" fill="#ADD1B2" rx="11" ry="11" style="stroke:#A80036;stroke-width:1.0;"/><path d="M541.6231,656.3423 Q541.0421,656.6411 540.4029,656.7905 Q539.7638,656.9399 539.0582,656.9399 Q536.5514,656.9399 535.2315,655.2881 Q533.9117,653.6362 533.9117,650.5151 Q533.9117,647.3857 535.2315,645.7339 Q536.5514,644.082 539.0582,644.082 Q539.7638,644.082 540.4112,644.2314 Q541.0587,644.3809 541.6231,644.6797 L541.6231,647.4023 Q540.9923,646.8213 540.3988,646.5515 Q539.8053,646.2817 539.1744,646.2817 Q537.8297,646.2817 537.1449,647.3484 Q536.4601,648.415 536.4601,650.5151 Q536.4601,652.6069 537.1449,653.6736 Q537.8297,654.7402 539.1744,654.7402 Q539.8053,654.7402 540.3988,654.4705 Q540.9923,654.2007 541.6231,653.6196 Z " fill="#000000"/><text fill="#000000" font-family="sans-serif" font-size="12" lengthAdjust="spacing" textLength="99" x="556.85" y="654.7344">OrderServiceImpl</text><line style="stroke:#A80036;stroke-width:1.5;" x1="508.5" x2="674.5" y1="666.1992" y2="666.1992"/><ellipse cx="518.5" cy="677.1992" fill="#84BE84" rx="3" ry="3" style="stroke:#038048;stroke-width:1.0;"/><text fill="#000000" font-family="sans-serif" font-size="11" lengthAdjust="spacing" textLength="92" x="527.5" y="680.834">addOrder() : void</text><ellipse cx="518.5" cy="690.1543" fill="#84BE84" rx="3" ry="3" style="stroke:#038048;stroke-width:1.0;"/><text fill="#000000" font-family="sans-serif" font-size="11" lengthAdjust="spacing" textLength="142" x="527.5" y="693.7891">updateOrderStatus() : void</text><!--MD5=[3764257b184502bf476b8b977be14af9]
reverse link EmployeeAccountService to EmployeeAccountServiceImpl--><path codeLine="69" d="M364.82,376.1992 C391.59,376.1992 419.13,376.1992 445.37,376.1992 " fill="none" id="EmployeeAccountService-backto-EmployeeAccountServiceImpl" style="stroke:#A80036;stroke-width:1.0;stroke-dasharray:7.0,7.0;"/><polygon fill="none" points="364.54,383.1992,344.54,376.1992,364.54,369.1992,364.54,383.1992" style="stroke:#A80036;stroke-width:1.0;"/><!--MD5=[896e97745a21213b4bb3bd58c66b0a2f]
reverse link EmployeeService to EmployeeServiceImpl--><path codeLine="70" d="M302.15,484.1992 C366.43,484.1992 448.15,484.1992 508.17,484.1992 " fill="none" id="EmployeeService-backto-EmployeeServiceImpl" style="stroke:#A80036;stroke-width:1.0;stroke-dasharray:7.0,7.0;"/><polygon fill="none" points="301.94,491.1992,281.94,484.1992,301.94,477.1992,301.94,491.1992" style="stroke:#A80036;stroke-width:1.0;"/><!--MD5=[fc0c862082617d1001ad601301e2cdc2]
reverse link ProductService to ProductServiceImpl--><path codeLine="71" d="M385.09,121.1992 C398.35,121.1992 411.68,121.1992 424.82,121.1992 " fill="none" id="ProductService-backto-ProductServiceImpl" style="stroke:#A80036;stroke-width:1.0;stroke-dasharray:7.0,7.0;"/><polygon fill="none" points="385.04,128.1992,365.04,121.1992,385.04,114.1992,385.04,128.1992" style="stroke:#A80036;stroke-width:1.0;"/><!--MD5=[41468604228f3319839cd0aae778c8fc]
reverse link ProductCategoryService to ProductCategoryServiceImpl--><path codeLine="72" d="M360.43,255.1992 C390.08,255.1992 420.83,255.1992 449.83,255.1992 " fill="none" id="ProductCategoryService-backto-ProductCategoryServiceImpl" style="stroke:#A80036;stroke-width:1.0;stroke-dasharray:7.0,7.0;"/><polygon fill="none" points="360.11,262.1992,340.11,255.1992,360.11,248.1992,360.11,262.1992" style="stroke:#A80036;stroke-width:1.0;"/><!--MD5=[72f8ec6e52ca709a8299e36a69ad1843]
reverse link CustomerService to CustomerServiceImpl--><path codeLine="73" d="M299.23,572.1992 C364.83,572.1992 449.54,572.1992 510.68,572.1992 " fill="none" id="CustomerService-backto-CustomerServiceImpl" style="stroke:#A80036;stroke-width:1.0;stroke-dasharray:7.0,7.0;"/><polygon fill="none" points="299.1,579.1992,279.1,572.1992,299.1,565.1992,299.1,579.1992" style="stroke:#A80036;stroke-width:1.0;"/><!--MD5=[40e530a4467f601da2ee54d7d7595ae4]
reverse link OrderService to OrderServiceImpl--><path codeLine="74" d="M302.98,667.1992 C366.79,667.1992 447.56,667.1992 507.23,667.1992 " fill="none" id="OrderService-backto-OrderServiceImpl" style="stroke:#A80036;stroke-width:1.0;stroke-dasharray:7.0,7.0;"/><polygon fill="none" points="302.9,674.1992,282.9,667.1992,302.9,660.1992,302.9,674.1992" style="stroke:#A80036;stroke-width:1.0;"/><!--MD5=[c0ff410eebc374f7d7f70f7949b89fb4]
@startuml
skin rose
skinparam shadowing false
hide empty methods
hide empty fields

title serviceパッケージ
left to right direction

package service{
    interface ProductService{
        + {abstract} findAll() : List<Product>
        + {abstract} findByCategoryId(int productCategoryId) : List<Product>
        + {abstract} findById(Integer id) : Product
        + {abstract} insert(Product product) : void
        + {abstract} update(Product product) : void
        + {abstract} delete(Integer id) : void
    }
    class ProductServiceImpl{
        + findAll() : List<Product>
        + findByCategoryId(int productCategoryId) : List<Product>
        + findById(Integer id) : Product
        + insert(Product product) : void
        + update(Product product) : void
        + delete(Integer id) : void
    }

    interface ProductCategoryService{
        + {abstract} findAll() : List<ProductCategory>
        + {abstract} findById(Integer id) : ProductCategory
        + {abstract} insert(ProductCategory productCategory) : void
    }
    class ProductCategoryServiceImpl{
        + findAll() : List<ProductCategory>
        + findById(Integer id) : ProductCategory
        + insert(ProductCategory productCategory) : void
    }


    interface EmployeeAccountService{
        + {abstract} findAll() : List<EmployeeAccount>
        + {abstract} findById(Integer id) : EmployeeAccount
        + {abstract} isExist(String userName) : boolean
        + {abstract} insert(EmployeeAccount employeeAccount) : void
    }
    class EmployeeAccountServiceImpl{
        + findAll() : List<EmployeeAccount>
        + findById(Integer id) : EmployeeAccount
        + isExist(String userName) : boolean
        + insert(EmployeeAccount employeeAccount) : void
    }
    interface EmployeeService{
        + {abstract} findAll() : List<Employee>
    }
    class EmployeeServiceImpl{
         + findAll() : List<Employee>
    }
    interface CustomerService{
        + {abstract} registerCustomer() : void
    }
    class CustomerServiceImpl{
        + registerCustomer() : void
    }
    interface OrderService{
        + {abstract} addOrder() : void
        + {abstract} updateOrderStatus() : void
    }
    class OrderServiceImpl{
        + addOrder() : void
        + updateOrderStatus() : void
    }
}

EmployeeAccountService <|.. EmployeeAccountServiceImpl
EmployeeService <|.. EmployeeServiceImpl
ProductService <|.. ProductServiceImpl
ProductCategoryService <|.. ProductCategoryServiceImpl
CustomerService <|.. CustomerServiceImpl
OrderService <|.. OrderServiceImpl
@enduml

PlantUML version 1.2022.0(Wed Jan 12 01:16:42 JST 2022)
(GPL source distribution)
Java Runtime: OpenJDK Runtime Environment
JVM: OpenJDK 64-Bit Server VM
Default Encoding: UTF-8
Language: ja
Country: JP
--></g></svg>