<?xml version="1.0" encoding="UTF-8" standalone="no"?><svg xmlns="http://www.w3.org/2000/svg" xmlns:xlink="http://www.w3.org/1999/xlink" contentScriptType="application/ecmascript" contentStyleType="text/css" height="1937px" preserveAspectRatio="none" style="width:1273px;height:1937px;background:#FFFFFF;" version="1.1" viewBox="0 0 1273 1937" width="1273px" zoomAndPan="magnify"><defs/><g><text fill="#000000" font-family="sans-serif" font-size="18" lengthAdjust="spacing" textLength="108" x="576.25" y="17.4023">概要クラス図</text><!--MD5=[c62f5368f6b97fb7ba2b73916e284154]
cluster com.fullness.ec--><polygon fill="#FFFFFF" points="16,27.1992,131,27.1992,138,49.6875,1256.5,49.6875,1256.5,1930.1992,16,1930.1992,16,27.1992" style="stroke:#000000;stroke-width:1.5;"/><line style="stroke:#000000;stroke-width:1.5;" x1="16" x2="138" y1="49.6875" y2="49.6875"/><text fill="#000000" font-family="sans-serif" font-size="14" font-weight="bold" lengthAdjust="spacing" textLength="109" x="20" y="42.7344">com.fullness.ec</text><!--MD5=[bd0bd4c41e0e5269e37474fd45a6abb7]
cluster repository--><polygon fill="#FFFFFF" points="67.5,70.1992,147.5,70.1992,154.5,92.6875,612.5,92.6875,612.5,305.1992,67.5,305.1992,67.5,70.1992" style="stroke:#000000;stroke-width:1.5;"/><line style="stroke:#000000;stroke-width:1.5;" x1="67.5" x2="154.5" y1="92.6875" y2="92.6875"/><text fill="#000000" font-family="sans-serif" font-size="14" font-weight="bold" lengthAdjust="spacing" textLength="74" x="71.5" y="85.7344">repository</text><!--MD5=[bc1b6a63fef26b0dbe93a6a9270e3b0e]
cluster entity--><polygon fill="#FFFFFF" points="67.5,329.1992,115.5,329.1992,122.5,351.6875,612.5,351.6875,612.5,546.1992,67.5,546.1992,67.5,329.1992" style="stroke:#000000;stroke-width:1.5;"/><line style="stroke:#000000;stroke-width:1.5;" x1="67.5" x2="122.5" y1="351.6875" y2="351.6875"/><text fill="#000000" font-family="sans-serif" font-size="14" font-weight="bold" lengthAdjust="spacing" textLength="42" x="71.5" y="344.7344">entity</text><!--MD5=[7579d5565d2521d5936cec86ed3dadee]
cluster service--><polygon fill="#FFFFFF" points="64.5,570.1992,120.5,570.1992,127.5,592.6875,424.5,592.6875,424.5,951.1992,64.5,951.1992,64.5,570.1992" style="stroke:#000000;stroke-width:1.5;"/><line style="stroke:#000000;stroke-width:1.5;" x1="64.5" x2="127.5" y1="592.6875" y2="592.6875"/><text fill="#000000" font-family="sans-serif" font-size="14" font-weight="bold" lengthAdjust="spacing" textLength="50" x="68.5" y="585.7344">service</text><!--MD5=[10ea673caf457862023e152271927b45]
cluster controller--><polygon fill="#FFFFFF" points="40,975.1992,116,975.1992,123,997.6875,665.5,997.6875,665.5,1585.1992,40,1585.1992,40,975.1992" style="stroke:#000000;stroke-width:1.5;"/><line style="stroke:#000000;stroke-width:1.5;" x1="40" x2="123" y1="997.6875" y2="997.6875"/><text fill="#000000" font-family="sans-serif" font-size="14" font-weight="bold" lengthAdjust="spacing" textLength="70" x="44" y="990.7344">controller</text><!--MD5=[47c14c564e796a575e671c2b0469a7bb]
cluster backend--><polygon fill="#FFFFFF" points="74,1018.1992,139,1018.1992,146,1040.6875,641.5,1040.6875,641.5,1253.1992,74,1253.1992,74,1018.1992" style="stroke:#000000;stroke-width:1.5;"/><line style="stroke:#000000;stroke-width:1.5;" x1="74" x2="146" y1="1040.6875" y2="1040.6875"/><text fill="#000000" font-family="sans-serif" font-size="14" font-weight="bold" lengthAdjust="spacing" textLength="59" x="78" y="1033.7344">backend</text><!--MD5=[23cbaadc18b1780d966e07254adaec4d]
cluster frontend--><polygon fill="#FFFFFF" points="64,1277.1992,132,1277.1992,139,1299.6875,627,1299.6875,627,1512.1992,64,1512.1992,64,1277.1992" style="stroke:#000000;stroke-width:1.5;"/><line style="stroke:#000000;stroke-width:1.5;" x1="64" x2="139" y1="1299.6875" y2="1299.6875"/><text fill="#000000" font-family="sans-serif" font-size="14" font-weight="bold" lengthAdjust="spacing" textLength="62" x="68" y="1292.7344">frontend</text><!--MD5=[23b08dc254e0f04d3588bdf63a9b02bc]
cluster form--><polygon fill="#FFFFFF" points="701.5,70.1992,742.5,70.1992,749.5,92.6875,1232.5,92.6875,1232.5,305.1992,701.5,305.1992,701.5,70.1992" style="stroke:#000000;stroke-width:1.5;"/><line style="stroke:#000000;stroke-width:1.5;" x1="701.5" x2="749.5" y1="92.6875" y2="92.6875"/><text fill="#000000" font-family="sans-serif" font-size="14" font-weight="bold" lengthAdjust="spacing" textLength="35" x="705.5" y="85.7344">form</text><!--MD5=[c1658959ae7efea6f1f166ee65b2b4aa]
cluster security--><polygon fill="#FFFFFF" points="689.5,329.1992,752.5,329.1992,759.5,351.6875,1055.5,351.6875,1055.5,564.1992,689.5,564.1992,689.5,329.1992" style="stroke:#000000;stroke-width:1.5;"/><line style="stroke:#000000;stroke-width:1.5;" x1="689.5" x2="759.5" y1="351.6875" y2="351.6875"/><text fill="#000000" font-family="sans-serif" font-size="14" font-weight="bold" lengthAdjust="spacing" textLength="57" x="693.5" y="344.7344">security</text><!--MD5=[d331a3ff7b39c2f0ab8412e150e17076]
cluster advice--><polygon fill="#FFFFFF" points="84,1609.1992,135,1609.1992,142,1631.6875,210,1631.6875,210,1692.1992,84,1692.1992,84,1609.1992" style="stroke:#000000;stroke-width:1.5;"/><line style="stroke:#000000;stroke-width:1.5;" x1="84" x2="142" y1="1631.6875" y2="1631.6875"/><text fill="#000000" font-family="sans-serif" font-size="14" font-weight="bold" lengthAdjust="spacing" textLength="45" x="88" y="1624.7344">advice</text><!--MD5=[11f03a07a4422c8eb8f650dbf201ac41]
cluster exception--><polygon fill="#FFFFFF" points="62.5,1716.1992,137.5,1716.1992,144.5,1738.6875,231.5,1738.6875,231.5,1799.1992,62.5,1799.1992,62.5,1716.1992" style="stroke:#000000;stroke-width:1.5;"/><line style="stroke:#000000;stroke-width:1.5;" x1="62.5" x2="144.5" y1="1738.6875" y2="1738.6875"/><text fill="#000000" font-family="sans-serif" font-size="14" font-weight="bold" lengthAdjust="spacing" textLength="69" x="66.5" y="1731.7344">exception</text><!--MD5=[adfe17f7fe346018d585135a4bbe89ae]
cluster config()--><polygon fill="#FFFFFF" points="65,1823.1992,126,1823.1992,133,1845.6875,229,1845.6875,229,1906.1992,65,1906.1992,65,1823.1992" style="stroke:#000000;stroke-width:1.5;"/><line style="stroke:#000000;stroke-width:1.5;" x1="65" x2="133" y1="1845.6875" y2="1845.6875"/><text fill="#000000" font-family="sans-serif" font-size="14" font-weight="bold" lengthAdjust="spacing" textLength="55" x="69" y="1838.7344">config()</text><!--MD5=[f9761e4ec0e5a044b983a0fb01ce84a9]
class ProductRepository--><rect codeLine="7" fill="#FEFECE" height="38.2656" id="ProductRepository" style="stroke:#A80036;stroke-width:1.5;" width="93" x="100.5" y="251.1992"/><ellipse cx="115.5" cy="270.332" fill="#B4A7E5" rx="11" ry="11" style="stroke:#A80036;stroke-width:1.0;"/><path d="M111.9277,266.5972 L111.9277,264.439 L119.3071,264.439 L119.3071,266.5972 L116.8418,266.5972 L116.8418,274.6738 L119.3071,274.6738 L119.3071,276.832 L111.9277,276.832 L111.9277,274.6738 L114.3931,274.6738 L114.3931,266.5972 Z " fill="#000000"/><text fill="#000000" font-family="sans-serif" font-size="12" font-style="italic" lengthAdjust="spacing" textLength="44" x="138" y="267.8008">Product</text><text fill="#000000" font-family="sans-serif" font-size="12" font-style="italic" lengthAdjust="spacing" textLength="61" x="129.5" y="281.9336">Repository</text><!--MD5=[866dcdb0a7daba50545206253620ba29]
class ProductCategoryRepository--><rect codeLine="8" fill="#FEFECE" height="38.2656" id="ProductCategoryRepository" style="stroke:#A80036;stroke-width:1.5;" width="127" x="83.5" y="178.1992"/><ellipse cx="98.5" cy="197.332" fill="#B4A7E5" rx="11" ry="11" style="stroke:#A80036;stroke-width:1.0;"/><path d="M94.9277,193.5972 L94.9277,191.439 L102.3071,191.439 L102.3071,193.5972 L99.8418,193.5972 L99.8418,201.6738 L102.3071,201.6738 L102.3071,203.832 L94.9277,203.832 L94.9277,201.6738 L97.3931,201.6738 L97.3931,193.5972 Z " fill="#000000"/><text fill="#000000" font-family="sans-serif" font-size="12" font-style="italic" lengthAdjust="spacing" textLength="95" x="112.5" y="194.8008">ProductCategory</text><text fill="#000000" font-family="sans-serif" font-size="12" font-style="italic" lengthAdjust="spacing" textLength="61" x="129.5" y="208.9336">Repository</text><!--MD5=[f6c912ba3a08af6a5a850b19103f304f]
class ProductStockRepository--><rect codeLine="9" fill="#FEFECE" height="38.2656" id="ProductStockRepository" style="stroke:#A80036;stroke-width:1.5;" width="106" x="94" y="105.1992"/><ellipse cx="109" cy="124.332" fill="#B4A7E5" rx="11" ry="11" style="stroke:#A80036;stroke-width:1.0;"/><path d="M105.4277,120.5972 L105.4277,118.439 L112.8071,118.439 L112.8071,120.5972 L110.3418,120.5972 L110.3418,128.6738 L112.8071,128.6738 L112.8071,130.832 L105.4277,130.832 L105.4277,128.6738 L107.8931,128.6738 L107.8931,120.5972 Z " fill="#000000"/><text fill="#000000" font-family="sans-serif" font-size="12" font-style="italic" lengthAdjust="spacing" textLength="74" x="123" y="121.8008">ProductStock</text><text fill="#000000" font-family="sans-serif" font-size="12" font-style="italic" lengthAdjust="spacing" textLength="61" x="129.5" y="135.9336">Repository</text><!--MD5=[de091fe2e4f1fc246ce10be7e8d6c4b7]
class EmployeeAccountRepository--><rect codeLine="10" fill="#FEFECE" height="38.2656" id="EmployeeAccountRepository" style="stroke:#A80036;stroke-width:1.5;" width="133" x="275.5" y="251.1992"/><ellipse cx="290.5" cy="270.332" fill="#B4A7E5" rx="11" ry="11" style="stroke:#A80036;stroke-width:1.0;"/><path d="M286.9277,266.5972 L286.9277,264.439 L294.3071,264.439 L294.3071,266.5972 L291.8418,266.5972 L291.8418,274.6738 L294.3071,274.6738 L294.3071,276.832 L286.9277,276.832 L286.9277,274.6738 L289.3931,274.6738 L289.3931,266.5972 Z " fill="#000000"/><text fill="#000000" font-family="sans-serif" font-size="12" font-style="italic" lengthAdjust="spacing" textLength="101" x="304.5" y="267.8008">EmployeeAccount</text><text fill="#000000" font-family="sans-serif" font-size="12" font-style="italic" lengthAdjust="spacing" textLength="61" x="324.5" y="281.9336">Repository</text><!--MD5=[115c5bc9211d8cbe43c7d19dc50c6850]
class EmployeeRepository--><rect codeLine="11" fill="#FEFECE" height="38.2656" id="EmployeeRepository" style="stroke:#A80036;stroke-width:1.5;" width="93" x="295.5" y="178.1992"/><ellipse cx="310.5" cy="197.332" fill="#B4A7E5" rx="11" ry="11" style="stroke:#A80036;stroke-width:1.0;"/><path d="M306.9277,193.5972 L306.9277,191.439 L314.3071,191.439 L314.3071,193.5972 L311.8418,193.5972 L311.8418,201.6738 L314.3071,201.6738 L314.3071,203.832 L306.9277,203.832 L306.9277,201.6738 L309.3931,201.6738 L309.3931,193.5972 Z " fill="#000000"/><text fill="#000000" font-family="sans-serif" font-size="12" font-style="italic" lengthAdjust="spacing" textLength="56" x="327" y="194.8008">Employee</text><text fill="#000000" font-family="sans-serif" font-size="12" font-style="italic" lengthAdjust="spacing" textLength="61" x="324.5" y="208.9336">Repository</text><!--MD5=[e69d6994dde37a3d0167e5476c791457]
class CustomerRepository--><rect codeLine="12" fill="#FEFECE" height="38.2656" id="CustomerRepository" style="stroke:#A80036;stroke-width:1.5;" width="93" x="295.5" y="105.1992"/><ellipse cx="310.5" cy="124.332" fill="#B4A7E5" rx="11" ry="11" style="stroke:#A80036;stroke-width:1.0;"/><path d="M306.9277,120.5972 L306.9277,118.439 L314.3071,118.439 L314.3071,120.5972 L311.8418,120.5972 L311.8418,128.6738 L314.3071,128.6738 L314.3071,130.832 L306.9277,130.832 L306.9277,128.6738 L309.3931,128.6738 L309.3931,120.5972 Z " fill="#000000"/><text fill="#000000" font-family="sans-serif" font-size="12" font-style="italic" lengthAdjust="spacing" textLength="55" x="327.5" y="121.8008">Customer</text><text fill="#000000" font-family="sans-serif" font-size="12" font-style="italic" lengthAdjust="spacing" textLength="61" x="324.5" y="135.9336">Repository</text><!--MD5=[708e328039b60d50c6285936843ac334]
class OrderRepository--><rect codeLine="13" fill="#FEFECE" height="38.2656" id="OrderRepository" style="stroke:#A80036;stroke-width:1.5;" width="93" x="500.5" y="251.1992"/><ellipse cx="515.5" cy="270.332" fill="#B4A7E5" rx="11" ry="11" style="stroke:#A80036;stroke-width:1.0;"/><path d="M511.9277,266.5972 L511.9277,264.439 L519.3071,264.439 L519.3071,266.5972 L516.8418,266.5972 L516.8418,274.6738 L519.3071,274.6738 L519.3071,276.832 L511.9277,276.832 L511.9277,274.6738 L514.3931,274.6738 L514.3931,266.5972 Z " fill="#000000"/><text fill="#000000" font-family="sans-serif" font-size="12" font-style="italic" lengthAdjust="spacing" textLength="34" x="543" y="267.8008">Order</text><text fill="#000000" font-family="sans-serif" font-size="12" font-style="italic" lengthAdjust="spacing" textLength="61" x="529.5" y="281.9336">Repository</text><!--MD5=[5f6b482bd31c940c12a73cb2328d6631]
class OrderDetailRepository--><rect codeLine="14" fill="#FEFECE" height="38.2656" id="OrderDetailRepository" style="stroke:#A80036;stroke-width:1.5;" width="99" x="497.5" y="178.1992"/><ellipse cx="512.5" cy="197.332" fill="#B4A7E5" rx="11" ry="11" style="stroke:#A80036;stroke-width:1.0;"/><path d="M508.9277,193.5972 L508.9277,191.439 L516.3071,191.439 L516.3071,193.5972 L513.8418,193.5972 L513.8418,201.6738 L516.3071,201.6738 L516.3071,203.832 L508.9277,203.832 L508.9277,201.6738 L511.3931,201.6738 L511.3931,193.5972 Z " fill="#000000"/><text fill="#000000" font-family="sans-serif" font-size="12" font-style="italic" lengthAdjust="spacing" textLength="67" x="526.5" y="194.8008">OrderDetail</text><text fill="#000000" font-family="sans-serif" font-size="12" font-style="italic" lengthAdjust="spacing" textLength="61" x="529.5" y="208.9336">Repository</text><!--MD5=[72136138052d025cffdce3c22fbd185f]
class Product--><rect codeLine="17" fill="#FEFECE" height="32" id="Product" style="stroke:#A80036;stroke-width:1.5;" width="76" x="109" y="498.1992"/><ellipse cx="124" cy="514.1992" fill="#ADD1B2" rx="11" ry="11" style="stroke:#A80036;stroke-width:1.0;"/><path d="M126.4731,520.3423 Q125.8921,520.6411 125.2529,520.7905 Q124.6138,520.9399 123.9082,520.9399 Q121.4014,520.9399 120.0815,519.2881 Q118.7617,517.6362 118.7617,514.5151 Q118.7617,511.3857 120.0815,509.7339 Q121.4014,508.082 123.9082,508.082 Q124.6138,508.082 125.2612,508.2314 Q125.9087,508.3809 126.4731,508.6797 L126.4731,511.4023 Q125.8423,510.8213 125.2488,510.5515 Q124.6553,510.2817 124.0244,510.2817 Q122.6797,510.2817 121.9949,511.3484 Q121.3101,512.415 121.3101,514.5151 Q121.3101,516.6069 121.9949,517.6736 Q122.6797,518.7402 124.0244,518.7402 Q124.6553,518.7402 125.2488,518.4705 Q125.8423,518.2007 126.4731,517.6196 Z " fill="#000000"/><text fill="#000000" font-family="sans-serif" font-size="12" lengthAdjust="spacing" textLength="44" x="138" y="518.7344">Product</text><!--MD5=[a1db4bf20df23ac2cd9366d22a9e2860]
class ProductCategory--><rect codeLine="18" fill="#FEFECE" height="32" id="ProductCategory" style="stroke:#A80036;stroke-width:1.5;" width="127" x="83.5" y="431.1992"/><ellipse cx="98.5" cy="447.1992" fill="#ADD1B2" rx="11" ry="11" style="stroke:#A80036;stroke-width:1.0;"/><path d="M100.9731,453.3423 Q100.3921,453.6411 99.7529,453.7905 Q99.1138,453.9399 98.4082,453.9399 Q95.9014,453.9399 94.5815,452.2881 Q93.2617,450.6362 93.2617,447.5151 Q93.2617,444.3857 94.5815,442.7339 Q95.9014,441.082 98.4082,441.082 Q99.1138,441.082 99.7612,441.2314 Q100.4087,441.3809 100.9731,441.6797 L100.9731,444.4023 Q100.3423,443.8213 99.7488,443.5515 Q99.1553,443.2817 98.5244,443.2817 Q97.1797,443.2817 96.4949,444.3484 Q95.8101,445.415 95.8101,447.5151 Q95.8101,449.6069 96.4949,450.6736 Q97.1797,451.7402 98.5244,451.7402 Q99.1553,451.7402 99.7488,451.4705 Q100.3423,451.2007 100.9731,450.6196 Z " fill="#000000"/><text fill="#000000" font-family="sans-serif" font-size="12" lengthAdjust="spacing" textLength="95" x="112.5" y="451.7344">ProductCategory</text><!--MD5=[6c7bb023babad207e2c8d90c7f82e89e]
class ProductStock--><rect codeLine="19" fill="#FEFECE" height="32" id="ProductStock" style="stroke:#A80036;stroke-width:1.5;" width="106" x="94" y="364.1992"/><ellipse cx="109" cy="380.1992" fill="#ADD1B2" rx="11" ry="11" style="stroke:#A80036;stroke-width:1.0;"/><path d="M111.4731,386.3423 Q110.8921,386.6411 110.2529,386.7905 Q109.6138,386.9399 108.9082,386.9399 Q106.4014,386.9399 105.0815,385.2881 Q103.7617,383.6362 103.7617,380.5151 Q103.7617,377.3857 105.0815,375.7339 Q106.4014,374.082 108.9082,374.082 Q109.6138,374.082 110.2612,374.2314 Q110.9087,374.3809 111.4731,374.6797 L111.4731,377.4023 Q110.8423,376.8213 110.2488,376.5515 Q109.6553,376.2817 109.0244,376.2817 Q107.6797,376.2817 106.9949,377.3484 Q106.3101,378.415 106.3101,380.5151 Q106.3101,382.6069 106.9949,383.6736 Q107.6797,384.7402 109.0244,384.7402 Q109.6553,384.7402 110.2488,384.4705 Q110.8423,384.2007 111.4731,383.6196 Z " fill="#000000"/><text fill="#000000" font-family="sans-serif" font-size="12" lengthAdjust="spacing" textLength="74" x="123" y="384.7344">ProductStock</text><!--MD5=[0d3a75816efc3d2df3c0db87d885f403]
class EmployeeAccount--><rect codeLine="20" fill="#FEFECE" height="32" id="EmployeeAccount" style="stroke:#A80036;stroke-width:1.5;" width="133" x="275.5" y="498.1992"/><ellipse cx="290.5" cy="514.1992" fill="#ADD1B2" rx="11" ry="11" style="stroke:#A80036;stroke-width:1.0;"/><path d="M292.9731,520.3423 Q292.3921,520.6411 291.7529,520.7905 Q291.1138,520.9399 290.4082,520.9399 Q287.9014,520.9399 286.5815,519.2881 Q285.2617,517.6362 285.2617,514.5151 Q285.2617,511.3857 286.5815,509.7339 Q287.9014,508.082 290.4082,508.082 Q291.1138,508.082 291.7612,508.2314 Q292.4087,508.3809 292.9731,508.6797 L292.9731,511.4023 Q292.3423,510.8213 291.7488,510.5515 Q291.1553,510.2817 290.5244,510.2817 Q289.1797,510.2817 288.4949,511.3484 Q287.8101,512.415 287.8101,514.5151 Q287.8101,516.6069 288.4949,517.6736 Q289.1797,518.7402 290.5244,518.7402 Q291.1553,518.7402 291.7488,518.4705 Q292.3423,518.2007 292.9731,517.6196 Z " fill="#000000"/><text fill="#000000" font-family="sans-serif" font-size="12" lengthAdjust="spacing" textLength="101" x="304.5" y="518.7344">EmployeeAccount</text><!--MD5=[7421f545a0d8420c5bec41e74b387d9c]
class Employee--><rect codeLine="21" fill="#FEFECE" height="32" id="Employee" style="stroke:#A80036;stroke-width:1.5;" width="88" x="298" y="431.1992"/><ellipse cx="313" cy="447.1992" fill="#ADD1B2" rx="11" ry="11" style="stroke:#A80036;stroke-width:1.0;"/><path d="M315.4731,453.3423 Q314.8921,453.6411 314.2529,453.7905 Q313.6138,453.9399 312.9082,453.9399 Q310.4014,453.9399 309.0815,452.2881 Q307.7617,450.6362 307.7617,447.5151 Q307.7617,444.3857 309.0815,442.7339 Q310.4014,441.082 312.9082,441.082 Q313.6138,441.082 314.2612,441.2314 Q314.9087,441.3809 315.4731,441.6797 L315.4731,444.4023 Q314.8423,443.8213 314.2488,443.5515 Q313.6553,443.2817 313.0244,443.2817 Q311.6797,443.2817 310.9949,444.3484 Q310.3101,445.415 310.3101,447.5151 Q310.3101,449.6069 310.9949,450.6736 Q311.6797,451.7402 313.0244,451.7402 Q313.6553,451.7402 314.2488,451.4705 Q314.8423,451.2007 315.4731,450.6196 Z " fill="#000000"/><text fill="#000000" font-family="sans-serif" font-size="12" lengthAdjust="spacing" textLength="56" x="327" y="451.7344">Employee</text><!--MD5=[2ce0c9fb7f55b1e256ab28a8ea6b25ec]
class Customer--><rect codeLine="22" fill="#FEFECE" height="32" id="Customer" style="stroke:#A80036;stroke-width:1.5;" width="87" x="298.5" y="364.1992"/><ellipse cx="313.5" cy="380.1992" fill="#ADD1B2" rx="11" ry="11" style="stroke:#A80036;stroke-width:1.0;"/><path d="M315.9731,386.3423 Q315.3921,386.6411 314.7529,386.7905 Q314.1138,386.9399 313.4082,386.9399 Q310.9014,386.9399 309.5815,385.2881 Q308.2617,383.6362 308.2617,380.5151 Q308.2617,377.3857 309.5815,375.7339 Q310.9014,374.082 313.4082,374.082 Q314.1138,374.082 314.7612,374.2314 Q315.4087,374.3809 315.9731,374.6797 L315.9731,377.4023 Q315.3423,376.8213 314.7488,376.5515 Q314.1553,376.2817 313.5244,376.2817 Q312.1797,376.2817 311.4949,377.3484 Q310.8101,378.415 310.8101,380.5151 Q310.8101,382.6069 311.4949,383.6736 Q312.1797,384.7402 313.5244,384.7402 Q314.1553,384.7402 314.7488,384.4705 Q315.3423,384.2007 315.9731,383.6196 Z " fill="#000000"/><text fill="#000000" font-family="sans-serif" font-size="12" lengthAdjust="spacing" textLength="55" x="327.5" y="384.7344">Customer</text><!--MD5=[cf4d6237fcae255cd2e1656cf84a30e2]
class Order--><rect codeLine="23" fill="#FEFECE" height="32" id="Order" style="stroke:#A80036;stroke-width:1.5;" width="66" x="514" y="498.1992"/><ellipse cx="529" cy="514.1992" fill="#ADD1B2" rx="11" ry="11" style="stroke:#A80036;stroke-width:1.0;"/><path d="M531.4731,520.3423 Q530.8921,520.6411 530.2529,520.7905 Q529.6138,520.9399 528.9082,520.9399 Q526.4014,520.9399 525.0815,519.2881 Q523.7617,517.6362 523.7617,514.5151 Q523.7617,511.3857 525.0815,509.7339 Q526.4014,508.082 528.9082,508.082 Q529.6138,508.082 530.2612,508.2314 Q530.9087,508.3809 531.4731,508.6797 L531.4731,511.4023 Q530.8423,510.8213 530.2488,510.5515 Q529.6553,510.2817 529.0244,510.2817 Q527.6797,510.2817 526.9949,511.3484 Q526.3101,512.415 526.3101,514.5151 Q526.3101,516.6069 526.9949,517.6736 Q527.6797,518.7402 529.0244,518.7402 Q529.6553,518.7402 530.2488,518.4705 Q530.8423,518.2007 531.4731,517.6196 Z " fill="#000000"/><text fill="#000000" font-family="sans-serif" font-size="12" lengthAdjust="spacing" textLength="34" x="543" y="518.7344">Order</text><!--MD5=[a894570104858a48d10e650672270519]
class OrderDetail--><rect codeLine="24" fill="#FEFECE" height="32" id="OrderDetail" style="stroke:#A80036;stroke-width:1.5;" width="99" x="497.5" y="431.1992"/><ellipse cx="512.5" cy="447.1992" fill="#ADD1B2" rx="11" ry="11" style="stroke:#A80036;stroke-width:1.0;"/><path d="M514.9731,453.3423 Q514.3921,453.6411 513.7529,453.7905 Q513.1138,453.9399 512.4082,453.9399 Q509.9014,453.9399 508.5815,452.2881 Q507.2617,450.6362 507.2617,447.5151 Q507.2617,444.3857 508.5815,442.7339 Q509.9014,441.082 512.4082,441.082 Q513.1138,441.082 513.7612,441.2314 Q514.4087,441.3809 514.9731,441.6797 L514.9731,444.4023 Q514.3423,443.8213 513.7488,443.5515 Q513.1553,443.2817 512.5244,443.2817 Q511.1797,443.2817 510.4949,444.3484 Q509.8101,445.415 509.8101,447.5151 Q509.8101,449.6069 510.4949,450.6736 Q511.1797,451.7402 512.5244,451.7402 Q513.1553,451.7402 513.7488,451.4705 Q514.3423,451.2007 514.9731,450.6196 Z " fill="#000000"/><text fill="#000000" font-family="sans-serif" font-size="12" lengthAdjust="spacing" textLength="67" x="526.5" y="451.7344">OrderDetail</text><!--MD5=[58a28f2d5507ae66b1dc95167690ce61]
class ProductService--><rect codeLine="28" fill="#FEFECE" height="38.2656" id="ProductService" style="stroke:#A80036;stroke-width:1.5;" width="76" x="109" y="605.1992"/><ellipse cx="124" cy="624.332" fill="#B4A7E5" rx="11" ry="11" style="stroke:#A80036;stroke-width:1.0;"/><path d="M120.4277,620.5972 L120.4277,618.439 L127.8071,618.439 L127.8071,620.5972 L125.3418,620.5972 L125.3418,628.6738 L127.8071,628.6738 L127.8071,630.832 L120.4277,630.832 L120.4277,628.6738 L122.8931,628.6738 L122.8931,620.5972 Z " fill="#000000"/><text fill="#000000" font-family="sans-serif" font-size="12" font-style="italic" lengthAdjust="spacing" textLength="44" x="138" y="621.8008">Product</text><text fill="#000000" font-family="sans-serif" font-size="12" font-style="italic" lengthAdjust="spacing" textLength="40" x="140" y="635.9336">Service</text><!--MD5=[995e7ea07ac4e414ed6eb23d37d5a552]
class ProductServiceImpl--><rect codeLine="29" fill="#FEFECE" height="38.2656" id="ProductServiceImpl" style="stroke:#A80036;stroke-width:1.5;" width="97" x="293.5" y="605.1992"/><ellipse cx="308.5" cy="624.332" fill="#ADD1B2" rx="11" ry="11" style="stroke:#A80036;stroke-width:1.0;"/><path d="M310.9731,630.4751 Q310.3921,630.7739 309.7529,630.9233 Q309.1138,631.0728 308.4082,631.0728 Q305.9014,631.0728 304.5815,629.4209 Q303.2617,627.769 303.2617,624.6479 Q303.2617,621.5186 304.5815,619.8667 Q305.9014,618.2148 308.4082,618.2148 Q309.1138,618.2148 309.7612,618.3643 Q310.4087,618.5137 310.9731,618.8125 L310.9731,621.5352 Q310.3423,620.9541 309.7488,620.6843 Q309.1553,620.4146 308.5244,620.4146 Q307.1797,620.4146 306.4949,621.4812 Q305.8101,622.5479 305.8101,624.6479 Q305.8101,626.7397 306.4949,627.8064 Q307.1797,628.873 308.5244,628.873 Q309.1553,628.873 309.7488,628.6033 Q310.3423,628.3335 310.9731,627.7524 Z " fill="#000000"/><text fill="#000000" font-family="sans-serif" font-size="12" lengthAdjust="spacing" textLength="44" x="333" y="621.8008">Product</text><text fill="#000000" font-family="sans-serif" font-size="12" lengthAdjust="spacing" textLength="65" x="322.5" y="635.9336">ServiceImpl</text><!--MD5=[46c2be75f30f3dbee4802f1162887fb5]
class ProductCategoryService--><rect codeLine="30" fill="#FEFECE" height="38.2656" id="ProductCategoryService" style="stroke:#A80036;stroke-width:1.5;" width="127" x="83.5" y="678.1992"/><ellipse cx="98.5" cy="697.332" fill="#B4A7E5" rx="11" ry="11" style="stroke:#A80036;stroke-width:1.0;"/><path d="M94.9277,693.5972 L94.9277,691.439 L102.3071,691.439 L102.3071,693.5972 L99.8418,693.5972 L99.8418,701.6738 L102.3071,701.6738 L102.3071,703.832 L94.9277,703.832 L94.9277,701.6738 L97.3931,701.6738 L97.3931,693.5972 Z " fill="#000000"/><text fill="#000000" font-family="sans-serif" font-size="12" font-style="italic" lengthAdjust="spacing" textLength="95" x="112.5" y="694.8008">ProductCategory</text><text fill="#000000" font-family="sans-serif" font-size="12" font-style="italic" lengthAdjust="spacing" textLength="40" x="140" y="708.9336">Service</text><!--MD5=[5aefabacba69a69834d0fa5e3bc6bc6c]
class ProductCategoryServiceImpl--><rect codeLine="31" fill="#FEFECE" height="38.2656" id="ProductCategoryServiceImpl" style="stroke:#A80036;stroke-width:1.5;" width="127" x="278.5" y="678.1992"/><ellipse cx="293.5" cy="697.332" fill="#ADD1B2" rx="11" ry="11" style="stroke:#A80036;stroke-width:1.0;"/><path d="M295.9731,703.4751 Q295.3921,703.7739 294.7529,703.9233 Q294.1138,704.0728 293.4082,704.0728 Q290.9014,704.0728 289.5815,702.4209 Q288.2617,700.769 288.2617,697.6479 Q288.2617,694.5186 289.5815,692.8667 Q290.9014,691.2148 293.4082,691.2148 Q294.1138,691.2148 294.7612,691.3643 Q295.4087,691.5137 295.9731,691.8125 L295.9731,694.5352 Q295.3423,693.9541 294.7488,693.6843 Q294.1553,693.4146 293.5244,693.4146 Q292.1797,693.4146 291.4949,694.4812 Q290.8101,695.5479 290.8101,697.6479 Q290.8101,699.7397 291.4949,700.8064 Q292.1797,701.873 293.5244,701.873 Q294.1553,701.873 294.7488,701.6033 Q295.3423,701.3335 295.9731,700.7524 Z " fill="#000000"/><text fill="#000000" font-family="sans-serif" font-size="12" lengthAdjust="spacing" textLength="95" x="307.5" y="694.8008">ProductCategory</text><text fill="#000000" font-family="sans-serif" font-size="12" lengthAdjust="spacing" textLength="65" x="322.5" y="708.9336">ServiceImpl</text><!--MD5=[4d07fe4bed074ae1698a4d0d0c4eec02]
class EmployeeAccountService--><rect codeLine="32" fill="#FEFECE" height="38.2656" id="EmployeeAccountService" style="stroke:#A80036;stroke-width:1.5;" width="133" x="80.5" y="751.1992"/><ellipse cx="95.5" cy="770.332" fill="#B4A7E5" rx="11" ry="11" style="stroke:#A80036;stroke-width:1.0;"/><path d="M91.9277,766.5972 L91.9277,764.439 L99.3071,764.439 L99.3071,766.5972 L96.8418,766.5972 L96.8418,774.6738 L99.3071,774.6738 L99.3071,776.832 L91.9277,776.832 L91.9277,774.6738 L94.3931,774.6738 L94.3931,766.5972 Z " fill="#000000"/><text fill="#000000" font-family="sans-serif" font-size="12" font-style="italic" lengthAdjust="spacing" textLength="101" x="109.5" y="767.8008">EmployeeAccount</text><text fill="#000000" font-family="sans-serif" font-size="12" font-style="italic" lengthAdjust="spacing" textLength="40" x="140" y="781.9336">Service</text><!--MD5=[e43d1cfc79d1d44b27f2e6940b1b0b9d]
class EmployeeAccountServiceImpl--><rect codeLine="33" fill="#FEFECE" height="38.2656" id="EmployeeAccountServiceImpl" style="stroke:#A80036;stroke-width:1.5;" width="133" x="275.5" y="751.1992"/><ellipse cx="290.5" cy="770.332" fill="#ADD1B2" rx="11" ry="11" style="stroke:#A80036;stroke-width:1.0;"/><path d="M292.9731,776.4751 Q292.3921,776.7739 291.7529,776.9233 Q291.1138,777.0728 290.4082,777.0728 Q287.9014,777.0728 286.5815,775.4209 Q285.2617,773.769 285.2617,770.6479 Q285.2617,767.5186 286.5815,765.8667 Q287.9014,764.2148 290.4082,764.2148 Q291.1138,764.2148 291.7612,764.3643 Q292.4087,764.5137 292.9731,764.8125 L292.9731,767.5352 Q292.3423,766.9541 291.7488,766.6843 Q291.1553,766.4146 290.5244,766.4146 Q289.1797,766.4146 288.4949,767.4812 Q287.8101,768.5479 287.8101,770.6479 Q287.8101,772.7397 288.4949,773.8064 Q289.1797,774.873 290.5244,774.873 Q291.1553,774.873 291.7488,774.6033 Q292.3423,774.3335 292.9731,773.7524 Z " fill="#000000"/><text fill="#000000" font-family="sans-serif" font-size="12" lengthAdjust="spacing" textLength="101" x="304.5" y="767.8008">EmployeeAccount</text><text fill="#000000" font-family="sans-serif" font-size="12" lengthAdjust="spacing" textLength="65" x="322.5" y="781.9336">ServiceImpl</text><!--MD5=[7655a4d4bd54a6253b7313a085dd4122]
class OrderService--><rect codeLine="34" fill="#FEFECE" height="38.2656" id="OrderService" style="stroke:#A80036;stroke-width:1.5;" width="72" x="111" y="824.1992"/><ellipse cx="126" cy="843.332" fill="#B4A7E5" rx="11" ry="11" style="stroke:#A80036;stroke-width:1.0;"/><path d="M122.4277,839.5972 L122.4277,837.439 L129.8071,837.439 L129.8071,839.5972 L127.3418,839.5972 L127.3418,847.6738 L129.8071,847.6738 L129.8071,849.832 L122.4277,849.832 L122.4277,847.6738 L124.8931,847.6738 L124.8931,839.5972 Z " fill="#000000"/><text fill="#000000" font-family="sans-serif" font-size="12" font-style="italic" lengthAdjust="spacing" textLength="34" x="143" y="840.8008">Order</text><text fill="#000000" font-family="sans-serif" font-size="12" font-style="italic" lengthAdjust="spacing" textLength="40" x="140" y="854.9336">Service</text><!--MD5=[6bdff844b087db04de33b3e9814c0adf]
class OrderServiceImpl--><rect codeLine="35" fill="#FEFECE" height="38.2656" id="OrderServiceImpl" style="stroke:#A80036;stroke-width:1.5;" width="97" x="293.5" y="824.1992"/><ellipse cx="308.5" cy="843.332" fill="#ADD1B2" rx="11" ry="11" style="stroke:#A80036;stroke-width:1.0;"/><path d="M310.9731,849.4751 Q310.3921,849.7739 309.7529,849.9233 Q309.1138,850.0728 308.4082,850.0728 Q305.9014,850.0728 304.5815,848.4209 Q303.2617,846.769 303.2617,843.6479 Q303.2617,840.5186 304.5815,838.8667 Q305.9014,837.2148 308.4082,837.2148 Q309.1138,837.2148 309.7612,837.3643 Q310.4087,837.5137 310.9731,837.8125 L310.9731,840.5352 Q310.3423,839.9541 309.7488,839.6843 Q309.1553,839.4146 308.5244,839.4146 Q307.1797,839.4146 306.4949,840.4812 Q305.8101,841.5479 305.8101,843.6479 Q305.8101,845.7397 306.4949,846.8064 Q307.1797,847.873 308.5244,847.873 Q309.1553,847.873 309.7488,847.6033 Q310.3423,847.3335 310.9731,846.7524 Z " fill="#000000"/><text fill="#000000" font-family="sans-serif" font-size="12" lengthAdjust="spacing" textLength="34" x="338" y="840.8008">Order</text><text fill="#000000" font-family="sans-serif" font-size="12" lengthAdjust="spacing" textLength="65" x="322.5" y="854.9336">ServiceImpl</text><!--MD5=[d15d779f82eb0841a74074b76eee0862]
class CustomerService--><rect codeLine="36" fill="#FEFECE" height="38.2656" id="CustomerService" style="stroke:#A80036;stroke-width:1.5;" width="87" x="103.5" y="897.1992"/><ellipse cx="118.5" cy="916.332" fill="#B4A7E5" rx="11" ry="11" style="stroke:#A80036;stroke-width:1.0;"/><path d="M114.9277,912.5972 L114.9277,910.439 L122.3071,910.439 L122.3071,912.5972 L119.8418,912.5972 L119.8418,920.6738 L122.3071,920.6738 L122.3071,922.832 L114.9277,922.832 L114.9277,920.6738 L117.3931,920.6738 L117.3931,912.5972 Z " fill="#000000"/><text fill="#000000" font-family="sans-serif" font-size="12" font-style="italic" lengthAdjust="spacing" textLength="55" x="132.5" y="913.8008">Customer</text><text fill="#000000" font-family="sans-serif" font-size="12" font-style="italic" lengthAdjust="spacing" textLength="40" x="140" y="927.9336">Service</text><!--MD5=[4710f7781af61cefc2e39e8ae1f29ef6]
class CustomerServiceImpl--><rect codeLine="37" fill="#FEFECE" height="38.2656" id="CustomerServiceImpl" style="stroke:#A80036;stroke-width:1.5;" width="97" x="293.5" y="897.1992"/><ellipse cx="308.5" cy="916.332" fill="#ADD1B2" rx="11" ry="11" style="stroke:#A80036;stroke-width:1.0;"/><path d="M310.9731,922.4751 Q310.3921,922.7739 309.7529,922.9233 Q309.1138,923.0728 308.4082,923.0728 Q305.9014,923.0728 304.5815,921.4209 Q303.2617,919.769 303.2617,916.6479 Q303.2617,913.5186 304.5815,911.8667 Q305.9014,910.2148 308.4082,910.2148 Q309.1138,910.2148 309.7612,910.3643 Q310.4087,910.5137 310.9731,910.8125 L310.9731,913.5352 Q310.3423,912.9541 309.7488,912.6843 Q309.1553,912.4146 308.5244,912.4146 Q307.1797,912.4146 306.4949,913.4812 Q305.8101,914.5479 305.8101,916.6479 Q305.8101,918.7397 306.4949,919.8064 Q307.1797,920.873 308.5244,920.873 Q309.1553,920.873 309.7488,920.6033 Q310.3423,920.3335 310.9731,919.7524 Z " fill="#000000"/><text fill="#000000" font-family="sans-serif" font-size="12" lengthAdjust="spacing" textLength="55" x="327.5" y="913.8008">Customer</text><text fill="#000000" font-family="sans-serif" font-size="12" lengthAdjust="spacing" textLength="65" x="322.5" y="927.9336">ServiceImpl</text><!--MD5=[0bf6cc7671acd830f68456d528990499]
class GlobalExceptionHandler--><rect codeLine="46" fill="#FEFECE" height="38.2656" id="GlobalExceptionHandler" style="stroke:#A80036;stroke-width:1.5;" width="125" x="84.5" y="1531.1992"/><ellipse cx="99.5" cy="1550.332" fill="#ADD1B2" rx="11" ry="11" style="stroke:#A80036;stroke-width:1.0;"/><path d="M101.9731,1556.4751 Q101.3921,1556.7739 100.7529,1556.9233 Q100.1138,1557.0728 99.4082,1557.0728 Q96.9014,1557.0728 95.5815,1555.4209 Q94.2617,1553.769 94.2617,1550.6479 Q94.2617,1547.5186 95.5815,1545.8667 Q96.9014,1544.2148 99.4082,1544.2148 Q100.1138,1544.2148 100.7612,1544.3643 Q101.4087,1544.5137 101.9731,1544.8125 L101.9731,1547.5352 Q101.3423,1546.9541 100.7488,1546.6843 Q100.1553,1546.4146 99.5244,1546.4146 Q98.1797,1546.4146 97.4949,1547.4812 Q96.8101,1548.5479 96.8101,1550.6479 Q96.8101,1552.7397 97.4949,1553.8064 Q98.1797,1554.873 99.5244,1554.873 Q100.1553,1554.873 100.7488,1554.6033 Q101.3423,1554.3335 101.9731,1553.7524 Z " fill="#000000"/><text fill="#000000" font-family="sans-serif" font-size="12" lengthAdjust="spacing" textLength="93" x="113.5" y="1547.8008">GlobalException</text><text fill="#000000" font-family="sans-serif" font-size="12" lengthAdjust="spacing" textLength="46" x="137" y="1561.9336">Handler</text><!--MD5=[cb62662ac00a6bbafa71e2e8e2c6aa47]
class MenuController--><rect codeLine="48" fill="#FEFECE" height="38.2656" id="MenuController" style="stroke:#A80036;stroke-width:1.5;" width="88" x="103" y="1199.1992"/><ellipse cx="118" cy="1218.332" fill="#ADD1B2" rx="11" ry="11" style="stroke:#A80036;stroke-width:1.0;"/><path d="M120.4731,1224.4751 Q119.8921,1224.7739 119.2529,1224.9233 Q118.6138,1225.0728 117.9082,1225.0728 Q115.4014,1225.0728 114.0815,1223.4209 Q112.7617,1221.769 112.7617,1218.6479 Q112.7617,1215.5186 114.0815,1213.8667 Q115.4014,1212.2148 117.9082,1212.2148 Q118.6138,1212.2148 119.2612,1212.3643 Q119.9087,1212.5137 120.4731,1212.8125 L120.4731,1215.5352 Q119.8423,1214.9541 119.2488,1214.6843 Q118.6553,1214.4146 118.0244,1214.4146 Q116.6797,1214.4146 115.9949,1215.4812 Q115.3101,1216.5479 115.3101,1218.6479 Q115.3101,1220.7397 115.9949,1221.8064 Q116.6797,1222.873 118.0244,1222.873 Q118.6553,1222.873 119.2488,1222.6033 Q119.8423,1222.3335 120.4731,1221.7524 Z " fill="#000000"/><text fill="#000000" font-family="sans-serif" font-size="12" lengthAdjust="spacing" textLength="31" x="144.5" y="1215.8008">Menu</text><text fill="#000000" font-family="sans-serif" font-size="12" lengthAdjust="spacing" textLength="56" x="132" y="1229.9336">Controller</text><!--MD5=[5103e3471bf31fadd75905833dcba617]
class LoginController--><rect codeLine="49" fill="#FEFECE" height="38.2656" id="LoginController" style="stroke:#A80036;stroke-width:1.5;" width="88" x="103" y="1126.1992"/><ellipse cx="118" cy="1145.332" fill="#ADD1B2" rx="11" ry="11" style="stroke:#A80036;stroke-width:1.0;"/><path d="M120.4731,1151.4751 Q119.8921,1151.7739 119.2529,1151.9233 Q118.6138,1152.0728 117.9082,1152.0728 Q115.4014,1152.0728 114.0815,1150.4209 Q112.7617,1148.769 112.7617,1145.6479 Q112.7617,1142.5186 114.0815,1140.8667 Q115.4014,1139.2148 117.9082,1139.2148 Q118.6138,1139.2148 119.2612,1139.3643 Q119.9087,1139.5137 120.4731,1139.8125 L120.4731,1142.5352 Q119.8423,1141.9541 119.2488,1141.6843 Q118.6553,1141.4146 118.0244,1141.4146 Q116.6797,1141.4146 115.9949,1142.4812 Q115.3101,1143.5479 115.3101,1145.6479 Q115.3101,1147.7397 115.9949,1148.8064 Q116.6797,1149.873 118.0244,1149.873 Q118.6553,1149.873 119.2488,1149.6033 Q119.8423,1149.3335 120.4731,1148.7524 Z " fill="#000000"/><text fill="#000000" font-family="sans-serif" font-size="12" lengthAdjust="spacing" textLength="30" x="145" y="1142.8008">Login</text><text fill="#000000" font-family="sans-serif" font-size="12" lengthAdjust="spacing" textLength="56" x="132" y="1156.9336">Controller</text><!--MD5=[34415305ba981eff0da19c4f564a359e]
class ProductSearchController--><rect codeLine="50" fill="#FEFECE" height="38.2656" id="ProductSearchController" style="stroke:#A80036;stroke-width:1.5;" width="114" x="90" y="1053.1992"/><ellipse cx="105" cy="1072.332" fill="#ADD1B2" rx="11" ry="11" style="stroke:#A80036;stroke-width:1.0;"/><path d="M107.4731,1078.4751 Q106.8921,1078.7739 106.2529,1078.9233 Q105.6138,1079.0728 104.9082,1079.0728 Q102.4014,1079.0728 101.0815,1077.4209 Q99.7617,1075.769 99.7617,1072.6479 Q99.7617,1069.5186 101.0815,1067.8667 Q102.4014,1066.2148 104.9082,1066.2148 Q105.6138,1066.2148 106.2612,1066.3643 Q106.9087,1066.5137 107.4731,1066.8125 L107.4731,1069.5352 Q106.8423,1068.9541 106.2488,1068.6843 Q105.6553,1068.4146 105.0244,1068.4146 Q103.6797,1068.4146 102.9949,1069.4812 Q102.3101,1070.5479 102.3101,1072.6479 Q102.3101,1074.7397 102.9949,1075.8064 Q103.6797,1076.873 105.0244,1076.873 Q105.6553,1076.873 106.2488,1076.6033 Q106.8423,1076.3335 107.4731,1075.7524 Z " fill="#000000"/><text fill="#000000" font-family="sans-serif" font-size="12" lengthAdjust="spacing" textLength="82" x="119" y="1069.8008">ProductSearch</text><text fill="#000000" font-family="sans-serif" font-size="12" lengthAdjust="spacing" textLength="56" x="132" y="1083.9336">Controller</text><!--MD5=[5a2e20ec24a9907f4e8d7817e4660cc5]
class ProductAddController--><rect codeLine="51" fill="#FEFECE" height="38.2656" id="ProductAddController" style="stroke:#A80036;stroke-width:1.5;" width="100" x="292" y="1199.1992"/><ellipse cx="307" cy="1218.332" fill="#ADD1B2" rx="11" ry="11" style="stroke:#A80036;stroke-width:1.0;"/><path d="M309.4731,1224.4751 Q308.8921,1224.7739 308.2529,1224.9233 Q307.6138,1225.0728 306.9082,1225.0728 Q304.4014,1225.0728 303.0815,1223.4209 Q301.7617,1221.769 301.7617,1218.6479 Q301.7617,1215.5186 303.0815,1213.8667 Q304.4014,1212.2148 306.9082,1212.2148 Q307.6138,1212.2148 308.2612,1212.3643 Q308.9087,1212.5137 309.4731,1212.8125 L309.4731,1215.5352 Q308.8423,1214.9541 308.2488,1214.6843 Q307.6553,1214.4146 307.0244,1214.4146 Q305.6797,1214.4146 304.9949,1215.4812 Q304.3101,1216.5479 304.3101,1218.6479 Q304.3101,1220.7397 304.9949,1221.8064 Q305.6797,1222.873 307.0244,1222.873 Q307.6553,1222.873 308.2488,1222.6033 Q308.8423,1222.3335 309.4731,1221.7524 Z " fill="#000000"/><text fill="#000000" font-family="sans-serif" font-size="12" lengthAdjust="spacing" textLength="68" x="321" y="1215.8008">ProductAdd</text><text fill="#000000" font-family="sans-serif" font-size="12" lengthAdjust="spacing" textLength="56" x="327" y="1229.9336">Controller</text><!--MD5=[b1ec36c9af18abf088d1930528987fc8]
class ProductUpdateController--><rect codeLine="52" fill="#FEFECE" height="38.2656" id="ProductUpdateController" style="stroke:#A80036;stroke-width:1.5;" width="118" x="283" y="1126.1992"/><ellipse cx="298" cy="1145.332" fill="#ADD1B2" rx="11" ry="11" style="stroke:#A80036;stroke-width:1.0;"/><path d="M300.4731,1151.4751 Q299.8921,1151.7739 299.2529,1151.9233 Q298.6138,1152.0728 297.9082,1152.0728 Q295.4014,1152.0728 294.0815,1150.4209 Q292.7617,1148.769 292.7617,1145.6479 Q292.7617,1142.5186 294.0815,1140.8667 Q295.4014,1139.2148 297.9082,1139.2148 Q298.6138,1139.2148 299.2612,1139.3643 Q299.9087,1139.5137 300.4731,1139.8125 L300.4731,1142.5352 Q299.8423,1141.9541 299.2488,1141.6843 Q298.6553,1141.4146 298.0244,1141.4146 Q296.6797,1141.4146 295.9949,1142.4812 Q295.3101,1143.5479 295.3101,1145.6479 Q295.3101,1147.7397 295.9949,1148.8064 Q296.6797,1149.873 298.0244,1149.873 Q298.6553,1149.873 299.2488,1149.6033 Q299.8423,1149.3335 300.4731,1148.7524 Z " fill="#000000"/><text fill="#000000" font-family="sans-serif" font-size="12" lengthAdjust="spacing" textLength="86" x="312" y="1142.8008">ProductUpdate</text><text fill="#000000" font-family="sans-serif" font-size="12" lengthAdjust="spacing" textLength="56" x="327" y="1156.9336">Controller</text><!--MD5=[07667f7f066eebfcc093258b3f2f15d5]
class ProductDeleteController--><rect codeLine="53" fill="#FEFECE" height="38.2656" id="ProductDeleteController" style="stroke:#A80036;stroke-width:1.5;" width="113" x="285.5" y="1053.1992"/><ellipse cx="300.5" cy="1072.332" fill="#ADD1B2" rx="11" ry="11" style="stroke:#A80036;stroke-width:1.0;"/><path d="M302.9731,1078.4751 Q302.3921,1078.7739 301.7529,1078.9233 Q301.1138,1079.0728 300.4082,1079.0728 Q297.9014,1079.0728 296.5815,1077.4209 Q295.2617,1075.769 295.2617,1072.6479 Q295.2617,1069.5186 296.5815,1067.8667 Q297.9014,1066.2148 300.4082,1066.2148 Q301.1138,1066.2148 301.7612,1066.3643 Q302.4087,1066.5137 302.9731,1066.8125 L302.9731,1069.5352 Q302.3423,1068.9541 301.7488,1068.6843 Q301.1553,1068.4146 300.5244,1068.4146 Q299.1797,1068.4146 298.4949,1069.4812 Q297.8101,1070.5479 297.8101,1072.6479 Q297.8101,1074.7397 298.4949,1075.8064 Q299.1797,1076.873 300.5244,1076.873 Q301.1553,1076.873 301.7488,1076.6033 Q302.3423,1076.3335 302.9731,1075.7524 Z " fill="#000000"/><text fill="#000000" font-family="sans-serif" font-size="12" lengthAdjust="spacing" textLength="81" x="314.5" y="1069.8008">ProductDelete</text><text fill="#000000" font-family="sans-serif" font-size="12" lengthAdjust="spacing" textLength="56" x="327" y="1083.9336">Controller</text><!--MD5=[fd3ade52011de7ddafd55523ae1c4c7e]
class ProductCategoryAddController--><rect codeLine="54" fill="#FEFECE" height="38.2656" id="ProductCategoryAddController" style="stroke:#A80036;stroke-width:1.5;" width="151" x="471.5" y="1199.1992"/><ellipse cx="486.5" cy="1218.332" fill="#ADD1B2" rx="11" ry="11" style="stroke:#A80036;stroke-width:1.0;"/><path d="M488.9731,1224.4751 Q488.3921,1224.7739 487.7529,1224.9233 Q487.1138,1225.0728 486.4082,1225.0728 Q483.9014,1225.0728 482.5815,1223.4209 Q481.2617,1221.769 481.2617,1218.6479 Q481.2617,1215.5186 482.5815,1213.8667 Q483.9014,1212.2148 486.4082,1212.2148 Q487.1138,1212.2148 487.7612,1212.3643 Q488.4087,1212.5137 488.9731,1212.8125 L488.9731,1215.5352 Q488.3423,1214.9541 487.7488,1214.6843 Q487.1553,1214.4146 486.5244,1214.4146 Q485.1797,1214.4146 484.4949,1215.4812 Q483.8101,1216.5479 483.8101,1218.6479 Q483.8101,1220.7397 484.4949,1221.8064 Q485.1797,1222.873 486.5244,1222.873 Q487.1553,1222.873 487.7488,1222.6033 Q488.3423,1222.3335 488.9731,1221.7524 Z " fill="#000000"/><text fill="#000000" font-family="sans-serif" font-size="12" lengthAdjust="spacing" textLength="119" x="500.5" y="1215.8008">ProductCategoryAdd</text><text fill="#000000" font-family="sans-serif" font-size="12" lengthAdjust="spacing" textLength="56" x="532" y="1229.9336">Controller</text><!--MD5=[799f3b9c66ec8af5dbcad41089cd95b3]
class EmployeeAccountAddController--><rect codeLine="55" fill="#FEFECE" height="38.2656" id="EmployeeAccountAddController" style="stroke:#A80036;stroke-width:1.5;" width="157" x="468.5" y="1126.1992"/><ellipse cx="483.5" cy="1145.332" fill="#ADD1B2" rx="11" ry="11" style="stroke:#A80036;stroke-width:1.0;"/><path d="M485.9731,1151.4751 Q485.3921,1151.7739 484.7529,1151.9233 Q484.1138,1152.0728 483.4082,1152.0728 Q480.9014,1152.0728 479.5815,1150.4209 Q478.2617,1148.769 478.2617,1145.6479 Q478.2617,1142.5186 479.5815,1140.8667 Q480.9014,1139.2148 483.4082,1139.2148 Q484.1138,1139.2148 484.7612,1139.3643 Q485.4087,1139.5137 485.9731,1139.8125 L485.9731,1142.5352 Q485.3423,1141.9541 484.7488,1141.6843 Q484.1553,1141.4146 483.5244,1141.4146 Q482.1797,1141.4146 481.4949,1142.4812 Q480.8101,1143.5479 480.8101,1145.6479 Q480.8101,1147.7397 481.4949,1148.8064 Q482.1797,1149.873 483.5244,1149.873 Q484.1553,1149.873 484.7488,1149.6033 Q485.3423,1149.3335 485.9731,1148.7524 Z " fill="#000000"/><text fill="#000000" font-family="sans-serif" font-size="12" lengthAdjust="spacing" textLength="125" x="497.5" y="1142.8008">EmployeeAccountAdd</text><text fill="#000000" font-family="sans-serif" font-size="12" lengthAdjust="spacing" textLength="56" x="532" y="1156.9336">Controller</text><!--MD5=[668ea7c79ce1ae8ad1964171cfbda1b4]
class TopController--><rect codeLine="58" fill="#FEFECE" height="38.2656" id="TopController" style="stroke:#A80036;stroke-width:1.5;" width="88" x="103" y="1458.1992"/><ellipse cx="118" cy="1477.332" fill="#ADD1B2" rx="11" ry="11" style="stroke:#A80036;stroke-width:1.0;"/><path d="M120.4731,1483.4751 Q119.8921,1483.7739 119.2529,1483.9233 Q118.6138,1484.0728 117.9082,1484.0728 Q115.4014,1484.0728 114.0815,1482.4209 Q112.7617,1480.769 112.7617,1477.6479 Q112.7617,1474.5186 114.0815,1472.8667 Q115.4014,1471.2148 117.9082,1471.2148 Q118.6138,1471.2148 119.2612,1471.3643 Q119.9087,1471.5137 120.4731,1471.8125 L120.4731,1474.5352 Q119.8423,1473.9541 119.2488,1473.6843 Q118.6553,1473.4146 118.0244,1473.4146 Q116.6797,1473.4146 115.9949,1474.4812 Q115.3101,1475.5479 115.3101,1477.6479 Q115.3101,1479.7397 115.9949,1480.8064 Q116.6797,1481.873 118.0244,1481.873 Q118.6553,1481.873 119.2488,1481.6033 Q119.8423,1481.3335 120.4731,1480.7524 Z " fill="#000000"/><text fill="#000000" font-family="sans-serif" font-size="12" lengthAdjust="spacing" textLength="23" x="148.5" y="1474.8008">Top</text><text fill="#000000" font-family="sans-serif" font-size="12" lengthAdjust="spacing" textLength="56" x="132" y="1488.9336">Controller</text><!--MD5=[4f0833a8cede907c01a09b5e0bd7734c]
class CustomerResigterController--><rect codeLine="59" fill="#FEFECE" height="38.2656" id="CustomerResigterController" style="stroke:#A80036;stroke-width:1.5;" width="134" x="80" y="1385.1992"/><ellipse cx="95" cy="1404.332" fill="#ADD1B2" rx="11" ry="11" style="stroke:#A80036;stroke-width:1.0;"/><path d="M97.4731,1410.4751 Q96.8921,1410.7739 96.2529,1410.9233 Q95.6138,1411.0728 94.9082,1411.0728 Q92.4014,1411.0728 91.0815,1409.4209 Q89.7617,1407.769 89.7617,1404.6479 Q89.7617,1401.5186 91.0815,1399.8667 Q92.4014,1398.2148 94.9082,1398.2148 Q95.6138,1398.2148 96.2612,1398.3643 Q96.9087,1398.5137 97.4731,1398.8125 L97.4731,1401.5352 Q96.8423,1400.9541 96.2488,1400.6843 Q95.6553,1400.4146 95.0244,1400.4146 Q93.6797,1400.4146 92.9949,1401.4812 Q92.3101,1402.5479 92.3101,1404.6479 Q92.3101,1406.7397 92.9949,1407.8064 Q93.6797,1408.873 95.0244,1408.873 Q95.6553,1408.873 96.2488,1408.6033 Q96.8423,1408.3335 97.4731,1407.7524 Z " fill="#000000"/><text fill="#000000" font-family="sans-serif" font-size="12" lengthAdjust="spacing" textLength="102" x="109" y="1401.8008">CustomerResigter</text><text fill="#000000" font-family="sans-serif" font-size="12" lengthAdjust="spacing" textLength="56" x="132" y="1415.9336">Controller</text><!--MD5=[d47d059a71c9d68ed9d245fee25131e6]
class CustomerLoginController--><rect codeLine="60" fill="#FEFECE" height="38.2656" id="CustomerLoginController" style="stroke:#A80036;stroke-width:1.5;" width="117" x="88.5" y="1312.1992"/><ellipse cx="103.5" cy="1331.332" fill="#ADD1B2" rx="11" ry="11" style="stroke:#A80036;stroke-width:1.0;"/><path d="M105.9731,1337.4751 Q105.3921,1337.7739 104.7529,1337.9233 Q104.1138,1338.0728 103.4082,1338.0728 Q100.9014,1338.0728 99.5815,1336.4209 Q98.2617,1334.769 98.2617,1331.6479 Q98.2617,1328.5186 99.5815,1326.8667 Q100.9014,1325.2148 103.4082,1325.2148 Q104.1138,1325.2148 104.7612,1325.3643 Q105.4087,1325.5137 105.9731,1325.8125 L105.9731,1328.5352 Q105.3423,1327.9541 104.7488,1327.6843 Q104.1553,1327.4146 103.5244,1327.4146 Q102.1797,1327.4146 101.4949,1328.4812 Q100.8101,1329.5479 100.8101,1331.6479 Q100.8101,1333.7397 101.4949,1334.8064 Q102.1797,1335.873 103.5244,1335.873 Q104.1553,1335.873 104.7488,1335.6033 Q105.3423,1335.3335 105.9731,1334.7524 Z " fill="#000000"/><text fill="#000000" font-family="sans-serif" font-size="12" lengthAdjust="spacing" textLength="85" x="117.5" y="1328.8008">CustomerLogin</text><text fill="#000000" font-family="sans-serif" font-size="12" lengthAdjust="spacing" textLength="56" x="132" y="1342.9336">Controller</text><!--MD5=[70c8a162e43914ec2c2cd7edd21aa234]
class ProductListController--><rect codeLine="61" fill="#FEFECE" height="38.2656" id="ProductListController" style="stroke:#A80036;stroke-width:1.5;" width="95" x="294.5" y="1458.1992"/><ellipse cx="309.5" cy="1477.332" fill="#ADD1B2" rx="11" ry="11" style="stroke:#A80036;stroke-width:1.0;"/><path d="M311.9731,1483.4751 Q311.3921,1483.7739 310.7529,1483.9233 Q310.1138,1484.0728 309.4082,1484.0728 Q306.9014,1484.0728 305.5815,1482.4209 Q304.2617,1480.769 304.2617,1477.6479 Q304.2617,1474.5186 305.5815,1472.8667 Q306.9014,1471.2148 309.4082,1471.2148 Q310.1138,1471.2148 310.7612,1471.3643 Q311.4087,1471.5137 311.9731,1471.8125 L311.9731,1474.5352 Q311.3423,1473.9541 310.7488,1473.6843 Q310.1553,1473.4146 309.5244,1473.4146 Q308.1797,1473.4146 307.4949,1474.4812 Q306.8101,1475.5479 306.8101,1477.6479 Q306.8101,1479.7397 307.4949,1480.8064 Q308.1797,1481.873 309.5244,1481.873 Q310.1553,1481.873 310.7488,1481.6033 Q311.3423,1481.3335 311.9731,1480.7524 Z " fill="#000000"/><text fill="#000000" font-family="sans-serif" font-size="12" lengthAdjust="spacing" textLength="63" x="323.5" y="1474.8008">ProductList</text><text fill="#000000" font-family="sans-serif" font-size="12" lengthAdjust="spacing" textLength="56" x="327" y="1488.9336">Controller</text><!--MD5=[abcb504e86a495d08471699b9cefaa2e]
class PurchaseController--><rect codeLine="62" fill="#FEFECE" height="38.2656" id="PurchaseController" style="stroke:#A80036;stroke-width:1.5;" width="88" x="298" y="1385.1992"/><ellipse cx="313" cy="1404.332" fill="#ADD1B2" rx="11" ry="11" style="stroke:#A80036;stroke-width:1.0;"/><path d="M315.4731,1410.4751 Q314.8921,1410.7739 314.2529,1410.9233 Q313.6138,1411.0728 312.9082,1411.0728 Q310.4014,1411.0728 309.0815,1409.4209 Q307.7617,1407.769 307.7617,1404.6479 Q307.7617,1401.5186 309.0815,1399.8667 Q310.4014,1398.2148 312.9082,1398.2148 Q313.6138,1398.2148 314.2612,1398.3643 Q314.9087,1398.5137 315.4731,1398.8125 L315.4731,1401.5352 Q314.8423,1400.9541 314.2488,1400.6843 Q313.6553,1400.4146 313.0244,1400.4146 Q311.6797,1400.4146 310.9949,1401.4812 Q310.3101,1402.5479 310.3101,1404.6479 Q310.3101,1406.7397 310.9949,1407.8064 Q311.6797,1408.873 313.0244,1408.873 Q313.6553,1408.873 314.2488,1408.6033 Q314.8423,1408.3335 315.4731,1407.7524 Z " fill="#000000"/><text fill="#000000" font-family="sans-serif" font-size="12" lengthAdjust="spacing" textLength="52" x="329" y="1401.8008">Purchase</text><text fill="#000000" font-family="sans-serif" font-size="12" lengthAdjust="spacing" textLength="56" x="327" y="1415.9336">Controller</text><!--MD5=[4cbd81c092c72fcf63eded8dab2f6115]
class OrderController--><rect codeLine="63" fill="#FEFECE" height="38.2656" id="OrderController" style="stroke:#A80036;stroke-width:1.5;" width="88" x="298" y="1312.1992"/><ellipse cx="313" cy="1331.332" fill="#ADD1B2" rx="11" ry="11" style="stroke:#A80036;stroke-width:1.0;"/><path d="M315.4731,1337.4751 Q314.8921,1337.7739 314.2529,1337.9233 Q313.6138,1338.0728 312.9082,1338.0728 Q310.4014,1338.0728 309.0815,1336.4209 Q307.7617,1334.769 307.7617,1331.6479 Q307.7617,1328.5186 309.0815,1326.8667 Q310.4014,1325.2148 312.9082,1325.2148 Q313.6138,1325.2148 314.2612,1325.3643 Q314.9087,1325.5137 315.4731,1325.8125 L315.4731,1328.5352 Q314.8423,1327.9541 314.2488,1327.6843 Q313.6553,1327.4146 313.0244,1327.4146 Q311.6797,1327.4146 310.9949,1328.4812 Q310.3101,1329.5479 310.3101,1331.6479 Q310.3101,1333.7397 310.9949,1334.8064 Q311.6797,1335.873 313.0244,1335.873 Q313.6553,1335.873 314.2488,1335.6033 Q314.8423,1335.3335 315.4731,1334.7524 Z " fill="#000000"/><text fill="#000000" font-family="sans-serif" font-size="12" lengthAdjust="spacing" textLength="34" x="338" y="1328.8008">Order</text><text fill="#000000" font-family="sans-serif" font-size="12" lengthAdjust="spacing" textLength="56" x="327" y="1342.9336">Controller</text><!--MD5=[eb3c6c00efc878a4a6fbbcbb555fa97e]
class OrderCancelAddController--><rect codeLine="64" fill="#FEFECE" height="38.2656" id="OrderCancelAddController" style="stroke:#A80036;stroke-width:1.5;" width="128" x="483" y="1458.1992"/><ellipse cx="498" cy="1477.332" fill="#ADD1B2" rx="11" ry="11" style="stroke:#A80036;stroke-width:1.0;"/><path d="M500.4731,1483.4751 Q499.8921,1483.7739 499.2529,1483.9233 Q498.6138,1484.0728 497.9082,1484.0728 Q495.4014,1484.0728 494.0815,1482.4209 Q492.7617,1480.769 492.7617,1477.6479 Q492.7617,1474.5186 494.0815,1472.8667 Q495.4014,1471.2148 497.9082,1471.2148 Q498.6138,1471.2148 499.2612,1471.3643 Q499.9087,1471.5137 500.4731,1471.8125 L500.4731,1474.5352 Q499.8423,1473.9541 499.2488,1473.6843 Q498.6553,1473.4146 498.0244,1473.4146 Q496.6797,1473.4146 495.9949,1474.4812 Q495.3101,1475.5479 495.3101,1477.6479 Q495.3101,1479.7397 495.9949,1480.8064 Q496.6797,1481.873 498.0244,1481.873 Q498.6553,1481.873 499.2488,1481.6033 Q499.8423,1481.3335 500.4731,1480.7524 Z " fill="#000000"/><text fill="#000000" font-family="sans-serif" font-size="12" lengthAdjust="spacing" textLength="96" x="512" y="1474.8008">OrderCancelAdd</text><text fill="#000000" font-family="sans-serif" font-size="12" lengthAdjust="spacing" textLength="56" x="532" y="1488.9336">Controller</text><!--MD5=[686697fece90124814e40ac7a58da5ce]
class OrderHistoryController--><rect codeLine="65" fill="#FEFECE" height="38.2656" id="OrderHistoryController" style="stroke:#A80036;stroke-width:1.5;" width="106" x="494" y="1385.1992"/><ellipse cx="509" cy="1404.332" fill="#ADD1B2" rx="11" ry="11" style="stroke:#A80036;stroke-width:1.0;"/><path d="M511.4731,1410.4751 Q510.8921,1410.7739 510.2529,1410.9233 Q509.6138,1411.0728 508.9082,1411.0728 Q506.4014,1411.0728 505.0815,1409.4209 Q503.7617,1407.769 503.7617,1404.6479 Q503.7617,1401.5186 505.0815,1399.8667 Q506.4014,1398.2148 508.9082,1398.2148 Q509.6138,1398.2148 510.2612,1398.3643 Q510.9087,1398.5137 511.4731,1398.8125 L511.4731,1401.5352 Q510.8423,1400.9541 510.2488,1400.6843 Q509.6553,1400.4146 509.0244,1400.4146 Q507.6797,1400.4146 506.9949,1401.4812 Q506.3101,1402.5479 506.3101,1404.6479 Q506.3101,1406.7397 506.9949,1407.8064 Q507.6797,1408.873 509.0244,1408.873 Q509.6553,1408.873 510.2488,1408.6033 Q510.8423,1408.3335 511.4731,1407.7524 Z " fill="#000000"/><text fill="#000000" font-family="sans-serif" font-size="12" lengthAdjust="spacing" textLength="74" x="523" y="1401.8008">OrderHistory</text><text fill="#000000" font-family="sans-serif" font-size="12" lengthAdjust="spacing" textLength="56" x="532" y="1415.9336">Controller</text><!--MD5=[97e8eeba94eed51550a5ce75d973537c]
class LogoutController--><rect codeLine="66" fill="#FEFECE" height="38.2656" id="LogoutController" style="stroke:#A80036;stroke-width:1.5;" width="88" x="503" y="1312.1992"/><ellipse cx="518" cy="1331.332" fill="#ADD1B2" rx="11" ry="11" style="stroke:#A80036;stroke-width:1.0;"/><path d="M520.4731,1337.4751 Q519.8921,1337.7739 519.2529,1337.9233 Q518.6138,1338.0728 517.9082,1338.0728 Q515.4014,1338.0728 514.0815,1336.4209 Q512.7617,1334.769 512.7617,1331.6479 Q512.7617,1328.5186 514.0815,1326.8667 Q515.4014,1325.2148 517.9082,1325.2148 Q518.6138,1325.2148 519.2612,1325.3643 Q519.9087,1325.5137 520.4731,1325.8125 L520.4731,1328.5352 Q519.8423,1327.9541 519.2488,1327.6843 Q518.6553,1327.4146 518.0244,1327.4146 Q516.6797,1327.4146 515.9949,1328.4812 Q515.3101,1329.5479 515.3101,1331.6479 Q515.3101,1333.7397 515.9949,1334.8064 Q516.6797,1335.873 518.0244,1335.873 Q518.6553,1335.873 519.2488,1335.6033 Q519.8423,1335.3335 520.4731,1334.7524 Z " fill="#000000"/><text fill="#000000" font-family="sans-serif" font-size="12" lengthAdjust="spacing" textLength="38" x="541" y="1328.8008">Logout</text><text fill="#000000" font-family="sans-serif" font-size="12" lengthAdjust="spacing" textLength="56" x="532" y="1342.9336">Controller</text><!--MD5=[5781fd64b858718352344dee0a3b49d7]
class LoginForm--><rect codeLine="71" fill="#FEFECE" height="38.2656" id="LoginForm" style="stroke:#A80036;stroke-width:1.5;" width="62" x="743" y="251.1992"/><ellipse cx="758" cy="270.332" fill="#ADD1B2" rx="11" ry="11" style="stroke:#A80036;stroke-width:1.0;"/><path d="M760.4731,276.4751 Q759.8921,276.7739 759.2529,276.9233 Q758.6138,277.0728 757.9082,277.0728 Q755.4014,277.0728 754.0815,275.4209 Q752.7617,273.769 752.7617,270.6479 Q752.7617,267.5186 754.0815,265.8667 Q755.4014,264.2148 757.9082,264.2148 Q758.6138,264.2148 759.2612,264.3643 Q759.9087,264.5137 760.4731,264.8125 L760.4731,267.5352 Q759.8423,266.9541 759.2488,266.6843 Q758.6553,266.4146 758.0244,266.4146 Q756.6797,266.4146 755.9949,267.4812 Q755.3101,268.5479 755.3101,270.6479 Q755.3101,272.7397 755.9949,273.8064 Q756.6797,274.873 758.0244,274.873 Q758.6553,274.873 759.2488,274.6033 Q759.8423,274.3335 760.4731,273.7524 Z " fill="#000000"/><text fill="#000000" font-family="sans-serif" font-size="12" lengthAdjust="spacing" textLength="30" x="772" y="267.8008">Login</text><text fill="#000000" font-family="sans-serif" font-size="12" lengthAdjust="spacing" textLength="29" x="772.5" y="281.9336">Form</text><!--MD5=[703b11e85ef4edc49f2a2a76f4600067]
class ProductForm--><rect codeLine="72" fill="#FEFECE" height="38.2656" id="ProductForm" style="stroke:#A80036;stroke-width:1.5;" width="76" x="736" y="178.1992"/><ellipse cx="751" cy="197.332" fill="#ADD1B2" rx="11" ry="11" style="stroke:#A80036;stroke-width:1.0;"/><path d="M753.4731,203.4751 Q752.8921,203.7739 752.2529,203.9233 Q751.6138,204.0728 750.9082,204.0728 Q748.4014,204.0728 747.0815,202.4209 Q745.7617,200.769 745.7617,197.6479 Q745.7617,194.5186 747.0815,192.8667 Q748.4014,191.2148 750.9082,191.2148 Q751.6138,191.2148 752.2612,191.3643 Q752.9087,191.5137 753.4731,191.8125 L753.4731,194.5352 Q752.8423,193.9541 752.2488,193.6843 Q751.6553,193.4146 751.0244,193.4146 Q749.6797,193.4146 748.9949,194.4812 Q748.3101,195.5479 748.3101,197.6479 Q748.3101,199.7397 748.9949,200.8064 Q749.6797,201.873 751.0244,201.873 Q751.6553,201.873 752.2488,201.6033 Q752.8423,201.3335 753.4731,200.7524 Z " fill="#000000"/><text fill="#000000" font-family="sans-serif" font-size="12" lengthAdjust="spacing" textLength="44" x="765" y="194.8008">Product</text><text fill="#000000" font-family="sans-serif" font-size="12" lengthAdjust="spacing" textLength="29" x="772.5" y="208.9336">Form</text><!--MD5=[e6f5e1870d53ecb6cdbe7bfbe1cfe475]
class ProductFormValidator--><rect codeLine="73" fill="#FEFECE" height="38.2656" id="ProductFormValidator" style="stroke:#A80036;stroke-width:1.5;" width="113" x="717.5" y="105.1992"/><ellipse cx="732.5" cy="124.332" fill="#ADD1B2" rx="11" ry="11" style="stroke:#A80036;stroke-width:1.0;"/><path d="M734.9731,130.4751 Q734.3921,130.7739 733.7529,130.9233 Q733.1138,131.0728 732.4082,131.0728 Q729.9014,131.0728 728.5815,129.4209 Q727.2617,127.769 727.2617,124.6479 Q727.2617,121.5186 728.5815,119.8667 Q729.9014,118.2148 732.4082,118.2148 Q733.1138,118.2148 733.7612,118.3643 Q734.4087,118.5137 734.9731,118.8125 L734.9731,121.5352 Q734.3423,120.9541 733.7488,120.6843 Q733.1553,120.4146 732.5244,120.4146 Q731.1797,120.4146 730.4949,121.4812 Q729.8101,122.5479 729.8101,124.6479 Q729.8101,126.7397 730.4949,127.8064 Q731.1797,128.873 732.5244,128.873 Q733.1553,128.873 733.7488,128.6033 Q734.3423,128.3335 734.9731,127.7524 Z " fill="#000000"/><text fill="#000000" font-family="sans-serif" font-size="12" lengthAdjust="spacing" textLength="44" x="765" y="121.8008">Product</text><text fill="#000000" font-family="sans-serif" font-size="12" lengthAdjust="spacing" textLength="81" x="746.5" y="135.9336">FormValidator</text><!--MD5=[ca618a2c5aa3c6e0d01b89824beef0f2]
class ProductCategoryForm--><rect codeLine="74" fill="#FEFECE" height="38.2656" id="ProductCategoryForm" style="stroke:#A80036;stroke-width:1.5;" width="127" x="907.5" y="251.1992"/><ellipse cx="922.5" cy="270.332" fill="#ADD1B2" rx="11" ry="11" style="stroke:#A80036;stroke-width:1.0;"/><path d="M924.9731,276.4751 Q924.3921,276.7739 923.7529,276.9233 Q923.1138,277.0728 922.4082,277.0728 Q919.9014,277.0728 918.5815,275.4209 Q917.2617,273.769 917.2617,270.6479 Q917.2617,267.5186 918.5815,265.8667 Q919.9014,264.2148 922.4082,264.2148 Q923.1138,264.2148 923.7612,264.3643 Q924.4087,264.5137 924.9731,264.8125 L924.9731,267.5352 Q924.3423,266.9541 923.7488,266.6843 Q923.1553,266.4146 922.5244,266.4146 Q921.1797,266.4146 920.4949,267.4812 Q919.8101,268.5479 919.8101,270.6479 Q919.8101,272.7397 920.4949,273.8064 Q921.1797,274.873 922.5244,274.873 Q923.1553,274.873 923.7488,274.6033 Q924.3423,274.3335 924.9731,273.7524 Z " fill="#000000"/><text fill="#000000" font-family="sans-serif" font-size="12" lengthAdjust="spacing" textLength="95" x="936.5" y="267.8008">ProductCategory</text><text fill="#000000" font-family="sans-serif" font-size="12" lengthAdjust="spacing" textLength="29" x="969.5" y="281.9336">Form</text><!--MD5=[caa2ec7a101dfe0cab6d068b09a4f12a]
class EmployeeAccountForm--><rect codeLine="75" fill="#FEFECE" height="38.2656" id="EmployeeAccountForm" style="stroke:#A80036;stroke-width:1.5;" width="133" x="904.5" y="178.1992"/><ellipse cx="919.5" cy="197.332" fill="#ADD1B2" rx="11" ry="11" style="stroke:#A80036;stroke-width:1.0;"/><path d="M921.9731,203.4751 Q921.3921,203.7739 920.7529,203.9233 Q920.1138,204.0728 919.4082,204.0728 Q916.9014,204.0728 915.5815,202.4209 Q914.2617,200.769 914.2617,197.6479 Q914.2617,194.5186 915.5815,192.8667 Q916.9014,191.2148 919.4082,191.2148 Q920.1138,191.2148 920.7612,191.3643 Q921.4087,191.5137 921.9731,191.8125 L921.9731,194.5352 Q921.3423,193.9541 920.7488,193.6843 Q920.1553,193.4146 919.5244,193.4146 Q918.1797,193.4146 917.4949,194.4812 Q916.8101,195.5479 916.8101,197.6479 Q916.8101,199.7397 917.4949,200.8064 Q918.1797,201.873 919.5244,201.873 Q920.1553,201.873 920.7488,201.6033 Q921.3423,201.3335 921.9731,200.7524 Z " fill="#000000"/><text fill="#000000" font-family="sans-serif" font-size="12" lengthAdjust="spacing" textLength="101" x="933.5" y="194.8008">EmployeeAccount</text><text fill="#000000" font-family="sans-serif" font-size="12" lengthAdjust="spacing" textLength="29" x="969.5" y="208.9336">Form</text><!--MD5=[f798c1cd909c8316e15335bf949f9ed9]
class CustomerResigterForm--><rect codeLine="76" fill="#FEFECE" height="38.2656" id="CustomerResigterForm" style="stroke:#A80036;stroke-width:1.5;" width="134" x="904" y="105.1992"/><ellipse cx="919" cy="124.332" fill="#ADD1B2" rx="11" ry="11" style="stroke:#A80036;stroke-width:1.0;"/><path d="M921.4731,130.4751 Q920.8921,130.7739 920.2529,130.9233 Q919.6138,131.0728 918.9082,131.0728 Q916.4014,131.0728 915.0815,129.4209 Q913.7617,127.769 913.7617,124.6479 Q913.7617,121.5186 915.0815,119.8667 Q916.4014,118.2148 918.9082,118.2148 Q919.6138,118.2148 920.2612,118.3643 Q920.9087,118.5137 921.4731,118.8125 L921.4731,121.5352 Q920.8423,120.9541 920.2488,120.6843 Q919.6553,120.4146 919.0244,120.4146 Q917.6797,120.4146 916.9949,121.4812 Q916.3101,122.5479 916.3101,124.6479 Q916.3101,126.7397 916.9949,127.8064 Q917.6797,128.873 919.0244,128.873 Q919.6553,128.873 920.2488,128.6033 Q920.8423,128.3335 921.4731,127.7524 Z " fill="#000000"/><text fill="#000000" font-family="sans-serif" font-size="12" lengthAdjust="spacing" textLength="102" x="933" y="121.8008">CustomerResigter</text><text fill="#000000" font-family="sans-serif" font-size="12" lengthAdjust="spacing" textLength="29" x="969.5" y="135.9336">Form</text><!--MD5=[12369ca98524ebf0f056ed6c2200f4e2]
class CustomerLoginForm--><rect codeLine="77" fill="#FEFECE" height="38.2656" id="CustomerLoginForm" style="stroke:#A80036;stroke-width:1.5;" width="117" x="1099.5" y="251.1992"/><ellipse cx="1114.5" cy="270.332" fill="#ADD1B2" rx="11" ry="11" style="stroke:#A80036;stroke-width:1.0;"/><path d="M1116.9731,276.4751 Q1116.3921,276.7739 1115.7529,276.9233 Q1115.1138,277.0728 1114.4082,277.0728 Q1111.9014,277.0728 1110.5815,275.4209 Q1109.2617,273.769 1109.2617,270.6479 Q1109.2617,267.5186 1110.5815,265.8667 Q1111.9014,264.2148 1114.4082,264.2148 Q1115.1138,264.2148 1115.7612,264.3643 Q1116.4087,264.5137 1116.9731,264.8125 L1116.9731,267.5352 Q1116.3423,266.9541 1115.7488,266.6843 Q1115.1553,266.4146 1114.5244,266.4146 Q1113.1797,266.4146 1112.4949,267.4812 Q1111.8101,268.5479 1111.8101,270.6479 Q1111.8101,272.7397 1112.4949,273.8064 Q1113.1797,274.873 1114.5244,274.873 Q1115.1553,274.873 1115.7488,274.6033 Q1116.3423,274.3335 1116.9731,273.7524 Z " fill="#000000"/><text fill="#000000" font-family="sans-serif" font-size="12" lengthAdjust="spacing" textLength="85" x="1128.5" y="267.8008">CustomerLogin</text><text fill="#000000" font-family="sans-serif" font-size="12" lengthAdjust="spacing" textLength="29" x="1156.5" y="281.9336">Form</text><!--MD5=[90b4933ae61673e86d54630b91345478]
class OrderForm--><rect codeLine="78" fill="#FEFECE" height="38.2656" id="OrderForm" style="stroke:#A80036;stroke-width:1.5;" width="66" x="1125" y="178.1992"/><ellipse cx="1140" cy="197.332" fill="#ADD1B2" rx="11" ry="11" style="stroke:#A80036;stroke-width:1.0;"/><path d="M1142.4731,203.4751 Q1141.8921,203.7739 1141.2529,203.9233 Q1140.6138,204.0728 1139.9082,204.0728 Q1137.4014,204.0728 1136.0815,202.4209 Q1134.7617,200.769 1134.7617,197.6479 Q1134.7617,194.5186 1136.0815,192.8667 Q1137.4014,191.2148 1139.9082,191.2148 Q1140.6138,191.2148 1141.2612,191.3643 Q1141.9087,191.5137 1142.4731,191.8125 L1142.4731,194.5352 Q1141.8423,193.9541 1141.2488,193.6843 Q1140.6553,193.4146 1140.0244,193.4146 Q1138.6797,193.4146 1137.9949,194.4812 Q1137.3101,195.5479 1137.3101,197.6479 Q1137.3101,199.7397 1137.9949,200.8064 Q1138.6797,201.873 1140.0244,201.873 Q1140.6553,201.873 1141.2488,201.6033 Q1141.8423,201.3335 1142.4731,200.7524 Z " fill="#000000"/><text fill="#000000" font-family="sans-serif" font-size="12" lengthAdjust="spacing" textLength="34" x="1154" y="194.8008">Order</text><text fill="#000000" font-family="sans-serif" font-size="12" lengthAdjust="spacing" textLength="29" x="1156.5" y="208.9336">Form</text><!--MD5=[f041cc0e6980a2ec9e38a4d19d05ff1c]
class EmployeeAccountUserDetails--><rect codeLine="81" fill="#FEFECE" height="38.2656" id="EmployeeAccountUserDetails" style="stroke:#A80036;stroke-width:1.5;" width="133" x="707.5" y="510.1992"/><ellipse cx="722.5" cy="529.332" fill="#ADD1B2" rx="11" ry="11" style="stroke:#A80036;stroke-width:1.0;"/><path d="M724.9731,535.4751 Q724.3921,535.7739 723.7529,535.9233 Q723.1138,536.0728 722.4082,536.0728 Q719.9014,536.0728 718.5815,534.4209 Q717.2617,532.769 717.2617,529.6479 Q717.2617,526.5186 718.5815,524.8667 Q719.9014,523.2148 722.4082,523.2148 Q723.1138,523.2148 723.7612,523.3643 Q724.4087,523.5137 724.9731,523.8125 L724.9731,526.5352 Q724.3423,525.9541 723.7488,525.6843 Q723.1553,525.4146 722.5244,525.4146 Q721.1797,525.4146 720.4949,526.4812 Q719.8101,527.5479 719.8101,529.6479 Q719.8101,531.7397 720.4949,532.8064 Q721.1797,533.873 722.5244,533.873 Q723.1553,533.873 723.7488,533.6033 Q724.3423,533.3335 724.9731,532.7524 Z " fill="#000000"/><text fill="#000000" font-family="sans-serif" font-size="12" lengthAdjust="spacing" textLength="101" x="736.5" y="526.8008">EmployeeAccount</text><text fill="#000000" font-family="sans-serif" font-size="12" lengthAdjust="spacing" textLength="65" x="754.5" y="540.9336">UserDetails</text><!--MD5=[a6cf71837a01d26cf2dd86d57e2146b1]
class EmployeeAccountUserDetailsService--><rect codeLine="82" fill="#FEFECE" height="38.2656" id="EmployeeAccountUserDetailsService" style="stroke:#A80036;stroke-width:1.5;" width="137" x="705.5" y="437.1992"/><ellipse cx="720.5" cy="456.332" fill="#ADD1B2" rx="11" ry="11" style="stroke:#A80036;stroke-width:1.0;"/><path d="M722.9731,462.4751 Q722.3921,462.7739 721.7529,462.9233 Q721.1138,463.0728 720.4082,463.0728 Q717.9014,463.0728 716.5815,461.4209 Q715.2617,459.769 715.2617,456.6479 Q715.2617,453.5186 716.5815,451.8667 Q717.9014,450.2148 720.4082,450.2148 Q721.1138,450.2148 721.7612,450.3643 Q722.4087,450.5137 722.9731,450.8125 L722.9731,453.5352 Q722.3423,452.9541 721.7488,452.6843 Q721.1553,452.4146 720.5244,452.4146 Q719.1797,452.4146 718.4949,453.4812 Q717.8101,454.5479 717.8101,456.6479 Q717.8101,458.7397 718.4949,459.8064 Q719.1797,460.873 720.5244,460.873 Q721.1553,460.873 721.7488,460.6033 Q722.3423,460.3335 722.9731,459.7524 Z " fill="#000000"/><text fill="#000000" font-family="sans-serif" font-size="12" lengthAdjust="spacing" textLength="101" x="736.5" y="453.8008">EmployeeAccount</text><text fill="#000000" font-family="sans-serif" font-size="12" lengthAdjust="spacing" textLength="105" x="734.5" y="467.9336">UserDetailsService</text><!--MD5=[04bc60c47ff5f2766d654f0df24eafe1]
class EmployeeAccountSecurityConfig--><rect codeLine="83" fill="#FEFECE" height="38.2656" id="EmployeeAccountSecurityConfig" style="stroke:#A80036;stroke-width:1.5;" width="133" x="707.5" y="364.1992"/><ellipse cx="722.5" cy="383.332" fill="#ADD1B2" rx="11" ry="11" style="stroke:#A80036;stroke-width:1.0;"/><path d="M724.9731,389.4751 Q724.3921,389.7739 723.7529,389.9233 Q723.1138,390.0728 722.4082,390.0728 Q719.9014,390.0728 718.5815,388.4209 Q717.2617,386.769 717.2617,383.6479 Q717.2617,380.5186 718.5815,378.8667 Q719.9014,377.2148 722.4082,377.2148 Q723.1138,377.2148 723.7612,377.3643 Q724.4087,377.5137 724.9731,377.8125 L724.9731,380.5352 Q724.3423,379.9541 723.7488,379.6843 Q723.1553,379.4146 722.5244,379.4146 Q721.1797,379.4146 720.4949,380.4812 Q719.8101,381.5479 719.8101,383.6479 Q719.8101,385.7397 720.4949,386.8064 Q721.1797,387.873 722.5244,387.873 Q723.1553,387.873 723.7488,387.6033 Q724.3423,387.3335 724.9731,386.7524 Z " fill="#000000"/><text fill="#000000" font-family="sans-serif" font-size="12" lengthAdjust="spacing" textLength="101" x="736.5" y="380.8008">EmployeeAccount</text><text fill="#000000" font-family="sans-serif" font-size="12" lengthAdjust="spacing" textLength="80" x="747" y="394.9336">SecurityConfig</text><!--MD5=[f22ce55b344107ffdd997f40c9b5ede1]
class CustomerUserDetails--><rect codeLine="84" fill="#FEFECE" height="38.2656" id="CustomerUserDetails" style="stroke:#A80036;stroke-width:1.5;" width="97" x="922.5" y="510.1992"/><ellipse cx="937.5" cy="529.332" fill="#ADD1B2" rx="11" ry="11" style="stroke:#A80036;stroke-width:1.0;"/><path d="M939.9731,535.4751 Q939.3921,535.7739 938.7529,535.9233 Q938.1138,536.0728 937.4082,536.0728 Q934.9014,536.0728 933.5815,534.4209 Q932.2617,532.769 932.2617,529.6479 Q932.2617,526.5186 933.5815,524.8667 Q934.9014,523.2148 937.4082,523.2148 Q938.1138,523.2148 938.7612,523.3643 Q939.4087,523.5137 939.9731,523.8125 L939.9731,526.5352 Q939.3423,525.9541 938.7488,525.6843 Q938.1553,525.4146 937.5244,525.4146 Q936.1797,525.4146 935.4949,526.4812 Q934.8101,527.5479 934.8101,529.6479 Q934.8101,531.7397 935.4949,532.8064 Q936.1797,533.873 937.5244,533.873 Q938.1553,533.873 938.7488,533.6033 Q939.3423,533.3335 939.9731,532.7524 Z " fill="#000000"/><text fill="#000000" font-family="sans-serif" font-size="12" lengthAdjust="spacing" textLength="55" x="956.5" y="526.8008">Customer</text><text fill="#000000" font-family="sans-serif" font-size="12" lengthAdjust="spacing" textLength="65" x="951.5" y="540.9336">UserDetails</text><!--MD5=[de8ff5df62a666dfe57573f433cca166]
class CustomerUserDetailsService--><rect codeLine="85" fill="#FEFECE" height="38.2656" id="CustomerUserDetailsService" style="stroke:#A80036;stroke-width:1.5;" width="137" x="902.5" y="437.1992"/><ellipse cx="917.5" cy="456.332" fill="#ADD1B2" rx="11" ry="11" style="stroke:#A80036;stroke-width:1.0;"/><path d="M919.9731,462.4751 Q919.3921,462.7739 918.7529,462.9233 Q918.1138,463.0728 917.4082,463.0728 Q914.9014,463.0728 913.5815,461.4209 Q912.2617,459.769 912.2617,456.6479 Q912.2617,453.5186 913.5815,451.8667 Q914.9014,450.2148 917.4082,450.2148 Q918.1138,450.2148 918.7612,450.3643 Q919.4087,450.5137 919.9731,450.8125 L919.9731,453.5352 Q919.3423,452.9541 918.7488,452.6843 Q918.1553,452.4146 917.5244,452.4146 Q916.1797,452.4146 915.4949,453.4812 Q914.8101,454.5479 914.8101,456.6479 Q914.8101,458.7397 915.4949,459.8064 Q916.1797,460.873 917.5244,460.873 Q918.1553,460.873 918.7488,460.6033 Q919.3423,460.3335 919.9731,459.7524 Z " fill="#000000"/><text fill="#000000" font-family="sans-serif" font-size="12" lengthAdjust="spacing" textLength="55" x="956.5" y="453.8008">Customer</text><text fill="#000000" font-family="sans-serif" font-size="12" lengthAdjust="spacing" textLength="105" x="931.5" y="467.9336">UserDetailsService</text><!--MD5=[5025931cf95991b829f46483cdc88f3c]
class CustomerSecurityConfig--><rect codeLine="86" fill="#FEFECE" height="38.2656" id="CustomerSecurityConfig" style="stroke:#A80036;stroke-width:1.5;" width="112" x="915" y="364.1992"/><ellipse cx="930" cy="383.332" fill="#ADD1B2" rx="11" ry="11" style="stroke:#A80036;stroke-width:1.0;"/><path d="M932.4731,389.4751 Q931.8921,389.7739 931.2529,389.9233 Q930.6138,390.0728 929.9082,390.0728 Q927.4014,390.0728 926.0815,388.4209 Q924.7617,386.769 924.7617,383.6479 Q924.7617,380.5186 926.0815,378.8667 Q927.4014,377.2148 929.9082,377.2148 Q930.6138,377.2148 931.2612,377.3643 Q931.9087,377.5137 932.4731,377.8125 L932.4731,380.5352 Q931.8423,379.9541 931.2488,379.6843 Q930.6553,379.4146 930.0244,379.4146 Q928.6797,379.4146 927.9949,380.4812 Q927.3101,381.5479 927.3101,383.6479 Q927.3101,385.7397 927.9949,386.8064 Q928.6797,387.873 930.0244,387.873 Q930.6553,387.873 931.2488,387.6033 Q931.8423,387.3335 932.4731,386.7524 Z " fill="#000000"/><text fill="#000000" font-family="sans-serif" font-size="12" lengthAdjust="spacing" textLength="55" x="956.5" y="380.8008">Customer</text><text fill="#000000" font-family="sans-serif" font-size="12" lengthAdjust="spacing" textLength="80" x="944" y="394.9336">SecurityConfig</text><!--MD5=[e1aaee1b0a4fe865efbd3cc9c86e2fee]
class AppAdvice--><rect codeLine="90" fill="#FEFECE" height="32" id="AppAdvice" style="stroke:#A80036;stroke-width:1.5;" width="94" x="100" y="1644.1992"/><ellipse cx="115" cy="1660.1992" fill="#ADD1B2" rx="11" ry="11" style="stroke:#A80036;stroke-width:1.0;"/><path d="M117.4731,1666.3423 Q116.8921,1666.6411 116.2529,1666.7905 Q115.6138,1666.9399 114.9082,1666.9399 Q112.4014,1666.9399 111.0815,1665.2881 Q109.7617,1663.6362 109.7617,1660.5151 Q109.7617,1657.3857 111.0815,1655.7339 Q112.4014,1654.082 114.9082,1654.082 Q115.6138,1654.082 116.2612,1654.2314 Q116.9087,1654.3809 117.4731,1654.6797 L117.4731,1657.4023 Q116.8423,1656.8213 116.2488,1656.5515 Q115.6553,1656.2817 115.0244,1656.2817 Q113.6797,1656.2817 112.9949,1657.3484 Q112.3101,1658.415 112.3101,1660.5151 Q112.3101,1662.6069 112.9949,1663.6736 Q113.6797,1664.7402 115.0244,1664.7402 Q115.6553,1664.7402 116.2488,1664.4705 Q116.8423,1664.2007 117.4731,1663.6196 Z " fill="#000000"/><text fill="#000000" font-family="sans-serif" font-size="12" lengthAdjust="spacing" textLength="62" x="129" y="1664.7344">AppAdvice</text><!--MD5=[80c1ad5c0fd067f32708b98215ed2a65]
class BusinessException--><rect codeLine="94" fill="#FEFECE" height="32" id="BusinessException" style="stroke:#A80036;stroke-width:1.5;" width="137" x="78.5" y="1751.1992"/><ellipse cx="93.5" cy="1767.1992" fill="#ADD1B2" rx="11" ry="11" style="stroke:#A80036;stroke-width:1.0;"/><path d="M95.9731,1773.3423 Q95.3921,1773.6411 94.7529,1773.7905 Q94.1138,1773.9399 93.4082,1773.9399 Q90.9014,1773.9399 89.5815,1772.2881 Q88.2617,1770.6362 88.2617,1767.5151 Q88.2617,1764.3857 89.5815,1762.7339 Q90.9014,1761.082 93.4082,1761.082 Q94.1138,1761.082 94.7612,1761.2314 Q95.4087,1761.3809 95.9731,1761.6797 L95.9731,1764.4023 Q95.3423,1763.8213 94.7488,1763.5515 Q94.1553,1763.2817 93.5244,1763.2817 Q92.1797,1763.2817 91.4949,1764.3484 Q90.8101,1765.415 90.8101,1767.5151 Q90.8101,1769.6069 91.4949,1770.6736 Q92.1797,1771.7402 93.5244,1771.7402 Q94.1553,1771.7402 94.7488,1771.4705 Q95.3423,1771.2007 95.9731,1770.6196 Z " fill="#000000"/><text fill="#000000" font-family="sans-serif" font-size="12" lengthAdjust="spacing" textLength="105" x="107.5" y="1771.7344">BusinessException</text><!--MD5=[116ef02c2a0b10c87ddd9df28c3c19df]
class ApplicationConfig--><rect codeLine="98" fill="#FEFECE" height="32" id="ApplicationConfig" style="stroke:#A80036;stroke-width:1.5;" width="132" x="81" y="1858.1992"/><ellipse cx="96" cy="1874.1992" fill="#ADD1B2" rx="11" ry="11" style="stroke:#A80036;stroke-width:1.0;"/><path d="M98.4731,1880.3423 Q97.8921,1880.6411 97.2529,1880.7905 Q96.6138,1880.9399 95.9082,1880.9399 Q93.4014,1880.9399 92.0815,1879.2881 Q90.7617,1877.6362 90.7617,1874.5151 Q90.7617,1871.3857 92.0815,1869.7339 Q93.4014,1868.082 95.9082,1868.082 Q96.6138,1868.082 97.2612,1868.2314 Q97.9087,1868.3809 98.4731,1868.6797 L98.4731,1871.4023 Q97.8423,1870.8213 97.2488,1870.5515 Q96.6553,1870.2817 96.0244,1870.2817 Q94.6797,1870.2817 93.9949,1871.3484 Q93.3101,1872.415 93.3101,1874.5151 Q93.3101,1876.6069 93.9949,1877.6736 Q94.6797,1878.7402 96.0244,1878.7402 Q96.6553,1878.7402 97.2488,1878.4705 Q97.8423,1878.2007 98.4731,1877.6196 Z " fill="#000000"/><text fill="#000000" font-family="sans-serif" font-size="12" lengthAdjust="spacing" textLength="100" x="110" y="1878.7344">ApplicationConfig</text><!--MD5=[40e530a4467f601da2ee54d7d7595ae4]
reverse link OrderService to OrderServiceImpl--><path codeLine="38" d="M203.78,843.1992 C232.17,843.1992 266.33,843.1992 293.46,843.1992 " fill="none" id="OrderService-backto-OrderServiceImpl" style="stroke:#A80036;stroke-width:1.0;stroke-dasharray:7.0,7.0;"/><polygon fill="none" points="203.4,850.1992,183.4,843.1992,203.4,836.1992,203.4,850.1992" style="stroke:#A80036;stroke-width:1.0;"/><!--MD5=[fc0c862082617d1001ad601301e2cdc2]
reverse link ProductService to ProductServiceImpl--><path codeLine="39" d="M205.39,624.1992 C233.4,624.1992 266.69,624.1992 293.27,624.1992 " fill="none" id="ProductService-backto-ProductServiceImpl" style="stroke:#A80036;stroke-width:1.0;stroke-dasharray:7.0,7.0;"/><polygon fill="none" points="205.21,631.1992,185.21,624.1992,205.21,617.1992,205.21,631.1992" style="stroke:#A80036;stroke-width:1.0;"/><!--MD5=[72f8ec6e52ca709a8299e36a69ad1843]
reverse link CustomerService to CustomerServiceImpl--><path codeLine="40" d="M211.21,916.1992 C237.89,916.1992 268.44,916.1992 293.2,916.1992 " fill="none" id="CustomerService-backto-CustomerServiceImpl" style="stroke:#A80036;stroke-width:1.0;stroke-dasharray:7.0,7.0;"/><polygon fill="none" points="210.83,923.1992,190.83,916.1992,210.83,909.1992,210.83,923.1992" style="stroke:#A80036;stroke-width:1.0;"/><!--MD5=[41468604228f3319839cd0aae778c8fc]
reverse link ProductCategoryService to ProductCategoryServiceImpl--><path codeLine="41" d="M230.79,697.1992 C246.72,697.1992 263.16,697.1992 278.32,697.1992 " fill="none" id="ProductCategoryService-backto-ProductCategoryServiceImpl" style="stroke:#A80036;stroke-width:1.0;stroke-dasharray:7.0,7.0;"/><polygon fill="none" points="230.66,704.1992,210.66,697.1992,230.66,690.1992,230.66,704.1992" style="stroke:#A80036;stroke-width:1.0;"/><!--MD5=[3764257b184502bf476b8b977be14af9]
reverse link EmployeeAccountService to EmployeeAccountServiceImpl--><path codeLine="42" d="M233.68,770.1992 C247.62,770.1992 261.87,770.1992 275.24,770.1992 " fill="none" id="EmployeeAccountService-backto-EmployeeAccountServiceImpl" style="stroke:#A80036;stroke-width:1.0;stroke-dasharray:7.0,7.0;"/><polygon fill="none" points="233.61,777.1992,213.61,770.1992,233.61,763.1992,233.61,777.1992" style="stroke:#A80036;stroke-width:1.0;"/><!--MD5=[b131ca734c4dd9976ffc8967c101d71f]
link ProductRepository to ProductCategoryRepository--><!--MD5=[8f4c91f4e19c10b9f101b86960c3e582]
link ProductCategoryRepository to ProductStockRepository--><!--MD5=[6c09149a1462a1dc82160ca46336140a]
link ProductRepository to EmployeeAccountRepository--><!--MD5=[edd915b20299888af128e0bd25e84460]
link EmployeeAccountRepository to EmployeeRepository--><!--MD5=[4e78ae88cac8570160249f5976877eab]
link EmployeeRepository to CustomerRepository--><!--MD5=[4079db56ce530dfa1257d14aaeebef93]
link EmployeeAccountRepository to OrderRepository--><!--MD5=[b75f4d63a253070920099e94be68ed19]
link OrderRepository to OrderDetailRepository--><!--MD5=[5c0c66984b48f13f6f1fd84ba8e61151]
link Product to ProductCategory--><!--MD5=[ad88fe5c5e6cc803d339a761a659a0c8]
link ProductCategory to ProductStock--><!--MD5=[bc97695af3ce2ba4c0a3701258762952]
link Product to EmployeeAccount--><!--MD5=[8bdcc8c9d90fcaacf990725e33ad4337]
link EmployeeAccount to Employee--><!--MD5=[9e9a403e077a55d389e4f31d1b1a3cee]
link Employee to Customer--><!--MD5=[45e32ec2c6c686c6a75ef50b1b598f3a]
link EmployeeAccount to Order--><!--MD5=[9d1086e6121582a24d6fd76fc1ac13cb]
link Order to OrderDetail--><!--MD5=[5f7d45b9ce1e9df8f1802a5defda4c2b]
link MenuController to LoginController--><!--MD5=[82b8b31501c591efbf51a4e6074e3b79]
link LoginController to ProductSearchController--><!--MD5=[7b72953ad33e2e1e6aee4b9f03db3606]
link MenuController to ProductAddController--><!--MD5=[0bda33131c5e357f343312b8bed97a06]
link ProductAddController to ProductUpdateController--><!--MD5=[a3bcfec2d22debbf6adb983a83620da2]
link ProductUpdateController to ProductDeleteController--><!--MD5=[cb4a48f3edfcb107cb7136f806fca686]
link ProductAddController to ProductCategoryAddController--><!--MD5=[3e33d0c445923746627bbc8064c6f9c5]
link ProductCategoryAddController to EmployeeAccountAddController--><!--MD5=[78a2b4b6a00727a0e26307ace9171b7c]
link TopController to CustomerResigterController--><!--MD5=[467af3e44e9463cf4da5de694dbecb9b]
link CustomerResigterController to CustomerLoginController--><!--MD5=[f9b137b0eac740fffca0ab992ab80a91]
link TopController to ProductListController--><!--MD5=[0d1f0d47530176c0e976f3f8127e88ba]
link ProductListController to PurchaseController--><!--MD5=[ca072dac4d9f1b5bf5ebac676afa82b6]
link PurchaseController to OrderController--><!--MD5=[e050930e84839d4cd37426430c4e050a]
link ProductListController to OrderCancelAddController--><!--MD5=[650dcdde0192f0b192c00eac8f7344c1]
link OrderCancelAddController to OrderHistoryController--><!--MD5=[627f302c257220d444a62fdcc3889a8b]
link OrderHistoryController to LogoutController--><!--MD5=[eb495fd244d49c70a590e751ddb871bf]
link LoginForm to ProductForm--><!--MD5=[e16a0e10c725b04a1c788f2b20a89bd7]
link ProductForm to ProductFormValidator--><!--MD5=[71d72152ff7a0027b5078ecc30f11753]
link LoginForm to ProductCategoryForm--><!--MD5=[0939658f5c3bdcbad5f417b4013769bf]
link ProductCategoryForm to EmployeeAccountForm--><!--MD5=[b4792c27e17bda333f78c6f6189d1428]
link EmployeeAccountForm to CustomerResigterForm--><!--MD5=[0ed390c00f61f02147d92200c27bcea0]
link ProductCategoryForm to CustomerLoginForm--><!--MD5=[3b5d62cecb729baf190960299e4ef66d]
link CustomerLoginForm to OrderForm--><!--MD5=[a74d5b24e317351ae0b11e74c6bf0262]
link EmployeeAccountUserDetails to EmployeeAccountUserDetailsService--><!--MD5=[8536da6247fa23d265f0b59eeb9ebd09]
link EmployeeAccountUserDetailsService to EmployeeAccountSecurityConfig--><!--MD5=[9cbb2a5fae01677083365c33ca086a92]
link EmployeeAccountUserDetails to CustomerUserDetails--><!--MD5=[377da18a62a6d460d748f40f0e32d850]
link CustomerUserDetails to CustomerUserDetailsService--><!--MD5=[f8f4dc96a7dcecc48460eb169ad5027c]
link CustomerUserDetailsService to CustomerSecurityConfig--><!--MD5=[050dba2c543187550eb46b260482040b]
link ProductStockRepository to Product--><!--MD5=[f20b756783d12689e1462d421539b423]
link OrderRepository to LoginForm--><!--MD5=[bc67e6bb519a69cf7943496c01819e45]
link ProductFormValidator to EmployeeAccountUserDetails--><!--MD5=[8b65624eabe74871313a208daee15cdf]
@startuml
skin rose
skinparam shadowing false
hide empty methods
hide empty fields

title 概要クラス図
left to right direction

package com.fullness.ec{
    package repository{
    	interface "Product\nRepository" as ProductRepository
    	interface "ProductCategory\nRepository" as ProductCategoryRepository
    	interface "ProductStock\nRepository" as ProductStockRepository
    	interface "EmployeeAccount\nRepository" as EmployeeAccountRepository
    	interface "Employee\nRepository" as EmployeeRepository
    	interface "Customer\nRepository" as CustomerRepository
    	interface "Order\nRepository" as OrderRepository
    	interface "OrderDetail\nRepository" as OrderDetailRepository
    }
    package entity{
    	class Product
    	class ProductCategory
    	class ProductStock
    	class EmployeeAccount
    	class Employee
    	class Customer
    	class Order
    	class OrderDetail
    }

    package service{
        interface "Product\nService" as ProductService
        class "Product\nServiceImpl" as ProductServiceImpl
        interface "ProductCategory\nService" as ProductCategoryService
        class "ProductCategory\nServiceImpl" as ProductCategoryServiceImpl
        interface "EmployeeAccount\nService" as EmployeeAccountService
        class "EmployeeAccount\nServiceImpl" as EmployeeAccountServiceImpl
        interface "Order\nService" as OrderService
        class "Order\nServiceImpl" as OrderServiceImpl
        interface "Customer\nService" as CustomerService
        class "Customer\nServiceImpl" as CustomerServiceImpl
        OrderService <|.. OrderServiceImpl
        ProductService <|.. ProductServiceImpl
        CustomerService <|.. CustomerServiceImpl
        ProductCategoryService <|.. ProductCategoryServiceImpl
        EmployeeAccountService <|.. EmployeeAccountServiceImpl
    }

    package controller{
        class "GlobalException\nHandler" as GlobalExceptionHandler
        package backend{
            class "Menu\nController" as MenuController
            class "Login\nController" as LoginController
            class "ProductSearch\nController" as ProductSearchController
            class "ProductAdd\nController" as ProductAddController
            class "ProductUpdate\nController" as ProductUpdateController
            class "ProductDelete\nController" as ProductDeleteController
            class "ProductCategoryAdd\nController" as ProductCategoryAddController
            class "EmployeeAccountAdd\nController" as EmployeeAccountAddController
        }
        package frontend{
            class "Top\nController" as TopController
            class "CustomerResigter\nController" as CustomerResigterController
            class "CustomerLogin\nController" as CustomerLoginController
            class "ProductList\nController" as ProductListController
            class "Purchase\nController" as PurchaseController
            class "Order\nController" as OrderController
            class "OrderCancelAdd\nController" as OrderCancelAddController
            class "OrderHistory\nController" as OrderHistoryController
            class "Logout\nController" as LogoutController
        }
    }

    package form {
        class "Login\nForm" as LoginForm
        class "Product\nForm" as ProductForm
        class "Product\nFormValidator" as ProductFormValidator
        class "ProductCategory\nForm" as ProductCategoryForm
        class "EmployeeAccount\nForm" as EmployeeAccountForm
        class "CustomerResigter\nForm" as CustomerResigterForm
        class "CustomerLogin\nForm" as CustomerLoginForm
        class "Order\nForm" as OrderForm
    }
    package security{
        class "EmployeeAccount\nUserDetails" as EmployeeAccountUserDetails
        class "EmployeeAccount\nUserDetailsService" as EmployeeAccountUserDetailsService
        class "EmployeeAccount\nSecurityConfig" as EmployeeAccountSecurityConfig
        class "Customer\nUserDetails" as CustomerUserDetails
        class "Customer\nUserDetailsService" as CustomerUserDetailsService
        class "Customer\nSecurityConfig" as CustomerSecurityConfig
    }

    package advice{
        class "AppAdvice" as AppAdvice
    }

    package exception{
        class "BusinessException" as BusinessException
    }

    package config(){
        class "ApplicationConfig" as ApplicationConfig
    }
}


' controller -> service : use
' controller - -> form : use
' service - -> repository : call
' repository - -> entity : use

@enduml

@startuml
skin rose
skinparam shadowing false
hide empty methods
hide empty fields

title 概要クラス図
left to right direction

package com.fullness.ec{
    package repository{
    	interface "Product\nRepository" as ProductRepository
    	interface "ProductCategory\nRepository" as ProductCategoryRepository
    	interface "ProductStock\nRepository" as ProductStockRepository
    	interface "EmployeeAccount\nRepository" as EmployeeAccountRepository
    	interface "Employee\nRepository" as EmployeeRepository
    	interface "Customer\nRepository" as CustomerRepository
    	interface "Order\nRepository" as OrderRepository
    	interface "OrderDetail\nRepository" as OrderDetailRepository
    }
    package entity{
    	class Product
    	class ProductCategory
    	class ProductStock
    	class EmployeeAccount
    	class Employee
    	class Customer
    	class Order
    	class OrderDetail
    }

    package service{
        interface "Product\nService" as ProductService
        class "Product\nServiceImpl" as ProductServiceImpl
        interface "ProductCategory\nService" as ProductCategoryService
        class "ProductCategory\nServiceImpl" as ProductCategoryServiceImpl
        interface "EmployeeAccount\nService" as EmployeeAccountService
        class "EmployeeAccount\nServiceImpl" as EmployeeAccountServiceImpl
        interface "Order\nService" as OrderService
        class "Order\nServiceImpl" as OrderServiceImpl
        interface "Customer\nService" as CustomerService
        class "Customer\nServiceImpl" as CustomerServiceImpl
        OrderService <|.. OrderServiceImpl
        ProductService <|.. ProductServiceImpl
        CustomerService <|.. CustomerServiceImpl
        ProductCategoryService <|.. ProductCategoryServiceImpl
        EmployeeAccountService <|.. EmployeeAccountServiceImpl
    }

    package controller{
        class "GlobalException\nHandler" as GlobalExceptionHandler
        package backend{
            class "Menu\nController" as MenuController
            class "Login\nController" as LoginController
            class "ProductSearch\nController" as ProductSearchController
            class "ProductAdd\nController" as ProductAddController
            class "ProductUpdate\nController" as ProductUpdateController
            class "ProductDelete\nController" as ProductDeleteController
            class "ProductCategoryAdd\nController" as ProductCategoryAddController
            class "EmployeeAccountAdd\nController" as EmployeeAccountAddController
        }
        package frontend{
            class "Top\nController" as TopController
            class "CustomerResigter\nController" as CustomerResigterController
            class "CustomerLogin\nController" as CustomerLoginController
            class "ProductList\nController" as ProductListController
            class "Purchase\nController" as PurchaseController
            class "Order\nController" as OrderController
            class "OrderCancelAdd\nController" as OrderCancelAddController
            class "OrderHistory\nController" as OrderHistoryController
            class "Logout\nController" as LogoutController
        }
    }

    package form {
        class "Login\nForm" as LoginForm
        class "Product\nForm" as ProductForm
        class "Product\nFormValidator" as ProductFormValidator
        class "ProductCategory\nForm" as ProductCategoryForm
        class "EmployeeAccount\nForm" as EmployeeAccountForm
        class "CustomerResigter\nForm" as CustomerResigterForm
        class "CustomerLogin\nForm" as CustomerLoginForm
        class "Order\nForm" as OrderForm
    }
    package security{
        class "EmployeeAccount\nUserDetails" as EmployeeAccountUserDetails
        class "EmployeeAccount\nUserDetailsService" as EmployeeAccountUserDetailsService
        class "EmployeeAccount\nSecurityConfig" as EmployeeAccountSecurityConfig
        class "Customer\nUserDetails" as CustomerUserDetails
        class "Customer\nUserDetailsService" as CustomerUserDetailsService
        class "Customer\nSecurityConfig" as CustomerSecurityConfig
    }

    package advice{
        class "AppAdvice" as AppAdvice
    }

    package exception{
        class "BusinessException" as BusinessException
    }

    package config(){
        class "ApplicationConfig" as ApplicationConfig
    }
}



@enduml

PlantUML version 1.2022.0(Wed Jan 12 01:16:42 JST 2022)
(GPL source distribution)
Java Runtime: OpenJDK Runtime Environment
JVM: OpenJDK 64-Bit Server VM
Default Encoding: UTF-8
Language: ja
Country: JP
--></g></svg>