<svg xmlns="http://www.w3.org/2000/svg" xmlns:xlink="http://www.w3.org/1999/xlink" contentStyleType="text/css" height="470px" preserveAspectRatio="none" style="width:1323px;height:470px;background:#FFFFFF;" version="1.1" viewBox="0 0 1323 470" width="1323px" zoomAndPan="magnify"><defs/><g><text fill="#000000" font-family="sans-serif" font-size="14" font-weight="bold" lengthAdjust="spacing" textLength="151.5114" x="579.1393" y="22.9951">repository&#12497;&#12483;&#12465;&#12540;&#12472;</text><!--cluster repository--><g id="cluster_repository"><polygon fill="none" points="16,43.2969,93.1006,43.2969,100.1006,65.5938,1306.79,65.5938,1306.79,463.2969,16,463.2969,16,43.2969" style="stroke:#000000;stroke-width:1.5;"/><line style="stroke:#000000;stroke-width:1.5;" x1="16" x2="100.1006" y1="65.5938" y2="65.5938"/><text fill="#000000" font-family="sans-serif" font-size="14" lengthAdjust="spacing" textLength="71.1006" x="20" y="58.292">repository</text></g><!--class ProductRepository--><g id="elem_ProductRepository"><rect codeLine="7" fill="#FEFECE" height="137.7813" id="ProductRepository" style="stroke:#A80036;stroke-width:1.0;" width="427.4404" x="32" y="309.4069"/><ellipse cx="177.0791" cy="325.4069" fill="#B4A7E5" rx="11" ry="11" style="stroke:#A80036;stroke-width:1.0;"/><path d="M173.001,321.1725 L173.001,319.0163 L180.3916,319.0163 L180.3916,321.1725 L177.9229,321.1725 L177.9229,329.2506 L180.3916,329.2506 L180.3916,331.4069 L173.001,331.4069 L173.001,329.2506 L175.4697,329.2506 L175.4697,321.1725 L173.001,321.1725 Z " fill="#000000"/><text fill="#000000" font-family="sans-serif" font-size="14" font-style="italic" lengthAdjust="spacing" textLength="128.7822" x="197.5791" y="330.2536">ProductRepository</text><line style="stroke:#A80036;stroke-width:1.0;" x1="33" x2="458.4404" y1="341.4069" y2="341.4069"/><ellipse cx="43" cy="355.0553" fill="#84BE84" rx="3" ry="3" style="stroke:#038048;stroke-width:1.0;"/><text fill="#000000" font-family="sans-serif" font-size="14" font-style="italic" lengthAdjust="spacing" textLength="170.1191" x="52" y="358.402">findAll() : List&lt;Product&gt;</text><ellipse cx="43" cy="371.3522" fill="#84BE84" rx="3" ry="3" style="stroke:#038048;stroke-width:1.0;"/><text fill="#000000" font-family="sans-serif" font-size="14" font-style="italic" lengthAdjust="spacing" textLength="401.4404" x="52" y="374.6989">findByCategoryId(int productCategoryId) : List&lt;Product&gt;</text><ellipse cx="43" cy="387.6491" fill="#84BE84" rx="3" ry="3" style="stroke:#038048;stroke-width:1.0;"/><text fill="#000000" font-family="sans-serif" font-size="14" font-style="italic" lengthAdjust="spacing" textLength="203.3213" x="52" y="390.9957">findById(Integer id) : Product</text><ellipse cx="43" cy="403.9459" fill="#84BE84" rx="3" ry="3" style="stroke:#038048;stroke-width:1.0;"/><text fill="#000000" font-family="sans-serif" font-size="14" font-style="italic" lengthAdjust="spacing" textLength="206.3975" x="52" y="407.2926">insert(Product product) : void</text><ellipse cx="43" cy="420.2428" fill="#84BE84" rx="3" ry="3" style="stroke:#038048;stroke-width:1.0;"/><text fill="#000000" font-family="sans-serif" font-size="14" font-style="italic" lengthAdjust="spacing" textLength="215.8105" x="52" y="423.5895">update(Product product) : void</text><ellipse cx="43" cy="436.5397" fill="#84BE84" rx="3" ry="3" style="stroke:#038048;stroke-width:1.0;"/><text fill="#000000" font-family="sans-serif" font-size="14" font-style="italic" lengthAdjust="spacing" textLength="165.8604" x="52" y="439.8864">delete(Integer id) : void</text></g><!--class ProductCategoryRepository--><g id="elem_ProductCategoryRepository"><rect codeLine="15" fill="#FEFECE" height="88.8906" id="ProductCategoryRepository" style="stroke:#A80036;stroke-width:1.0;" width="360.2979" x="65.57" y="185.8469"/><ellipse cx="145.1027" cy="201.8469" fill="#B4A7E5" rx="11" ry="11" style="stroke:#A80036;stroke-width:1.0;"/><path d="M141.0246,197.6125 L141.0246,195.4563 L148.4152,195.4563 L148.4152,197.6125 L145.9465,197.6125 L145.9465,205.6906 L148.4152,205.6906 L148.4152,207.8469 L141.0246,207.8469 L141.0246,205.6906 L143.4933,205.6906 L143.4933,197.6125 L141.0246,197.6125 Z " fill="#000000"/><text fill="#000000" font-family="sans-serif" font-size="14" font-style="italic" lengthAdjust="spacing" textLength="192.7324" x="165.6027" y="206.6936">ProductCategoryRepository</text><line style="stroke:#A80036;stroke-width:1.0;" x1="66.57" x2="424.8679" y1="217.8469" y2="217.8469"/><ellipse cx="76.57" cy="231.4953" fill="#84BE84" rx="3" ry="3" style="stroke:#038048;stroke-width:1.0;"/><text fill="#000000" font-family="sans-serif" font-size="14" font-style="italic" lengthAdjust="spacing" textLength="234.0693" x="85.57" y="234.842">findAll() : List&lt;ProductCategory&gt;</text><ellipse cx="76.57" cy="247.7922" fill="#84BE84" rx="3" ry="3" style="stroke:#038048;stroke-width:1.0;"/><text fill="#000000" font-family="sans-serif" font-size="14" font-style="italic" lengthAdjust="spacing" textLength="267.2715" x="85.57" y="251.1389">findById(Integer id) : ProductCategory</text><ellipse cx="76.57" cy="264.0891" fill="#84BE84" rx="3" ry="3" style="stroke:#038048;stroke-width:1.0;"/><text fill="#000000" font-family="sans-serif" font-size="14" font-style="italic" lengthAdjust="spacing" textLength="334.2979" x="85.57" y="267.4357">insert(ProductCategory productCategory) : void</text></g><!--class ProductStockRepository--><g id="elem_ProductStockRepository"><rect codeLine="20" fill="#FEFECE" height="72.5938" id="ProductStockRepository" style="stroke:#A80036;stroke-width:1.0;" width="319.3027" x="86.07" y="77.9969"/><ellipse cx="157.7072" cy="93.9969" fill="#B4A7E5" rx="11" ry="11" style="stroke:#A80036;stroke-width:1.0;"/><path d="M153.6291,89.7625 L153.6291,87.6062 L161.0197,87.6062 L161.0197,89.7625 L158.551,89.7625 L158.551,97.8406 L161.0197,97.8406 L161.0197,99.9969 L153.6291,99.9969 L153.6291,97.8406 L156.0978,97.8406 L156.0978,89.7625 L153.6291,89.7625 Z " fill="#000000"/><text fill="#000000" font-family="sans-serif" font-size="14" font-style="italic" lengthAdjust="spacing" textLength="167.5283" x="178.2072" y="98.8436">ProductStockRepository</text><line style="stroke:#A80036;stroke-width:1.0;" x1="87.07" x2="404.3727" y1="109.9969" y2="109.9969"/><ellipse cx="97.07" cy="123.6453" fill="#84BE84" rx="3" ry="3" style="stroke:#038048;stroke-width:1.0;"/><text fill="#000000" font-family="sans-serif" font-size="14" font-style="italic" lengthAdjust="spacing" textLength="283.8896" x="106.07" y="126.992">insert(ProductStock productStock) : void</text><ellipse cx="97.07" cy="139.9422" fill="#84BE84" rx="3" ry="3" style="stroke:#038048;stroke-width:1.0;"/><text fill="#000000" font-family="sans-serif" font-size="14" font-style="italic" lengthAdjust="spacing" textLength="293.3027" x="106.07" y="143.2889">update(ProductStock productStock) : void</text></g><!--class EmployeeAccountRepository--><g id="elem_EmployeeAccountRepository"><rect codeLine="24" fill="#FEFECE" height="121.4844" id="EmployeeAccountRepository" style="stroke:#A80036;stroke-width:1.0;" width="410.5762" x="519.44" y="317.5569"/><ellipse cx="619.8873" cy="333.5569" fill="#B4A7E5" rx="11" ry="11" style="stroke:#A80036;stroke-width:1.0;"/><path d="M615.8091,329.3225 L615.8091,327.1663 L623.1998,327.1663 L623.1998,329.3225 L620.731,329.3225 L620.731,337.4006 L623.1998,337.4006 L623.1998,339.5569 L615.8091,339.5569 L615.8091,337.4006 L618.2779,337.4006 L618.2779,329.3225 L615.8091,329.3225 Z " fill="#000000"/><text fill="#000000" font-family="sans-serif" font-size="14" font-style="italic" lengthAdjust="spacing" textLength="201.1816" x="640.3873" y="338.4036">EmployeeAccountRepository</text><line style="stroke:#A80036;stroke-width:1.0;" x1="520.44" x2="929.0162" y1="349.5569" y2="349.5569"/><ellipse cx="530.44" cy="363.2053" fill="#84BE84" rx="3" ry="3" style="stroke:#038048;stroke-width:1.0;"/><text fill="#000000" font-family="sans-serif" font-size="14" font-style="italic" lengthAdjust="spacing" textLength="242.5186" x="539.44" y="366.552">findAll() : List&lt;EmployeeAccount&gt;</text><ellipse cx="530.44" cy="379.5022" fill="#84BE84" rx="3" ry="3" style="stroke:#038048;stroke-width:1.0;"/><text fill="#000000" font-family="sans-serif" font-size="14" font-style="italic" lengthAdjust="spacing" textLength="275.7207" x="539.44" y="382.8489">findById(Integer id) : EmployeeAccount</text><ellipse cx="530.44" cy="395.7991" fill="#84BE84" rx="3" ry="3" style="stroke:#038048;stroke-width:1.0;"/><text fill="#000000" font-family="sans-serif" font-size="14" font-style="italic" lengthAdjust="spacing" textLength="384.5762" x="539.44" y="399.1457">findByUsername(String Username) : EmployeeAccount</text><ellipse cx="530.44" cy="412.0959" fill="#84BE84" rx="3" ry="3" style="stroke:#038048;stroke-width:1.0;"/><text fill="#000000" font-family="sans-serif" font-size="14" font-style="italic" lengthAdjust="spacing" textLength="239.1211" x="539.44" y="415.4426">isExist(String userName): boolean</text><ellipse cx="530.44" cy="428.3928" fill="#84BE84" rx="3" ry="3" style="stroke:#038048;stroke-width:1.0;"/><text fill="#000000" font-family="sans-serif" font-size="14" font-style="italic" lengthAdjust="spacing" textLength="350.5195" x="539.44" y="431.7395">insert(EmployeeAccount employeeAccount) : void</text></g><!--class EmployeeRepository--><g id="elem_EmployeeRepository"><rect codeLine="31" fill="#FEFECE" height="56.2969" id="EmployeeRepository" style="stroke:#A80036;stroke-width:1.0;" width="211.7461" x="618.86" y="226.1469"/><ellipse cx="649.7616" cy="242.1469" fill="#B4A7E5" rx="11" ry="11" style="stroke:#A80036;stroke-width:1.0;"/><path d="M645.6835,237.9125 L645.6835,235.7563 L653.0741,235.7563 L653.0741,237.9125 L650.6054,237.9125 L650.6054,245.9906 L653.0741,245.9906 L653.0741,248.1469 L645.6835,248.1469 L645.6835,245.9906 L648.1522,245.9906 L648.1522,237.9125 L645.6835,237.9125 Z " fill="#000000"/><text fill="#000000" font-family="sans-serif" font-size="14" font-style="italic" lengthAdjust="spacing" textLength="144.4092" x="667.2953" y="246.9936">EmployeeRepository</text><line style="stroke:#A80036;stroke-width:1.0;" x1="619.86" x2="829.6061" y1="258.1469" y2="258.1469"/><ellipse cx="629.86" cy="271.7953" fill="#84BE84" rx="3" ry="3" style="stroke:#038048;stroke-width:1.0;"/><text fill="#000000" font-family="sans-serif" font-size="14" font-style="italic" lengthAdjust="spacing" textLength="185.7461" x="638.86" y="275.142">findAll() : List&lt;Employee&gt;</text></g><!--class CustomerRepository--><g id="elem_CustomerRepository"><rect codeLine="34" fill="#FEFECE" height="56.2969" id="CustomerRepository" style="stroke:#A80036;stroke-width:1.0;" width="258.4629" x="595.5" y="135.1469"/><ellipse cx="648.9434" cy="151.1469" fill="#B4A7E5" rx="11" ry="11" style="stroke:#A80036;stroke-width:1.0;"/><path d="M644.8652,146.9125 L644.8652,144.7563 L652.2559,144.7563 L652.2559,146.9125 L649.7871,146.9125 L649.7871,154.9906 L652.2559,154.9906 L652.2559,157.1469 L644.8652,157.1469 L644.8652,154.9906 L647.334,154.9906 L647.334,146.9125 L644.8652,146.9125 Z " fill="#000000"/><text fill="#000000" font-family="sans-serif" font-size="14" font-style="italic" lengthAdjust="spacing" textLength="143.0762" x="669.4434" y="155.9936">CustomerRepository</text><line style="stroke:#A80036;stroke-width:1.0;" x1="596.5" x2="852.9629" y1="167.1469" y2="167.1469"/><ellipse cx="606.5" cy="180.7953" fill="#84BE84" rx="3" ry="3" style="stroke:#038048;stroke-width:1.0;"/><text fill="#000000" font-family="sans-serif" font-size="14" font-style="italic" lengthAdjust="spacing" textLength="232.4629" x="615.5" y="184.142">insert(Customer customer) : void</text></g><!--class OrderRepository--><g id="elem_OrderRepository"><rect codeLine="37" fill="#FEFECE" height="56.2969" id="OrderRepository" style="stroke:#A80036;stroke-width:1.0;" width="202.1416" x="1039.33" y="350.1469"/><ellipse cx="1079.0971" cy="366.1469" fill="#B4A7E5" rx="11" ry="11" style="stroke:#A80036;stroke-width:1.0;"/><path d="M1075.019,361.9125 L1075.019,359.7563 L1082.4096,359.7563 L1082.4096,361.9125 L1079.9409,361.9125 L1079.9409,369.9906 L1082.4096,369.9906 L1082.4096,372.1469 L1075.019,372.1469 L1075.019,369.9906 L1077.4878,369.9906 L1077.4878,361.9125 L1075.019,361.9125 Z " fill="#000000"/><text fill="#000000" font-family="sans-serif" font-size="14" font-style="italic" lengthAdjust="spacing" textLength="115.1035" x="1098.6009" y="370.9936">OrderRepository</text><line style="stroke:#A80036;stroke-width:1.0;" x1="1040.33" x2="1240.4716" y1="382.1469" y2="382.1469"/><ellipse cx="1050.33" cy="395.7953" fill="#84BE84" rx="3" ry="3" style="stroke:#038048;stroke-width:1.0;"/><text fill="#000000" font-family="sans-serif" font-size="14" font-style="italic" lengthAdjust="spacing" textLength="176.1416" x="1059.33" y="399.142">insert(Order order) : void</text></g><!--class OrderDetailRepository--><g id="elem_OrderDetailRepository"><rect codeLine="40" fill="#FEFECE" height="56.2969" id="OrderDetailRepository" style="stroke:#A80036;stroke-width:1.0;" width="284.624" x="998.09" y="259.1469"/><ellipse cx="1057.9796" cy="275.1469" fill="#B4A7E5" rx="11" ry="11" style="stroke:#A80036;stroke-width:1.0;"/><path d="M1053.9015,270.9125 L1053.9015,268.7563 L1061.2921,268.7563 L1061.2921,270.9125 L1058.8234,270.9125 L1058.8234,278.9906 L1061.2921,278.9906 L1061.2921,281.1469 L1053.9015,281.1469 L1053.9015,278.9906 L1056.3703,278.9906 L1056.3703,270.9125 L1053.9015,270.9125 Z " fill="#000000"/><text fill="#000000" font-family="sans-serif" font-size="14" font-style="italic" lengthAdjust="spacing" textLength="156.3447" x="1078.4796" y="279.9936">OrderDetailRepository</text><line style="stroke:#A80036;stroke-width:1.0;" x1="999.09" x2="1281.714" y1="291.1469" y2="291.1469"/><ellipse cx="1009.09" cy="304.7953" fill="#84BE84" rx="3" ry="3" style="stroke:#038048;stroke-width:1.0;"/><text fill="#000000" font-family="sans-serif" font-size="14" font-style="italic" lengthAdjust="spacing" textLength="258.624" x="1018.09" y="308.142">insert(OrderDetail orderDetail) : void</text></g><!--class OrderStatusRepository--><g id="elem_OrderStatusRepository"><rect codeLine="43" fill="#FEFECE" height="72.5938" id="OrderStatusRepository" style="stroke:#A80036;stroke-width:1.0;" width="300.7773" x="990.02" y="151.9969"/><ellipse cx="1056.3013" cy="167.9969" fill="#B4A7E5" rx="11" ry="11" style="stroke:#A80036;stroke-width:1.0;"/><path d="M1052.2231,163.7625 L1052.2231,161.6063 L1059.6138,161.6063 L1059.6138,163.7625 L1057.145,163.7625 L1057.145,171.8406 L1059.6138,171.8406 L1059.6138,173.9969 L1052.2231,173.9969 L1052.2231,171.8406 L1054.6919,171.8406 L1054.6919,163.7625 L1052.2231,163.7625 Z " fill="#000000"/><text fill="#000000" font-family="sans-serif" font-size="14" font-style="italic" lengthAdjust="spacing" textLength="159.7148" x="1076.8013" y="172.8436">OrderStatusRepository</text><line style="stroke:#A80036;stroke-width:1.0;" x1="991.02" x2="1289.7973" y1="183.9969" y2="183.9969"/><ellipse cx="1001.02" cy="197.6453" fill="#84BE84" rx="3" ry="3" style="stroke:#038048;stroke-width:1.0;"/><text fill="#000000" font-family="sans-serif" font-size="14" font-style="italic" lengthAdjust="spacing" textLength="265.3643" x="1010.02" y="200.992">insert(OrderStatus orderStatus) : void</text><ellipse cx="1001.02" cy="213.9422" fill="#84BE84" rx="3" ry="3" style="stroke:#038048;stroke-width:1.0;"/><text fill="#000000" font-family="sans-serif" font-size="14" font-style="italic" lengthAdjust="spacing" textLength="274.7773" x="1010.02" y="217.2889">update(OrderStatus orderStatus) : void</text></g><!--SRC=[dPH1Ri8m44NtESKigNe3L25HoWAfQgkY7i3OGx1mxCYUj8qG6pX1Zz9T5xrDBbA7u1QY51AyYEnatl_ZcTXkAJLOup1oVfOoon9m2oRCczGnp9doNnJE2SY0bV62G4YBdAJHqK8A14nIoY71P8RMHIH98LXCZPDaR5viFuhjjjXy5jllOlCLfOmlMNmOiOh03wa9xPnnX2ThHCRfkHPGZcjOiPaZopYjOIwr62hLku8-t4j7Dtjmy7_uRJvYXB7Nd8YUTuIqGlxUTXBp8XEVTemMv8xSGysCr0ujzVOnmRh4NeqKpKoM2fzQDqQWGiySP_ORlcwkTgZ0nLKF0XSLBC1j2XTYwxrhiyif6RuykyLZlnqJp7QBBYqxGzVp72UfCZdYa7EJwGlEG4sWMpTgy2dsnPT8imHxKxBbFH7MhMMa6x_xX0EVUVwXvFimCqOXqoTxKxCexw33TQiQNrxSGQFkA7Da4hHj_wyG3tm_EPdrenNjfNV1OChdUT4x92PL9-aAgGog-NcRAJ7AN2UR2gbigdchezU6NKVh7m00]--></g></svg>