<?xml version="1.0" encoding="us-ascii" standalone="no"?><svg xmlns="http://www.w3.org/2000/svg" xmlns:xlink="http://www.w3.org/1999/xlink" contentStyleType="text/css" height="472px" preserveAspectRatio="none" style="width:1330px;height:472px;background:#FFFFFF;" version="1.1" viewBox="0 0 1330 472" width="1330px" zoomAndPan="magnify"><defs/><g><text fill="#000000" font-family="sans-serif" font-size="14" font-weight="bold" lengthAdjust="spacing" textLength="159" x="578.5" y="22.9951">repository&#12497;&#12483;&#12465;&#12540;&#12472;</text><!--cluster repository--><g id="cluster_repository"><polygon fill="none" points="16,43.2969,106,43.2969,113,65.5938,1313,65.5938,1313,465.2969,16,465.2969,16,43.2969" style="stroke:#000000;stroke-width:1.5;"/><line style="stroke:#000000;stroke-width:1.5;" x1="16" x2="113" y1="65.5938" y2="65.5938"/><text fill="#000000" font-family="sans-serif" font-size="14" font-weight="bold" lengthAdjust="spacing" textLength="84" x="20" y="58.292">repository</text></g><!--class ProductRepository--><g id="elem_ProductRepository"><rect codeLine="7" fill="#FEFECE" height="137.7813" id="ProductRepository" style="stroke:#A80036;stroke-width:1.0;" width="429" x="32" y="311.2969"/><ellipse cx="177.25" cy="327.2969" fill="#B4A7E5" rx="11" ry="11" style="stroke:#A80036;stroke-width:1.0;"/><path d="M178.2031,324.0781 L179.9219,324.0781 C180.3125,324.0781 180.5,324.0469 180.625,323.9688 C180.8906,323.8125 181.0313,323.5313 181.0313,323.2344 C181.0313,322.9688 180.9219,322.7031 180.6875,322.5313 C180.5156,322.4219 180.375,322.3906 179.9219,322.3906 L174.7813,322.3906 C174.3438,322.3906 174.2188,322.4063 174.0625,322.5 C173.8125,322.6563 173.6563,322.9531 173.6563,323.2344 C173.6563,323.5156 173.7969,323.7656 174.0156,323.9375 C174.1719,324.0469 174.3594,324.0781 174.7813,324.0781 L176.5,324.0781 L176.5,330.5938 L174.7813,330.5938 C174.3438,330.5938 174.2188,330.6094 174.0625,330.7188 C173.8125,330.875 173.6563,331.1563 173.6563,331.4531 C173.6563,331.7031 173.7969,331.9688 174.0156,332.125 C174.1719,332.25 174.375,332.2969 174.7813,332.2969 L179.9219,332.2969 C180.6719,332.2969 181.0313,332.0156 181.0313,331.4531 C181.0313,331.1719 180.9219,330.9219 180.6875,330.75 C180.5156,330.625 180.375,330.5938 179.9219,330.5938 L178.2031,330.5938 L178.2031,324.0781 Z " fill="#000000"/><text fill="#000000" font-family="sans-serif" font-size="14" font-style="italic" lengthAdjust="spacing" textLength="130" x="197.75" y="332.1436">ProductRepository</text><line style="stroke:#A80036;stroke-width:1.0;" x1="33" x2="460" y1="343.2969" y2="343.2969"/><ellipse cx="43" cy="356.9453" fill="#84BE84" rx="3" ry="3" style="stroke:#038048;stroke-width:1.0;"/><text fill="#000000" font-family="sans-serif" font-size="14" font-style="italic" lengthAdjust="spacing" textLength="170" x="52" y="360.292">findAll() : List&lt;Product&gt;</text><ellipse cx="43" cy="373.2422" fill="#84BE84" rx="3" ry="3" style="stroke:#038048;stroke-width:1.0;"/><text fill="#000000" font-family="sans-serif" font-size="14" font-style="italic" lengthAdjust="spacing" textLength="403" x="52" y="376.5889">findByCategoryId(int productCategoryId) : List&lt;Product&gt;</text><ellipse cx="43" cy="389.5391" fill="#84BE84" rx="3" ry="3" style="stroke:#038048;stroke-width:1.0;"/><text fill="#000000" font-family="sans-serif" font-size="14" font-style="italic" lengthAdjust="spacing" textLength="203" x="52" y="392.8857">findById(Integer id) : Product</text><ellipse cx="43" cy="405.8359" fill="#84BE84" rx="3" ry="3" style="stroke:#038048;stroke-width:1.0;"/><text fill="#000000" font-family="sans-serif" font-size="14" font-style="italic" lengthAdjust="spacing" textLength="206" x="52" y="409.1826">insert(Product product) : void</text><ellipse cx="43" cy="422.1328" fill="#84BE84" rx="3" ry="3" style="stroke:#038048;stroke-width:1.0;"/><text fill="#000000" font-family="sans-serif" font-size="14" font-style="italic" lengthAdjust="spacing" textLength="216" x="52" y="425.4795">update(Product product) : void</text><ellipse cx="43" cy="438.4297" fill="#84BE84" rx="3" ry="3" style="stroke:#038048;stroke-width:1.0;"/><text fill="#000000" font-family="sans-serif" font-size="14" font-style="italic" lengthAdjust="spacing" textLength="166" x="52" y="441.7764">delete(Integer id) : void</text></g><!--class ProductCategoryRepository--><g id="elem_ProductCategoryRepository"><rect codeLine="15" fill="#FEFECE" height="88.8906" id="ProductCategoryRepository" style="stroke:#A80036;stroke-width:1.0;" width="362" x="65.5" y="186.7969"/><ellipse cx="144.75" cy="202.7969" fill="#B4A7E5" rx="11" ry="11" style="stroke:#A80036;stroke-width:1.0;"/><path d="M145.7031,199.5781 L147.4219,199.5781 C147.8125,199.5781 148,199.5469 148.125,199.4688 C148.3906,199.3125 148.5313,199.0313 148.5313,198.7344 C148.5313,198.4688 148.4219,198.2031 148.1875,198.0313 C148.0156,197.9219 147.875,197.8906 147.4219,197.8906 L142.2813,197.8906 C141.8438,197.8906 141.7188,197.9063 141.5625,198 C141.3125,198.1563 141.1563,198.4531 141.1563,198.7344 C141.1563,199.0156 141.2969,199.2656 141.5156,199.4375 C141.6719,199.5469 141.8594,199.5781 142.2813,199.5781 L144,199.5781 L144,206.0938 L142.2813,206.0938 C141.8438,206.0938 141.7188,206.1094 141.5625,206.2188 C141.3125,206.375 141.1563,206.6563 141.1563,206.9531 C141.1563,207.2031 141.2969,207.4688 141.5156,207.625 C141.6719,207.75 141.875,207.7969 142.2813,207.7969 L147.4219,207.7969 C148.1719,207.7969 148.5313,207.5156 148.5313,206.9531 C148.5313,206.6719 148.4219,206.4219 148.1875,206.25 C148.0156,206.125 147.875,206.0938 147.4219,206.0938 L145.7031,206.0938 L145.7031,199.5781 Z " fill="#000000"/><text fill="#000000" font-family="sans-serif" font-size="14" font-style="italic" lengthAdjust="spacing" textLength="195" x="165.25" y="207.6436">ProductCategoryRepository</text><line style="stroke:#A80036;stroke-width:1.0;" x1="66.5" x2="426.5" y1="218.7969" y2="218.7969"/><ellipse cx="76.5" cy="232.4453" fill="#84BE84" rx="3" ry="3" style="stroke:#038048;stroke-width:1.0;"/><text fill="#000000" font-family="sans-serif" font-size="14" font-style="italic" lengthAdjust="spacing" textLength="235" x="85.5" y="235.792">findAll() : List&lt;ProductCategory&gt;</text><ellipse cx="76.5" cy="248.7422" fill="#84BE84" rx="3" ry="3" style="stroke:#038048;stroke-width:1.0;"/><text fill="#000000" font-family="sans-serif" font-size="14" font-style="italic" lengthAdjust="spacing" textLength="268" x="85.5" y="252.0889">findById(Integer id) : ProductCategory</text><ellipse cx="76.5" cy="265.0391" fill="#84BE84" rx="3" ry="3" style="stroke:#038048;stroke-width:1.0;"/><text fill="#000000" font-family="sans-serif" font-size="14" font-style="italic" lengthAdjust="spacing" textLength="336" x="85.5" y="268.3857">insert(ProductCategory productCategory) : void</text></g><!--class ProductStockRepository--><g id="elem_ProductStockRepository"><rect codeLine="20" fill="#FEFECE" height="72.5938" id="ProductStockRepository" style="stroke:#A80036;stroke-width:1.0;" width="320" x="86.5" y="78.7969"/><ellipse cx="157.75" cy="94.7969" fill="#B4A7E5" rx="11" ry="11" style="stroke:#A80036;stroke-width:1.0;"/><path d="M158.7031,91.5781 L160.4219,91.5781 C160.8125,91.5781 161,91.5469 161.125,91.4688 C161.3906,91.3125 161.5313,91.0313 161.5313,90.7344 C161.5313,90.4688 161.4219,90.2031 161.1875,90.0313 C161.0156,89.9219 160.875,89.8906 160.4219,89.8906 L155.2813,89.8906 C154.8438,89.8906 154.7188,89.9063 154.5625,90 C154.3125,90.1563 154.1563,90.4531 154.1563,90.7344 C154.1563,91.0156 154.2969,91.2656 154.5156,91.4375 C154.6719,91.5469 154.8594,91.5781 155.2813,91.5781 L157,91.5781 L157,98.0938 L155.2813,98.0938 C154.8438,98.0938 154.7188,98.1094 154.5625,98.2188 C154.3125,98.375 154.1563,98.6563 154.1563,98.9531 C154.1563,99.2031 154.2969,99.4688 154.5156,99.625 C154.6719,99.75 154.875,99.7969 155.2813,99.7969 L160.4219,99.7969 C161.1719,99.7969 161.5313,99.5156 161.5313,98.9531 C161.5313,98.6719 161.4219,98.4219 161.1875,98.25 C161.0156,98.125 160.875,98.0938 160.4219,98.0938 L158.7031,98.0938 L158.7031,91.5781 Z " fill="#000000"/><text fill="#000000" font-family="sans-serif" font-size="14" font-style="italic" lengthAdjust="spacing" textLength="169" x="178.25" y="99.6436">ProductStockRepository</text><line style="stroke:#A80036;stroke-width:1.0;" x1="87.5" x2="405.5" y1="110.7969" y2="110.7969"/><ellipse cx="97.5" cy="124.4453" fill="#84BE84" rx="3" ry="3" style="stroke:#038048;stroke-width:1.0;"/><text fill="#000000" font-family="sans-serif" font-size="14" font-style="italic" lengthAdjust="spacing" textLength="284" x="106.5" y="127.792">insert(ProductStock productStock) : void</text><ellipse cx="97.5" cy="140.7422" fill="#84BE84" rx="3" ry="3" style="stroke:#038048;stroke-width:1.0;"/><text fill="#000000" font-family="sans-serif" font-size="14" font-style="italic" lengthAdjust="spacing" textLength="294" x="106.5" y="144.0889">update(ProductStock productStock) : void</text></g><!--class EmployeeAccountRepository--><g id="elem_EmployeeAccountRepository"><rect codeLine="24" fill="#FEFECE" height="121.4844" id="EmployeeAccountRepository" style="stroke:#A80036;stroke-width:1.0;" width="415" x="521" y="319.7969"/><ellipse cx="621.75" cy="335.7969" fill="#B4A7E5" rx="11" ry="11" style="stroke:#A80036;stroke-width:1.0;"/><path d="M622.7031,332.5781 L624.4219,332.5781 C624.8125,332.5781 625,332.5469 625.125,332.4688 C625.3906,332.3125 625.5313,332.0313 625.5313,331.7344 C625.5313,331.4688 625.4219,331.2031 625.1875,331.0313 C625.0156,330.9219 624.875,330.8906 624.4219,330.8906 L619.2813,330.8906 C618.8438,330.8906 618.7188,330.9063 618.5625,331 C618.3125,331.1563 618.1563,331.4531 618.1563,331.7344 C618.1563,332.0156 618.2969,332.2656 618.5156,332.4375 C618.6719,332.5469 618.8594,332.5781 619.2813,332.5781 L621,332.5781 L621,339.0938 L619.2813,339.0938 C618.8438,339.0938 618.7188,339.1094 618.5625,339.2188 C618.3125,339.375 618.1563,339.6563 618.1563,339.9531 C618.1563,340.2031 618.2969,340.4688 618.5156,340.625 C618.6719,340.75 618.875,340.7969 619.2813,340.7969 L624.4219,340.7969 C625.1719,340.7969 625.5313,340.5156 625.5313,339.9531 C625.5313,339.6719 625.4219,339.4219 625.1875,339.25 C625.0156,339.125 624.875,339.0938 624.4219,339.0938 L622.7031,339.0938 L622.7031,332.5781 Z " fill="#000000"/><text fill="#000000" font-family="sans-serif" font-size="14" font-style="italic" lengthAdjust="spacing" textLength="205" x="642.25" y="340.6436">EmployeeAccountRepository</text><line style="stroke:#A80036;stroke-width:1.0;" x1="522" x2="935" y1="351.7969" y2="351.7969"/><ellipse cx="532" cy="365.4453" fill="#84BE84" rx="3" ry="3" style="stroke:#038048;stroke-width:1.0;"/><text fill="#000000" font-family="sans-serif" font-size="14" font-style="italic" lengthAdjust="spacing" textLength="245" x="541" y="368.792">findAll() : List&lt;EmployeeAccount&gt;</text><ellipse cx="532" cy="381.7422" fill="#84BE84" rx="3" ry="3" style="stroke:#038048;stroke-width:1.0;"/><text fill="#000000" font-family="sans-serif" font-size="14" font-style="italic" lengthAdjust="spacing" textLength="278" x="541" y="385.0889">findById(Integer id) : EmployeeAccount</text><ellipse cx="532" cy="398.0391" fill="#84BE84" rx="3" ry="3" style="stroke:#038048;stroke-width:1.0;"/><text fill="#000000" font-family="sans-serif" font-size="14" font-style="italic" lengthAdjust="spacing" textLength="389" x="541" y="401.3857">findByUsername(String Username) : EmployeeAccount</text><ellipse cx="532" cy="414.3359" fill="#84BE84" rx="3" ry="3" style="stroke:#038048;stroke-width:1.0;"/><text fill="#000000" font-family="sans-serif" font-size="14" font-style="italic" lengthAdjust="spacing" textLength="240" x="541" y="417.6826">isExist(String userName): boolean</text><ellipse cx="532" cy="430.6328" fill="#84BE84" rx="3" ry="3" style="stroke:#038048;stroke-width:1.0;"/><text fill="#000000" font-family="sans-serif" font-size="14" font-style="italic" lengthAdjust="spacing" textLength="355" x="541" y="433.9795">insert(EmployeeAccount employeeAccount) : void</text></g><!--class EmployeeRepository--><g id="elem_EmployeeRepository"><rect codeLine="31" fill="#FEFECE" height="56.2969" id="EmployeeRepository" style="stroke:#A80036;stroke-width:1.0;" width="213" x="622" y="228.2969"/><ellipse cx="652.3" cy="244.2969" fill="#B4A7E5" rx="11" ry="11" style="stroke:#A80036;stroke-width:1.0;"/><path d="M653.2531,241.0781 L654.9719,241.0781 C655.3625,241.0781 655.55,241.0469 655.675,240.9688 C655.9406,240.8125 656.0813,240.5313 656.0813,240.2344 C656.0813,239.9688 655.9719,239.7031 655.7375,239.5313 C655.5656,239.4219 655.425,239.3906 654.9719,239.3906 L649.8313,239.3906 C649.3938,239.3906 649.2688,239.4063 649.1125,239.5 C648.8625,239.6563 648.7063,239.9531 648.7063,240.2344 C648.7063,240.5156 648.8469,240.7656 649.0656,240.9375 C649.2219,241.0469 649.4094,241.0781 649.8313,241.0781 L651.55,241.0781 L651.55,247.5938 L649.8313,247.5938 C649.3938,247.5938 649.2688,247.6094 649.1125,247.7188 C648.8625,247.875 648.7063,248.1563 648.7063,248.4531 C648.7063,248.7031 648.8469,248.9688 649.0656,249.125 C649.2219,249.25 649.425,249.2969 649.8313,249.2969 L654.9719,249.2969 C655.7219,249.2969 656.0813,249.0156 656.0813,248.4531 C656.0813,248.1719 655.9719,247.9219 655.7375,247.75 C655.5656,247.625 655.425,247.5938 654.9719,247.5938 L653.2531,247.5938 L653.2531,241.0781 Z " fill="#000000"/><text fill="#000000" font-family="sans-serif" font-size="14" font-style="italic" lengthAdjust="spacing" textLength="147" x="669.7" y="249.1436">EmployeeRepository</text><line style="stroke:#A80036;stroke-width:1.0;" x1="623" x2="834" y1="260.2969" y2="260.2969"/><ellipse cx="633" cy="273.9453" fill="#84BE84" rx="3" ry="3" style="stroke:#038048;stroke-width:1.0;"/><text fill="#000000" font-family="sans-serif" font-size="14" font-style="italic" lengthAdjust="spacing" textLength="187" x="642" y="277.292">findAll() : List&lt;Employee&gt;</text></g><!--class CustomerRepository--><g id="elem_CustomerRepository"><rect codeLine="34" fill="#FEFECE" height="56.2969" id="CustomerRepository" style="stroke:#A80036;stroke-width:1.0;" width="259" x="599" y="137.2969"/><ellipse cx="651.75" cy="153.2969" fill="#B4A7E5" rx="11" ry="11" style="stroke:#A80036;stroke-width:1.0;"/><path d="M652.7031,150.0781 L654.4219,150.0781 C654.8125,150.0781 655,150.0469 655.125,149.9688 C655.3906,149.8125 655.5313,149.5313 655.5313,149.2344 C655.5313,148.9688 655.4219,148.7031 655.1875,148.5313 C655.0156,148.4219 654.875,148.3906 654.4219,148.3906 L649.2813,148.3906 C648.8438,148.3906 648.7188,148.4063 648.5625,148.5 C648.3125,148.6563 648.1563,148.9531 648.1563,149.2344 C648.1563,149.5156 648.2969,149.7656 648.5156,149.9375 C648.6719,150.0469 648.8594,150.0781 649.2813,150.0781 L651,150.0781 L651,156.5938 L649.2813,156.5938 C648.8438,156.5938 648.7188,156.6094 648.5625,156.7188 C648.3125,156.875 648.1563,157.1563 648.1563,157.4531 C648.1563,157.7031 648.2969,157.9688 648.5156,158.125 C648.6719,158.25 648.875,158.2969 649.2813,158.2969 L654.4219,158.2969 C655.1719,158.2969 655.5313,158.0156 655.5313,157.4531 C655.5313,157.1719 655.4219,156.9219 655.1875,156.75 C655.0156,156.625 654.875,156.5938 654.4219,156.5938 L652.7031,156.5938 L652.7031,150.0781 Z " fill="#000000"/><text fill="#000000" font-family="sans-serif" font-size="14" font-style="italic" lengthAdjust="spacing" textLength="145" x="672.25" y="158.1436">CustomerRepository</text><line style="stroke:#A80036;stroke-width:1.0;" x1="600" x2="857" y1="169.2969" y2="169.2969"/><ellipse cx="610" cy="182.9453" fill="#84BE84" rx="3" ry="3" style="stroke:#038048;stroke-width:1.0;"/><text fill="#000000" font-family="sans-serif" font-size="14" font-style="italic" lengthAdjust="spacing" textLength="233" x="619" y="186.292">insert(Customer customer) : void</text></g><!--class OrderRepository--><g id="elem_OrderRepository"><rect codeLine="37" fill="#FEFECE" height="56.2969" id="OrderRepository" style="stroke:#A80036;stroke-width:1.0;" width="203" x="1045" y="352.2969"/><ellipse cx="1084.3" cy="368.2969" fill="#B4A7E5" rx="11" ry="11" style="stroke:#A80036;stroke-width:1.0;"/><path d="M1085.2531,365.0781 L1086.9719,365.0781 C1087.3625,365.0781 1087.55,365.0469 1087.675,364.9688 C1087.9406,364.8125 1088.0813,364.5313 1088.0813,364.2344 C1088.0813,363.9688 1087.9719,363.7031 1087.7375,363.5313 C1087.5656,363.4219 1087.425,363.3906 1086.9719,363.3906 L1081.8313,363.3906 C1081.3938,363.3906 1081.2688,363.4063 1081.1125,363.5 C1080.8625,363.6563 1080.7063,363.9531 1080.7063,364.2344 C1080.7063,364.5156 1080.8469,364.7656 1081.0656,364.9375 C1081.2219,365.0469 1081.4094,365.0781 1081.8313,365.0781 L1083.55,365.0781 L1083.55,371.5938 L1081.8313,371.5938 C1081.3938,371.5938 1081.2688,371.6094 1081.1125,371.7188 C1080.8625,371.875 1080.7063,372.1563 1080.7063,372.4531 C1080.7063,372.7031 1080.8469,372.9688 1081.0656,373.125 C1081.2219,373.25 1081.425,373.2969 1081.8313,373.2969 L1086.9719,373.2969 C1087.7219,373.2969 1088.0813,373.0156 1088.0813,372.4531 C1088.0813,372.1719 1087.9719,371.9219 1087.7375,371.75 C1087.5656,371.625 1087.425,371.5938 1086.9719,371.5938 L1085.2531,371.5938 L1085.2531,365.0781 Z " fill="#000000"/><text fill="#000000" font-family="sans-serif" font-size="14" font-style="italic" lengthAdjust="spacing" textLength="117" x="1103.7" y="373.1436">OrderRepository</text><line style="stroke:#A80036;stroke-width:1.0;" x1="1046" x2="1247" y1="384.2969" y2="384.2969"/><ellipse cx="1056" cy="397.9453" fill="#84BE84" rx="3" ry="3" style="stroke:#038048;stroke-width:1.0;"/><text fill="#000000" font-family="sans-serif" font-size="14" font-style="italic" lengthAdjust="spacing" textLength="177" x="1065" y="401.292">insert(Order order) : void</text></g><!--class OrderDetailRepository--><g id="elem_OrderDetailRepository"><rect codeLine="40" fill="#FEFECE" height="56.2969" id="OrderDetailRepository" style="stroke:#A80036;stroke-width:1.0;" width="287" x="1003" y="261.2969"/><ellipse cx="1062.75" cy="277.2969" fill="#B4A7E5" rx="11" ry="11" style="stroke:#A80036;stroke-width:1.0;"/><path d="M1063.7031,274.0781 L1065.4219,274.0781 C1065.8125,274.0781 1066,274.0469 1066.125,273.9688 C1066.3906,273.8125 1066.5313,273.5313 1066.5313,273.2344 C1066.5313,272.9688 1066.4219,272.7031 1066.1875,272.5313 C1066.0156,272.4219 1065.875,272.3906 1065.4219,272.3906 L1060.2813,272.3906 C1059.8438,272.3906 1059.7188,272.4063 1059.5625,272.5 C1059.3125,272.6563 1059.1563,272.9531 1059.1563,273.2344 C1059.1563,273.5156 1059.2969,273.7656 1059.5156,273.9375 C1059.6719,274.0469 1059.8594,274.0781 1060.2813,274.0781 L1062,274.0781 L1062,280.5938 L1060.2813,280.5938 C1059.8438,280.5938 1059.7188,280.6094 1059.5625,280.7188 C1059.3125,280.875 1059.1563,281.1563 1059.1563,281.4531 C1059.1563,281.7031 1059.2969,281.9688 1059.5156,282.125 C1059.6719,282.25 1059.875,282.2969 1060.2813,282.2969 L1065.4219,282.2969 C1066.1719,282.2969 1066.5313,282.0156 1066.5313,281.4531 C1066.5313,281.1719 1066.4219,280.9219 1066.1875,280.75 C1066.0156,280.625 1065.875,280.5938 1065.4219,280.5938 L1063.7031,280.5938 L1063.7031,274.0781 Z " fill="#000000"/><text fill="#000000" font-family="sans-serif" font-size="14" font-style="italic" lengthAdjust="spacing" textLength="159" x="1083.25" y="282.1436">OrderDetailRepository</text><line style="stroke:#A80036;stroke-width:1.0;" x1="1004" x2="1289" y1="293.2969" y2="293.2969"/><ellipse cx="1014" cy="306.9453" fill="#84BE84" rx="3" ry="3" style="stroke:#038048;stroke-width:1.0;"/><text fill="#000000" font-family="sans-serif" font-size="14" font-style="italic" lengthAdjust="spacing" textLength="261" x="1023" y="310.292">insert(OrderDetail orderDetail) : void</text></g><!--class OrderStatusRepository--><g id="elem_OrderStatusRepository"><rect codeLine="43" fill="#FEFECE" height="72.5938" id="OrderStatusRepository" style="stroke:#A80036;stroke-width:1.0;" width="301" x="996" y="152.7969"/><ellipse cx="1061.75" cy="168.7969" fill="#B4A7E5" rx="11" ry="11" style="stroke:#A80036;stroke-width:1.0;"/><path d="M1062.7031,165.5781 L1064.4219,165.5781 C1064.8125,165.5781 1065,165.5469 1065.125,165.4688 C1065.3906,165.3125 1065.5313,165.0313 1065.5313,164.7344 C1065.5313,164.4688 1065.4219,164.2031 1065.1875,164.0313 C1065.0156,163.9219 1064.875,163.8906 1064.4219,163.8906 L1059.2813,163.8906 C1058.8438,163.8906 1058.7188,163.9063 1058.5625,164 C1058.3125,164.1563 1058.1563,164.4531 1058.1563,164.7344 C1058.1563,165.0156 1058.2969,165.2656 1058.5156,165.4375 C1058.6719,165.5469 1058.8594,165.5781 1059.2813,165.5781 L1061,165.5781 L1061,172.0938 L1059.2813,172.0938 C1058.8438,172.0938 1058.7188,172.1094 1058.5625,172.2188 C1058.3125,172.375 1058.1563,172.6563 1058.1563,172.9531 C1058.1563,173.2031 1058.2969,173.4688 1058.5156,173.625 C1058.6719,173.75 1058.875,173.7969 1059.2813,173.7969 L1064.4219,173.7969 C1065.1719,173.7969 1065.5313,173.5156 1065.5313,172.9531 C1065.5313,172.6719 1065.4219,172.4219 1065.1875,172.25 C1065.0156,172.125 1064.875,172.0938 1064.4219,172.0938 L1062.7031,172.0938 L1062.7031,165.5781 Z " fill="#000000"/><text fill="#000000" font-family="sans-serif" font-size="14" font-style="italic" lengthAdjust="spacing" textLength="161" x="1082.25" y="173.6436">OrderStatusRepository</text><line style="stroke:#A80036;stroke-width:1.0;" x1="997" x2="1296" y1="184.7969" y2="184.7969"/><ellipse cx="1007" cy="198.4453" fill="#84BE84" rx="3" ry="3" style="stroke:#038048;stroke-width:1.0;"/><text fill="#000000" font-family="sans-serif" font-size="14" font-style="italic" lengthAdjust="spacing" textLength="265" x="1016" y="201.792">insert(OrderStatus orderStatus) : void</text><ellipse cx="1007" cy="214.7422" fill="#84BE84" rx="3" ry="3" style="stroke:#038048;stroke-width:1.0;"/><text fill="#000000" font-family="sans-serif" font-size="14" font-style="italic" lengthAdjust="spacing" textLength="275" x="1016" y="218.0889">update(OrderStatus orderStatus) : void</text></g><!--SRC=[dPH1Ri8m44NtESKigNe3L25HoWAfQgkY7i3OGx1mxCYUj8qG6pX1Zz9T5xrDBbA7u1QY51AyYEnatl_ZcTXkAJLOup1oVfOoon9m2oRCczGnp9doNnJE2SY0bV62G4YBdAJHqK8A14nIoY71P8RMHIH98LXCZPDaR5viFuhjjjXy5jllOlCLfOmlMNmOiOh03wa9xPnnX2ThHCRfkHPGZcjOiPaZopYjOIwr62hLku8-t4j7Dtjmy7_uRJvYXB7Nd8YUTuIqGlxUTXBp8XEVTemMv8xSGysCr0ujzVOnmRh4NeqKpKoM2fzQDqQWGiySP_ORlcwkTgZ0nLKF0XSLBC1j2XTYwxrhiyif6RuykyLZlnqJp7QBBYqxGzVp72UfCZdYa7EJwGlEG4sWMpTgy2dsnPT8imHxKxBbFH7MhMMa6x_xX0EVUVwXvFimCqOXqoTxKxCexw33TQiQNrxSGQFkA7Da4hHj_wyG3tm_EPdrenNjfNV1OChdUT4x92PL9-aAgGog-NcRAJ7AN2UR2gbigdchezU6NKVh7m00]--></g></svg>