<svg xmlns="http://www.w3.org/2000/svg" xmlns:xlink="http://www.w3.org/1999/xlink" contentStyleType="text/css" height="1320px" preserveAspectRatio="none" style="width:1129px;height:1320px;background:#FFFFFF;" version="1.1" viewBox="0 0 1129 1320" width="1129px" zoomAndPan="magnify"><defs/><g><text fill="#000000" font-family="sans-serif" font-size="14" font-weight="bold" lengthAdjust="spacing" textLength="206.2123" x="455.1287" y="27.9951">UC005: &#36092;&#20837;&#30906;&#23450; &#12471;&#12540;&#12465;&#12531;&#12473;&#22259;</text><rect fill="#FFFFFF" height="1097.3125" style="stroke:#A80036;stroke-width:1.0;" width="10" x="23.9999" y="131.5938"/><rect fill="#FFFFFF" height="71.2656" style="stroke:#A80036;stroke-width:1.0;" width="10" x="157.3744" y="167.8594"/><rect fill="#FFFFFF" height="817.9844" style="stroke:#A80036;stroke-width:1.0;" width="10" x="157.3744" y="286.3906"/><rect fill="#FFFFFF" height="71.2656" style="stroke:#A80036;stroke-width:1.0;" width="10" x="157.3744" y="1148.6406"/><rect fill="#FFFFFF" height="672.7539" style="stroke:#A80036;stroke-width:1.0;" width="10" x="308.3746" y="402.4883"/><rect fill="#FFFFFF" height="39.6992" style="stroke:#A80036;stroke-width:1.0;" width="10" x="477.8799" y="588.9844"/><rect fill="#FFFFFF" height="87.3984" style="stroke:#A80036;stroke-width:1.0;" width="10" x="579.4473" y="668.3828"/><rect fill="#FFFFFF" height="87.3984" style="stroke:#A80036;stroke-width:1.0;" width="10" x="739.1714" y="784.9141"/><rect fill="#FFFFFF" height="87.3984" style="stroke:#A80036;stroke-width:1.0;" width="10" x="925.108" y="457.3203"/><rect fill="#FFFFFF" height="87.3984" style="stroke:#A80036;stroke-width:1.0;" width="10" x="925.108" y="901.4453"/><rect fill="#FFFFFF" height="29.1328" style="stroke:#A80036;stroke-width:1.0;" width="10" x="1089.4698" y="486.4531"/><rect fill="#FFFFFF" height="29.1328" style="stroke:#A80036;stroke-width:1.0;" width="10" x="1089.4698" y="697.5156"/><rect fill="#FFFFFF" height="29.1328" style="stroke:#A80036;stroke-width:1.0;" width="10" x="1089.4698" y="814.0469"/><rect fill="#FFFFFF" height="29.1328" style="stroke:#A80036;stroke-width:1.0;" width="10" x="1089.4698" y="930.5781"/><line style="stroke:#A80036;stroke-width:1.0;stroke-dasharray:5.0,5.0;" x1="28" x2="28" y1="121.5938" y2="1237.9063"/><line style="stroke:#A80036;stroke-width:1.0;stroke-dasharray:5.0,5.0;" x1="161.7724" x2="161.7724" y1="121.5938" y2="1237.9063"/><line style="stroke:#A80036;stroke-width:1.0;stroke-dasharray:5.0,5.0;" x1="312.4883" x2="312.4883" y1="121.5938" y2="1237.9063"/><line style="stroke:#A80036;stroke-width:1.0;stroke-dasharray:5.0,5.0;" x1="482.8643" x2="482.8643" y1="121.5938" y2="1237.9063"/><line style="stroke:#A80036;stroke-width:1.0;stroke-dasharray:5.0,5.0;" x1="583.8956" x2="583.8956" y1="121.5938" y2="1237.9063"/><line style="stroke:#A80036;stroke-width:1.0;stroke-dasharray:5.0,5.0;" x1="743.9991" x2="743.9991" y1="121.5938" y2="1237.9063"/><line style="stroke:#A80036;stroke-width:1.0;stroke-dasharray:5.0,5.0;" x1="929.3438" x2="929.3438" y1="121.5938" y2="1237.9063"/><line style="stroke:#A80036;stroke-width:1.0;stroke-dasharray:5.0,5.0;" x1="1094.4698" x2="1094.4698" y1="121.5938" y2="1237.9063"/><text fill="#000000" font-family="sans-serif" font-size="14" lengthAdjust="spacing" textLength="41.9998" x="5" y="118.292">&#12518;&#12540;&#12470;</text><ellipse cx="28.9999" cy="52.2969" fill="#FEFECE" rx="8" ry="8" style="stroke:#A80036;stroke-width:2.0;"/><path d="M28.9999,60.2969 L28.9999,87.2969 M15.9999,68.2969 L41.9999,68.2969 M28.9999,87.2969 L15.9999,102.2969 M28.9999,87.2969 L41.9999,102.2969 " fill="none" style="stroke:#A80036;stroke-width:2.0;"/><text fill="#000000" font-family="sans-serif" font-size="14" lengthAdjust="spacing" textLength="41.9998" x="5" y="1249.9014">&#12518;&#12540;&#12470;</text><ellipse cx="28.9999" cy="1263.2031" fill="#FEFECE" rx="8" ry="8" style="stroke:#A80036;stroke-width:2.0;"/><path d="M28.9999,1271.2031 L28.9999,1298.2031 M15.9999,1279.2031 L41.9999,1279.2031 M28.9999,1298.2031 L15.9999,1313.2031 M28.9999,1298.2031 L41.9999,1313.2031 " fill="none" style="stroke:#A80036;stroke-width:2.0;"/><rect fill="#FEFECE" height="30.2969" style="stroke:#A80036;stroke-width:1.5;" width="123.2041" x="100.7724" y="90.2969"/><text fill="#000000" font-family="sans-serif" font-size="14" lengthAdjust="spacing" textLength="109.2041" x="107.7724" y="110.292">OrderController</text><rect fill="#FEFECE" height="30.2969" style="stroke:#A80036;stroke-width:1.5;" width="123.2041" x="100.7724" y="1236.9063"/><text fill="#000000" font-family="sans-serif" font-size="14" lengthAdjust="spacing" textLength="109.2041" x="107.7724" y="1256.9014">OrderController</text><rect fill="#FEFECE" height="30.2969" style="stroke:#A80036;stroke-width:1.5;" width="105.7725" x="260.4883" y="90.2969"/><text fill="#000000" font-family="sans-serif" font-size="14" lengthAdjust="spacing" textLength="91.7725" x="267.4883" y="110.292">OrderService</text><rect fill="#FEFECE" height="30.2969" style="stroke:#A80036;stroke-width:1.5;" width="105.7725" x="260.4883" y="1236.9063"/><text fill="#000000" font-family="sans-serif" font-size="14" lengthAdjust="spacing" textLength="91.7725" x="267.4883" y="1256.9014">OrderService</text><rect fill="#FEFECE" height="30.2969" style="stroke:#A80036;stroke-width:1.5;" width="54.0313" x="455.8643" y="90.2969"/><text fill="#000000" font-family="sans-serif" font-size="14" lengthAdjust="spacing" textLength="40.0313" x="462.8643" y="110.292">Order</text><rect fill="#FEFECE" height="30.2969" style="stroke:#A80036;stroke-width:1.5;" width="54.0313" x="455.8643" y="1236.9063"/><text fill="#000000" font-family="sans-serif" font-size="14" lengthAdjust="spacing" textLength="40.0313" x="462.8643" y="1256.9014">Order</text><rect fill="#FEFECE" height="30.2969" style="stroke:#A80036;stroke-width:1.5;" width="129.1035" x="519.8956" y="90.2969"/><text fill="#000000" font-family="sans-serif" font-size="14" lengthAdjust="spacing" textLength="115.1035" x="526.8956" y="110.292">OrderRepository</text><rect fill="#FEFECE" height="30.2969" style="stroke:#A80036;stroke-width:1.5;" width="129.1035" x="519.8956" y="1236.9063"/><text fill="#000000" font-family="sans-serif" font-size="14" lengthAdjust="spacing" textLength="115.1035" x="526.8956" y="1256.9014">OrderRepository</text><rect fill="#FEFECE" height="30.2969" style="stroke:#A80036;stroke-width:1.5;" width="170.3447" x="658.9991" y="90.2969"/><text fill="#000000" font-family="sans-serif" font-size="14" lengthAdjust="spacing" textLength="156.3447" x="665.9991" y="110.292">OrderDetailRepository</text><rect fill="#FEFECE" height="30.2969" style="stroke:#A80036;stroke-width:1.5;" width="170.3447" x="658.9991" y="1236.9063"/><text fill="#000000" font-family="sans-serif" font-size="14" lengthAdjust="spacing" textLength="156.3447" x="665.9991" y="1256.9014">OrderDetailRepository</text><rect fill="#FEFECE" height="30.2969" style="stroke:#A80036;stroke-width:1.5;" width="181.5283" x="839.3438" y="90.2969"/><text fill="#000000" font-family="sans-serif" font-size="14" lengthAdjust="spacing" textLength="167.5283" x="846.3438" y="110.292">ProductStockRepository</text><rect fill="#FEFECE" height="30.2969" style="stroke:#A80036;stroke-width:1.5;" width="181.5283" x="839.3438" y="1236.9063"/><text fill="#000000" font-family="sans-serif" font-size="14" lengthAdjust="spacing" textLength="167.5283" x="846.3438" y="1256.9014">ProductStockRepository</text><text fill="#000000" font-family="sans-serif" font-size="14" lengthAdjust="spacing" textLength="20.3848" x="1081.2774" y="118.292">DB</text><path d="M1076.4698,69.2969 C1076.4698,59.2969 1094.4698,59.2969 1094.4698,59.2969 C1094.4698,59.2969 1112.4698,59.2969 1112.4698,69.2969 L1112.4698,95.2969 C1112.4698,105.2969 1094.4698,105.2969 1094.4698,105.2969 C1094.4698,105.2969 1076.4698,105.2969 1076.4698,95.2969 L1076.4698,69.2969 " fill="#FEFECE" style="stroke:#A80036;stroke-width:1.5;"/><path d="M1076.4698,69.2969 C1076.4698,79.2969 1094.4698,79.2969 1094.4698,79.2969 C1094.4698,79.2969 1112.4698,79.2969 1112.4698,69.2969 " fill="none" style="stroke:#A80036;stroke-width:1.5;"/><text fill="#000000" font-family="sans-serif" font-size="14" lengthAdjust="spacing" textLength="20.3848" x="1081.2774" y="1249.9014">DB</text><path d="M1076.4698,1263.2031 C1076.4698,1253.2031 1094.4698,1253.2031 1094.4698,1253.2031 C1094.4698,1253.2031 1112.4698,1253.2031 1112.4698,1263.2031 L1112.4698,1289.2031 C1112.4698,1299.2031 1094.4698,1299.2031 1094.4698,1299.2031 C1094.4698,1299.2031 1076.4698,1299.2031 1076.4698,1289.2031 L1076.4698,1263.2031 " fill="#FEFECE" style="stroke:#A80036;stroke-width:1.5;"/><path d="M1076.4698,1263.2031 C1076.4698,1273.2031 1094.4698,1273.2031 1094.4698,1273.2031 C1094.4698,1273.2031 1112.4698,1273.2031 1112.4698,1263.2031 " fill="none" style="stroke:#A80036;stroke-width:1.5;"/><rect fill="#FFFFFF" height="1097.3125" style="stroke:#A80036;stroke-width:1.0;" width="10" x="23.9999" y="131.5938"/><rect fill="#FFFFFF" height="71.2656" style="stroke:#A80036;stroke-width:1.0;" width="10" x="157.3744" y="167.8594"/><rect fill="#FFFFFF" height="817.9844" style="stroke:#A80036;stroke-width:1.0;" width="10" x="157.3744" y="286.3906"/><rect fill="#FFFFFF" height="71.2656" style="stroke:#A80036;stroke-width:1.0;" width="10" x="157.3744" y="1148.6406"/><rect fill="#FFFFFF" height="672.7539" style="stroke:#A80036;stroke-width:1.0;" width="10" x="308.3746" y="402.4883"/><rect fill="#FFFFFF" height="39.6992" style="stroke:#A80036;stroke-width:1.0;" width="10" x="477.8799" y="588.9844"/><rect fill="#FFFFFF" height="87.3984" style="stroke:#A80036;stroke-width:1.0;" width="10" x="579.4473" y="668.3828"/><rect fill="#FFFFFF" height="87.3984" style="stroke:#A80036;stroke-width:1.0;" width="10" x="739.1714" y="784.9141"/><rect fill="#FFFFFF" height="87.3984" style="stroke:#A80036;stroke-width:1.0;" width="10" x="925.108" y="457.3203"/><rect fill="#FFFFFF" height="87.3984" style="stroke:#A80036;stroke-width:1.0;" width="10" x="925.108" y="901.4453"/><rect fill="#FFFFFF" height="29.1328" style="stroke:#A80036;stroke-width:1.0;" width="10" x="1089.4698" y="486.4531"/><rect fill="#FFFFFF" height="29.1328" style="stroke:#A80036;stroke-width:1.0;" width="10" x="1089.4698" y="697.5156"/><rect fill="#FFFFFF" height="29.1328" style="stroke:#A80036;stroke-width:1.0;" width="10" x="1089.4698" y="814.0469"/><rect fill="#FFFFFF" height="29.1328" style="stroke:#A80036;stroke-width:1.0;" width="10" x="1089.4698" y="930.5781"/><polygon fill="#A80036" points="145.3744,163.8594,155.3744,167.8594,145.3744,171.8594,149.3744,167.8594" style="stroke:#A80036;stroke-width:1.0;"/><line style="stroke:#A80036;stroke-width:1.0;" x1="33.9999" x2="151.3744" y1="167.8594" y2="167.8594"/><text fill="#000000" font-family="sans-serif" font-size="13" lengthAdjust="spacing" textLength="26.2285" x="40.9999" y="147.6606">GET</text><text fill="#000000" font-family="sans-serif" font-size="13" lengthAdjust="spacing" textLength="74.1914" x="40.9999" y="162.7935">/order/form</text><line style="stroke:#A80036;stroke-width:1.0;" x1="167.3744" x2="209.3744" y1="196.9922" y2="196.9922"/><line style="stroke:#A80036;stroke-width:1.0;" x1="209.3744" x2="209.3744" y1="196.9922" y2="209.9922"/><line style="stroke:#A80036;stroke-width:1.0;" x1="168.3744" x2="209.3744" y1="209.9922" y2="209.9922"/><polygon fill="#A80036" points="178.3744,205.9922,168.3744,209.9922,178.3744,213.9922,174.3744,209.9922" style="stroke:#A80036;stroke-width:1.0;"/><text fill="#000000" font-family="sans-serif" font-size="13" lengthAdjust="spacing" textLength="117.0001" x="174.3744" y="191.9263">&#12459;&#12540;&#12488;&#12398;&#20013;&#36523;&#12434;&#34920;&#31034;</text><polygon fill="#A80036" points="44.9999,235.125,34.9999,239.125,44.9999,243.125,40.9999,239.125" style="stroke:#A80036;stroke-width:1.0;"/><line style="stroke:#A80036;stroke-width:1.0;" x1="38.9999" x2="161.3744" y1="239.125" y2="239.125"/><text fill="#000000" font-family="sans-serif" font-size="13" lengthAdjust="spacing" textLength="78.0001" x="50.9999" y="234.0591">&#36092;&#20837;&#30906;&#35469;&#30011;&#38754;</text><polygon fill="#A80036" points="145.3744,282.3906,155.3744,286.3906,145.3744,290.3906,149.3744,286.3906" style="stroke:#A80036;stroke-width:1.0;"/><line style="stroke:#A80036;stroke-width:1.0;" x1="33.9999" x2="151.3744" y1="286.3906" y2="286.3906"/><text fill="#000000" font-family="sans-serif" font-size="13" lengthAdjust="spacing" textLength="34.2646" x="40.9999" y="266.1919">POST</text><text fill="#000000" font-family="sans-serif" font-size="13" lengthAdjust="spacing" textLength="95.8242" x="40.9999" y="281.3247">/order/execute</text><path d="M172,252.125 L172,292.125 L310,292.125 L310,262.125 L300,252.125 L172,252.125 " fill="#FBFB77" style="stroke:#A80036;stroke-width:1.0;"/><path d="M300,252.125 L300,262.125 L310,262.125 L300,252.125 " fill="#FBFB77" style="stroke:#A80036;stroke-width:1.0;"/><text fill="#000000" font-family="sans-serif" font-size="13" lengthAdjust="spacing" textLength="117.0001" x="178" y="269.1919">&#26410;&#12525;&#12464;&#12452;&#12531;&#12384;&#12387;&#12383;&#12425;</text><text fill="#000000" font-family="sans-serif" font-size="13" lengthAdjust="spacing" textLength="117.0001" x="178" y="284.3247">&#12525;&#12464;&#12452;&#12531;&#30011;&#38754;&#12434;&#20986;&#12377;</text><polygon fill="#A80036" points="470.8799,314.5234,480.8799,318.5234,470.8799,322.5234,474.8799,318.5234" style="stroke:#A80036;stroke-width:1.0;"/><line style="stroke:#A80036;stroke-width:1.0;" x1="167.3744" x2="476.8799" y1="318.5234" y2="318.5234"/><text fill="#000000" font-family="sans-serif" font-size="13" lengthAdjust="spacing" textLength="232.0134" x="174.3744" y="313.4575">new(&#12459;&#12540;&#12488;&#20869;&#23481;&#12434;&#12456;&#12531;&#12486;&#12451;&#12486;&#12451;&#12395;&#22793;&#25563;)</text><polygon fill="#A80036" points="178.3744,343.6563,168.3744,347.6563,178.3744,351.6563,174.3744,347.6563" style="stroke:#A80036;stroke-width:1.0;"/><line style="stroke:#A80036;stroke-width:1.0;stroke-dasharray:2.0,2.0;" x1="172.3744" x2="481.8799" y1="347.6563" y2="347.6563"/><text fill="#000000" font-family="sans-serif" font-size="13" lengthAdjust="spacing" textLength="37.1719" x="184.3744" y="342.5903">Order</text><polygon fill="#A80036" points="296.3746,398.4883,306.3746,402.4883,296.3746,406.4883,300.3746,402.4883" style="stroke:#A80036;stroke-width:1.0;"/><line style="stroke:#A80036;stroke-width:1.0;" x1="167.3744" x2="302.3746" y1="402.4883" y2="402.4883"/><text fill="#000000" font-family="sans-serif" font-size="13" lengthAdjust="spacing" textLength="108.9575" x="174.3744" y="397.4224">addOrder(Order)</text><path d="M323,360.6563 L323,430.6563 L487,430.6563 L487,370.6563 L477,360.6563 L323,360.6563 " fill="#FBFB77" style="stroke:#A80036;stroke-width:1.0;"/><path d="M477,360.6563 L477,370.6563 L487,370.6563 L477,360.6563 " fill="#FBFB77" style="stroke:#A80036;stroke-width:1.0;"/><text fill="#000000" font-family="sans-serif" font-size="13" lengthAdjust="spacing" textLength="117.0001" x="329" y="377.7231">&#12539;&#22312;&#24235;&#25968;&#12434;&#21462;&#24471;&#12375;&#12390;</text><text fill="#000000" font-family="sans-serif" font-size="13" lengthAdjust="spacing" textLength="117.0001" x="329" y="392.856">&#12288;&#36092;&#20837;&#12391;&#12365;&#12427;&#12363;&#30906;&#35469;</text><text fill="#000000" font-family="sans-serif" font-size="13" lengthAdjust="spacing" textLength="117.0001" x="329" y="407.9888">&#12288;&#65288;&#24754;&#35251;&#30340;&#12525;&#12483;&#12463;&#65289;</text><text fill="#000000" font-family="sans-serif" font-size="13" lengthAdjust="spacing" textLength="143.0002" x="329" y="423.1216">&#12539;&#12488;&#12521;&#12531;&#12470;&#12463;&#12471;&#12519;&#12531;&#20966;&#29702;</text><polygon fill="#A80036" points="913.108,453.3203,923.108,457.3203,913.108,461.3203,917.108,457.3203" style="stroke:#A80036;stroke-width:1.0;"/><line style="stroke:#A80036;stroke-width:1.0;" x1="318.3746" x2="919.108" y1="457.3203" y2="457.3203"/><text fill="#000000" font-family="sans-serif" font-size="13" lengthAdjust="spacing" textLength="201.8555" x="325.3746" y="452.2544">selectStockList(List&lt;Product&gt;)</text><polygon fill="#A80036" points="1077.4698,482.4531,1087.4698,486.4531,1077.4698,490.4531,1081.4698,486.4531" style="stroke:#A80036;stroke-width:1.0;"/><line style="stroke:#A80036;stroke-width:1.0;" x1="935.108" x2="1083.4698" y1="486.4531" y2="486.4531"/><text fill="#000000" font-family="sans-serif" font-size="13" lengthAdjust="spacing" textLength="78.7998" x="942.108" y="481.3872">SQL SELECT</text><polygon fill="#A80036" points="946.108,511.5859,936.108,515.5859,946.108,519.5859,942.108,515.5859" style="stroke:#A80036;stroke-width:1.0;"/><line style="stroke:#A80036;stroke-width:1.0;stroke-dasharray:2.0,2.0;" x1="940.108" x2="1093.4698" y1="515.5859" y2="515.5859"/><text fill="#000000" font-family="sans-serif" font-size="13" lengthAdjust="spacing" textLength="130.3618" x="952.108" y="510.52">List&lt;ProductStock&gt;</text><polygon fill="#A80036" points="329.3746,540.7188,319.3746,544.7188,329.3746,548.7188,325.3746,544.7188" style="stroke:#A80036;stroke-width:1.0;"/><line style="stroke:#A80036;stroke-width:1.0;stroke-dasharray:2.0,2.0;" x1="323.3746" x2="929.108" y1="544.7188" y2="544.7188"/><text fill="#000000" font-family="sans-serif" font-size="13" lengthAdjust="spacing" textLength="130.3618" x="335.3746" y="539.6528">List&lt;ProductStock&gt;</text><polygon fill="#A80036" points="465.8799,584.9844,475.8799,588.9844,465.8799,592.9844,469.8799,588.9844" style="stroke:#A80036;stroke-width:1.0;"/><line style="stroke:#A80036;stroke-width:1.0;" x1="318.3746" x2="471.8799" y1="588.9844" y2="588.9844"/><text fill="#000000" font-family="sans-serif" font-size="13" lengthAdjust="spacing" textLength="74.0391" x="325.3746" y="568.7856">checkStock</text><text fill="#000000" font-family="sans-serif" font-size="13" lengthAdjust="spacing" textLength="140.5054" x="325.3746" y="583.9185">(List&lt;ProductStock&gt;)</text><polygon fill="#A80036" points="329.3746,624.6836,319.3746,628.6836,329.3746,632.6836,325.3746,628.6836" style="stroke:#A80036;stroke-width:1.0;"/><line style="stroke:#A80036;stroke-width:1.0;stroke-dasharray:2.0,2.0;" x1="323.3746" x2="481.8799" y1="628.6836" y2="628.6836"/><text fill="#000000" font-family="sans-serif" font-size="13" lengthAdjust="spacing" textLength="51.9746" x="335.3746" y="623.6177">boolean</text><path d="M492,601.9844 L492,641.9844 L654,641.9844 L654,611.9844 L644,601.9844 L492,601.9844 " fill="#FBFB77" style="stroke:#A80036;stroke-width:1.0;"/><path d="M644,601.9844 L644,611.9844 L654,611.9844 L644,601.9844 " fill="#FBFB77" style="stroke:#A80036;stroke-width:1.0;"/><text fill="#000000" font-family="sans-serif" font-size="13" lengthAdjust="spacing" textLength="141.172" x="498" y="619.0513">&#12539;Order&#12398;&#25968;&#37327;&#12392;&#22312;&#24235;&#12434;</text><text fill="#000000" font-family="sans-serif" font-size="13" lengthAdjust="spacing" textLength="117.0001" x="498" y="634.1841">&#12288;&#27604;&#36611;&#12375;&#12390;&#12481;&#12455;&#12483;&#12463;</text><polygon fill="#A80036" points="567.4473,664.3828,577.4473,668.3828,567.4473,672.3828,571.4473,668.3828" style="stroke:#A80036;stroke-width:1.0;"/><line style="stroke:#A80036;stroke-width:1.0;" x1="318.3746" x2="573.4473" y1="668.3828" y2="668.3828"/><text fill="#000000" font-family="sans-serif" font-size="13" lengthAdjust="spacing" textLength="84.3794" x="325.3746" y="663.3169">insert(Order)</text><polygon fill="#A80036" points="1077.4698,693.5156,1087.4698,697.5156,1077.4698,701.5156,1081.4698,697.5156" style="stroke:#A80036;stroke-width:1.0;"/><line style="stroke:#A80036;stroke-width:1.0;" x1="589.4473" x2="1083.4698" y1="697.5156" y2="697.5156"/><text fill="#000000" font-family="sans-serif" font-size="13" lengthAdjust="spacing" textLength="76.8574" x="596.4473" y="692.4497">SQL INSERT</text><polygon fill="#A80036" points="600.4473,722.6484,590.4473,726.6484,600.4473,730.6484,596.4473,726.6484" style="stroke:#A80036;stroke-width:1.0;"/><line style="stroke:#A80036;stroke-width:1.0;stroke-dasharray:2.0,2.0;" x1="594.4473" x2="1093.4698" y1="726.6484" y2="726.6484"/><text fill="#000000" font-family="sans-serif" font-size="13" lengthAdjust="spacing" textLength="27.5107" x="606.4473" y="721.5825">viod</text><polygon fill="#A80036" points="329.3746,751.7813,319.3746,755.7813,329.3746,759.7813,325.3746,755.7813" style="stroke:#A80036;stroke-width:1.0;"/><line style="stroke:#A80036;stroke-width:1.0;stroke-dasharray:2.0,2.0;" x1="323.3746" x2="583.4473" y1="755.7813" y2="755.7813"/><text fill="#000000" font-family="sans-serif" font-size="13" lengthAdjust="spacing" textLength="27.5107" x="335.3746" y="750.7153">viod</text><polygon fill="#A80036" points="727.1714,780.9141,737.1714,784.9141,727.1714,788.9141,731.1714,784.9141" style="stroke:#A80036;stroke-width:1.0;"/><line style="stroke:#A80036;stroke-width:1.0;" x1="318.3746" x2="733.1714" y1="784.9141" y2="784.9141"/><text fill="#000000" font-family="sans-serif" font-size="13" lengthAdjust="spacing" textLength="122.6748" x="325.3746" y="779.8481">insert(OrderDetail)</text><polygon fill="#A80036" points="1077.4698,810.0469,1087.4698,814.0469,1077.4698,818.0469,1081.4698,814.0469" style="stroke:#A80036;stroke-width:1.0;"/><line style="stroke:#A80036;stroke-width:1.0;" x1="749.1714" x2="1083.4698" y1="814.0469" y2="814.0469"/><text fill="#000000" font-family="sans-serif" font-size="13" lengthAdjust="spacing" textLength="76.8574" x="756.1714" y="808.981">SQL INSERT</text><polygon fill="#A80036" points="760.1714,839.1797,750.1714,843.1797,760.1714,847.1797,756.1714,843.1797" style="stroke:#A80036;stroke-width:1.0;"/><line style="stroke:#A80036;stroke-width:1.0;stroke-dasharray:2.0,2.0;" x1="754.1714" x2="1093.4698" y1="843.1797" y2="843.1797"/><text fill="#000000" font-family="sans-serif" font-size="13" lengthAdjust="spacing" textLength="27.5107" x="766.1714" y="838.1138">viod</text><polygon fill="#A80036" points="329.3746,868.3125,319.3746,872.3125,329.3746,876.3125,325.3746,872.3125" style="stroke:#A80036;stroke-width:1.0;"/><line style="stroke:#A80036;stroke-width:1.0;stroke-dasharray:2.0,2.0;" x1="323.3746" x2="743.1714" y1="872.3125" y2="872.3125"/><text fill="#000000" font-family="sans-serif" font-size="13" lengthAdjust="spacing" textLength="27.5107" x="335.3746" y="867.2466">viod</text><polygon fill="#A80036" points="913.108,897.4453,923.108,901.4453,913.108,905.4453,917.108,901.4453" style="stroke:#A80036;stroke-width:1.0;"/><line style="stroke:#A80036;stroke-width:1.0;" x1="318.3746" x2="919.108" y1="901.4453" y2="901.4453"/><text fill="#000000" font-family="sans-serif" font-size="13" lengthAdjust="spacing" textLength="141.8003" x="325.3746" y="896.3794">update(ProductStock)</text><polygon fill="#A80036" points="1077.4698,926.5781,1087.4698,930.5781,1077.4698,934.5781,1081.4698,930.5781" style="stroke:#A80036;stroke-width:1.0;"/><line style="stroke:#A80036;stroke-width:1.0;" x1="935.108" x2="1083.4698" y1="930.5781" y2="930.5781"/><text fill="#000000" font-family="sans-serif" font-size="13" lengthAdjust="spacing" textLength="82.272" x="942.108" y="925.5122">SQL UPDATE</text><polygon fill="#A80036" points="946.108,955.7109,936.108,959.7109,946.108,963.7109,942.108,959.7109" style="stroke:#A80036;stroke-width:1.0;"/><line style="stroke:#A80036;stroke-width:1.0;stroke-dasharray:2.0,2.0;" x1="940.108" x2="1093.4698" y1="959.7109" y2="959.7109"/><text fill="#000000" font-family="sans-serif" font-size="13" lengthAdjust="spacing" textLength="27.5107" x="952.108" y="954.645">viod</text><polygon fill="#A80036" points="329.3746,984.8438,319.3746,988.8438,329.3746,992.8438,325.3746,988.8438" style="stroke:#A80036;stroke-width:1.0;"/><line style="stroke:#A80036;stroke-width:1.0;stroke-dasharray:2.0,2.0;" x1="323.3746" x2="929.108" y1="988.8438" y2="988.8438"/><text fill="#000000" font-family="sans-serif" font-size="13" lengthAdjust="spacing" textLength="27.5107" x="335.3746" y="983.7778">viod</text><line style="stroke:#A80036;stroke-width:1.0;" x1="318.3746" x2="360.3746" y1="1033.1094" y2="1033.1094"/><line style="stroke:#A80036;stroke-width:1.0;" x1="360.3746" x2="360.3746" y1="1033.1094" y2="1046.1094"/><line style="stroke:#A80036;stroke-width:1.0;" x1="319.3746" x2="360.3746" y1="1046.1094" y2="1046.1094"/><polygon fill="#A80036" points="329.3746,1042.1094,319.3746,1046.1094,329.3746,1050.1094,325.3746,1046.1094" style="stroke:#A80036;stroke-width:1.0;"/><text fill="#000000" font-family="sans-serif" font-size="13" lengthAdjust="spacing" textLength="65.0001" x="325.3746" y="1012.9106">&#12513;&#12540;&#12523;&#36865;&#20449;</text><text fill="#000000" font-family="sans-serif" font-size="13" lengthAdjust="spacing" textLength="104.9839" x="325.3746" y="1028.0435">sendMail(Order)</text><path d="M451.9839,1005.3438 L451.9839,1045.3438 L693.9839,1045.3438 L693.9839,1015.3438 L683.9839,1005.3438 L451.9839,1005.3438 " fill="#FBFB77" style="stroke:#A80036;stroke-width:1.0;"/><path d="M683.9839,1005.3438 L683.9839,1015.3438 L693.9839,1015.3438 L683.9839,1005.3438 " fill="#FBFB77" style="stroke:#A80036;stroke-width:1.0;"/><text fill="#000000" font-family="sans-serif" font-size="13" lengthAdjust="spacing" textLength="221.0003" x="457.9839" y="1022.4106">&#12539;&#39015;&#23458;&#12513;&#12540;&#12523;&#12450;&#12489;&#12524;&#12473;&#23451;&#12395;&#12513;&#12540;&#12523;&#36865;&#20449;</text><text fill="#000000" font-family="sans-serif" font-size="13" lengthAdjust="spacing" textLength="156.0002" x="457.9839" y="1037.5435">&#12539;&#27880;&#25991;&#20869;&#23481;&#12392;&#25391;&#36796;&#20808;&#12434;&#36865;&#20449;</text><polygon fill="#A80036" points="178.3744,1071.2422,168.3744,1075.2422,178.3744,1079.2422,174.3744,1075.2422" style="stroke:#A80036;stroke-width:1.0;"/><line style="stroke:#A80036;stroke-width:1.0;stroke-dasharray:2.0,2.0;" x1="172.3744" x2="312.3746" y1="1075.2422" y2="1075.2422"/><text fill="#000000" font-family="sans-serif" font-size="13" lengthAdjust="spacing" textLength="27.5107" x="184.3744" y="1070.1763">viod</text><polygon fill="#A80036" points="44.9999,1100.375,34.9999,1104.375,44.9999,1108.375,40.9999,1104.375" style="stroke:#A80036;stroke-width:1.0;"/><line style="stroke:#A80036;stroke-width:1.0;stroke-dasharray:2.0,2.0;" x1="38.9999" x2="161.3744" y1="1104.375" y2="1104.375"/><text fill="#000000" font-family="sans-serif" font-size="13" lengthAdjust="spacing" textLength="78.0001" x="50.9999" y="1099.3091">&#12522;&#12480;&#12452;&#12524;&#12463;&#12488;</text><polygon fill="#A80036" points="145.3744,1144.6406,155.3744,1148.6406,145.3744,1152.6406,149.3744,1148.6406" style="stroke:#A80036;stroke-width:1.0;"/><line style="stroke:#A80036;stroke-width:1.0;" x1="33.9999" x2="151.3744" y1="1148.6406" y2="1148.6406"/><text fill="#000000" font-family="sans-serif" font-size="13" lengthAdjust="spacing" textLength="26.2285" x="40.9999" y="1128.4419">GET</text><text fill="#000000" font-family="sans-serif" font-size="13" lengthAdjust="spacing" textLength="104.3745" x="40.9999" y="1143.5747">/order/complete</text><line style="stroke:#A80036;stroke-width:1.0;" x1="167.3744" x2="209.3744" y1="1177.7734" y2="1177.7734"/><line style="stroke:#A80036;stroke-width:1.0;" x1="209.3744" x2="209.3744" y1="1177.7734" y2="1190.7734"/><line style="stroke:#A80036;stroke-width:1.0;" x1="168.3744" x2="209.3744" y1="1190.7734" y2="1190.7734"/><polygon fill="#A80036" points="178.3744,1186.7734,168.3744,1190.7734,178.3744,1194.7734,174.3744,1190.7734" style="stroke:#A80036;stroke-width:1.0;"/><text fill="#000000" font-family="sans-serif" font-size="13" lengthAdjust="spacing" textLength="91.0001" x="174.3744" y="1172.7075">&#12475;&#12483;&#12471;&#12519;&#12531;&#35299;&#38500;</text><polygon fill="#A80036" points="44.9999,1215.9063,34.9999,1219.9063,44.9999,1223.9063,40.9999,1219.9063" style="stroke:#A80036;stroke-width:1.0;"/><line style="stroke:#A80036;stroke-width:1.0;stroke-dasharray:2.0,2.0;" x1="38.9999" x2="161.3744" y1="1219.9063" y2="1219.9063"/><text fill="#000000" font-family="sans-serif" font-size="13" lengthAdjust="spacing" textLength="52.0001" x="50.9999" y="1214.8403">&#23436;&#20102;&#30011;&#38754;</text><!--SRC=[XLLTJzDG6BxlhpZXnX52W0Ll225HM8m92ZAuuwQq1sWexT8Mq3lQoXW1WZ68uSCeCBV9OA1BKCQ2F-RGVLpn5tpFETqOe-2oT6sVvxmVp_inSqRHaA6RM33XBYOQuYmofqLPNr2qAJGfge1OYgLYDDRVsVcq1rNoHM_fU_cWuELs475-4xT8d9_4pHFdmjlD2w9awGPg8MwA8USjI3JHd8aDYYZpeeNv4xYo54c9YPg5MeOC6HlzkcOPkgfYWvsHB4CDO4MnCQz8c57CUIc0mI1T3a16S4mt5OZl7UCOyDWLG1l0bgYe0UJmNVAmeSjpaXMrT6acWDqjoA8bJeWcHWFFwKjvGX2U892kShHUthoiVZaGg1IelOybYzhQK0zw4HaTrpfq6aV7f6xC2WogKNf0yYmLraqGEtVzvwHIo1BdOsK_KquMwbHkjHqrLElM9OJWvTQk2_47GnWUYjx6WDzYQSx2WgP3vGnbQjeI47nAUqV4FI7E6N6IjFZsDs8V4lihSLOOtWXoHn2cjrmWzhQ0DHbHS_LuTHcyQdWXL4_EYozvkGiuGfmCDU_6YNFeN-sibrmfRUosylEza2Wpm6fNjmczmRCHPPaX8NPjRKw4k9VUNiOhP4kVpcY86rlUrMTYmpV5ySL5BYAnqyHU9yugiLUve3NyffWeERyggNnvvptDstM9StfJh0bnIOlb_c0ZSWu86veqF7hBgVA7-AqSD6I8dFKEZzt4AlORR50nhH2zzFfjrzSgS2OSaISuF_fc44KZWv7-KH-ZuW38Ug7nC3FPnpnIYc_e4HQl4dCYJMDfXa7ZMkW-lRLk5GumanEwhc9H2r2UbGGQ6RIlBcyGEyDB0NMeQLiwtQmKNLuFujh4INDv0rNhuW4g6hIqLQit1vf4Ulaw6XaPzR56aUOLs1oDidGrlVTTXU-xuck3Emm_uZ3ykCDmi4E_8-PYi5Hmg57n1_fWR7ZWsMWae0_kUUo-VOzgBkaFB1jtdyrZjhfeN__T7uTiDVaLPFdmC5Ntqrxke7wGE72_GjnZ-lUGsuNXRR9PErVAPqfRo_xSsvdIscdb2iOk0RtW4- -k3HeyYxMU4bjaz3LV0UqiVjXIYsmB7TF9SnF_sRYIFXjJSSDggc_TIzPt_kHMqeVLxQHFkhDm6rVhFm00]--></g></svg>