<?xml version="1.0" encoding="us-ascii" standalone="no"?><svg xmlns="http://www.w3.org/2000/svg" xmlns:xlink="http://www.w3.org/1999/xlink" contentStyleType="text/css" height="1320px" preserveAspectRatio="none" style="width:1125px;height:1320px;background:#FFFFFF;" version="1.1" viewBox="0 0 1125 1320" width="1125px" zoomAndPan="magnify"><defs/><g><text fill="#000000" font-family="sans-serif" font-size="14" font-weight="bold" lengthAdjust="spacing" textLength="217" x="447.5" y="27.9951">UC005: &#36092;&#20837;&#30906;&#23450; &#12471;&#12540;&#12465;&#12531;&#12473;&#22259;</text><rect fill="#FFFFFF" height="1097.3125" style="stroke:#A80036;stroke-width:1.0;" width="10" x="24" y="131.5938"/><rect fill="#FFFFFF" height="71.2656" style="stroke:#A80036;stroke-width:1.0;" width="10" x="155" y="167.8594"/><rect fill="#FFFFFF" height="817.9844" style="stroke:#A80036;stroke-width:1.0;" width="10" x="155" y="286.3906"/><rect fill="#FFFFFF" height="71.2656" style="stroke:#A80036;stroke-width:1.0;" width="10" x="155" y="1148.6406"/><rect fill="#FFFFFF" height="672.7539" style="stroke:#A80036;stroke-width:1.0;" width="10" x="296" y="402.4883"/><rect fill="#FFFFFF" height="39.6992" style="stroke:#A80036;stroke-width:1.0;" width="10" x="461" y="588.9844"/><rect fill="#FFFFFF" height="87.3984" style="stroke:#A80036;stroke-width:1.0;" width="10" x="565.5" y="668.3828"/><rect fill="#FFFFFF" height="87.3984" style="stroke:#A80036;stroke-width:1.0;" width="10" x="731" y="784.9141"/><rect fill="#FFFFFF" height="87.3984" style="stroke:#A80036;stroke-width:1.0;" width="10" x="925" y="457.3203"/><rect fill="#FFFFFF" height="87.3984" style="stroke:#A80036;stroke-width:1.0;" width="10" x="925" y="901.4453"/><rect fill="#FFFFFF" height="29.1328" style="stroke:#A80036;stroke-width:1.0;" width="10" x="1085" y="486.4531"/><rect fill="#FFFFFF" height="29.1328" style="stroke:#A80036;stroke-width:1.0;" width="10" x="1085" y="697.5156"/><rect fill="#FFFFFF" height="29.1328" style="stroke:#A80036;stroke-width:1.0;" width="10" x="1085" y="814.0469"/><rect fill="#FFFFFF" height="29.1328" style="stroke:#A80036;stroke-width:1.0;" width="10" x="1085" y="930.5781"/><line style="stroke:#A80036;stroke-width:1.0;stroke-dasharray:5.0,5.0;" x1="29" x2="29" y1="121.5938" y2="1237.9063"/><line style="stroke:#A80036;stroke-width:1.0;stroke-dasharray:5.0,5.0;" x1="160" x2="160" y1="121.5938" y2="1237.9063"/><line style="stroke:#A80036;stroke-width:1.0;stroke-dasharray:5.0,5.0;" x1="301" x2="301" y1="121.5938" y2="1237.9063"/><line style="stroke:#A80036;stroke-width:1.0;stroke-dasharray:5.0,5.0;" x1="465.5" x2="465.5" y1="121.5938" y2="1237.9063"/><line style="stroke:#A80036;stroke-width:1.0;stroke-dasharray:5.0,5.0;" x1="570.5" x2="570.5" y1="121.5938" y2="1237.9063"/><line style="stroke:#A80036;stroke-width:1.0;stroke-dasharray:5.0,5.0;" x1="735.5" x2="735.5" y1="121.5938" y2="1237.9063"/><line style="stroke:#A80036;stroke-width:1.0;stroke-dasharray:5.0,5.0;" x1="929.5" x2="929.5" y1="121.5938" y2="1237.9063"/><line style="stroke:#A80036;stroke-width:1.0;stroke-dasharray:5.0,5.0;" x1="1090" x2="1090" y1="121.5938" y2="1237.9063"/><text fill="#000000" font-family="sans-serif" font-size="14" lengthAdjust="spacing" textLength="42" x="5" y="118.292">&#12518;&#12540;&#12470;</text><ellipse cx="29" cy="52.2969" fill="#FEFECE" rx="8" ry="8" style="stroke:#A80036;stroke-width:2.0;"/><path d="M29,60.2969 L29,87.2969 M16,68.2969 L42,68.2969 M29,87.2969 L16,102.2969 M29,87.2969 L42,102.2969 " fill="none" style="stroke:#A80036;stroke-width:2.0;"/><text fill="#000000" font-family="sans-serif" font-size="14" lengthAdjust="spacing" textLength="42" x="5" y="1249.9014">&#12518;&#12540;&#12470;</text><ellipse cx="29" cy="1263.2031" fill="#FEFECE" rx="8" ry="8" style="stroke:#A80036;stroke-width:2.0;"/><path d="M29,1271.2031 L29,1298.2031 M16,1279.2031 L42,1279.2031 M29,1298.2031 L16,1313.2031 M29,1298.2031 L42,1313.2031 " fill="none" style="stroke:#A80036;stroke-width:2.0;"/><rect fill="#FEFECE" height="30.2969" style="stroke:#A80036;stroke-width:1.5;" width="128" x="96" y="90.2969"/><text fill="#000000" font-family="sans-serif" font-size="14" lengthAdjust="spacing" textLength="114" x="103" y="110.292">OrderController</text><rect fill="#FEFECE" height="30.2969" style="stroke:#A80036;stroke-width:1.5;" width="128" x="96" y="1236.9063"/><text fill="#000000" font-family="sans-serif" font-size="14" lengthAdjust="spacing" textLength="114" x="103" y="1256.9014">OrderController</text><rect fill="#FEFECE" height="30.2969" style="stroke:#A80036;stroke-width:1.5;" width="108" x="247" y="90.2969"/><text fill="#000000" font-family="sans-serif" font-size="14" lengthAdjust="spacing" textLength="94" x="254" y="110.292">OrderService</text><rect fill="#FEFECE" height="30.2969" style="stroke:#A80036;stroke-width:1.5;" width="108" x="247" y="1236.9063"/><text fill="#000000" font-family="sans-serif" font-size="14" lengthAdjust="spacing" textLength="94" x="254" y="1256.9014">OrderService</text><rect fill="#FEFECE" height="30.2969" style="stroke:#A80036;stroke-width:1.5;" width="55" x="438.5" y="90.2969"/><text fill="#000000" font-family="sans-serif" font-size="14" lengthAdjust="spacing" textLength="41" x="445.5" y="110.292">Order</text><rect fill="#FEFECE" height="30.2969" style="stroke:#A80036;stroke-width:1.5;" width="55" x="438.5" y="1236.9063"/><text fill="#000000" font-family="sans-serif" font-size="14" lengthAdjust="spacing" textLength="41" x="445.5" y="1256.9014">Order</text><rect fill="#FEFECE" height="30.2969" style="stroke:#A80036;stroke-width:1.5;" width="134" x="503.5" y="90.2969"/><text fill="#000000" font-family="sans-serif" font-size="14" lengthAdjust="spacing" textLength="120" x="510.5" y="110.292">OrderRepository</text><rect fill="#FEFECE" height="30.2969" style="stroke:#A80036;stroke-width:1.5;" width="134" x="503.5" y="1236.9063"/><text fill="#000000" font-family="sans-serif" font-size="14" lengthAdjust="spacing" textLength="120" x="510.5" y="1256.9014">OrderRepository</text><rect fill="#FEFECE" height="30.2969" style="stroke:#A80036;stroke-width:1.5;" width="177" x="647.5" y="90.2969"/><text fill="#000000" font-family="sans-serif" font-size="14" lengthAdjust="spacing" textLength="163" x="654.5" y="110.292">OrderDetailRepository</text><rect fill="#FEFECE" height="30.2969" style="stroke:#A80036;stroke-width:1.5;" width="177" x="647.5" y="1236.9063"/><text fill="#000000" font-family="sans-serif" font-size="14" lengthAdjust="spacing" textLength="163" x="654.5" y="1256.9014">OrderDetailRepository</text><rect fill="#FEFECE" height="30.2969" style="stroke:#A80036;stroke-width:1.5;" width="191" x="834.5" y="90.2969"/><text fill="#000000" font-family="sans-serif" font-size="14" lengthAdjust="spacing" textLength="177" x="841.5" y="110.292">ProductStockRepository</text><rect fill="#FEFECE" height="30.2969" style="stroke:#A80036;stroke-width:1.5;" width="191" x="834.5" y="1236.9063"/><text fill="#000000" font-family="sans-serif" font-size="14" lengthAdjust="spacing" textLength="177" x="841.5" y="1256.9014">ProductStockRepository</text><text fill="#000000" font-family="sans-serif" font-size="14" lengthAdjust="spacing" textLength="21" x="1076.5" y="118.292">DB</text><path d="M1072,69.2969 C1072,59.2969 1090,59.2969 1090,59.2969 C1090,59.2969 1108,59.2969 1108,69.2969 L1108,95.2969 C1108,105.2969 1090,105.2969 1090,105.2969 C1090,105.2969 1072,105.2969 1072,95.2969 L1072,69.2969 " fill="#FEFECE" style="stroke:#A80036;stroke-width:1.5;"/><path d="M1072,69.2969 C1072,79.2969 1090,79.2969 1090,79.2969 C1090,79.2969 1108,79.2969 1108,69.2969 " fill="none" style="stroke:#A80036;stroke-width:1.5;"/><text fill="#000000" font-family="sans-serif" font-size="14" lengthAdjust="spacing" textLength="21" x="1076.5" y="1249.9014">DB</text><path d="M1072,1263.2031 C1072,1253.2031 1090,1253.2031 1090,1253.2031 C1090,1253.2031 1108,1253.2031 1108,1263.2031 L1108,1289.2031 C1108,1299.2031 1090,1299.2031 1090,1299.2031 C1090,1299.2031 1072,1299.2031 1072,1289.2031 L1072,1263.2031 " fill="#FEFECE" style="stroke:#A80036;stroke-width:1.5;"/><path d="M1072,1263.2031 C1072,1273.2031 1090,1273.2031 1090,1273.2031 C1090,1273.2031 1108,1273.2031 1108,1263.2031 " fill="none" style="stroke:#A80036;stroke-width:1.5;"/><rect fill="#FFFFFF" height="1097.3125" style="stroke:#A80036;stroke-width:1.0;" width="10" x="24" y="131.5938"/><rect fill="#FFFFFF" height="71.2656" style="stroke:#A80036;stroke-width:1.0;" width="10" x="155" y="167.8594"/><rect fill="#FFFFFF" height="817.9844" style="stroke:#A80036;stroke-width:1.0;" width="10" x="155" y="286.3906"/><rect fill="#FFFFFF" height="71.2656" style="stroke:#A80036;stroke-width:1.0;" width="10" x="155" y="1148.6406"/><rect fill="#FFFFFF" height="672.7539" style="stroke:#A80036;stroke-width:1.0;" width="10" x="296" y="402.4883"/><rect fill="#FFFFFF" height="39.6992" style="stroke:#A80036;stroke-width:1.0;" width="10" x="461" y="588.9844"/><rect fill="#FFFFFF" height="87.3984" style="stroke:#A80036;stroke-width:1.0;" width="10" x="565.5" y="668.3828"/><rect fill="#FFFFFF" height="87.3984" style="stroke:#A80036;stroke-width:1.0;" width="10" x="731" y="784.9141"/><rect fill="#FFFFFF" height="87.3984" style="stroke:#A80036;stroke-width:1.0;" width="10" x="925" y="457.3203"/><rect fill="#FFFFFF" height="87.3984" style="stroke:#A80036;stroke-width:1.0;" width="10" x="925" y="901.4453"/><rect fill="#FFFFFF" height="29.1328" style="stroke:#A80036;stroke-width:1.0;" width="10" x="1085" y="486.4531"/><rect fill="#FFFFFF" height="29.1328" style="stroke:#A80036;stroke-width:1.0;" width="10" x="1085" y="697.5156"/><rect fill="#FFFFFF" height="29.1328" style="stroke:#A80036;stroke-width:1.0;" width="10" x="1085" y="814.0469"/><rect fill="#FFFFFF" height="29.1328" style="stroke:#A80036;stroke-width:1.0;" width="10" x="1085" y="930.5781"/><polygon fill="#A80036" points="143,163.8594,153,167.8594,143,171.8594,147,167.8594" style="stroke:#A80036;stroke-width:1.0;"/><line style="stroke:#A80036;stroke-width:1.0;" x1="34" x2="149" y1="167.8594" y2="167.8594"/><text fill="#000000" font-family="sans-serif" font-size="13" lengthAdjust="spacing" textLength="26" x="41" y="147.6606">GET</text><text fill="#000000" font-family="sans-serif" font-size="13" lengthAdjust="spacing" textLength="73" x="41" y="162.7935">/order/form</text><line style="stroke:#A80036;stroke-width:1.0;" x1="165" x2="207" y1="196.9922" y2="196.9922"/><line style="stroke:#A80036;stroke-width:1.0;" x1="207" x2="207" y1="196.9922" y2="209.9922"/><line style="stroke:#A80036;stroke-width:1.0;" x1="166" x2="207" y1="209.9922" y2="209.9922"/><polygon fill="#A80036" points="176,205.9922,166,209.9922,176,213.9922,172,209.9922" style="stroke:#A80036;stroke-width:1.0;"/><text fill="#000000" font-family="sans-serif" font-size="13" lengthAdjust="spacing" textLength="117" x="172" y="191.9263">&#12459;&#12540;&#12488;&#12398;&#20013;&#36523;&#12434;&#34920;&#31034;</text><polygon fill="#A80036" points="45,235.125,35,239.125,45,243.125,41,239.125" style="stroke:#A80036;stroke-width:1.0;"/><line style="stroke:#A80036;stroke-width:1.0;" x1="39" x2="159" y1="239.125" y2="239.125"/><text fill="#000000" font-family="sans-serif" font-size="13" lengthAdjust="spacing" textLength="78" x="51" y="234.0591">&#36092;&#20837;&#30906;&#35469;&#30011;&#38754;</text><polygon fill="#A80036" points="143,282.3906,153,286.3906,143,290.3906,147,286.3906" style="stroke:#A80036;stroke-width:1.0;"/><line style="stroke:#A80036;stroke-width:1.0;" x1="34" x2="149" y1="286.3906" y2="286.3906"/><text fill="#000000" font-family="sans-serif" font-size="13" lengthAdjust="spacing" textLength="34" x="41" y="266.1919">POST</text><text fill="#000000" font-family="sans-serif" font-size="13" lengthAdjust="spacing" textLength="94" x="41" y="281.3247">/order/execute</text><path d="M170,252.125 L170,292.125 L308,292.125 L308,262.125 L298,252.125 L170,252.125 " fill="#FBFB77" style="stroke:#A80036;stroke-width:1.0;"/><path d="M298,252.125 L298,262.125 L308,262.125 L298,252.125 " fill="#FBFB77" style="stroke:#A80036;stroke-width:1.0;"/><text fill="#000000" font-family="sans-serif" font-size="13" lengthAdjust="spacing" textLength="117" x="176" y="269.1919">&#26410;&#12525;&#12464;&#12452;&#12531;&#12384;&#12387;&#12383;&#12425;</text><text fill="#000000" font-family="sans-serif" font-size="13" lengthAdjust="spacing" textLength="117" x="176" y="284.3247">&#12525;&#12464;&#12452;&#12531;&#30011;&#38754;&#12434;&#20986;&#12377;</text><polygon fill="#A80036" points="454,314.5234,464,318.5234,454,322.5234,458,318.5234" style="stroke:#A80036;stroke-width:1.0;"/><line style="stroke:#A80036;stroke-width:1.0;" x1="165" x2="460" y1="318.5234" y2="318.5234"/><text fill="#000000" font-family="sans-serif" font-size="13" lengthAdjust="spacing" textLength="232" x="172" y="313.4575">new(&#12459;&#12540;&#12488;&#20869;&#23481;&#12434;&#12456;&#12531;&#12486;&#12451;&#12486;&#12451;&#12395;&#22793;&#25563;)</text><polygon fill="#A80036" points="176,343.6563,166,347.6563,176,351.6563,172,347.6563" style="stroke:#A80036;stroke-width:1.0;"/><line style="stroke:#A80036;stroke-width:1.0;stroke-dasharray:2.0,2.0;" x1="170" x2="465" y1="347.6563" y2="347.6563"/><text fill="#000000" font-family="sans-serif" font-size="13" lengthAdjust="spacing" textLength="36" x="182" y="342.5903">Order</text><polygon fill="#A80036" points="284,398.4883,294,402.4883,284,406.4883,288,402.4883" style="stroke:#A80036;stroke-width:1.0;"/><line style="stroke:#A80036;stroke-width:1.0;" x1="165" x2="290" y1="402.4883" y2="402.4883"/><text fill="#000000" font-family="sans-serif" font-size="13" lengthAdjust="spacing" textLength="106" x="172" y="397.4224">addOrder(Order)</text><path d="M311,360.6563 L311,430.6563 L475,430.6563 L475,370.6563 L465,360.6563 L311,360.6563 " fill="#FBFB77" style="stroke:#A80036;stroke-width:1.0;"/><path d="M465,360.6563 L465,370.6563 L475,370.6563 L465,360.6563 " fill="#FBFB77" style="stroke:#A80036;stroke-width:1.0;"/><text fill="#000000" font-family="sans-serif" font-size="13" lengthAdjust="spacing" textLength="117" x="317" y="377.7231">&#12539;&#22312;&#24235;&#25968;&#12434;&#21462;&#24471;&#12375;&#12390;</text><text fill="#000000" font-family="sans-serif" font-size="13" lengthAdjust="spacing" textLength="117" x="317" y="392.856">&#12288;&#36092;&#20837;&#12391;&#12365;&#12427;&#12363;&#30906;&#35469;</text><text fill="#000000" font-family="sans-serif" font-size="13" lengthAdjust="spacing" textLength="117" x="317" y="407.9888">&#12288;&#65288;&#24754;&#35251;&#30340;&#12525;&#12483;&#12463;&#65289;</text><text fill="#000000" font-family="sans-serif" font-size="13" lengthAdjust="spacing" textLength="143" x="317" y="423.1216">&#12539;&#12488;&#12521;&#12531;&#12470;&#12463;&#12471;&#12519;&#12531;&#20966;&#29702;</text><polygon fill="#A80036" points="913,453.3203,923,457.3203,913,461.3203,917,457.3203" style="stroke:#A80036;stroke-width:1.0;"/><line style="stroke:#A80036;stroke-width:1.0;" x1="306" x2="919" y1="457.3203" y2="457.3203"/><text fill="#000000" font-family="sans-serif" font-size="13" lengthAdjust="spacing" textLength="196" x="313" y="452.2544">selectStockList(List&lt;Product&gt;)</text><polygon fill="#A80036" points="1073,482.4531,1083,486.4531,1073,490.4531,1077,486.4531" style="stroke:#A80036;stroke-width:1.0;"/><line style="stroke:#A80036;stroke-width:1.0;" x1="935" x2="1079" y1="486.4531" y2="486.4531"/><text fill="#000000" font-family="sans-serif" font-size="13" lengthAdjust="spacing" textLength="77" x="942" y="481.3872">SQL SELECT</text><polygon fill="#A80036" points="946,511.5859,936,515.5859,946,519.5859,942,515.5859" style="stroke:#A80036;stroke-width:1.0;"/><line style="stroke:#A80036;stroke-width:1.0;stroke-dasharray:2.0,2.0;" x1="940" x2="1089" y1="515.5859" y2="515.5859"/><text fill="#000000" font-family="sans-serif" font-size="13" lengthAdjust="spacing" textLength="126" x="952" y="510.52">List&lt;ProductStock&gt;</text><polygon fill="#A80036" points="317,540.7188,307,544.7188,317,548.7188,313,544.7188" style="stroke:#A80036;stroke-width:1.0;"/><line style="stroke:#A80036;stroke-width:1.0;stroke-dasharray:2.0,2.0;" x1="311" x2="929" y1="544.7188" y2="544.7188"/><text fill="#000000" font-family="sans-serif" font-size="13" lengthAdjust="spacing" textLength="126" x="323" y="539.6528">List&lt;ProductStock&gt;</text><polygon fill="#A80036" points="449,584.9844,459,588.9844,449,592.9844,453,588.9844" style="stroke:#A80036;stroke-width:1.0;"/><line style="stroke:#A80036;stroke-width:1.0;" x1="306" x2="455" y1="588.9844" y2="588.9844"/><text fill="#000000" font-family="sans-serif" font-size="13" lengthAdjust="spacing" textLength="72" x="313" y="568.7856">checkStock</text><text fill="#000000" font-family="sans-serif" font-size="13" lengthAdjust="spacing" textLength="136" x="313" y="583.9185">(List&lt;ProductStock&gt;)</text><polygon fill="#A80036" points="317,624.6836,307,628.6836,317,632.6836,313,628.6836" style="stroke:#A80036;stroke-width:1.0;"/><line style="stroke:#A80036;stroke-width:1.0;stroke-dasharray:2.0,2.0;" x1="311" x2="465" y1="628.6836" y2="628.6836"/><text fill="#000000" font-family="sans-serif" font-size="13" lengthAdjust="spacing" textLength="51" x="323" y="623.6177">boolean</text><path d="M476,601.9844 L476,641.9844 L637,641.9844 L637,611.9844 L627,601.9844 L476,601.9844 " fill="#FBFB77" style="stroke:#A80036;stroke-width:1.0;"/><path d="M627,601.9844 L627,611.9844 L637,611.9844 L627,601.9844 " fill="#FBFB77" style="stroke:#A80036;stroke-width:1.0;"/><text fill="#000000" font-family="sans-serif" font-size="13" lengthAdjust="spacing" textLength="140" x="482" y="619.0513">&#12539;Order&#12398;&#25968;&#37327;&#12392;&#22312;&#24235;&#12434;</text><text fill="#000000" font-family="sans-serif" font-size="13" lengthAdjust="spacing" textLength="117" x="482" y="634.1841">&#12288;&#27604;&#36611;&#12375;&#12390;&#12481;&#12455;&#12483;&#12463;</text><polygon fill="#A80036" points="553.5,664.3828,563.5,668.3828,553.5,672.3828,557.5,668.3828" style="stroke:#A80036;stroke-width:1.0;"/><line style="stroke:#A80036;stroke-width:1.0;" x1="306" x2="559.5" y1="668.3828" y2="668.3828"/><text fill="#000000" font-family="sans-serif" font-size="13" lengthAdjust="spacing" textLength="82" x="313" y="663.3169">insert(Order)</text><polygon fill="#A80036" points="1073,693.5156,1083,697.5156,1073,701.5156,1077,697.5156" style="stroke:#A80036;stroke-width:1.0;"/><line style="stroke:#A80036;stroke-width:1.0;" x1="575.5" x2="1079" y1="697.5156" y2="697.5156"/><text fill="#000000" font-family="sans-serif" font-size="13" lengthAdjust="spacing" textLength="74" x="582.5" y="692.4497">SQL INSERT</text><polygon fill="#A80036" points="586.5,722.6484,576.5,726.6484,586.5,730.6484,582.5,726.6484" style="stroke:#A80036;stroke-width:1.0;"/><line style="stroke:#A80036;stroke-width:1.0;stroke-dasharray:2.0,2.0;" x1="580.5" x2="1089" y1="726.6484" y2="726.6484"/><text fill="#000000" font-family="sans-serif" font-size="13" lengthAdjust="spacing" textLength="27" x="592.5" y="721.5825">viod</text><polygon fill="#A80036" points="317,751.7813,307,755.7813,317,759.7813,313,755.7813" style="stroke:#A80036;stroke-width:1.0;"/><line style="stroke:#A80036;stroke-width:1.0;stroke-dasharray:2.0,2.0;" x1="311" x2="569.5" y1="755.7813" y2="755.7813"/><text fill="#000000" font-family="sans-serif" font-size="13" lengthAdjust="spacing" textLength="27" x="323" y="750.7153">viod</text><polygon fill="#A80036" points="719,780.9141,729,784.9141,719,788.9141,723,784.9141" style="stroke:#A80036;stroke-width:1.0;"/><line style="stroke:#A80036;stroke-width:1.0;" x1="306" x2="725" y1="784.9141" y2="784.9141"/><text fill="#000000" font-family="sans-serif" font-size="13" lengthAdjust="spacing" textLength="119" x="313" y="779.8481">insert(OrderDetail)</text><polygon fill="#A80036" points="1073,810.0469,1083,814.0469,1073,818.0469,1077,814.0469" style="stroke:#A80036;stroke-width:1.0;"/><line style="stroke:#A80036;stroke-width:1.0;" x1="741" x2="1079" y1="814.0469" y2="814.0469"/><text fill="#000000" font-family="sans-serif" font-size="13" lengthAdjust="spacing" textLength="74" x="748" y="808.981">SQL INSERT</text><polygon fill="#A80036" points="752,839.1797,742,843.1797,752,847.1797,748,843.1797" style="stroke:#A80036;stroke-width:1.0;"/><line style="stroke:#A80036;stroke-width:1.0;stroke-dasharray:2.0,2.0;" x1="746" x2="1089" y1="843.1797" y2="843.1797"/><text fill="#000000" font-family="sans-serif" font-size="13" lengthAdjust="spacing" textLength="27" x="758" y="838.1138">viod</text><polygon fill="#A80036" points="317,868.3125,307,872.3125,317,876.3125,313,872.3125" style="stroke:#A80036;stroke-width:1.0;"/><line style="stroke:#A80036;stroke-width:1.0;stroke-dasharray:2.0,2.0;" x1="311" x2="735" y1="872.3125" y2="872.3125"/><text fill="#000000" font-family="sans-serif" font-size="13" lengthAdjust="spacing" textLength="27" x="323" y="867.2466">viod</text><polygon fill="#A80036" points="913,897.4453,923,901.4453,913,905.4453,917,901.4453" style="stroke:#A80036;stroke-width:1.0;"/><line style="stroke:#A80036;stroke-width:1.0;" x1="306" x2="919" y1="901.4453" y2="901.4453"/><text fill="#000000" font-family="sans-serif" font-size="13" lengthAdjust="spacing" textLength="139" x="313" y="896.3794">update(ProductStock)</text><polygon fill="#A80036" points="1073,926.5781,1083,930.5781,1073,934.5781,1077,930.5781" style="stroke:#A80036;stroke-width:1.0;"/><line style="stroke:#A80036;stroke-width:1.0;" x1="935" x2="1079" y1="930.5781" y2="930.5781"/><text fill="#000000" font-family="sans-serif" font-size="13" lengthAdjust="spacing" textLength="81" x="942" y="925.5122">SQL UPDATE</text><polygon fill="#A80036" points="946,955.7109,936,959.7109,946,963.7109,942,959.7109" style="stroke:#A80036;stroke-width:1.0;"/><line style="stroke:#A80036;stroke-width:1.0;stroke-dasharray:2.0,2.0;" x1="940" x2="1089" y1="959.7109" y2="959.7109"/><text fill="#000000" font-family="sans-serif" font-size="13" lengthAdjust="spacing" textLength="27" x="952" y="954.645">viod</text><polygon fill="#A80036" points="317,984.8438,307,988.8438,317,992.8438,313,988.8438" style="stroke:#A80036;stroke-width:1.0;"/><line style="stroke:#A80036;stroke-width:1.0;stroke-dasharray:2.0,2.0;" x1="311" x2="929" y1="988.8438" y2="988.8438"/><text fill="#000000" font-family="sans-serif" font-size="13" lengthAdjust="spacing" textLength="27" x="323" y="983.7778">viod</text><line style="stroke:#A80036;stroke-width:1.0;" x1="306" x2="348" y1="1033.1094" y2="1033.1094"/><line style="stroke:#A80036;stroke-width:1.0;" x1="348" x2="348" y1="1033.1094" y2="1046.1094"/><line style="stroke:#A80036;stroke-width:1.0;" x1="307" x2="348" y1="1046.1094" y2="1046.1094"/><polygon fill="#A80036" points="317,1042.1094,307,1046.1094,317,1050.1094,313,1046.1094" style="stroke:#A80036;stroke-width:1.0;"/><text fill="#000000" font-family="sans-serif" font-size="13" lengthAdjust="spacing" textLength="65" x="313" y="1012.9106">&#12513;&#12540;&#12523;&#36865;&#20449;</text><text fill="#000000" font-family="sans-serif" font-size="13" lengthAdjust="spacing" textLength="101" x="313" y="1028.0435">sendMail(Order)</text><path d="M426,1005.3438 L426,1045.3438 L668,1045.3438 L668,1015.3438 L658,1005.3438 L426,1005.3438 " fill="#FBFB77" style="stroke:#A80036;stroke-width:1.0;"/><path d="M658,1005.3438 L658,1015.3438 L668,1015.3438 L658,1005.3438 " fill="#FBFB77" style="stroke:#A80036;stroke-width:1.0;"/><text fill="#000000" font-family="sans-serif" font-size="13" lengthAdjust="spacing" textLength="221" x="432" y="1022.4106">&#12539;&#39015;&#23458;&#12513;&#12540;&#12523;&#12450;&#12489;&#12524;&#12473;&#23451;&#12395;&#12513;&#12540;&#12523;&#36865;&#20449;</text><text fill="#000000" font-family="sans-serif" font-size="13" lengthAdjust="spacing" textLength="156" x="432" y="1037.5435">&#12539;&#27880;&#25991;&#20869;&#23481;&#12392;&#25391;&#36796;&#20808;&#12434;&#36865;&#20449;</text><polygon fill="#A80036" points="176,1071.2422,166,1075.2422,176,1079.2422,172,1075.2422" style="stroke:#A80036;stroke-width:1.0;"/><line style="stroke:#A80036;stroke-width:1.0;stroke-dasharray:2.0,2.0;" x1="170" x2="300" y1="1075.2422" y2="1075.2422"/><text fill="#000000" font-family="sans-serif" font-size="13" lengthAdjust="spacing" textLength="27" x="182" y="1070.1763">viod</text><polygon fill="#A80036" points="45,1100.375,35,1104.375,45,1108.375,41,1104.375" style="stroke:#A80036;stroke-width:1.0;"/><line style="stroke:#A80036;stroke-width:1.0;stroke-dasharray:2.0,2.0;" x1="39" x2="159" y1="1104.375" y2="1104.375"/><text fill="#000000" font-family="sans-serif" font-size="13" lengthAdjust="spacing" textLength="78" x="51" y="1099.3091">&#12522;&#12480;&#12452;&#12524;&#12463;&#12488;</text><polygon fill="#A80036" points="143,1144.6406,153,1148.6406,143,1152.6406,147,1148.6406" style="stroke:#A80036;stroke-width:1.0;"/><line style="stroke:#A80036;stroke-width:1.0;" x1="34" x2="149" y1="1148.6406" y2="1148.6406"/><text fill="#000000" font-family="sans-serif" font-size="13" lengthAdjust="spacing" textLength="26" x="41" y="1128.4419">GET</text><text fill="#000000" font-family="sans-serif" font-size="13" lengthAdjust="spacing" textLength="102" x="41" y="1143.5747">/order/complete</text><line style="stroke:#A80036;stroke-width:1.0;" x1="165" x2="207" y1="1177.7734" y2="1177.7734"/><line style="stroke:#A80036;stroke-width:1.0;" x1="207" x2="207" y1="1177.7734" y2="1190.7734"/><line style="stroke:#A80036;stroke-width:1.0;" x1="166" x2="207" y1="1190.7734" y2="1190.7734"/><polygon fill="#A80036" points="176,1186.7734,166,1190.7734,176,1194.7734,172,1190.7734" style="stroke:#A80036;stroke-width:1.0;"/><text fill="#000000" font-family="sans-serif" font-size="13" lengthAdjust="spacing" textLength="91" x="172" y="1172.7075">&#12475;&#12483;&#12471;&#12519;&#12531;&#35299;&#38500;</text><polygon fill="#A80036" points="45,1215.9063,35,1219.9063,45,1223.9063,41,1219.9063" style="stroke:#A80036;stroke-width:1.0;"/><line style="stroke:#A80036;stroke-width:1.0;stroke-dasharray:2.0,2.0;" x1="39" x2="159" y1="1219.9063" y2="1219.9063"/><text fill="#000000" font-family="sans-serif" font-size="13" lengthAdjust="spacing" textLength="52" x="51" y="1214.8403">&#23436;&#20102;&#30011;&#38754;</text><!--SRC=[XLLTJzDG6BxlhpZXnX52W0Ll225HM8m92ZAuuwQq1sWexT8Mq3lQoXW1WZ68uSCeCBV9OA1BKCQ2F-RGVLpn5tpFETqOe-2oT6sVvxmVp_inSqRHaA6RM33XBYOQuYmofqLPNr2qAJGfge1OYgLYDDRVsVcq1rNoHM_fU_cWuELs475-4xT8d9_4pHFdmjlD2w9awGPg8MwA8USjI3JHd8aDYYZpeeNv4xYo54c9YPg5MeOC6HlzkcOPkgfYWvsHB4CDO4MnCQz8c57CUIc0mI1T3a16S4mt5OZl7UCOyDWLG1l0bgYe0UJmNVAmeSjpaXMrT6acWDqjoA8bJeWcHWFFwKjvGX2U892kShHUthoiVZaGg1IelOybYzhQK0zw4HaTrpfq6aV7f6xC2WogKNf0yYmLraqGEtVzvwHIo1BdOsK_KquMwbHkjHqrLElM9OJWvTQk2_47GnWUYjx6WDzYQSx2WgP3vGnbQjeI47nAUqV4FI7E6N6IjFZsDs8V4lihSLOOtWXoHn2cjrmWzhQ0DHbHS_LuTHcyQdWXL4_EYozvkGiuGfmCDU_6YNFeN-sibrmfRUosylEza2Wpm6fNjmczmRCHPPaX8NPjRKw4k9VUNiOhP4kVpcY86rlUrMTYmpV5ySL5BYAnqyHU9yugiLUve3NyffWeERyggNnvvptDstM9StfJh0bnIOlb_c0ZSWu86veqF7hBgVA7-AqSD6I8dFKEZzt4AlORR50nhH2zzFfjrzSgS2OSaISuF_fc44KZWv7-KH-ZuW38Ug7nC3FPnpnIYc_e4HQl4dCYJMDfXa7ZMkW-lRLk5GumanEwhc9H2r2UbGGQ6RIlBcyGEyDB0NMeQLiwtQmKNLuFujh4INDv0rNhuW4g6hIqLQit1vf4Ulaw6XaPzR56aUOLs1oDidGrlVTTXU-xuck3Emm_uZ3ykCDmi4E_8-PYi5Hmg57n1_fWR7ZWsMWae0_kUUo-VOzgBkaFB1jtdyrZjhfeN__T7uTiDVaLPFdmC5Ntqrxke7wGE72_GjnZ-lUGsuNXRR9PErVAPqfRo_xSsvdIscdb2iOk0RtW4- -k3HeyYxMU4bjaz3LV0UqiVjXIYsmB7TF9SnF_sRYIFXjJSSDggc_TIzPt_kHMqeVLxQHFkhDm6rVhFm00]--></g></svg>