<?xml version="1.0" encoding="UTF-8" standalone="no"?><svg xmlns="http://www.w3.org/2000/svg" xmlns:xlink="http://www.w3.org/1999/xlink" contentScriptType="application/ecmascript" contentStyleType="text/css" height="527px" preserveAspectRatio="none" style="width:676px;height:527px;background:#FFFFFF;" version="1.1" viewBox="0 0 676 527" width="676px" zoomAndPan="magnify"><defs/><g><text fill="#000000" font-family="sans-serif" font-size="18" lengthAdjust="spacing" textLength="139" x="262" y="17.4023">entityパッケージ</text><!--MD5=[bc1b6a63fef26b0dbe93a6a9270e3b0e]
cluster entity--><polygon fill="#FFFFFF" points="16,27.1992,64,27.1992,71,49.6875,659,49.6875,659,520.1992,16,520.1992,16,27.1992" style="stroke:#000000;stroke-width:1.5;"/><line style="stroke:#000000;stroke-width:1.5;" x1="16" x2="71" y1="49.6875" y2="49.6875"/><text fill="#000000" font-family="sans-serif" font-size="14" font-weight="bold" lengthAdjust="spacing" textLength="42" x="20" y="42.7344">entity</text><!--MD5=[72136138052d025cffdce3c22fbd185f]
class Product--><rect codeLine="6" fill="#FEFECE" height="123.9961" id="Product" style="stroke:#A80036;stroke-width:1.5;" width="212" x="32" y="380.1992"/><ellipse cx="111.25" cy="399.332" fill="#ADD1B2" rx="11" ry="11" style="stroke:#A80036;stroke-width:1.0;"/><path d="M113.7231,405.4751 Q113.1421,405.7739 112.5029,405.9233 Q111.8638,406.0728 111.1582,406.0728 Q108.6514,406.0728 107.3315,404.4209 Q106.0117,402.769 106.0117,399.6479 Q106.0117,396.5186 107.3315,394.8667 Q108.6514,393.2148 111.1582,393.2148 Q111.8638,393.2148 112.5112,393.3643 Q113.1587,393.5137 113.7231,393.8125 L113.7231,396.5352 Q113.0923,395.9541 112.4988,395.6843 Q111.9053,395.4146 111.2744,395.4146 Q109.9297,395.4146 109.2449,396.4812 Q108.5601,397.5479 108.5601,399.6479 Q108.5601,401.7397 109.2449,402.8064 Q109.9297,403.873 111.2744,403.873 Q111.9053,403.873 112.4988,403.6033 Q113.0923,403.3335 113.7231,402.7524 Z " fill="#000000"/><text fill="#000000" font-family="sans-serif" font-size="12" font-style="italic" lengthAdjust="spacing" textLength="49" x="129.75" y="396.8008">«@Data»</text><text fill="#000000" font-family="sans-serif" font-size="12" lengthAdjust="spacing" textLength="44" x="132.25" y="410.9336">Product</text><line style="stroke:#A80036;stroke-width:1.5;" x1="33" x2="243" y1="418.4648" y2="418.4648"/><rect fill="none" height="6" style="stroke:#C82930;stroke-width:1.0;" width="6" x="40" y="426.4648"/><text fill="#000000" font-family="sans-serif" font-size="11" lengthAdjust="spacing" textLength="51" x="52" y="433.0996">id:Integer</text><rect fill="none" height="6" style="stroke:#C82930;stroke-width:1.0;" width="6" x="40" y="439.4199"/><text fill="#000000" font-family="sans-serif" font-size="11" lengthAdjust="spacing" textLength="64" x="52" y="446.0547">name:String</text><rect fill="none" height="6" style="stroke:#C82930;stroke-width:1.0;" width="6" x="40" y="452.375"/><text fill="#000000" font-family="sans-serif" font-size="11" lengthAdjust="spacing" textLength="68" x="52" y="459.0098">price:Integer</text><rect fill="none" height="6" style="stroke:#C82930;stroke-width:1.0;" width="6" x="40" y="465.3301"/><text fill="#000000" font-family="sans-serif" font-size="11" lengthAdjust="spacing" textLength="83" x="52" y="471.9648">imageUrl:String</text><rect fill="none" height="6" style="stroke:#C82930;stroke-width:1.0;" width="6" x="40" y="478.2852"/><text fill="#000000" font-family="sans-serif" font-size="11" lengthAdjust="spacing" textLength="186" x="52" y="484.9199">productCategory:ProductCategory</text><rect fill="none" height="6" style="stroke:#C82930;stroke-width:1.0;" width="6" x="40" y="491.2402"/><text fill="#000000" font-family="sans-serif" font-size="11" lengthAdjust="spacing" textLength="95" x="52" y="497.875">deleteFlag:Integer</text><!--MD5=[a1db4bf20df23ac2cd9366d22a9e2860]
class ProductCategory--><rect codeLine="14" fill="#FEFECE" height="72.1758" id="ProductCategory" style="stroke:#A80036;stroke-width:1.5;" width="127" x="74.5" y="273.1992"/><ellipse cx="89.5" cy="292.332" fill="#ADD1B2" rx="11" ry="11" style="stroke:#A80036;stroke-width:1.0;"/><path d="M91.9731,298.4751 Q91.3921,298.7739 90.7529,298.9233 Q90.1138,299.0728 89.4082,299.0728 Q86.9014,299.0728 85.5815,297.4209 Q84.2617,295.769 84.2617,292.6479 Q84.2617,289.5186 85.5815,287.8667 Q86.9014,286.2148 89.4082,286.2148 Q90.1138,286.2148 90.7612,286.3643 Q91.4087,286.5137 91.9731,286.8125 L91.9731,289.5352 Q91.3423,288.9541 90.7488,288.6843 Q90.1553,288.4146 89.5244,288.4146 Q88.1797,288.4146 87.4949,289.4812 Q86.8101,290.5479 86.8101,292.6479 Q86.8101,294.7397 87.4949,295.8064 Q88.1797,296.873 89.5244,296.873 Q90.1553,296.873 90.7488,296.6033 Q91.3423,296.3335 91.9731,295.7524 Z " fill="#000000"/><text fill="#000000" font-family="sans-serif" font-size="12" font-style="italic" lengthAdjust="spacing" textLength="49" x="126.5" y="289.8008">«@Data»</text><text fill="#000000" font-family="sans-serif" font-size="12" lengthAdjust="spacing" textLength="95" x="103.5" y="303.9336">ProductCategory</text><line style="stroke:#A80036;stroke-width:1.5;" x1="75.5" x2="200.5" y1="311.4648" y2="311.4648"/><rect fill="none" height="6" style="stroke:#C82930;stroke-width:1.0;" width="6" x="82.5" y="319.4648"/><text fill="#000000" font-family="sans-serif" font-size="11" lengthAdjust="spacing" textLength="51" x="94.5" y="326.0996">id:Integer</text><rect fill="none" height="6" style="stroke:#C82930;stroke-width:1.0;" width="6" x="82.5" y="332.4199"/><text fill="#000000" font-family="sans-serif" font-size="11" lengthAdjust="spacing" textLength="64" x="94.5" y="339.0547">name:String</text><!--MD5=[6c7bb023babad207e2c8d90c7f82e89e]
class ProductStock--><rect codeLine="18" fill="#FEFECE" height="85.1309" id="ProductStock" style="stroke:#A80036;stroke-width:1.5;" width="120" x="78" y="152.6992"/><ellipse cx="99.3" cy="171.832" fill="#ADD1B2" rx="11" ry="11" style="stroke:#A80036;stroke-width:1.0;"/><path d="M101.7731,177.9751 Q101.1921,178.2739 100.5529,178.4233 Q99.9138,178.5728 99.2082,178.5728 Q96.7014,178.5728 95.3815,176.9209 Q94.0617,175.269 94.0617,172.1479 Q94.0617,169.0186 95.3815,167.3667 Q96.7014,165.7148 99.2082,165.7148 Q99.9138,165.7148 100.5612,165.8643 Q101.2087,166.0137 101.7731,166.3125 L101.7731,169.0352 Q101.1423,168.4541 100.5488,168.1843 Q99.9553,167.9146 99.3244,167.9146 Q97.9797,167.9146 97.2949,168.9812 Q96.6101,170.0479 96.6101,172.1479 Q96.6101,174.2397 97.2949,175.3064 Q97.9797,176.373 99.3244,176.373 Q99.9553,176.373 100.5488,176.1033 Q101.1423,175.8335 101.7731,175.2524 Z " fill="#000000"/><text fill="#000000" font-family="sans-serif" font-size="12" font-style="italic" lengthAdjust="spacing" textLength="49" x="127.2" y="169.3008">«@Data»</text><text fill="#000000" font-family="sans-serif" font-size="12" lengthAdjust="spacing" textLength="74" x="114.7" y="183.4336">ProductStock</text><line style="stroke:#A80036;stroke-width:1.5;" x1="79" x2="197" y1="190.9648" y2="190.9648"/><rect fill="none" height="6" style="stroke:#C82930;stroke-width:1.0;" width="6" x="86" y="198.9648"/><text fill="#000000" font-family="sans-serif" font-size="11" lengthAdjust="spacing" textLength="51" x="98" y="205.5996">id:Integer</text><rect fill="none" height="6" style="stroke:#C82930;stroke-width:1.0;" width="6" x="86" y="211.9199"/><text fill="#000000" font-family="sans-serif" font-size="11" lengthAdjust="spacing" textLength="85" x="98" y="218.5547">quantity:Integer</text><rect fill="none" height="6" style="stroke:#C82930;stroke-width:1.0;" width="6" x="86" y="224.875"/><text fill="#000000" font-family="sans-serif" font-size="11" lengthAdjust="spacing" textLength="94" x="98" y="231.5098">productId:Integer</text><!--MD5=[0d3a75816efc3d2df3c0db87d885f403]
class EmployeeAccount--><rect codeLine="23" fill="#FEFECE" height="98.0859" id="EmployeeAccount" style="stroke:#A80036;stroke-width:1.5;" width="133" x="307" y="406.1992"/><ellipse cx="322" cy="425.332" fill="#ADD1B2" rx="11" ry="11" style="stroke:#A80036;stroke-width:1.0;"/><path d="M324.4731,431.4751 Q323.8921,431.7739 323.2529,431.9233 Q322.6138,432.0728 321.9082,432.0728 Q319.4014,432.0728 318.0815,430.4209 Q316.7617,428.769 316.7617,425.6479 Q316.7617,422.5186 318.0815,420.8667 Q319.4014,419.2148 321.9082,419.2148 Q322.6138,419.2148 323.2612,419.3643 Q323.9087,419.5137 324.4731,419.8125 L324.4731,422.5352 Q323.8423,421.9541 323.2488,421.6843 Q322.6553,421.4146 322.0244,421.4146 Q320.6797,421.4146 319.9949,422.4812 Q319.3101,423.5479 319.3101,425.6479 Q319.3101,427.7397 319.9949,428.8064 Q320.6797,429.873 322.0244,429.873 Q322.6553,429.873 323.2488,429.6033 Q323.8423,429.3335 324.4731,428.7524 Z " fill="#000000"/><text fill="#000000" font-family="sans-serif" font-size="12" font-style="italic" lengthAdjust="spacing" textLength="49" x="362" y="422.8008">«@Data»</text><text fill="#000000" font-family="sans-serif" font-size="12" lengthAdjust="spacing" textLength="101" x="336" y="436.9336">EmployeeAccount</text><line style="stroke:#A80036;stroke-width:1.5;" x1="308" x2="439" y1="444.4648" y2="444.4648"/><rect fill="none" height="6" style="stroke:#C82930;stroke-width:1.0;" width="6" x="315" y="452.4648"/><text fill="#000000" font-family="sans-serif" font-size="11" lengthAdjust="spacing" textLength="51" x="327" y="459.0996">id:Integer</text><rect fill="none" height="6" style="stroke:#C82930;stroke-width:1.0;" width="6" x="315" y="465.4199"/><text fill="#000000" font-family="sans-serif" font-size="11" lengthAdjust="spacing" textLength="64" x="327" y="472.0547">name:String</text><rect fill="none" height="6" style="stroke:#C82930;stroke-width:1.0;" width="6" x="315" y="478.375"/><text fill="#000000" font-family="sans-serif" font-size="11" lengthAdjust="spacing" textLength="87" x="327" y="485.0098">password:String</text><rect fill="none" height="6" style="stroke:#C82930;stroke-width:1.0;" width="6" x="315" y="491.3301"/><text fill="#000000" font-family="sans-serif" font-size="11" lengthAdjust="spacing" textLength="102" x="327" y="497.9648">employeeId:Integer</text><!--MD5=[7421f545a0d8420c5bec41e74b387d9c]
class Employee--><rect codeLine="29" fill="#FEFECE" height="98.0859" id="Employee" style="stroke:#A80036;stroke-width:1.5;" width="139" x="304" y="273.1992"/><ellipse cx="341.95" cy="292.332" fill="#ADD1B2" rx="11" ry="11" style="stroke:#A80036;stroke-width:1.0;"/><path d="M344.4231,298.4751 Q343.8421,298.7739 343.2029,298.9233 Q342.5638,299.0728 341.8582,299.0728 Q339.3514,299.0728 338.0315,297.4209 Q336.7117,295.769 336.7117,292.6479 Q336.7117,289.5186 338.0315,287.8667 Q339.3514,286.2148 341.8582,286.2148 Q342.5638,286.2148 343.2112,286.3643 Q343.8587,286.5137 344.4231,286.8125 L344.4231,289.5352 Q343.7923,288.9541 343.1988,288.6843 Q342.6053,288.4146 341.9744,288.4146 Q340.6297,288.4146 339.9449,289.4812 Q339.2601,290.5479 339.2601,292.6479 Q339.2601,294.7397 339.9449,295.8064 Q340.6297,296.873 341.9744,296.873 Q342.6053,296.873 343.1988,296.6033 Q343.7923,296.3335 344.4231,295.7524 Z " fill="#000000"/><text fill="#000000" font-family="sans-serif" font-size="12" font-style="italic" lengthAdjust="spacing" textLength="49" x="364.55" y="289.8008">«@Data»</text><text fill="#000000" font-family="sans-serif" font-size="12" lengthAdjust="spacing" textLength="56" x="361.05" y="303.9336">Employee</text><line style="stroke:#A80036;stroke-width:1.5;" x1="305" x2="442" y1="311.4648" y2="311.4648"/><rect fill="none" height="6" style="stroke:#C82930;stroke-width:1.0;" width="6" x="312" y="319.4648"/><text fill="#000000" font-family="sans-serif" font-size="11" lengthAdjust="spacing" textLength="51" x="324" y="326.0996">id:Integer</text><rect fill="none" height="6" style="stroke:#C82930;stroke-width:1.0;" width="6" x="312" y="332.4199"/><text fill="#000000" font-family="sans-serif" font-size="11" lengthAdjust="spacing" textLength="64" x="324" y="339.0547">name:String</text><rect fill="none" height="6" style="stroke:#C82930;stroke-width:1.0;" width="6" x="312" y="345.375"/><text fill="#000000" font-family="sans-serif" font-size="11" lengthAdjust="spacing" textLength="90" x="324" y="352.0098">nameKana:String</text><rect fill="none" height="6" style="stroke:#C82930;stroke-width:1.0;" width="6" x="312" y="358.3301"/><text fill="#000000" font-family="sans-serif" font-size="11" lengthAdjust="spacing" textLength="113" x="324" y="364.9648">departmentId:Integer</text><!--MD5=[2ce0c9fb7f55b1e256ab28a8ea6b25ec]
class Customer--><rect codeLine="35" fill="#FEFECE" height="175.8164" id="Customer" style="stroke:#A80036;stroke-width:1.5;" width="138" x="304.5" y="62.1992"/><ellipse cx="342.45" cy="81.332" fill="#ADD1B2" rx="11" ry="11" style="stroke:#A80036;stroke-width:1.0;"/><path d="M344.9231,87.4751 Q344.3421,87.7739 343.7029,87.9233 Q343.0638,88.0728 342.3582,88.0728 Q339.8514,88.0728 338.5315,86.4209 Q337.2117,84.769 337.2117,81.6479 Q337.2117,78.5186 338.5315,76.8667 Q339.8514,75.2148 342.3582,75.2148 Q343.0638,75.2148 343.7112,75.3643 Q344.3587,75.5137 344.9231,75.8125 L344.9231,78.5352 Q344.2923,77.9541 343.6988,77.6843 Q343.1053,77.4146 342.4744,77.4146 Q341.1297,77.4146 340.4449,78.4812 Q339.7601,79.5479 339.7601,81.6479 Q339.7601,83.7397 340.4449,84.8064 Q341.1297,85.873 342.4744,85.873 Q343.1053,85.873 343.6988,85.6033 Q344.2923,85.3335 344.9231,84.7524 Z " fill="#000000"/><text fill="#000000" font-family="sans-serif" font-size="12" font-style="italic" lengthAdjust="spacing" textLength="49" x="364.55" y="78.8008">«@Data»</text><text fill="#000000" font-family="sans-serif" font-size="12" lengthAdjust="spacing" textLength="55" x="361.55" y="92.9336">Customer</text><line style="stroke:#A80036;stroke-width:1.5;" x1="305.5" x2="441.5" y1="100.4648" y2="100.4648"/><rect fill="none" height="6" style="stroke:#C82930;stroke-width:1.0;" width="6" x="312.5" y="108.4648"/><text fill="#000000" font-family="sans-serif" font-size="11" lengthAdjust="spacing" textLength="51" x="324.5" y="115.0996">id:Integer</text><rect fill="none" height="6" style="stroke:#C82930;stroke-width:1.0;" width="6" x="312.5" y="121.4199"/><text fill="#000000" font-family="sans-serif" font-size="11" lengthAdjust="spacing" textLength="64" x="324.5" y="128.0547">name:String</text><rect fill="none" height="6" style="stroke:#C82930;stroke-width:1.0;" width="6" x="312.5" y="134.375"/><text fill="#000000" font-family="sans-serif" font-size="11" lengthAdjust="spacing" textLength="90" x="324.5" y="141.0098">nameKana:String</text><rect fill="none" height="6" style="stroke:#C82930;stroke-width:1.0;" width="6" x="312.5" y="147.3301"/><text fill="#000000" font-family="sans-serif" font-size="11" lengthAdjust="spacing" textLength="85" x="324.5" y="153.9648">address1:String</text><rect fill="none" height="6" style="stroke:#C82930;stroke-width:1.0;" width="6" x="312.5" y="160.2852"/><text fill="#000000" font-family="sans-serif" font-size="11" lengthAdjust="spacing" textLength="85" x="324.5" y="166.9199">address2:String</text><rect fill="none" height="6" style="stroke:#C82930;stroke-width:1.0;" width="6" x="312.5" y="173.2402"/><text fill="#000000" font-family="sans-serif" font-size="11" lengthAdjust="spacing" textLength="112" x="324.5" y="179.875">phoneNumber:String</text><rect fill="none" height="6" style="stroke:#C82930;stroke-width:1.0;" width="6" x="312.5" y="186.1953"/><text fill="#000000" font-family="sans-serif" font-size="11" lengthAdjust="spacing" textLength="102" x="324.5" y="192.8301">mailAddress:String</text><rect fill="none" height="6" style="stroke:#C82930;stroke-width:1.0;" width="6" x="312.5" y="199.1504"/><text fill="#000000" font-family="sans-serif" font-size="11" lengthAdjust="spacing" textLength="88" x="324.5" y="205.7852">username:String</text><rect fill="none" height="6" style="stroke:#C82930;stroke-width:1.0;" width="6" x="312.5" y="212.1055"/><text fill="#000000" font-family="sans-serif" font-size="11" lengthAdjust="spacing" textLength="87" x="324.5" y="218.7402">password:String</text><rect fill="none" height="6" style="stroke:#C82930;stroke-width:1.0;" width="6" x="312.5" y="225.0605"/><text fill="#000000" font-family="sans-serif" font-size="11" lengthAdjust="spacing" textLength="93" x="324.5" y="231.6953">Date registerDate</text><!--MD5=[cf4d6237fcae255cd2e1656cf84a30e2]
class Order--><rect codeLine="47" fill="#FEFECE" height="111.041" id="Order" style="stroke:#A80036;stroke-width:1.5;" width="140" x="503" y="392.6992"/><ellipse cx="546.35" cy="411.832" fill="#ADD1B2" rx="11" ry="11" style="stroke:#A80036;stroke-width:1.0;"/><path d="M548.8231,417.9751 Q548.2421,418.2739 547.6029,418.4233 Q546.9638,418.5728 546.2582,418.5728 Q543.7514,418.5728 542.4315,416.9209 Q541.1117,415.269 541.1117,412.1479 Q541.1117,409.0186 542.4315,407.3667 Q543.7514,405.7148 546.2582,405.7148 Q546.9638,405.7148 547.6112,405.8643 Q548.2587,406.0137 548.8231,406.3125 L548.8231,409.0352 Q548.1923,408.4541 547.5988,408.1843 Q547.0053,407.9146 546.3744,407.9146 Q545.0297,407.9146 544.3449,408.9812 Q543.6601,410.0479 543.6601,412.1479 Q543.6601,414.2397 544.3449,415.3064 Q545.0297,416.373 546.3744,416.373 Q547.0053,416.373 547.5988,416.1033 Q548.1923,415.8335 548.8231,415.2524 Z " fill="#000000"/><text fill="#000000" font-family="sans-serif" font-size="12" font-style="italic" lengthAdjust="spacing" textLength="49" x="564.65" y="409.3008">«@Data»</text><text fill="#000000" font-family="sans-serif" font-size="12" lengthAdjust="spacing" textLength="34" x="572.15" y="423.4336">Order</text><line style="stroke:#A80036;stroke-width:1.5;" x1="504" x2="642" y1="430.9648" y2="430.9648"/><rect fill="none" height="6" style="stroke:#C82930;stroke-width:1.0;" width="6" x="511" y="438.9648"/><text fill="#000000" font-family="sans-serif" font-size="11" lengthAdjust="spacing" textLength="51" x="523" y="445.5996">id:Integer</text><rect fill="none" height="6" style="stroke:#C82930;stroke-width:1.0;" width="6" x="511" y="451.9199"/><text fill="#000000" font-family="sans-serif" font-size="11" lengthAdjust="spacing" textLength="102" x="523" y="458.5547">customerId:Integer</text><rect fill="none" height="6" style="stroke:#C82930;stroke-width:1.0;" width="6" x="511" y="464.875"/><text fill="#000000" font-family="sans-serif" font-size="11" lengthAdjust="spacing" textLength="114" x="523" y="471.5098">orderStatusId:Integer</text><rect fill="none" height="6" style="stroke:#C82930;stroke-width:1.0;" width="6" x="511" y="477.8301"/><text fill="#000000" font-family="sans-serif" font-size="11" lengthAdjust="spacing" textLength="81" x="523" y="484.4648">orderDate:Date</text><rect fill="none" height="6" style="stroke:#C82930;stroke-width:1.0;" width="6" x="511" y="490.7852"/><text fill="#000000" font-family="sans-serif" font-size="11" lengthAdjust="spacing" textLength="109" x="523" y="497.4199">amountTotal:Integer</text><!--MD5=[de626c0cb0f072ae90ffb25031374c19]
class OrderStatus--><rect codeLine="54" fill="#FEFECE" height="72.1758" id="OrderStatus" style="stroke:#A80036;stroke-width:1.5;" width="100" x="523" y="285.1992"/><ellipse cx="538" cy="304.332" fill="#ADD1B2" rx="11" ry="11" style="stroke:#A80036;stroke-width:1.0;"/><path d="M540.4731,310.4751 Q539.8921,310.7739 539.2529,310.9233 Q538.6138,311.0728 537.9082,311.0728 Q535.4014,311.0728 534.0815,309.4209 Q532.7617,307.769 532.7617,304.6479 Q532.7617,301.5186 534.0815,299.8667 Q535.4014,298.2148 537.9082,298.2148 Q538.6138,298.2148 539.2612,298.3643 Q539.9087,298.5137 540.4731,298.8125 L540.4731,301.5352 Q539.8423,300.9541 539.2488,300.6843 Q538.6553,300.4146 538.0244,300.4146 Q536.6797,300.4146 535.9949,301.4812 Q535.3101,302.5479 535.3101,304.6479 Q535.3101,306.7397 535.9949,307.8064 Q536.6797,308.873 538.0244,308.873 Q538.6553,308.873 539.2488,308.6033 Q539.8423,308.3335 540.4731,307.7524 Z " fill="#000000"/><text fill="#000000" font-family="sans-serif" font-size="12" font-style="italic" lengthAdjust="spacing" textLength="49" x="561.5" y="301.8008">«@Data»</text><text fill="#000000" font-family="sans-serif" font-size="12" lengthAdjust="spacing" textLength="68" x="552" y="315.9336">OrderStatus</text><line style="stroke:#A80036;stroke-width:1.5;" x1="524" x2="622" y1="323.4648" y2="323.4648"/><rect fill="none" height="6" style="stroke:#C82930;stroke-width:1.0;" width="6" x="531" y="331.4648"/><text fill="#000000" font-family="sans-serif" font-size="11" lengthAdjust="spacing" textLength="51" x="543" y="338.0996">id:Integer</text><rect fill="none" height="6" style="stroke:#C82930;stroke-width:1.0;" width="6" x="531" y="344.4199"/><text fill="#000000" font-family="sans-serif" font-size="11" lengthAdjust="spacing" textLength="64" x="543" y="351.0547">name:String</text><!--MD5=[a894570104858a48d10e650672270519]
class OrderDetail--><rect codeLine="58" fill="#FEFECE" height="111.041" id="OrderDetail" style="stroke:#A80036;stroke-width:1.5;" width="128" x="509" y="138.6992"/><ellipse cx="537.05" cy="157.832" fill="#ADD1B2" rx="11" ry="11" style="stroke:#A80036;stroke-width:1.0;"/><path d="M539.5231,163.9751 Q538.9421,164.2739 538.3029,164.4233 Q537.6638,164.5728 536.9582,164.5728 Q534.4514,164.5728 533.1315,162.9209 Q531.8117,161.269 531.8117,158.1479 Q531.8117,155.0186 533.1315,153.3667 Q534.4514,151.7148 536.9582,151.7148 Q537.6638,151.7148 538.3112,151.8643 Q538.9587,152.0137 539.5231,152.3125 L539.5231,155.0352 Q538.8923,154.4541 538.2988,154.1843 Q537.7053,153.9146 537.0744,153.9146 Q535.7297,153.9146 535.0449,154.9812 Q534.3601,156.0479 534.3601,158.1479 Q534.3601,160.2397 535.0449,161.3064 Q535.7297,162.373 537.0744,162.373 Q537.7053,162.373 538.2988,162.1033 Q538.8923,161.8335 539.5231,161.2524 Z " fill="#000000"/><text fill="#000000" font-family="sans-serif" font-size="12" font-style="italic" lengthAdjust="spacing" textLength="49" x="562.95" y="155.3008">«@Data»</text><text fill="#000000" font-family="sans-serif" font-size="12" lengthAdjust="spacing" textLength="67" x="553.95" y="169.4336">OrderDetail</text><line style="stroke:#A80036;stroke-width:1.5;" x1="510" x2="636" y1="176.9648" y2="176.9648"/><rect fill="none" height="6" style="stroke:#C82930;stroke-width:1.0;" width="6" x="517" y="184.9648"/><text fill="#000000" font-family="sans-serif" font-size="11" lengthAdjust="spacing" textLength="51" x="529" y="191.5996">id:Integer</text><rect fill="none" height="6" style="stroke:#C82930;stroke-width:1.0;" width="6" x="517" y="197.9199"/><text fill="#000000" font-family="sans-serif" font-size="11" lengthAdjust="spacing" textLength="81" x="529" y="204.5547">orderId:Integer</text><rect fill="none" height="6" style="stroke:#C82930;stroke-width:1.0;" width="6" x="517" y="210.875"/><text fill="#000000" font-family="sans-serif" font-size="11" lengthAdjust="spacing" textLength="94" x="529" y="217.5098">productId:Integer</text><rect fill="none" height="6" style="stroke:#C82930;stroke-width:1.0;" width="6" x="517" y="223.8301"/><text fill="#000000" font-family="sans-serif" font-size="11" lengthAdjust="spacing" textLength="102" x="529" y="230.4648">customerId:Integer</text><rect fill="none" height="6" style="stroke:#C82930;stroke-width:1.0;" width="6" x="517" y="236.7852"/><text fill="#000000" font-family="sans-serif" font-size="11" lengthAdjust="spacing" textLength="72" x="529" y="243.4199">count:Integer</text><!--MD5=[5c0c66984b48f13f6f1fd84ba8e61151]
link Product to ProductCategory--><!--MD5=[ad88fe5c5e6cc803d339a761a659a0c8]
link ProductCategory to ProductStock--><!--MD5=[bc97695af3ce2ba4c0a3701258762952]
link Product to EmployeeAccount--><!--MD5=[8bdcc8c9d90fcaacf990725e33ad4337]
link EmployeeAccount to Employee--><!--MD5=[9e9a403e077a55d389e4f31d1b1a3cee]
link Employee to Customer--><!--MD5=[45e32ec2c6c686c6a75ef50b1b598f3a]
link EmployeeAccount to Order--><!--MD5=[d7a12ed011a57068e70e07d9626e1fb6]
link Order to OrderStatus--><!--MD5=[3a6b68f0038eac03c8a6e7785bb2f7ee]
link OrderStatus to OrderDetail--><!--MD5=[2e2f216a47823497ddc7fcb1d4a949ce]
@startuml
skin rose
skinparam shadowing false
hide empty methods
hide empty fields

title entityパッケージ
left to right direction

package entity{
    class Product<<@Data>>{
        - id:Integer 
        - name:String 
        - price:Integer
        - imageUrl:String
        - productCategory:ProductCategory 
        - deleteFlag:Integer
    }
    class ProductCategory<<@Data>>{
        - id:Integer
        - name:String
    }
    class ProductStock<<@Data>>{
        - id:Integer
        - quantity:Integer
        - productId:Integer
    }
    class EmployeeAccount<<@Data>>{
        - id:Integer
        - name:String
        - password:String
        - employeeId:Integer
    }
    class Employee<<@Data>>{
        - id:Integer
        - name:String
        - nameKana:String
        - departmentId:Integer
    }
    class Customer<<@Data>>{
        - id:Integer
        - name:String
        - nameKana:String
        - address1:String
        - address2:String
        - phoneNumber:String
        - mailAddress:String
        - username:String
        - password:String
        - Date registerDate
    }
    class Order<<@Data>>{
        - id:Integer
        - customerId:Integer
        - orderStatusId:Integer
        - orderDate:Date
        - amountTotal:Integer
    }
    class OrderStatus<<@Data>>{
        - id:Integer
        - name:String
    }
    class OrderDetail<<@Data>>{
        - id:Integer
        - orderId:Integer
        - productId:Integer
        - customerId:Integer
        - count:Integer
    }
}
@enduml

PlantUML version 1.2022.0(Wed Jan 12 01:16:42 JST 2022)
(GPL source distribution)
Java Runtime: OpenJDK Runtime Environment
JVM: OpenJDK 64-Bit Server VM
Default Encoding: UTF-8
Language: ja
Country: JP
--></g></svg>