<?xml version="1.0" encoding="us-ascii" standalone="no"?><svg xmlns="http://www.w3.org/2000/svg" xmlns:xlink="http://www.w3.org/1999/xlink" contentStyleType="text/css" height="1056px" preserveAspectRatio="none" style="width:784px;height:1056px;background:#FFFFFF;" version="1.1" viewBox="0 0 784 1056" width="784px" zoomAndPan="magnify"><defs/><g><text fill="#000000" font-family="sans-serif" font-size="14" font-weight="bold" lengthAdjust="spacing" textLength="217" x="277" y="27.9951">UC004: &#21830;&#21697;&#36092;&#20837; &#12471;&#12540;&#12465;&#12531;&#12473;&#22259;</text><rect fill="#FFFFFF" height="246.0625" style="stroke:#A80036;stroke-width:1.0;" width="10" x="183" y="167.8594"/><rect fill="#FFFFFF" height="132.5313" style="stroke:#A80036;stroke-width:1.0;" width="10" x="183" y="503.3203"/><rect fill="#FFFFFF" height="276.3281" style="stroke:#A80036;stroke-width:1.0;" width="10" x="183" y="680.1172"/><rect fill="#FFFFFF" height="71.2656" style="stroke:#A80036;stroke-width:1.0;" width="10" x="337" y="535.4531"/><rect fill="#FFFFFF" height="145.6641" style="stroke:#A80036;stroke-width:1.0;" width="10" x="465" y="196.9922"/><rect fill="#FFFFFF" height="160.7969" style="stroke:#A80036;stroke-width:1.0;" width="10" x="465" y="724.3828"/><rect fill="#FFFFFF" height="87.3984" style="stroke:#A80036;stroke-width:1.0;" width="10" x="619" y="226.125"/><rect fill="#FFFFFF" height="87.3984" style="stroke:#A80036;stroke-width:1.0;" width="10" x="619" y="768.6484"/><rect fill="#FFFFFF" height="29.1328" style="stroke:#A80036;stroke-width:1.0;" width="10" x="744" y="255.2578"/><rect fill="#FFFFFF" height="29.1328" style="stroke:#A80036;stroke-width:1.0;" width="10" x="744" y="797.7813"/><line style="stroke:#A80036;stroke-width:1.0;stroke-dasharray:5.0,5.0;" x1="29" x2="29" y1="121.5938" y2="974.4453"/><line style="stroke:#A80036;stroke-width:1.0;stroke-dasharray:5.0,5.0;" x1="187.5" x2="187.5" y1="121.5938" y2="974.4453"/><line style="stroke:#A80036;stroke-width:1.0;stroke-dasharray:5.0,5.0;" x1="341.5" x2="341.5" y1="121.5938" y2="974.4453"/><line style="stroke:#A80036;stroke-width:1.0;stroke-dasharray:5.0,5.0;" x1="469.5" x2="469.5" y1="121.5938" y2="974.4453"/><line style="stroke:#A80036;stroke-width:1.0;stroke-dasharray:5.0,5.0;" x1="623.5" x2="623.5" y1="121.5938" y2="974.4453"/><line style="stroke:#A80036;stroke-width:1.0;stroke-dasharray:5.0,5.0;" x1="749" x2="749" y1="121.5938" y2="974.4453"/><text fill="#000000" font-family="sans-serif" font-size="14" lengthAdjust="spacing" textLength="42" x="5" y="118.292">&#12518;&#12540;&#12470;</text><ellipse cx="29" cy="52.2969" fill="#FEFECE" rx="8" ry="8" style="stroke:#A80036;stroke-width:2.0;"/><path d="M29,60.2969 L29,87.2969 M16,68.2969 L42,68.2969 M29,87.2969 L16,102.2969 M29,87.2969 L42,102.2969 " fill="none" style="stroke:#A80036;stroke-width:2.0;"/><text fill="#000000" font-family="sans-serif" font-size="14" lengthAdjust="spacing" textLength="42" x="5" y="986.4404">&#12518;&#12540;&#12470;</text><ellipse cx="29" cy="999.7422" fill="#FEFECE" rx="8" ry="8" style="stroke:#A80036;stroke-width:2.0;"/><path d="M29,1007.7422 L29,1034.7422 M16,1015.7422 L42,1015.7422 M29,1034.7422 L16,1049.7422 M29,1034.7422 L42,1049.7422 " fill="none" style="stroke:#A80036;stroke-width:2.0;"/><rect fill="#FEFECE" height="30.2969" style="stroke:#A80036;stroke-width:1.5;" width="151" x="112.5" y="90.2969"/><text fill="#000000" font-family="sans-serif" font-size="14" lengthAdjust="spacing" textLength="137" x="119.5" y="110.292">PurchaseController</text><rect fill="#FEFECE" height="30.2969" style="stroke:#A80036;stroke-width:1.5;" width="151" x="112.5" y="973.4453"/><text fill="#000000" font-family="sans-serif" font-size="14" lengthAdjust="spacing" textLength="137" x="119.5" y="993.4404">PurchaseController</text><rect fill="#FEFECE" height="30.2969" style="stroke:#A80036;stroke-width:1.5;" width="101" x="291.5" y="90.2969"/><text fill="#000000" font-family="sans-serif" font-size="14" lengthAdjust="spacing" textLength="87" x="298.5" y="110.292">ProductCart</text><rect fill="#FEFECE" height="30.2969" style="stroke:#A80036;stroke-width:1.5;" width="101" x="291.5" y="973.4453"/><text fill="#000000" font-family="sans-serif" font-size="14" lengthAdjust="spacing" textLength="87" x="298.5" y="993.4404">ProductCart</text><rect fill="#FEFECE" height="30.2969" style="stroke:#A80036;stroke-width:1.5;" width="123" x="408.5" y="90.2969"/><text fill="#000000" font-family="sans-serif" font-size="14" lengthAdjust="spacing" textLength="109" x="415.5" y="110.292">ProductService</text><rect fill="#FEFECE" height="30.2969" style="stroke:#A80036;stroke-width:1.5;" width="123" x="408.5" y="973.4453"/><text fill="#000000" font-family="sans-serif" font-size="14" lengthAdjust="spacing" textLength="109" x="415.5" y="993.4404">ProductService</text><rect fill="#FEFECE" height="30.2969" style="stroke:#A80036;stroke-width:1.5;" width="149" x="549.5" y="90.2969"/><text fill="#000000" font-family="sans-serif" font-size="14" lengthAdjust="spacing" textLength="135" x="556.5" y="110.292">ProductRepository</text><rect fill="#FEFECE" height="30.2969" style="stroke:#A80036;stroke-width:1.5;" width="149" x="549.5" y="973.4453"/><text fill="#000000" font-family="sans-serif" font-size="14" lengthAdjust="spacing" textLength="135" x="556.5" y="993.4404">ProductRepository</text><text fill="#000000" font-family="sans-serif" font-size="14" lengthAdjust="spacing" textLength="21" x="735.5" y="118.292">DB</text><path d="M731,69.2969 C731,59.2969 749,59.2969 749,59.2969 C749,59.2969 767,59.2969 767,69.2969 L767,95.2969 C767,105.2969 749,105.2969 749,105.2969 C749,105.2969 731,105.2969 731,95.2969 L731,69.2969 " fill="#FEFECE" style="stroke:#A80036;stroke-width:1.5;"/><path d="M731,69.2969 C731,79.2969 749,79.2969 749,79.2969 C749,79.2969 767,79.2969 767,69.2969 " fill="none" style="stroke:#A80036;stroke-width:1.5;"/><text fill="#000000" font-family="sans-serif" font-size="14" lengthAdjust="spacing" textLength="21" x="735.5" y="986.4404">DB</text><path d="M731,999.7422 C731,989.7422 749,989.7422 749,989.7422 C749,989.7422 767,989.7422 767,999.7422 L767,1025.7422 C767,1035.7422 749,1035.7422 749,1035.7422 C749,1035.7422 731,1035.7422 731,1025.7422 L731,999.7422 " fill="#FEFECE" style="stroke:#A80036;stroke-width:1.5;"/><path d="M731,999.7422 C731,1009.7422 749,1009.7422 749,1009.7422 C749,1009.7422 767,1009.7422 767,999.7422 " fill="none" style="stroke:#A80036;stroke-width:1.5;"/><rect fill="#FFFFFF" height="246.0625" style="stroke:#A80036;stroke-width:1.0;" width="10" x="183" y="167.8594"/><rect fill="#FFFFFF" height="132.5313" style="stroke:#A80036;stroke-width:1.0;" width="10" x="183" y="503.3203"/><rect fill="#FFFFFF" height="276.3281" style="stroke:#A80036;stroke-width:1.0;" width="10" x="183" y="680.1172"/><rect fill="#FFFFFF" height="71.2656" style="stroke:#A80036;stroke-width:1.0;" width="10" x="337" y="535.4531"/><rect fill="#FFFFFF" height="145.6641" style="stroke:#A80036;stroke-width:1.0;" width="10" x="465" y="196.9922"/><rect fill="#FFFFFF" height="160.7969" style="stroke:#A80036;stroke-width:1.0;" width="10" x="465" y="724.3828"/><rect fill="#FFFFFF" height="87.3984" style="stroke:#A80036;stroke-width:1.0;" width="10" x="619" y="226.125"/><rect fill="#FFFFFF" height="87.3984" style="stroke:#A80036;stroke-width:1.0;" width="10" x="619" y="768.6484"/><rect fill="#FFFFFF" height="29.1328" style="stroke:#A80036;stroke-width:1.0;" width="10" x="744" y="255.2578"/><rect fill="#FFFFFF" height="29.1328" style="stroke:#A80036;stroke-width:1.0;" width="10" x="744" y="797.7813"/><polygon fill="#A80036" points="171,163.8594,181,167.8594,171,171.8594,175,167.8594" style="stroke:#A80036;stroke-width:1.0;"/><line style="stroke:#A80036;stroke-width:1.0;" x1="29" x2="177" y1="167.8594" y2="167.8594"/><text fill="#000000" font-family="sans-serif" font-size="13" lengthAdjust="spacing" textLength="26" x="36" y="147.6606">GET</text><text fill="#000000" font-family="sans-serif" font-size="13" lengthAdjust="spacing" textLength="135" x="36" y="162.7935">/product/{productId}</text><path d="M198,141.1602 L198,166.1602 L297,166.1602 L297,151.1602 L287,141.1602 L198,141.1602 " fill="#FBFB77" style="stroke:#A80036;stroke-width:1.0;"/><path d="M287,141.1602 L287,151.1602 L297,151.1602 L287,141.1602 " fill="#FBFB77" style="stroke:#A80036;stroke-width:1.0;"/><text fill="#000000" font-family="sans-serif" font-size="13" lengthAdjust="spacing" textLength="78" x="204" y="158.2271">&#21830;&#21697;&#24773;&#22577;&#21462;&#24471;</text><polygon fill="#A80036" points="453,192.9922,463,196.9922,453,200.9922,457,196.9922" style="stroke:#A80036;stroke-width:1.0;"/><line style="stroke:#A80036;stroke-width:1.0;" x1="193" x2="459" y1="196.9922" y2="196.9922"/><text fill="#000000" font-family="sans-serif" font-size="13" lengthAdjust="spacing" textLength="121" x="200" y="191.9263">findById(productId)</text><polygon fill="#A80036" points="607,222.125,617,226.125,607,230.125,611,226.125" style="stroke:#A80036;stroke-width:1.0;"/><line style="stroke:#A80036;stroke-width:1.0;" x1="475" x2="613" y1="226.125" y2="226.125"/><text fill="#000000" font-family="sans-serif" font-size="13" lengthAdjust="spacing" textLength="121" x="482" y="221.0591">findById(productId)</text><polygon fill="#A80036" points="732,251.2578,742,255.2578,732,259.2578,736,255.2578" style="stroke:#A80036;stroke-width:1.0;"/><line style="stroke:#A80036;stroke-width:1.0;" x1="629" x2="738" y1="255.2578" y2="255.2578"/><text fill="#000000" font-family="sans-serif" font-size="13" lengthAdjust="spacing" textLength="77" x="636" y="250.1919">SQL SELECT</text><polygon fill="#A80036" points="640,280.3906,630,284.3906,640,288.3906,636,284.3906" style="stroke:#A80036;stroke-width:1.0;"/><line style="stroke:#A80036;stroke-width:1.0;stroke-dasharray:2.0,2.0;" x1="634" x2="748" y1="284.3906" y2="284.3906"/><text fill="#000000" font-family="sans-serif" font-size="13" lengthAdjust="spacing" textLength="49" x="646" y="279.3247">Product</text><polygon fill="#A80036" points="486,309.5234,476,313.5234,486,317.5234,482,313.5234" style="stroke:#A80036;stroke-width:1.0;"/><line style="stroke:#A80036;stroke-width:1.0;stroke-dasharray:2.0,2.0;" x1="480" x2="623" y1="313.5234" y2="313.5234"/><text fill="#000000" font-family="sans-serif" font-size="13" lengthAdjust="spacing" textLength="49" x="492" y="308.4575">Product</text><polygon fill="#A80036" points="204,338.6563,194,342.6563,204,346.6563,200,342.6563" style="stroke:#A80036;stroke-width:1.0;"/><line style="stroke:#A80036;stroke-width:1.0;stroke-dasharray:2.0,2.0;" x1="198" x2="469" y1="342.6563" y2="342.6563"/><text fill="#000000" font-family="sans-serif" font-size="13" lengthAdjust="spacing" textLength="49" x="210" y="337.5903">Product</text><line style="stroke:#A80036;stroke-width:1.0;" x1="193" x2="235" y1="371.7891" y2="371.7891"/><line style="stroke:#A80036;stroke-width:1.0;" x1="235" x2="235" y1="371.7891" y2="384.7891"/><line style="stroke:#A80036;stroke-width:1.0;" x1="194" x2="235" y1="384.7891" y2="384.7891"/><polygon fill="#A80036" points="204,380.7891,194,384.7891,204,388.7891,200,384.7891" style="stroke:#A80036;stroke-width:1.0;"/><text fill="#000000" font-family="sans-serif" font-size="13" lengthAdjust="spacing" textLength="122" x="200" y="366.7231">Model&#36861;&#21152;(Product)</text><polygon fill="#A80036" points="40,409.9219,30,413.9219,40,417.9219,36,413.9219" style="stroke:#A80036;stroke-width:1.0;"/><line style="stroke:#A80036;stroke-width:1.0;" x1="34" x2="187" y1="413.9219" y2="413.9219"/><text fill="#000000" font-family="sans-serif" font-size="13" lengthAdjust="spacing" textLength="78" x="46" y="408.856">&#21830;&#21697;&#35443;&#32048;&#30011;&#38754;</text><line style="stroke:#A80036;stroke-width:1.0;" x1="29" x2="71" y1="443.0547" y2="443.0547"/><line style="stroke:#A80036;stroke-width:1.0;" x1="71" x2="71" y1="443.0547" y2="456.0547"/><line style="stroke:#A80036;stroke-width:1.0;" x1="30" x2="71" y1="456.0547" y2="456.0547"/><polygon fill="#A80036" points="40,452.0547,30,456.0547,40,460.0547,36,456.0547" style="stroke:#A80036;stroke-width:1.0;"/><text fill="#000000" font-family="sans-serif" font-size="13" lengthAdjust="spacing" textLength="52" x="36" y="437.9888">&#20491;&#25968;&#20837;&#21147;</text><polygon fill="#A80036" points="171,499.3203,181,503.3203,171,507.3203,175,503.3203" style="stroke:#A80036;stroke-width:1.0;"/><line style="stroke:#A80036;stroke-width:1.0;" x1="29" x2="177" y1="503.3203" y2="503.3203"/><text fill="#000000" font-family="sans-serif" font-size="13" lengthAdjust="spacing" textLength="34" x="36" y="483.1216">POST</text><text fill="#000000" font-family="sans-serif" font-size="13" lengthAdjust="spacing" textLength="57" x="36" y="498.2544">/cart/add</text><path d="M198,469.0547 L198,509.0547 L401,509.0547 L401,479.0547 L391,469.0547 L198,469.0547 " fill="#FBFB77" style="stroke:#A80036;stroke-width:1.0;"/><path d="M391,469.0547 L391,479.0547 L401,479.0547 L391,469.0547 " fill="#FBFB77" style="stroke:#A80036;stroke-width:1.0;"/><text fill="#000000" font-family="sans-serif" font-size="13" lengthAdjust="spacing" textLength="182" x="204" y="486.1216">&#12459;&#12540;&#12488;&#12395;&#20837;&#12428;&#12383;&#21830;&#21697;&#12398;&#22312;&#24235;&#25968;&#12434;</text><text fill="#000000" font-family="sans-serif" font-size="13" lengthAdjust="spacing" textLength="182" x="204" y="501.2544">&#21462;&#24471;&#12375;&#12390;&#12503;&#12523;&#12480;&#12454;&#12531;&#38917;&#30446;&#12434;&#29983;&#25104;</text><polygon fill="#A80036" points="325,531.4531,335,535.4531,325,539.4531,329,535.4531" style="stroke:#A80036;stroke-width:1.0;"/><line style="stroke:#A80036;stroke-width:1.0;" x1="193" x2="331" y1="535.4531" y2="535.4531"/><text fill="#000000" font-family="sans-serif" font-size="13" lengthAdjust="spacing" textLength="83" x="200" y="530.3872">add(Product)</text><line style="stroke:#A80036;stroke-width:1.0;" x1="347" x2="389" y1="564.5859" y2="564.5859"/><line style="stroke:#A80036;stroke-width:1.0;" x1="389" x2="389" y1="564.5859" y2="577.5859"/><line style="stroke:#A80036;stroke-width:1.0;" x1="348" x2="389" y1="577.5859" y2="577.5859"/><polygon fill="#A80036" points="358,573.5859,348,577.5859,358,581.5859,354,577.5859" style="stroke:#A80036;stroke-width:1.0;"/><text fill="#000000" font-family="sans-serif" font-size="13" lengthAdjust="spacing" textLength="104" x="354" y="559.52">&#12459;&#12540;&#12488;&#12395;&#21830;&#21697;&#36861;&#21152;</text><polygon fill="#A80036" points="204,602.7188,194,606.7188,204,610.7188,200,606.7188" style="stroke:#A80036;stroke-width:1.0;"/><line style="stroke:#A80036;stroke-width:1.0;stroke-dasharray:2.0,2.0;" x1="198" x2="341" y1="606.7188" y2="606.7188"/><text fill="#000000" font-family="sans-serif" font-size="13" lengthAdjust="spacing" textLength="27" x="210" y="601.6528">void</text><polygon fill="#A80036" points="40,631.8516,30,635.8516,40,639.8516,36,635.8516" style="stroke:#A80036;stroke-width:1.0;"/><line style="stroke:#A80036;stroke-width:1.0;stroke-dasharray:2.0,2.0;" x1="34" x2="187" y1="635.8516" y2="635.8516"/><text fill="#000000" font-family="sans-serif" font-size="13" lengthAdjust="spacing" textLength="78" x="46" y="630.7856">&#12522;&#12480;&#12452;&#12524;&#12463;&#12488;</text><polygon fill="#A80036" points="171,676.1172,181,680.1172,171,684.1172,175,680.1172" style="stroke:#A80036;stroke-width:1.0;"/><line style="stroke:#A80036;stroke-width:1.0;" x1="29" x2="177" y1="680.1172" y2="680.1172"/><text fill="#000000" font-family="sans-serif" font-size="13" lengthAdjust="spacing" textLength="26" x="36" y="659.9185">GET</text><text fill="#000000" font-family="sans-serif" font-size="13" lengthAdjust="spacing" textLength="51" x="36" y="675.0513">/cart/list</text><polygon fill="#A80036" points="453,720.3828,463,724.3828,453,728.3828,457,724.3828" style="stroke:#A80036;stroke-width:1.0;"/><line style="stroke:#A80036;stroke-width:1.0;" x1="193" x2="459" y1="724.3828" y2="724.3828"/><text fill="#000000" font-family="sans-serif" font-size="13" lengthAdjust="spacing" textLength="125" x="200" y="704.1841">selectByProductList</text><text fill="#000000" font-family="sans-serif" font-size="13" lengthAdjust="spacing" textLength="101" x="200" y="719.3169">(List&lt;Product&gt;)</text><polygon fill="#A80036" points="607,764.6484,617,768.6484,607,772.6484,611,768.6484" style="stroke:#A80036;stroke-width:1.0;"/><line style="stroke:#A80036;stroke-width:1.0;" x1="475" x2="613" y1="768.6484" y2="768.6484"/><text fill="#000000" font-family="sans-serif" font-size="13" lengthAdjust="spacing" textLength="125" x="482" y="748.4497">selectByProductList</text><text fill="#000000" font-family="sans-serif" font-size="13" lengthAdjust="spacing" textLength="101" x="482" y="763.5825">(List&lt;Product&gt;)</text><polygon fill="#A80036" points="732,793.7813,742,797.7813,732,801.7813,736,797.7813" style="stroke:#A80036;stroke-width:1.0;"/><line style="stroke:#A80036;stroke-width:1.0;" x1="629" x2="738" y1="797.7813" y2="797.7813"/><text fill="#000000" font-family="sans-serif" font-size="13" lengthAdjust="spacing" textLength="77" x="636" y="792.7153">SQL SELECT</text><polygon fill="#A80036" points="640,822.9141,630,826.9141,640,830.9141,636,826.9141" style="stroke:#A80036;stroke-width:1.0;"/><line style="stroke:#A80036;stroke-width:1.0;stroke-dasharray:2.0,2.0;" x1="634" x2="748" y1="826.9141" y2="826.9141"/><text fill="#000000" font-family="sans-serif" font-size="13" lengthAdjust="spacing" textLength="91" x="646" y="821.8481">List&lt;Product&gt;</text><polygon fill="#A80036" points="486,852.0469,476,856.0469,486,860.0469,482,856.0469" style="stroke:#A80036;stroke-width:1.0;"/><line style="stroke:#A80036;stroke-width:1.0;stroke-dasharray:2.0,2.0;" x1="480" x2="623" y1="856.0469" y2="856.0469"/><text fill="#000000" font-family="sans-serif" font-size="13" lengthAdjust="spacing" textLength="91" x="492" y="850.981">List&lt;Product&gt;</text><polygon fill="#A80036" points="204,881.1797,194,885.1797,204,889.1797,200,885.1797" style="stroke:#A80036;stroke-width:1.0;"/><line style="stroke:#A80036;stroke-width:1.0;stroke-dasharray:2.0,2.0;" x1="198" x2="469" y1="885.1797" y2="885.1797"/><text fill="#000000" font-family="sans-serif" font-size="13" lengthAdjust="spacing" textLength="91" x="210" y="880.1138">List&lt;Product&gt;</text><line style="stroke:#A80036;stroke-width:1.0;" x1="193" x2="235" y1="914.3125" y2="914.3125"/><line style="stroke:#A80036;stroke-width:1.0;" x1="235" x2="235" y1="914.3125" y2="927.3125"/><line style="stroke:#A80036;stroke-width:1.0;" x1="194" x2="235" y1="927.3125" y2="927.3125"/><polygon fill="#A80036" points="204,923.3125,194,927.3125,204,931.3125,200,927.3125" style="stroke:#A80036;stroke-width:1.0;"/><text fill="#000000" font-family="sans-serif" font-size="13" lengthAdjust="spacing" textLength="130" x="200" y="909.2466">&#20491;&#25968;&#12398;&#12503;&#12523;&#12480;&#12454;&#12531;&#29983;&#25104;</text><polygon fill="#A80036" points="40,952.4453,30,956.4453,40,960.4453,36,956.4453" style="stroke:#A80036;stroke-width:1.0;"/><line style="stroke:#A80036;stroke-width:1.0;" x1="34" x2="187" y1="956.4453" y2="956.4453"/><text fill="#000000" font-family="sans-serif" font-size="13" lengthAdjust="spacing" textLength="65" x="46" y="951.3794">&#12459;&#12540;&#12488;&#30011;&#38754;</text><!--SRC=[ZL9TQnD157tVNp7anPGIqWUVGkb3OfH2n6hgMrusEvDcSRiRPYUH84ApIwHKGT7MFaHf41KrKbiYYbhrnmoRjF_2Enz9kd4hGc0dzvnxvjupnxzZkuXwFZ5yE3LCQcuYlsvYxwxjRg2QwG32REOGTBkmj7GvXwAz1z6ppkdm9Eg-GJpuoiCJ7XppSCY3Rr5lQ9WMyoXAyV2jHBwaaEcZfa-e0UBCjko6wJAKMcjIgsxwfE2vZ7gEGwWaMemwnYMKIBtgqKr9gi5XJerwk6cn0jIK31mI6ML2MxP59CblMOcSMwJX-JPiqPOq2dyDR3Ap2ZEWAtbHmrK3fWG7eftUUFV7sSjNXbWHPLRa1cXn4UNGjU9wnSqsb6ZsdZwiulk6wp62gBrHPnC_Hs4twXz7Zvz7l_ODAG5ICA1IgjakphTNSNggiM0843XYkej94WKMhYfE-MO9bOkbOc7TW59cqf_90AQtrptw-XYY2dh563APM7vpwBg7YNFw-sUqqqzhoiAKeumItJfAxuVZpqVQHU7gkO1DNPLVwDXwEDexKhudEBvseomi5w-VDJ6E-So3WGXakCqx0n3WmIFUEL1tySvXzE9Tz7q0sZnuMd7LE_0E_235-po4rYqUm7burk-EUuV06kyUZBQVp3Q7EzKGSF6vfKLv0iyDeVQKBYcPPN15DGXtMfwDjRmsG9Pv-44Eyvg77tdm2RGkZ9xqmR5zzdUYVE8GY-NRUj0Ia2fkMdoMTMab8MB_rVMFp4b8R2d31rYiLTudq5acOpYQkJIDPbnWBeOgBV2wSsyuztIpG4wVHwNn3m00]--></g></svg>