<svg xmlns="http://www.w3.org/2000/svg" xmlns:xlink="http://www.w3.org/1999/xlink" contentStyleType="text/css" height="1056px" preserveAspectRatio="none" style="width:813px;height:1056px;background:#FFFFFF;" version="1.1" viewBox="0 0 813 1056" width="813px" zoomAndPan="magnify"><defs/><g><text fill="#000000" font-family="sans-serif" font-size="14" font-weight="bold" lengthAdjust="spacing" textLength="206.2123" x="296.9833" y="27.9951">UC004: &#21830;&#21697;&#36092;&#20837; &#12471;&#12540;&#12465;&#12531;&#12473;&#22259;</text><rect fill="#FFFFFF" height="246.0625" style="stroke:#A80036;stroke-width:1.0;" width="10" x="185.9599" y="167.8594"/><rect fill="#FFFFFF" height="132.5313" style="stroke:#A80036;stroke-width:1.0;" width="10" x="185.9599" y="503.3203"/><rect fill="#FFFFFF" height="276.3281" style="stroke:#A80036;stroke-width:1.0;" width="10" x="185.9599" y="680.1172"/><rect fill="#FFFFFF" height="71.2656" style="stroke:#A80036;stroke-width:1.0;" width="10" x="349.96" y="535.4531"/><rect fill="#FFFFFF" height="145.6641" style="stroke:#A80036;stroke-width:1.0;" width="10" x="487.9601" y="196.9922"/><rect fill="#FFFFFF" height="160.7969" style="stroke:#A80036;stroke-width:1.0;" width="10" x="487.9601" y="724.3828"/><rect fill="#FFFFFF" height="87.3984" style="stroke:#A80036;stroke-width:1.0;" width="10" x="644.7956" y="226.125"/><rect fill="#FFFFFF" height="87.3984" style="stroke:#A80036;stroke-width:1.0;" width="10" x="644.7956" y="768.6484"/><rect fill="#FFFFFF" height="29.1328" style="stroke:#A80036;stroke-width:1.0;" width="10" x="773.1789" y="255.2578"/><rect fill="#FFFFFF" height="29.1328" style="stroke:#A80036;stroke-width:1.0;" width="10" x="773.1789" y="797.7813"/><line style="stroke:#A80036;stroke-width:1.0;stroke-dasharray:5.0,5.0;" x1="28" x2="28" y1="121.5938" y2="974.4453"/><line style="stroke:#A80036;stroke-width:1.0;stroke-dasharray:5.0,5.0;" x1="190.3095" x2="190.3095" y1="121.5938" y2="974.4453"/><line style="stroke:#A80036;stroke-width:1.0;stroke-dasharray:5.0,5.0;" x1="354.3052" x2="354.3052" y1="121.5938" y2="974.4453"/><line style="stroke:#A80036;stroke-width:1.0;stroke-dasharray:5.0,5.0;" x1="492.2346" x2="492.2346" y1="121.5938" y2="974.4453"/><line style="stroke:#A80036;stroke-width:1.0;stroke-dasharray:5.0,5.0;" x1="649.4045" x2="649.4045" y1="121.5938" y2="974.4453"/><line style="stroke:#A80036;stroke-width:1.0;stroke-dasharray:5.0,5.0;" x1="778.1789" x2="778.1789" y1="121.5938" y2="974.4453"/><text fill="#000000" font-family="sans-serif" font-size="14" lengthAdjust="spacing" textLength="41.9998" x="5" y="118.292">&#12518;&#12540;&#12470;</text><ellipse cx="28.9999" cy="52.2969" fill="#FEFECE" rx="8" ry="8" style="stroke:#A80036;stroke-width:2.0;"/><path d="M28.9999,60.2969 L28.9999,87.2969 M15.9999,68.2969 L41.9999,68.2969 M28.9999,87.2969 L15.9999,102.2969 M28.9999,87.2969 L41.9999,102.2969 " fill="none" style="stroke:#A80036;stroke-width:2.0;"/><text fill="#000000" font-family="sans-serif" font-size="14" lengthAdjust="spacing" textLength="41.9998" x="5" y="986.4404">&#12518;&#12540;&#12470;</text><ellipse cx="28.9999" cy="999.7422" fill="#FEFECE" rx="8" ry="8" style="stroke:#A80036;stroke-width:2.0;"/><path d="M28.9999,1007.7422 L28.9999,1034.7422 M15.9999,1015.7422 L41.9999,1015.7422 M28.9999,1034.7422 L15.9999,1049.7422 M28.9999,1034.7422 L41.9999,1049.7422 " fill="none" style="stroke:#A80036;stroke-width:2.0;"/><rect fill="#FEFECE" height="30.2969" style="stroke:#A80036;stroke-width:1.5;" width="147.3008" x="117.3095" y="90.2969"/><text fill="#000000" font-family="sans-serif" font-size="14" lengthAdjust="spacing" textLength="133.3008" x="124.3095" y="110.292">PurchaseController</text><rect fill="#FEFECE" height="30.2969" style="stroke:#A80036;stroke-width:1.5;" width="147.3008" x="117.3095" y="973.4453"/><text fill="#000000" font-family="sans-serif" font-size="14" lengthAdjust="spacing" textLength="133.3008" x="124.3095" y="993.4404">PurchaseController</text><rect fill="#FEFECE" height="30.2969" style="stroke:#A80036;stroke-width:1.5;" width="97.3096" x="306.3052" y="90.2969"/><text fill="#000000" font-family="sans-serif" font-size="14" lengthAdjust="spacing" textLength="83.3096" x="313.3052" y="110.292">ProductCart</text><rect fill="#FEFECE" height="30.2969" style="stroke:#A80036;stroke-width:1.5;" width="97.3096" x="306.3052" y="973.4453"/><text fill="#000000" font-family="sans-serif" font-size="14" lengthAdjust="spacing" textLength="83.3096" x="313.3052" y="993.4404">ProductCart</text><rect fill="#FEFECE" height="30.2969" style="stroke:#A80036;stroke-width:1.5;" width="119.4512" x="433.2346" y="90.2969"/><text fill="#000000" font-family="sans-serif" font-size="14" lengthAdjust="spacing" textLength="105.4512" x="440.2346" y="110.292">ProductService</text><rect fill="#FEFECE" height="30.2969" style="stroke:#A80036;stroke-width:1.5;" width="119.4512" x="433.2346" y="973.4453"/><text fill="#000000" font-family="sans-serif" font-size="14" lengthAdjust="spacing" textLength="105.4512" x="440.2346" y="993.4404">ProductService</text><rect fill="#FEFECE" height="30.2969" style="stroke:#A80036;stroke-width:1.5;" width="142.7822" x="578.4045" y="90.2969"/><text fill="#000000" font-family="sans-serif" font-size="14" lengthAdjust="spacing" textLength="128.7822" x="585.4045" y="110.292">ProductRepository</text><rect fill="#FEFECE" height="30.2969" style="stroke:#A80036;stroke-width:1.5;" width="142.7822" x="578.4045" y="973.4453"/><text fill="#000000" font-family="sans-serif" font-size="14" lengthAdjust="spacing" textLength="128.7822" x="585.4045" y="993.4404">ProductRepository</text><text fill="#000000" font-family="sans-serif" font-size="14" lengthAdjust="spacing" textLength="20.3848" x="764.9865" y="118.292">DB</text><path d="M760.1789,69.2969 C760.1789,59.2969 778.1789,59.2969 778.1789,59.2969 C778.1789,59.2969 796.1789,59.2969 796.1789,69.2969 L796.1789,95.2969 C796.1789,105.2969 778.1789,105.2969 778.1789,105.2969 C778.1789,105.2969 760.1789,105.2969 760.1789,95.2969 L760.1789,69.2969 " fill="#FEFECE" style="stroke:#A80036;stroke-width:1.5;"/><path d="M760.1789,69.2969 C760.1789,79.2969 778.1789,79.2969 778.1789,79.2969 C778.1789,79.2969 796.1789,79.2969 796.1789,69.2969 " fill="none" style="stroke:#A80036;stroke-width:1.5;"/><text fill="#000000" font-family="sans-serif" font-size="14" lengthAdjust="spacing" textLength="20.3848" x="764.9865" y="986.4404">DB</text><path d="M760.1789,999.7422 C760.1789,989.7422 778.1789,989.7422 778.1789,989.7422 C778.1789,989.7422 796.1789,989.7422 796.1789,999.7422 L796.1789,1025.7422 C796.1789,1035.7422 778.1789,1035.7422 778.1789,1035.7422 C778.1789,1035.7422 760.1789,1035.7422 760.1789,1025.7422 L760.1789,999.7422 " fill="#FEFECE" style="stroke:#A80036;stroke-width:1.5;"/><path d="M760.1789,999.7422 C760.1789,1009.7422 778.1789,1009.7422 778.1789,1009.7422 C778.1789,1009.7422 796.1789,1009.7422 796.1789,999.7422 " fill="none" style="stroke:#A80036;stroke-width:1.5;"/><rect fill="#FFFFFF" height="246.0625" style="stroke:#A80036;stroke-width:1.0;" width="10" x="185.9599" y="167.8594"/><rect fill="#FFFFFF" height="132.5313" style="stroke:#A80036;stroke-width:1.0;" width="10" x="185.9599" y="503.3203"/><rect fill="#FFFFFF" height="276.3281" style="stroke:#A80036;stroke-width:1.0;" width="10" x="185.9599" y="680.1172"/><rect fill="#FFFFFF" height="71.2656" style="stroke:#A80036;stroke-width:1.0;" width="10" x="349.96" y="535.4531"/><rect fill="#FFFFFF" height="145.6641" style="stroke:#A80036;stroke-width:1.0;" width="10" x="487.9601" y="196.9922"/><rect fill="#FFFFFF" height="160.7969" style="stroke:#A80036;stroke-width:1.0;" width="10" x="487.9601" y="724.3828"/><rect fill="#FFFFFF" height="87.3984" style="stroke:#A80036;stroke-width:1.0;" width="10" x="644.7956" y="226.125"/><rect fill="#FFFFFF" height="87.3984" style="stroke:#A80036;stroke-width:1.0;" width="10" x="644.7956" y="768.6484"/><rect fill="#FFFFFF" height="29.1328" style="stroke:#A80036;stroke-width:1.0;" width="10" x="773.1789" y="255.2578"/><rect fill="#FFFFFF" height="29.1328" style="stroke:#A80036;stroke-width:1.0;" width="10" x="773.1789" y="797.7813"/><polygon fill="#A80036" points="173.9599,163.8594,183.9599,167.8594,173.9599,171.8594,177.9599,167.8594" style="stroke:#A80036;stroke-width:1.0;"/><line style="stroke:#A80036;stroke-width:1.0;" x1="28.9999" x2="179.9599" y1="167.8594" y2="167.8594"/><text fill="#000000" font-family="sans-serif" font-size="13" lengthAdjust="spacing" textLength="26.2285" x="35.9999" y="147.6606">GET</text><text fill="#000000" font-family="sans-serif" font-size="13" lengthAdjust="spacing" textLength="137.96" x="35.9999" y="162.7935">/product/{productId}</text><path d="M200,141.1602 L200,166.1602 L299,166.1602 L299,151.1602 L289,141.1602 L200,141.1602 " fill="#FBFB77" style="stroke:#A80036;stroke-width:1.0;"/><path d="M289,141.1602 L289,151.1602 L299,151.1602 L289,141.1602 " fill="#FBFB77" style="stroke:#A80036;stroke-width:1.0;"/><text fill="#000000" font-family="sans-serif" font-size="13" lengthAdjust="spacing" textLength="78.0001" x="206" y="158.2271">&#21830;&#21697;&#24773;&#22577;&#21462;&#24471;</text><polygon fill="#A80036" points="475.9601,192.9922,485.9601,196.9922,475.9601,200.9922,479.9601,196.9922" style="stroke:#A80036;stroke-width:1.0;"/><line style="stroke:#A80036;stroke-width:1.0;" x1="195.9599" x2="481.9601" y1="196.9922" y2="196.9922"/><text fill="#000000" font-family="sans-serif" font-size="13" lengthAdjust="spacing" textLength="125.8931" x="202.9599" y="191.9263">findById(productId)</text><polygon fill="#A80036" points="632.7956,222.125,642.7956,226.125,632.7956,230.125,636.7956,226.125" style="stroke:#A80036;stroke-width:1.0;"/><line style="stroke:#A80036;stroke-width:1.0;" x1="497.9601" x2="638.7956" y1="226.125" y2="226.125"/><text fill="#000000" font-family="sans-serif" font-size="13" lengthAdjust="spacing" textLength="125.8931" x="504.9601" y="221.0591">findById(productId)</text><polygon fill="#A80036" points="761.1789,251.2578,771.1789,255.2578,761.1789,259.2578,765.1789,255.2578" style="stroke:#A80036;stroke-width:1.0;"/><line style="stroke:#A80036;stroke-width:1.0;" x1="654.7956" x2="767.1789" y1="255.2578" y2="255.2578"/><text fill="#000000" font-family="sans-serif" font-size="13" lengthAdjust="spacing" textLength="78.7998" x="661.7956" y="250.1919">SQL SELECT</text><polygon fill="#A80036" points="665.7956,280.3906,655.7956,284.3906,665.7956,288.3906,661.7956,284.3906" style="stroke:#A80036;stroke-width:1.0;"/><line style="stroke:#A80036;stroke-width:1.0;stroke-dasharray:2.0,2.0;" x1="659.7956" x2="777.1789" y1="284.3906" y2="284.3906"/><text fill="#000000" font-family="sans-serif" font-size="13" lengthAdjust="spacing" textLength="49.8735" x="671.7956" y="279.3247">Product</text><polygon fill="#A80036" points="508.9601,309.5234,498.9601,313.5234,508.9601,317.5234,504.9601,313.5234" style="stroke:#A80036;stroke-width:1.0;"/><line style="stroke:#A80036;stroke-width:1.0;stroke-dasharray:2.0,2.0;" x1="502.9601" x2="648.7956" y1="313.5234" y2="313.5234"/><text fill="#000000" font-family="sans-serif" font-size="13" lengthAdjust="spacing" textLength="49.8735" x="514.9601" y="308.4575">Product</text><polygon fill="#A80036" points="206.9599,338.6563,196.9599,342.6563,206.9599,346.6563,202.9599,342.6563" style="stroke:#A80036;stroke-width:1.0;"/><line style="stroke:#A80036;stroke-width:1.0;stroke-dasharray:2.0,2.0;" x1="200.9599" x2="491.9601" y1="342.6563" y2="342.6563"/><text fill="#000000" font-family="sans-serif" font-size="13" lengthAdjust="spacing" textLength="49.8735" x="212.9599" y="337.5903">Product</text><line style="stroke:#A80036;stroke-width:1.0;" x1="195.9599" x2="237.9599" y1="371.7891" y2="371.7891"/><line style="stroke:#A80036;stroke-width:1.0;" x1="237.9599" x2="237.9599" y1="371.7891" y2="384.7891"/><line style="stroke:#A80036;stroke-width:1.0;" x1="196.9599" x2="237.9599" y1="384.7891" y2="384.7891"/><polygon fill="#A80036" points="206.9599,380.7891,196.9599,384.7891,206.9599,388.7891,202.9599,384.7891" style="stroke:#A80036;stroke-width:1.0;"/><text fill="#000000" font-family="sans-serif" font-size="13" lengthAdjust="spacing" textLength="125.0489" x="202.9599" y="366.7231">Model&#36861;&#21152;(Product)</text><polygon fill="#A80036" points="39.9999,409.9219,29.9999,413.9219,39.9999,417.9219,35.9999,413.9219" style="stroke:#A80036;stroke-width:1.0;"/><line style="stroke:#A80036;stroke-width:1.0;" x1="33.9999" x2="189.9599" y1="413.9219" y2="413.9219"/><text fill="#000000" font-family="sans-serif" font-size="13" lengthAdjust="spacing" textLength="78.0001" x="45.9999" y="408.856">&#21830;&#21697;&#35443;&#32048;&#30011;&#38754;</text><line style="stroke:#A80036;stroke-width:1.0;" x1="28.9999" x2="70.9999" y1="443.0547" y2="443.0547"/><line style="stroke:#A80036;stroke-width:1.0;" x1="70.9999" x2="70.9999" y1="443.0547" y2="456.0547"/><line style="stroke:#A80036;stroke-width:1.0;" x1="29.9999" x2="70.9999" y1="456.0547" y2="456.0547"/><polygon fill="#A80036" points="39.9999,452.0547,29.9999,456.0547,39.9999,460.0547,35.9999,456.0547" style="stroke:#A80036;stroke-width:1.0;"/><text fill="#000000" font-family="sans-serif" font-size="13" lengthAdjust="spacing" textLength="52.0001" x="35.9999" y="437.9888">&#20491;&#25968;&#20837;&#21147;</text><polygon fill="#A80036" points="173.9599,499.3203,183.9599,503.3203,173.9599,507.3203,177.9599,503.3203" style="stroke:#A80036;stroke-width:1.0;"/><line style="stroke:#A80036;stroke-width:1.0;" x1="28.9999" x2="179.9599" y1="503.3203" y2="503.3203"/><text fill="#000000" font-family="sans-serif" font-size="13" lengthAdjust="spacing" textLength="34.2646" x="35.9999" y="483.1216">POST</text><text fill="#000000" font-family="sans-serif" font-size="13" lengthAdjust="spacing" textLength="58.7856" x="35.9999" y="498.2544">/cart/add</text><path d="M200,469.0547 L200,509.0547 L403,509.0547 L403,479.0547 L393,469.0547 L200,469.0547 " fill="#FBFB77" style="stroke:#A80036;stroke-width:1.0;"/><path d="M393,469.0547 L393,479.0547 L403,479.0547 L393,469.0547 " fill="#FBFB77" style="stroke:#A80036;stroke-width:1.0;"/><text fill="#000000" font-family="sans-serif" font-size="13" lengthAdjust="spacing" textLength="182.0002" x="206" y="486.1216">&#12459;&#12540;&#12488;&#12395;&#20837;&#12428;&#12383;&#21830;&#21697;&#12398;&#22312;&#24235;&#25968;&#12434;</text><text fill="#000000" font-family="sans-serif" font-size="13" lengthAdjust="spacing" textLength="182.0002" x="206" y="501.2544">&#21462;&#24471;&#12375;&#12390;&#12503;&#12523;&#12480;&#12454;&#12531;&#38917;&#30446;&#12434;&#29983;&#25104;</text><polygon fill="#A80036" points="337.96,531.4531,347.96,535.4531,337.96,539.4531,341.96,535.4531" style="stroke:#A80036;stroke-width:1.0;"/><line style="stroke:#A80036;stroke-width:1.0;" x1="195.9599" x2="343.96" y1="535.4531" y2="535.4531"/><text fill="#000000" font-family="sans-serif" font-size="13" lengthAdjust="spacing" textLength="84.4873" x="202.9599" y="530.3872">add(Product)</text><line style="stroke:#A80036;stroke-width:1.0;" x1="359.96" x2="401.96" y1="564.5859" y2="564.5859"/><line style="stroke:#A80036;stroke-width:1.0;" x1="401.96" x2="401.96" y1="564.5859" y2="577.5859"/><line style="stroke:#A80036;stroke-width:1.0;" x1="360.96" x2="401.96" y1="577.5859" y2="577.5859"/><polygon fill="#A80036" points="370.96,573.5859,360.96,577.5859,370.96,581.5859,366.96,577.5859" style="stroke:#A80036;stroke-width:1.0;"/><text fill="#000000" font-family="sans-serif" font-size="13" lengthAdjust="spacing" textLength="104.0001" x="366.96" y="559.52">&#12459;&#12540;&#12488;&#12395;&#21830;&#21697;&#36861;&#21152;</text><polygon fill="#A80036" points="206.9599,602.7188,196.9599,606.7188,206.9599,610.7188,202.9599,606.7188" style="stroke:#A80036;stroke-width:1.0;"/><line style="stroke:#A80036;stroke-width:1.0;stroke-dasharray:2.0,2.0;" x1="200.9599" x2="353.96" y1="606.7188" y2="606.7188"/><text fill="#000000" font-family="sans-serif" font-size="13" lengthAdjust="spacing" textLength="27.5107" x="212.9599" y="601.6528">void</text><polygon fill="#A80036" points="39.9999,631.8516,29.9999,635.8516,39.9999,639.8516,35.9999,635.8516" style="stroke:#A80036;stroke-width:1.0;"/><line style="stroke:#A80036;stroke-width:1.0;stroke-dasharray:2.0,2.0;" x1="33.9999" x2="189.9599" y1="635.8516" y2="635.8516"/><text fill="#000000" font-family="sans-serif" font-size="13" lengthAdjust="spacing" textLength="78.0001" x="45.9999" y="630.7856">&#12522;&#12480;&#12452;&#12524;&#12463;&#12488;</text><polygon fill="#A80036" points="173.9599,676.1172,183.9599,680.1172,173.9599,684.1172,177.9599,680.1172" style="stroke:#A80036;stroke-width:1.0;"/><line style="stroke:#A80036;stroke-width:1.0;" x1="28.9999" x2="179.9599" y1="680.1172" y2="680.1172"/><text fill="#000000" font-family="sans-serif" font-size="13" lengthAdjust="spacing" textLength="26.2285" x="35.9999" y="659.9185">GET</text><text fill="#000000" font-family="sans-serif" font-size="13" lengthAdjust="spacing" textLength="53.4092" x="35.9999" y="675.0513">/cart/list</text><polygon fill="#A80036" points="475.9601,720.3828,485.9601,724.3828,475.9601,728.3828,479.9601,724.3828" style="stroke:#A80036;stroke-width:1.0;"/><line style="stroke:#A80036;stroke-width:1.0;" x1="195.9599" x2="481.9601" y1="724.3828" y2="724.3828"/><text fill="#000000" font-family="sans-serif" font-size="13" lengthAdjust="spacing" textLength="127.8354" x="202.9599" y="704.1841">selectByProductList</text><text fill="#000000" font-family="sans-serif" font-size="13" lengthAdjust="spacing" textLength="104.5269" x="202.9599" y="719.3169">(List&lt;Product&gt;)</text><polygon fill="#A80036" points="632.7956,764.6484,642.7956,768.6484,632.7956,772.6484,636.7956,768.6484" style="stroke:#A80036;stroke-width:1.0;"/><line style="stroke:#A80036;stroke-width:1.0;" x1="497.9601" x2="638.7956" y1="768.6484" y2="768.6484"/><text fill="#000000" font-family="sans-serif" font-size="13" lengthAdjust="spacing" textLength="127.8354" x="504.9601" y="748.4497">selectByProductList</text><text fill="#000000" font-family="sans-serif" font-size="13" lengthAdjust="spacing" textLength="104.5269" x="504.9601" y="763.5825">(List&lt;Product&gt;)</text><polygon fill="#A80036" points="761.1789,793.7813,771.1789,797.7813,761.1789,801.7813,765.1789,797.7813" style="stroke:#A80036;stroke-width:1.0;"/><line style="stroke:#A80036;stroke-width:1.0;" x1="654.7956" x2="767.1789" y1="797.7813" y2="797.7813"/><text fill="#000000" font-family="sans-serif" font-size="13" lengthAdjust="spacing" textLength="78.7998" x="661.7956" y="792.7153">SQL SELECT</text><polygon fill="#A80036" points="665.7956,822.9141,655.7956,826.9141,665.7956,830.9141,661.7956,826.9141" style="stroke:#A80036;stroke-width:1.0;"/><line style="stroke:#A80036;stroke-width:1.0;stroke-dasharray:2.0,2.0;" x1="659.7956" x2="777.1789" y1="826.9141" y2="826.9141"/><text fill="#000000" font-family="sans-serif" font-size="13" lengthAdjust="spacing" textLength="94.3833" x="671.7956" y="821.8481">List&lt;Product&gt;</text><polygon fill="#A80036" points="508.9601,852.0469,498.9601,856.0469,508.9601,860.0469,504.9601,856.0469" style="stroke:#A80036;stroke-width:1.0;"/><line style="stroke:#A80036;stroke-width:1.0;stroke-dasharray:2.0,2.0;" x1="502.9601" x2="648.7956" y1="856.0469" y2="856.0469"/><text fill="#000000" font-family="sans-serif" font-size="13" lengthAdjust="spacing" textLength="94.3833" x="514.9601" y="850.981">List&lt;Product&gt;</text><polygon fill="#A80036" points="206.9599,881.1797,196.9599,885.1797,206.9599,889.1797,202.9599,885.1797" style="stroke:#A80036;stroke-width:1.0;"/><line style="stroke:#A80036;stroke-width:1.0;stroke-dasharray:2.0,2.0;" x1="200.9599" x2="491.9601" y1="885.1797" y2="885.1797"/><text fill="#000000" font-family="sans-serif" font-size="13" lengthAdjust="spacing" textLength="94.3833" x="212.9599" y="880.1138">List&lt;Product&gt;</text><line style="stroke:#A80036;stroke-width:1.0;" x1="195.9599" x2="237.9599" y1="914.3125" y2="914.3125"/><line style="stroke:#A80036;stroke-width:1.0;" x1="237.9599" x2="237.9599" y1="914.3125" y2="927.3125"/><line style="stroke:#A80036;stroke-width:1.0;" x1="196.9599" x2="237.9599" y1="927.3125" y2="927.3125"/><polygon fill="#A80036" points="206.9599,923.3125,196.9599,927.3125,206.9599,931.3125,202.9599,927.3125" style="stroke:#A80036;stroke-width:1.0;"/><text fill="#000000" font-family="sans-serif" font-size="13" lengthAdjust="spacing" textLength="130.0002" x="202.9599" y="909.2466">&#20491;&#25968;&#12398;&#12503;&#12523;&#12480;&#12454;&#12531;&#29983;&#25104;</text><polygon fill="#A80036" points="39.9999,952.4453,29.9999,956.4453,39.9999,960.4453,35.9999,956.4453" style="stroke:#A80036;stroke-width:1.0;"/><line style="stroke:#A80036;stroke-width:1.0;" x1="33.9999" x2="189.9599" y1="956.4453" y2="956.4453"/><text fill="#000000" font-family="sans-serif" font-size="13" lengthAdjust="spacing" textLength="65.0001" x="45.9999" y="951.3794">&#12459;&#12540;&#12488;&#30011;&#38754;</text><!--SRC=[ZL9TQnD157tVNp7anPGIqWUVGkb3OfH2n6hgMrusEvDcSRiRPYUH84ApIwHKGT7MFaHf41KrKbiYYbhrnmoRjF_2Enz9kd4hGc0dzvnxvjupnxzZkuXwFZ5yE3LCQcuYlsvYxwxjRg2QwG32REOGTBkmj7GvXwAz1z6ppkdm9Eg-GJpuoiCJ7XppSCY3Rr5lQ9WMyoXAyV2jHBwaaEcZfa-e0UBCjko6wJAKMcjIgsxwfE2vZ7gEGwWaMemwnYMKIBtgqKr9gi5XJerwk6cn0jIK31mI6ML2MxP59CblMOcSMwJX-JPiqPOq2dyDR3Ap2ZEWAtbHmrK3fWG7eftUUFV7sSjNXbWHPLRa1cXn4UNGjU9wnSqsb6ZsdZwiulk6wp62gBrHPnC_Hs4twXz7Zvz7l_ODAG5ICA1IgjakphTNSNggiM0843XYkej94WKMhYfE-MO9bOkbOc7TW59cqf_90AQtrptw-XYY2dh563APM7vpwBg7YNFw-sUqqqzhoiAKeumItJfAxuVZpqVQHU7gkO1DNPLVwDXwEDexKhudEBvseomi5w-VDJ6E-So3WGXakCqx0n3WmIFUEL1tySvXzE9Tz7q0sZnuMd7LE_0E_235-po4rYqUm7burk-EUuV06kyUZBQVp3Q7EzKGSF6vfKLv0iyDeVQKBYcPPN15DGXtMfwDjRmsG9Pv-44Eyvg77tdm2RGkZ9xqmR5zzdUYVE8GY-NRUj0Ia2fkMdoMTMab8MB_rVMFp4b8R2d31rYiLTudq5acOpYQkJIDPbnWBeOgBV2wSsyuztIpG4wVHwNn3m00]--></g></svg>