<?xml version="1.0" encoding="us-ascii" standalone="no"?><svg xmlns="http://www.w3.org/2000/svg" xmlns:xlink="http://www.w3.org/1999/xlink" contentStyleType="text/css" height="1337px" preserveAspectRatio="none" style="width:936px;height:1337px;background:#FFFFFF;" version="1.1" viewBox="0 0 936 1337" width="936px" zoomAndPan="magnify"><defs/><g><text fill="#000000" font-family="sans-serif" font-size="14" font-weight="bold" lengthAdjust="spacing" textLength="337" x="293.25" y="27.9951">UC009: &#25285;&#24403;&#32773;&#12450;&#12459;&#12454;&#12531;&#12488;&#30331;&#37682;&#27231;&#33021; &#12471;&#12540;&#12465;&#12531;&#12473;&#22259;</text><rect fill="#FFFFFF" height="1105.1797" style="stroke:#A80036;stroke-width:1.0;" width="10" x="24" y="131.5938"/><rect fill="#FFFFFF" height="288.1953" style="stroke:#A80036;stroke-width:1.0;" width="10" x="223" y="182.9922"/><rect fill="#FFFFFF" height="71.2656" style="stroke:#A80036;stroke-width:1.0;" width="10" x="223" y="572.7188"/><rect fill="#FFFFFF" height="333.5938" style="stroke:#A80036;stroke-width:1.0;" width="10" x="223" y="745.5156"/><rect fill="#FFFFFF" height="113.3984" style="stroke:#A80036;stroke-width:1.0;" width="10" x="223" y="1123.375"/><rect fill="#FFFFFF" height="145.6641" style="stroke:#A80036;stroke-width:1.0;" width="10" x="364" y="296.3906"/><rect fill="#FFFFFF" height="87.3984" style="stroke:#A80036;stroke-width:1.0;" width="10" x="504" y="325.5234"/><rect fill="#FFFFFF" height="160.7969" style="stroke:#A80036;stroke-width:1.0;" width="10" x="633" y="889.1797"/><rect fill="#FFFFFF" height="87.3984" style="stroke:#A80036;stroke-width:1.0;" width="10" x="796" y="933.4453"/><rect fill="#FFFFFF" height="29.1328" style="stroke:#A80036;stroke-width:1.0;" width="10" x="896.5" y="354.6563"/><rect fill="#FFFFFF" height="29.1328" style="stroke:#A80036;stroke-width:1.0;" width="10" x="896.5" y="962.5781"/><line style="stroke:#A80036;stroke-width:1.0;stroke-dasharray:5.0,5.0;" x1="29" x2="29" y1="121.5938" y2="1254.7734"/><line style="stroke:#A80036;stroke-width:1.0;stroke-dasharray:5.0,5.0;" x1="227.5" x2="227.5" y1="121.5938" y2="1254.7734"/><line style="stroke:#A80036;stroke-width:1.0;stroke-dasharray:5.0,5.0;" x1="369" x2="369" y1="121.5938" y2="1254.7734"/><line style="stroke:#A80036;stroke-width:1.0;stroke-dasharray:5.0,5.0;" x1="508.5" x2="508.5" y1="121.5938" y2="1254.7734"/><line style="stroke:#A80036;stroke-width:1.0;stroke-dasharray:5.0,5.0;" x1="637.5" x2="637.5" y1="121.5938" y2="1254.7734"/><line style="stroke:#A80036;stroke-width:1.0;stroke-dasharray:5.0,5.0;" x1="800.5" x2="800.5" y1="121.5938" y2="1254.7734"/><line style="stroke:#A80036;stroke-width:1.0;stroke-dasharray:5.0,5.0;" x1="901.5" x2="901.5" y1="121.5938" y2="1254.7734"/><text fill="#000000" font-family="sans-serif" font-size="14" lengthAdjust="spacing" textLength="42" x="5" y="118.292">&#12518;&#12540;&#12470;</text><ellipse cx="29" cy="52.2969" fill="#FEFECE" rx="8" ry="8" style="stroke:#A80036;stroke-width:2.0;"/><path d="M29,60.2969 L29,87.2969 M16,68.2969 L42,68.2969 M29,87.2969 L16,102.2969 M29,87.2969 L42,102.2969 " fill="none" style="stroke:#A80036;stroke-width:2.0;"/><text fill="#000000" font-family="sans-serif" font-size="14" lengthAdjust="spacing" textLength="42" x="5" y="1266.7686">&#12518;&#12540;&#12470;</text><ellipse cx="29" cy="1280.0703" fill="#FEFECE" rx="8" ry="8" style="stroke:#A80036;stroke-width:2.0;"/><path d="M29,1288.0703 L29,1315.0703 M16,1296.0703 L42,1296.0703 M29,1315.0703 L16,1330.0703 M29,1315.0703 L42,1330.0703 " fill="none" style="stroke:#A80036;stroke-width:2.0;"/><rect fill="#FEFECE" height="46.5938" style="stroke:#A80036;stroke-width:1.5;" width="173" x="141.5" y="74"/><text fill="#000000" font-family="sans-serif" font-size="14" lengthAdjust="spacing" textLength="159" x="148.5" y="93.9951">EmployeeAccountAdd</text><text fill="#000000" font-family="sans-serif" font-size="14" lengthAdjust="spacing" textLength="73" x="191.5" y="110.292">Controller</text><rect fill="#FEFECE" height="46.5938" style="stroke:#A80036;stroke-width:1.5;" width="173" x="141.5" y="1253.7734"/><text fill="#000000" font-family="sans-serif" font-size="14" lengthAdjust="spacing" textLength="159" x="148.5" y="1273.7686">EmployeeAccountAdd</text><text fill="#000000" font-family="sans-serif" font-size="14" lengthAdjust="spacing" textLength="73" x="191.5" y="1290.0654">Controller</text><rect fill="#FEFECE" height="46.5938" style="stroke:#A80036;stroke-width:1.5;" width="86" x="326" y="74"/><text fill="#000000" font-family="sans-serif" font-size="14" lengthAdjust="spacing" textLength="72" x="333" y="93.9951">Employee</text><text fill="#000000" font-family="sans-serif" font-size="14" lengthAdjust="spacing" textLength="53" x="342.5" y="110.292">Service</text><rect fill="#FEFECE" height="46.5938" style="stroke:#A80036;stroke-width:1.5;" width="86" x="326" y="1253.7734"/><text fill="#000000" font-family="sans-serif" font-size="14" lengthAdjust="spacing" textLength="72" x="333" y="1273.7686">Employee</text><text fill="#000000" font-family="sans-serif" font-size="14" lengthAdjust="spacing" textLength="53" x="342.5" y="1290.0654">Service</text><rect fill="#FEFECE" height="46.5938" style="stroke:#A80036;stroke-width:1.5;" width="93" x="462.5" y="74"/><text fill="#000000" font-family="sans-serif" font-size="14" lengthAdjust="spacing" textLength="72" x="473" y="93.9951">Employee</text><text fill="#000000" font-family="sans-serif" font-size="14" lengthAdjust="spacing" textLength="79" x="469.5" y="110.292">Repository</text><rect fill="#FEFECE" height="46.5938" style="stroke:#A80036;stroke-width:1.5;" width="93" x="462.5" y="1253.7734"/><text fill="#000000" font-family="sans-serif" font-size="14" lengthAdjust="spacing" textLength="72" x="473" y="1273.7686">Employee</text><text fill="#000000" font-family="sans-serif" font-size="14" lengthAdjust="spacing" textLength="79" x="469.5" y="1290.0654">Repository</text><rect fill="#FEFECE" height="46.5938" style="stroke:#A80036;stroke-width:1.5;" width="145" x="565.5" y="74"/><text fill="#000000" font-family="sans-serif" font-size="14" lengthAdjust="spacing" textLength="131" x="572.5" y="93.9951">EmployeeAccount</text><text fill="#000000" font-family="sans-serif" font-size="14" lengthAdjust="spacing" textLength="53" x="611.5" y="110.292">Service</text><rect fill="#FEFECE" height="46.5938" style="stroke:#A80036;stroke-width:1.5;" width="145" x="565.5" y="1253.7734"/><text fill="#000000" font-family="sans-serif" font-size="14" lengthAdjust="spacing" textLength="131" x="572.5" y="1273.7686">EmployeeAccount</text><text fill="#000000" font-family="sans-serif" font-size="14" lengthAdjust="spacing" textLength="53" x="611.5" y="1290.0654">Service</text><rect fill="#FEFECE" height="46.5938" style="stroke:#A80036;stroke-width:1.5;" width="145" x="728.5" y="74"/><text fill="#000000" font-family="sans-serif" font-size="14" lengthAdjust="spacing" textLength="131" x="735.5" y="93.9951">EmployeeAccount</text><text fill="#000000" font-family="sans-serif" font-size="14" lengthAdjust="spacing" textLength="79" x="761.5" y="110.292">Repository</text><rect fill="#FEFECE" height="46.5938" style="stroke:#A80036;stroke-width:1.5;" width="145" x="728.5" y="1253.7734"/><text fill="#000000" font-family="sans-serif" font-size="14" lengthAdjust="spacing" textLength="131" x="735.5" y="1273.7686">EmployeeAccount</text><text fill="#000000" font-family="sans-serif" font-size="14" lengthAdjust="spacing" textLength="79" x="761.5" y="1290.0654">Repository</text><text fill="#000000" font-family="sans-serif" font-size="14" lengthAdjust="spacing" textLength="21" x="888" y="118.292">DB</text><path d="M883.5,69.2969 C883.5,59.2969 901.5,59.2969 901.5,59.2969 C901.5,59.2969 919.5,59.2969 919.5,69.2969 L919.5,95.2969 C919.5,105.2969 901.5,105.2969 901.5,105.2969 C901.5,105.2969 883.5,105.2969 883.5,95.2969 L883.5,69.2969 " fill="#FEFECE" style="stroke:#A80036;stroke-width:1.5;"/><path d="M883.5,69.2969 C883.5,79.2969 901.5,79.2969 901.5,79.2969 C901.5,79.2969 919.5,79.2969 919.5,69.2969 " fill="none" style="stroke:#A80036;stroke-width:1.5;"/><text fill="#000000" font-family="sans-serif" font-size="14" lengthAdjust="spacing" textLength="21" x="888" y="1266.7686">DB</text><path d="M883.5,1280.0703 C883.5,1270.0703 901.5,1270.0703 901.5,1270.0703 C901.5,1270.0703 919.5,1270.0703 919.5,1280.0703 L919.5,1306.0703 C919.5,1316.0703 901.5,1316.0703 901.5,1316.0703 C901.5,1316.0703 883.5,1316.0703 883.5,1306.0703 L883.5,1280.0703 " fill="#FEFECE" style="stroke:#A80036;stroke-width:1.5;"/><path d="M883.5,1280.0703 C883.5,1290.0703 901.5,1290.0703 901.5,1290.0703 C901.5,1290.0703 919.5,1290.0703 919.5,1280.0703 " fill="none" style="stroke:#A80036;stroke-width:1.5;"/><rect fill="#FFFFFF" height="1105.1797" style="stroke:#A80036;stroke-width:1.0;" width="10" x="24" y="131.5938"/><rect fill="#FFFFFF" height="288.1953" style="stroke:#A80036;stroke-width:1.0;" width="10" x="223" y="182.9922"/><rect fill="#FFFFFF" height="71.2656" style="stroke:#A80036;stroke-width:1.0;" width="10" x="223" y="572.7188"/><rect fill="#FFFFFF" height="333.5938" style="stroke:#A80036;stroke-width:1.0;" width="10" x="223" y="745.5156"/><rect fill="#FFFFFF" height="113.3984" style="stroke:#A80036;stroke-width:1.0;" width="10" x="223" y="1123.375"/><rect fill="#FFFFFF" height="145.6641" style="stroke:#A80036;stroke-width:1.0;" width="10" x="364" y="296.3906"/><rect fill="#FFFFFF" height="87.3984" style="stroke:#A80036;stroke-width:1.0;" width="10" x="504" y="325.5234"/><rect fill="#FFFFFF" height="160.7969" style="stroke:#A80036;stroke-width:1.0;" width="10" x="633" y="889.1797"/><rect fill="#FFFFFF" height="87.3984" style="stroke:#A80036;stroke-width:1.0;" width="10" x="796" y="933.4453"/><rect fill="#FFFFFF" height="29.1328" style="stroke:#A80036;stroke-width:1.0;" width="10" x="896.5" y="354.6563"/><rect fill="#FFFFFF" height="29.1328" style="stroke:#A80036;stroke-width:1.0;" width="10" x="896.5" y="962.5781"/><polygon fill="#A80036" points="211,178.9922,221,182.9922,211,186.9922,215,182.9922" style="stroke:#A80036;stroke-width:1.0;"/><line style="stroke:#A80036;stroke-width:1.0;" x1="34" x2="217" y1="182.9922" y2="182.9922"/><text fill="#000000" font-family="sans-serif" font-size="13" lengthAdjust="spacing" textLength="26" x="41" y="147.6606">GET</text><text fill="#000000" font-family="sans-serif" font-size="13" lengthAdjust="spacing" textLength="106" x="41" y="162.7935">/admin/emp-add</text><text fill="#000000" font-family="sans-serif" font-size="13" lengthAdjust="spacing" textLength="41" x="41" y="177.9263">form()</text><line style="stroke:#A80036;stroke-width:1.0;" x1="233" x2="275" y1="212.125" y2="212.125"/><line style="stroke:#A80036;stroke-width:1.0;" x1="275" x2="275" y1="212.125" y2="225.125"/><line style="stroke:#A80036;stroke-width:1.0;" x1="234" x2="275" y1="225.125" y2="225.125"/><polygon fill="#A80036" points="244,221.125,234,225.125,244,229.125,240,225.125" style="stroke:#A80036;stroke-width:1.0;"/><text fill="#000000" font-family="sans-serif" font-size="13" lengthAdjust="spacing" textLength="80" x="240" y="207.0591">setUpForm()</text><line style="stroke:#A80036;stroke-width:1.0;" x1="233" x2="275" y1="254.2578" y2="254.2578"/><line style="stroke:#A80036;stroke-width:1.0;" x1="275" x2="275" y1="254.2578" y2="267.2578"/><line style="stroke:#A80036;stroke-width:1.0;" x1="234" x2="275" y1="267.2578" y2="267.2578"/><polygon fill="#A80036" points="244,263.2578,234,267.2578,244,271.2578,240,267.2578" style="stroke:#A80036;stroke-width:1.0;"/><text fill="#000000" font-family="sans-serif" font-size="13" lengthAdjust="spacing" textLength="37" x="240" y="249.1919">bind()</text><polygon fill="#A80036" points="352,292.3906,362,296.3906,352,300.3906,356,296.3906" style="stroke:#A80036;stroke-width:1.0;"/><line style="stroke:#A80036;stroke-width:1.0;" x1="233" x2="358" y1="296.3906" y2="296.3906"/><text fill="#000000" font-family="sans-serif" font-size="13" lengthAdjust="spacing" textLength="49" x="240" y="291.3247">findAll()</text><polygon fill="#A80036" points="492,321.5234,502,325.5234,492,329.5234,496,325.5234" style="stroke:#A80036;stroke-width:1.0;"/><line style="stroke:#A80036;stroke-width:1.0;" x1="374" x2="498" y1="325.5234" y2="325.5234"/><text fill="#000000" font-family="sans-serif" font-size="13" lengthAdjust="spacing" textLength="49" x="381" y="320.4575">findAll()</text><polygon fill="#A80036" points="884.5,350.6563,894.5,354.6563,884.5,358.6563,888.5,354.6563" style="stroke:#A80036;stroke-width:1.0;"/><line style="stroke:#A80036;stroke-width:1.0;" x1="514" x2="890.5" y1="354.6563" y2="354.6563"/><text fill="#000000" font-family="sans-serif" font-size="13" lengthAdjust="spacing" textLength="61" x="521" y="349.5903">SELECT&#25991;</text><polygon fill="#A80036" points="525,379.7891,515,383.7891,525,387.7891,521,383.7891" style="stroke:#A80036;stroke-width:1.0;"/><line style="stroke:#A80036;stroke-width:1.0;stroke-dasharray:2.0,2.0;" x1="519" x2="900.5" y1="383.7891" y2="383.7891"/><text fill="#000000" font-family="sans-serif" font-size="13" lengthAdjust="spacing" textLength="106" x="531" y="378.7231">List&lt;Employee&gt;</text><polygon fill="#A80036" points="385,408.9219,375,412.9219,385,416.9219,381,412.9219" style="stroke:#A80036;stroke-width:1.0;"/><line style="stroke:#A80036;stroke-width:1.0;" x1="379" x2="508" y1="412.9219" y2="412.9219"/><text fill="#000000" font-family="sans-serif" font-size="13" lengthAdjust="spacing" textLength="106" x="391" y="407.856">List&lt;Employee&gt;</text><polygon fill="#A80036" points="244,438.0547,234,442.0547,244,446.0547,240,442.0547" style="stroke:#A80036;stroke-width:1.0;"/><line style="stroke:#A80036;stroke-width:1.0;stroke-dasharray:2.0,2.0;" x1="238" x2="368" y1="442.0547" y2="442.0547"/><text fill="#000000" font-family="sans-serif" font-size="13" lengthAdjust="spacing" textLength="106" x="250" y="436.9888">List&lt;Employee&gt;</text><polygon fill="#A80036" points="45,467.1875,35,471.1875,45,475.1875,41,471.1875" style="stroke:#A80036;stroke-width:1.0;"/><line style="stroke:#A80036;stroke-width:1.0;" x1="39" x2="227" y1="471.1875" y2="471.1875"/><text fill="#000000" font-family="sans-serif" font-size="13" lengthAdjust="spacing" textLength="52" x="51" y="466.1216">&#20837;&#21147;&#30011;&#38754;</text><line style="stroke:#A80036;stroke-width:1.0;" x1="34" x2="76" y1="500.3203" y2="500.3203"/><line style="stroke:#A80036;stroke-width:1.0;" x1="76" x2="76" y1="500.3203" y2="513.3203"/><line style="stroke:#A80036;stroke-width:1.0;" x1="35" x2="76" y1="513.3203" y2="513.3203"/><polygon fill="#A80036" points="45,509.3203,35,513.3203,45,517.3203,41,513.3203" style="stroke:#A80036;stroke-width:1.0;"/><text fill="#000000" font-family="sans-serif" font-size="13" lengthAdjust="spacing" textLength="78" x="41" y="495.2544">&#21830;&#21697;&#24773;&#22577;&#20837;&#21147;</text><polygon fill="#A80036" points="211,568.7188,221,572.7188,211,576.7188,215,572.7188" style="stroke:#A80036;stroke-width:1.0;"/><line style="stroke:#A80036;stroke-width:1.0;" x1="34" x2="217" y1="572.7188" y2="572.7188"/><text fill="#000000" font-family="sans-serif" font-size="13" lengthAdjust="spacing" textLength="34" x="41" y="537.3872">POST</text><text fill="#000000" font-family="sans-serif" font-size="13" lengthAdjust="spacing" textLength="159" x="41" y="552.52">/admin/emp-add/confirm</text><text fill="#000000" font-family="sans-serif" font-size="13" lengthAdjust="spacing" textLength="59" x="41" y="567.6528">confirm()</text><line style="stroke:#A80036;stroke-width:1.0;" x1="233" x2="275" y1="601.8516" y2="601.8516"/><line style="stroke:#A80036;stroke-width:1.0;" x1="275" x2="275" y1="601.8516" y2="614.8516"/><line style="stroke:#A80036;stroke-width:1.0;" x1="234" x2="275" y1="614.8516" y2="614.8516"/><polygon fill="#A80036" points="244,610.8516,234,614.8516,244,618.8516,240,614.8516" style="stroke:#A80036;stroke-width:1.0;"/><text fill="#000000" font-family="sans-serif" font-size="13" lengthAdjust="spacing" textLength="65" x="240" y="596.7856">&#12496;&#12522;&#12487;&#12540;&#12488;</text><polygon fill="#A80036" points="45,639.9844,35,643.9844,45,647.9844,41,643.9844" style="stroke:#A80036;stroke-width:1.0;"/><line style="stroke:#A80036;stroke-width:1.0;stroke-dasharray:2.0,2.0;" x1="39" x2="227" y1="643.9844" y2="643.9844"/><text fill="#000000" font-family="sans-serif" font-size="13" lengthAdjust="spacing" textLength="52" x="51" y="638.9185">&#30906;&#35469;&#30011;&#38754;</text><line style="stroke:#A80036;stroke-width:1.0;" x1="34" x2="76" y1="673.1172" y2="673.1172"/><line style="stroke:#A80036;stroke-width:1.0;" x1="76" x2="76" y1="673.1172" y2="686.1172"/><line style="stroke:#A80036;stroke-width:1.0;" x1="35" x2="76" y1="686.1172" y2="686.1172"/><polygon fill="#A80036" points="45,682.1172,35,686.1172,45,690.1172,41,686.1172" style="stroke:#A80036;stroke-width:1.0;"/><text fill="#000000" font-family="sans-serif" font-size="13" lengthAdjust="spacing" textLength="78" x="41" y="668.0513">&#20837;&#21147;&#20869;&#23481;&#30906;&#35469;</text><polygon fill="#A80036" points="211,741.5156,221,745.5156,211,749.5156,215,745.5156" style="stroke:#A80036;stroke-width:1.0;"/><line style="stroke:#A80036;stroke-width:1.0;" x1="34" x2="217" y1="745.5156" y2="745.5156"/><text fill="#000000" font-family="sans-serif" font-size="13" lengthAdjust="spacing" textLength="34" x="41" y="710.1841">POST</text><text fill="#000000" font-family="sans-serif" font-size="13" lengthAdjust="spacing" textLength="162" x="41" y="725.3169">/admin/emp-add/execute</text><text fill="#000000" font-family="sans-serif" font-size="13" lengthAdjust="spacing" textLength="62" x="41" y="740.4497">execute()</text><line style="stroke:#A80036;stroke-width:1.0;" x1="233" x2="275" y1="774.6484" y2="774.6484"/><line style="stroke:#A80036;stroke-width:1.0;" x1="275" x2="275" y1="774.6484" y2="787.6484"/><line style="stroke:#A80036;stroke-width:1.0;" x1="234" x2="275" y1="787.6484" y2="787.6484"/><polygon fill="#A80036" points="244,783.6484,234,787.6484,244,791.6484,240,787.6484" style="stroke:#A80036;stroke-width:1.0;"/><text fill="#000000" font-family="sans-serif" font-size="13" lengthAdjust="spacing" textLength="91" x="240" y="769.5825">&#12475;&#12483;&#12471;&#12519;&#12531;&#30906;&#35469;</text><line style="stroke:#A80036;stroke-width:1.0;" x1="233" x2="275" y1="831.9141" y2="831.9141"/><line style="stroke:#A80036;stroke-width:1.0;" x1="275" x2="275" y1="831.9141" y2="844.9141"/><line style="stroke:#A80036;stroke-width:1.0;" x1="234" x2="275" y1="844.9141" y2="844.9141"/><polygon fill="#A80036" points="244,840.9141,234,844.9141,244,848.9141,240,844.9141" style="stroke:#A80036;stroke-width:1.0;"/><text fill="#000000" font-family="sans-serif" font-size="13" lengthAdjust="spacing" textLength="78" x="240" y="811.7153">&#12501;&#12457;&#12540;&#12512;&#12363;&#12425;</text><text fill="#000000" font-family="sans-serif" font-size="13" lengthAdjust="spacing" textLength="117" x="240" y="826.8481">&#12456;&#12531;&#12486;&#12451;&#12486;&#12451;&#12395;&#22793;&#25563;</text><polygon fill="#A80036" points="621,885.1797,631,889.1797,621,893.1797,625,889.1797" style="stroke:#A80036;stroke-width:1.0;"/><line style="stroke:#A80036;stroke-width:1.0;" x1="233" x2="627" y1="889.1797" y2="889.1797"/><text fill="#000000" font-family="sans-serif" font-size="13" lengthAdjust="spacing" textLength="36" x="240" y="868.981">insert</text><text fill="#000000" font-family="sans-serif" font-size="13" lengthAdjust="spacing" textLength="134" x="240" y="884.1138">(EmpployeeAccount)</text><polygon fill="#A80036" points="784,929.4453,794,933.4453,784,937.4453,788,933.4453" style="stroke:#A80036;stroke-width:1.0;"/><line style="stroke:#A80036;stroke-width:1.0;" x1="643" x2="790" y1="933.4453" y2="933.4453"/><text fill="#000000" font-family="sans-serif" font-size="13" lengthAdjust="spacing" textLength="36" x="650" y="913.2466">insert</text><text fill="#000000" font-family="sans-serif" font-size="13" lengthAdjust="spacing" textLength="134" x="650" y="928.3794">(EmpployeeAccount)</text><polygon fill="#A80036" points="884.5,958.5781,894.5,962.5781,884.5,966.5781,888.5,962.5781" style="stroke:#A80036;stroke-width:1.0;"/><line style="stroke:#A80036;stroke-width:1.0;" x1="806" x2="890.5" y1="962.5781" y2="962.5781"/><text fill="#000000" font-family="sans-serif" font-size="13" lengthAdjust="spacing" textLength="58" x="813" y="957.5122">INSERT&#25991;</text><polygon fill="#A80036" points="817,987.7109,807,991.7109,817,995.7109,813,991.7109" style="stroke:#A80036;stroke-width:1.0;"/><line style="stroke:#A80036;stroke-width:1.0;stroke-dasharray:2.0,2.0;" x1="811" x2="900.5" y1="991.7109" y2="991.7109"/><text fill="#000000" font-family="sans-serif" font-size="13" lengthAdjust="spacing" textLength="27" x="823" y="986.645">void</text><polygon fill="#A80036" points="654,1016.8438,644,1020.8438,654,1024.8438,650,1020.8438" style="stroke:#A80036;stroke-width:1.0;"/><line style="stroke:#A80036;stroke-width:1.0;stroke-dasharray:2.0,2.0;" x1="648" x2="800" y1="1020.8438" y2="1020.8438"/><text fill="#000000" font-family="sans-serif" font-size="13" lengthAdjust="spacing" textLength="27" x="660" y="1015.7778">void</text><polygon fill="#A80036" points="244,1045.9766,234,1049.9766,244,1053.9766,240,1049.9766" style="stroke:#A80036;stroke-width:1.0;"/><line style="stroke:#A80036;stroke-width:1.0;" x1="238" x2="637" y1="1049.9766" y2="1049.9766"/><text fill="#000000" font-family="sans-serif" font-size="13" lengthAdjust="spacing" textLength="27" x="250" y="1044.9106">void</text><polygon fill="#A80036" points="45,1075.1094,35,1079.1094,45,1083.1094,41,1079.1094" style="stroke:#A80036;stroke-width:1.0;"/><line style="stroke:#A80036;stroke-width:1.0;stroke-dasharray:2.0,2.0;" x1="39" x2="227" y1="1079.1094" y2="1079.1094"/><text fill="#000000" font-family="sans-serif" font-size="13" lengthAdjust="spacing" textLength="78" x="51" y="1074.0435">&#12522;&#12480;&#12452;&#12524;&#12463;&#12488;</text><polygon fill="#A80036" points="211,1119.375,221,1123.375,211,1127.375,215,1123.375" style="stroke:#A80036;stroke-width:1.0;"/><line style="stroke:#A80036;stroke-width:1.0;" x1="34" x2="217" y1="1123.375" y2="1123.375"/><text fill="#000000" font-family="sans-serif" font-size="13" lengthAdjust="spacing" textLength="26" x="41" y="1103.1763">GET</text><text fill="#000000" font-family="sans-serif" font-size="13" lengthAdjust="spacing" textLength="170" x="41" y="1118.3091">/admin/emp-add/complete</text><line style="stroke:#A80036;stroke-width:1.0;" x1="233" x2="275" y1="1152.5078" y2="1152.5078"/><line style="stroke:#A80036;stroke-width:1.0;" x1="275" x2="275" y1="1152.5078" y2="1165.5078"/><line style="stroke:#A80036;stroke-width:1.0;" x1="234" x2="275" y1="1165.5078" y2="1165.5078"/><polygon fill="#A80036" points="244,1161.5078,234,1165.5078,244,1169.5078,240,1165.5078" style="stroke:#A80036;stroke-width:1.0;"/><text fill="#000000" font-family="sans-serif" font-size="13" lengthAdjust="spacing" textLength="91" x="240" y="1147.4419">&#12475;&#12483;&#12471;&#12519;&#12531;&#30772;&#26820;</text><line style="stroke:#A80036;stroke-width:1.0;" x1="233" x2="275" y1="1194.6406" y2="1194.6406"/><line style="stroke:#A80036;stroke-width:1.0;" x1="275" x2="275" y1="1194.6406" y2="1207.6406"/><line style="stroke:#A80036;stroke-width:1.0;" x1="234" x2="275" y1="1207.6406" y2="1207.6406"/><polygon fill="#A80036" points="244,1203.6406,234,1207.6406,244,1211.6406,240,1207.6406" style="stroke:#A80036;stroke-width:1.0;"/><text fill="#000000" font-family="sans-serif" font-size="13" lengthAdjust="spacing" textLength="63" x="240" y="1189.5747">Model&#36861;&#21152;</text><polygon fill="#A80036" points="40,1232.7734,30,1236.7734,40,1240.7734,36,1236.7734" style="stroke:#A80036;stroke-width:1.0;"/><line style="stroke:#A80036;stroke-width:1.0;" x1="34" x2="227" y1="1236.7734" y2="1236.7734"/><text fill="#000000" font-family="sans-serif" font-size="13" lengthAdjust="spacing" textLength="52" x="46" y="1231.7075">&#23436;&#20102;&#30011;&#38754;</text><!--SRC=[bLLRJnD157xVNp7X1GnfWBxP41B4Qapm4WflVTdkJc7YThRP7QgyqHbRxj44CJ74s02YWC4WHWD8-37ZjkLVE9S5klGMNhOpv_lEcNE-EMVglqGOUAuF3L-iygPdve0_OzhkAuIdGTPq148GSI2O6XiSl9y0rPLISBvUdoznkiNf0QUxd1rpjbZxU7Qv-hEwzxdEpW6dVpZxo-cHnEX9i7bic1PnFS3PhW9-0zC7ipxqf1qLJ0BrJYH0a8No9YQW9vdBE-uSXAEMvSvYCchRQJpcOkAvZWEz7Xd2kjwsTatZ5FGAo8AAxHUieNQy2PXtVIHod5DKJso7EgRJ53hUXTxYXBXXcyJCc3u43nz8evqnZ5uGbBu4ovkrzsUNdxOCgGk8ZJIK2lhxGG8yJawcyO1fvn0UWBbyp9JoP5qlrtVFQE16FHF0XsGg_wWhBOEmtSIG-kd3im8UTHp1K3Q1AS5kWzeeK3kZeLHoF3asMVsm44B3iPZ4n3S1nf5FXgzK6z61XsDXu5QCXkHa79r937GaYboqe39UH6UXUsthjBw_TajtzIku6-LWlLXbfQ1ofFtQtioBvwccgnaGf2poScaSBZhBpzaxplOvMv3JmXOZr4W9aPHbwnok_Zijjob1fHsKIy7XYVQxMmdmDRHcYPYLSD6b17h66LClmLVn38G7zWBiYc7tqFGCaMLkSBgdQgo4nT8BNbnDuzhUAI_kSxea0z0JpigIGhzn9kcTfMk8MLmH8T9OEHxB87Gx_1OFWfsbwjlDvXQFQmaG5jg8iUqJVHIPPDNpyQkUxyxMh8OXUF8ibPou7e9uP0WABh9rV6aDNQD0jE0RKDsbzBf15QWQQPxJ7Sw-S_f3jbFpjRTxKaJVYZ621DxbgYk_gjjlEZayTMter2_EW-LAY-7KizdOo3QC_4ty1m00]--></g></svg>