<svg xmlns="http://www.w3.org/2000/svg" xmlns:xlink="http://www.w3.org/1999/xlink" contentStyleType="text/css" height="1337px" preserveAspectRatio="none" style="width:946px;height:1337px;background:#FFFFFF;" version="1.1" viewBox="0 0 946 1337" width="946px" zoomAndPan="magnify"><defs/><g><text fill="#000000" font-family="sans-serif" font-size="14" font-weight="bold" lengthAdjust="spacing" textLength="318.2118" x="307.7469" y="27.9951">UC009: &#25285;&#24403;&#32773;&#12450;&#12459;&#12454;&#12531;&#12488;&#30331;&#37682;&#27231;&#33021; &#12471;&#12540;&#12465;&#12531;&#12473;&#22259;</text><rect fill="#FFFFFF" height="1105.1797" style="stroke:#A80036;stroke-width:1.0;" width="10" x="23.9999" y="131.5938"/><rect fill="#FFFFFF" height="288.1953" style="stroke:#A80036;stroke-width:1.0;" width="10" x="225.6689" y="182.9922"/><rect fill="#FFFFFF" height="71.2656" style="stroke:#A80036;stroke-width:1.0;" width="10" x="225.6689" y="572.7188"/><rect fill="#FFFFFF" height="375.7266" style="stroke:#A80036;stroke-width:1.0;" width="10" x="225.6689" y="745.5156"/><rect fill="#FFFFFF" height="71.2656" style="stroke:#A80036;stroke-width:1.0;" width="10" x="225.6689" y="1165.5078"/><rect fill="#FFFFFF" height="145.6641" style="stroke:#A80036;stroke-width:1.0;" width="10" x="376.669" y="296.3906"/><rect fill="#FFFFFF" height="87.3984" style="stroke:#A80036;stroke-width:1.0;" width="10" x="519.563" y="325.5234"/><rect fill="#FFFFFF" height="160.7969" style="stroke:#A80036;stroke-width:1.0;" width="10" x="644.1539" y="889.1797"/><rect fill="#FFFFFF" height="87.3984" style="stroke:#A80036;stroke-width:1.0;" width="10" x="808.6509" y="933.4453"/><rect fill="#FFFFFF" height="29.1328" style="stroke:#A80036;stroke-width:1.0;" width="10" x="906.7056" y="354.6563"/><rect fill="#FFFFFF" height="29.1328" style="stroke:#A80036;stroke-width:1.0;" width="10" x="906.7056" y="962.5781"/><line style="stroke:#A80036;stroke-width:1.0;stroke-dasharray:5.0,5.0;" x1="28" x2="28" y1="121.5938" y2="1254.7734"/><line style="stroke:#A80036;stroke-width:1.0;stroke-dasharray:5.0,5.0;" x1="229.9389" x2="229.9389" y1="121.5938" y2="1254.7734"/><line style="stroke:#A80036;stroke-width:1.0;stroke-dasharray:5.0,5.0;" x1="381.0005" x2="381.0005" y1="121.5938" y2="1254.7734"/><line style="stroke:#A80036;stroke-width:1.0;stroke-dasharray:5.0,5.0;" x1="524.0269" x2="524.0269" y1="121.5938" y2="1254.7734"/><line style="stroke:#A80036;stroke-width:1.0;stroke-dasharray:5.0,5.0;" x1="649.0992" x2="649.0992" y1="121.5938" y2="1254.7734"/><line style="stroke:#A80036;stroke-width:1.0;stroke-dasharray:5.0,5.0;" x1="813.5962" x2="813.5962" y1="121.5938" y2="1254.7734"/><line style="stroke:#A80036;stroke-width:1.0;stroke-dasharray:5.0,5.0;" x1="911.7056" x2="911.7056" y1="121.5938" y2="1254.7734"/><text fill="#000000" font-family="sans-serif" font-size="14" lengthAdjust="spacing" textLength="41.9998" x="5" y="118.292">&#12518;&#12540;&#12470;</text><ellipse cx="28.9999" cy="52.2969" fill="#FEFECE" rx="8" ry="8" style="stroke:#A80036;stroke-width:2.0;"/><path d="M28.9999,60.2969 L28.9999,87.2969 M15.9999,68.2969 L41.9999,68.2969 M28.9999,87.2969 L15.9999,102.2969 M28.9999,87.2969 L41.9999,102.2969 " fill="none" style="stroke:#A80036;stroke-width:2.0;"/><text fill="#000000" font-family="sans-serif" font-size="14" lengthAdjust="spacing" textLength="41.9998" x="5" y="1266.7686">&#12518;&#12540;&#12470;</text><ellipse cx="28.9999" cy="1280.0703" fill="#FEFECE" rx="8" ry="8" style="stroke:#A80036;stroke-width:2.0;"/><path d="M28.9999,1288.0703 L28.9999,1315.0703 M15.9999,1296.0703 L41.9999,1296.0703 M28.9999,1315.0703 L15.9999,1330.0703 M28.9999,1315.0703 L41.9999,1330.0703 " fill="none" style="stroke:#A80036;stroke-width:2.0;"/><rect fill="#FEFECE" height="46.5938" style="stroke:#A80036;stroke-width:1.5;" width="167.46" x="146.9389" y="74"/><text fill="#000000" font-family="sans-serif" font-size="14" lengthAdjust="spacing" textLength="153.46" x="153.9389" y="93.9951">EmployeeAccountAdd</text><text fill="#000000" font-family="sans-serif" font-size="14" lengthAdjust="spacing" textLength="69.1729" x="196.0824" y="110.292">Controller</text><rect fill="#FEFECE" height="46.5938" style="stroke:#A80036;stroke-width:1.5;" width="167.46" x="146.9389" y="1253.7734"/><text fill="#000000" font-family="sans-serif" font-size="14" lengthAdjust="spacing" textLength="153.46" x="153.9389" y="1273.7686">EmployeeAccountAdd</text><text fill="#000000" font-family="sans-serif" font-size="14" lengthAdjust="spacing" textLength="69.1729" x="196.0824" y="1290.0654">Controller</text><rect fill="#FEFECE" height="46.5938" style="stroke:#A80036;stroke-width:1.5;" width="83.3369" x="340.0005" y="74"/><text fill="#000000" font-family="sans-serif" font-size="14" lengthAdjust="spacing" textLength="69.3369" x="347.0005" y="93.9951">Employee</text><text fill="#000000" font-family="sans-serif" font-size="14" lengthAdjust="spacing" textLength="51.7412" x="355.7984" y="110.292">Service</text><rect fill="#FEFECE" height="46.5938" style="stroke:#A80036;stroke-width:1.5;" width="83.3369" x="340.0005" y="1253.7734"/><text fill="#000000" font-family="sans-serif" font-size="14" lengthAdjust="spacing" textLength="69.3369" x="347.0005" y="1273.7686">Employee</text><text fill="#000000" font-family="sans-serif" font-size="14" lengthAdjust="spacing" textLength="51.7412" x="355.7984" y="1290.0654">Service</text><rect fill="#FEFECE" height="46.5938" style="stroke:#A80036;stroke-width:1.5;" width="89.0723" x="480.0269" y="74"/><text fill="#000000" font-family="sans-serif" font-size="14" lengthAdjust="spacing" textLength="69.3369" x="489.8946" y="93.9951">Employee</text><text fill="#000000" font-family="sans-serif" font-size="14" lengthAdjust="spacing" textLength="75.0723" x="487.0269" y="110.292">Repository</text><rect fill="#FEFECE" height="46.5938" style="stroke:#A80036;stroke-width:1.5;" width="89.0723" x="480.0269" y="1253.7734"/><text fill="#000000" font-family="sans-serif" font-size="14" lengthAdjust="spacing" textLength="69.3369" x="489.8946" y="1273.7686">Employee</text><text fill="#000000" font-family="sans-serif" font-size="14" lengthAdjust="spacing" textLength="75.0723" x="487.0269" y="1290.0654">Repository</text><rect fill="#FEFECE" height="46.5938" style="stroke:#A80036;stroke-width:1.5;" width="140.1094" x="579.0992" y="74"/><text fill="#000000" font-family="sans-serif" font-size="14" lengthAdjust="spacing" textLength="126.1094" x="586.0992" y="93.9951">EmployeeAccount</text><text fill="#000000" font-family="sans-serif" font-size="14" lengthAdjust="spacing" textLength="51.7412" x="623.2832" y="110.292">Service</text><rect fill="#FEFECE" height="46.5938" style="stroke:#A80036;stroke-width:1.5;" width="140.1094" x="579.0992" y="1253.7734"/><text fill="#000000" font-family="sans-serif" font-size="14" lengthAdjust="spacing" textLength="126.1094" x="586.0992" y="1273.7686">EmployeeAccount</text><text fill="#000000" font-family="sans-serif" font-size="14" lengthAdjust="spacing" textLength="51.7412" x="623.2832" y="1290.0654">Service</text><rect fill="#FEFECE" height="46.5938" style="stroke:#A80036;stroke-width:1.5;" width="140.1094" x="743.5962" y="74"/><text fill="#000000" font-family="sans-serif" font-size="14" lengthAdjust="spacing" textLength="126.1094" x="750.5962" y="93.9951">EmployeeAccount</text><text fill="#000000" font-family="sans-serif" font-size="14" lengthAdjust="spacing" textLength="75.0723" x="776.1148" y="110.292">Repository</text><rect fill="#FEFECE" height="46.5938" style="stroke:#A80036;stroke-width:1.5;" width="140.1094" x="743.5962" y="1253.7734"/><text fill="#000000" font-family="sans-serif" font-size="14" lengthAdjust="spacing" textLength="126.1094" x="750.5962" y="1273.7686">EmployeeAccount</text><text fill="#000000" font-family="sans-serif" font-size="14" lengthAdjust="spacing" textLength="75.0723" x="776.1148" y="1290.0654">Repository</text><text fill="#000000" font-family="sans-serif" font-size="14" lengthAdjust="spacing" textLength="20.3848" x="898.5132" y="118.292">DB</text><path d="M893.7056,69.2969 C893.7056,59.2969 911.7056,59.2969 911.7056,59.2969 C911.7056,59.2969 929.7056,59.2969 929.7056,69.2969 L929.7056,95.2969 C929.7056,105.2969 911.7056,105.2969 911.7056,105.2969 C911.7056,105.2969 893.7056,105.2969 893.7056,95.2969 L893.7056,69.2969 " fill="#FEFECE" style="stroke:#A80036;stroke-width:1.5;"/><path d="M893.7056,69.2969 C893.7056,79.2969 911.7056,79.2969 911.7056,79.2969 C911.7056,79.2969 929.7056,79.2969 929.7056,69.2969 " fill="none" style="stroke:#A80036;stroke-width:1.5;"/><text fill="#000000" font-family="sans-serif" font-size="14" lengthAdjust="spacing" textLength="20.3848" x="898.5132" y="1266.7686">DB</text><path d="M893.7056,1280.0703 C893.7056,1270.0703 911.7056,1270.0703 911.7056,1270.0703 C911.7056,1270.0703 929.7056,1270.0703 929.7056,1280.0703 L929.7056,1306.0703 C929.7056,1316.0703 911.7056,1316.0703 911.7056,1316.0703 C911.7056,1316.0703 893.7056,1316.0703 893.7056,1306.0703 L893.7056,1280.0703 " fill="#FEFECE" style="stroke:#A80036;stroke-width:1.5;"/><path d="M893.7056,1280.0703 C893.7056,1290.0703 911.7056,1290.0703 911.7056,1290.0703 C911.7056,1290.0703 929.7056,1290.0703 929.7056,1280.0703 " fill="none" style="stroke:#A80036;stroke-width:1.5;"/><rect fill="#FFFFFF" height="1105.1797" style="stroke:#A80036;stroke-width:1.0;" width="10" x="23.9999" y="131.5938"/><rect fill="#FFFFFF" height="288.1953" style="stroke:#A80036;stroke-width:1.0;" width="10" x="225.6689" y="182.9922"/><rect fill="#FFFFFF" height="71.2656" style="stroke:#A80036;stroke-width:1.0;" width="10" x="225.6689" y="572.7188"/><rect fill="#FFFFFF" height="375.7266" style="stroke:#A80036;stroke-width:1.0;" width="10" x="225.6689" y="745.5156"/><rect fill="#FFFFFF" height="71.2656" style="stroke:#A80036;stroke-width:1.0;" width="10" x="225.6689" y="1165.5078"/><rect fill="#FFFFFF" height="145.6641" style="stroke:#A80036;stroke-width:1.0;" width="10" x="376.669" y="296.3906"/><rect fill="#FFFFFF" height="87.3984" style="stroke:#A80036;stroke-width:1.0;" width="10" x="519.563" y="325.5234"/><rect fill="#FFFFFF" height="160.7969" style="stroke:#A80036;stroke-width:1.0;" width="10" x="644.1539" y="889.1797"/><rect fill="#FFFFFF" height="87.3984" style="stroke:#A80036;stroke-width:1.0;" width="10" x="808.6509" y="933.4453"/><rect fill="#FFFFFF" height="29.1328" style="stroke:#A80036;stroke-width:1.0;" width="10" x="906.7056" y="354.6563"/><rect fill="#FFFFFF" height="29.1328" style="stroke:#A80036;stroke-width:1.0;" width="10" x="906.7056" y="962.5781"/><polygon fill="#A80036" points="213.6689,178.9922,223.6689,182.9922,213.6689,186.9922,217.6689,182.9922" style="stroke:#A80036;stroke-width:1.0;"/><line style="stroke:#A80036;stroke-width:1.0;" x1="33.9999" x2="219.6689" y1="182.9922" y2="182.9922"/><text fill="#000000" font-family="sans-serif" font-size="13" lengthAdjust="spacing" textLength="26.2285" x="40.9999" y="147.6606">GET</text><text fill="#000000" font-family="sans-serif" font-size="13" lengthAdjust="spacing" textLength="107.5674" x="40.9999" y="162.7935">/admin/emp-add</text><text fill="#000000" font-family="sans-serif" font-size="13" lengthAdjust="spacing" textLength="40.6821" x="40.9999" y="177.9263">form()</text><line style="stroke:#A80036;stroke-width:1.0;" x1="235.6689" x2="277.6689" y1="212.125" y2="212.125"/><line style="stroke:#A80036;stroke-width:1.0;" x1="277.6689" x2="277.6689" y1="212.125" y2="225.125"/><line style="stroke:#A80036;stroke-width:1.0;" x1="236.6689" x2="277.6689" y1="225.125" y2="225.125"/><polygon fill="#A80036" points="246.6689,221.125,236.6689,225.125,246.6689,229.125,242.6689,225.125" style="stroke:#A80036;stroke-width:1.0;"/><text fill="#000000" font-family="sans-serif" font-size="13" lengthAdjust="spacing" textLength="81.2183" x="242.6689" y="207.0591">setUpForm()</text><line style="stroke:#A80036;stroke-width:1.0;" x1="235.6689" x2="277.6689" y1="254.2578" y2="254.2578"/><line style="stroke:#A80036;stroke-width:1.0;" x1="277.6689" x2="277.6689" y1="254.2578" y2="267.2578"/><line style="stroke:#A80036;stroke-width:1.0;" x1="236.6689" x2="277.6689" y1="267.2578" y2="267.2578"/><polygon fill="#A80036" points="246.6689,263.2578,236.6689,267.2578,246.6689,271.2578,242.6689,267.2578" style="stroke:#A80036;stroke-width:1.0;"/><text fill="#000000" font-family="sans-serif" font-size="13" lengthAdjust="spacing" textLength="38.4985" x="242.6689" y="249.1919">bind()</text><polygon fill="#A80036" points="364.669,292.3906,374.669,296.3906,364.669,300.3906,368.669,296.3906" style="stroke:#A80036;stroke-width:1.0;"/><line style="stroke:#A80036;stroke-width:1.0;" x1="235.6689" x2="370.669" y1="296.3906" y2="296.3906"/><text fill="#000000" font-family="sans-serif" font-size="13" lengthAdjust="spacing" textLength="50.9399" x="242.6689" y="291.3247">findAll()</text><polygon fill="#A80036" points="507.563,321.5234,517.563,325.5234,507.563,329.5234,511.563,325.5234" style="stroke:#A80036;stroke-width:1.0;"/><line style="stroke:#A80036;stroke-width:1.0;" x1="386.669" x2="513.563" y1="325.5234" y2="325.5234"/><text fill="#000000" font-family="sans-serif" font-size="13" lengthAdjust="spacing" textLength="50.9399" x="393.669" y="320.4575">findAll()</text><polygon fill="#A80036" points="894.7056,350.6563,904.7056,354.6563,894.7056,358.6563,898.7056,354.6563" style="stroke:#A80036;stroke-width:1.0;"/><line style="stroke:#A80036;stroke-width:1.0;" x1="529.563" x2="900.7056" y1="354.6563" y2="354.6563"/><text fill="#000000" font-family="sans-serif" font-size="13" lengthAdjust="spacing" textLength="61.9404" x="536.563" y="349.5903">SELECT&#25991;</text><polygon fill="#A80036" points="540.563,379.7891,530.563,383.7891,540.563,387.7891,536.563,383.7891" style="stroke:#A80036;stroke-width:1.0;"/><line style="stroke:#A80036;stroke-width:1.0;stroke-dasharray:2.0,2.0;" x1="534.563" x2="910.7056" y1="383.7891" y2="383.7891"/><text fill="#000000" font-family="sans-serif" font-size="13" lengthAdjust="spacing" textLength="108.894" x="546.563" y="378.7231">List&lt;Employee&gt;</text><polygon fill="#A80036" points="397.669,408.9219,387.669,412.9219,397.669,416.9219,393.669,412.9219" style="stroke:#A80036;stroke-width:1.0;"/><line style="stroke:#A80036;stroke-width:1.0;" x1="391.669" x2="523.563" y1="412.9219" y2="412.9219"/><text fill="#000000" font-family="sans-serif" font-size="13" lengthAdjust="spacing" textLength="108.894" x="403.669" y="407.856">List&lt;Employee&gt;</text><polygon fill="#A80036" points="246.6689,438.0547,236.6689,442.0547,246.6689,446.0547,242.6689,442.0547" style="stroke:#A80036;stroke-width:1.0;"/><line style="stroke:#A80036;stroke-width:1.0;stroke-dasharray:2.0,2.0;" x1="240.6689" x2="380.669" y1="442.0547" y2="442.0547"/><text fill="#000000" font-family="sans-serif" font-size="13" lengthAdjust="spacing" textLength="108.894" x="252.6689" y="436.9888">List&lt;Employee&gt;</text><polygon fill="#A80036" points="44.9999,467.1875,34.9999,471.1875,44.9999,475.1875,40.9999,471.1875" style="stroke:#A80036;stroke-width:1.0;"/><line style="stroke:#A80036;stroke-width:1.0;" x1="38.9999" x2="229.6689" y1="471.1875" y2="471.1875"/><text fill="#000000" font-family="sans-serif" font-size="13" lengthAdjust="spacing" textLength="52.0001" x="50.9999" y="466.1216">&#20837;&#21147;&#30011;&#38754;</text><line style="stroke:#A80036;stroke-width:1.0;" x1="33.9999" x2="75.9999" y1="500.3203" y2="500.3203"/><line style="stroke:#A80036;stroke-width:1.0;" x1="75.9999" x2="75.9999" y1="500.3203" y2="513.3203"/><line style="stroke:#A80036;stroke-width:1.0;" x1="34.9999" x2="75.9999" y1="513.3203" y2="513.3203"/><polygon fill="#A80036" points="44.9999,509.3203,34.9999,513.3203,44.9999,517.3203,40.9999,513.3203" style="stroke:#A80036;stroke-width:1.0;"/><text fill="#000000" font-family="sans-serif" font-size="13" lengthAdjust="spacing" textLength="78.0001" x="40.9999" y="495.2544">&#21830;&#21697;&#24773;&#22577;&#20837;&#21147;</text><polygon fill="#A80036" points="213.6689,568.7188,223.6689,572.7188,213.6689,576.7188,217.6689,572.7188" style="stroke:#A80036;stroke-width:1.0;"/><line style="stroke:#A80036;stroke-width:1.0;" x1="33.9999" x2="219.6689" y1="572.7188" y2="572.7188"/><text fill="#000000" font-family="sans-serif" font-size="13" lengthAdjust="spacing" textLength="34.2646" x="40.9999" y="537.3872">POST</text><text fill="#000000" font-family="sans-serif" font-size="13" lengthAdjust="spacing" textLength="161.4844" x="40.9999" y="552.52">/admin/emp-add/confirm</text><text fill="#000000" font-family="sans-serif" font-size="13" lengthAdjust="spacing" textLength="59.6807" x="40.9999" y="567.6528">confirm()</text><line style="stroke:#A80036;stroke-width:1.0;" x1="235.6689" x2="277.6689" y1="601.8516" y2="601.8516"/><line style="stroke:#A80036;stroke-width:1.0;" x1="277.6689" x2="277.6689" y1="601.8516" y2="614.8516"/><line style="stroke:#A80036;stroke-width:1.0;" x1="236.6689" x2="277.6689" y1="614.8516" y2="614.8516"/><polygon fill="#A80036" points="246.6689,610.8516,236.6689,614.8516,246.6689,618.8516,242.6689,614.8516" style="stroke:#A80036;stroke-width:1.0;"/><text fill="#000000" font-family="sans-serif" font-size="13" lengthAdjust="spacing" textLength="65.0001" x="242.6689" y="596.7856">&#12496;&#12522;&#12487;&#12540;&#12488;</text><polygon fill="#A80036" points="44.9999,639.9844,34.9999,643.9844,44.9999,647.9844,40.9999,643.9844" style="stroke:#A80036;stroke-width:1.0;"/><line style="stroke:#A80036;stroke-width:1.0;stroke-dasharray:2.0,2.0;" x1="38.9999" x2="229.6689" y1="643.9844" y2="643.9844"/><text fill="#000000" font-family="sans-serif" font-size="13" lengthAdjust="spacing" textLength="52.0001" x="50.9999" y="638.9185">&#30906;&#35469;&#30011;&#38754;</text><line style="stroke:#A80036;stroke-width:1.0;" x1="33.9999" x2="75.9999" y1="673.1172" y2="673.1172"/><line style="stroke:#A80036;stroke-width:1.0;" x1="75.9999" x2="75.9999" y1="673.1172" y2="686.1172"/><line style="stroke:#A80036;stroke-width:1.0;" x1="34.9999" x2="75.9999" y1="686.1172" y2="686.1172"/><polygon fill="#A80036" points="44.9999,682.1172,34.9999,686.1172,44.9999,690.1172,40.9999,686.1172" style="stroke:#A80036;stroke-width:1.0;"/><text fill="#000000" font-family="sans-serif" font-size="13" lengthAdjust="spacing" textLength="78.0001" x="40.9999" y="668.0513">&#20837;&#21147;&#20869;&#23481;&#30906;&#35469;</text><polygon fill="#A80036" points="213.6689,741.5156,223.6689,745.5156,213.6689,749.5156,217.6689,745.5156" style="stroke:#A80036;stroke-width:1.0;"/><line style="stroke:#A80036;stroke-width:1.0;" x1="33.9999" x2="219.6689" y1="745.5156" y2="745.5156"/><text fill="#000000" font-family="sans-serif" font-size="13" lengthAdjust="spacing" textLength="34.2646" x="40.9999" y="710.1841">POST</text><text fill="#000000" font-family="sans-serif" font-size="13" lengthAdjust="spacing" textLength="164.1187" x="40.9999" y="725.3169">/admin/emp-add/execute</text><text fill="#000000" font-family="sans-serif" font-size="13" lengthAdjust="spacing" textLength="62.3149" x="40.9999" y="740.4497">execute()</text><line style="stroke:#A80036;stroke-width:1.0;" x1="235.6689" x2="277.6689" y1="774.6484" y2="774.6484"/><line style="stroke:#A80036;stroke-width:1.0;" x1="277.6689" x2="277.6689" y1="774.6484" y2="787.6484"/><line style="stroke:#A80036;stroke-width:1.0;" x1="236.6689" x2="277.6689" y1="787.6484" y2="787.6484"/><polygon fill="#A80036" points="246.6689,783.6484,236.6689,787.6484,246.6689,791.6484,242.6689,787.6484" style="stroke:#A80036;stroke-width:1.0;"/><text fill="#000000" font-family="sans-serif" font-size="13" lengthAdjust="spacing" textLength="91.0001" x="242.6689" y="769.5825">&#12475;&#12483;&#12471;&#12519;&#12531;&#30906;&#35469;</text><line style="stroke:#A80036;stroke-width:1.0;" x1="235.6689" x2="277.6689" y1="831.9141" y2="831.9141"/><line style="stroke:#A80036;stroke-width:1.0;" x1="277.6689" x2="277.6689" y1="831.9141" y2="844.9141"/><line style="stroke:#A80036;stroke-width:1.0;" x1="236.6689" x2="277.6689" y1="844.9141" y2="844.9141"/><polygon fill="#A80036" points="246.6689,840.9141,236.6689,844.9141,246.6689,848.9141,242.6689,844.9141" style="stroke:#A80036;stroke-width:1.0;"/><text fill="#000000" font-family="sans-serif" font-size="13" lengthAdjust="spacing" textLength="78.0001" x="242.6689" y="811.7153">&#12501;&#12457;&#12540;&#12512;&#12363;&#12425;</text><text fill="#000000" font-family="sans-serif" font-size="13" lengthAdjust="spacing" textLength="117.0001" x="242.6689" y="826.8481">&#12456;&#12531;&#12486;&#12451;&#12486;&#12451;&#12395;&#22793;&#25563;</text><polygon fill="#A80036" points="632.1539,885.1797,642.1539,889.1797,632.1539,893.1797,636.1539,889.1797" style="stroke:#A80036;stroke-width:1.0;"/><line style="stroke:#A80036;stroke-width:1.0;" x1="235.6689" x2="638.1539" y1="889.1797" y2="889.1797"/><text fill="#000000" font-family="sans-serif" font-size="13" lengthAdjust="spacing" textLength="37.064" x="242.6689" y="868.981">insert</text><text fill="#000000" font-family="sans-serif" font-size="13" lengthAdjust="spacing" textLength="135.4971" x="242.6689" y="884.1138">(EmpployeeAccount)</text><polygon fill="#A80036" points="796.6509,929.4453,806.6509,933.4453,796.6509,937.4453,800.6509,933.4453" style="stroke:#A80036;stroke-width:1.0;"/><line style="stroke:#A80036;stroke-width:1.0;" x1="654.1539" x2="802.6509" y1="933.4453" y2="933.4453"/><text fill="#000000" font-family="sans-serif" font-size="13" lengthAdjust="spacing" textLength="37.064" x="661.1539" y="913.2466">insert</text><text fill="#000000" font-family="sans-serif" font-size="13" lengthAdjust="spacing" textLength="135.4971" x="661.1539" y="928.3794">(EmpployeeAccount)</text><polygon fill="#A80036" points="894.7056,958.5781,904.7056,962.5781,894.7056,966.5781,898.7056,962.5781" style="stroke:#A80036;stroke-width:1.0;"/><line style="stroke:#A80036;stroke-width:1.0;" x1="818.6509" x2="900.7056" y1="962.5781" y2="962.5781"/><text fill="#000000" font-family="sans-serif" font-size="13" lengthAdjust="spacing" textLength="59.9981" x="825.6509" y="957.5122">INSERT&#25991;</text><polygon fill="#A80036" points="829.6509,987.7109,819.6509,991.7109,829.6509,995.7109,825.6509,991.7109" style="stroke:#A80036;stroke-width:1.0;"/><line style="stroke:#A80036;stroke-width:1.0;stroke-dasharray:2.0,2.0;" x1="823.6509" x2="910.7056" y1="991.7109" y2="991.7109"/><text fill="#000000" font-family="sans-serif" font-size="13" lengthAdjust="spacing" textLength="27.5107" x="835.6509" y="986.645">void</text><polygon fill="#A80036" points="665.1539,1016.8438,655.1539,1020.8438,665.1539,1024.8438,661.1539,1020.8438" style="stroke:#A80036;stroke-width:1.0;"/><line style="stroke:#A80036;stroke-width:1.0;stroke-dasharray:2.0,2.0;" x1="659.1539" x2="812.6509" y1="1020.8438" y2="1020.8438"/><text fill="#000000" font-family="sans-serif" font-size="13" lengthAdjust="spacing" textLength="27.5107" x="671.1539" y="1015.7778">void</text><polygon fill="#A80036" points="246.6689,1045.9766,236.6689,1049.9766,246.6689,1053.9766,242.6689,1049.9766" style="stroke:#A80036;stroke-width:1.0;"/><line style="stroke:#A80036;stroke-width:1.0;" x1="240.6689" x2="648.1539" y1="1049.9766" y2="1049.9766"/><text fill="#000000" font-family="sans-serif" font-size="13" lengthAdjust="spacing" textLength="27.5107" x="252.6689" y="1044.9106">void</text><line style="stroke:#A80036;stroke-width:1.0;" x1="235.6689" x2="277.6689" y1="1079.1094" y2="1079.1094"/><line style="stroke:#A80036;stroke-width:1.0;" x1="277.6689" x2="277.6689" y1="1079.1094" y2="1092.1094"/><line style="stroke:#A80036;stroke-width:1.0;" x1="236.6689" x2="277.6689" y1="1092.1094" y2="1092.1094"/><polygon fill="#A80036" points="246.6689,1088.1094,236.6689,1092.1094,246.6689,1096.1094,242.6689,1092.1094" style="stroke:#A80036;stroke-width:1.0;"/><text fill="#000000" font-family="sans-serif" font-size="13" lengthAdjust="spacing" textLength="91.0001" x="242.6689" y="1074.0435">&#12475;&#12483;&#12471;&#12519;&#12531;&#30772;&#26820;</text><polygon fill="#A80036" points="44.9999,1117.2422,34.9999,1121.2422,44.9999,1125.2422,40.9999,1121.2422" style="stroke:#A80036;stroke-width:1.0;"/><line style="stroke:#A80036;stroke-width:1.0;stroke-dasharray:2.0,2.0;" x1="38.9999" x2="229.6689" y1="1121.2422" y2="1121.2422"/><text fill="#000000" font-family="sans-serif" font-size="13" lengthAdjust="spacing" textLength="78.0001" x="50.9999" y="1116.1763">&#12522;&#12480;&#12452;&#12524;&#12463;&#12488;</text><polygon fill="#A80036" points="213.6689,1161.5078,223.6689,1165.5078,213.6689,1169.5078,217.6689,1165.5078" style="stroke:#A80036;stroke-width:1.0;"/><line style="stroke:#A80036;stroke-width:1.0;" x1="33.9999" x2="219.6689" y1="1165.5078" y2="1165.5078"/><text fill="#000000" font-family="sans-serif" font-size="13" lengthAdjust="spacing" textLength="26.2285" x="40.9999" y="1145.3091">GET</text><text fill="#000000" font-family="sans-serif" font-size="13" lengthAdjust="spacing" textLength="172.6689" x="40.9999" y="1160.4419">/admin/emp-add/complete</text><line style="stroke:#A80036;stroke-width:1.0;" x1="235.6689" x2="277.6689" y1="1194.6406" y2="1194.6406"/><line style="stroke:#A80036;stroke-width:1.0;" x1="277.6689" x2="277.6689" y1="1194.6406" y2="1207.6406"/><line style="stroke:#A80036;stroke-width:1.0;" x1="236.6689" x2="277.6689" y1="1207.6406" y2="1207.6406"/><polygon fill="#A80036" points="246.6689,1203.6406,236.6689,1207.6406,246.6689,1211.6406,242.6689,1207.6406" style="stroke:#A80036;stroke-width:1.0;"/><text fill="#000000" font-family="sans-serif" font-size="13" lengthAdjust="spacing" textLength="65.0318" x="242.6689" y="1189.5747">Model&#36861;&#21152;</text><path d="M329.0318,1182.0078 L329.0318,1207.0078 L520.0318,1207.0078 L520.0318,1192.0078 L510.0318,1182.0078 L329.0318,1182.0078 " fill="#FBFB77" style="stroke:#A80036;stroke-width:1.0;"/><path d="M510.0318,1182.0078 L510.0318,1192.0078 L520.0318,1192.0078 L510.0318,1182.0078 " fill="#FBFB77" style="stroke:#A80036;stroke-width:1.0;"/><text fill="#000000" font-family="sans-serif" font-size="13" lengthAdjust="spacing" textLength="170.8853" x="335.0318" y="1199.0747">RedirectAttributes&#12363;&#12425;&#21462;&#24471;</text><polygon fill="#A80036" points="39.9999,1232.7734,29.9999,1236.7734,39.9999,1240.7734,35.9999,1236.7734" style="stroke:#A80036;stroke-width:1.0;"/><line style="stroke:#A80036;stroke-width:1.0;" x1="33.9999" x2="229.6689" y1="1236.7734" y2="1236.7734"/><text fill="#000000" font-family="sans-serif" font-size="13" lengthAdjust="spacing" textLength="52.0001" x="45.9999" y="1231.7075">&#23436;&#20102;&#30011;&#38754;</text><!--SRC=[bLLTJnD157tVNp7X1OnfWBxP49AArPZWHoYyzMMxEuM9szbcTwZoHcTi-JIO81X3Z0qW2XWCOZI0o8yPjot_mfcT1NRfLtZPpimzS-RUC-TEtHS80yTseUQAKK5tz3nmftJJVedm9CZfbeWGH2m89aO61kubG6sfx9sjDcRBd6voki_f3cT7dCtNFvnUBF-exNvgi3F0wM_E_d1wA6FqsDiuqdI3s0xWRCSF_0Aw2wPTwCXrLDG9L3EH0446AkYOW9vKlc3PCn0c3SEUnYHfcXayOcFYs9O5dHv9OLnDMs_Du3HqYiY0Fjej6eFjS6EmOBj8v3ZZGnqn7UoOJXDrl0kynGbnpTI9djLT21xSbujcLjDwWLV-x2rkrD-TNdpSrAGk83OSAXNSlGiIu55gF8FxTJEFS3_C5sAwb2TdE_c-Ere86zsP02ua4uM7NM5PXCqcXDHF7PuJuQHb2OI_9cA-O3U3Qb54pQmAfLEZgP7nslfS41gAnMHCV1DW5Bbaw5ArOKKy50k8Mo52oKaUbKaCT0IAN9IWaY-Yiz2zlddIs7jpGtV_Ls3NAjvggSRANlLGxMjxCy-VfPkkfb-0SiZ9Pt0mw2m_Psyvs-DiJdOBcuz08oL4KfRMELZ-Tr9fKuAVjbSfUmV7Qj_jIe2le35DHAy4Woubq5FEcFyIV17FG71WBy2sQ7O7JKuHMUOQfxj-ZTMWM7hEIyiPNDyzuQKzJXSa0Jtch28Xz2jd4jvPkX1dQKbGPB2_yKYIqAtWMzhtjXTgAnlD5eyh2H0MseYsxHC-YdIox_dufUUxenKgr0IFdwPJOrTD48yqGT56fkANgy7MQ21Qy7Nm5dTH_LdRUgqkNnvpZVNPVEVDShhDsJTElql_DVkatHiaZ2xw3XBOAPydjWcjnlcPjrZLmduOWoPoe46IX3WeAopcgXlqLjQzl-zRzB5gux3dJHZvH_aF]--></g></svg>