<svg xmlns="http://www.w3.org/2000/svg" xmlns:xlink="http://www.w3.org/1999/xlink" contentStyleType="text/css" height="412px" preserveAspectRatio="none" style="width:387px;height:412px;background:#FFFFFF;" version="1.1" viewBox="0 0 387 412" width="387px" zoomAndPan="magnify"><defs/><g><text fill="#000000" font-family="sans-serif" font-size="14" font-weight="bold" lengthAdjust="spacing" textLength="346.2117" x="23.5661" y="27.9951">UC008: &#39015;&#23458;&#12450;&#12459;&#12454;&#12531;&#12488;&#12525;&#12464;&#12450;&#12454;&#12488;&#27231;&#33021; &#12471;&#12540;&#12465;&#12531;&#12473;&#22259;</text><rect fill="#FFFFFF" height="189.9297" style="stroke:#A80036;stroke-width:1.0;" width="10" x="23.9999" y="131.5938"/><rect fill="#FFFFFF" height="29.1328" style="stroke:#A80036;stroke-width:1.0;" width="10" x="136" y="283.3906"/><rect fill="#FFFFFF" height="71.2656" style="stroke:#A80036;stroke-width:1.0;" width="10" x="264.3438" y="167.8594"/><line style="stroke:#A80036;stroke-width:1.0;stroke-dasharray:5.0,5.0;" x1="28" x2="28" y1="121.5938" y2="330.5234"/><line style="stroke:#A80036;stroke-width:1.0;stroke-dasharray:5.0,5.0;" x1="140.9907" x2="140.9907" y1="121.5938" y2="330.5234"/><line style="stroke:#A80036;stroke-width:1.0;stroke-dasharray:5.0,5.0;" x1="269.0093" x2="269.0093" y1="121.5938" y2="330.5234"/><text fill="#000000" font-family="sans-serif" font-size="14" lengthAdjust="spacing" textLength="41.9998" x="5" y="118.292">&#12518;&#12540;&#12470;</text><ellipse cx="28.9999" cy="52.2969" fill="#FEFECE" rx="8" ry="8" style="stroke:#A80036;stroke-width:2.0;"/><path d="M28.9999,60.2969 L28.9999,87.2969 M15.9999,68.2969 L41.9999,68.2969 M28.9999,87.2969 L15.9999,102.2969 M28.9999,87.2969 L41.9999,102.2969 " fill="none" style="stroke:#A80036;stroke-width:2.0;"/><text fill="#000000" font-family="sans-serif" font-size="14" lengthAdjust="spacing" textLength="41.9998" x="5" y="342.5186">&#12518;&#12540;&#12470;</text><ellipse cx="28.9999" cy="355.8203" fill="#FEFECE" rx="8" ry="8" style="stroke:#A80036;stroke-width:2.0;"/><path d="M28.9999,363.8203 L28.9999,390.8203 M15.9999,371.8203 L41.9999,371.8203 M28.9999,390.8203 L15.9999,405.8203 M28.9999,390.8203 L41.9999,405.8203 " fill="none" style="stroke:#A80036;stroke-width:2.0;"/><rect fill="#FEFECE" height="46.5938" style="stroke:#A80036;stroke-width:1.5;" width="120.0186" x="80.9907" y="74"/><text fill="#000000" font-family="sans-serif" font-size="14" lengthAdjust="spacing" textLength="106.0186" x="87.9907" y="93.9951">CustomerLogin</text><text fill="#000000" font-family="sans-serif" font-size="14" lengthAdjust="spacing" textLength="69.1729" x="106.4136" y="110.292">Controller</text><rect fill="#FEFECE" height="46.5938" style="stroke:#A80036;stroke-width:1.5;" width="120.0186" x="80.9907" y="329.5234"/><text fill="#000000" font-family="sans-serif" font-size="14" lengthAdjust="spacing" textLength="106.0186" x="87.9907" y="349.5186">CustomerLogin</text><text fill="#000000" font-family="sans-serif" font-size="14" lengthAdjust="spacing" textLength="69.1729" x="106.4136" y="365.8154">Controller</text><rect fill="#FEFECE" height="30.2969" style="stroke:#A80036;stroke-width:1.5;" width="116.6689" x="211.0093" y="90.2969"/><text fill="#000000" font-family="sans-serif" font-size="14" lengthAdjust="spacing" textLength="102.6689" x="218.0093" y="110.292">SpringSecurity</text><rect fill="#FEFECE" height="30.2969" style="stroke:#A80036;stroke-width:1.5;" width="116.6689" x="211.0093" y="329.5234"/><text fill="#000000" font-family="sans-serif" font-size="14" lengthAdjust="spacing" textLength="102.6689" x="218.0093" y="349.5186">SpringSecurity</text><rect fill="#FFFFFF" height="189.9297" style="stroke:#A80036;stroke-width:1.0;" width="10" x="23.9999" y="131.5938"/><rect fill="#FFFFFF" height="29.1328" style="stroke:#A80036;stroke-width:1.0;" width="10" x="136" y="283.3906"/><rect fill="#FFFFFF" height="71.2656" style="stroke:#A80036;stroke-width:1.0;" width="10" x="264.3438" y="167.8594"/><polygon fill="#A80036" points="252.3438,163.8594,262.3438,167.8594,252.3438,171.8594,256.3438,167.8594" style="stroke:#A80036;stroke-width:1.0;"/><line style="stroke:#A80036;stroke-width:1.0;" x1="33.9999" x2="258.3438" y1="167.8594" y2="167.8594"/><text fill="#000000" font-family="sans-serif" font-size="13" lengthAdjust="spacing" textLength="34.2646" x="40.9999" y="147.6606">POST</text><text fill="#000000" font-family="sans-serif" font-size="13" lengthAdjust="spacing" textLength="45.4873" x="40.9999" y="162.7935">/logout</text><line style="stroke:#A80036;stroke-width:1.0;" x1="274.3438" x2="316.3438" y1="196.9922" y2="196.9922"/><line style="stroke:#A80036;stroke-width:1.0;" x1="316.3438" x2="316.3438" y1="196.9922" y2="209.9922"/><line style="stroke:#A80036;stroke-width:1.0;" x1="275.3438" x2="316.3438" y1="209.9922" y2="209.9922"/><polygon fill="#A80036" points="285.3438,205.9922,275.3438,209.9922,285.3438,213.9922,281.3438,209.9922" style="stroke:#A80036;stroke-width:1.0;"/><text fill="#000000" font-family="sans-serif" font-size="13" lengthAdjust="spacing" textLength="91.0001" x="281.3438" y="191.9263">&#12475;&#12483;&#12471;&#12519;&#12531;&#30772;&#26820;</text><polygon fill="#A80036" points="44.9999,235.125,34.9999,239.125,44.9999,243.125,40.9999,239.125" style="stroke:#A80036;stroke-width:1.0;"/><line style="stroke:#A80036;stroke-width:1.0;" x1="38.9999" x2="268.3438" y1="239.125" y2="239.125"/><text fill="#000000" font-family="sans-serif" font-size="13" lengthAdjust="spacing" textLength="169.0002" x="50.9999" y="234.0591">&#12525;&#12464;&#12452;&#12531;&#30011;&#38754;&#12395;&#12522;&#12480;&#12452;&#12524;&#12463;&#12488;</text><polygon fill="#A80036" points="124,279.3906,134,283.3906,124,287.3906,128,283.3906" style="stroke:#A80036;stroke-width:1.0;"/><line style="stroke:#A80036;stroke-width:1.0;" x1="33.9999" x2="130" y1="283.3906" y2="283.3906"/><text fill="#000000" font-family="sans-serif" font-size="13" lengthAdjust="spacing" textLength="26.2285" x="40.9999" y="263.1919">GET</text><text fill="#000000" font-family="sans-serif" font-size="13" lengthAdjust="spacing" textLength="36.0483" x="40.9999" y="278.3247">/login</text><polygon fill="#A80036" points="44.9999,308.5234,34.9999,312.5234,44.9999,316.5234,40.9999,312.5234" style="stroke:#A80036;stroke-width:1.0;"/><line style="stroke:#A80036;stroke-width:1.0;stroke-dasharray:2.0,2.0;" x1="38.9999" x2="140" y1="312.5234" y2="312.5234"/><text fill="#000000" font-family="sans-serif" font-size="13" lengthAdjust="spacing" textLength="78.0001" x="50.9999" y="307.4575">&#12525;&#12464;&#12452;&#12531;&#30011;&#38754;</text><!--SRC=[XP31IWCn54NtynMFsPPYbp8BDqNS20hLNJTXZ6DmcWn9Hd6dYOj-W3iHjKgBLgjIKQJwDOzM-nScQHLS2I64Um_ltXUropX8eMYatAiWahH0xP0jiSzu1jiaTuvcEgUmMQ_L5XEONlR6WmuQT_fekcY7QDjexz4y1j4fxSdD-PVz03IlQD_HF7d8l8rFXn59jP0Ge-q6voK6eg1KL4OkMhEK5OHhYEkbqg95vQh866_okk1QYZodCl2fblbVlb58LxT1qr8oVH0WHLEVnlQ8fhC4Vq5roJjGgK02wskDZIPVo4KcIXrvUUuchle8hGqBz5pxpuldoTNn3p8RLFNOVEzhpvoCfcSTFEgZlKLx6CGxD0_kFtwZVVDPzihoF9hnAAZLVmP_0m00]--></g></svg>