<?xml version="1.0" encoding="us-ascii" standalone="no"?><svg xmlns="http://www.w3.org/2000/svg" xmlns:xlink="http://www.w3.org/1999/xlink" contentStyleType="text/css" height="412px" preserveAspectRatio="none" style="width:395px;height:412px;background:#FFFFFF;" version="1.1" viewBox="0 0 395 412" width="395px" zoomAndPan="magnify"><defs/><g><text fill="#000000" font-family="sans-serif" font-size="14" font-weight="bold" lengthAdjust="spacing" textLength="367" x="10" y="27.9951">UC008: &#39015;&#23458;&#12450;&#12459;&#12454;&#12531;&#12488;&#12525;&#12464;&#12450;&#12454;&#12488;&#27231;&#33021; &#12471;&#12540;&#12465;&#12531;&#12473;&#22259;</text><rect fill="#FFFFFF" height="189.9297" style="stroke:#A80036;stroke-width:1.0;" width="10" x="24.25" y="131.5938"/><rect fill="#FFFFFF" height="29.1328" style="stroke:#A80036;stroke-width:1.0;" width="10" x="136.25" y="283.3906"/><rect fill="#FFFFFF" height="71.2656" style="stroke:#A80036;stroke-width:1.0;" width="10" x="267.75" y="167.8594"/><line style="stroke:#A80036;stroke-width:1.0;stroke-dasharray:5.0,5.0;" x1="29.25" x2="29.25" y1="121.5938" y2="330.5234"/><line style="stroke:#A80036;stroke-width:1.0;stroke-dasharray:5.0,5.0;" x1="140.75" x2="140.75" y1="121.5938" y2="330.5234"/><line style="stroke:#A80036;stroke-width:1.0;stroke-dasharray:5.0,5.0;" x1="272.75" x2="272.75" y1="121.5938" y2="330.5234"/><text fill="#000000" font-family="sans-serif" font-size="14" lengthAdjust="spacing" textLength="42" x="5.25" y="118.292">&#12518;&#12540;&#12470;</text><ellipse cx="29.25" cy="52.2969" fill="#FEFECE" rx="8" ry="8" style="stroke:#A80036;stroke-width:2.0;"/><path d="M29.25,60.2969 L29.25,87.2969 M16.25,68.2969 L42.25,68.2969 M29.25,87.2969 L16.25,102.2969 M29.25,87.2969 L42.25,102.2969 " fill="none" style="stroke:#A80036;stroke-width:2.0;"/><text fill="#000000" font-family="sans-serif" font-size="14" lengthAdjust="spacing" textLength="42" x="5.25" y="342.5186">&#12518;&#12540;&#12470;</text><ellipse cx="29.25" cy="355.8203" fill="#FEFECE" rx="8" ry="8" style="stroke:#A80036;stroke-width:2.0;"/><path d="M29.25,363.8203 L29.25,390.8203 M16.25,371.8203 L42.25,371.8203 M29.25,390.8203 L16.25,405.8203 M29.25,390.8203 L42.25,405.8203 " fill="none" style="stroke:#A80036;stroke-width:2.0;"/><rect fill="#FEFECE" height="46.5938" style="stroke:#A80036;stroke-width:1.5;" width="123" x="79.75" y="74"/><text fill="#000000" font-family="sans-serif" font-size="14" lengthAdjust="spacing" textLength="109" x="86.75" y="93.9951">CustomerLogin</text><text fill="#000000" font-family="sans-serif" font-size="14" lengthAdjust="spacing" textLength="73" x="104.75" y="110.292">Controller</text><rect fill="#FEFECE" height="46.5938" style="stroke:#A80036;stroke-width:1.5;" width="123" x="79.75" y="329.5234"/><text fill="#000000" font-family="sans-serif" font-size="14" lengthAdjust="spacing" textLength="109" x="86.75" y="349.5186">CustomerLogin</text><text fill="#000000" font-family="sans-serif" font-size="14" lengthAdjust="spacing" textLength="73" x="104.75" y="365.8154">Controller</text><rect fill="#FEFECE" height="30.2969" style="stroke:#A80036;stroke-width:1.5;" width="120" x="212.75" y="90.2969"/><text fill="#000000" font-family="sans-serif" font-size="14" lengthAdjust="spacing" textLength="106" x="219.75" y="110.292">SpringSecurity</text><rect fill="#FEFECE" height="30.2969" style="stroke:#A80036;stroke-width:1.5;" width="120" x="212.75" y="329.5234"/><text fill="#000000" font-family="sans-serif" font-size="14" lengthAdjust="spacing" textLength="106" x="219.75" y="349.5186">SpringSecurity</text><rect fill="#FFFFFF" height="189.9297" style="stroke:#A80036;stroke-width:1.0;" width="10" x="24.25" y="131.5938"/><rect fill="#FFFFFF" height="29.1328" style="stroke:#A80036;stroke-width:1.0;" width="10" x="136.25" y="283.3906"/><rect fill="#FFFFFF" height="71.2656" style="stroke:#A80036;stroke-width:1.0;" width="10" x="267.75" y="167.8594"/><polygon fill="#A80036" points="255.75,163.8594,265.75,167.8594,255.75,171.8594,259.75,167.8594" style="stroke:#A80036;stroke-width:1.0;"/><line style="stroke:#A80036;stroke-width:1.0;" x1="34.25" x2="261.75" y1="167.8594" y2="167.8594"/><text fill="#000000" font-family="sans-serif" font-size="13" lengthAdjust="spacing" textLength="34" x="41.25" y="147.6606">POST</text><text fill="#000000" font-family="sans-serif" font-size="13" lengthAdjust="spacing" textLength="44" x="41.25" y="162.7935">/logout</text><line style="stroke:#A80036;stroke-width:1.0;" x1="277.75" x2="319.75" y1="196.9922" y2="196.9922"/><line style="stroke:#A80036;stroke-width:1.0;" x1="319.75" x2="319.75" y1="196.9922" y2="209.9922"/><line style="stroke:#A80036;stroke-width:1.0;" x1="278.75" x2="319.75" y1="209.9922" y2="209.9922"/><polygon fill="#A80036" points="288.75,205.9922,278.75,209.9922,288.75,213.9922,284.75,209.9922" style="stroke:#A80036;stroke-width:1.0;"/><text fill="#000000" font-family="sans-serif" font-size="13" lengthAdjust="spacing" textLength="91" x="284.75" y="191.9263">&#12475;&#12483;&#12471;&#12519;&#12531;&#30772;&#26820;</text><polygon fill="#A80036" points="45.25,235.125,35.25,239.125,45.25,243.125,41.25,239.125" style="stroke:#A80036;stroke-width:1.0;"/><line style="stroke:#A80036;stroke-width:1.0;" x1="39.25" x2="271.75" y1="239.125" y2="239.125"/><text fill="#000000" font-family="sans-serif" font-size="13" lengthAdjust="spacing" textLength="169" x="51.25" y="234.0591">&#12525;&#12464;&#12452;&#12531;&#30011;&#38754;&#12395;&#12522;&#12480;&#12452;&#12524;&#12463;&#12488;</text><polygon fill="#A80036" points="124.25,279.3906,134.25,283.3906,124.25,287.3906,128.25,283.3906" style="stroke:#A80036;stroke-width:1.0;"/><line style="stroke:#A80036;stroke-width:1.0;" x1="34.25" x2="130.25" y1="283.3906" y2="283.3906"/><text fill="#000000" font-family="sans-serif" font-size="13" lengthAdjust="spacing" textLength="26" x="41.25" y="263.1919">GET</text><text fill="#000000" font-family="sans-serif" font-size="13" lengthAdjust="spacing" textLength="34" x="41.25" y="278.3247">/login</text><polygon fill="#A80036" points="45.25,308.5234,35.25,312.5234,45.25,316.5234,41.25,312.5234" style="stroke:#A80036;stroke-width:1.0;"/><line style="stroke:#A80036;stroke-width:1.0;stroke-dasharray:2.0,2.0;" x1="39.25" x2="140.25" y1="312.5234" y2="312.5234"/><text fill="#000000" font-family="sans-serif" font-size="13" lengthAdjust="spacing" textLength="78" x="51.25" y="307.4575">&#12525;&#12464;&#12452;&#12531;&#30011;&#38754;</text><!--SRC=[XP31IWCn54NtynMFsPPYbp8BDqNS20hLNJTXZ6DmcWn9Hd6dYOj-W3iHjKgBLgjIKQJwDOzM-nScQHLS2I64Um_ltXUropX8eMYatAiWahH0xP0jiSzu1jiaTuvcEgUmMQ_L5XEONlR6WmuQT_fekcY7QDjexz4y1j4fxSdD-PVz03IlQD_HF7d8l8rFXn59jP0Ge-q6voK6eg1KL4OkMhEK5OHhYEkbqg95vQh866_okk1QYZodCl2fblbVlb58LxT1qr8oVH0WHLEVnlQ8fhC4Vq5roJjGgK02wskDZIPVo4KcIXrvUUuchle8hGqBz5pxpuldoTNn3p8RLFNOVEzhpvoCfcSTFEgZlKLx6CGxD0_kFtwZVVDPzihoF9hnAAZLVmP_0m00]--></g></svg>