<?xml version="1.0" encoding="UTF-8" standalone="no"?><svg xmlns="http://www.w3.org/2000/svg" xmlns:xlink="http://www.w3.org/1999/xlink" contentScriptType="application/ecmascript" contentStyleType="text/css" height="139px" preserveAspectRatio="none" style="width:257px;height:139px;background:#FFFFFF;" version="1.1" viewBox="0 0 257 139" width="257px" zoomAndPan="magnify"><defs/><g><text fill="#000000" font-family="sans-serif" font-size="18" lengthAdjust="spacing" textLength="175" x="34.5" y="17.4023">exceptionパッケージ</text><!--MD5=[11f03a07a4422c8eb8f650dbf201ac41]
cluster exception--><polygon fill="#FFFFFF" points="16,27.1992,91,27.1992,98,49.6875,240,49.6875,240,132.1992,16,132.1992,16,27.1992" style="stroke:#000000;stroke-width:1.5;"/><line style="stroke:#000000;stroke-width:1.5;" x1="16" x2="98" y1="49.6875" y2="49.6875"/><text fill="#000000" font-family="sans-serif" font-size="14" font-weight="bold" lengthAdjust="spacing" textLength="69" x="20" y="42.7344">exception</text><!--MD5=[80c1ad5c0fd067f32708b98215ed2a65]
class BusinessException--><rect codeLine="6" fill="#FEFECE" height="52.9551" id="BusinessException" style="stroke:#A80036;stroke-width:1.5;" width="192" x="32" y="62.6992"/><ellipse cx="71.75" cy="78.6992" fill="#ADD1B2" rx="11" ry="11" style="stroke:#A80036;stroke-width:1.0;"/><path d="M74.2231,84.8423 Q73.6421,85.1411 73.0029,85.2905 Q72.3638,85.4399 71.6582,85.4399 Q69.1514,85.4399 67.8315,83.7881 Q66.5117,82.1362 66.5117,79.0151 Q66.5117,75.8857 67.8315,74.2339 Q69.1514,72.582 71.6582,72.582 Q72.3638,72.582 73.0112,72.7314 Q73.6587,72.8809 74.2231,73.1797 L74.2231,75.9023 Q73.5923,75.3213 72.9988,75.0515 Q72.4053,74.7817 71.7744,74.7817 Q70.4297,74.7817 69.7449,75.8484 Q69.0601,76.915 69.0601,79.0151 Q69.0601,81.1069 69.7449,82.1736 Q70.4297,83.2402 71.7744,83.2402 Q72.4053,83.2402 72.9988,82.9705 Q73.5923,82.7007 74.2231,82.1196 Z " fill="#000000"/><text fill="#000000" font-family="sans-serif" font-size="12" lengthAdjust="spacing" textLength="105" x="91.25" y="83.2344">BusinessException</text><line style="stroke:#A80036;stroke-width:1.5;" x1="33" x2="223" y1="94.6992" y2="94.6992"/><ellipse cx="43" cy="105.6992" fill="#84BE84" rx="3" ry="3" style="stroke:#038048;stroke-width:1.0;"/><text fill="#000000" font-family="sans-serif" font-size="11" lengthAdjust="spacing" textLength="166" x="52" y="109.334">BusinessException(String msg)</text><!--MD5=[370f64cd36e3847af61e6c4652b52524]
@startuml
skin rose
skinparam shadowing false
hide empty methods
hide empty fields

title exceptionパッケージ
left to right direction

package exception{
    class BusinessException{
        + BusinessException(String msg)
    }
}

@enduml

PlantUML version 1.2022.0(Wed Jan 12 01:16:42 JST 2022)
(GPL source distribution)
Java Runtime: OpenJDK Runtime Environment
JVM: OpenJDK 64-Bit Server VM
Default Encoding: UTF-8
Language: ja
Country: JP
--></g></svg>