<svg xmlns="http://www.w3.org/2000/svg" xmlns:xlink="http://www.w3.org/1999/xlink" contentStyleType="text/css" height="822px" preserveAspectRatio="none" style="width:616px;height:822px;background:#FFFFFF;" version="1.1" viewBox="0 0 616 822" width="616px" zoomAndPan="magnify"><defs/><g><text fill="#000000" font-family="sans-serif" font-size="14" font-weight="bold" lengthAdjust="spacing" textLength="145.3385" x="229.2792" y="27.9951">UC015: &#36092;&#20837;&#23653;&#27508;&#38322;&#35239;</text><rect fill="#FFFFFF" height="291.4609" style="stroke:#A80036;stroke-width:1.0;" width="10" x="130.5052" y="167.8594"/><rect fill="#FFFFFF" height="219.0625" style="stroke:#A80036;stroke-width:1.0;" width="10" x="130.5052" y="503.5859"/><rect fill="#FFFFFF" height="145.6641" style="stroke:#A80036;stroke-width:1.0;" width="10" x="305.1649" y="196.9922"/><rect fill="#FFFFFF" height="145.6641" style="stroke:#A80036;stroke-width:1.0;" width="10" x="305.1649" y="532.7188"/><rect fill="#FFFFFF" height="87.3984" style="stroke:#A80036;stroke-width:1.0;" width="10" x="459.931" y="226.125"/><rect fill="#FFFFFF" height="87.3984" style="stroke:#A80036;stroke-width:1.0;" width="10" x="459.931" y="561.8516"/><rect fill="#FFFFFF" height="29.1328" style="stroke:#A80036;stroke-width:1.0;" width="10" x="576.8969" y="255.2578"/><rect fill="#FFFFFF" height="29.1328" style="stroke:#A80036;stroke-width:1.0;" width="10" x="576.8969" y="590.9844"/><line style="stroke:#A80036;stroke-width:1.0;stroke-dasharray:5.0,5.0;" x1="21" x2="21" y1="121.5938" y2="740.6484"/><line style="stroke:#A80036;stroke-width:1.0;stroke-dasharray:5.0,5.0;" x1="134.9999" x2="134.9999" y1="121.5938" y2="740.6484"/><line style="stroke:#A80036;stroke-width:1.0;stroke-dasharray:5.0,5.0;" x1="309.2787" x2="309.2787" y1="121.5938" y2="740.6484"/><line style="stroke:#A80036;stroke-width:1.0;stroke-dasharray:5.0,5.0;" x1="464.3793" x2="464.3793" y1="121.5938" y2="740.6484"/><line style="stroke:#A80036;stroke-width:1.0;stroke-dasharray:5.0,5.0;" x1="581.8969" x2="581.8969" y1="121.5938" y2="740.6484"/><text fill="#000000" font-family="sans-serif" font-size="14" lengthAdjust="spacing" textLength="27.9999" x="5" y="118.292">&#39015;&#23458;</text><ellipse cx="21.9999" cy="52.2969" fill="#FEFECE" rx="8" ry="8" style="stroke:#A80036;stroke-width:2.0;"/><path d="M21.9999,60.2969 L21.9999,87.2969 M8.9999,68.2969 L34.9999,68.2969 M21.9999,87.2969 L8.9999,102.2969 M21.9999,87.2969 L34.9999,102.2969 " fill="none" style="stroke:#A80036;stroke-width:2.0;"/><text fill="#000000" font-family="sans-serif" font-size="14" lengthAdjust="spacing" textLength="27.9999" x="5" y="752.6436">&#39015;&#23458;</text><ellipse cx="21.9999" cy="765.9453" fill="#FEFECE" rx="8" ry="8" style="stroke:#A80036;stroke-width:2.0;"/><path d="M21.9999,773.9453 L21.9999,800.9453 M8.9999,781.9453 L34.9999,781.9453 M21.9999,800.9453 L8.9999,815.9453 M21.9999,800.9453 L34.9999,815.9453 " fill="none" style="stroke:#A80036;stroke-width:2.0;"/><rect fill="#FEFECE" height="30.2969" style="stroke:#A80036;stroke-width:1.5;" width="173.0107" x="48.9999" y="90.2969"/><text fill="#000000" font-family="sans-serif" font-size="14" lengthAdjust="spacing" textLength="159.0107" x="55.9999" y="110.292">OrderHistoryController</text><rect fill="#FEFECE" height="30.2969" style="stroke:#A80036;stroke-width:1.5;" width="173.0107" x="48.9999" y="739.6484"/><text fill="#000000" font-family="sans-serif" font-size="14" lengthAdjust="spacing" textLength="159.0107" x="55.9999" y="759.6436">OrderHistoryController</text><rect fill="#FEFECE" height="30.2969" style="stroke:#A80036;stroke-width:1.5;" width="105.7725" x="257.2787" y="90.2969"/><text fill="#000000" font-family="sans-serif" font-size="14" lengthAdjust="spacing" textLength="91.7725" x="264.2787" y="110.292">OrderService</text><rect fill="#FEFECE" height="30.2969" style="stroke:#A80036;stroke-width:1.5;" width="105.7725" x="257.2787" y="739.6484"/><text fill="#000000" font-family="sans-serif" font-size="14" lengthAdjust="spacing" textLength="91.7725" x="264.2787" y="759.6436">OrderService</text><rect fill="#FEFECE" height="30.2969" style="stroke:#A80036;stroke-width:1.5;" width="129.1035" x="400.3793" y="90.2969"/><text fill="#000000" font-family="sans-serif" font-size="14" lengthAdjust="spacing" textLength="115.1035" x="407.3793" y="110.292">OrderRepository</text><rect fill="#FEFECE" height="30.2969" style="stroke:#A80036;stroke-width:1.5;" width="129.1035" x="400.3793" y="739.6484"/><text fill="#000000" font-family="sans-serif" font-size="14" lengthAdjust="spacing" textLength="115.1035" x="407.3793" y="759.6436">OrderRepository</text><text fill="#000000" font-family="sans-serif" font-size="14" lengthAdjust="spacing" textLength="20.3848" x="568.7045" y="118.292">DB</text><path d="M563.8969,69.2969 C563.8969,59.2969 581.8969,59.2969 581.8969,59.2969 C581.8969,59.2969 599.8969,59.2969 599.8969,69.2969 L599.8969,95.2969 C599.8969,105.2969 581.8969,105.2969 581.8969,105.2969 C581.8969,105.2969 563.8969,105.2969 563.8969,95.2969 L563.8969,69.2969 " fill="#FEFECE" style="stroke:#A80036;stroke-width:1.5;"/><path d="M563.8969,69.2969 C563.8969,79.2969 581.8969,79.2969 581.8969,79.2969 C581.8969,79.2969 599.8969,79.2969 599.8969,69.2969 " fill="none" style="stroke:#A80036;stroke-width:1.5;"/><text fill="#000000" font-family="sans-serif" font-size="14" lengthAdjust="spacing" textLength="20.3848" x="568.7045" y="752.6436">DB</text><path d="M563.8969,765.9453 C563.8969,755.9453 581.8969,755.9453 581.8969,755.9453 C581.8969,755.9453 599.8969,755.9453 599.8969,765.9453 L599.8969,791.9453 C599.8969,801.9453 581.8969,801.9453 581.8969,801.9453 C581.8969,801.9453 563.8969,801.9453 563.8969,791.9453 L563.8969,765.9453 " fill="#FEFECE" style="stroke:#A80036;stroke-width:1.5;"/><path d="M563.8969,765.9453 C563.8969,775.9453 581.8969,775.9453 581.8969,775.9453 C581.8969,775.9453 599.8969,775.9453 599.8969,765.9453 " fill="none" style="stroke:#A80036;stroke-width:1.5;"/><rect fill="#FFFFFF" height="291.4609" style="stroke:#A80036;stroke-width:1.0;" width="10" x="130.5052" y="167.8594"/><rect fill="#FFFFFF" height="219.0625" style="stroke:#A80036;stroke-width:1.0;" width="10" x="130.5052" y="503.5859"/><rect fill="#FFFFFF" height="145.6641" style="stroke:#A80036;stroke-width:1.0;" width="10" x="305.1649" y="196.9922"/><rect fill="#FFFFFF" height="145.6641" style="stroke:#A80036;stroke-width:1.0;" width="10" x="305.1649" y="532.7188"/><rect fill="#FFFFFF" height="87.3984" style="stroke:#A80036;stroke-width:1.0;" width="10" x="459.931" y="226.125"/><rect fill="#FFFFFF" height="87.3984" style="stroke:#A80036;stroke-width:1.0;" width="10" x="459.931" y="561.8516"/><rect fill="#FFFFFF" height="29.1328" style="stroke:#A80036;stroke-width:1.0;" width="10" x="576.8969" y="255.2578"/><rect fill="#FFFFFF" height="29.1328" style="stroke:#A80036;stroke-width:1.0;" width="10" x="576.8969" y="590.9844"/><polygon fill="#A80036" points="118.5052,163.8594,128.5052,167.8594,118.5052,171.8594,122.5052,167.8594" style="stroke:#A80036;stroke-width:1.0;"/><line style="stroke:#A80036;stroke-width:1.0;" x1="21.9999" x2="124.5052" y1="167.8594" y2="167.8594"/><text fill="#000000" font-family="sans-serif" font-size="13" lengthAdjust="spacing" textLength="26.2285" x="28.9999" y="147.6606">GET</text><text fill="#000000" font-family="sans-serif" font-size="13" lengthAdjust="spacing" textLength="62.7466" x="28.9999" y="162.7935">/order/list</text><polygon fill="#A80036" points="293.1649,192.9922,303.1649,196.9922,293.1649,200.9922,297.1649,196.9922" style="stroke:#A80036;stroke-width:1.0;"/><line style="stroke:#A80036;stroke-width:1.0;" x1="140.5052" x2="299.1649" y1="196.9922" y2="196.9922"/><text fill="#000000" font-family="sans-serif" font-size="13" lengthAdjust="spacing" textLength="114.9116" x="147.5052" y="191.9263">getOrderHistory()</text><polygon fill="#A80036" points="447.931,222.125,457.931,226.125,447.931,230.125,451.931,226.125" style="stroke:#A80036;stroke-width:1.0;"/><line style="stroke:#A80036;stroke-width:1.0;" x1="315.1649" x2="453.931" y1="226.125" y2="226.125"/><text fill="#000000" font-family="sans-serif" font-size="13" lengthAdjust="spacing" textLength="64.8857" x="322.1649" y="221.0591">selectAll()</text><polygon fill="#A80036" points="564.8969,251.2578,574.8969,255.2578,564.8969,259.2578,568.8969,255.2578" style="stroke:#A80036;stroke-width:1.0;"/><line style="stroke:#A80036;stroke-width:1.0;" x1="469.931" x2="570.8969" y1="255.2578" y2="255.2578"/><text fill="#000000" font-family="sans-serif" font-size="13" lengthAdjust="spacing" textLength="87.9658" x="476.931" y="250.1919">SELECT order</text><polygon fill="#A80036" points="480.931,280.3906,470.931,284.3906,480.931,288.3906,476.931,284.3906" style="stroke:#A80036;stroke-width:1.0;"/><line style="stroke:#A80036;stroke-width:1.0;stroke-dasharray:2.0,2.0;" x1="474.931" x2="580.8969" y1="284.3906" y2="284.3906"/><text fill="#000000" font-family="sans-serif" font-size="13" lengthAdjust="spacing" textLength="81.6816" x="486.931" y="279.3247">List&lt;Order&gt;</text><polygon fill="#A80036" points="326.1649,309.5234,316.1649,313.5234,326.1649,317.5234,322.1649,313.5234" style="stroke:#A80036;stroke-width:1.0;"/><line style="stroke:#A80036;stroke-width:1.0;stroke-dasharray:2.0,2.0;" x1="320.1649" x2="463.931" y1="313.5234" y2="313.5234"/><text fill="#000000" font-family="sans-serif" font-size="13" lengthAdjust="spacing" textLength="81.6816" x="332.1649" y="308.4575">List&lt;Order&gt;</text><polygon fill="#A80036" points="151.5052,338.6563,141.5052,342.6563,151.5052,346.6563,147.5052,342.6563" style="stroke:#A80036;stroke-width:1.0;"/><line style="stroke:#A80036;stroke-width:1.0;stroke-dasharray:2.0,2.0;" x1="145.5052" x2="309.1649" y1="342.6563" y2="342.6563"/><text fill="#000000" font-family="sans-serif" font-size="13" lengthAdjust="spacing" textLength="81.6816" x="157.5052" y="337.5903">List&lt;Order&gt;</text><line style="stroke:#A80036;stroke-width:1.0;" x1="140.5052" x2="182.5052" y1="402.0547" y2="402.0547"/><line style="stroke:#A80036;stroke-width:1.0;" x1="182.5052" x2="182.5052" y1="402.0547" y2="415.0547"/><line style="stroke:#A80036;stroke-width:1.0;" x1="141.5052" x2="182.5052" y1="415.0547" y2="415.0547"/><polygon fill="#A80036" points="151.5052,411.0547,141.5052,415.0547,151.5052,419.0547,147.5052,415.0547" style="stroke:#A80036;stroke-width:1.0;"/><text fill="#000000" font-family="sans-serif" font-size="13" lengthAdjust="spacing" textLength="78.0001" x="147.5052" y="366.7231">&#36092;&#20837;&#23653;&#27508;&#12363;&#12425;</text><text fill="#000000" font-family="sans-serif" font-size="13" lengthAdjust="spacing" textLength="91.0001" x="147.5052" y="381.856">&#26085;&#20184;&#12434;&#25277;&#20986;&#12375;&#12390;</text><text fill="#000000" font-family="sans-serif" font-size="13" lengthAdjust="spacing" textLength="78.0318" x="147.5052" y="396.9888">Model&#12395;&#26684;&#32013;</text><polygon fill="#A80036" points="32.9999,455.3203,22.9999,459.3203,32.9999,463.3203,28.9999,459.3203" style="stroke:#A80036;stroke-width:1.0;"/><line style="stroke:#A80036;stroke-width:1.0;stroke-dasharray:2.0,2.0;" x1="26.9999" x2="134.5052" y1="459.3203" y2="459.3203"/><text fill="#000000" font-family="sans-serif" font-size="13" lengthAdjust="spacing" textLength="52.0001" x="38.9999" y="439.1216">&#36092;&#20837;&#23653;&#27508;</text><text fill="#000000" font-family="sans-serif" font-size="13" lengthAdjust="spacing" textLength="52.0001" x="38.9999" y="454.2544">&#19968;&#35239;&#30011;&#38754;</text><polygon fill="#A80036" points="118.5052,499.5859,128.5052,503.5859,118.5052,507.5859,122.5052,503.5859" style="stroke:#A80036;stroke-width:1.0;"/><line style="stroke:#A80036;stroke-width:1.0;" x1="21.9999" x2="124.5052" y1="503.5859" y2="503.5859"/><text fill="#000000" font-family="sans-serif" font-size="13" lengthAdjust="spacing" textLength="34.2646" x="28.9999" y="483.3872">POST</text><text fill="#000000" font-family="sans-serif" font-size="13" lengthAdjust="spacing" textLength="62.7466" x="28.9999" y="498.52">/order/list</text><polygon fill="#A80036" points="293.1649,528.7188,303.1649,532.7188,293.1649,536.7188,297.1649,532.7188" style="stroke:#A80036;stroke-width:1.0;"/><line style="stroke:#A80036;stroke-width:1.0;" x1="140.5052" x2="299.1649" y1="532.7188" y2="532.7188"/><text fill="#000000" font-family="sans-serif" font-size="13" lengthAdjust="spacing" textLength="145.6597" x="147.5052" y="527.6528">getOrderByDate(date)</text><polygon fill="#A80036" points="447.931,557.8516,457.931,561.8516,447.931,565.8516,451.931,561.8516" style="stroke:#A80036;stroke-width:1.0;"/><line style="stroke:#A80036;stroke-width:1.0;" x1="315.1649" x2="453.931" y1="561.8516" y2="561.8516"/><text fill="#000000" font-family="sans-serif" font-size="13" lengthAdjust="spacing" textLength="125.7661" x="322.1649" y="556.7856">selectByDate(date)</text><polygon fill="#A80036" points="564.8969,586.9844,574.8969,590.9844,564.8969,594.9844,568.8969,590.9844" style="stroke:#A80036;stroke-width:1.0;"/><line style="stroke:#A80036;stroke-width:1.0;" x1="469.931" x2="570.8969" y1="590.9844" y2="590.9844"/><text fill="#000000" font-family="sans-serif" font-size="13" lengthAdjust="spacing" textLength="87.9658" x="476.931" y="585.9185">SELECT order</text><polygon fill="#A80036" points="480.931,616.1172,470.931,620.1172,480.931,624.1172,476.931,620.1172" style="stroke:#A80036;stroke-width:1.0;"/><line style="stroke:#A80036;stroke-width:1.0;stroke-dasharray:2.0,2.0;" x1="474.931" x2="580.8969" y1="620.1172" y2="620.1172"/><text fill="#000000" font-family="sans-serif" font-size="13" lengthAdjust="spacing" textLength="81.6816" x="486.931" y="615.0513">List&lt;Order&gt;</text><polygon fill="#A80036" points="326.1649,645.25,316.1649,649.25,326.1649,653.25,322.1649,649.25" style="stroke:#A80036;stroke-width:1.0;"/><line style="stroke:#A80036;stroke-width:1.0;stroke-dasharray:2.0,2.0;" x1="320.1649" x2="463.931" y1="649.25" y2="649.25"/><text fill="#000000" font-family="sans-serif" font-size="13" lengthAdjust="spacing" textLength="81.6816" x="332.1649" y="644.1841">List&lt;Order&gt;</text><polygon fill="#A80036" points="151.5052,674.3828,141.5052,678.3828,151.5052,682.3828,147.5052,678.3828" style="stroke:#A80036;stroke-width:1.0;"/><line style="stroke:#A80036;stroke-width:1.0;stroke-dasharray:2.0,2.0;" x1="145.5052" x2="309.1649" y1="678.3828" y2="678.3828"/><text fill="#000000" font-family="sans-serif" font-size="13" lengthAdjust="spacing" textLength="81.6816" x="157.5052" y="673.3169">List&lt;Order&gt;</text><polygon fill="#A80036" points="32.9999,718.6484,22.9999,722.6484,32.9999,726.6484,28.9999,722.6484" style="stroke:#A80036;stroke-width:1.0;"/><line style="stroke:#A80036;stroke-width:1.0;stroke-dasharray:2.0,2.0;" x1="26.9999" x2="134.5052" y1="722.6484" y2="722.6484"/><text fill="#000000" font-family="sans-serif" font-size="13" lengthAdjust="spacing" textLength="52.0001" x="38.9999" y="702.4497">&#36092;&#20837;&#23653;&#27508;</text><text fill="#000000" font-family="sans-serif" font-size="13" lengthAdjust="spacing" textLength="52.0001" x="38.9999" y="717.5825">&#19968;&#35239;&#30011;&#38754;</text><!--SRC=[lP5DIm916CVlyoaUF1coM8Sk4KA-K0V3IBjvcPsTR6dQbPcnyDOA4HLT8h9BK89wY8BAGwHzclNrMpGp9qMXJjsM_-zvVlliVyMXwm7t1KL2FPKnnqSW3h3ZdxXU2VOnKmH9Lp8AUwdbbTKr67_q1cVDmLjp-DAPtBsFMss4C94-XyZagJruRKG02wWWvP8kSSlOan39SOVoBLUeiMhAzoJt6QFSJ985atdAZrr23HSB-2uj-yBLCZF2aOCbjh6W44adJUJO25N0IW29nM0DDZE5eXVtzMwSgJCGqKmOLg9o-hpe4X8QSWC5PPJ83SPKp7Nis2RFPxAPL06C4JasM7h3iXJ9Aisw4IRqXdxDN2vCJkPoSnM1sPB3u2giNHIzORtPxzw7jPlXvVVW_2iCwc7GAdhRlaDP63mF7tkZphLMA4V5gASjHQ__UQf-rkYsEtbeJ7Upayl_NawociQIHbNFT44_C_HVQlh3D_u0]--></g></svg>