<?xml version="1.0" encoding="us-ascii" standalone="no"?><svg xmlns="http://www.w3.org/2000/svg" xmlns:xlink="http://www.w3.org/1999/xlink" contentStyleType="text/css" height="822px" preserveAspectRatio="none" style="width:613px;height:822px;background:#FFFFFF;" version="1.1" viewBox="0 0 613 822" width="613px" zoomAndPan="magnify"><defs/><g><text fill="#000000" font-family="sans-serif" font-size="14" font-weight="bold" lengthAdjust="spacing" textLength="152" x="224.25" y="27.9951">UC015: &#36092;&#20837;&#23653;&#27508;&#38322;&#35239;</text><rect fill="#FFFFFF" height="291.4609" style="stroke:#A80036;stroke-width:1.0;" width="10" x="133.5" y="167.8594"/><rect fill="#FFFFFF" height="219.0625" style="stroke:#A80036;stroke-width:1.0;" width="10" x="133.5" y="503.5859"/><rect fill="#FFFFFF" height="145.6641" style="stroke:#A80036;stroke-width:1.0;" width="10" x="305.5" y="196.9922"/><rect fill="#FFFFFF" height="145.6641" style="stroke:#A80036;stroke-width:1.0;" width="10" x="305.5" y="532.7188"/><rect fill="#FFFFFF" height="87.3984" style="stroke:#A80036;stroke-width:1.0;" width="10" x="458.5" y="226.125"/><rect fill="#FFFFFF" height="87.3984" style="stroke:#A80036;stroke-width:1.0;" width="10" x="458.5" y="561.8516"/><rect fill="#FFFFFF" height="29.1328" style="stroke:#A80036;stroke-width:1.0;" width="10" x="573.5" y="255.2578"/><rect fill="#FFFFFF" height="29.1328" style="stroke:#A80036;stroke-width:1.0;" width="10" x="573.5" y="590.9844"/><line style="stroke:#A80036;stroke-width:1.0;stroke-dasharray:5.0,5.0;" x1="22" x2="22" y1="121.5938" y2="740.6484"/><line style="stroke:#A80036;stroke-width:1.0;stroke-dasharray:5.0,5.0;" x1="138" x2="138" y1="121.5938" y2="740.6484"/><line style="stroke:#A80036;stroke-width:1.0;stroke-dasharray:5.0,5.0;" x1="310.5" x2="310.5" y1="121.5938" y2="740.6484"/><line style="stroke:#A80036;stroke-width:1.0;stroke-dasharray:5.0,5.0;" x1="463.5" x2="463.5" y1="121.5938" y2="740.6484"/><line style="stroke:#A80036;stroke-width:1.0;stroke-dasharray:5.0,5.0;" x1="578.5" x2="578.5" y1="121.5938" y2="740.6484"/><text fill="#000000" font-family="sans-serif" font-size="14" lengthAdjust="spacing" textLength="28" x="5" y="118.292">&#39015;&#23458;</text><ellipse cx="22" cy="52.2969" fill="#FEFECE" rx="8" ry="8" style="stroke:#A80036;stroke-width:2.0;"/><path d="M22,60.2969 L22,87.2969 M9,68.2969 L35,68.2969 M22,87.2969 L9,102.2969 M22,87.2969 L35,102.2969 " fill="none" style="stroke:#A80036;stroke-width:2.0;"/><text fill="#000000" font-family="sans-serif" font-size="14" lengthAdjust="spacing" textLength="28" x="5" y="752.6436">&#39015;&#23458;</text><ellipse cx="22" cy="765.9453" fill="#FEFECE" rx="8" ry="8" style="stroke:#A80036;stroke-width:2.0;"/><path d="M22,773.9453 L22,800.9453 M9,781.9453 L35,781.9453 M22,800.9453 L9,815.9453 M22,800.9453 L35,815.9453 " fill="none" style="stroke:#A80036;stroke-width:2.0;"/><rect fill="#FEFECE" height="30.2969" style="stroke:#A80036;stroke-width:1.5;" width="179" x="49" y="90.2969"/><text fill="#000000" font-family="sans-serif" font-size="14" lengthAdjust="spacing" textLength="165" x="56" y="110.292">OrderHistoryController</text><rect fill="#FEFECE" height="30.2969" style="stroke:#A80036;stroke-width:1.5;" width="179" x="49" y="739.6484"/><text fill="#000000" font-family="sans-serif" font-size="14" lengthAdjust="spacing" textLength="165" x="56" y="759.6436">OrderHistoryController</text><rect fill="#FEFECE" height="30.2969" style="stroke:#A80036;stroke-width:1.5;" width="108" x="256.5" y="90.2969"/><text fill="#000000" font-family="sans-serif" font-size="14" lengthAdjust="spacing" textLength="94" x="263.5" y="110.292">OrderService</text><rect fill="#FEFECE" height="30.2969" style="stroke:#A80036;stroke-width:1.5;" width="108" x="256.5" y="739.6484"/><text fill="#000000" font-family="sans-serif" font-size="14" lengthAdjust="spacing" textLength="94" x="263.5" y="759.6436">OrderService</text><rect fill="#FEFECE" height="30.2969" style="stroke:#A80036;stroke-width:1.5;" width="134" x="396.5" y="90.2969"/><text fill="#000000" font-family="sans-serif" font-size="14" lengthAdjust="spacing" textLength="120" x="403.5" y="110.292">OrderRepository</text><rect fill="#FEFECE" height="30.2969" style="stroke:#A80036;stroke-width:1.5;" width="134" x="396.5" y="739.6484"/><text fill="#000000" font-family="sans-serif" font-size="14" lengthAdjust="spacing" textLength="120" x="403.5" y="759.6436">OrderRepository</text><text fill="#000000" font-family="sans-serif" font-size="14" lengthAdjust="spacing" textLength="21" x="565" y="118.292">DB</text><path d="M560.5,69.2969 C560.5,59.2969 578.5,59.2969 578.5,59.2969 C578.5,59.2969 596.5,59.2969 596.5,69.2969 L596.5,95.2969 C596.5,105.2969 578.5,105.2969 578.5,105.2969 C578.5,105.2969 560.5,105.2969 560.5,95.2969 L560.5,69.2969 " fill="#FEFECE" style="stroke:#A80036;stroke-width:1.5;"/><path d="M560.5,69.2969 C560.5,79.2969 578.5,79.2969 578.5,79.2969 C578.5,79.2969 596.5,79.2969 596.5,69.2969 " fill="none" style="stroke:#A80036;stroke-width:1.5;"/><text fill="#000000" font-family="sans-serif" font-size="14" lengthAdjust="spacing" textLength="21" x="565" y="752.6436">DB</text><path d="M560.5,765.9453 C560.5,755.9453 578.5,755.9453 578.5,755.9453 C578.5,755.9453 596.5,755.9453 596.5,765.9453 L596.5,791.9453 C596.5,801.9453 578.5,801.9453 578.5,801.9453 C578.5,801.9453 560.5,801.9453 560.5,791.9453 L560.5,765.9453 " fill="#FEFECE" style="stroke:#A80036;stroke-width:1.5;"/><path d="M560.5,765.9453 C560.5,775.9453 578.5,775.9453 578.5,775.9453 C578.5,775.9453 596.5,775.9453 596.5,765.9453 " fill="none" style="stroke:#A80036;stroke-width:1.5;"/><rect fill="#FFFFFF" height="291.4609" style="stroke:#A80036;stroke-width:1.0;" width="10" x="133.5" y="167.8594"/><rect fill="#FFFFFF" height="219.0625" style="stroke:#A80036;stroke-width:1.0;" width="10" x="133.5" y="503.5859"/><rect fill="#FFFFFF" height="145.6641" style="stroke:#A80036;stroke-width:1.0;" width="10" x="305.5" y="196.9922"/><rect fill="#FFFFFF" height="145.6641" style="stroke:#A80036;stroke-width:1.0;" width="10" x="305.5" y="532.7188"/><rect fill="#FFFFFF" height="87.3984" style="stroke:#A80036;stroke-width:1.0;" width="10" x="458.5" y="226.125"/><rect fill="#FFFFFF" height="87.3984" style="stroke:#A80036;stroke-width:1.0;" width="10" x="458.5" y="561.8516"/><rect fill="#FFFFFF" height="29.1328" style="stroke:#A80036;stroke-width:1.0;" width="10" x="573.5" y="255.2578"/><rect fill="#FFFFFF" height="29.1328" style="stroke:#A80036;stroke-width:1.0;" width="10" x="573.5" y="590.9844"/><polygon fill="#A80036" points="121.5,163.8594,131.5,167.8594,121.5,171.8594,125.5,167.8594" style="stroke:#A80036;stroke-width:1.0;"/><line style="stroke:#A80036;stroke-width:1.0;" x1="22" x2="127.5" y1="167.8594" y2="167.8594"/><text fill="#000000" font-family="sans-serif" font-size="13" lengthAdjust="spacing" textLength="26" x="29" y="147.6606">GET</text><text fill="#000000" font-family="sans-serif" font-size="13" lengthAdjust="spacing" textLength="60" x="29" y="162.7935">/order/list</text><polygon fill="#A80036" points="293.5,192.9922,303.5,196.9922,293.5,200.9922,297.5,196.9922" style="stroke:#A80036;stroke-width:1.0;"/><line style="stroke:#A80036;stroke-width:1.0;" x1="143.5" x2="299.5" y1="196.9922" y2="196.9922"/><text fill="#000000" font-family="sans-serif" font-size="13" lengthAdjust="spacing" textLength="112" x="150.5" y="191.9263">getOrderHistory()</text><polygon fill="#A80036" points="446.5,222.125,456.5,226.125,446.5,230.125,450.5,226.125" style="stroke:#A80036;stroke-width:1.0;"/><line style="stroke:#A80036;stroke-width:1.0;" x1="315.5" x2="452.5" y1="226.125" y2="226.125"/><text fill="#000000" font-family="sans-serif" font-size="13" lengthAdjust="spacing" textLength="63" x="322.5" y="221.0591">selectAll()</text><polygon fill="#A80036" points="561.5,251.2578,571.5,255.2578,561.5,259.2578,565.5,255.2578" style="stroke:#A80036;stroke-width:1.0;"/><line style="stroke:#A80036;stroke-width:1.0;" x1="468.5" x2="567.5" y1="255.2578" y2="255.2578"/><text fill="#000000" font-family="sans-serif" font-size="13" lengthAdjust="spacing" textLength="86" x="475.5" y="250.1919">SELECT order</text><polygon fill="#A80036" points="479.5,280.3906,469.5,284.3906,479.5,288.3906,475.5,284.3906" style="stroke:#A80036;stroke-width:1.0;"/><line style="stroke:#A80036;stroke-width:1.0;stroke-dasharray:2.0,2.0;" x1="473.5" x2="577.5" y1="284.3906" y2="284.3906"/><text fill="#000000" font-family="sans-serif" font-size="13" lengthAdjust="spacing" textLength="78" x="485.5" y="279.3247">List&lt;Order&gt;</text><polygon fill="#A80036" points="326.5,309.5234,316.5,313.5234,326.5,317.5234,322.5,313.5234" style="stroke:#A80036;stroke-width:1.0;"/><line style="stroke:#A80036;stroke-width:1.0;stroke-dasharray:2.0,2.0;" x1="320.5" x2="462.5" y1="313.5234" y2="313.5234"/><text fill="#000000" font-family="sans-serif" font-size="13" lengthAdjust="spacing" textLength="78" x="332.5" y="308.4575">List&lt;Order&gt;</text><polygon fill="#A80036" points="154.5,338.6563,144.5,342.6563,154.5,346.6563,150.5,342.6563" style="stroke:#A80036;stroke-width:1.0;"/><line style="stroke:#A80036;stroke-width:1.0;stroke-dasharray:2.0,2.0;" x1="148.5" x2="309.5" y1="342.6563" y2="342.6563"/><text fill="#000000" font-family="sans-serif" font-size="13" lengthAdjust="spacing" textLength="78" x="160.5" y="337.5903">List&lt;Order&gt;</text><line style="stroke:#A80036;stroke-width:1.0;" x1="143.5" x2="185.5" y1="402.0547" y2="402.0547"/><line style="stroke:#A80036;stroke-width:1.0;" x1="185.5" x2="185.5" y1="402.0547" y2="415.0547"/><line style="stroke:#A80036;stroke-width:1.0;" x1="144.5" x2="185.5" y1="415.0547" y2="415.0547"/><polygon fill="#A80036" points="154.5,411.0547,144.5,415.0547,154.5,419.0547,150.5,415.0547" style="stroke:#A80036;stroke-width:1.0;"/><text fill="#000000" font-family="sans-serif" font-size="13" lengthAdjust="spacing" textLength="78" x="150.5" y="366.7231">&#36092;&#20837;&#23653;&#27508;&#12363;&#12425;</text><text fill="#000000" font-family="sans-serif" font-size="13" lengthAdjust="spacing" textLength="91" x="150.5" y="381.856">&#26085;&#20184;&#12434;&#25277;&#20986;&#12375;&#12390;</text><text fill="#000000" font-family="sans-serif" font-size="13" lengthAdjust="spacing" textLength="76" x="150.5" y="396.9888">Model&#12395;&#26684;&#32013;</text><polygon fill="#A80036" points="33,455.3203,23,459.3203,33,463.3203,29,459.3203" style="stroke:#A80036;stroke-width:1.0;"/><line style="stroke:#A80036;stroke-width:1.0;stroke-dasharray:2.0,2.0;" x1="27" x2="137.5" y1="459.3203" y2="459.3203"/><text fill="#000000" font-family="sans-serif" font-size="13" lengthAdjust="spacing" textLength="52" x="39" y="439.1216">&#36092;&#20837;&#23653;&#27508;</text><text fill="#000000" font-family="sans-serif" font-size="13" lengthAdjust="spacing" textLength="52" x="39" y="454.2544">&#19968;&#35239;&#30011;&#38754;</text><polygon fill="#A80036" points="121.5,499.5859,131.5,503.5859,121.5,507.5859,125.5,503.5859" style="stroke:#A80036;stroke-width:1.0;"/><line style="stroke:#A80036;stroke-width:1.0;" x1="22" x2="127.5" y1="503.5859" y2="503.5859"/><text fill="#000000" font-family="sans-serif" font-size="13" lengthAdjust="spacing" textLength="34" x="29" y="483.3872">POST</text><text fill="#000000" font-family="sans-serif" font-size="13" lengthAdjust="spacing" textLength="60" x="29" y="498.52">/order/list</text><polygon fill="#A80036" points="293.5,528.7188,303.5,532.7188,293.5,536.7188,297.5,532.7188" style="stroke:#A80036;stroke-width:1.0;"/><line style="stroke:#A80036;stroke-width:1.0;" x1="143.5" x2="299.5" y1="532.7188" y2="532.7188"/><text fill="#000000" font-family="sans-serif" font-size="13" lengthAdjust="spacing" textLength="143" x="150.5" y="527.6528">getOrderByDate(date)</text><polygon fill="#A80036" points="446.5,557.8516,456.5,561.8516,446.5,565.8516,450.5,561.8516" style="stroke:#A80036;stroke-width:1.0;"/><line style="stroke:#A80036;stroke-width:1.0;" x1="315.5" x2="452.5" y1="561.8516" y2="561.8516"/><text fill="#000000" font-family="sans-serif" font-size="13" lengthAdjust="spacing" textLength="124" x="322.5" y="556.7856">selectByDate(date)</text><polygon fill="#A80036" points="561.5,586.9844,571.5,590.9844,561.5,594.9844,565.5,590.9844" style="stroke:#A80036;stroke-width:1.0;"/><line style="stroke:#A80036;stroke-width:1.0;" x1="468.5" x2="567.5" y1="590.9844" y2="590.9844"/><text fill="#000000" font-family="sans-serif" font-size="13" lengthAdjust="spacing" textLength="86" x="475.5" y="585.9185">SELECT order</text><polygon fill="#A80036" points="479.5,616.1172,469.5,620.1172,479.5,624.1172,475.5,620.1172" style="stroke:#A80036;stroke-width:1.0;"/><line style="stroke:#A80036;stroke-width:1.0;stroke-dasharray:2.0,2.0;" x1="473.5" x2="577.5" y1="620.1172" y2="620.1172"/><text fill="#000000" font-family="sans-serif" font-size="13" lengthAdjust="spacing" textLength="78" x="485.5" y="615.0513">List&lt;Order&gt;</text><polygon fill="#A80036" points="326.5,645.25,316.5,649.25,326.5,653.25,322.5,649.25" style="stroke:#A80036;stroke-width:1.0;"/><line style="stroke:#A80036;stroke-width:1.0;stroke-dasharray:2.0,2.0;" x1="320.5" x2="462.5" y1="649.25" y2="649.25"/><text fill="#000000" font-family="sans-serif" font-size="13" lengthAdjust="spacing" textLength="78" x="332.5" y="644.1841">List&lt;Order&gt;</text><polygon fill="#A80036" points="154.5,674.3828,144.5,678.3828,154.5,682.3828,150.5,678.3828" style="stroke:#A80036;stroke-width:1.0;"/><line style="stroke:#A80036;stroke-width:1.0;stroke-dasharray:2.0,2.0;" x1="148.5" x2="309.5" y1="678.3828" y2="678.3828"/><text fill="#000000" font-family="sans-serif" font-size="13" lengthAdjust="spacing" textLength="78" x="160.5" y="673.3169">List&lt;Order&gt;</text><polygon fill="#A80036" points="33,718.6484,23,722.6484,33,726.6484,29,722.6484" style="stroke:#A80036;stroke-width:1.0;"/><line style="stroke:#A80036;stroke-width:1.0;stroke-dasharray:2.0,2.0;" x1="27" x2="137.5" y1="722.6484" y2="722.6484"/><text fill="#000000" font-family="sans-serif" font-size="13" lengthAdjust="spacing" textLength="52" x="39" y="702.4497">&#36092;&#20837;&#23653;&#27508;</text><text fill="#000000" font-family="sans-serif" font-size="13" lengthAdjust="spacing" textLength="52" x="39" y="717.5825">&#19968;&#35239;&#30011;&#38754;</text><!--SRC=[lP5DIm916CVlyoaUF1coM8Sk4KA-K0V3IBjvcPsTR6dQbPcnyDOA4HLT8h9BK89wY8BAGwHzclNrMpGp9qMXJjsM_-zvVlliVyMXwm7t1KL2FPKnnqSW3h3ZdxXU2VOnKmH9Lp8AUwdbbTKr67_q1cVDmLjp-DAPtBsFMss4C94-XyZagJruRKG02wWWvP8kSSlOan39SOVoBLUeiMhAzoJt6QFSJ985atdAZrr23HSB-2uj-yBLCZF2aOCbjh6W44adJUJO25N0IW29nM0DDZE5eXVtzMwSgJCGqKmOLg9o-hpe4X8QSWC5PPJ83SPKp7Nis2RFPxAPL06C4JasM7h3iXJ9Aisw4IRqXdxDN2vCJkPoSnM1sPB3u2giNHIzORtPxzw7jPlXvVVW_2iCwc7GAdhRlaDP63mF7tkZphLMA4V5gASjHQ__UQf-rkYsEtbeJ7Upayl_NawociQIHbNFT44_C_HVQlh3D_u0]--></g></svg>