<?xml version="1.0" encoding="us-ascii" standalone="no"?><svg xmlns="http://www.w3.org/2000/svg" xmlns:xlink="http://www.w3.org/1999/xlink" contentStyleType="text/css" height="427px" preserveAspectRatio="none" style="width:402px;height:427px;background:#FFFFFF;" version="1.1" viewBox="0 0 402 427" width="402px" zoomAndPan="magnify"><defs/><g><text fill="#000000" font-family="sans-serif" font-size="14" font-weight="bold" lengthAdjust="spacing" textLength="367" x="17.5" y="27.9951">UC017: &#31038;&#21729;&#12450;&#12459;&#12454;&#12531;&#12488;&#12525;&#12464;&#12450;&#12454;&#12488;&#27231;&#33021; &#12471;&#12540;&#12465;&#12531;&#12473;&#22259;</text><rect fill="#FFFFFF" height="205.0625" style="stroke:#A80036;stroke-width:1.0;" width="10" x="24" y="131.5938"/><rect fill="#FFFFFF" height="29.1328" style="stroke:#A80036;stroke-width:1.0;" width="10" x="136" y="298.5234"/><rect fill="#FFFFFF" height="71.2656" style="stroke:#A80036;stroke-width:1.0;" width="10" x="283" y="167.8594"/><line style="stroke:#A80036;stroke-width:1.0;stroke-dasharray:5.0,5.0;" x1="29" x2="29" y1="121.5938" y2="345.6563"/><line style="stroke:#A80036;stroke-width:1.0;stroke-dasharray:5.0,5.0;" x1="141" x2="141" y1="121.5938" y2="345.6563"/><line style="stroke:#A80036;stroke-width:1.0;stroke-dasharray:5.0,5.0;" x1="288" x2="288" y1="121.5938" y2="345.6563"/><text fill="#000000" font-family="sans-serif" font-size="14" lengthAdjust="spacing" textLength="42" x="5" y="118.292">&#12518;&#12540;&#12470;</text><ellipse cx="29" cy="52.2969" fill="#FEFECE" rx="8" ry="8" style="stroke:#A80036;stroke-width:2.0;"/><path d="M29,60.2969 L29,87.2969 M16,68.2969 L42,68.2969 M29,87.2969 L16,102.2969 M29,87.2969 L42,102.2969 " fill="none" style="stroke:#A80036;stroke-width:2.0;"/><text fill="#000000" font-family="sans-serif" font-size="14" lengthAdjust="spacing" textLength="42" x="5" y="357.6514">&#12518;&#12540;&#12470;</text><ellipse cx="29" cy="370.9531" fill="#FEFECE" rx="8" ry="8" style="stroke:#A80036;stroke-width:2.0;"/><path d="M29,378.9531 L29,405.9531 M16,386.9531 L42,386.9531 M29,405.9531 L16,420.9531 M29,405.9531 L42,420.9531 " fill="none" style="stroke:#A80036;stroke-width:2.0;"/><rect fill="#FEFECE" height="30.2969" style="stroke:#A80036;stroke-width:1.5;" width="126" x="78" y="90.2969"/><text fill="#000000" font-family="sans-serif" font-size="14" lengthAdjust="spacing" textLength="112" x="85" y="110.292">LoginController</text><rect fill="#FEFECE" height="30.2969" style="stroke:#A80036;stroke-width:1.5;" width="126" x="78" y="344.6563"/><text fill="#000000" font-family="sans-serif" font-size="14" lengthAdjust="spacing" textLength="112" x="85" y="364.6514">LoginController</text><rect fill="#FEFECE" height="30.2969" style="stroke:#A80036;stroke-width:1.5;" width="148" x="214" y="90.2969"/><text fill="#000000" font-family="sans-serif" font-size="14" lengthAdjust="spacing" textLength="134" x="221" y="110.292">SpringSecurity&#26412;&#20307;</text><rect fill="#FEFECE" height="30.2969" style="stroke:#A80036;stroke-width:1.5;" width="148" x="214" y="344.6563"/><text fill="#000000" font-family="sans-serif" font-size="14" lengthAdjust="spacing" textLength="134" x="221" y="364.6514">SpringSecurity&#26412;&#20307;</text><rect fill="#FFFFFF" height="205.0625" style="stroke:#A80036;stroke-width:1.0;" width="10" x="24" y="131.5938"/><rect fill="#FFFFFF" height="29.1328" style="stroke:#A80036;stroke-width:1.0;" width="10" x="136" y="298.5234"/><rect fill="#FFFFFF" height="71.2656" style="stroke:#A80036;stroke-width:1.0;" width="10" x="283" y="167.8594"/><polygon fill="#A80036" points="271,163.8594,281,167.8594,271,171.8594,275,167.8594" style="stroke:#A80036;stroke-width:1.0;"/><line style="stroke:#A80036;stroke-width:1.0;" x1="34" x2="277" y1="167.8594" y2="167.8594"/><text fill="#000000" font-family="sans-serif" font-size="13" lengthAdjust="spacing" textLength="34" x="41" y="147.6606">POST</text><text fill="#000000" font-family="sans-serif" font-size="13" lengthAdjust="spacing" textLength="88" x="41" y="162.7935">/admin/logout</text><line style="stroke:#A80036;stroke-width:1.0;" x1="293" x2="335" y1="196.9922" y2="196.9922"/><line style="stroke:#A80036;stroke-width:1.0;" x1="335" x2="335" y1="196.9922" y2="209.9922"/><line style="stroke:#A80036;stroke-width:1.0;" x1="294" x2="335" y1="209.9922" y2="209.9922"/><polygon fill="#A80036" points="304,205.9922,294,209.9922,304,213.9922,300,209.9922" style="stroke:#A80036;stroke-width:1.0;"/><text fill="#000000" font-family="sans-serif" font-size="13" lengthAdjust="spacing" textLength="91" x="300" y="191.9263">&#12475;&#12483;&#12471;&#12519;&#12531;&#30772;&#26820;</text><polygon fill="#A80036" points="45,235.125,35,239.125,45,243.125,41,239.125" style="stroke:#A80036;stroke-width:1.0;"/><line style="stroke:#A80036;stroke-width:1.0;" x1="39" x2="287" y1="239.125" y2="239.125"/><text fill="#000000" font-family="sans-serif" font-size="13" lengthAdjust="spacing" textLength="169" x="51" y="234.0591">&#12525;&#12464;&#12452;&#12531;&#30011;&#38754;&#12395;&#12522;&#12480;&#12452;&#12524;&#12463;&#12488;</text><polygon fill="#A80036" points="124,294.5234,134,298.5234,124,302.5234,128,298.5234" style="stroke:#A80036;stroke-width:1.0;"/><line style="stroke:#A80036;stroke-width:1.0;" x1="34" x2="130" y1="298.5234" y2="298.5234"/><text fill="#000000" font-family="sans-serif" font-size="13" lengthAdjust="spacing" textLength="26" x="41" y="263.1919">GET</text><text fill="#000000" font-family="sans-serif" font-size="13" lengthAdjust="spacing" textLength="78" x="41" y="278.3247">/admin/login</text><text fill="#000000" font-family="sans-serif" font-size="13" lengthAdjust="spacing" textLength="40" x="41" y="293.4575">login()</text><polygon fill="#A80036" points="45,323.6563,35,327.6563,45,331.6563,41,327.6563" style="stroke:#A80036;stroke-width:1.0;"/><line style="stroke:#A80036;stroke-width:1.0;stroke-dasharray:2.0,2.0;" x1="39" x2="140" y1="327.6563" y2="327.6563"/><text fill="#000000" font-family="sans-serif" font-size="13" lengthAdjust="spacing" textLength="78" x="51" y="322.5903">&#12525;&#12464;&#12452;&#12531;&#30011;&#38754;</text><!--SRC=[XP2nJe8n58Nt_obkc3I4e9C9WminBYQQe1jByrEnyQSbRT6uQUl0ZfiQ5Gb6mQZ1Q0pYorm1VGlRWYPCBcrppvTxpgdQPHoaK3HIxbKbabH0xP2Is6Uy3DiaSOfcEg6mbLzONCh1kFKnR5oXQQBfe6cZxQ6jexr7ynY6Rb8VtLvysG6WUKNxZkR9G-PjUDgB8X9h8I65jXsabnGG1JL5PUIyDOjPbN0DgJLHPZmlk9OYIQWCLAnbCaiLgjAbBD2u9fa-69rrFmUDW2eQUoUsHpITR8_y2PbbBq4w3JdOM2zi5dcMb2gCPnDH5ZKTUN7Av5pyFbeRIjou1kFBvz7ryIyoMPVnsBHxopCd_U_p9XvrqDwXFGp3Bfe7zoT_0NoDIOBLbPa0Z1TvkERcem1b_l7v0G00]--></g></svg>