<svg xmlns="http://www.w3.org/2000/svg" xmlns:xlink="http://www.w3.org/1999/xlink" contentStyleType="text/css" height="427px" preserveAspectRatio="none" style="width:395px;height:427px;background:#FFFFFF;" version="1.1" viewBox="0 0 395 427" width="395px" zoomAndPan="magnify"><defs/><g><text fill="#000000" font-family="sans-serif" font-size="14" font-weight="bold" lengthAdjust="spacing" textLength="346.2117" x="30.8583" y="27.9951">UC017: &#31038;&#21729;&#12450;&#12459;&#12454;&#12531;&#12488;&#12525;&#12464;&#12450;&#12454;&#12488;&#27231;&#33021; &#12471;&#12540;&#12465;&#12531;&#12473;&#22259;</text><rect fill="#FFFFFF" height="205.0625" style="stroke:#A80036;stroke-width:1.0;" width="10" x="23.9999" y="131.5938"/><rect fill="#FFFFFF" height="29.1328" style="stroke:#A80036;stroke-width:1.0;" width="10" x="136" y="298.5234"/><rect fill="#FFFFFF" height="71.2656" style="stroke:#A80036;stroke-width:1.0;" width="10" x="278.9282" y="167.8594"/><line style="stroke:#A80036;stroke-width:1.0;stroke-dasharray:5.0,5.0;" x1="28" x2="28" y1="121.5938" y2="345.6563"/><line style="stroke:#A80036;stroke-width:1.0;stroke-dasharray:5.0,5.0;" x1="140.4063" x2="140.4063" y1="121.5938" y2="345.6563"/><line style="stroke:#A80036;stroke-width:1.0;stroke-dasharray:5.0,5.0;" x1="283.5938" x2="283.5938" y1="121.5938" y2="345.6563"/><text fill="#000000" font-family="sans-serif" font-size="14" lengthAdjust="spacing" textLength="41.9998" x="5" y="118.292">&#12518;&#12540;&#12470;</text><ellipse cx="28.9999" cy="52.2969" fill="#FEFECE" rx="8" ry="8" style="stroke:#A80036;stroke-width:2.0;"/><path d="M28.9999,60.2969 L28.9999,87.2969 M15.9999,68.2969 L41.9999,68.2969 M28.9999,87.2969 L15.9999,102.2969 M28.9999,87.2969 L41.9999,102.2969 " fill="none" style="stroke:#A80036;stroke-width:2.0;"/><text fill="#000000" font-family="sans-serif" font-size="14" lengthAdjust="spacing" textLength="41.9998" x="5" y="357.6514">&#12518;&#12540;&#12470;</text><ellipse cx="28.9999" cy="370.9531" fill="#FEFECE" rx="8" ry="8" style="stroke:#A80036;stroke-width:2.0;"/><path d="M28.9999,378.9531 L28.9999,405.9531 M15.9999,386.9531 L41.9999,386.9531 M28.9999,405.9531 L15.9999,420.9531 M28.9999,405.9531 L41.9999,420.9531 " fill="none" style="stroke:#A80036;stroke-width:2.0;"/><rect fill="#FEFECE" height="30.2969" style="stroke:#A80036;stroke-width:1.5;" width="121.1875" x="80.4063" y="90.2969"/><text fill="#000000" font-family="sans-serif" font-size="14" lengthAdjust="spacing" textLength="107.1875" x="87.4063" y="110.292">LoginController</text><rect fill="#FEFECE" height="30.2969" style="stroke:#A80036;stroke-width:1.5;" width="121.1875" x="80.4063" y="344.6563"/><text fill="#000000" font-family="sans-serif" font-size="14" lengthAdjust="spacing" textLength="107.1875" x="87.4063" y="364.6514">LoginController</text><rect fill="#FEFECE" height="30.2969" style="stroke:#A80036;stroke-width:1.5;" width="144.6688" x="211.5938" y="90.2969"/><text fill="#000000" font-family="sans-serif" font-size="14" lengthAdjust="spacing" textLength="130.6688" x="218.5938" y="110.292">SpringSecurity&#26412;&#20307;</text><rect fill="#FEFECE" height="30.2969" style="stroke:#A80036;stroke-width:1.5;" width="144.6688" x="211.5938" y="344.6563"/><text fill="#000000" font-family="sans-serif" font-size="14" lengthAdjust="spacing" textLength="130.6688" x="218.5938" y="364.6514">SpringSecurity&#26412;&#20307;</text><rect fill="#FFFFFF" height="205.0625" style="stroke:#A80036;stroke-width:1.0;" width="10" x="23.9999" y="131.5938"/><rect fill="#FFFFFF" height="29.1328" style="stroke:#A80036;stroke-width:1.0;" width="10" x="136" y="298.5234"/><rect fill="#FFFFFF" height="71.2656" style="stroke:#A80036;stroke-width:1.0;" width="10" x="278.9282" y="167.8594"/><polygon fill="#A80036" points="266.9282,163.8594,276.9282,167.8594,266.9282,171.8594,270.9282,167.8594" style="stroke:#A80036;stroke-width:1.0;"/><line style="stroke:#A80036;stroke-width:1.0;" x1="33.9999" x2="272.9282" y1="167.8594" y2="167.8594"/><text fill="#000000" font-family="sans-serif" font-size="13" lengthAdjust="spacing" textLength="34.2646" x="40.9999" y="147.6606">POST</text><text fill="#000000" font-family="sans-serif" font-size="13" lengthAdjust="spacing" textLength="90.6001" x="40.9999" y="162.7935">/admin/logout</text><line style="stroke:#A80036;stroke-width:1.0;" x1="288.9282" x2="330.9282" y1="196.9922" y2="196.9922"/><line style="stroke:#A80036;stroke-width:1.0;" x1="330.9282" x2="330.9282" y1="196.9922" y2="209.9922"/><line style="stroke:#A80036;stroke-width:1.0;" x1="289.9282" x2="330.9282" y1="209.9922" y2="209.9922"/><polygon fill="#A80036" points="299.9282,205.9922,289.9282,209.9922,299.9282,213.9922,295.9282,209.9922" style="stroke:#A80036;stroke-width:1.0;"/><text fill="#000000" font-family="sans-serif" font-size="13" lengthAdjust="spacing" textLength="91.0001" x="295.9282" y="191.9263">&#12475;&#12483;&#12471;&#12519;&#12531;&#30772;&#26820;</text><polygon fill="#A80036" points="44.9999,235.125,34.9999,239.125,44.9999,243.125,40.9999,239.125" style="stroke:#A80036;stroke-width:1.0;"/><line style="stroke:#A80036;stroke-width:1.0;" x1="38.9999" x2="282.9282" y1="239.125" y2="239.125"/><text fill="#000000" font-family="sans-serif" font-size="13" lengthAdjust="spacing" textLength="169.0002" x="50.9999" y="234.0591">&#12525;&#12464;&#12452;&#12531;&#30011;&#38754;&#12395;&#12522;&#12480;&#12452;&#12524;&#12463;&#12488;</text><polygon fill="#A80036" points="124,294.5234,134,298.5234,124,302.5234,128,298.5234" style="stroke:#A80036;stroke-width:1.0;"/><line style="stroke:#A80036;stroke-width:1.0;" x1="33.9999" x2="130" y1="298.5234" y2="298.5234"/><text fill="#000000" font-family="sans-serif" font-size="13" lengthAdjust="spacing" textLength="26.2285" x="40.9999" y="263.1919">GET</text><text fill="#000000" font-family="sans-serif" font-size="13" lengthAdjust="spacing" textLength="81.1611" x="40.9999" y="278.3247">/admin/login</text><text fill="#000000" font-family="sans-serif" font-size="13" lengthAdjust="spacing" textLength="41.812" x="40.9999" y="293.4575">login()</text><polygon fill="#A80036" points="44.9999,323.6563,34.9999,327.6563,44.9999,331.6563,40.9999,327.6563" style="stroke:#A80036;stroke-width:1.0;"/><line style="stroke:#A80036;stroke-width:1.0;stroke-dasharray:2.0,2.0;" x1="38.9999" x2="140" y1="327.6563" y2="327.6563"/><text fill="#000000" font-family="sans-serif" font-size="13" lengthAdjust="spacing" textLength="78.0001" x="50.9999" y="322.5903">&#12525;&#12464;&#12452;&#12531;&#30011;&#38754;</text><!--SRC=[XP2nJe8n58Nt_obkc3I4e9C9WminBYQQe1jByrEnyQSbRT6uQUl0ZfiQ5Gb6mQZ1Q0pYorm1VGlRWYPCBcrppvTxpgdQPHoaK3HIxbKbabH0xP2Is6Uy3DiaSOfcEg6mbLzONCh1kFKnR5oXQQBfe6cZxQ6jexr7ynY6Rb8VtLvysG6WUKNxZkR9G-PjUDgB8X9h8I65jXsabnGG1JL5PUIyDOjPbN0DgJLHPZmlk9OYIQWCLAnbCaiLgjAbBD2u9fa-69rrFmUDW2eQUoUsHpITR8_y2PbbBq4w3JdOM2zi5dcMb2gCPnDH5ZKTUN7Av5pyFbeRIjou1kFBvz7ryIyoMPVnsBHxopCd_U_p9XvrqDwXFGp3Bfe7zoT_0NoDIOBLbPa0Z1TvkERcem1b_l7v0G00]--></g></svg>