<?xml version="1.0" encoding="us-ascii" standalone="no"?><svg xmlns="http://www.w3.org/2000/svg" xmlns:xlink="http://www.w3.org/1999/xlink" contentStyleType="text/css" height="838px" preserveAspectRatio="none" style="width:634px;height:838px;background:#FFFFFF;" version="1.1" viewBox="0 0 634 838" width="634px" zoomAndPan="magnify"><defs/><g><text fill="#000000" font-family="sans-serif" font-size="14" font-weight="bold" lengthAdjust="spacing" textLength="152" x="234.5" y="27.9951">UC007: &#36092;&#20837;&#23653;&#27508;&#38322;&#35239;</text><rect fill="#FFFFFF" height="306.5938" style="stroke:#A80036;stroke-width:1.0;" width="10" x="146" y="167.8594"/><rect fill="#FFFFFF" height="219.0625" style="stroke:#A80036;stroke-width:1.0;" width="10" x="146" y="518.7188"/><rect fill="#FFFFFF" height="160.7969" style="stroke:#A80036;stroke-width:1.0;" width="10" x="322" y="269.3906"/><rect fill="#FFFFFF" height="145.6641" style="stroke:#A80036;stroke-width:1.0;" width="10" x="322" y="547.8516"/><rect fill="#FFFFFF" height="87.3984" style="stroke:#A80036;stroke-width:1.0;" width="10" x="479" y="313.6563"/><rect fill="#FFFFFF" height="87.3984" style="stroke:#A80036;stroke-width:1.0;" width="10" x="479" y="576.9844"/><rect fill="#FFFFFF" height="29.1328" style="stroke:#A80036;stroke-width:1.0;" width="10" x="594" y="342.7891"/><rect fill="#FFFFFF" height="29.1328" style="stroke:#A80036;stroke-width:1.0;" width="10" x="594" y="606.1172"/><line style="stroke:#A80036;stroke-width:1.0;stroke-dasharray:5.0,5.0;" x1="22" x2="22" y1="121.5938" y2="755.7813"/><line style="stroke:#A80036;stroke-width:1.0;stroke-dasharray:5.0,5.0;" x1="150.5" x2="150.5" y1="121.5938" y2="755.7813"/><line style="stroke:#A80036;stroke-width:1.0;stroke-dasharray:5.0,5.0;" x1="327" x2="327" y1="121.5938" y2="755.7813"/><line style="stroke:#A80036;stroke-width:1.0;stroke-dasharray:5.0,5.0;" x1="484" x2="484" y1="121.5938" y2="755.7813"/><line style="stroke:#A80036;stroke-width:1.0;stroke-dasharray:5.0,5.0;" x1="599" x2="599" y1="121.5938" y2="755.7813"/><text fill="#000000" font-family="sans-serif" font-size="14" lengthAdjust="spacing" textLength="28" x="5" y="118.292">&#39015;&#23458;</text><ellipse cx="22" cy="52.2969" fill="#FEFECE" rx="8" ry="8" style="stroke:#A80036;stroke-width:2.0;"/><path d="M22,60.2969 L22,87.2969 M9,68.2969 L35,68.2969 M22,87.2969 L9,102.2969 M22,87.2969 L35,102.2969 " fill="none" style="stroke:#A80036;stroke-width:2.0;"/><text fill="#000000" font-family="sans-serif" font-size="14" lengthAdjust="spacing" textLength="28" x="5" y="767.7764">&#39015;&#23458;</text><ellipse cx="22" cy="781.0781" fill="#FEFECE" rx="8" ry="8" style="stroke:#A80036;stroke-width:2.0;"/><path d="M22,789.0781 L22,816.0781 M9,797.0781 L35,797.0781 M22,816.0781 L9,831.0781 M22,816.0781 L35,831.0781 " fill="none" style="stroke:#A80036;stroke-width:2.0;"/><rect fill="#FEFECE" height="30.2969" style="stroke:#A80036;stroke-width:1.5;" width="179" x="61.5" y="90.2969"/><text fill="#000000" font-family="sans-serif" font-size="14" lengthAdjust="spacing" textLength="165" x="68.5" y="110.292">OrderHistoryController</text><rect fill="#FEFECE" height="30.2969" style="stroke:#A80036;stroke-width:1.5;" width="179" x="61.5" y="754.7813"/><text fill="#000000" font-family="sans-serif" font-size="14" lengthAdjust="spacing" textLength="165" x="68.5" y="774.7764">OrderHistoryController</text><rect fill="#FEFECE" height="30.2969" style="stroke:#A80036;stroke-width:1.5;" width="108" x="273" y="90.2969"/><text fill="#000000" font-family="sans-serif" font-size="14" lengthAdjust="spacing" textLength="94" x="280" y="110.292">OrderService</text><rect fill="#FEFECE" height="30.2969" style="stroke:#A80036;stroke-width:1.5;" width="108" x="273" y="754.7813"/><text fill="#000000" font-family="sans-serif" font-size="14" lengthAdjust="spacing" textLength="94" x="280" y="774.7764">OrderService</text><rect fill="#FEFECE" height="30.2969" style="stroke:#A80036;stroke-width:1.5;" width="134" x="417" y="90.2969"/><text fill="#000000" font-family="sans-serif" font-size="14" lengthAdjust="spacing" textLength="120" x="424" y="110.292">OrderRepository</text><rect fill="#FEFECE" height="30.2969" style="stroke:#A80036;stroke-width:1.5;" width="134" x="417" y="754.7813"/><text fill="#000000" font-family="sans-serif" font-size="14" lengthAdjust="spacing" textLength="120" x="424" y="774.7764">OrderRepository</text><text fill="#000000" font-family="sans-serif" font-size="14" lengthAdjust="spacing" textLength="21" x="585.5" y="118.292">DB</text><path d="M581,69.2969 C581,59.2969 599,59.2969 599,59.2969 C599,59.2969 617,59.2969 617,69.2969 L617,95.2969 C617,105.2969 599,105.2969 599,105.2969 C599,105.2969 581,105.2969 581,95.2969 L581,69.2969 " fill="#FEFECE" style="stroke:#A80036;stroke-width:1.5;"/><path d="M581,69.2969 C581,79.2969 599,79.2969 599,79.2969 C599,79.2969 617,79.2969 617,69.2969 " fill="none" style="stroke:#A80036;stroke-width:1.5;"/><text fill="#000000" font-family="sans-serif" font-size="14" lengthAdjust="spacing" textLength="21" x="585.5" y="767.7764">DB</text><path d="M581,781.0781 C581,771.0781 599,771.0781 599,771.0781 C599,771.0781 617,771.0781 617,781.0781 L617,807.0781 C617,817.0781 599,817.0781 599,817.0781 C599,817.0781 581,817.0781 581,807.0781 L581,781.0781 " fill="#FEFECE" style="stroke:#A80036;stroke-width:1.5;"/><path d="M581,781.0781 C581,791.0781 599,791.0781 599,791.0781 C599,791.0781 617,791.0781 617,781.0781 " fill="none" style="stroke:#A80036;stroke-width:1.5;"/><rect fill="#FFFFFF" height="306.5938" style="stroke:#A80036;stroke-width:1.0;" width="10" x="146" y="167.8594"/><rect fill="#FFFFFF" height="219.0625" style="stroke:#A80036;stroke-width:1.0;" width="10" x="146" y="518.7188"/><rect fill="#FFFFFF" height="160.7969" style="stroke:#A80036;stroke-width:1.0;" width="10" x="322" y="269.3906"/><rect fill="#FFFFFF" height="145.6641" style="stroke:#A80036;stroke-width:1.0;" width="10" x="322" y="547.8516"/><rect fill="#FFFFFF" height="87.3984" style="stroke:#A80036;stroke-width:1.0;" width="10" x="479" y="313.6563"/><rect fill="#FFFFFF" height="87.3984" style="stroke:#A80036;stroke-width:1.0;" width="10" x="479" y="576.9844"/><rect fill="#FFFFFF" height="29.1328" style="stroke:#A80036;stroke-width:1.0;" width="10" x="594" y="342.7891"/><rect fill="#FFFFFF" height="29.1328" style="stroke:#A80036;stroke-width:1.0;" width="10" x="594" y="606.1172"/><polygon fill="#A80036" points="134,163.8594,144,167.8594,134,171.8594,138,167.8594" style="stroke:#A80036;stroke-width:1.0;"/><line style="stroke:#A80036;stroke-width:1.0;" x1="22" x2="140" y1="167.8594" y2="167.8594"/><text fill="#000000" font-family="sans-serif" font-size="13" lengthAdjust="spacing" textLength="26" x="29" y="147.6606">GET</text><text fill="#000000" font-family="sans-serif" font-size="13" lengthAdjust="spacing" textLength="60" x="29" y="162.7935">/order/list</text><line style="stroke:#A80036;stroke-width:1.0;" x1="156" x2="198" y1="212.125" y2="212.125"/><line style="stroke:#A80036;stroke-width:1.0;" x1="198" x2="198" y1="212.125" y2="225.125"/><line style="stroke:#A80036;stroke-width:1.0;" x1="157" x2="198" y1="225.125" y2="225.125"/><polygon fill="#A80036" points="167,221.125,157,225.125,167,229.125,163,225.125" style="stroke:#A80036;stroke-width:1.0;"/><text fill="#000000" font-family="sans-serif" font-size="13" lengthAdjust="spacing" textLength="91" x="163" y="191.9263">&#12475;&#12483;&#12471;&#12519;&#12531;&#12363;&#12425;</text><text fill="#000000" font-family="sans-serif" font-size="13" lengthAdjust="spacing" textLength="78" x="163" y="207.0591">&#39015;&#23458;ID&#12434;&#21462;&#24471;</text><polygon fill="#A80036" points="310,265.3906,320,269.3906,310,273.3906,314,269.3906" style="stroke:#A80036;stroke-width:1.0;"/><line style="stroke:#A80036;stroke-width:1.0;" x1="156" x2="316" y1="269.3906" y2="269.3906"/><text fill="#000000" font-family="sans-serif" font-size="13" lengthAdjust="spacing" textLength="147" x="163" y="249.1919">getOrderByCustomerId</text><text fill="#000000" font-family="sans-serif" font-size="13" lengthAdjust="spacing" textLength="82" x="163" y="264.3247">(customerId)</text><polygon fill="#A80036" points="467,309.6563,477,313.6563,467,317.6563,471,313.6563" style="stroke:#A80036;stroke-width:1.0;"/><line style="stroke:#A80036;stroke-width:1.0;" x1="332" x2="473" y1="313.6563" y2="313.6563"/><text fill="#000000" font-family="sans-serif" font-size="13" lengthAdjust="spacing" textLength="128" x="339" y="293.4575">selectByCustomerId</text><text fill="#000000" font-family="sans-serif" font-size="13" lengthAdjust="spacing" textLength="82" x="339" y="308.5903">(customerId)</text><polygon fill="#A80036" points="582,338.7891,592,342.7891,582,346.7891,586,342.7891" style="stroke:#A80036;stroke-width:1.0;"/><line style="stroke:#A80036;stroke-width:1.0;" x1="489" x2="588" y1="342.7891" y2="342.7891"/><text fill="#000000" font-family="sans-serif" font-size="13" lengthAdjust="spacing" textLength="86" x="496" y="337.7231">SELECT order</text><polygon fill="#A80036" points="500,367.9219,490,371.9219,500,375.9219,496,371.9219" style="stroke:#A80036;stroke-width:1.0;"/><line style="stroke:#A80036;stroke-width:1.0;stroke-dasharray:2.0,2.0;" x1="494" x2="598" y1="371.9219" y2="371.9219"/><text fill="#000000" font-family="sans-serif" font-size="13" lengthAdjust="spacing" textLength="78" x="506" y="366.856">List&lt;Order&gt;</text><polygon fill="#A80036" points="343,397.0547,333,401.0547,343,405.0547,339,401.0547" style="stroke:#A80036;stroke-width:1.0;"/><line style="stroke:#A80036;stroke-width:1.0;stroke-dasharray:2.0,2.0;" x1="337" x2="483" y1="401.0547" y2="401.0547"/><text fill="#000000" font-family="sans-serif" font-size="13" lengthAdjust="spacing" textLength="78" x="349" y="395.9888">List&lt;Order&gt;</text><polygon fill="#A80036" points="167,426.1875,157,430.1875,167,434.1875,163,430.1875" style="stroke:#A80036;stroke-width:1.0;"/><line style="stroke:#A80036;stroke-width:1.0;stroke-dasharray:2.0,2.0;" x1="161" x2="326" y1="430.1875" y2="430.1875"/><text fill="#000000" font-family="sans-serif" font-size="13" lengthAdjust="spacing" textLength="78" x="173" y="425.1216">List&lt;Order&gt;</text><polygon fill="#A80036" points="33,470.4531,23,474.4531,33,478.4531,29,474.4531" style="stroke:#A80036;stroke-width:1.0;"/><line style="stroke:#A80036;stroke-width:1.0;stroke-dasharray:2.0,2.0;" x1="27" x2="150" y1="474.4531" y2="474.4531"/><text fill="#000000" font-family="sans-serif" font-size="13" lengthAdjust="spacing" textLength="52" x="39" y="454.2544">&#36092;&#20837;&#23653;&#27508;</text><text fill="#000000" font-family="sans-serif" font-size="13" lengthAdjust="spacing" textLength="52" x="39" y="469.3872">&#19968;&#35239;&#30011;&#38754;</text><polygon fill="#A80036" points="134,514.7188,144,518.7188,134,522.7188,138,518.7188" style="stroke:#A80036;stroke-width:1.0;"/><line style="stroke:#A80036;stroke-width:1.0;" x1="22" x2="140" y1="518.7188" y2="518.7188"/><text fill="#000000" font-family="sans-serif" font-size="13" lengthAdjust="spacing" textLength="26" x="29" y="498.52">GET</text><text fill="#000000" font-family="sans-serif" font-size="13" lengthAdjust="spacing" textLength="105" x="29" y="513.6528">/order/{orderId}</text><polygon fill="#A80036" points="310,543.8516,320,547.8516,310,551.8516,314,547.8516" style="stroke:#A80036;stroke-width:1.0;"/><line style="stroke:#A80036;stroke-width:1.0;" x1="156" x2="316" y1="547.8516" y2="547.8516"/><text fill="#000000" font-family="sans-serif" font-size="13" lengthAdjust="spacing" textLength="112" x="163" y="542.7856">getOrder(orderId)</text><polygon fill="#A80036" points="467,572.9844,477,576.9844,467,580.9844,471,576.9844" style="stroke:#A80036;stroke-width:1.0;"/><line style="stroke:#A80036;stroke-width:1.0;" x1="332" x2="473" y1="576.9844" y2="576.9844"/><text fill="#000000" font-family="sans-serif" font-size="13" lengthAdjust="spacing" textLength="120" x="339" y="571.9185">selectById(orderId)</text><polygon fill="#A80036" points="582,602.1172,592,606.1172,582,610.1172,586,606.1172" style="stroke:#A80036;stroke-width:1.0;"/><line style="stroke:#A80036;stroke-width:1.0;" x1="489" x2="588" y1="606.1172" y2="606.1172"/><text fill="#000000" font-family="sans-serif" font-size="13" lengthAdjust="spacing" textLength="86" x="496" y="601.0513">SELECT order</text><polygon fill="#A80036" points="500,631.25,490,635.25,500,639.25,496,635.25" style="stroke:#A80036;stroke-width:1.0;"/><line style="stroke:#A80036;stroke-width:1.0;stroke-dasharray:2.0,2.0;" x1="494" x2="598" y1="635.25" y2="635.25"/><text fill="#000000" font-family="sans-serif" font-size="13" lengthAdjust="spacing" textLength="36" x="506" y="630.1841">Order</text><polygon fill="#A80036" points="343,660.3828,333,664.3828,343,668.3828,339,664.3828" style="stroke:#A80036;stroke-width:1.0;"/><line style="stroke:#A80036;stroke-width:1.0;stroke-dasharray:2.0,2.0;" x1="337" x2="483" y1="664.3828" y2="664.3828"/><text fill="#000000" font-family="sans-serif" font-size="13" lengthAdjust="spacing" textLength="36" x="349" y="659.3169">Order</text><polygon fill="#A80036" points="167,689.5156,157,693.5156,167,697.5156,163,693.5156" style="stroke:#A80036;stroke-width:1.0;"/><line style="stroke:#A80036;stroke-width:1.0;stroke-dasharray:2.0,2.0;" x1="161" x2="326" y1="693.5156" y2="693.5156"/><text fill="#000000" font-family="sans-serif" font-size="13" lengthAdjust="spacing" textLength="36" x="173" y="688.4497">Order</text><polygon fill="#A80036" points="33,733.7813,23,737.7813,33,741.7813,29,737.7813" style="stroke:#A80036;stroke-width:1.0;"/><line style="stroke:#A80036;stroke-width:1.0;stroke-dasharray:2.0,2.0;" x1="27" x2="150" y1="737.7813" y2="737.7813"/><text fill="#000000" font-family="sans-serif" font-size="13" lengthAdjust="spacing" textLength="52" x="39" y="717.5825">&#36092;&#20837;&#23653;&#27508;</text><text fill="#000000" font-family="sans-serif" font-size="13" lengthAdjust="spacing" textLength="52" x="39" y="732.7153">&#35443;&#32048;&#30011;&#38754;</text><!--SRC=[ZL51Im916BtFhnZsP8ZeBP3mu2gr80HfjxsCCvCjhRioCrj81ENI8Je44NRga63IeQWK2ep-pBQf_wBPsIX3ZKupyzxxthmtmtSi1pANKy3bhe4OgaE-ZOYxPpark8LioGXBs1HkwfdCSXQE-w_XSJTyx7xS3IRjf_5D3m24XSkWDhdkXVST3I8EFI2jX8Mj1d84rDOPeMpDubBMr5r7CDUsALDAF4TPfcpNmbJnV0w_GHikjo8p9M60886gY5Ee5V8A8bK0F9ZAGPnCmYnSBLPC9-r6isbRnW1OSP89MiF0zuFMS-3t0hyV79q6hHFJYQiOXQ1r7fwrmxVBU88hjneLAaQ-gNkoKfqoWvXE0dyVbW2Fr4ofERKf5dzeMQGbLIKk5qj5lG9LKa2gC1NPf5AIASdOA-hQN3GHXPd1kSBn38uLxYby-lzCv_tbKFxWw68ukUeiUh1zjHZaODuR9Bx8kPKDyaF_hwNo_DKlHgQRnSZYJkFR_cZm47Vw1000]--></g></svg>