<svg xmlns="http://www.w3.org/2000/svg" xmlns:xlink="http://www.w3.org/1999/xlink" contentStyleType="text/css" height="838px" preserveAspectRatio="none" style="width:643px;height:838px;background:#FFFFFF;" version="1.1" viewBox="0 0 643 838" width="643px" zoomAndPan="magnify"><defs/><g><text fill="#000000" font-family="sans-serif" font-size="14" font-weight="bold" lengthAdjust="spacing" textLength="145.3385" x="242.817" y="27.9951">UC007: &#36092;&#20837;&#23653;&#27508;&#38322;&#35239;</text><rect fill="#FFFFFF" height="306.5938" style="stroke:#A80036;stroke-width:1.0;" width="10" x="148.1738" y="167.8594"/><rect fill="#FFFFFF" height="219.0625" style="stroke:#A80036;stroke-width:1.0;" width="10" x="148.1738" y="518.7188"/><rect fill="#FFFFFF" height="160.7969" style="stroke:#A80036;stroke-width:1.0;" width="10" x="327.537" y="269.3906"/><rect fill="#FFFFFF" height="145.6641" style="stroke:#A80036;stroke-width:1.0;" width="10" x="327.537" y="547.8516"/><rect fill="#FFFFFF" height="87.3984" style="stroke:#A80036;stroke-width:1.0;" width="10" x="487.0068" y="313.6563"/><rect fill="#FFFFFF" height="87.3984" style="stroke:#A80036;stroke-width:1.0;" width="10" x="487.0068" y="576.9844"/><rect fill="#FFFFFF" height="29.1328" style="stroke:#A80036;stroke-width:1.0;" width="10" x="603.9726" y="342.7891"/><rect fill="#FFFFFF" height="29.1328" style="stroke:#A80036;stroke-width:1.0;" width="10" x="603.9726" y="606.1172"/><line style="stroke:#A80036;stroke-width:1.0;stroke-dasharray:5.0,5.0;" x1="21" x2="21" y1="121.5938" y2="755.7813"/><line style="stroke:#A80036;stroke-width:1.0;stroke-dasharray:5.0,5.0;" x1="152.6684" x2="152.6684" y1="121.5938" y2="755.7813"/><line style="stroke:#A80036;stroke-width:1.0;stroke-dasharray:5.0,5.0;" x1="331.6508" x2="331.6508" y1="121.5938" y2="755.7813"/><line style="stroke:#A80036;stroke-width:1.0;stroke-dasharray:5.0,5.0;" x1="491.455" x2="491.455" y1="121.5938" y2="755.7813"/><line style="stroke:#A80036;stroke-width:1.0;stroke-dasharray:5.0,5.0;" x1="608.9726" x2="608.9726" y1="121.5938" y2="755.7813"/><text fill="#000000" font-family="sans-serif" font-size="14" lengthAdjust="spacing" textLength="27.9999" x="5" y="118.292">&#39015;&#23458;</text><ellipse cx="21.9999" cy="52.2969" fill="#FEFECE" rx="8" ry="8" style="stroke:#A80036;stroke-width:2.0;"/><path d="M21.9999,60.2969 L21.9999,87.2969 M8.9999,68.2969 L34.9999,68.2969 M21.9999,87.2969 L8.9999,102.2969 M21.9999,87.2969 L34.9999,102.2969 " fill="none" style="stroke:#A80036;stroke-width:2.0;"/><text fill="#000000" font-family="sans-serif" font-size="14" lengthAdjust="spacing" textLength="27.9999" x="5" y="767.7764">&#39015;&#23458;</text><ellipse cx="21.9999" cy="781.0781" fill="#FEFECE" rx="8" ry="8" style="stroke:#A80036;stroke-width:2.0;"/><path d="M21.9999,789.0781 L21.9999,816.0781 M8.9999,797.0781 L34.9999,797.0781 M21.9999,816.0781 L8.9999,831.0781 M21.9999,816.0781 L34.9999,831.0781 " fill="none" style="stroke:#A80036;stroke-width:2.0;"/><rect fill="#FEFECE" height="30.2969" style="stroke:#A80036;stroke-width:1.5;" width="173.0107" x="66.6684" y="90.2969"/><text fill="#000000" font-family="sans-serif" font-size="14" lengthAdjust="spacing" textLength="159.0107" x="73.6684" y="110.292">OrderHistoryController</text><rect fill="#FEFECE" height="30.2969" style="stroke:#A80036;stroke-width:1.5;" width="173.0107" x="66.6684" y="754.7813"/><text fill="#000000" font-family="sans-serif" font-size="14" lengthAdjust="spacing" textLength="159.0107" x="73.6684" y="774.7764">OrderHistoryController</text><rect fill="#FEFECE" height="30.2969" style="stroke:#A80036;stroke-width:1.5;" width="105.7725" x="279.6508" y="90.2969"/><text fill="#000000" font-family="sans-serif" font-size="14" lengthAdjust="spacing" textLength="91.7725" x="286.6508" y="110.292">OrderService</text><rect fill="#FEFECE" height="30.2969" style="stroke:#A80036;stroke-width:1.5;" width="105.7725" x="279.6508" y="754.7813"/><text fill="#000000" font-family="sans-serif" font-size="14" lengthAdjust="spacing" textLength="91.7725" x="286.6508" y="774.7764">OrderService</text><rect fill="#FEFECE" height="30.2969" style="stroke:#A80036;stroke-width:1.5;" width="129.1035" x="427.455" y="90.2969"/><text fill="#000000" font-family="sans-serif" font-size="14" lengthAdjust="spacing" textLength="115.1035" x="434.455" y="110.292">OrderRepository</text><rect fill="#FEFECE" height="30.2969" style="stroke:#A80036;stroke-width:1.5;" width="129.1035" x="427.455" y="754.7813"/><text fill="#000000" font-family="sans-serif" font-size="14" lengthAdjust="spacing" textLength="115.1035" x="434.455" y="774.7764">OrderRepository</text><text fill="#000000" font-family="sans-serif" font-size="14" lengthAdjust="spacing" textLength="20.3848" x="595.7802" y="118.292">DB</text><path d="M590.9726,69.2969 C590.9726,59.2969 608.9726,59.2969 608.9726,59.2969 C608.9726,59.2969 626.9726,59.2969 626.9726,69.2969 L626.9726,95.2969 C626.9726,105.2969 608.9726,105.2969 608.9726,105.2969 C608.9726,105.2969 590.9726,105.2969 590.9726,95.2969 L590.9726,69.2969 " fill="#FEFECE" style="stroke:#A80036;stroke-width:1.5;"/><path d="M590.9726,69.2969 C590.9726,79.2969 608.9726,79.2969 608.9726,79.2969 C608.9726,79.2969 626.9726,79.2969 626.9726,69.2969 " fill="none" style="stroke:#A80036;stroke-width:1.5;"/><text fill="#000000" font-family="sans-serif" font-size="14" lengthAdjust="spacing" textLength="20.3848" x="595.7802" y="767.7764">DB</text><path d="M590.9726,781.0781 C590.9726,771.0781 608.9726,771.0781 608.9726,771.0781 C608.9726,771.0781 626.9726,771.0781 626.9726,781.0781 L626.9726,807.0781 C626.9726,817.0781 608.9726,817.0781 608.9726,817.0781 C608.9726,817.0781 590.9726,817.0781 590.9726,807.0781 L590.9726,781.0781 " fill="#FEFECE" style="stroke:#A80036;stroke-width:1.5;"/><path d="M590.9726,781.0781 C590.9726,791.0781 608.9726,791.0781 608.9726,791.0781 C608.9726,791.0781 626.9726,791.0781 626.9726,781.0781 " fill="none" style="stroke:#A80036;stroke-width:1.5;"/><rect fill="#FFFFFF" height="306.5938" style="stroke:#A80036;stroke-width:1.0;" width="10" x="148.1738" y="167.8594"/><rect fill="#FFFFFF" height="219.0625" style="stroke:#A80036;stroke-width:1.0;" width="10" x="148.1738" y="518.7188"/><rect fill="#FFFFFF" height="160.7969" style="stroke:#A80036;stroke-width:1.0;" width="10" x="327.537" y="269.3906"/><rect fill="#FFFFFF" height="145.6641" style="stroke:#A80036;stroke-width:1.0;" width="10" x="327.537" y="547.8516"/><rect fill="#FFFFFF" height="87.3984" style="stroke:#A80036;stroke-width:1.0;" width="10" x="487.0068" y="313.6563"/><rect fill="#FFFFFF" height="87.3984" style="stroke:#A80036;stroke-width:1.0;" width="10" x="487.0068" y="576.9844"/><rect fill="#FFFFFF" height="29.1328" style="stroke:#A80036;stroke-width:1.0;" width="10" x="603.9726" y="342.7891"/><rect fill="#FFFFFF" height="29.1328" style="stroke:#A80036;stroke-width:1.0;" width="10" x="603.9726" y="606.1172"/><polygon fill="#A80036" points="136.1738,163.8594,146.1738,167.8594,136.1738,171.8594,140.1738,167.8594" style="stroke:#A80036;stroke-width:1.0;"/><line style="stroke:#A80036;stroke-width:1.0;" x1="21.9999" x2="142.1738" y1="167.8594" y2="167.8594"/><text fill="#000000" font-family="sans-serif" font-size="13" lengthAdjust="spacing" textLength="26.2285" x="28.9999" y="147.6606">GET</text><text fill="#000000" font-family="sans-serif" font-size="13" lengthAdjust="spacing" textLength="62.7466" x="28.9999" y="162.7935">/order/list</text><line style="stroke:#A80036;stroke-width:1.0;" x1="158.1738" x2="200.1738" y1="212.125" y2="212.125"/><line style="stroke:#A80036;stroke-width:1.0;" x1="200.1738" x2="200.1738" y1="212.125" y2="225.125"/><line style="stroke:#A80036;stroke-width:1.0;" x1="159.1738" x2="200.1738" y1="225.125" y2="225.125"/><polygon fill="#A80036" points="169.1738,221.125,159.1738,225.125,169.1738,229.125,165.1738,225.125" style="stroke:#A80036;stroke-width:1.0;"/><text fill="#000000" font-family="sans-serif" font-size="13" lengthAdjust="spacing" textLength="91.0001" x="165.1738" y="191.9263">&#12475;&#12483;&#12471;&#12519;&#12531;&#12363;&#12425;</text><text fill="#000000" font-family="sans-serif" font-size="13" lengthAdjust="spacing" textLength="78.8443" x="165.1738" y="207.0591">&#39015;&#23458;ID&#12434;&#21462;&#24471;</text><polygon fill="#A80036" points="315.537,265.3906,325.537,269.3906,315.537,273.3906,319.537,269.3906" style="stroke:#A80036;stroke-width:1.0;"/><line style="stroke:#A80036;stroke-width:1.0;" x1="158.1738" x2="321.537" y1="269.3906" y2="269.3906"/><text fill="#000000" font-family="sans-serif" font-size="13" lengthAdjust="spacing" textLength="150.3633" x="165.1738" y="249.1919">getOrderByCustomerId</text><text fill="#000000" font-family="sans-serif" font-size="13" lengthAdjust="spacing" textLength="83.4463" x="165.1738" y="264.3247">(customerId)</text><polygon fill="#A80036" points="475.0068,309.6563,485.0068,313.6563,475.0068,317.6563,479.0068,313.6563" style="stroke:#A80036;stroke-width:1.0;"/><line style="stroke:#A80036;stroke-width:1.0;" x1="337.537" x2="481.0068" y1="313.6563" y2="313.6563"/><text fill="#000000" font-family="sans-serif" font-size="13" lengthAdjust="spacing" textLength="130.4697" x="344.537" y="293.4575">selectByCustomerId</text><text fill="#000000" font-family="sans-serif" font-size="13" lengthAdjust="spacing" textLength="83.4463" x="344.537" y="308.5903">(customerId)</text><polygon fill="#A80036" points="591.9726,338.7891,601.9726,342.7891,591.9726,346.7891,595.9726,342.7891" style="stroke:#A80036;stroke-width:1.0;"/><line style="stroke:#A80036;stroke-width:1.0;" x1="497.0068" x2="597.9726" y1="342.7891" y2="342.7891"/><text fill="#000000" font-family="sans-serif" font-size="13" lengthAdjust="spacing" textLength="87.9658" x="504.0068" y="337.7231">SELECT order</text><polygon fill="#A80036" points="508.0068,367.9219,498.0068,371.9219,508.0068,375.9219,504.0068,371.9219" style="stroke:#A80036;stroke-width:1.0;"/><line style="stroke:#A80036;stroke-width:1.0;stroke-dasharray:2.0,2.0;" x1="502.0068" x2="607.9726" y1="371.9219" y2="371.9219"/><text fill="#000000" font-family="sans-serif" font-size="13" lengthAdjust="spacing" textLength="81.6816" x="514.0068" y="366.856">List&lt;Order&gt;</text><polygon fill="#A80036" points="348.537,397.0547,338.537,401.0547,348.537,405.0547,344.537,401.0547" style="stroke:#A80036;stroke-width:1.0;"/><line style="stroke:#A80036;stroke-width:1.0;stroke-dasharray:2.0,2.0;" x1="342.537" x2="491.0068" y1="401.0547" y2="401.0547"/><text fill="#000000" font-family="sans-serif" font-size="13" lengthAdjust="spacing" textLength="81.6816" x="354.537" y="395.9888">List&lt;Order&gt;</text><polygon fill="#A80036" points="169.1738,426.1875,159.1738,430.1875,169.1738,434.1875,165.1738,430.1875" style="stroke:#A80036;stroke-width:1.0;"/><line style="stroke:#A80036;stroke-width:1.0;stroke-dasharray:2.0,2.0;" x1="163.1738" x2="331.537" y1="430.1875" y2="430.1875"/><text fill="#000000" font-family="sans-serif" font-size="13" lengthAdjust="spacing" textLength="81.6816" x="175.1738" y="425.1216">List&lt;Order&gt;</text><polygon fill="#A80036" points="32.9999,470.4531,22.9999,474.4531,32.9999,478.4531,28.9999,474.4531" style="stroke:#A80036;stroke-width:1.0;"/><line style="stroke:#A80036;stroke-width:1.0;stroke-dasharray:2.0,2.0;" x1="26.9999" x2="152.1738" y1="474.4531" y2="474.4531"/><text fill="#000000" font-family="sans-serif" font-size="13" lengthAdjust="spacing" textLength="52.0001" x="38.9999" y="454.2544">&#36092;&#20837;&#23653;&#27508;</text><text fill="#000000" font-family="sans-serif" font-size="13" lengthAdjust="spacing" textLength="52.0001" x="38.9999" y="469.3872">&#19968;&#35239;&#30011;&#38754;</text><polygon fill="#A80036" points="136.1738,514.7188,146.1738,518.7188,136.1738,522.7188,140.1738,518.7188" style="stroke:#A80036;stroke-width:1.0;"/><line style="stroke:#A80036;stroke-width:1.0;" x1="21.9999" x2="142.1738" y1="518.7188" y2="518.7188"/><text fill="#000000" font-family="sans-serif" font-size="13" lengthAdjust="spacing" textLength="26.2285" x="28.9999" y="498.52">GET</text><text fill="#000000" font-family="sans-serif" font-size="13" lengthAdjust="spacing" textLength="107.1738" x="28.9999" y="513.6528">/order/{orderId}</text><polygon fill="#A80036" points="315.537,543.8516,325.537,547.8516,315.537,551.8516,319.537,547.8516" style="stroke:#A80036;stroke-width:1.0;"/><line style="stroke:#A80036;stroke-width:1.0;" x1="158.1738" x2="321.537" y1="547.8516" y2="547.8516"/><text fill="#000000" font-family="sans-serif" font-size="13" lengthAdjust="spacing" textLength="115.6416" x="165.1738" y="542.7856">getOrder(orderId)</text><polygon fill="#A80036" points="475.0068,572.9844,485.0068,576.9844,475.0068,580.9844,479.0068,576.9844" style="stroke:#A80036;stroke-width:1.0;"/><line style="stroke:#A80036;stroke-width:1.0;" x1="337.537" x2="481.0068" y1="576.9844" y2="576.9844"/><text fill="#000000" font-family="sans-serif" font-size="13" lengthAdjust="spacing" textLength="124.4458" x="344.537" y="571.9185">selectById(orderId)</text><polygon fill="#A80036" points="591.9726,602.1172,601.9726,606.1172,591.9726,610.1172,595.9726,606.1172" style="stroke:#A80036;stroke-width:1.0;"/><line style="stroke:#A80036;stroke-width:1.0;" x1="497.0068" x2="597.9726" y1="606.1172" y2="606.1172"/><text fill="#000000" font-family="sans-serif" font-size="13" lengthAdjust="spacing" textLength="87.9658" x="504.0068" y="601.0513">SELECT order</text><polygon fill="#A80036" points="508.0068,631.25,498.0068,635.25,508.0068,639.25,504.0068,635.25" style="stroke:#A80036;stroke-width:1.0;"/><line style="stroke:#A80036;stroke-width:1.0;stroke-dasharray:2.0,2.0;" x1="502.0068" x2="607.9726" y1="635.25" y2="635.25"/><text fill="#000000" font-family="sans-serif" font-size="13" lengthAdjust="spacing" textLength="37.1719" x="514.0068" y="630.1841">Order</text><polygon fill="#A80036" points="348.537,660.3828,338.537,664.3828,348.537,668.3828,344.537,664.3828" style="stroke:#A80036;stroke-width:1.0;"/><line style="stroke:#A80036;stroke-width:1.0;stroke-dasharray:2.0,2.0;" x1="342.537" x2="491.0068" y1="664.3828" y2="664.3828"/><text fill="#000000" font-family="sans-serif" font-size="13" lengthAdjust="spacing" textLength="37.1719" x="354.537" y="659.3169">Order</text><polygon fill="#A80036" points="169.1738,689.5156,159.1738,693.5156,169.1738,697.5156,165.1738,693.5156" style="stroke:#A80036;stroke-width:1.0;"/><line style="stroke:#A80036;stroke-width:1.0;stroke-dasharray:2.0,2.0;" x1="163.1738" x2="331.537" y1="693.5156" y2="693.5156"/><text fill="#000000" font-family="sans-serif" font-size="13" lengthAdjust="spacing" textLength="37.1719" x="175.1738" y="688.4497">Order</text><polygon fill="#A80036" points="32.9999,733.7813,22.9999,737.7813,32.9999,741.7813,28.9999,737.7813" style="stroke:#A80036;stroke-width:1.0;"/><line style="stroke:#A80036;stroke-width:1.0;stroke-dasharray:2.0,2.0;" x1="26.9999" x2="152.1738" y1="737.7813" y2="737.7813"/><text fill="#000000" font-family="sans-serif" font-size="13" lengthAdjust="spacing" textLength="52.0001" x="38.9999" y="717.5825">&#36092;&#20837;&#23653;&#27508;</text><text fill="#000000" font-family="sans-serif" font-size="13" lengthAdjust="spacing" textLength="52.0001" x="38.9999" y="732.7153">&#35443;&#32048;&#30011;&#38754;</text><!--SRC=[ZL51Im916BtFhnZsP8ZeBP3mu2gr80HfjxsCCvCjhRioCrj81ENI8Je44NRga63IeQWK2ep-pBQf_wBPsIX3ZKupyzxxthmtmtSi1pANKy3bhe4OgaE-ZOYxPpark8LioGXBs1HkwfdCSXQE-w_XSJTyx7xS3IRjf_5D3m24XSkWDhdkXVST3I8EFI2jX8Mj1d84rDOPeMpDubBMr5r7CDUsALDAF4TPfcpNmbJnV0w_GHikjo8p9M60886gY5Ee5V8A8bK0F9ZAGPnCmYnSBLPC9-r6isbRnW1OSP89MiF0zuFMS-3t0hyV79q6hHFJYQiOXQ1r7fwrmxVBU88hjneLAaQ-gNkoKfqoWvXE0dyVbW2Fr4ofERKf5dzeMQGbLIKk5qj5lG9LKa2gC1NPf5AIASdOA-hQN3GHXPd1kSBn38uLxYby-lzCv_tbKFxWw68ukUeiUh1zjHZaODuR9Bx8kPKDyaF_hwNo_DKlHgQRnSZYJkFR_cZm47Vw1000]--></g></svg>