<?xml version="1.0" encoding="us-ascii" standalone="no"?><svg xmlns="http://www.w3.org/2000/svg" xmlns:xlink="http://www.w3.org/1999/xlink" contentStyleType="text/css" height="795px" preserveAspectRatio="none" style="width:992px;height:795px;background:#FFFFFF;" version="1.1" viewBox="0 0 992 795" width="992px" zoomAndPan="magnify"><defs/><g><text fill="#000000" font-family="sans-serif" font-size="14" font-weight="bold" lengthAdjust="spacing" textLength="132" x="423" y="22.9951">service&#12497;&#12483;&#12465;&#12540;&#12472;</text><!--cluster service--><g id="cluster_service"><polygon fill="none" points="16,43.2969,79,43.2969,86,65.5938,975,65.5938,975,788.2969,16,788.2969,16,43.2969" style="stroke:#000000;stroke-width:1.5;"/><line style="stroke:#000000;stroke-width:1.5;" x1="16" x2="86" y1="65.5938" y2="65.5938"/><text fill="#000000" font-family="sans-serif" font-size="14" font-weight="bold" lengthAdjust="spacing" textLength="57" x="20" y="58.292">service</text></g><!--class ProductService--><g id="elem_ProductService"><rect codeLine="7" fill="#FEFECE" height="137.7813" id="ProductService" style="stroke:#A80036;stroke-width:1.0;" width="429" x="32" y="78.2969"/><ellipse cx="188.75" cy="94.2969" fill="#B4A7E5" rx="11" ry="11" style="stroke:#A80036;stroke-width:1.0;"/><path d="M189.7031,91.0781 L191.4219,91.0781 C191.8125,91.0781 192,91.0469 192.125,90.9688 C192.3906,90.8125 192.5313,90.5313 192.5313,90.2344 C192.5313,89.9688 192.4219,89.7031 192.1875,89.5313 C192.0156,89.4219 191.875,89.3906 191.4219,89.3906 L186.2813,89.3906 C185.8438,89.3906 185.7188,89.4063 185.5625,89.5 C185.3125,89.6563 185.1563,89.9531 185.1563,90.2344 C185.1563,90.5156 185.2969,90.7656 185.5156,90.9375 C185.6719,91.0469 185.8594,91.0781 186.2813,91.0781 L188,91.0781 L188,97.5938 L186.2813,97.5938 C185.8438,97.5938 185.7188,97.6094 185.5625,97.7188 C185.3125,97.875 185.1563,98.1563 185.1563,98.4531 C185.1563,98.7031 185.2969,98.9688 185.5156,99.125 C185.6719,99.25 185.875,99.2969 186.2813,99.2969 L191.4219,99.2969 C192.1719,99.2969 192.5313,99.0156 192.5313,98.4531 C192.5313,98.1719 192.4219,97.9219 192.1875,97.75 C192.0156,97.625 191.875,97.5938 191.4219,97.5938 L189.7031,97.5938 L189.7031,91.0781 Z " fill="#000000"/><text fill="#000000" font-family="sans-serif" font-size="14" font-style="italic" lengthAdjust="spacing" textLength="107" x="209.25" y="99.1436">ProductService</text><line style="stroke:#A80036;stroke-width:1.0;" x1="33" x2="460" y1="110.2969" y2="110.2969"/><ellipse cx="43" cy="123.9453" fill="#84BE84" rx="3" ry="3" style="stroke:#038048;stroke-width:1.0;"/><text fill="#000000" font-family="sans-serif" font-size="14" font-style="italic" lengthAdjust="spacing" textLength="170" x="52" y="127.292">findAll() : List&lt;Product&gt;</text><ellipse cx="43" cy="140.2422" fill="#84BE84" rx="3" ry="3" style="stroke:#038048;stroke-width:1.0;"/><text fill="#000000" font-family="sans-serif" font-size="14" font-style="italic" lengthAdjust="spacing" textLength="403" x="52" y="143.5889">findByCategoryId(int productCategoryId) : List&lt;Product&gt;</text><ellipse cx="43" cy="156.5391" fill="#84BE84" rx="3" ry="3" style="stroke:#038048;stroke-width:1.0;"/><text fill="#000000" font-family="sans-serif" font-size="14" font-style="italic" lengthAdjust="spacing" textLength="203" x="52" y="159.8857">findById(Integer id) : Product</text><ellipse cx="43" cy="172.8359" fill="#84BE84" rx="3" ry="3" style="stroke:#038048;stroke-width:1.0;"/><text fill="#000000" font-family="sans-serif" font-size="14" font-style="italic" lengthAdjust="spacing" textLength="206" x="52" y="176.1826">insert(Product product) : void</text><ellipse cx="43" cy="189.1328" fill="#84BE84" rx="3" ry="3" style="stroke:#038048;stroke-width:1.0;"/><text fill="#000000" font-family="sans-serif" font-size="14" font-style="italic" lengthAdjust="spacing" textLength="216" x="52" y="192.4795">update(Product product) : void</text><ellipse cx="43" cy="205.4297" fill="#84BE84" rx="3" ry="3" style="stroke:#038048;stroke-width:1.0;"/><text fill="#000000" font-family="sans-serif" font-size="14" font-style="italic" lengthAdjust="spacing" textLength="166" x="52" y="208.7764">delete(Integer id) : void</text></g><!--class ProductServiceImpl--><g id="elem_ProductServiceImpl"><rect codeLine="15" fill="#FEFECE" height="137.7813" id="ProductServiceImpl" style="stroke:#A80036;stroke-width:1.0;" width="438" x="521" y="78.2969"/><ellipse cx="665.25" cy="94.2969" fill="#ADD1B2" rx="11" ry="11" style="stroke:#A80036;stroke-width:1.0;"/><path d="M667.5938,89.9688 C666.6563,89.5313 666.0625,89.3906 665.1875,89.3906 C662.5625,89.3906 660.5625,91.4688 660.5625,94.1875 L660.5625,95.3125 C660.5625,97.8906 662.6719,99.7813 665.5625,99.7813 C666.7813,99.7813 667.9375,99.4844 668.6875,98.9375 C669.2656,98.5313 669.5938,98.0781 669.5938,97.6875 C669.5938,97.2344 669.2031,96.8438 668.7344,96.8438 C668.5156,96.8438 668.3125,96.9219 668.125,97.1094 C667.6719,97.5938 667.6719,97.5938 667.4844,97.6875 C667.0625,97.9531 666.375,98.0781 665.6094,98.0781 C663.5625,98.0781 662.2656,96.9844 662.2656,95.2813 L662.2656,94.1875 C662.2656,92.4063 663.5156,91.0938 665.25,91.0938 C665.8281,91.0938 666.4375,91.25 666.9063,91.5 C667.3906,91.7813 667.5625,92 667.6563,92.4063 C667.7188,92.8125 667.75,92.9375 667.8906,93.0625 C668.0313,93.2031 668.2656,93.3125 668.4844,93.3125 C668.75,93.3125 669.0156,93.1719 669.1875,92.9531 C669.2969,92.7969 669.3281,92.6094 669.3281,92.1875 L669.3281,90.7656 C669.3281,90.3281 669.3125,90.2031 669.2188,90.0469 C669.0625,89.7813 668.7813,89.6406 668.4844,89.6406 C668.1875,89.6406 667.9844,89.7344 667.7656,90.0469 L667.5938,89.9688 Z " fill="#000000"/><text fill="#000000" font-family="sans-serif" font-size="14" lengthAdjust="spacing" textLength="141" x="685.75" y="99.1436">ProductServiceImpl</text><line style="stroke:#A80036;stroke-width:1.0;" x1="522" x2="958" y1="110.2969" y2="110.2969"/><ellipse cx="532" cy="123.9453" fill="#84BE84" rx="3" ry="3" style="stroke:#038048;stroke-width:1.0;"/><text fill="#000000" font-family="sans-serif" font-size="14" lengthAdjust="spacing" textLength="173" x="541" y="127.292">findAll() : List&lt;Product&gt;</text><ellipse cx="532" cy="140.2422" fill="#84BE84" rx="3" ry="3" style="stroke:#038048;stroke-width:1.0;"/><text fill="#000000" font-family="sans-serif" font-size="14" lengthAdjust="spacing" textLength="412" x="541" y="143.5889">findByCategoryId(int productCategoryId) : List&lt;Product&gt;</text><ellipse cx="532" cy="156.5391" fill="#84BE84" rx="3" ry="3" style="stroke:#038048;stroke-width:1.0;"/><text fill="#000000" font-family="sans-serif" font-size="14" lengthAdjust="spacing" textLength="208" x="541" y="159.8857">findById(Integer id) : Product</text><ellipse cx="532" cy="172.8359" fill="#84BE84" rx="3" ry="3" style="stroke:#038048;stroke-width:1.0;"/><text fill="#000000" font-family="sans-serif" font-size="14" lengthAdjust="spacing" textLength="212" x="541" y="176.1826">insert(Product product) : void</text><ellipse cx="532" cy="189.1328" fill="#84BE84" rx="3" ry="3" style="stroke:#038048;stroke-width:1.0;"/><text fill="#000000" font-family="sans-serif" font-size="14" lengthAdjust="spacing" textLength="221" x="541" y="192.4795">update(Product product) : void</text><ellipse cx="532" cy="205.4297" fill="#84BE84" rx="3" ry="3" style="stroke:#038048;stroke-width:1.0;"/><text fill="#000000" font-family="sans-serif" font-size="14" lengthAdjust="spacing" textLength="170" x="541" y="208.7764">delete(Integer id) : void</text></g><!--class ProductCategoryService--><g id="elem_ProductCategoryService"><rect codeLine="24" fill="#FEFECE" height="88.8906" id="ProductCategoryService" style="stroke:#A80036;stroke-width:1.0;" width="362" x="65.5" y="251.7969"/><ellipse cx="156.25" cy="267.7969" fill="#B4A7E5" rx="11" ry="11" style="stroke:#A80036;stroke-width:1.0;"/><path d="M157.2031,264.5781 L158.9219,264.5781 C159.3125,264.5781 159.5,264.5469 159.625,264.4688 C159.8906,264.3125 160.0313,264.0313 160.0313,263.7344 C160.0313,263.4688 159.9219,263.2031 159.6875,263.0313 C159.5156,262.9219 159.375,262.8906 158.9219,262.8906 L153.7813,262.8906 C153.3438,262.8906 153.2188,262.9063 153.0625,263 C152.8125,263.1563 152.6563,263.4531 152.6563,263.7344 C152.6563,264.0156 152.7969,264.2656 153.0156,264.4375 C153.1719,264.5469 153.3594,264.5781 153.7813,264.5781 L155.5,264.5781 L155.5,271.0938 L153.7813,271.0938 C153.3438,271.0938 153.2188,271.1094 153.0625,271.2188 C152.8125,271.375 152.6563,271.6563 152.6563,271.9531 C152.6563,272.2031 152.7969,272.4688 153.0156,272.625 C153.1719,272.75 153.375,272.7969 153.7813,272.7969 L158.9219,272.7969 C159.6719,272.7969 160.0313,272.5156 160.0313,271.9531 C160.0313,271.6719 159.9219,271.4219 159.6875,271.25 C159.5156,271.125 159.375,271.0938 158.9219,271.0938 L157.2031,271.0938 L157.2031,264.5781 Z " fill="#000000"/><text fill="#000000" font-family="sans-serif" font-size="14" font-style="italic" lengthAdjust="spacing" textLength="172" x="176.75" y="272.6436">ProductCategoryService</text><line style="stroke:#A80036;stroke-width:1.0;" x1="66.5" x2="426.5" y1="283.7969" y2="283.7969"/><ellipse cx="76.5" cy="297.4453" fill="#84BE84" rx="3" ry="3" style="stroke:#038048;stroke-width:1.0;"/><text fill="#000000" font-family="sans-serif" font-size="14" font-style="italic" lengthAdjust="spacing" textLength="235" x="85.5" y="300.792">findAll() : List&lt;ProductCategory&gt;</text><ellipse cx="76.5" cy="313.7422" fill="#84BE84" rx="3" ry="3" style="stroke:#038048;stroke-width:1.0;"/><text fill="#000000" font-family="sans-serif" font-size="14" font-style="italic" lengthAdjust="spacing" textLength="268" x="85.5" y="317.0889">findById(Integer id) : ProductCategory</text><ellipse cx="76.5" cy="330.0391" fill="#84BE84" rx="3" ry="3" style="stroke:#038048;stroke-width:1.0;"/><text fill="#000000" font-family="sans-serif" font-size="14" font-style="italic" lengthAdjust="spacing" textLength="336" x="85.5" y="333.3857">insert(ProductCategory productCategory) : void</text></g><!--class ProductCategoryServiceImpl--><g id="elem_ProductCategoryServiceImpl"><rect codeLine="29" fill="#FEFECE" height="88.8906" id="ProductCategoryServiceImpl" style="stroke:#A80036;stroke-width:1.0;" width="370" x="555" y="251.7969"/><ellipse cx="632.25" cy="267.7969" fill="#ADD1B2" rx="11" ry="11" style="stroke:#A80036;stroke-width:1.0;"/><path d="M634.5938,263.4688 C633.6563,263.0313 633.0625,262.8906 632.1875,262.8906 C629.5625,262.8906 627.5625,264.9688 627.5625,267.6875 L627.5625,268.8125 C627.5625,271.3906 629.6719,273.2813 632.5625,273.2813 C633.7813,273.2813 634.9375,272.9844 635.6875,272.4375 C636.2656,272.0313 636.5938,271.5781 636.5938,271.1875 C636.5938,270.7344 636.2031,270.3438 635.7344,270.3438 C635.5156,270.3438 635.3125,270.4219 635.125,270.6094 C634.6719,271.0938 634.6719,271.0938 634.4844,271.1875 C634.0625,271.4531 633.375,271.5781 632.6094,271.5781 C630.5625,271.5781 629.2656,270.4844 629.2656,268.7813 L629.2656,267.6875 C629.2656,265.9063 630.5156,264.5938 632.25,264.5938 C632.8281,264.5938 633.4375,264.75 633.9063,265 C634.3906,265.2813 634.5625,265.5 634.6563,265.9063 C634.7188,266.3125 634.75,266.4375 634.8906,266.5625 C635.0313,266.7031 635.2656,266.8125 635.4844,266.8125 C635.75,266.8125 636.0156,266.6719 636.1875,266.4531 C636.2969,266.2969 636.3281,266.1094 636.3281,265.6875 L636.3281,264.2656 C636.3281,263.8281 636.3125,263.7031 636.2188,263.5469 C636.0625,263.2813 635.7813,263.1406 635.4844,263.1406 C635.1875,263.1406 634.9844,263.2344 634.7656,263.5469 L634.5938,263.4688 Z " fill="#000000"/><text fill="#000000" font-family="sans-serif" font-size="14" lengthAdjust="spacing" textLength="207" x="652.75" y="272.6436">ProductCategoryServiceImpl</text><line style="stroke:#A80036;stroke-width:1.0;" x1="556" x2="924" y1="283.7969" y2="283.7969"/><ellipse cx="566" cy="297.4453" fill="#84BE84" rx="3" ry="3" style="stroke:#038048;stroke-width:1.0;"/><text fill="#000000" font-family="sans-serif" font-size="14" lengthAdjust="spacing" textLength="239" x="575" y="300.792">findAll() : List&lt;ProductCategory&gt;</text><ellipse cx="566" cy="313.7422" fill="#84BE84" rx="3" ry="3" style="stroke:#038048;stroke-width:1.0;"/><text fill="#000000" font-family="sans-serif" font-size="14" lengthAdjust="spacing" textLength="274" x="575" y="317.0889">findById(Integer id) : ProductCategory</text><ellipse cx="566" cy="330.0391" fill="#84BE84" rx="3" ry="3" style="stroke:#038048;stroke-width:1.0;"/><text fill="#000000" font-family="sans-serif" font-size="14" lengthAdjust="spacing" textLength="344" x="575" y="333.3857">insert(ProductCategory productCategory) : void</text></g><!--class EmployeeAccountService--><g id="elem_EmployeeAccountService"><rect codeLine="36" fill="#FEFECE" height="105.1875" id="EmployeeAccountService" style="stroke:#A80036;stroke-width:1.0;" width="381" x="56" y="375.7969"/><ellipse cx="151.25" cy="391.7969" fill="#B4A7E5" rx="11" ry="11" style="stroke:#A80036;stroke-width:1.0;"/><path d="M152.2031,388.5781 L153.9219,388.5781 C154.3125,388.5781 154.5,388.5469 154.625,388.4688 C154.8906,388.3125 155.0313,388.0313 155.0313,387.7344 C155.0313,387.4688 154.9219,387.2031 154.6875,387.0313 C154.5156,386.9219 154.375,386.8906 153.9219,386.8906 L148.7813,386.8906 C148.3438,386.8906 148.2188,386.9063 148.0625,387 C147.8125,387.1563 147.6563,387.4531 147.6563,387.7344 C147.6563,388.0156 147.7969,388.2656 148.0156,388.4375 C148.1719,388.5469 148.3594,388.5781 148.7813,388.5781 L150.5,388.5781 L150.5,395.0938 L148.7813,395.0938 C148.3438,395.0938 148.2188,395.1094 148.0625,395.2188 C147.8125,395.375 147.6563,395.6563 147.6563,395.9531 C147.6563,396.2031 147.7969,396.4688 148.0156,396.625 C148.1719,396.75 148.375,396.7969 148.7813,396.7969 L153.9219,396.7969 C154.6719,396.7969 155.0313,396.5156 155.0313,395.9531 C155.0313,395.6719 154.9219,395.4219 154.6875,395.25 C154.5156,395.125 154.375,395.0938 153.9219,395.0938 L152.2031,395.0938 L152.2031,388.5781 Z " fill="#000000"/><text fill="#000000" font-family="sans-serif" font-size="14" font-style="italic" lengthAdjust="spacing" textLength="182" x="171.75" y="396.6436">EmployeeAccountService</text><line style="stroke:#A80036;stroke-width:1.0;" x1="57" x2="436" y1="407.7969" y2="407.7969"/><ellipse cx="67" cy="421.4453" fill="#84BE84" rx="3" ry="3" style="stroke:#038048;stroke-width:1.0;"/><text fill="#000000" font-family="sans-serif" font-size="14" font-style="italic" lengthAdjust="spacing" textLength="245" x="76" y="424.792">findAll() : List&lt;EmployeeAccount&gt;</text><ellipse cx="67" cy="437.7422" fill="#84BE84" rx="3" ry="3" style="stroke:#038048;stroke-width:1.0;"/><text fill="#000000" font-family="sans-serif" font-size="14" font-style="italic" lengthAdjust="spacing" textLength="278" x="76" y="441.0889">findById(Integer id) : EmployeeAccount</text><ellipse cx="67" cy="454.0391" fill="#84BE84" rx="3" ry="3" style="stroke:#038048;stroke-width:1.0;"/><text fill="#000000" font-family="sans-serif" font-size="14" font-style="italic" lengthAdjust="spacing" textLength="244" x="76" y="457.3857">isExist(String userName) : boolean</text><ellipse cx="67" cy="470.3359" fill="#84BE84" rx="3" ry="3" style="stroke:#038048;stroke-width:1.0;"/><text fill="#000000" font-family="sans-serif" font-size="14" font-style="italic" lengthAdjust="spacing" textLength="355" x="76" y="473.6826">insert(EmployeeAccount employeeAccount) : void</text></g><!--class EmployeeAccountServiceImpl--><g id="elem_EmployeeAccountServiceImpl"><rect codeLine="42" fill="#FEFECE" height="105.1875" id="EmployeeAccountServiceImpl" style="stroke:#A80036;stroke-width:1.0;" width="387" x="546.5" y="375.7969"/><ellipse cx="627.75" cy="391.7969" fill="#ADD1B2" rx="11" ry="11" style="stroke:#A80036;stroke-width:1.0;"/><path d="M630.0938,387.4688 C629.1563,387.0313 628.5625,386.8906 627.6875,386.8906 C625.0625,386.8906 623.0625,388.9688 623.0625,391.6875 L623.0625,392.8125 C623.0625,395.3906 625.1719,397.2813 628.0625,397.2813 C629.2813,397.2813 630.4375,396.9844 631.1875,396.4375 C631.7656,396.0313 632.0938,395.5781 632.0938,395.1875 C632.0938,394.7344 631.7031,394.3438 631.2344,394.3438 C631.0156,394.3438 630.8125,394.4219 630.625,394.6094 C630.1719,395.0938 630.1719,395.0938 629.9844,395.1875 C629.5625,395.4531 628.875,395.5781 628.1094,395.5781 C626.0625,395.5781 624.7656,394.4844 624.7656,392.7813 L624.7656,391.6875 C624.7656,389.9063 626.0156,388.5938 627.75,388.5938 C628.3281,388.5938 628.9375,388.75 629.4063,389 C629.8906,389.2813 630.0625,389.5 630.1563,389.9063 C630.2188,390.3125 630.25,390.4375 630.3906,390.5625 C630.5313,390.7031 630.7656,390.8125 630.9844,390.8125 C631.25,390.8125 631.5156,390.6719 631.6875,390.4531 C631.7969,390.2969 631.8281,390.1094 631.8281,389.6875 L631.8281,388.2656 C631.8281,387.8281 631.8125,387.7031 631.7188,387.5469 C631.5625,387.2813 631.2813,387.1406 630.9844,387.1406 C630.6875,387.1406 630.4844,387.2344 630.2656,387.5469 L630.0938,387.4688 Z " fill="#000000"/><text fill="#000000" font-family="sans-serif" font-size="14" lengthAdjust="spacing" textLength="216" x="648.25" y="396.6436">EmployeeAccountServiceImpl</text><line style="stroke:#A80036;stroke-width:1.0;" x1="547.5" x2="932.5" y1="407.7969" y2="407.7969"/><ellipse cx="557.5" cy="421.4453" fill="#84BE84" rx="3" ry="3" style="stroke:#038048;stroke-width:1.0;"/><text fill="#000000" font-family="sans-serif" font-size="14" lengthAdjust="spacing" textLength="248" x="566.5" y="424.792">findAll() : List&lt;EmployeeAccount&gt;</text><ellipse cx="557.5" cy="437.7422" fill="#84BE84" rx="3" ry="3" style="stroke:#038048;stroke-width:1.0;"/><text fill="#000000" font-family="sans-serif" font-size="14" lengthAdjust="spacing" textLength="283" x="566.5" y="441.0889">findById(Integer id) : EmployeeAccount</text><ellipse cx="557.5" cy="454.0391" fill="#84BE84" rx="3" ry="3" style="stroke:#038048;stroke-width:1.0;"/><text fill="#000000" font-family="sans-serif" font-size="14" lengthAdjust="spacing" textLength="246" x="566.5" y="457.3857">isExist(String userName) : boolean</text><ellipse cx="557.5" cy="470.3359" fill="#84BE84" rx="3" ry="3" style="stroke:#038048;stroke-width:1.0;"/><text fill="#000000" font-family="sans-serif" font-size="14" lengthAdjust="spacing" textLength="361" x="566.5" y="473.6826">insert(EmployeeAccount employeeAccount) : void</text></g><!--class EmployeeService--><g id="elem_EmployeeService"><rect codeLine="48" fill="#FEFECE" height="56.2969" id="EmployeeService" style="stroke:#A80036;stroke-width:1.0;" width="213" x="140" y="516.2969"/><ellipse cx="180.65" cy="532.2969" fill="#B4A7E5" rx="11" ry="11" style="stroke:#A80036;stroke-width:1.0;"/><path d="M181.6031,529.0781 L183.3219,529.0781 C183.7125,529.0781 183.9,529.0469 184.025,528.9688 C184.2906,528.8125 184.4313,528.5313 184.4313,528.2344 C184.4313,527.9688 184.3219,527.7031 184.0875,527.5313 C183.9156,527.4219 183.775,527.3906 183.3219,527.3906 L178.1813,527.3906 C177.7438,527.3906 177.6188,527.4063 177.4625,527.5 C177.2125,527.6563 177.0563,527.9531 177.0563,528.2344 C177.0563,528.5156 177.1969,528.7656 177.4156,528.9375 C177.5719,529.0469 177.7594,529.0781 178.1813,529.0781 L179.9,529.0781 L179.9,535.5938 L178.1813,535.5938 C177.7438,535.5938 177.6188,535.6094 177.4625,535.7188 C177.2125,535.875 177.0563,536.1563 177.0563,536.4531 C177.0563,536.7031 177.1969,536.9688 177.4156,537.125 C177.5719,537.25 177.775,537.2969 178.1813,537.2969 L183.3219,537.2969 C184.0719,537.2969 184.4313,537.0156 184.4313,536.4531 C184.4313,536.1719 184.3219,535.9219 184.0875,535.75 C183.9156,535.625 183.775,535.5938 183.3219,535.5938 L181.6031,535.5938 L181.6031,529.0781 Z " fill="#000000"/><text fill="#000000" font-family="sans-serif" font-size="14" font-style="italic" lengthAdjust="spacing" textLength="124" x="200.35" y="537.1436">EmployeeService</text><line style="stroke:#A80036;stroke-width:1.0;" x1="141" x2="352" y1="548.2969" y2="548.2969"/><ellipse cx="151" cy="561.9453" fill="#84BE84" rx="3" ry="3" style="stroke:#038048;stroke-width:1.0;"/><text fill="#000000" font-family="sans-serif" font-size="14" font-style="italic" lengthAdjust="spacing" textLength="187" x="160" y="565.292">findAll() : List&lt;Employee&gt;</text></g><!--class EmployeeServiceImpl--><g id="elem_EmployeeServiceImpl"><rect codeLine="51" fill="#FEFECE" height="56.2969" id="EmployeeServiceImpl" style="stroke:#A80036;stroke-width:1.0;" width="215" x="632.5" y="516.2969"/><ellipse cx="659.2" cy="532.2969" fill="#ADD1B2" rx="11" ry="11" style="stroke:#A80036;stroke-width:1.0;"/><path d="M661.5438,527.9688 C660.6063,527.5313 660.0125,527.3906 659.1375,527.3906 C656.5125,527.3906 654.5125,529.4688 654.5125,532.1875 L654.5125,533.3125 C654.5125,535.8906 656.6219,537.7813 659.5125,537.7813 C660.7313,537.7813 661.8875,537.4844 662.6375,536.9375 C663.2156,536.5313 663.5438,536.0781 663.5438,535.6875 C663.5438,535.2344 663.1531,534.8438 662.6844,534.8438 C662.4656,534.8438 662.2625,534.9219 662.075,535.1094 C661.6219,535.5938 661.6219,535.5938 661.4344,535.6875 C661.0125,535.9531 660.325,536.0781 659.5594,536.0781 C657.5125,536.0781 656.2156,534.9844 656.2156,533.2813 L656.2156,532.1875 C656.2156,530.4063 657.4656,529.0938 659.2,529.0938 C659.7781,529.0938 660.3875,529.25 660.8563,529.5 C661.3406,529.7813 661.5125,530 661.6063,530.4063 C661.6688,530.8125 661.7,530.9375 661.8406,531.0625 C661.9813,531.2031 662.2156,531.3125 662.4344,531.3125 C662.7,531.3125 662.9656,531.1719 663.1375,530.9531 C663.2469,530.7969 663.2781,530.6094 663.2781,530.1875 L663.2781,528.7656 C663.2781,528.3281 663.2625,528.2031 663.1688,528.0469 C663.0125,527.7813 662.7313,527.6406 662.4344,527.6406 C662.1375,527.6406 661.9344,527.7344 661.7156,528.0469 L661.5438,527.9688 Z " fill="#000000"/><text fill="#000000" font-family="sans-serif" font-size="14" lengthAdjust="spacing" textLength="157" x="675.8" y="537.1436">EmployeeServiceImpl</text><line style="stroke:#A80036;stroke-width:1.0;" x1="633.5" x2="846.5" y1="548.2969" y2="548.2969"/><ellipse cx="643.5" cy="561.9453" fill="#84BE84" rx="3" ry="3" style="stroke:#038048;stroke-width:1.0;"/><text fill="#000000" font-family="sans-serif" font-size="14" lengthAdjust="spacing" textLength="189" x="652.5" y="565.292">findAll() : List&lt;Employee&gt;</text></g><!--class CustomerService--><g id="elem_CustomerService"><rect codeLine="54" fill="#FEFECE" height="56.2969" id="CustomerService" style="stroke:#A80036;stroke-width:1.0;" width="203" x="145" y="607.2969"/><ellipse cx="182.05" cy="623.2969" fill="#B4A7E5" rx="11" ry="11" style="stroke:#A80036;stroke-width:1.0;"/><path d="M183.0031,620.0781 L184.7219,620.0781 C185.1125,620.0781 185.3,620.0469 185.425,619.9688 C185.6906,619.8125 185.8313,619.5313 185.8313,619.2344 C185.8313,618.9688 185.7219,618.7031 185.4875,618.5313 C185.3156,618.4219 185.175,618.3906 184.7219,618.3906 L179.5813,618.3906 C179.1438,618.3906 179.0188,618.4063 178.8625,618.5 C178.6125,618.6563 178.4563,618.9531 178.4563,619.2344 C178.4563,619.5156 178.5969,619.7656 178.8156,619.9375 C178.9719,620.0469 179.1594,620.0781 179.5813,620.0781 L181.3,620.0781 L181.3,626.5938 L179.5813,626.5938 C179.1438,626.5938 179.0188,626.6094 178.8625,626.7188 C178.6125,626.875 178.4563,627.1563 178.4563,627.4531 C178.4563,627.7031 178.5969,627.9688 178.8156,628.125 C178.9719,628.25 179.175,628.2969 179.5813,628.2969 L184.7219,628.2969 C185.4719,628.2969 185.8313,628.0156 185.8313,627.4531 C185.8313,627.1719 185.7219,626.9219 185.4875,626.75 C185.3156,626.625 185.175,626.5938 184.7219,626.5938 L183.0031,626.5938 L183.0031,620.0781 Z " fill="#000000"/><text fill="#000000" font-family="sans-serif" font-size="14" font-style="italic" lengthAdjust="spacing" textLength="122" x="200.95" y="628.1436">CustomerService</text><line style="stroke:#A80036;stroke-width:1.0;" x1="146" x2="347" y1="639.2969" y2="639.2969"/><ellipse cx="156" cy="652.9453" fill="#84BE84" rx="3" ry="3" style="stroke:#038048;stroke-width:1.0;"/><text fill="#000000" font-family="sans-serif" font-size="14" font-style="italic" lengthAdjust="spacing" textLength="177" x="165" y="656.292">registerCustomer() : void</text></g><!--class CustomerServiceImpl--><g id="elem_CustomerServiceImpl"><rect codeLine="57" fill="#FEFECE" height="56.2969" id="CustomerServiceImpl" style="stroke:#A80036;stroke-width:1.0;" width="206" x="637" y="607.2969"/><ellipse cx="660.55" cy="623.2969" fill="#ADD1B2" rx="11" ry="11" style="stroke:#A80036;stroke-width:1.0;"/><path d="M662.8938,618.9688 C661.9563,618.5313 661.3625,618.3906 660.4875,618.3906 C657.8625,618.3906 655.8625,620.4688 655.8625,623.1875 L655.8625,624.3125 C655.8625,626.8906 657.9719,628.7813 660.8625,628.7813 C662.0813,628.7813 663.2375,628.4844 663.9875,627.9375 C664.5656,627.5313 664.8938,627.0781 664.8938,626.6875 C664.8938,626.2344 664.5031,625.8438 664.0344,625.8438 C663.8156,625.8438 663.6125,625.9219 663.425,626.1094 C662.9719,626.5938 662.9719,626.5938 662.7844,626.6875 C662.3625,626.9531 661.675,627.0781 660.9094,627.0781 C658.8625,627.0781 657.5656,625.9844 657.5656,624.2813 L657.5656,623.1875 C657.5656,621.4063 658.8156,620.0938 660.55,620.0938 C661.1281,620.0938 661.7375,620.25 662.2063,620.5 C662.6906,620.7813 662.8625,621 662.9563,621.4063 C663.0188,621.8125 663.05,621.9375 663.1906,622.0625 C663.3313,622.2031 663.5656,622.3125 663.7844,622.3125 C664.05,622.3125 664.3156,622.1719 664.4875,621.9531 C664.5969,621.7969 664.6281,621.6094 664.6281,621.1875 L664.6281,619.7656 C664.6281,619.3281 664.6125,619.2031 664.5188,619.0469 C664.3625,618.7813 664.0813,618.6406 663.7844,618.6406 C663.4875,618.6406 663.2844,618.7344 663.0656,619.0469 L662.8938,618.9688 Z " fill="#000000"/><text fill="#000000" font-family="sans-serif" font-size="14" lengthAdjust="spacing" textLength="155" x="676.45" y="628.1436">CustomerServiceImpl</text><line style="stroke:#A80036;stroke-width:1.0;" x1="638" x2="842" y1="639.2969" y2="639.2969"/><ellipse cx="648" cy="652.9453" fill="#84BE84" rx="3" ry="3" style="stroke:#038048;stroke-width:1.0;"/><text fill="#000000" font-family="sans-serif" font-size="14" lengthAdjust="spacing" textLength="180" x="657" y="656.292">registerCustomer() : void</text></g><!--class OrderService--><g id="elem_OrderService"><rect codeLine="60" fill="#FEFECE" height="72.5938" id="OrderService" style="stroke:#A80036;stroke-width:1.0;" width="214" x="139.5" y="698.7969"/><ellipse cx="195.25" cy="714.7969" fill="#B4A7E5" rx="11" ry="11" style="stroke:#A80036;stroke-width:1.0;"/><path d="M196.2031,711.5781 L197.9219,711.5781 C198.3125,711.5781 198.5,711.5469 198.625,711.4688 C198.8906,711.3125 199.0313,711.0313 199.0313,710.7344 C199.0313,710.4688 198.9219,710.2031 198.6875,710.0313 C198.5156,709.9219 198.375,709.8906 197.9219,709.8906 L192.7813,709.8906 C192.3438,709.8906 192.2188,709.9063 192.0625,710 C191.8125,710.1563 191.6563,710.4531 191.6563,710.7344 C191.6563,711.0156 191.7969,711.2656 192.0156,711.4375 C192.1719,711.5469 192.3594,711.5781 192.7813,711.5781 L194.5,711.5781 L194.5,718.0938 L192.7813,718.0938 C192.3438,718.0938 192.2188,718.1094 192.0625,718.2188 C191.8125,718.375 191.6563,718.6563 191.6563,718.9531 C191.6563,719.2031 191.7969,719.4688 192.0156,719.625 C192.1719,719.75 192.375,719.7969 192.7813,719.7969 L197.9219,719.7969 C198.6719,719.7969 199.0313,719.5156 199.0313,718.9531 C199.0313,718.6719 198.9219,718.4219 198.6875,718.25 C198.5156,718.125 198.375,718.0938 197.9219,718.0938 L196.2031,718.0938 L196.2031,711.5781 Z " fill="#000000"/><text fill="#000000" font-family="sans-serif" font-size="14" font-style="italic" lengthAdjust="spacing" textLength="94" x="215.75" y="719.6436">OrderService</text><line style="stroke:#A80036;stroke-width:1.0;" x1="140.5" x2="352.5" y1="730.7969" y2="730.7969"/><ellipse cx="150.5" cy="744.4453" fill="#84BE84" rx="3" ry="3" style="stroke:#038048;stroke-width:1.0;"/><text fill="#000000" font-family="sans-serif" font-size="14" font-style="italic" lengthAdjust="spacing" textLength="121" x="159.5" y="747.792">addOrder() : void</text><ellipse cx="150.5" cy="760.7422" fill="#84BE84" rx="3" ry="3" style="stroke:#038048;stroke-width:1.0;"/><text fill="#000000" font-family="sans-serif" font-size="14" font-style="italic" lengthAdjust="spacing" textLength="188" x="159.5" y="764.0889">updateOrderStatus() : void</text></g><!--class OrderServiceImpl--><g id="elem_OrderServiceImpl"><rect codeLine="64" fill="#FEFECE" height="72.5938" id="OrderServiceImpl" style="stroke:#A80036;stroke-width:1.0;" width="217" x="631.5" y="698.7969"/><ellipse cx="673.05" cy="714.7969" fill="#ADD1B2" rx="11" ry="11" style="stroke:#A80036;stroke-width:1.0;"/><path d="M675.3938,710.4688 C674.4563,710.0313 673.8625,709.8906 672.9875,709.8906 C670.3625,709.8906 668.3625,711.9688 668.3625,714.6875 L668.3625,715.8125 C668.3625,718.3906 670.4719,720.2813 673.3625,720.2813 C674.5813,720.2813 675.7375,719.9844 676.4875,719.4375 C677.0656,719.0313 677.3938,718.5781 677.3938,718.1875 C677.3938,717.7344 677.0031,717.3438 676.5344,717.3438 C676.3156,717.3438 676.1125,717.4219 675.925,717.6094 C675.4719,718.0938 675.4719,718.0938 675.2844,718.1875 C674.8625,718.4531 674.175,718.5781 673.4094,718.5781 C671.3625,718.5781 670.0656,717.4844 670.0656,715.7813 L670.0656,714.6875 C670.0656,712.9063 671.3156,711.5938 673.05,711.5938 C673.6281,711.5938 674.2375,711.75 674.7063,712 C675.1906,712.2813 675.3625,712.5 675.4563,712.9063 C675.5188,713.3125 675.55,713.4375 675.6906,713.5625 C675.8313,713.7031 676.0656,713.8125 676.2844,713.8125 C676.55,713.8125 676.8156,713.6719 676.9875,713.4531 C677.0969,713.2969 677.1281,713.1094 677.1281,712.6875 L677.1281,711.2656 C677.1281,710.8281 677.1125,710.7031 677.0188,710.5469 C676.8625,710.2813 676.5813,710.1406 676.2844,710.1406 C675.9875,710.1406 675.7844,710.2344 675.5656,710.5469 L675.3938,710.4688 Z " fill="#000000"/><text fill="#000000" font-family="sans-serif" font-size="14" lengthAdjust="spacing" textLength="126" x="692.95" y="719.6436">OrderServiceImpl</text><line style="stroke:#A80036;stroke-width:1.0;" x1="632.5" x2="847.5" y1="730.7969" y2="730.7969"/><ellipse cx="642.5" cy="744.4453" fill="#84BE84" rx="3" ry="3" style="stroke:#038048;stroke-width:1.0;"/><text fill="#000000" font-family="sans-serif" font-size="14" lengthAdjust="spacing" textLength="120" x="651.5" y="747.792">addOrder() : void</text><ellipse cx="642.5" cy="760.7422" fill="#84BE84" rx="3" ry="3" style="stroke:#038048;stroke-width:1.0;"/><text fill="#000000" font-family="sans-serif" font-size="14" lengthAdjust="spacing" textLength="191" x="651.5" y="764.0889">updateOrderStatus() : void</text></g><!--reverse link EmployeeAccountService to EmployeeAccountServiceImpl--><g id="link_EmployeeAccountService_EmployeeAccountServiceImpl"><path codeLine="70" d="M457.475,428.2969 C486.99,428.2969 517.209,428.2969 546.379,428.2969 " fill="none" id="EmployeeAccountService-backto-EmployeeAccountServiceImpl" style="stroke:#A80036;stroke-width:1.0;stroke-dasharray:7.0,7.0;"/><polygon fill="none" points="457.175,435.2969,437.175,428.2969,457.175,421.2969,457.175,435.2969" style="stroke:#A80036;stroke-width:1.0;"/></g><!--reverse link EmployeeService to EmployeeServiceImpl--><g id="link_EmployeeService_EmployeeServiceImpl"><path codeLine="71" d="M373.351,544.2969 C453.446,544.2969 556.048,544.2969 632.17,544.2969 " fill="none" id="EmployeeService-backto-EmployeeServiceImpl" style="stroke:#A80036;stroke-width:1.0;stroke-dasharray:7.0,7.0;"/><polygon fill="none" points="373.241,551.2969,353.241,544.2969,373.241,537.2969,373.241,551.2969" style="stroke:#A80036;stroke-width:1.0;"/></g><!--reverse link ProductService to ProductServiceImpl--><g id="link_ProductService_ProductServiceImpl"><path codeLine="72" d="M481.659,147.2969 C494.656,147.2969 507.696,147.2969 520.634,147.2969 " fill="none" id="ProductService-backto-ProductServiceImpl" style="stroke:#A80036;stroke-width:1.0;stroke-dasharray:7.0,7.0;"/><polygon fill="none" points="481.292,154.2969,461.292,147.2969,481.292,140.2969,481.292,154.2969" style="stroke:#A80036;stroke-width:1.0;"/></g><!--reverse link ProductCategoryService to ProductCategoryServiceImpl--><g id="link_ProductCategoryService_ProductCategoryServiceImpl"><path codeLine="73" d="M447.787,296.2969 C483.139,296.2969 519.791,296.2969 554.678,296.2969 " fill="none" id="ProductCategoryService-backto-ProductCategoryServiceImpl" style="stroke:#A80036;stroke-width:1.0;stroke-dasharray:7.0,7.0;"/><polygon fill="none" points="447.726,303.2969,427.726,296.2969,447.726,289.2969,447.726,303.2969" style="stroke:#A80036;stroke-width:1.0;"/></g><!--reverse link CustomerService to CustomerServiceImpl--><g id="link_CustomerService_CustomerServiceImpl"><path codeLine="74" d="M368.249,635.2969 C450.665,635.2969 558.644,635.2969 636.797,635.2969 " fill="none" id="CustomerService-backto-CustomerServiceImpl" style="stroke:#A80036;stroke-width:1.0;stroke-dasharray:7.0,7.0;"/><polygon fill="none" points="368.148,642.2969,348.148,635.2969,368.148,628.2969,368.148,642.2969" style="stroke:#A80036;stroke-width:1.0;"/></g><!--reverse link OrderService to OrderServiceImpl--><g id="link_OrderService_OrderServiceImpl"><path codeLine="75" d="M373.585,735.2969 C453.394,735.2969 555.477,735.2969 631.45,735.2969 " fill="none" id="OrderService-backto-OrderServiceImpl" style="stroke:#A80036;stroke-width:1.0;stroke-dasharray:7.0,7.0;"/><polygon fill="none" points="373.543,742.2968,353.543,735.2969,373.543,728.2968,373.543,742.2968" style="stroke:#A80036;stroke-width:1.0;"/></g><!--SRC=[fLLBRjim4Dtp5BDKK207A083QP25WI8Da1FGv5WcGea2EKfhfDd49-XHkkkYjz55IbbM8ZFKjreOjldUVDuR3TsZoi4QXypvRmMtF0Etuz9yLtaAMwxzYSOj0HcmAjqHI6LHa38vsoc9W5b1UyWmsw1rZ1Hf18VsIGci3h-gmw5w_LqT_bQlVrZ1nIDFtuwV6VX7vOHsomN2lJMo5FJGFQsVJ_3CDuui5_G2MvNBQwsJ2_WCNvMZgnDhrG__ih_XXAcn-xLCV3ee6ihxlxE2-I1hNtEA5jIHUIB5EIhttL9omhIfQzgJKJBEAGlfIvl7aQZHSyuhUuE_73-5viu5Cg-pGdUbdgBl_uiwMSd9yatMR4oe-52sRIqRpfQzQAvQyfJvQh6X6sF34BGtTIXYVSrkPb47eKstlcApHxmMmfJvt1qIiEVP591xR7AtFtocv85ilLTBt_8Tpx3cRupHoFD1UuCSzTBj_kwrDoxBgBq3UimMOLRdYzlzE0aBHs3Lgs5Kl27rLj7wRaf79aCxN9_5r8T2swAJNek3UA6tKmAz5_VDoh7Ak9H7L3Bb3clY4QVIzNVGJHgMFvHjD8LV4_4N0Av-NbuEl1miyFmStmMUNwODxkC5o-9hzWmUMS4iyBR1HmndNGaRL2ZgFm00]--></g></svg>