<svg xmlns="http://www.w3.org/2000/svg" xmlns:xlink="http://www.w3.org/1999/xlink" contentStyleType="text/css" height="792px" preserveAspectRatio="none" style="width:979px;height:792px;background:#FFFFFF;" version="1.1" viewBox="0 0 979 792" width="979px" zoomAndPan="magnify"><defs/><g><text fill="#000000" font-family="sans-serif" font-size="14" font-weight="bold" lengthAdjust="spacing" textLength="126.4509" x="419.7146" y="22.9951">service&#12497;&#12483;&#12465;&#12540;&#12472;</text><!--cluster service--><g id="cluster_service"><polygon fill="none" points="16,43.2969,72.1484,43.2969,79.1484,65.5938,962.88,65.5938,962.88,785.2969,16,785.2969,16,43.2969" style="stroke:#000000;stroke-width:1.5;"/><line style="stroke:#000000;stroke-width:1.5;" x1="16" x2="79.1484" y1="65.5938" y2="65.5938"/><text fill="#000000" font-family="sans-serif" font-size="14" lengthAdjust="spacing" textLength="50.1484" x="20" y="58.292">service</text></g><!--class ProductService--><g id="elem_ProductService"><rect codeLine="7" fill="#FEFECE" height="137.7813" id="ProductService" style="stroke:#A80036;stroke-width:1.0;" width="427.4404" x="32" y="631.4069"/><ellipse cx="188.7446" cy="647.4069" fill="#B4A7E5" rx="11" ry="11" style="stroke:#A80036;stroke-width:1.0;"/><path d="M184.6665,643.1725 L184.6665,641.0163 L192.0571,641.0163 L192.0571,643.1725 L189.5884,643.1725 L189.5884,651.2506 L192.0571,651.2506 L192.0571,653.4069 L184.6665,653.4069 L184.6665,651.2506 L187.1353,651.2506 L187.1353,643.1725 L184.6665,643.1725 Z " fill="#000000"/><text fill="#000000" font-family="sans-serif" font-size="14" font-style="italic" lengthAdjust="spacing" textLength="105.4512" x="209.2446" y="652.2536">ProductService</text><line style="stroke:#A80036;stroke-width:1.0;" x1="33" x2="458.4404" y1="663.4069" y2="663.4069"/><ellipse cx="43" cy="677.0553" fill="#84BE84" rx="3" ry="3" style="stroke:#038048;stroke-width:1.0;"/><text fill="#000000" font-family="sans-serif" font-size="14" font-style="italic" lengthAdjust="spacing" textLength="170.1191" x="52" y="680.402">findAll() : List&lt;Product&gt;</text><ellipse cx="43" cy="693.3522" fill="#84BE84" rx="3" ry="3" style="stroke:#038048;stroke-width:1.0;"/><text fill="#000000" font-family="sans-serif" font-size="14" font-style="italic" lengthAdjust="spacing" textLength="401.4404" x="52" y="696.6989">findByCategoryId(int productCategoryId) : List&lt;Product&gt;</text><ellipse cx="43" cy="709.6491" fill="#84BE84" rx="3" ry="3" style="stroke:#038048;stroke-width:1.0;"/><text fill="#000000" font-family="sans-serif" font-size="14" font-style="italic" lengthAdjust="spacing" textLength="203.3213" x="52" y="712.9957">findById(Integer id) : Product</text><ellipse cx="43" cy="725.9459" fill="#84BE84" rx="3" ry="3" style="stroke:#038048;stroke-width:1.0;"/><text fill="#000000" font-family="sans-serif" font-size="14" font-style="italic" lengthAdjust="spacing" textLength="206.3975" x="52" y="729.2926">insert(Product product) : void</text><ellipse cx="43" cy="742.2428" fill="#84BE84" rx="3" ry="3" style="stroke:#038048;stroke-width:1.0;"/><text fill="#000000" font-family="sans-serif" font-size="14" font-style="italic" lengthAdjust="spacing" textLength="215.8105" x="52" y="745.5895">update(Product product) : void</text><ellipse cx="43" cy="758.5397" fill="#84BE84" rx="3" ry="3" style="stroke:#038048;stroke-width:1.0;"/><text fill="#000000" font-family="sans-serif" font-size="14" font-style="italic" lengthAdjust="spacing" textLength="165.8604" x="52" y="761.8864">delete(Integer id) : void</text></g><!--class ProductServiceImpl--><g id="elem_ProductServiceImpl"><rect codeLine="15" fill="#FEFECE" height="137.7813" id="ProductServiceImpl" style="stroke:#A80036;stroke-width:1.0;" width="427.4404" x="519.44" y="631.4069"/><ellipse cx="660.9131" cy="647.4069" fill="#ADD1B2" rx="11" ry="11" style="stroke:#A80036;stroke-width:1.0;"/><path d="M663.8819,653.0475 Q663.3038,653.3444 662.6631,653.485 Q662.0225,653.6413 661.3194,653.6413 Q658.8194,653.6413 657.4913,652.0006 Q656.1788,650.3444 656.1788,647.2194 Q656.1788,644.0944 657.4913,642.4381 Q658.8194,640.7819 661.3194,640.7819 Q662.0225,640.7819 662.6631,640.9381 Q663.3194,641.0944 663.8819,641.3913 L663.8819,644.11 Q663.2569,643.5319 662.6631,643.2663 Q662.0694,642.985 661.4444,642.985 Q660.1006,642.985 659.4131,644.0631 Q658.7256,645.1256 658.7256,647.2194 Q658.7256,649.3131 659.4131,650.3913 Q660.1006,651.4538 661.4444,651.4538 Q662.0694,651.4538 662.6631,651.1881 Q663.2569,650.9069 663.8819,650.3288 L663.8819,653.0475 Z " fill="#000000"/><text fill="#000000" font-family="sans-serif" font-size="14" lengthAdjust="spacing" textLength="135.9941" x="681.4131" y="652.2536">ProductServiceImpl</text><line style="stroke:#A80036;stroke-width:1.0;" x1="520.44" x2="945.8804" y1="663.4069" y2="663.4069"/><ellipse cx="530.44" cy="677.0553" fill="#84BE84" rx="3" ry="3" style="stroke:#038048;stroke-width:1.0;"/><text fill="#000000" font-family="sans-serif" font-size="14" lengthAdjust="spacing" textLength="170.1191" x="539.44" y="680.402">findAll() : List&lt;Product&gt;</text><ellipse cx="530.44" cy="693.3522" fill="#84BE84" rx="3" ry="3" style="stroke:#038048;stroke-width:1.0;"/><text fill="#000000" font-family="sans-serif" font-size="14" lengthAdjust="spacing" textLength="401.4404" x="539.44" y="696.6989">findByCategoryId(int productCategoryId) : List&lt;Product&gt;</text><ellipse cx="530.44" cy="709.6491" fill="#84BE84" rx="3" ry="3" style="stroke:#038048;stroke-width:1.0;"/><text fill="#000000" font-family="sans-serif" font-size="14" lengthAdjust="spacing" textLength="203.3213" x="539.44" y="712.9957">findById(Integer id) : Product</text><ellipse cx="530.44" cy="725.9459" fill="#84BE84" rx="3" ry="3" style="stroke:#038048;stroke-width:1.0;"/><text fill="#000000" font-family="sans-serif" font-size="14" lengthAdjust="spacing" textLength="206.3975" x="539.44" y="729.2926">insert(Product product) : void</text><ellipse cx="530.44" cy="742.2428" fill="#84BE84" rx="3" ry="3" style="stroke:#038048;stroke-width:1.0;"/><text fill="#000000" font-family="sans-serif" font-size="14" lengthAdjust="spacing" textLength="215.8105" x="539.44" y="745.5895">update(Product product) : void</text><ellipse cx="530.44" cy="758.5397" fill="#84BE84" rx="3" ry="3" style="stroke:#038048;stroke-width:1.0;"/><text fill="#000000" font-family="sans-serif" font-size="14" lengthAdjust="spacing" textLength="165.8604" x="539.44" y="761.8864">delete(Integer id) : void</text></g><!--class ProductCategoryService--><g id="elem_ProductCategoryService"><rect codeLine="24" fill="#FEFECE" height="88.8906" id="ProductCategoryService" style="stroke:#A80036;stroke-width:1.0;" width="360.2979" x="65.57" y="507.8469"/><ellipse cx="156.7682" cy="523.8469" fill="#B4A7E5" rx="11" ry="11" style="stroke:#A80036;stroke-width:1.0;"/><path d="M152.6901,519.6125 L152.6901,517.4563 L160.0807,517.4563 L160.0807,519.6125 L157.612,519.6125 L157.612,527.6906 L160.0807,527.6906 L160.0807,529.8469 L152.6901,529.8469 L152.6901,527.6906 L155.1589,527.6906 L155.1589,519.6125 L152.6901,519.6125 Z " fill="#000000"/><text fill="#000000" font-family="sans-serif" font-size="14" font-style="italic" lengthAdjust="spacing" textLength="169.4014" x="177.2682" y="528.6936">ProductCategoryService</text><line style="stroke:#A80036;stroke-width:1.0;" x1="66.57" x2="424.8679" y1="539.8469" y2="539.8469"/><ellipse cx="76.57" cy="553.4953" fill="#84BE84" rx="3" ry="3" style="stroke:#038048;stroke-width:1.0;"/><text fill="#000000" font-family="sans-serif" font-size="14" font-style="italic" lengthAdjust="spacing" textLength="234.0693" x="85.57" y="556.842">findAll() : List&lt;ProductCategory&gt;</text><ellipse cx="76.57" cy="569.7922" fill="#84BE84" rx="3" ry="3" style="stroke:#038048;stroke-width:1.0;"/><text fill="#000000" font-family="sans-serif" font-size="14" font-style="italic" lengthAdjust="spacing" textLength="267.2715" x="85.57" y="573.1389">findById(Integer id) : ProductCategory</text><ellipse cx="76.57" cy="586.0891" fill="#84BE84" rx="3" ry="3" style="stroke:#038048;stroke-width:1.0;"/><text fill="#000000" font-family="sans-serif" font-size="14" font-style="italic" lengthAdjust="spacing" textLength="334.2979" x="85.57" y="589.4357">insert(ProductCategory productCategory) : void</text></g><!--class ProductCategoryServiceImpl--><g id="elem_ProductCategoryServiceImpl"><rect codeLine="29" fill="#FEFECE" height="88.8906" id="ProductCategoryServiceImpl" style="stroke:#A80036;stroke-width:1.0;" width="360.2979" x="553.01" y="507.8469"/><ellipse cx="628.9368" cy="523.8469" fill="#ADD1B2" rx="11" ry="11" style="stroke:#A80036;stroke-width:1.0;"/><path d="M631.9055,529.4875 Q631.3274,529.7844 630.6868,529.925 Q630.0461,530.0813 629.343,530.0813 Q626.843,530.0813 625.5149,528.4406 Q624.2024,526.7844 624.2024,523.6594 Q624.2024,520.5344 625.5149,518.8781 Q626.843,517.2219 629.343,517.2219 Q630.0461,517.2219 630.6868,517.3781 Q631.343,517.5344 631.9055,517.8313 L631.9055,520.55 Q631.2805,519.9719 630.6868,519.7063 Q630.093,519.425 629.468,519.425 Q628.1243,519.425 627.4368,520.5031 Q626.7493,521.5656 626.7493,523.6594 Q626.7493,525.7531 627.4368,526.8313 Q628.1243,527.8938 629.468,527.8938 Q630.093,527.8938 630.6868,527.6281 Q631.2805,527.3469 631.9055,526.7688 L631.9055,529.4875 Z " fill="#000000"/><text fill="#000000" font-family="sans-serif" font-size="14" lengthAdjust="spacing" textLength="199.9443" x="649.4368" y="528.6936">ProductCategoryServiceImpl</text><line style="stroke:#A80036;stroke-width:1.0;" x1="554.01" x2="912.3079" y1="539.8469" y2="539.8469"/><ellipse cx="564.01" cy="553.4953" fill="#84BE84" rx="3" ry="3" style="stroke:#038048;stroke-width:1.0;"/><text fill="#000000" font-family="sans-serif" font-size="14" lengthAdjust="spacing" textLength="234.0693" x="573.01" y="556.842">findAll() : List&lt;ProductCategory&gt;</text><ellipse cx="564.01" cy="569.7922" fill="#84BE84" rx="3" ry="3" style="stroke:#038048;stroke-width:1.0;"/><text fill="#000000" font-family="sans-serif" font-size="14" lengthAdjust="spacing" textLength="267.2715" x="573.01" y="573.1389">findById(Integer id) : ProductCategory</text><ellipse cx="564.01" cy="586.0891" fill="#84BE84" rx="3" ry="3" style="stroke:#038048;stroke-width:1.0;"/><text fill="#000000" font-family="sans-serif" font-size="14" lengthAdjust="spacing" textLength="334.2979" x="573.01" y="589.4357">insert(ProductCategory productCategory) : void</text></g><!--class EmployeeAccountService--><g id="elem_EmployeeAccountService"><rect codeLine="36" fill="#FEFECE" height="105.1875" id="EmployeeAccountService" style="stroke:#A80036;stroke-width:1.0;" width="376.5195" x="57.46" y="367.7069"/><ellipse cx="152.5445" cy="383.7069" fill="#B4A7E5" rx="11" ry="11" style="stroke:#A80036;stroke-width:1.0;"/><path d="M148.4663,379.4725 L148.4663,377.3163 L155.857,377.3163 L155.857,379.4725 L153.3882,379.4725 L153.3882,387.5506 L155.857,387.5506 L155.857,389.7069 L148.4663,389.7069 L148.4663,387.5506 L150.9351,387.5506 L150.9351,379.4725 L148.4663,379.4725 Z " fill="#000000"/><text fill="#000000" font-family="sans-serif" font-size="14" font-style="italic" lengthAdjust="spacing" textLength="177.8506" x="173.0445" y="388.5536">EmployeeAccountService</text><line style="stroke:#A80036;stroke-width:1.0;" x1="58.46" x2="432.9795" y1="399.7069" y2="399.7069"/><ellipse cx="68.46" cy="413.3553" fill="#84BE84" rx="3" ry="3" style="stroke:#038048;stroke-width:1.0;"/><text fill="#000000" font-family="sans-serif" font-size="14" font-style="italic" lengthAdjust="spacing" textLength="242.5186" x="77.46" y="416.702">findAll() : List&lt;EmployeeAccount&gt;</text><ellipse cx="68.46" cy="429.6522" fill="#84BE84" rx="3" ry="3" style="stroke:#038048;stroke-width:1.0;"/><text fill="#000000" font-family="sans-serif" font-size="14" font-style="italic" lengthAdjust="spacing" textLength="275.7207" x="77.46" y="432.9989">findById(Integer id) : EmployeeAccount</text><ellipse cx="68.46" cy="445.9491" fill="#84BE84" rx="3" ry="3" style="stroke:#038048;stroke-width:1.0;"/><text fill="#000000" font-family="sans-serif" font-size="14" font-style="italic" lengthAdjust="spacing" textLength="243.5713" x="77.46" y="449.2957">isExist(String userName) : boolean</text><ellipse cx="68.46" cy="462.2459" fill="#84BE84" rx="3" ry="3" style="stroke:#038048;stroke-width:1.0;"/><text fill="#000000" font-family="sans-serif" font-size="14" font-style="italic" lengthAdjust="spacing" textLength="350.5195" x="77.46" y="465.5926">insert(EmployeeAccount employeeAccount) : void</text></g><!--class EmployeeAccountServiceImpl--><g id="elem_EmployeeAccountServiceImpl"><rect codeLine="42" fill="#FEFECE" height="105.1875" id="EmployeeAccountServiceImpl" style="stroke:#A80036;stroke-width:1.0;" width="376.5195" x="544.9" y="367.7069"/><ellipse cx="624.713" cy="383.7069" fill="#ADD1B2" rx="11" ry="11" style="stroke:#A80036;stroke-width:1.0;"/><path d="M627.6817,389.3475 Q627.1036,389.6444 626.463,389.785 Q625.8224,389.9413 625.1192,389.9413 Q622.6192,389.9413 621.2911,388.3006 Q619.9786,386.6444 619.9786,383.5194 Q619.9786,380.3944 621.2911,378.7381 Q622.6192,377.0819 625.1192,377.0819 Q625.8224,377.0819 626.463,377.2381 Q627.1192,377.3944 627.6817,377.6913 L627.6817,380.41 Q627.0567,379.8319 626.463,379.5663 Q625.8692,379.285 625.2442,379.285 Q623.9005,379.285 623.213,380.3631 Q622.5255,381.4256 622.5255,383.5194 Q622.5255,385.6131 623.213,386.6913 Q623.9005,387.7538 625.2442,387.7538 Q625.8692,387.7538 626.463,387.4881 Q627.0567,387.2069 627.6817,386.6288 L627.6817,389.3475 Z " fill="#000000"/><text fill="#000000" font-family="sans-serif" font-size="14" lengthAdjust="spacing" textLength="208.3936" x="645.213" y="388.5536">EmployeeAccountServiceImpl</text><line style="stroke:#A80036;stroke-width:1.0;" x1="545.9" x2="920.4195" y1="399.7069" y2="399.7069"/><ellipse cx="555.9" cy="413.3553" fill="#84BE84" rx="3" ry="3" style="stroke:#038048;stroke-width:1.0;"/><text fill="#000000" font-family="sans-serif" font-size="14" lengthAdjust="spacing" textLength="242.5186" x="564.9" y="416.702">findAll() : List&lt;EmployeeAccount&gt;</text><ellipse cx="555.9" cy="429.6522" fill="#84BE84" rx="3" ry="3" style="stroke:#038048;stroke-width:1.0;"/><text fill="#000000" font-family="sans-serif" font-size="14" lengthAdjust="spacing" textLength="275.7207" x="564.9" y="432.9989">findById(Integer id) : EmployeeAccount</text><ellipse cx="555.9" cy="445.9491" fill="#84BE84" rx="3" ry="3" style="stroke:#038048;stroke-width:1.0;"/><text fill="#000000" font-family="sans-serif" font-size="14" lengthAdjust="spacing" textLength="243.5713" x="564.9" y="449.2957">isExist(String userName) : boolean</text><ellipse cx="555.9" cy="462.2459" fill="#84BE84" rx="3" ry="3" style="stroke:#038048;stroke-width:1.0;"/><text fill="#000000" font-family="sans-serif" font-size="14" lengthAdjust="spacing" textLength="350.5195" x="564.9" y="465.5926">insert(EmployeeAccount employeeAccount) : void</text></g><!--class EmployeeService--><g id="elem_EmployeeService"><rect codeLine="48" fill="#FEFECE" height="56.2969" id="EmployeeService" style="stroke:#A80036;stroke-width:1.0;" width="211.7461" x="139.85" y="276.1469"/><ellipse cx="181.2506" cy="292.1469" fill="#B4A7E5" rx="11" ry="11" style="stroke:#A80036;stroke-width:1.0;"/><path d="M177.1725,287.9125 L177.1725,285.7563 L184.5631,285.7563 L184.5631,287.9125 L182.0943,287.9125 L182.0943,295.9906 L184.5631,295.9906 L184.5631,298.1469 L177.1725,298.1469 L177.1725,295.9906 L179.6412,295.9906 L179.6412,287.9125 L177.1725,287.9125 Z " fill="#000000"/><text fill="#000000" font-family="sans-serif" font-size="14" font-style="italic" lengthAdjust="spacing" textLength="121.0781" x="201.1174" y="296.9936">EmployeeService</text><line style="stroke:#A80036;stroke-width:1.0;" x1="140.85" x2="350.5961" y1="308.1469" y2="308.1469"/><ellipse cx="150.85" cy="321.7953" fill="#84BE84" rx="3" ry="3" style="stroke:#038048;stroke-width:1.0;"/><text fill="#000000" font-family="sans-serif" font-size="14" font-style="italic" lengthAdjust="spacing" textLength="185.7461" x="159.85" y="325.142">findAll() : List&lt;Employee&gt;</text></g><!--class EmployeeServiceImpl--><g id="elem_EmployeeServiceImpl"><rect codeLine="51" fill="#FEFECE" height="56.2969" id="EmployeeServiceImpl" style="stroke:#A80036;stroke-width:1.0;" width="211.7461" x="627.29" y="276.1469"/><ellipse cx="654.9463" cy="292.1469" fill="#ADD1B2" rx="11" ry="11" style="stroke:#A80036;stroke-width:1.0;"/><path d="M657.915,297.7875 Q657.3369,298.0844 656.6963,298.225 Q656.0556,298.3813 655.3525,298.3813 Q652.8525,298.3813 651.5244,296.7406 Q650.2119,295.0844 650.2119,291.9594 Q650.2119,288.8344 651.5244,287.1781 Q652.8525,285.5219 655.3525,285.5219 Q656.0556,285.5219 656.6963,285.6781 Q657.3525,285.8344 657.915,286.1313 L657.915,288.85 Q657.29,288.2719 656.6963,288.0063 Q656.1025,287.725 655.4775,287.725 Q654.1338,287.725 653.4463,288.8031 Q652.7588,289.8656 652.7588,291.9594 Q652.7588,294.0531 653.4463,295.1313 Q654.1338,296.1938 655.4775,296.1938 Q656.1025,296.1938 656.6963,295.9281 Q657.29,295.6469 657.915,295.0688 L657.915,297.7875 Z " fill="#000000"/><text fill="#000000" font-family="sans-serif" font-size="14" lengthAdjust="spacing" textLength="151.6211" x="671.7588" y="296.9936">EmployeeServiceImpl</text><line style="stroke:#A80036;stroke-width:1.0;" x1="628.29" x2="838.0361" y1="308.1469" y2="308.1469"/><ellipse cx="638.29" cy="321.7953" fill="#84BE84" rx="3" ry="3" style="stroke:#038048;stroke-width:1.0;"/><text fill="#000000" font-family="sans-serif" font-size="14" lengthAdjust="spacing" textLength="185.7461" x="647.29" y="325.142">findAll() : List&lt;Employee&gt;</text></g><!--class CustomerService--><g id="elem_CustomerService"><rect codeLine="54" fill="#FEFECE" height="56.2969" id="CustomerService" style="stroke:#A80036;stroke-width:1.0;" width="202.4697" x="144.49" y="185.1469"/><ellipse cx="182.3161" cy="201.1469" fill="#B4A7E5" rx="11" ry="11" style="stroke:#A80036;stroke-width:1.0;"/><path d="M178.2379,196.9125 L178.2379,194.7563 L185.6286,194.7563 L185.6286,196.9125 L183.1598,196.9125 L183.1598,204.9906 L185.6286,204.9906 L185.6286,207.1469 L178.2379,207.1469 L178.2379,204.9906 L180.7067,204.9906 L180.7067,196.9125 L178.2379,196.9125 Z " fill="#000000"/><text fill="#000000" font-family="sans-serif" font-size="14" font-style="italic" lengthAdjust="spacing" textLength="119.7451" x="201.3885" y="205.9936">CustomerService</text><line style="stroke:#A80036;stroke-width:1.0;" x1="145.49" x2="345.9597" y1="217.1469" y2="217.1469"/><ellipse cx="155.49" cy="230.7953" fill="#84BE84" rx="3" ry="3" style="stroke:#038048;stroke-width:1.0;"/><text fill="#000000" font-family="sans-serif" font-size="14" font-style="italic" lengthAdjust="spacing" textLength="176.4697" x="164.49" y="234.142">registerCustomer() : void</text></g><!--class CustomerServiceImpl--><g id="elem_CustomerServiceImpl"><rect codeLine="57" fill="#FEFECE" height="56.2969" id="CustomerServiceImpl" style="stroke:#A80036;stroke-width:1.0;" width="202.4697" x="631.93" y="185.1469"/><ellipse cx="656.0117" cy="201.1469" fill="#ADD1B2" rx="11" ry="11" style="stroke:#A80036;stroke-width:1.0;"/><path d="M658.9805,206.7875 Q658.4024,207.0844 657.7617,207.225 Q657.1211,207.3813 656.418,207.3813 Q653.918,207.3813 652.5899,205.7406 Q651.2774,204.0844 651.2774,200.9594 Q651.2774,197.8344 652.5899,196.1781 Q653.918,194.5219 656.418,194.5219 Q657.1211,194.5219 657.7617,194.6781 Q658.418,194.8344 658.9805,195.1313 L658.9805,197.85 Q658.3555,197.2719 657.7617,197.0063 Q657.168,196.725 656.543,196.725 Q655.1992,196.725 654.5117,197.8031 Q653.8242,198.8656 653.8242,200.9594 Q653.8242,203.0531 654.5117,204.1313 Q655.1992,205.1938 656.543,205.1938 Q657.168,205.1938 657.7617,204.9281 Q658.3555,204.6469 658.9805,204.0688 L658.9805,206.7875 Z " fill="#000000"/><text fill="#000000" font-family="sans-serif" font-size="14" lengthAdjust="spacing" textLength="150.2881" x="672.0299" y="205.9936">CustomerServiceImpl</text><line style="stroke:#A80036;stroke-width:1.0;" x1="632.93" x2="833.3997" y1="217.1469" y2="217.1469"/><ellipse cx="642.93" cy="230.7953" fill="#84BE84" rx="3" ry="3" style="stroke:#038048;stroke-width:1.0;"/><text fill="#000000" font-family="sans-serif" font-size="14" lengthAdjust="spacing" textLength="176.4697" x="651.93" y="234.142">registerCustomer() : void</text></g><!--class OrderService--><g id="elem_OrderService"><rect codeLine="60" fill="#FEFECE" height="72.5938" id="OrderService" style="stroke:#A80036;stroke-width:1.0;" width="214.1387" x="138.65" y="77.9969"/><ellipse cx="195.5831" cy="93.9969" fill="#B4A7E5" rx="11" ry="11" style="stroke:#A80036;stroke-width:1.0;"/><path d="M191.505,89.7625 L191.505,87.6063 L198.8956,87.6063 L198.8956,89.7625 L196.4269,89.7625 L196.4269,97.8406 L198.8956,97.8406 L198.8956,99.9969 L191.505,99.9969 L191.505,97.8406 L193.9737,97.8406 L193.9737,89.7625 L191.505,89.7625 Z " fill="#000000"/><text fill="#000000" font-family="sans-serif" font-size="14" font-style="italic" lengthAdjust="spacing" textLength="91.7725" x="216.0831" y="98.8436">OrderService</text><line style="stroke:#A80036;stroke-width:1.0;" x1="139.65" x2="351.7887" y1="109.9969" y2="109.9969"/><ellipse cx="149.65" cy="123.6453" fill="#84BE84" rx="3" ry="3" style="stroke:#038048;stroke-width:1.0;"/><text fill="#000000" font-family="sans-serif" font-size="14" font-style="italic" lengthAdjust="spacing" textLength="120.5518" x="158.65" y="126.992">addOrder() : void</text><ellipse cx="149.65" cy="139.9422" fill="#84BE84" rx="3" ry="3" style="stroke:#038048;stroke-width:1.0;"/><text fill="#000000" font-family="sans-serif" font-size="14" font-style="italic" lengthAdjust="spacing" textLength="188.1387" x="158.65" y="143.2889">updateOrderStatus() : void</text></g><!--class OrderServiceImpl--><g id="elem_OrderServiceImpl"><rect codeLine="64" fill="#FEFECE" height="72.5938" id="OrderServiceImpl" style="stroke:#A80036;stroke-width:1.0;" width="214.1387" x="626.09" y="77.9969"/><ellipse cx="668.0105" cy="93.9969" fill="#ADD1B2" rx="11" ry="11" style="stroke:#A80036;stroke-width:1.0;"/><path d="M670.9792,99.6375 Q670.4011,99.9344 669.7605,100.075 Q669.1198,100.2313 668.4167,100.2313 Q665.9167,100.2313 664.5886,98.5906 Q663.2761,96.9344 663.2761,93.8094 Q663.2761,90.6844 664.5886,89.0281 Q665.9167,87.3719 668.4167,87.3719 Q669.1198,87.3719 669.7605,87.5281 Q670.4167,87.6844 670.9792,87.9813 L670.9792,90.7 Q670.3542,90.1219 669.7605,89.8563 Q669.1667,89.575 668.5417,89.575 Q667.198,89.575 666.5105,90.6531 Q665.823,91.7156 665.823,93.8094 Q665.823,95.9031 666.5105,96.9813 Q667.198,98.0438 668.5417,98.0438 Q669.1667,98.0438 669.7605,97.7781 Q670.3542,97.4969 670.9792,96.9188 L670.9792,99.6375 Z " fill="#000000"/><text fill="#000000" font-family="sans-serif" font-size="14" lengthAdjust="spacing" textLength="122.3154" x="687.9928" y="98.8436">OrderServiceImpl</text><line style="stroke:#A80036;stroke-width:1.0;" x1="627.09" x2="839.2287" y1="109.9969" y2="109.9969"/><ellipse cx="637.09" cy="123.6453" fill="#84BE84" rx="3" ry="3" style="stroke:#038048;stroke-width:1.0;"/><text fill="#000000" font-family="sans-serif" font-size="14" lengthAdjust="spacing" textLength="120.5518" x="646.09" y="126.992">addOrder() : void</text><ellipse cx="637.09" cy="139.9422" fill="#84BE84" rx="3" ry="3" style="stroke:#038048;stroke-width:1.0;"/><text fill="#000000" font-family="sans-serif" font-size="14" lengthAdjust="spacing" textLength="188.1387" x="646.09" y="143.2889">updateOrderStatus() : void</text></g><!--reverse link EmployeeAccountService to EmployeeAccountServiceImpl--><g id="link_EmployeeAccountService_EmployeeAccountServiceImpl"><path codeLine="70" d="M452.4,420.2969 C488.56,420.2969 508.43,420.2969 544.58,420.2969 " fill="none" id="EmployeeAccountService-backto-EmployeeAccountServiceImpl" style="stroke:#A80036;stroke-width:1.0;stroke-dasharray:7.0,7.0;"/><polygon fill="none" points="434.4,420.2969,452.4,426.2969,452.4,414.2969,434.4,420.2969" style="stroke:#A80036;stroke-width:1.0;"/></g><!--reverse link EmployeeService to EmployeeServiceImpl--><g id="link_EmployeeService_EmployeeServiceImpl"><path codeLine="71" d="M370.05,304.2969 C451.48,304.2969 545.66,304.2969 627.03,304.2969 " fill="none" id="EmployeeService-backto-EmployeeServiceImpl" style="stroke:#A80036;stroke-width:1.0;stroke-dasharray:7.0,7.0;"/><polygon fill="none" points="352.05,304.2969,370.05,310.2969,370.05,298.2969,352.05,304.2969" style="stroke:#A80036;stroke-width:1.0;"/></g><!--reverse link ProductService to ProductServiceImpl--><g id="link_ProductService_ProductServiceImpl"><path codeLine="72" d="M477.64,700.2969 C497.38,700.2969 499.39,700.2969 519.14,700.2969 " fill="none" id="ProductService-backto-ProductServiceImpl" style="stroke:#A80036;stroke-width:1.0;stroke-dasharray:7.0,7.0;"/><polygon fill="none" points="459.64,700.2969,477.64,706.2969,477.64,694.2969,459.64,700.2969" style="stroke:#A80036;stroke-width:1.0;"/></g><!--reverse link ProductCategoryService to ProductCategoryServiceImpl--><g id="link_ProductCategoryService_ProductCategoryServiceImpl"><path codeLine="73" d="M444.1,552.2969 C485.42,552.2969 511.38,552.2969 552.71,552.2969 " fill="none" id="ProductCategoryService-backto-ProductCategoryServiceImpl" style="stroke:#A80036;stroke-width:1.0;stroke-dasharray:7.0,7.0;"/><polygon fill="none" points="426.1,552.2969,444.1,558.2969,444.1,546.2969,426.1,552.2969" style="stroke:#A80036;stroke-width:1.0;"/></g><!--reverse link CustomerService to CustomerServiceImpl--><g id="link_CustomerService_CustomerServiceImpl"><path codeLine="74" d="M365.3,213.2969 C448.62,213.2969 548.43,213.2969 631.71,213.2969 " fill="none" id="CustomerService-backto-CustomerServiceImpl" style="stroke:#A80036;stroke-width:1.0;stroke-dasharray:7.0,7.0;"/><polygon fill="none" points="347.3,213.2969,365.3,219.2969,365.3,207.2969,347.3,213.2969" style="stroke:#A80036;stroke-width:1.0;"/></g><!--reverse link OrderService to OrderServiceImpl--><g id="link_OrderService_OrderServiceImpl"><path codeLine="75" d="M371.25,114.2969 C452.19,114.2969 545,114.2969 625.88,114.2969 " fill="none" id="OrderService-backto-OrderServiceImpl" style="stroke:#A80036;stroke-width:1.0;stroke-dasharray:7.0,7.0;"/><polygon fill="none" points="353.25,114.2969,371.25,120.2969,371.25,108.2969,353.25,114.2969" style="stroke:#A80036;stroke-width:1.0;"/></g><!--SRC=[fLLBRjim4Dtp5BDKK207A083QP25WI8Da1FGv5WcGea2EKfhfDd49-XHkkkYjz55IbbM8ZFKjreOjldUVDuR3TsZoi4QXypvRmMtF0Etuz9yLtaAMwxzYSOj0HcmAjqHI6LHa38vsoc9W5b1UyWmsw1rZ1Hf18VsIGci3h-gmw5w_LqT_bQlVrZ1nIDFtuwV6VX7vOHsomN2lJMo5FJGFQsVJ_3CDuui5_G2MvNBQwsJ2_WCNvMZgnDhrG__ih_XXAcn-xLCV3ee6ihxlxE2-I1hNtEA5jIHUIB5EIhttL9omhIfQzgJKJBEAGlfIvl7aQZHSyuhUuE_73-5viu5Cg-pGdUbdgBl_uiwMSd9yatMR4oe-52sRIqRpfQzQAvQyfJvQh6X6sF34BGtTIXYVSrkPb47eKstlcApHxmMmfJvt1qIiEVP591xR7AtFtocv85ilLTBt_8Tpx3cRupHoFD1UuCSzTBj_kwrDoxBgBq3UimMOLRdYzlzE0aBHs3Lgs5Kl27rLj7wRaf79aCxN9_5r8T2swAJNek3UA6tKmAz5_VDoh7Ak9H7L3Bb3clY4QVIzNVGJHgMFvHjD8LV4_4N0Av-NbuEl1miyFmStmMUNwODxkC5o-9hzWmUMS4iyBR1HmndNGaRL2ZgFm00]--></g></svg>