<?xml version="1.0" encoding="UTF-8" standalone="no"?><svg xmlns="http://www.w3.org/2000/svg" xmlns:xlink="http://www.w3.org/1999/xlink" contentScriptType="application/ecmascript" contentStyleType="text/css" height="419px" preserveAspectRatio="none" style="width:1067px;height:419px;background:#FFFFFF;" version="1.1" viewBox="0 0 1067 419" width="1067px" zoomAndPan="magnify"><defs/><g><text fill="#000000" font-family="sans-serif" font-size="18" lengthAdjust="spacing" textLength="177" x="438.5" y="17.4023">repositoryパッケージ</text><!--MD5=[bd0bd4c41e0e5269e37474fd45a6abb7]
cluster repository--><polygon fill="#FFFFFF" points="16,27.1992,96,27.1992,103,49.6875,1050,49.6875,1050,412.1992,16,412.1992,16,27.1992" style="stroke:#000000;stroke-width:1.5;"/><line style="stroke:#000000;stroke-width:1.5;" x1="16" x2="103" y1="49.6875" y2="49.6875"/><text fill="#000000" font-family="sans-serif" font-size="14" font-weight="bold" lengthAdjust="spacing" textLength="74" x="20" y="42.7344">repository</text><!--MD5=[f9761e4ec0e5a044b983a0fb01ce84a9]
class ProductRepository--><rect codeLine="6" fill="#FEFECE" height="117.7305" id="ProductRepository" style="stroke:#A80036;stroke-width:1.5;" width="333" x="32" y="278.1992"/><ellipse cx="141.75" cy="294.1992" fill="#B4A7E5" rx="11" ry="11" style="stroke:#A80036;stroke-width:1.0;"/><path d="M138.1777,290.4644 L138.1777,288.3062 L145.5571,288.3062 L145.5571,290.4644 L143.0918,290.4644 L143.0918,298.541 L145.5571,298.541 L145.5571,300.6992 L138.1777,300.6992 L138.1777,298.541 L140.6431,298.541 L140.6431,290.4644 Z " fill="#000000"/><text fill="#000000" font-family="sans-serif" font-size="12" font-style="italic" lengthAdjust="spacing" textLength="105" x="162.25" y="298.7344">ProductRepository</text><line style="stroke:#A80036;stroke-width:1.5;" x1="33" x2="364" y1="310.1992" y2="310.1992"/><ellipse cx="43" cy="321.1992" fill="#84BE84" rx="3" ry="3" style="stroke:#038048;stroke-width:1.0;"/><text fill="#000000" font-family="sans-serif" font-size="11" font-style="italic" lengthAdjust="spacing" textLength="131" x="52" y="324.834">findAll() : List&lt;Product&gt;</text><ellipse cx="43" cy="334.1543" fill="#84BE84" rx="3" ry="3" style="stroke:#038048;stroke-width:1.0;"/><text fill="#000000" font-family="sans-serif" font-size="11" font-style="italic" lengthAdjust="spacing" textLength="307" x="52" y="337.7891">findByCategoryId(int productCategoryId) : List&lt;Product&gt;</text><ellipse cx="43" cy="347.1094" fill="#84BE84" rx="3" ry="3" style="stroke:#038048;stroke-width:1.0;"/><text fill="#000000" font-family="sans-serif" font-size="11" font-style="italic" lengthAdjust="spacing" textLength="153" x="52" y="350.7441">findById(Integer id) : Product</text><ellipse cx="43" cy="360.0645" fill="#84BE84" rx="3" ry="3" style="stroke:#038048;stroke-width:1.0;"/><text fill="#000000" font-family="sans-serif" font-size="11" font-style="italic" lengthAdjust="spacing" textLength="159" x="52" y="363.6992">insert(Product product) : void</text><ellipse cx="43" cy="373.0195" fill="#84BE84" rx="3" ry="3" style="stroke:#038048;stroke-width:1.0;"/><text fill="#000000" font-family="sans-serif" font-size="11" font-style="italic" lengthAdjust="spacing" textLength="165" x="52" y="376.6543">update(Product product) : void</text><ellipse cx="43" cy="385.9746" fill="#84BE84" rx="3" ry="3" style="stroke:#038048;stroke-width:1.0;"/><text fill="#000000" font-family="sans-serif" font-size="11" font-style="italic" lengthAdjust="spacing" textLength="123" x="52" y="389.6094">delete(Integer id) : void</text><!--MD5=[866dcdb0a7daba50545206253620ba29]
class ProductCategoryRepository--><rect codeLine="14" fill="#FEFECE" height="78.8652" id="ProductCategoryRepository" style="stroke:#A80036;stroke-width:1.5;" width="283" x="57" y="163.6992"/><ellipse cx="116.25" cy="179.6992" fill="#B4A7E5" rx="11" ry="11" style="stroke:#A80036;stroke-width:1.0;"/><path d="M112.6777,175.9644 L112.6777,173.8062 L120.0571,173.8062 L120.0571,175.9644 L117.5918,175.9644 L117.5918,184.041 L120.0571,184.041 L120.0571,186.1992 L112.6777,186.1992 L112.6777,184.041 L115.1431,184.041 L115.1431,175.9644 Z " fill="#000000"/><text fill="#000000" font-family="sans-serif" font-size="12" font-style="italic" lengthAdjust="spacing" textLength="156" x="136.75" y="184.2344">ProductCategoryRepository</text><line style="stroke:#A80036;stroke-width:1.5;" x1="58" x2="339" y1="195.6992" y2="195.6992"/><ellipse cx="68" cy="206.6992" fill="#84BE84" rx="3" ry="3" style="stroke:#038048;stroke-width:1.0;"/><text fill="#000000" font-family="sans-serif" font-size="11" font-style="italic" lengthAdjust="spacing" textLength="180" x="77" y="210.334">findAll() : List&lt;ProductCategory&gt;</text><ellipse cx="68" cy="219.6543" fill="#84BE84" rx="3" ry="3" style="stroke:#038048;stroke-width:1.0;"/><text fill="#000000" font-family="sans-serif" font-size="11" font-style="italic" lengthAdjust="spacing" textLength="202" x="77" y="223.2891">findById(Integer id) : ProductCategory</text><ellipse cx="68" cy="232.6094" fill="#84BE84" rx="3" ry="3" style="stroke:#038048;stroke-width:1.0;"/><text fill="#000000" font-family="sans-serif" font-size="11" font-style="italic" lengthAdjust="spacing" textLength="257" x="77" y="236.2441">insert(ProductCategory productCategory) : void</text><!--MD5=[f6c912ba3a08af6a5a850b19103f304f]
class ProductStockRepository--><rect codeLine="19" fill="#FEFECE" height="65.9102" id="ProductStockRepository" style="stroke:#A80036;stroke-width:1.5;" width="249" x="74" y="62.1992"/><ellipse cx="126.75" cy="78.1992" fill="#B4A7E5" rx="11" ry="11" style="stroke:#A80036;stroke-width:1.0;"/><path d="M123.1777,74.4644 L123.1777,72.3062 L130.5571,72.3062 L130.5571,74.4644 L128.0918,74.4644 L128.0918,82.541 L130.5571,82.541 L130.5571,84.6992 L123.1777,84.6992 L123.1777,82.541 L125.6431,82.541 L125.6431,74.4644 Z " fill="#000000"/><text fill="#000000" font-family="sans-serif" font-size="12" font-style="italic" lengthAdjust="spacing" textLength="135" x="147.25" y="82.7344">ProductStockRepository</text><line style="stroke:#A80036;stroke-width:1.5;" x1="75" x2="322" y1="94.1992" y2="94.1992"/><ellipse cx="85" cy="105.1992" fill="#84BE84" rx="3" ry="3" style="stroke:#038048;stroke-width:1.0;"/><text fill="#000000" font-family="sans-serif" font-size="11" font-style="italic" lengthAdjust="spacing" textLength="217" x="94" y="108.834">insert(ProductStock productStock) : void</text><ellipse cx="85" cy="118.1543" fill="#84BE84" rx="3" ry="3" style="stroke:#038048;stroke-width:1.0;"/><text fill="#000000" font-family="sans-serif" font-size="11" font-style="italic" lengthAdjust="spacing" textLength="223" x="94" y="121.7891">update(ProductStock productStock) : void</text><!--MD5=[de091fe2e4f1fc246ce10be7e8d6c4b7]
class EmployeeAccountRepository--><rect codeLine="23" fill="#FEFECE" height="104.7754" id="EmployeeAccountRepository" style="stroke:#A80036;stroke-width:1.5;" width="315" x="425" y="284.6992"/><ellipse cx="497.25" cy="300.6992" fill="#B4A7E5" rx="11" ry="11" style="stroke:#A80036;stroke-width:1.0;"/><path d="M493.6777,296.9644 L493.6777,294.8062 L501.0571,294.8062 L501.0571,296.9644 L498.5918,296.9644 L498.5918,305.041 L501.0571,305.041 L501.0571,307.1992 L493.6777,307.1992 L493.6777,305.041 L496.1431,305.041 L496.1431,296.9644 Z " fill="#000000"/><text fill="#000000" font-family="sans-serif" font-size="12" font-style="italic" lengthAdjust="spacing" textLength="162" x="517.75" y="305.2344">EmployeeAccountRepository</text><line style="stroke:#A80036;stroke-width:1.5;" x1="426" x2="739" y1="316.6992" y2="316.6992"/><ellipse cx="436" cy="327.6992" fill="#84BE84" rx="3" ry="3" style="stroke:#038048;stroke-width:1.0;"/><text fill="#000000" font-family="sans-serif" font-size="11" font-style="italic" lengthAdjust="spacing" textLength="185" x="445" y="331.334">findAll() : List&lt;EmployeeAccount&gt;</text><ellipse cx="436" cy="340.6543" fill="#84BE84" rx="3" ry="3" style="stroke:#038048;stroke-width:1.0;"/><text fill="#000000" font-family="sans-serif" font-size="11" font-style="italic" lengthAdjust="spacing" textLength="207" x="445" y="344.2891">findById(Integer id) : EmployeeAccount</text><ellipse cx="436" cy="353.6094" fill="#84BE84" rx="3" ry="3" style="stroke:#038048;stroke-width:1.0;"/><text fill="#000000" font-family="sans-serif" font-size="11" font-style="italic" lengthAdjust="spacing" textLength="289" x="445" y="357.2441">findByUsername(String Username) : EmployeeAccount</text><ellipse cx="436" cy="366.5645" fill="#84BE84" rx="3" ry="3" style="stroke:#038048;stroke-width:1.0;"/><text fill="#000000" font-family="sans-serif" font-size="11" font-style="italic" lengthAdjust="spacing" textLength="181" x="445" y="370.1992">isExist(String userName): boolean</text><ellipse cx="436" cy="379.5195" fill="#84BE84" rx="3" ry="3" style="stroke:#038048;stroke-width:1.0;"/><text fill="#000000" font-family="sans-serif" font-size="11" font-style="italic" lengthAdjust="spacing" textLength="266" x="445" y="383.1543">insert(EmployeeAccount employeeAccount) : void</text><!--MD5=[115c5bc9211d8cbe43c7d19dc50c6850]
class EmployeeRepository--><rect codeLine="30" fill="#FEFECE" height="52.9551" id="EmployeeRepository" style="stroke:#A80036;stroke-width:1.5;" width="166" x="499.5" y="196.6992"/><ellipse cx="522.15" cy="212.6992" fill="#B4A7E5" rx="11" ry="11" style="stroke:#A80036;stroke-width:1.0;"/><path d="M518.5777,208.9644 L518.5777,206.8062 L525.9571,206.8062 L525.9571,208.9644 L523.4918,208.9644 L523.4918,217.041 L525.9571,217.041 L525.9571,219.1992 L518.5777,219.1992 L518.5777,217.041 L521.0431,217.041 L521.0431,208.9644 Z " fill="#000000"/><text fill="#000000" font-family="sans-serif" font-size="12" font-style="italic" lengthAdjust="spacing" textLength="117" x="537.85" y="217.2344">EmployeeRepository</text><line style="stroke:#A80036;stroke-width:1.5;" x1="500.5" x2="664.5" y1="228.6992" y2="228.6992"/><ellipse cx="510.5" cy="239.6992" fill="#84BE84" rx="3" ry="3" style="stroke:#038048;stroke-width:1.0;"/><text fill="#000000" font-family="sans-serif" font-size="11" font-style="italic" lengthAdjust="spacing" textLength="140" x="519.5" y="243.334">findAll() : List&lt;Employee&gt;</text><!--MD5=[e69d6994dde37a3d0167e5476c791457]
class CustomerRepository--><rect codeLine="33" fill="#FEFECE" height="52.9551" id="CustomerRepository" style="stroke:#A80036;stroke-width:1.5;" width="204" x="480.5" y="108.6992"/><ellipse cx="520.7" cy="124.6992" fill="#B4A7E5" rx="11" ry="11" style="stroke:#A80036;stroke-width:1.0;"/><path d="M517.1277,120.9644 L517.1277,118.8062 L524.5071,118.8062 L524.5071,120.9644 L522.0418,120.9644 L522.0418,129.041 L524.5071,129.041 L524.5071,131.1992 L517.1277,131.1992 L517.1277,129.041 L519.5931,129.041 L519.5931,120.9644 Z " fill="#000000"/><text fill="#000000" font-family="sans-serif" font-size="12" font-style="italic" lengthAdjust="spacing" textLength="116" x="540.3" y="129.2344">CustomerRepository</text><line style="stroke:#A80036;stroke-width:1.5;" x1="481.5" x2="683.5" y1="140.6992" y2="140.6992"/><ellipse cx="491.5" cy="151.6992" fill="#84BE84" rx="3" ry="3" style="stroke:#038048;stroke-width:1.0;"/><text fill="#000000" font-family="sans-serif" font-size="11" font-style="italic" lengthAdjust="spacing" textLength="178" x="500.5" y="155.334">insert(Customer customer) : void</text><!--MD5=[708e328039b60d50c6285936843ac334]
class OrderRepository--><rect codeLine="36" fill="#FEFECE" height="52.9551" id="OrderRepository" style="stroke:#A80036;stroke-width:1.5;" width="162" x="836" y="310.6992"/><ellipse cx="866.75" cy="326.6992" fill="#B4A7E5" rx="11" ry="11" style="stroke:#A80036;stroke-width:1.0;"/><path d="M863.1777,322.9644 L863.1777,320.8062 L870.5571,320.8062 L870.5571,322.9644 L868.0918,322.9644 L868.0918,331.041 L870.5571,331.041 L870.5571,333.1992 L863.1777,333.1992 L863.1777,331.041 L865.6431,331.041 L865.6431,322.9644 Z " fill="#000000"/><text fill="#000000" font-family="sans-serif" font-size="12" font-style="italic" lengthAdjust="spacing" textLength="95" x="884.25" y="331.2344">OrderRepository</text><line style="stroke:#A80036;stroke-width:1.5;" x1="837" x2="997" y1="342.6992" y2="342.6992"/><ellipse cx="847" cy="353.6992" fill="#84BE84" rx="3" ry="3" style="stroke:#038048;stroke-width:1.0;"/><text fill="#000000" font-family="sans-serif" font-size="11" font-style="italic" lengthAdjust="spacing" textLength="136" x="856" y="357.334">insert(Order order) : void</text><!--MD5=[5f6b482bd31c940c12a73cb2328d6631]
class OrderDetailRepository--><rect codeLine="39" fill="#FEFECE" height="52.9551" id="OrderDetailRepository" style="stroke:#A80036;stroke-width:1.5;" width="222" x="806" y="222.6992"/><ellipse cx="848.9" cy="238.6992" fill="#B4A7E5" rx="11" ry="11" style="stroke:#A80036;stroke-width:1.0;"/><path d="M845.3277,234.9644 L845.3277,232.8062 L852.7071,232.8062 L852.7071,234.9644 L850.2418,234.9644 L850.2418,243.041 L852.7071,243.041 L852.7071,245.1992 L845.3277,245.1992 L845.3277,243.041 L847.7931,243.041 L847.7931,234.9644 Z " fill="#000000"/><text fill="#000000" font-family="sans-serif" font-size="12" font-style="italic" lengthAdjust="spacing" textLength="128" x="869.1" y="243.2344">OrderDetailRepository</text><line style="stroke:#A80036;stroke-width:1.5;" x1="807" x2="1027" y1="254.6992" y2="254.6992"/><ellipse cx="817" cy="265.6992" fill="#84BE84" rx="3" ry="3" style="stroke:#038048;stroke-width:1.0;"/><text fill="#000000" font-family="sans-serif" font-size="11" font-style="italic" lengthAdjust="spacing" textLength="196" x="826" y="269.334">insert(OrderDetail orderDetail) : void</text><!--MD5=[56b95b7305013d4394159a3550c2bc2c]
class OrderStatusRepository--><rect codeLine="42" fill="#FEFECE" height="65.9102" id="OrderStatusRepository" style="stroke:#A80036;stroke-width:1.5;" width="234" x="800" y="121.1992"/><ellipse cx="848.25" cy="137.1992" fill="#B4A7E5" rx="11" ry="11" style="stroke:#A80036;stroke-width:1.0;"/><path d="M844.6777,133.4644 L844.6777,131.3062 L852.0571,131.3062 L852.0571,133.4644 L849.5918,133.4644 L849.5918,141.541 L852.0571,141.541 L852.0571,143.6992 L844.6777,143.6992 L844.6777,141.541 L847.1431,141.541 L847.1431,133.4644 Z " fill="#000000"/><text fill="#000000" font-family="sans-serif" font-size="12" font-style="italic" lengthAdjust="spacing" textLength="129" x="868.75" y="141.7344">OrderStatusRepository</text><line style="stroke:#A80036;stroke-width:1.5;" x1="801" x2="1033" y1="153.1992" y2="153.1992"/><ellipse cx="811" cy="164.1992" fill="#84BE84" rx="3" ry="3" style="stroke:#038048;stroke-width:1.0;"/><text fill="#000000" font-family="sans-serif" font-size="11" font-style="italic" lengthAdjust="spacing" textLength="202" x="820" y="167.834">insert(OrderStatus orderStatus) : void</text><ellipse cx="811" cy="177.1543" fill="#84BE84" rx="3" ry="3" style="stroke:#038048;stroke-width:1.0;"/><text fill="#000000" font-family="sans-serif" font-size="11" font-style="italic" lengthAdjust="spacing" textLength="208" x="820" y="180.7891">update(OrderStatus orderStatus) : void</text><!--MD5=[b131ca734c4dd9976ffc8967c101d71f]
link ProductRepository to ProductCategoryRepository--><!--MD5=[8f4c91f4e19c10b9f101b86960c3e582]
link ProductCategoryRepository to ProductStockRepository--><!--MD5=[6c09149a1462a1dc82160ca46336140a]
link ProductRepository to EmployeeAccountRepository--><!--MD5=[edd915b20299888af128e0bd25e84460]
link EmployeeAccountRepository to EmployeeRepository--><!--MD5=[4e78ae88cac8570160249f5976877eab]
link EmployeeRepository to CustomerRepository--><!--MD5=[4079db56ce530dfa1257d14aaeebef93]
link EmployeeAccountRepository to OrderRepository--><!--MD5=[b75f4d63a253070920099e94be68ed19]
link OrderRepository to OrderDetailRepository--><!--MD5=[636146d91842512c5354e2ce558f4a33]
link OrderDetailRepository to OrderStatusRepository--><!--MD5=[363008ec47124c08260199be244b35ea]
@startuml
skin rose
skinparam shadowing false
hide empty methods
hide empty fields

title repositoryパッケージ
left to right direction

package repository{
    interface ProductRepository{
        + {abstract} findAll() : List<Product>
        + {abstract} findByCategoryId(int productCategoryId) : List<Product>
        + {abstract} findById(Integer id) : Product
        + {abstract} insert(Product product) : void
        + {abstract} update(Product product) : void
        + {abstract} delete(Integer id) : void
    }
    interface ProductCategoryRepository{
        + {abstract} findAll() : List<ProductCategory>
        + {abstract} findById(Integer id) : ProductCategory
        + {abstract} insert(ProductCategory productCategory) : void
    }
    interface ProductStockRepository{
        + {abstract} insert(ProductStock productStock) : void
        + {abstract} update(ProductStock productStock) : void
    }
    interface EmployeeAccountRepository{
        + {abstract} findAll() : List<EmployeeAccount>
        + {abstract} findById(Integer id) : EmployeeAccount
        + {abstract} findByUsername(String Username) : EmployeeAccount
        + {abstract} isExist(String userName): boolean
        + {abstract} insert(EmployeeAccount employeeAccount) : void
    }
    interface EmployeeRepository{
        + {abstract} findAll() : List<Employee>
    }
    interface CustomerRepository{
        + {abstract} insert(Customer customer) : void
    }
    interface OrderRepository{
        + {abstract} insert(Order order) : void
    }
    interface OrderDetailRepository{
        + {abstract} insert(OrderDetail orderDetail) : void
    }
    interface OrderStatusRepository{
        + {abstract} insert(OrderStatus orderStatus) : void
        + {abstract} update(OrderStatus orderStatus) : void
    }
}
@enduml

PlantUML version 1.2022.0(Wed Jan 12 01:16:42 JST 2022)
(GPL source distribution)
Java Runtime: OpenJDK Runtime Environment
JVM: OpenJDK 64-Bit Server VM
Default Encoding: UTF-8
Language: ja
Country: JP
--></g></svg>