<?xml version="1.0" encoding="us-ascii" standalone="no"?><svg xmlns="http://www.w3.org/2000/svg" xmlns:xlink="http://www.w3.org/1999/xlink" contentStyleType="text/css" height="920px" preserveAspectRatio="none" style="width:754px;height:920px;background:#FFFFFF;" version="1.1" viewBox="0 0 754 920" width="754px" zoomAndPan="magnify"><defs/><g><text fill="#000000" font-family="sans-serif" font-size="14" font-weight="bold" lengthAdjust="spacing" textLength="247" x="249.75" y="27.9951">UC013: &#21830;&#21697;&#21066;&#38500;&#27231;&#33021; &#12471;&#12540;&#12465;&#12531;&#12473;&#22259;</text><rect fill="#FFFFFF" height="697.3203" style="stroke:#A80036;stroke-width:1.0;" width="10" x="24" y="131.5938"/><rect fill="#FFFFFF" height="230.9297" style="stroke:#A80036;stroke-width:1.0;" width="10" x="277" y="182.9922"/><rect fill="#FFFFFF" height="255.0625" style="stroke:#A80036;stroke-width:1.0;" width="10" x="277" y="473.3203"/><rect fill="#FFFFFF" height="29.1328" style="stroke:#A80036;stroke-width:1.0;" width="10" x="277" y="790.7813"/><rect fill="#FFFFFF" height="130.5313" style="stroke:#A80036;stroke-width:1.0;" width="10" x="444.5" y="212.125"/><rect fill="#FFFFFF" height="151.6641" style="stroke:#A80036;stroke-width:1.0;" width="10" x="444.5" y="502.4531"/><rect fill="#FFFFFF" height="87.3984" style="stroke:#A80036;stroke-width:1.0;" width="10" x="594.5" y="241.2578"/><rect fill="#FFFFFF" height="90.3984" style="stroke:#A80036;stroke-width:1.0;" width="10" x="594.5" y="534.5859"/><rect fill="#FFFFFF" height="29.1328" style="stroke:#A80036;stroke-width:1.0;" width="10" x="697" y="270.3906"/><rect fill="#FFFFFF" height="29.1328" style="stroke:#A80036;stroke-width:1.0;" width="10" x="697" y="566.7188"/><line style="stroke:#A80036;stroke-width:1.0;stroke-dasharray:5.0,5.0;" x1="29" x2="29" y1="121.5938" y2="837.9141"/><line style="stroke:#A80036;stroke-width:1.0;stroke-dasharray:5.0,5.0;" x1="282" x2="282" y1="121.5938" y2="837.9141"/><line style="stroke:#A80036;stroke-width:1.0;stroke-dasharray:5.0,5.0;" x1="449" x2="449" y1="121.5938" y2="837.9141"/><line style="stroke:#A80036;stroke-width:1.0;stroke-dasharray:5.0,5.0;" x1="599" x2="599" y1="121.5938" y2="837.9141"/><line style="stroke:#A80036;stroke-width:1.0;stroke-dasharray:5.0,5.0;" x1="702" x2="702" y1="121.5938" y2="837.9141"/><text fill="#000000" font-family="sans-serif" font-size="14" lengthAdjust="spacing" textLength="42" x="5" y="118.292">&#12518;&#12540;&#12470;</text><ellipse cx="29" cy="52.2969" fill="#FEFECE" rx="8" ry="8" style="stroke:#A80036;stroke-width:2.0;"/><path d="M29,60.2969 L29,87.2969 M16,68.2969 L42,68.2969 M29,87.2969 L16,102.2969 M29,87.2969 L42,102.2969 " fill="none" style="stroke:#A80036;stroke-width:2.0;"/><text fill="#000000" font-family="sans-serif" font-size="14" lengthAdjust="spacing" textLength="42" x="5" y="849.9092">&#12518;&#12540;&#12470;</text><ellipse cx="29" cy="863.2109" fill="#FEFECE" rx="8" ry="8" style="stroke:#A80036;stroke-width:2.0;"/><path d="M29,871.2109 L29,898.2109 M16,879.2109 L42,879.2109 M29,898.2109 L16,913.2109 M29,898.2109 L42,913.2109 " fill="none" style="stroke:#A80036;stroke-width:2.0;"/><rect fill="#FEFECE" height="30.2969" style="stroke:#A80036;stroke-width:1.5;" width="192" x="186" y="90.2969"/><text fill="#000000" font-family="sans-serif" font-size="14" lengthAdjust="spacing" textLength="178" x="193" y="110.292">ProductDeleteController</text><rect fill="#FEFECE" height="30.2969" style="stroke:#A80036;stroke-width:1.5;" width="192" x="186" y="836.9141"/><text fill="#000000" font-family="sans-serif" font-size="14" lengthAdjust="spacing" textLength="178" x="193" y="856.9092">ProductDeleteController</text><rect fill="#FEFECE" height="30.2969" style="stroke:#A80036;stroke-width:1.5;" width="123" x="388" y="90.2969"/><text fill="#000000" font-family="sans-serif" font-size="14" lengthAdjust="spacing" textLength="109" x="395" y="110.292">ProductService</text><rect fill="#FEFECE" height="30.2969" style="stroke:#A80036;stroke-width:1.5;" width="123" x="388" y="836.9141"/><text fill="#000000" font-family="sans-serif" font-size="14" lengthAdjust="spacing" textLength="109" x="395" y="856.9092">ProductService</text><rect fill="#FEFECE" height="30.2969" style="stroke:#A80036;stroke-width:1.5;" width="149" x="525" y="90.2969"/><text fill="#000000" font-family="sans-serif" font-size="14" lengthAdjust="spacing" textLength="135" x="532" y="110.292">ProductRepository</text><rect fill="#FEFECE" height="30.2969" style="stroke:#A80036;stroke-width:1.5;" width="149" x="525" y="836.9141"/><text fill="#000000" font-family="sans-serif" font-size="14" lengthAdjust="spacing" textLength="135" x="532" y="856.9092">ProductRepository</text><text fill="#000000" font-family="sans-serif" font-size="14" lengthAdjust="spacing" textLength="21" x="688.5" y="118.292">DB</text><path d="M684,69.2969 C684,59.2969 702,59.2969 702,59.2969 C702,59.2969 720,59.2969 720,69.2969 L720,95.2969 C720,105.2969 702,105.2969 702,105.2969 C702,105.2969 684,105.2969 684,95.2969 L684,69.2969 " fill="#FEFECE" style="stroke:#A80036;stroke-width:1.5;"/><path d="M684,69.2969 C684,79.2969 702,79.2969 702,79.2969 C702,79.2969 720,79.2969 720,69.2969 " fill="none" style="stroke:#A80036;stroke-width:1.5;"/><text fill="#000000" font-family="sans-serif" font-size="14" lengthAdjust="spacing" textLength="21" x="688.5" y="849.9092">DB</text><path d="M684,863.2109 C684,853.2109 702,853.2109 702,853.2109 C702,853.2109 720,853.2109 720,863.2109 L720,889.2109 C720,899.2109 702,899.2109 702,899.2109 C702,899.2109 684,899.2109 684,889.2109 L684,863.2109 " fill="#FEFECE" style="stroke:#A80036;stroke-width:1.5;"/><path d="M684,863.2109 C684,873.2109 702,873.2109 702,873.2109 C702,873.2109 720,873.2109 720,863.2109 " fill="none" style="stroke:#A80036;stroke-width:1.5;"/><rect fill="#FFFFFF" height="697.3203" style="stroke:#A80036;stroke-width:1.0;" width="10" x="24" y="131.5938"/><rect fill="#FFFFFF" height="230.9297" style="stroke:#A80036;stroke-width:1.0;" width="10" x="277" y="182.9922"/><rect fill="#FFFFFF" height="255.0625" style="stroke:#A80036;stroke-width:1.0;" width="10" x="277" y="473.3203"/><rect fill="#FFFFFF" height="29.1328" style="stroke:#A80036;stroke-width:1.0;" width="10" x="277" y="790.7813"/><rect fill="#FFFFFF" height="130.5313" style="stroke:#A80036;stroke-width:1.0;" width="10" x="444.5" y="212.125"/><rect fill="#FFFFFF" height="151.6641" style="stroke:#A80036;stroke-width:1.0;" width="10" x="444.5" y="502.4531"/><rect fill="#FFFFFF" height="87.3984" style="stroke:#A80036;stroke-width:1.0;" width="10" x="594.5" y="241.2578"/><rect fill="#FFFFFF" height="90.3984" style="stroke:#A80036;stroke-width:1.0;" width="10" x="594.5" y="534.5859"/><rect fill="#FFFFFF" height="29.1328" style="stroke:#A80036;stroke-width:1.0;" width="10" x="697" y="270.3906"/><rect fill="#FFFFFF" height="29.1328" style="stroke:#A80036;stroke-width:1.0;" width="10" x="697" y="566.7188"/><polygon fill="#A80036" points="265,178.9922,275,182.9922,265,186.9922,269,182.9922" style="stroke:#A80036;stroke-width:1.0;"/><line style="stroke:#A80036;stroke-width:1.0;" x1="34" x2="271" y1="182.9922" y2="182.9922"/><text fill="#000000" font-family="sans-serif" font-size="13" lengthAdjust="spacing" textLength="26" x="41" y="147.6606">GET</text><text fill="#000000" font-family="sans-serif" font-size="13" lengthAdjust="spacing" textLength="224" x="41" y="162.7935">/admin/product-delete/{productId}</text><text fill="#000000" font-family="sans-serif" font-size="13" lengthAdjust="spacing" textLength="119" x="41" y="177.9263">confirm(productId)</text><polygon fill="#A80036" points="432.5,208.125,442.5,212.125,432.5,216.125,436.5,212.125" style="stroke:#A80036;stroke-width:1.0;"/><line style="stroke:#A80036;stroke-width:1.0;" x1="287" x2="438.5" y1="212.125" y2="212.125"/><text fill="#000000" font-family="sans-serif" font-size="13" lengthAdjust="spacing" textLength="121" x="294" y="207.0591">findById(productId)</text><polygon fill="#A80036" points="582.5,237.2578,592.5,241.2578,582.5,245.2578,586.5,241.2578" style="stroke:#A80036;stroke-width:1.0;"/><line style="stroke:#A80036;stroke-width:1.0;" x1="454.5" x2="588.5" y1="241.2578" y2="241.2578"/><text fill="#000000" font-family="sans-serif" font-size="13" lengthAdjust="spacing" textLength="121" x="461.5" y="236.1919">findById(productId)</text><polygon fill="#A80036" points="685,266.3906,695,270.3906,685,274.3906,689,270.3906" style="stroke:#A80036;stroke-width:1.0;"/><line style="stroke:#A80036;stroke-width:1.0;" x1="604.5" x2="691" y1="270.3906" y2="270.3906"/><text fill="#000000" font-family="sans-serif" font-size="13" lengthAdjust="spacing" textLength="61" x="611.5" y="265.3247">SELECT&#25991;</text><polygon fill="#A80036" points="615.5,295.5234,605.5,299.5234,615.5,303.5234,611.5,299.5234" style="stroke:#A80036;stroke-width:1.0;"/><line style="stroke:#A80036;stroke-width:1.0;stroke-dasharray:2.0,2.0;" x1="609.5" x2="701" y1="299.5234" y2="299.5234"/><text fill="#000000" font-family="sans-serif" font-size="13" lengthAdjust="spacing" textLength="49" x="621.5" y="294.4575">Product</text><polygon fill="#A80036" points="465.5,324.6563,455.5,328.6563,465.5,332.6563,461.5,328.6563" style="stroke:#A80036;stroke-width:1.0;"/><line style="stroke:#A80036;stroke-width:1.0;stroke-dasharray:2.0,2.0;" x1="459.5" x2="598.5" y1="328.6563" y2="328.6563"/><text fill="#000000" font-family="sans-serif" font-size="13" lengthAdjust="spacing" textLength="49" x="471.5" y="323.5903">Product</text><polygon fill="#A80036" points="298,338.6563,288,342.6563,298,346.6563,294,342.6563" style="stroke:#A80036;stroke-width:1.0;"/><line style="stroke:#A80036;stroke-width:1.0;stroke-dasharray:2.0,2.0;" x1="292" x2="448.5" y1="342.6563" y2="342.6563"/><line style="stroke:#A80036;stroke-width:1.0;" x1="287" x2="329" y1="371.7891" y2="371.7891"/><line style="stroke:#A80036;stroke-width:1.0;" x1="329" x2="329" y1="371.7891" y2="384.7891"/><line style="stroke:#A80036;stroke-width:1.0;" x1="288" x2="329" y1="384.7891" y2="384.7891"/><polygon fill="#A80036" points="298,380.7891,288,384.7891,298,388.7891,294,384.7891" style="stroke:#A80036;stroke-width:1.0;"/><text fill="#000000" font-family="sans-serif" font-size="13" lengthAdjust="spacing" textLength="76" x="294" y="366.7231">Model&#12395;&#36861;&#21152;</text><path d="M382,359.1563 L382,384.1563 L559,384.1563 L559,369.1563 L549,359.1563 L382,359.1563 " fill="#FBFB77" style="stroke:#A80036;stroke-width:1.0;"/><path d="M549,359.1563 L549,369.1563 L559,369.1563 L549,359.1563 " fill="#FBFB77" style="stroke:#A80036;stroke-width:1.0;"/><text fill="#000000" font-family="sans-serif" font-size="13" lengthAdjust="spacing" textLength="156" x="388" y="376.2231">&#12475;&#12483;&#12471;&#12519;&#12531;&#12395;&#12399;&#26684;&#32013;&#12375;&#12394;&#12356;</text><polygon fill="#A80036" points="45,409.9219,35,413.9219,45,417.9219,41,413.9219" style="stroke:#A80036;stroke-width:1.0;"/><line style="stroke:#A80036;stroke-width:1.0;stroke-dasharray:2.0,2.0;" x1="39" x2="281" y1="413.9219" y2="413.9219"/><text fill="#000000" font-family="sans-serif" font-size="13" lengthAdjust="spacing" textLength="52" x="51" y="408.856">&#30906;&#35469;&#30011;&#38754;</text><polygon fill="#A80036" points="265,469.3203,275,473.3203,265,477.3203,269,473.3203" style="stroke:#A80036;stroke-width:1.0;"/><line style="stroke:#A80036;stroke-width:1.0;" x1="34" x2="271" y1="473.3203" y2="473.3203"/><text fill="#000000" font-family="sans-serif" font-size="13" lengthAdjust="spacing" textLength="34" x="41" y="437.9888">POST</text><text fill="#000000" font-family="sans-serif" font-size="13" lengthAdjust="spacing" textLength="198" x="41" y="453.1216">/admin/product-delete/execute</text><text fill="#000000" font-family="sans-serif" font-size="13" lengthAdjust="spacing" textLength="62" x="41" y="468.2544">execute()</text><polygon fill="#A80036" points="432.5,498.4531,442.5,502.4531,432.5,506.4531,436.5,502.4531" style="stroke:#A80036;stroke-width:1.0;"/><line style="stroke:#A80036;stroke-width:1.0;" x1="287" x2="438.5" y1="502.4531" y2="502.4531"/><text fill="#000000" font-family="sans-serif" font-size="13" lengthAdjust="spacing" textLength="115" x="294" y="497.3872">delete(Integer no)</text><polygon fill="#A80036" points="582.5,530.5859,592.5,534.5859,582.5,538.5859,586.5,534.5859" style="stroke:#A80036;stroke-width:1.0;"/><line style="stroke:#A80036;stroke-width:1.0;" x1="454.5" x2="588.5" y1="534.5859" y2="534.5859"/><text fill="#000000" font-family="sans-serif" font-size="13" lengthAdjust="spacing" textLength="115" x="461.5" y="529.52">delete(Integer no)</text><path d="M609,515.4531 L609,540.4531 L747,540.4531 L747,525.4531 L737,515.4531 L609,515.4531 " fill="#FBFB77" style="stroke:#A80036;stroke-width:1.0;"/><path d="M737,515.4531 L737,525.4531 L747,525.4531 L737,515.4531 " fill="#FBFB77" style="stroke:#A80036;stroke-width:1.0;"/><text fill="#000000" font-family="sans-serif" font-size="13" lengthAdjust="spacing" textLength="117" x="615" y="532.52">&#29289;&#29702;&#12391;&#12394;&#12367;&#35542;&#29702;&#21066;&#38500;</text><polygon fill="#A80036" points="685,562.7188,695,566.7188,685,570.7188,689,566.7188" style="stroke:#A80036;stroke-width:1.0;"/><line style="stroke:#A80036;stroke-width:1.0;" x1="604.5" x2="691" y1="566.7188" y2="566.7188"/><text fill="#000000" font-family="sans-serif" font-size="13" lengthAdjust="spacing" textLength="65" x="611.5" y="561.6528">UPDATE&#25991;</text><polygon fill="#A80036" points="615.5,591.8516,605.5,595.8516,615.5,599.8516,611.5,595.8516" style="stroke:#A80036;stroke-width:1.0;"/><line style="stroke:#A80036;stroke-width:1.0;stroke-dasharray:2.0,2.0;" x1="609.5" x2="701" y1="595.8516" y2="595.8516"/><text fill="#000000" font-family="sans-serif" font-size="13" lengthAdjust="spacing" textLength="27" x="621.5" y="590.7856">void</text><polygon fill="#A80036" points="465.5,620.9844,455.5,624.9844,465.5,628.9844,461.5,624.9844" style="stroke:#A80036;stroke-width:1.0;"/><line style="stroke:#A80036;stroke-width:1.0;stroke-dasharray:2.0,2.0;" x1="459.5" x2="598.5" y1="624.9844" y2="624.9844"/><text fill="#000000" font-family="sans-serif" font-size="13" lengthAdjust="spacing" textLength="27" x="471.5" y="619.9185">void</text><polygon fill="#A80036" points="298,650.1172,288,654.1172,298,658.1172,294,654.1172" style="stroke:#A80036;stroke-width:1.0;"/><line style="stroke:#A80036;stroke-width:1.0;stroke-dasharray:2.0,2.0;" x1="292" x2="448.5" y1="654.1172" y2="654.1172"/><text fill="#000000" font-family="sans-serif" font-size="13" lengthAdjust="spacing" textLength="27" x="304" y="649.0513">void</text><line style="stroke:#A80036;stroke-width:1.0;" x1="287" x2="329" y1="683.25" y2="683.25"/><line style="stroke:#A80036;stroke-width:1.0;" x1="329" x2="329" y1="683.25" y2="696.25"/><line style="stroke:#A80036;stroke-width:1.0;" x1="288" x2="329" y1="696.25" y2="696.25"/><polygon fill="#A80036" points="298,692.25,288,696.25,298,700.25,294,696.25" style="stroke:#A80036;stroke-width:1.0;"/><text fill="#000000" font-family="sans-serif" font-size="13" lengthAdjust="spacing" textLength="141" x="294" y="678.1841">Model&#12395;&#36861;&#21152;&#65288;&#21830;&#21697;&#21517;&#65289;</text><polygon fill="#A80036" points="45,724.3828,35,728.3828,45,732.3828,41,728.3828" style="stroke:#A80036;stroke-width:1.0;"/><line style="stroke:#A80036;stroke-width:1.0;stroke-dasharray:2.0,2.0;" x1="39" x2="281" y1="728.3828" y2="728.3828"/><text fill="#000000" font-family="sans-serif" font-size="13" lengthAdjust="spacing" textLength="78" x="51" y="723.3169">&#12522;&#12480;&#12452;&#12524;&#12463;&#12488;</text><path d="M292,709.25 L292,734.25 L509,734.25 L509,719.25 L499,709.25 L292,709.25 " fill="#FBFB77" style="stroke:#A80036;stroke-width:1.0;"/><path d="M499,709.25 L499,719.25 L509,719.25 L499,709.25 " fill="#FBFB77" style="stroke:#A80036;stroke-width:1.0;"/><text fill="#000000" font-family="sans-serif" font-size="13" lengthAdjust="spacing" textLength="196" x="298" y="726.3169">PRG&#12497;&#12479;&#12540;&#12531;&#12395;&#12424;&#12426;&#20108;&#37325;&#25237;&#31295;&#38450;&#27490;</text><polygon fill="#A80036" points="265,786.7813,275,790.7813,265,794.7813,269,790.7813" style="stroke:#A80036;stroke-width:1.0;"/><line style="stroke:#A80036;stroke-width:1.0;" x1="34" x2="271" y1="790.7813" y2="790.7813"/><text fill="#000000" font-family="sans-serif" font-size="13" lengthAdjust="spacing" textLength="26" x="41" y="755.4497">GET</text><text fill="#000000" font-family="sans-serif" font-size="13" lengthAdjust="spacing" textLength="202" x="41" y="770.5825">admin/product-delete/complete</text><text fill="#000000" font-family="sans-serif" font-size="13" lengthAdjust="spacing" textLength="70" x="41" y="785.7153">complete()</text><polygon fill="#A80036" points="45,815.9141,35,819.9141,45,823.9141,41,819.9141" style="stroke:#A80036;stroke-width:1.0;"/><line style="stroke:#A80036;stroke-width:1.0;stroke-dasharray:2.0,2.0;" x1="39" x2="281" y1="819.9141" y2="819.9141"/><text fill="#000000" font-family="sans-serif" font-size="13" lengthAdjust="spacing" textLength="52" x="51" y="814.8481">&#23436;&#20102;&#30011;&#38754;</text><!--SRC=[hLLTRn9157tVNp6F-42myOq74_b8GwAH5Fh6oxexq8amGtQdQ6DCt5r3WPHOesqrnjYGnbfG6wtHI6duCTDbuQb_mLb05d6NR4lVxdpSS-xUUywE-X1Xe10L2YgFYg8Y5e2w9iha4S8va1Np_8GYceTWDNfpwLOOc3jbyvLcLck3jmUzemzzummm_HSpEap_nemJflystvq8WYXHeW1cV1oU_BJNg2HIEBKbJ48Gl0sI2f7N9Hg3UKXXb62ga7mUAY0CbkFf30w9SW7XK75qAoWFhuMUZDS9-Ma6ImHdaL88JFPkEAmUw8BWHUjKb89A2KcG5v95M8vi9EHv3EFR4-2_sGxU2YmI5V7kRFY4T184GHQf-41K8OX59XHJW9mb5k6mgVZTU3JTszrqmEm4VXRqA6Iy9yZmdmmN2hVEk6Ix53_R4k-fkm3DDdREn5mqT8zmnJ2jrU-UcRLz0HCEhA3S6WrpzPuomnXg-D0MiDPYsd5llsFzg3DjZsbDfZsVmyff7Hs7WTLezvjrw_Nfu7t3vIl-5w1F4oJlfpnT01z3QPt231u7WUiM_eWdaC0KvlWLJ1RMlG_4QULCpykg7bdRPQOT3aVpej_QvSlH_sYE8rQJiJlf-6KSKI98lg8TPbCNye8ttdLQug9J6V_Pj-iNdQf_mJEZoOndJ3zWncUc7pEZuaVsqmDDhYmpuoNJkpRco81wXUcry_RMOBFUg-rOdxg3DzzxNngNUp9SlIAHGj4ExETY52tcbfbkc5-tpjjbt_R_0m00]--></g></svg>