<svg xmlns="http://www.w3.org/2000/svg" xmlns:xlink="http://www.w3.org/1999/xlink" contentStyleType="text/css" height="920px" preserveAspectRatio="none" style="width:773px;height:920px;background:#FFFFFF;" version="1.1" viewBox="0 0 773 920" width="773px" zoomAndPan="magnify"><defs/><g><text fill="#000000" font-family="sans-serif" font-size="14" font-weight="bold" lengthAdjust="spacing" textLength="234.2122" x="265.7158" y="27.9951">UC013: &#21830;&#21697;&#21066;&#38500;&#27231;&#33021; &#12471;&#12540;&#12465;&#12531;&#12473;&#22259;</text><rect fill="#FFFFFF" height="697.3203" style="stroke:#A80036;stroke-width:1.0;" width="10" x="23.9999" y="131.5938"/><rect fill="#FFFFFF" height="230.9297" style="stroke:#A80036;stroke-width:1.0;" width="10" x="281.7187" y="182.9922"/><rect fill="#FFFFFF" height="255.0625" style="stroke:#A80036;stroke-width:1.0;" width="10" x="281.7187" y="473.3203"/><rect fill="#FFFFFF" height="29.1328" style="stroke:#A80036;stroke-width:1.0;" width="10" x="281.7187" y="790.7813"/><rect fill="#FFFFFF" height="130.5313" style="stroke:#A80036;stroke-width:1.0;" width="10" x="458.7505" y="212.125"/><rect fill="#FFFFFF" height="151.6641" style="stroke:#A80036;stroke-width:1.0;" width="10" x="458.7505" y="502.4531"/><rect fill="#FFFFFF" height="87.3984" style="stroke:#A80036;stroke-width:1.0;" width="10" x="613.6436" y="241.2578"/><rect fill="#FFFFFF" height="90.3984" style="stroke:#A80036;stroke-width:1.0;" width="10" x="613.6436" y="534.5859"/><rect fill="#FFFFFF" height="29.1328" style="stroke:#A80036;stroke-width:1.0;" width="10" x="713.0347" y="270.3906"/><rect fill="#FFFFFF" height="29.1328" style="stroke:#A80036;stroke-width:1.0;" width="10" x="713.0347" y="566.7188"/><line style="stroke:#A80036;stroke-width:1.0;stroke-dasharray:5.0,5.0;" x1="28" x2="28" y1="121.5938" y2="837.9141"/><line style="stroke:#A80036;stroke-width:1.0;stroke-dasharray:5.0,5.0;" x1="286.2777" x2="286.2777" y1="121.5938" y2="837.9141"/><line style="stroke:#A80036;stroke-width:1.0;stroke-dasharray:5.0,5.0;" x1="463.0249" x2="463.0249" y1="121.5938" y2="837.9141"/><line style="stroke:#A80036;stroke-width:1.0;stroke-dasharray:5.0,5.0;" x1="618.2525" x2="618.2525" y1="121.5938" y2="837.9141"/><line style="stroke:#A80036;stroke-width:1.0;stroke-dasharray:5.0,5.0;" x1="718.0347" x2="718.0347" y1="121.5938" y2="837.9141"/><text fill="#000000" font-family="sans-serif" font-size="14" lengthAdjust="spacing" textLength="41.9998" x="5" y="118.292">&#12518;&#12540;&#12470;</text><ellipse cx="28.9999" cy="52.2969" fill="#FEFECE" rx="8" ry="8" style="stroke:#A80036;stroke-width:2.0;"/><path d="M28.9999,60.2969 L28.9999,87.2969 M15.9999,68.2969 L41.9999,68.2969 M28.9999,87.2969 L15.9999,102.2969 M28.9999,87.2969 L41.9999,102.2969 " fill="none" style="stroke:#A80036;stroke-width:2.0;"/><text fill="#000000" font-family="sans-serif" font-size="14" lengthAdjust="spacing" textLength="41.9998" x="5" y="849.9092">&#12518;&#12540;&#12470;</text><ellipse cx="28.9999" cy="863.2109" fill="#FEFECE" rx="8" ry="8" style="stroke:#A80036;stroke-width:2.0;"/><path d="M28.9999,871.2109 L28.9999,898.2109 M15.9999,879.2109 L41.9999,879.2109 M28.9999,898.2109 L15.9999,913.2109 M28.9999,898.2109 L41.9999,913.2109 " fill="none" style="stroke:#A80036;stroke-width:2.0;"/><rect fill="#FEFECE" height="30.2969" style="stroke:#A80036;stroke-width:1.5;" width="182.8818" x="195.2777" y="90.2969"/><text fill="#000000" font-family="sans-serif" font-size="14" lengthAdjust="spacing" textLength="168.8818" x="202.2777" y="110.292">ProductDeleteController</text><rect fill="#FEFECE" height="30.2969" style="stroke:#A80036;stroke-width:1.5;" width="182.8818" x="195.2777" y="836.9141"/><text fill="#000000" font-family="sans-serif" font-size="14" lengthAdjust="spacing" textLength="168.8818" x="202.2777" y="856.9092">ProductDeleteController</text><rect fill="#FEFECE" height="30.2969" style="stroke:#A80036;stroke-width:1.5;" width="119.4512" x="404.0249" y="90.2969"/><text fill="#000000" font-family="sans-serif" font-size="14" lengthAdjust="spacing" textLength="105.4512" x="411.0249" y="110.292">ProductService</text><rect fill="#FEFECE" height="30.2969" style="stroke:#A80036;stroke-width:1.5;" width="119.4512" x="404.0249" y="836.9141"/><text fill="#000000" font-family="sans-serif" font-size="14" lengthAdjust="spacing" textLength="105.4512" x="411.0249" y="856.9092">ProductService</text><rect fill="#FEFECE" height="30.2969" style="stroke:#A80036;stroke-width:1.5;" width="142.7822" x="547.2525" y="90.2969"/><text fill="#000000" font-family="sans-serif" font-size="14" lengthAdjust="spacing" textLength="128.7822" x="554.2525" y="110.292">ProductRepository</text><rect fill="#FEFECE" height="30.2969" style="stroke:#A80036;stroke-width:1.5;" width="142.7822" x="547.2525" y="836.9141"/><text fill="#000000" font-family="sans-serif" font-size="14" lengthAdjust="spacing" textLength="128.7822" x="554.2525" y="856.9092">ProductRepository</text><text fill="#000000" font-family="sans-serif" font-size="14" lengthAdjust="spacing" textLength="20.3848" x="704.8423" y="118.292">DB</text><path d="M700.0347,69.2969 C700.0347,59.2969 718.0347,59.2969 718.0347,59.2969 C718.0347,59.2969 736.0347,59.2969 736.0347,69.2969 L736.0347,95.2969 C736.0347,105.2969 718.0347,105.2969 718.0347,105.2969 C718.0347,105.2969 700.0347,105.2969 700.0347,95.2969 L700.0347,69.2969 " fill="#FEFECE" style="stroke:#A80036;stroke-width:1.5;"/><path d="M700.0347,69.2969 C700.0347,79.2969 718.0347,79.2969 718.0347,79.2969 C718.0347,79.2969 736.0347,79.2969 736.0347,69.2969 " fill="none" style="stroke:#A80036;stroke-width:1.5;"/><text fill="#000000" font-family="sans-serif" font-size="14" lengthAdjust="spacing" textLength="20.3848" x="704.8423" y="849.9092">DB</text><path d="M700.0347,863.2109 C700.0347,853.2109 718.0347,853.2109 718.0347,853.2109 C718.0347,853.2109 736.0347,853.2109 736.0347,863.2109 L736.0347,889.2109 C736.0347,899.2109 718.0347,899.2109 718.0347,899.2109 C718.0347,899.2109 700.0347,899.2109 700.0347,889.2109 L700.0347,863.2109 " fill="#FEFECE" style="stroke:#A80036;stroke-width:1.5;"/><path d="M700.0347,863.2109 C700.0347,873.2109 718.0347,873.2109 718.0347,873.2109 C718.0347,873.2109 736.0347,873.2109 736.0347,863.2109 " fill="none" style="stroke:#A80036;stroke-width:1.5;"/><rect fill="#FFFFFF" height="697.3203" style="stroke:#A80036;stroke-width:1.0;" width="10" x="23.9999" y="131.5938"/><rect fill="#FFFFFF" height="230.9297" style="stroke:#A80036;stroke-width:1.0;" width="10" x="281.7187" y="182.9922"/><rect fill="#FFFFFF" height="255.0625" style="stroke:#A80036;stroke-width:1.0;" width="10" x="281.7187" y="473.3203"/><rect fill="#FFFFFF" height="29.1328" style="stroke:#A80036;stroke-width:1.0;" width="10" x="281.7187" y="790.7813"/><rect fill="#FFFFFF" height="130.5313" style="stroke:#A80036;stroke-width:1.0;" width="10" x="458.7505" y="212.125"/><rect fill="#FFFFFF" height="151.6641" style="stroke:#A80036;stroke-width:1.0;" width="10" x="458.7505" y="502.4531"/><rect fill="#FFFFFF" height="87.3984" style="stroke:#A80036;stroke-width:1.0;" width="10" x="613.6436" y="241.2578"/><rect fill="#FFFFFF" height="90.3984" style="stroke:#A80036;stroke-width:1.0;" width="10" x="613.6436" y="534.5859"/><rect fill="#FFFFFF" height="29.1328" style="stroke:#A80036;stroke-width:1.0;" width="10" x="713.0347" y="270.3906"/><rect fill="#FFFFFF" height="29.1328" style="stroke:#A80036;stroke-width:1.0;" width="10" x="713.0347" y="566.7188"/><polygon fill="#A80036" points="269.7187,178.9922,279.7187,182.9922,269.7187,186.9922,273.7187,182.9922" style="stroke:#A80036;stroke-width:1.0;"/><line style="stroke:#A80036;stroke-width:1.0;" x1="33.9999" x2="275.7187" y1="182.9922" y2="182.9922"/><text fill="#000000" font-family="sans-serif" font-size="13" lengthAdjust="spacing" textLength="26.2285" x="40.9999" y="147.6606">GET</text><text fill="#000000" font-family="sans-serif" font-size="13" lengthAdjust="spacing" textLength="228.7188" x="40.9999" y="162.7935">/admin/product-delete/{productId}</text><text fill="#000000" font-family="sans-serif" font-size="13" lengthAdjust="spacing" textLength="122.0527" x="40.9999" y="177.9263">confirm(productId)</text><polygon fill="#A80036" points="446.7505,208.125,456.7505,212.125,446.7505,216.125,450.7505,212.125" style="stroke:#A80036;stroke-width:1.0;"/><line style="stroke:#A80036;stroke-width:1.0;" x1="291.7187" x2="452.7505" y1="212.125" y2="212.125"/><text fill="#000000" font-family="sans-serif" font-size="13" lengthAdjust="spacing" textLength="125.8931" x="298.7187" y="207.0591">findById(productId)</text><polygon fill="#A80036" points="601.6436,237.2578,611.6436,241.2578,601.6436,245.2578,605.6436,241.2578" style="stroke:#A80036;stroke-width:1.0;"/><line style="stroke:#A80036;stroke-width:1.0;" x1="468.7505" x2="607.6436" y1="241.2578" y2="241.2578"/><text fill="#000000" font-family="sans-serif" font-size="13" lengthAdjust="spacing" textLength="125.8931" x="475.7505" y="236.1919">findById(productId)</text><polygon fill="#A80036" points="701.0347,266.3906,711.0347,270.3906,701.0347,274.3906,705.0347,270.3906" style="stroke:#A80036;stroke-width:1.0;"/><line style="stroke:#A80036;stroke-width:1.0;" x1="623.6436" x2="707.0347" y1="270.3906" y2="270.3906"/><text fill="#000000" font-family="sans-serif" font-size="13" lengthAdjust="spacing" textLength="61.9404" x="630.6436" y="265.3247">SELECT&#25991;</text><polygon fill="#A80036" points="634.6436,295.5234,624.6436,299.5234,634.6436,303.5234,630.6436,299.5234" style="stroke:#A80036;stroke-width:1.0;"/><line style="stroke:#A80036;stroke-width:1.0;stroke-dasharray:2.0,2.0;" x1="628.6436" x2="717.0347" y1="299.5234" y2="299.5234"/><text fill="#000000" font-family="sans-serif" font-size="13" lengthAdjust="spacing" textLength="49.8735" x="640.6436" y="294.4575">Product</text><polygon fill="#A80036" points="479.7505,324.6563,469.7505,328.6563,479.7505,332.6563,475.7505,328.6563" style="stroke:#A80036;stroke-width:1.0;"/><line style="stroke:#A80036;stroke-width:1.0;stroke-dasharray:2.0,2.0;" x1="473.7505" x2="617.6436" y1="328.6563" y2="328.6563"/><text fill="#000000" font-family="sans-serif" font-size="13" lengthAdjust="spacing" textLength="49.8735" x="485.7505" y="323.5903">Product</text><polygon fill="#A80036" points="302.7187,338.6563,292.7187,342.6563,302.7187,346.6563,298.7187,342.6563" style="stroke:#A80036;stroke-width:1.0;"/><line style="stroke:#A80036;stroke-width:1.0;stroke-dasharray:2.0,2.0;" x1="296.7187" x2="462.7505" y1="342.6563" y2="342.6563"/><line style="stroke:#A80036;stroke-width:1.0;" x1="291.7187" x2="333.7187" y1="371.7891" y2="371.7891"/><line style="stroke:#A80036;stroke-width:1.0;" x1="333.7187" x2="333.7187" y1="371.7891" y2="384.7891"/><line style="stroke:#A80036;stroke-width:1.0;" x1="292.7187" x2="333.7187" y1="384.7891" y2="384.7891"/><polygon fill="#A80036" points="302.7187,380.7891,292.7187,384.7891,302.7187,388.7891,298.7187,384.7891" style="stroke:#A80036;stroke-width:1.0;"/><text fill="#000000" font-family="sans-serif" font-size="13" lengthAdjust="spacing" textLength="78.0318" x="298.7187" y="366.7231">Model&#12395;&#36861;&#21152;</text><path d="M398.0318,359.1563 L398.0318,384.1563 L575.0318,384.1563 L575.0318,369.1563 L565.0318,359.1563 L398.0318,359.1563 " fill="#FBFB77" style="stroke:#A80036;stroke-width:1.0;"/><path d="M565.0318,359.1563 L565.0318,369.1563 L575.0318,369.1563 L565.0318,359.1563 " fill="#FBFB77" style="stroke:#A80036;stroke-width:1.0;"/><text fill="#000000" font-family="sans-serif" font-size="13" lengthAdjust="spacing" textLength="156.0002" x="404.0318" y="376.2231">&#12475;&#12483;&#12471;&#12519;&#12531;&#12395;&#12399;&#26684;&#32013;&#12375;&#12394;&#12356;</text><polygon fill="#A80036" points="44.9999,409.9219,34.9999,413.9219,44.9999,417.9219,40.9999,413.9219" style="stroke:#A80036;stroke-width:1.0;"/><line style="stroke:#A80036;stroke-width:1.0;stroke-dasharray:2.0,2.0;" x1="38.9999" x2="285.7187" y1="413.9219" y2="413.9219"/><text fill="#000000" font-family="sans-serif" font-size="13" lengthAdjust="spacing" textLength="52.0001" x="50.9999" y="408.856">&#30906;&#35469;&#30011;&#38754;</text><polygon fill="#A80036" points="269.7187,469.3203,279.7187,473.3203,269.7187,477.3203,273.7187,473.3203" style="stroke:#A80036;stroke-width:1.0;"/><line style="stroke:#A80036;stroke-width:1.0;" x1="33.9999" x2="275.7187" y1="473.3203" y2="473.3203"/><text fill="#000000" font-family="sans-serif" font-size="13" lengthAdjust="spacing" textLength="34.2646" x="40.9999" y="437.9888">POST</text><text fill="#000000" font-family="sans-serif" font-size="13" lengthAdjust="spacing" textLength="201.9761" x="40.9999" y="453.1216">/admin/product-delete/execute</text><text fill="#000000" font-family="sans-serif" font-size="13" lengthAdjust="spacing" textLength="62.3149" x="40.9999" y="468.2544">execute()</text><polygon fill="#A80036" points="446.7505,498.4531,456.7505,502.4531,446.7505,506.4531,450.7505,502.4531" style="stroke:#A80036;stroke-width:1.0;"/><line style="stroke:#A80036;stroke-width:1.0;" x1="291.7187" x2="452.7505" y1="502.4531" y2="502.4531"/><text fill="#000000" font-family="sans-serif" font-size="13" lengthAdjust="spacing" textLength="118.187" x="298.7187" y="497.3872">delete(Integer no)</text><polygon fill="#A80036" points="601.6436,530.5859,611.6436,534.5859,601.6436,538.5859,605.6436,534.5859" style="stroke:#A80036;stroke-width:1.0;"/><line style="stroke:#A80036;stroke-width:1.0;" x1="468.7505" x2="607.6436" y1="534.5859" y2="534.5859"/><text fill="#000000" font-family="sans-serif" font-size="13" lengthAdjust="spacing" textLength="118.187" x="475.7505" y="529.52">delete(Integer no)</text><path d="M628,515.4531 L628,540.4531 L766,540.4531 L766,525.4531 L756,515.4531 L628,515.4531 " fill="#FBFB77" style="stroke:#A80036;stroke-width:1.0;"/><path d="M756,515.4531 L756,525.4531 L766,525.4531 L756,515.4531 " fill="#FBFB77" style="stroke:#A80036;stroke-width:1.0;"/><text fill="#000000" font-family="sans-serif" font-size="13" lengthAdjust="spacing" textLength="117.0001" x="634" y="532.52">&#29289;&#29702;&#12391;&#12394;&#12367;&#35542;&#29702;&#21066;&#38500;</text><polygon fill="#A80036" points="701.0347,562.7188,711.0347,566.7188,701.0347,570.7188,705.0347,566.7188" style="stroke:#A80036;stroke-width:1.0;"/><line style="stroke:#A80036;stroke-width:1.0;" x1="623.6436" x2="707.0347" y1="566.7188" y2="566.7188"/><text fill="#000000" font-family="sans-serif" font-size="13" lengthAdjust="spacing" textLength="65.4126" x="630.6436" y="561.6528">UPDATE&#25991;</text><polygon fill="#A80036" points="634.6436,591.8516,624.6436,595.8516,634.6436,599.8516,630.6436,595.8516" style="stroke:#A80036;stroke-width:1.0;"/><line style="stroke:#A80036;stroke-width:1.0;stroke-dasharray:2.0,2.0;" x1="628.6436" x2="717.0347" y1="595.8516" y2="595.8516"/><text fill="#000000" font-family="sans-serif" font-size="13" lengthAdjust="spacing" textLength="27.5107" x="640.6436" y="590.7856">void</text><polygon fill="#A80036" points="479.7505,620.9844,469.7505,624.9844,479.7505,628.9844,475.7505,624.9844" style="stroke:#A80036;stroke-width:1.0;"/><line style="stroke:#A80036;stroke-width:1.0;stroke-dasharray:2.0,2.0;" x1="473.7505" x2="617.6436" y1="624.9844" y2="624.9844"/><text fill="#000000" font-family="sans-serif" font-size="13" lengthAdjust="spacing" textLength="27.5107" x="485.7505" y="619.9185">void</text><polygon fill="#A80036" points="302.7187,650.1172,292.7187,654.1172,302.7187,658.1172,298.7187,654.1172" style="stroke:#A80036;stroke-width:1.0;"/><line style="stroke:#A80036;stroke-width:1.0;stroke-dasharray:2.0,2.0;" x1="296.7187" x2="462.7505" y1="654.1172" y2="654.1172"/><text fill="#000000" font-family="sans-serif" font-size="13" lengthAdjust="spacing" textLength="27.5107" x="308.7187" y="649.0513">void</text><line style="stroke:#A80036;stroke-width:1.0;" x1="291.7187" x2="333.7187" y1="683.25" y2="683.25"/><line style="stroke:#A80036;stroke-width:1.0;" x1="333.7187" x2="333.7187" y1="683.25" y2="696.25"/><line style="stroke:#A80036;stroke-width:1.0;" x1="292.7187" x2="333.7187" y1="696.25" y2="696.25"/><polygon fill="#A80036" points="302.7187,692.25,292.7187,696.25,302.7187,700.25,298.7187,696.25" style="stroke:#A80036;stroke-width:1.0;"/><text fill="#000000" font-family="sans-serif" font-size="13" lengthAdjust="spacing" textLength="143.0319" x="298.7187" y="678.1841">Model&#12395;&#36861;&#21152;&#65288;&#21830;&#21697;&#21517;&#65289;</text><polygon fill="#A80036" points="44.9999,724.3828,34.9999,728.3828,44.9999,732.3828,40.9999,728.3828" style="stroke:#A80036;stroke-width:1.0;"/><line style="stroke:#A80036;stroke-width:1.0;stroke-dasharray:2.0,2.0;" x1="38.9999" x2="285.7187" y1="728.3828" y2="728.3828"/><text fill="#000000" font-family="sans-serif" font-size="13" lengthAdjust="spacing" textLength="78.0001" x="50.9999" y="723.3169">&#12522;&#12480;&#12452;&#12524;&#12463;&#12488;</text><path d="M296,709.25 L296,734.25 L512,734.25 L512,719.25 L502,709.25 L296,709.25 " fill="#FBFB77" style="stroke:#A80036;stroke-width:1.0;"/><path d="M502,709.25 L502,719.25 L512,719.25 L502,709.25 " fill="#FBFB77" style="stroke:#A80036;stroke-width:1.0;"/><text fill="#000000" font-family="sans-serif" font-size="13" lengthAdjust="spacing" textLength="195.946" x="302" y="726.3169">PRG&#12497;&#12479;&#12540;&#12531;&#12395;&#12424;&#12426;&#20108;&#37325;&#25237;&#31295;&#38450;&#27490;</text><polygon fill="#A80036" points="269.7187,786.7813,279.7187,790.7813,269.7187,794.7813,273.7187,790.7813" style="stroke:#A80036;stroke-width:1.0;"/><line style="stroke:#A80036;stroke-width:1.0;" x1="33.9999" x2="275.7187" y1="790.7813" y2="790.7813"/><text fill="#000000" font-family="sans-serif" font-size="13" lengthAdjust="spacing" textLength="26.2285" x="40.9999" y="755.4497">GET</text><text fill="#000000" font-family="sans-serif" font-size="13" lengthAdjust="spacing" textLength="206.1465" x="40.9999" y="770.5825">admin/product-delete/complete</text><text fill="#000000" font-family="sans-serif" font-size="13" lengthAdjust="spacing" textLength="70.8652" x="40.9999" y="785.7153">complete()</text><polygon fill="#A80036" points="44.9999,815.9141,34.9999,819.9141,44.9999,823.9141,40.9999,819.9141" style="stroke:#A80036;stroke-width:1.0;"/><line style="stroke:#A80036;stroke-width:1.0;stroke-dasharray:2.0,2.0;" x1="38.9999" x2="285.7187" y1="819.9141" y2="819.9141"/><text fill="#000000" font-family="sans-serif" font-size="13" lengthAdjust="spacing" textLength="52.0001" x="50.9999" y="814.8481">&#23436;&#20102;&#30011;&#38754;</text><!--SRC=[hLLTRn9157tVNp6F-42myOq74_b8GwAH5Fh6oxexq8amGtQdQ6DCt5r3WPHOesqrnjYGnbfG6wtHI6duCTDbuQb_mLb05d6NR4lVxdpSS-xUUywE-X1Xe10L2YgFYg8Y5e2w9iha4S8va1Np_8GYceTWDNfpwLOOc3jbyvLcLck3jmUzemzzummm_HSpEap_nemJflystvq8WYXHeW1cV1oU_BJNg2HIEBKbJ48Gl0sI2f7N9Hg3UKXXb62ga7mUAY0CbkFf30w9SW7XK75qAoWFhuMUZDS9-Ma6ImHdaL88JFPkEAmUw8BWHUjKb89A2KcG5v95M8vi9EHv3EFR4-2_sGxU2YmI5V7kRFY4T184GHQf-41K8OX59XHJW9mb5k6mgVZTU3JTszrqmEm4VXRqA6Iy9yZmdmmN2hVEk6Ix53_R4k-fkm3DDdREn5mqT8zmnJ2jrU-UcRLz0HCEhA3S6WrpzPuomnXg-D0MiDPYsd5llsFzg3DjZsbDfZsVmyff7Hs7WTLezvjrw_Nfu7t3vIl-5w1F4oJlfpnT01z3QPt231u7WUiM_eWdaC0KvlWLJ1RMlG_4QULCpykg7bdRPQOT3aVpej_QvSlH_sYE8rQJiJlf-6KSKI98lg8TPbCNye8ttdLQug9J6V_Pj-iNdQf_mJEZoOndJ3zWncUc7pEZuaVsqmDDhYmpuoNJkpRco81wXUcry_RMOBFUg-rOdxg3DzzxNngNUp9SlIAHGj4ExETY52tcbfbkc5-tpjjbt_R_0m00]--></g></svg>