<?xml version="1.0" encoding="us-ascii" standalone="no"?><svg xmlns="http://www.w3.org/2000/svg" xmlns:xlink="http://www.w3.org/1999/xlink" contentStyleType="text/css" height="1062px" preserveAspectRatio="none" style="width:904px;height:1062px;background:#FFFFFF;" version="1.1" viewBox="0 0 904 1062" width="904px" zoomAndPan="magnify"><defs/><g><text fill="#000000" font-family="sans-serif" font-size="14" font-weight="bold" lengthAdjust="spacing" textLength="247" x="322" y="27.9951">UC009: &#39015;&#23458;&#30331;&#37682;&#27231;&#33021; &#12471;&#12540;&#12465;&#12531;&#12473;&#22259;</text><rect fill="#FFFFFF" height="830.7188" style="stroke:#A80036;stroke-width:1.0;" width="10" x="24" y="131.5938"/><rect fill="#FFFFFF" height="87.3984" style="stroke:#A80036;stroke-width:1.0;" width="10" x="150.5" y="152.7266"/><rect fill="#FFFFFF" height="87.3984" style="stroke:#A80036;stroke-width:1.0;" width="10" x="150.5" y="311.3906"/><rect fill="#FFFFFF" height="349.7266" style="stroke:#A80036;stroke-width:1.0;" width="10" x="150.5" y="470.0547"/><rect fill="#FFFFFF" height="113.3984" style="stroke:#A80036;stroke-width:1.0;" width="10" x="150.5" y="848.9141"/><rect fill="#FFFFFF" height="29.1328" style="stroke:#A80036;stroke-width:1.0;" width="10" x="313.5" y="181.8594"/><rect fill="#FFFFFF" height="29.1328" style="stroke:#A80036;stroke-width:1.0;" width="10" x="313.5" y="340.5234"/><rect fill="#FFFFFF" height="29.1328" style="stroke:#A80036;stroke-width:1.0;" width="10" x="450" y="556.4531"/><rect fill="#FFFFFF" height="160.7969" style="stroke:#A80036;stroke-width:1.0;" width="10" x="594.5" y="629.8516"/><rect fill="#FFFFFF" height="87.3984" style="stroke:#A80036;stroke-width:1.0;" width="10" x="754.5" y="674.1172"/><rect fill="#FFFFFF" height="29.1328" style="stroke:#A80036;stroke-width:1.0;" width="10" x="864" y="703.25"/><line style="stroke:#A80036;stroke-width:1.0;stroke-dasharray:5.0,5.0;" x1="29" x2="29" y1="121.5938" y2="980.3125"/><line style="stroke:#A80036;stroke-width:1.0;stroke-dasharray:5.0,5.0;" x1="155" x2="155" y1="121.5938" y2="980.3125"/><line style="stroke:#A80036;stroke-width:1.0;stroke-dasharray:5.0,5.0;" x1="318" x2="318" y1="121.5938" y2="980.3125"/><line style="stroke:#A80036;stroke-width:1.0;stroke-dasharray:5.0,5.0;" x1="455" x2="455" y1="121.5938" y2="980.3125"/><line style="stroke:#A80036;stroke-width:1.0;stroke-dasharray:5.0,5.0;" x1="599" x2="599" y1="121.5938" y2="980.3125"/><line style="stroke:#A80036;stroke-width:1.0;stroke-dasharray:5.0,5.0;" x1="759" x2="759" y1="121.5938" y2="980.3125"/><line style="stroke:#A80036;stroke-width:1.0;stroke-dasharray:5.0,5.0;" x1="869" x2="869" y1="121.5938" y2="980.3125"/><text fill="#000000" font-family="sans-serif" font-size="14" lengthAdjust="spacing" textLength="42" x="5" y="118.292">&#12518;&#12540;&#12470;</text><ellipse cx="29" cy="52.2969" fill="#FEFECE" rx="8" ry="8" style="stroke:#A80036;stroke-width:2.0;"/><path d="M29,60.2969 L29,87.2969 M16,68.2969 L42,68.2969 M29,87.2969 L16,102.2969 M29,87.2969 L42,102.2969 " fill="none" style="stroke:#A80036;stroke-width:2.0;"/><text fill="#000000" font-family="sans-serif" font-size="14" lengthAdjust="spacing" textLength="42" x="5" y="992.3076">&#12518;&#12540;&#12470;</text><ellipse cx="29" cy="1005.6094" fill="#FEFECE" rx="8" ry="8" style="stroke:#A80036;stroke-width:2.0;"/><path d="M29,1013.6094 L29,1040.6094 M16,1021.6094 L42,1021.6094 M29,1040.6094 L16,1055.6094 M29,1040.6094 L42,1055.6094 " fill="none" style="stroke:#A80036;stroke-width:2.0;"/><rect fill="#FEFECE" height="30.2969" style="stroke:#A80036;stroke-width:1.5;" width="185" x="63" y="90.2969"/><text fill="#000000" font-family="sans-serif" font-size="14" lengthAdjust="spacing" textLength="171" x="70" y="110.292">CustomerAddController</text><rect fill="#FEFECE" height="30.2969" style="stroke:#A80036;stroke-width:1.5;" width="185" x="63" y="979.3125"/><text fill="#000000" font-family="sans-serif" font-size="14" lengthAdjust="spacing" textLength="171" x="70" y="999.3076">CustomerAddController</text><rect fill="#FEFECE" height="30.2969" style="stroke:#A80036;stroke-width:1.5;" width="121" x="258" y="90.2969"/><text fill="#000000" font-family="sans-serif" font-size="14" lengthAdjust="spacing" textLength="107" x="265" y="110.292">CustomerForm</text><rect fill="#FEFECE" height="30.2969" style="stroke:#A80036;stroke-width:1.5;" width="121" x="258" y="979.3125"/><text fill="#000000" font-family="sans-serif" font-size="14" lengthAdjust="spacing" textLength="107" x="265" y="999.3076">CustomerForm</text><rect fill="#FEFECE" height="30.2969" style="stroke:#A80036;stroke-width:1.5;" width="132" x="389" y="90.2969"/><text fill="#000000" font-family="sans-serif" font-size="14" lengthAdjust="spacing" textLength="118" x="396" y="110.292">CustomerHelper</text><rect fill="#FEFECE" height="30.2969" style="stroke:#A80036;stroke-width:1.5;" width="132" x="389" y="979.3125"/><text fill="#000000" font-family="sans-serif" font-size="14" lengthAdjust="spacing" textLength="118" x="396" y="999.3076">CustomerHelper</text><rect fill="#FEFECE" height="30.2969" style="stroke:#A80036;stroke-width:1.5;" width="137" x="531" y="90.2969"/><text fill="#000000" font-family="sans-serif" font-size="14" lengthAdjust="spacing" textLength="123" x="538" y="110.292">CustomerService</text><rect fill="#FEFECE" height="30.2969" style="stroke:#A80036;stroke-width:1.5;" width="137" x="531" y="979.3125"/><text fill="#000000" font-family="sans-serif" font-size="14" lengthAdjust="spacing" textLength="123" x="538" y="999.3076">CustomerService</text><rect fill="#FEFECE" height="30.2969" style="stroke:#A80036;stroke-width:1.5;" width="163" x="678" y="90.2969"/><text fill="#000000" font-family="sans-serif" font-size="14" lengthAdjust="spacing" textLength="149" x="685" y="110.292">CustomerRepository</text><rect fill="#FEFECE" height="30.2969" style="stroke:#A80036;stroke-width:1.5;" width="163" x="678" y="979.3125"/><text fill="#000000" font-family="sans-serif" font-size="14" lengthAdjust="spacing" textLength="149" x="685" y="999.3076">CustomerRepository</text><text fill="#000000" font-family="sans-serif" font-size="14" lengthAdjust="spacing" textLength="21" x="855.5" y="118.292">DB</text><path d="M851,69.2969 C851,59.2969 869,59.2969 869,59.2969 C869,59.2969 887,59.2969 887,69.2969 L887,95.2969 C887,105.2969 869,105.2969 869,105.2969 C869,105.2969 851,105.2969 851,95.2969 L851,69.2969 " fill="#FEFECE" style="stroke:#A80036;stroke-width:1.5;"/><path d="M851,69.2969 C851,79.2969 869,79.2969 869,79.2969 C869,79.2969 887,79.2969 887,69.2969 " fill="none" style="stroke:#A80036;stroke-width:1.5;"/><text fill="#000000" font-family="sans-serif" font-size="14" lengthAdjust="spacing" textLength="21" x="855.5" y="992.3076">DB</text><path d="M851,1005.6094 C851,995.6094 869,995.6094 869,995.6094 C869,995.6094 887,995.6094 887,1005.6094 L887,1031.6094 C887,1041.6094 869,1041.6094 869,1041.6094 C869,1041.6094 851,1041.6094 851,1031.6094 L851,1005.6094 " fill="#FEFECE" style="stroke:#A80036;stroke-width:1.5;"/><path d="M851,1005.6094 C851,1015.6094 869,1015.6094 869,1015.6094 C869,1015.6094 887,1015.6094 887,1005.6094 " fill="none" style="stroke:#A80036;stroke-width:1.5;"/><rect fill="#FFFFFF" height="830.7188" style="stroke:#A80036;stroke-width:1.0;" width="10" x="24" y="131.5938"/><rect fill="#FFFFFF" height="87.3984" style="stroke:#A80036;stroke-width:1.0;" width="10" x="150.5" y="152.7266"/><rect fill="#FFFFFF" height="87.3984" style="stroke:#A80036;stroke-width:1.0;" width="10" x="150.5" y="311.3906"/><rect fill="#FFFFFF" height="349.7266" style="stroke:#A80036;stroke-width:1.0;" width="10" x="150.5" y="470.0547"/><rect fill="#FFFFFF" height="113.3984" style="stroke:#A80036;stroke-width:1.0;" width="10" x="150.5" y="848.9141"/><rect fill="#FFFFFF" height="29.1328" style="stroke:#A80036;stroke-width:1.0;" width="10" x="313.5" y="181.8594"/><rect fill="#FFFFFF" height="29.1328" style="stroke:#A80036;stroke-width:1.0;" width="10" x="313.5" y="340.5234"/><rect fill="#FFFFFF" height="29.1328" style="stroke:#A80036;stroke-width:1.0;" width="10" x="450" y="556.4531"/><rect fill="#FFFFFF" height="160.7969" style="stroke:#A80036;stroke-width:1.0;" width="10" x="594.5" y="629.8516"/><rect fill="#FFFFFF" height="87.3984" style="stroke:#A80036;stroke-width:1.0;" width="10" x="754.5" y="674.1172"/><rect fill="#FFFFFF" height="29.1328" style="stroke:#A80036;stroke-width:1.0;" width="10" x="864" y="703.25"/><polygon fill="#A80036" points="138.5,148.7266,148.5,152.7266,138.5,156.7266,142.5,152.7266" style="stroke:#A80036;stroke-width:1.0;"/><line style="stroke:#A80036;stroke-width:1.0;" x1="34" x2="144.5" y1="152.7266" y2="152.7266"/><text fill="#000000" font-family="sans-serif" font-size="13" lengthAdjust="spacing" textLength="41" x="41" y="147.6606">form()</text><polygon fill="#A80036" points="301.5,177.8594,311.5,181.8594,301.5,185.8594,305.5,181.8594" style="stroke:#A80036;stroke-width:1.0;"/><line style="stroke:#A80036;stroke-width:1.0;" x1="160.5" x2="307.5" y1="181.8594" y2="181.8594"/><text fill="#000000" font-family="sans-serif" font-size="13" lengthAdjust="spacing" textLength="27" x="167.5" y="176.7935">new</text><polygon fill="#A80036" points="171.5,206.9922,161.5,210.9922,171.5,214.9922,167.5,210.9922" style="stroke:#A80036;stroke-width:1.0;"/><line style="stroke:#A80036;stroke-width:1.0;stroke-dasharray:2.0,2.0;" x1="165.5" x2="317.5" y1="210.9922" y2="210.9922"/><text fill="#000000" font-family="sans-serif" font-size="13" lengthAdjust="spacing" textLength="96" x="177.5" y="205.9263">CustomerForm</text><polygon fill="#A80036" points="45,236.125,35,240.125,45,244.125,41,240.125" style="stroke:#A80036;stroke-width:1.0;"/><line style="stroke:#A80036;stroke-width:1.0;" x1="39" x2="154.5" y1="240.125" y2="240.125"/><text fill="#000000" font-family="sans-serif" font-size="13" lengthAdjust="spacing" textLength="52" x="51" y="235.0591">&#20837;&#21147;&#30011;&#38754;</text><line style="stroke:#A80036;stroke-width:1.0;" x1="34" x2="76" y1="269.2578" y2="269.2578"/><line style="stroke:#A80036;stroke-width:1.0;" x1="76" x2="76" y1="269.2578" y2="282.2578"/><line style="stroke:#A80036;stroke-width:1.0;" x1="35" x2="76" y1="282.2578" y2="282.2578"/><polygon fill="#A80036" points="45,278.2578,35,282.2578,45,286.2578,41,282.2578" style="stroke:#A80036;stroke-width:1.0;"/><text fill="#000000" font-family="sans-serif" font-size="13" lengthAdjust="spacing" textLength="78" x="41" y="264.1919">&#39015;&#23458;&#24773;&#22577;&#20837;&#21147;</text><polygon fill="#A80036" points="138.5,307.3906,148.5,311.3906,138.5,315.3906,142.5,311.3906" style="stroke:#A80036;stroke-width:1.0;"/><line style="stroke:#A80036;stroke-width:1.0;" x1="34" x2="144.5" y1="311.3906" y2="311.3906"/><text fill="#000000" font-family="sans-serif" font-size="13" lengthAdjust="spacing" textLength="59" x="41" y="306.3247">confirm()</text><polygon fill="#A80036" points="301.5,336.5234,311.5,340.5234,301.5,344.5234,305.5,340.5234" style="stroke:#A80036;stroke-width:1.0;"/><line style="stroke:#A80036;stroke-width:1.0;" x1="160.5" x2="307.5" y1="340.5234" y2="340.5234"/><text fill="#000000" font-family="sans-serif" font-size="13" lengthAdjust="spacing" textLength="65" x="167.5" y="335.4575">&#12496;&#12522;&#12487;&#12540;&#12488;</text><polygon fill="#A80036" points="171.5,365.6563,161.5,369.6563,171.5,373.6563,167.5,369.6563" style="stroke:#A80036;stroke-width:1.0;"/><line style="stroke:#A80036;stroke-width:1.0;stroke-dasharray:2.0,2.0;" x1="165.5" x2="317.5" y1="369.6563" y2="369.6563"/><text fill="#000000" font-family="sans-serif" font-size="13" lengthAdjust="spacing" textLength="86" x="177.5" y="364.5903">BindingResult</text><polygon fill="#A80036" points="45,394.7891,35,398.7891,45,402.7891,41,398.7891" style="stroke:#A80036;stroke-width:1.0;"/><line style="stroke:#A80036;stroke-width:1.0;stroke-dasharray:2.0,2.0;" x1="39" x2="154.5" y1="398.7891" y2="398.7891"/><text fill="#000000" font-family="sans-serif" font-size="13" lengthAdjust="spacing" textLength="52" x="51" y="393.7231">&#30906;&#35469;&#30011;&#38754;</text><line style="stroke:#A80036;stroke-width:1.0;" x1="34" x2="76" y1="427.9219" y2="427.9219"/><line style="stroke:#A80036;stroke-width:1.0;" x1="76" x2="76" y1="427.9219" y2="440.9219"/><line style="stroke:#A80036;stroke-width:1.0;" x1="35" x2="76" y1="440.9219" y2="440.9219"/><polygon fill="#A80036" points="45,436.9219,35,440.9219,45,444.9219,41,440.9219" style="stroke:#A80036;stroke-width:1.0;"/><text fill="#000000" font-family="sans-serif" font-size="13" lengthAdjust="spacing" textLength="78" x="41" y="422.856">&#20837;&#21147;&#20869;&#23481;&#30906;&#35469;</text><polygon fill="#A80036" points="138.5,466.0547,148.5,470.0547,138.5,474.0547,142.5,470.0547" style="stroke:#A80036;stroke-width:1.0;"/><line style="stroke:#A80036;stroke-width:1.0;" x1="34" x2="144.5" y1="470.0547" y2="470.0547"/><text fill="#000000" font-family="sans-serif" font-size="13" lengthAdjust="spacing" textLength="62" x="41" y="464.9888">execute()</text><line style="stroke:#A80036;stroke-width:1.0;" x1="160.5" x2="202.5" y1="499.1875" y2="499.1875"/><line style="stroke:#A80036;stroke-width:1.0;" x1="202.5" x2="202.5" y1="499.1875" y2="512.1875"/><line style="stroke:#A80036;stroke-width:1.0;" x1="161.5" x2="202.5" y1="512.1875" y2="512.1875"/><polygon fill="#A80036" points="171.5,508.1875,161.5,512.1875,171.5,516.1875,167.5,512.1875" style="stroke:#A80036;stroke-width:1.0;"/><text fill="#000000" font-family="sans-serif" font-size="13" lengthAdjust="spacing" textLength="91" x="167.5" y="494.1216">&#12475;&#12483;&#12471;&#12519;&#12531;&#30906;&#35469;</text><polygon fill="#A80036" points="438,552.4531,448,556.4531,438,560.4531,442,556.4531" style="stroke:#A80036;stroke-width:1.0;"/><line style="stroke:#A80036;stroke-width:1.0;" x1="160.5" x2="444" y1="556.4531" y2="556.4531"/><text fill="#000000" font-family="sans-serif" font-size="13" lengthAdjust="spacing" textLength="78" x="167.5" y="536.2544">&#12501;&#12457;&#12540;&#12512;&#12363;&#12425;</text><text fill="#000000" font-family="sans-serif" font-size="13" lengthAdjust="spacing" textLength="117" x="167.5" y="551.3872">&#12456;&#12531;&#12486;&#12451;&#12486;&#12451;&#12395;&#22793;&#25563;</text><polygon fill="#A80036" points="171.5,581.5859,161.5,585.5859,171.5,589.5859,167.5,585.5859" style="stroke:#A80036;stroke-width:1.0;"/><line style="stroke:#A80036;stroke-width:1.0;stroke-dasharray:2.0,2.0;" x1="165.5" x2="454" y1="585.5859" y2="585.5859"/><text fill="#000000" font-family="sans-serif" font-size="13" lengthAdjust="spacing" textLength="63" x="177.5" y="580.52">Customer</text><polygon fill="#A80036" points="582.5,625.8516,592.5,629.8516,582.5,633.8516,586.5,629.8516" style="stroke:#A80036;stroke-width:1.0;"/><line style="stroke:#A80036;stroke-width:1.0;" x1="160.5" x2="588.5" y1="629.8516" y2="629.8516"/><text fill="#000000" font-family="sans-serif" font-size="13" lengthAdjust="spacing" textLength="36" x="167.5" y="609.6528">insert</text><text fill="#000000" font-family="sans-serif" font-size="13" lengthAdjust="spacing" textLength="73" x="167.5" y="624.7856">(Customer)</text><polygon fill="#A80036" points="742.5,670.1172,752.5,674.1172,742.5,678.1172,746.5,674.1172" style="stroke:#A80036;stroke-width:1.0;"/><line style="stroke:#A80036;stroke-width:1.0;" x1="604.5" x2="748.5" y1="674.1172" y2="674.1172"/><text fill="#000000" font-family="sans-serif" font-size="13" lengthAdjust="spacing" textLength="36" x="611.5" y="653.9185">insert</text><text fill="#000000" font-family="sans-serif" font-size="13" lengthAdjust="spacing" textLength="73" x="611.5" y="669.0513">(Customer)</text><polygon fill="#A80036" points="852,699.25,862,703.25,852,707.25,856,703.25" style="stroke:#A80036;stroke-width:1.0;"/><line style="stroke:#A80036;stroke-width:1.0;" x1="764.5" x2="858" y1="703.25" y2="703.25"/><text fill="#000000" font-family="sans-serif" font-size="13" lengthAdjust="spacing" textLength="58" x="771.5" y="698.1841">INSERT&#25991;</text><polygon fill="#A80036" points="775.5,728.3828,765.5,732.3828,775.5,736.3828,771.5,732.3828" style="stroke:#A80036;stroke-width:1.0;"/><line style="stroke:#A80036;stroke-width:1.0;stroke-dasharray:2.0,2.0;" x1="769.5" x2="868" y1="732.3828" y2="732.3828"/><text fill="#000000" font-family="sans-serif" font-size="13" lengthAdjust="spacing" textLength="27" x="781.5" y="727.3169">void</text><polygon fill="#A80036" points="615.5,757.5156,605.5,761.5156,615.5,765.5156,611.5,761.5156" style="stroke:#A80036;stroke-width:1.0;"/><line style="stroke:#A80036;stroke-width:1.0;stroke-dasharray:2.0,2.0;" x1="609.5" x2="758.5" y1="761.5156" y2="761.5156"/><text fill="#000000" font-family="sans-serif" font-size="13" lengthAdjust="spacing" textLength="27" x="621.5" y="756.4497">void</text><polygon fill="#A80036" points="171.5,786.6484,161.5,790.6484,171.5,794.6484,167.5,790.6484" style="stroke:#A80036;stroke-width:1.0;"/><line style="stroke:#A80036;stroke-width:1.0;" x1="165.5" x2="598.5" y1="790.6484" y2="790.6484"/><text fill="#000000" font-family="sans-serif" font-size="13" lengthAdjust="spacing" textLength="27" x="177.5" y="785.5825">void</text><polygon fill="#A80036" points="45,815.7813,35,819.7813,45,823.7813,41,819.7813" style="stroke:#A80036;stroke-width:1.0;"/><line style="stroke:#A80036;stroke-width:1.0;stroke-dasharray:2.0,2.0;" x1="39" x2="154.5" y1="819.7813" y2="819.7813"/><text fill="#000000" font-family="sans-serif" font-size="13" lengthAdjust="spacing" textLength="78" x="51" y="814.7153">&#12522;&#12480;&#12452;&#12524;&#12463;&#12488;</text><polygon fill="#A80036" points="138.5,844.9141,148.5,848.9141,138.5,852.9141,142.5,848.9141" style="stroke:#A80036;stroke-width:1.0;"/><line style="stroke:#A80036;stroke-width:1.0;" x1="34" x2="144.5" y1="848.9141" y2="848.9141"/><text fill="#000000" font-family="sans-serif" font-size="13" lengthAdjust="spacing" textLength="70" x="41" y="843.8481">complete()</text><line style="stroke:#A80036;stroke-width:1.0;" x1="160.5" x2="202.5" y1="878.0469" y2="878.0469"/><line style="stroke:#A80036;stroke-width:1.0;" x1="202.5" x2="202.5" y1="878.0469" y2="891.0469"/><line style="stroke:#A80036;stroke-width:1.0;" x1="161.5" x2="202.5" y1="891.0469" y2="891.0469"/><polygon fill="#A80036" points="171.5,887.0469,161.5,891.0469,171.5,895.0469,167.5,891.0469" style="stroke:#A80036;stroke-width:1.0;"/><text fill="#000000" font-family="sans-serif" font-size="13" lengthAdjust="spacing" textLength="91" x="167.5" y="872.981">&#12475;&#12483;&#12471;&#12519;&#12531;&#30772;&#26820;</text><line style="stroke:#A80036;stroke-width:1.0;" x1="160.5" x2="202.5" y1="920.1797" y2="920.1797"/><line style="stroke:#A80036;stroke-width:1.0;" x1="202.5" x2="202.5" y1="920.1797" y2="933.1797"/><line style="stroke:#A80036;stroke-width:1.0;" x1="161.5" x2="202.5" y1="933.1797" y2="933.1797"/><polygon fill="#A80036" points="171.5,929.1797,161.5,933.1797,171.5,937.1797,167.5,933.1797" style="stroke:#A80036;stroke-width:1.0;"/><text fill="#000000" font-family="sans-serif" font-size="13" lengthAdjust="spacing" textLength="63" x="167.5" y="915.1138">Model&#36861;&#21152;</text><polygon fill="#A80036" points="40,958.3125,30,962.3125,40,966.3125,36,962.3125" style="stroke:#A80036;stroke-width:1.0;"/><line style="stroke:#A80036;stroke-width:1.0;" x1="34" x2="154.5" y1="962.3125" y2="962.3125"/><text fill="#000000" font-family="sans-serif" font-size="13" lengthAdjust="spacing" textLength="52" x="46" y="957.2466">&#23436;&#20102;&#30011;&#38754;</text><!--SRC=[bLJBRjD05DtxAqRTj5KLgUgE2Y7H0885B5BOPUFOasQ4OqVs98KTcI4fRODW0KWeGeIqK19GK0a29Q7gnmpEuo-OXmEsYIkniUVEEVVEFNUExTr7Dd0T3seUNvLqLoy2hw2RpYwoTq1UjpY24ROWk9TUNx-q2MRlJlnUU_9wD6jy7NVUJkaPOEG7epyPEMMqpyZ0R_OrJJUmum96FqZaEz0zKFQWA_PHHSTGHVmyZ0nKqcqCbj9b3pj5w5urpRHZOzUnBEWkYKpZJxWuuuRZ5YKnpnUBAJUXLGgg5UHoCMqRkXLaGCdpAiR6ObO6bXmFSO4F9T7buOPcwbZFwHu4rxR4ffdJj6NWrzxx1yt9Yz7iJLiJaa7gIaWEM5i3cxBhbLKjjCr9ObF1DjmDOvTJAGNozoO8Zo1MGHqdI94kU5UJzd3QVHhhIhxdzpkcDRzrgl8I- -Pn7btOEgFF6UqokYTSG9yaozX2jiaDbu5UsSAHSX4XaSR5U7kDNyFwOY6gURzUyti3bPSe13w0HXd3VuI48gw5Z1YbqkidtEX1oMLWEzpDBjefOA7t9ICTAROLg2RdhDh8sfFEa5MxZEoB0cJ0Q5rGo4T61JrshdBeV8IXajL3NY5hoxo-g46EWcVrat-yFtxMZ8yuA1NnIkmquNDr5hBvW73MNfapLpK9SfBqU29BePncvXJdrftjwvcxurTx0IHQuPXie-8WKzKLkq5g58ZE_YyeBr1anL7fiaUC73FwcP4lmcl9hYsMBFY_jztwDZvwV572RSU4rlJyp3ze9N-7ORkQCF8l_0q0]--></g></svg>