<svg xmlns="http://www.w3.org/2000/svg" xmlns:xlink="http://www.w3.org/1999/xlink" contentStyleType="text/css" height="1062px" preserveAspectRatio="none" style="width:881px;height:1062px;background:#FFFFFF;" version="1.1" viewBox="0 0 881 1062" width="881px" zoomAndPan="magnify"><defs/><g><text fill="#000000" font-family="sans-serif" font-size="14" font-weight="bold" lengthAdjust="spacing" textLength="234.2122" x="317.221" y="27.9951">UC009: &#39015;&#23458;&#30331;&#37682;&#27231;&#33021; &#12471;&#12540;&#12465;&#12531;&#12473;&#22259;</text><rect fill="#FFFFFF" height="830.7188" style="stroke:#A80036;stroke-width:1.0;" width="10" x="23.9999" y="131.5938"/><rect fill="#FFFFFF" height="87.3984" style="stroke:#A80036;stroke-width:1.0;" width="10" x="147.2635" y="152.7266"/><rect fill="#FFFFFF" height="87.3984" style="stroke:#A80036;stroke-width:1.0;" width="10" x="147.2635" y="311.3906"/><rect fill="#FFFFFF" height="349.7266" style="stroke:#A80036;stroke-width:1.0;" width="10" x="147.2635" y="470.0547"/><rect fill="#FFFFFF" height="113.3984" style="stroke:#A80036;stroke-width:1.0;" width="10" x="147.2635" y="848.9141"/><rect fill="#FFFFFF" height="29.1328" style="stroke:#A80036;stroke-width:1.0;" width="10" x="305.535" y="181.8594"/><rect fill="#FFFFFF" height="29.1328" style="stroke:#A80036;stroke-width:1.0;" width="10" x="305.535" y="340.5234"/><rect fill="#FFFFFF" height="29.1328" style="stroke:#A80036;stroke-width:1.0;" width="10" x="438.6878" y="556.4531"/><rect fill="#FFFFFF" height="160.7969" style="stroke:#A80036;stroke-width:1.0;" width="10" x="579.7054" y="629.8516"/><rect fill="#FFFFFF" height="87.3984" style="stroke:#A80036;stroke-width:1.0;" width="10" x="735.116" y="674.1172"/><rect fill="#FFFFFF" height="29.1328" style="stroke:#A80036;stroke-width:1.0;" width="10" x="841.6541" y="703.25"/><line style="stroke:#A80036;stroke-width:1.0;stroke-dasharray:5.0,5.0;" x1="28" x2="28" y1="121.5938" y2="980.3125"/><line style="stroke:#A80036;stroke-width:1.0;stroke-dasharray:5.0,5.0;" x1="151.9998" x2="151.9998" y1="121.5938" y2="980.3125"/><line style="stroke:#A80036;stroke-width:1.0;stroke-dasharray:5.0,5.0;" x1="310.5272" x2="310.5272" y1="121.5938" y2="980.3125"/><line style="stroke:#A80036;stroke-width:1.0;stroke-dasharray:5.0,5.0;" x1="443.5428" x2="443.5428" y1="121.5938" y2="980.3125"/><line style="stroke:#A80036;stroke-width:1.0;stroke-dasharray:5.0,5.0;" x1="583.8328" x2="583.8328" y1="121.5938" y2="980.3125"/><line style="stroke:#A80036;stroke-width:1.0;stroke-dasharray:5.0,5.0;" x1="739.5779" x2="739.5779" y1="121.5938" y2="980.3125"/><line style="stroke:#A80036;stroke-width:1.0;stroke-dasharray:5.0,5.0;" x1="846.6541" x2="846.6541" y1="121.5938" y2="980.3125"/><text fill="#000000" font-family="sans-serif" font-size="14" lengthAdjust="spacing" textLength="41.9998" x="5" y="118.292">&#12518;&#12540;&#12470;</text><ellipse cx="28.9999" cy="52.2969" fill="#FEFECE" rx="8" ry="8" style="stroke:#A80036;stroke-width:2.0;"/><path d="M28.9999,60.2969 L28.9999,87.2969 M15.9999,68.2969 L41.9999,68.2969 M28.9999,87.2969 L15.9999,102.2969 M28.9999,87.2969 L41.9999,102.2969 " fill="none" style="stroke:#A80036;stroke-width:2.0;"/><text fill="#000000" font-family="sans-serif" font-size="14" lengthAdjust="spacing" textLength="41.9998" x="5" y="992.3076">&#12518;&#12540;&#12470;</text><ellipse cx="28.9999" cy="1005.6094" fill="#FEFECE" rx="8" ry="8" style="stroke:#A80036;stroke-width:2.0;"/><path d="M28.9999,1013.6094 L28.9999,1040.6094 M15.9999,1021.6094 L41.9999,1021.6094 M28.9999,1040.6094 L15.9999,1055.6094 M28.9999,1040.6094 L41.9999,1055.6094 " fill="none" style="stroke:#A80036;stroke-width:2.0;"/><rect fill="#FEFECE" height="30.2969" style="stroke:#A80036;stroke-width:1.5;" width="178.5273" x="62.9998" y="90.2969"/><text fill="#000000" font-family="sans-serif" font-size="14" lengthAdjust="spacing" textLength="164.5273" x="69.9998" y="110.292">CustomerAddController</text><rect fill="#FEFECE" height="30.2969" style="stroke:#A80036;stroke-width:1.5;" width="178.5273" x="62.9998" y="979.3125"/><text fill="#000000" font-family="sans-serif" font-size="14" lengthAdjust="spacing" textLength="164.5273" x="69.9998" y="999.3076">CustomerAddController</text><rect fill="#FEFECE" height="30.2969" style="stroke:#A80036;stroke-width:1.5;" width="118.0156" x="251.5272" y="90.2969"/><text fill="#000000" font-family="sans-serif" font-size="14" lengthAdjust="spacing" textLength="104.0156" x="258.5272" y="110.292">CustomerForm</text><rect fill="#FEFECE" height="30.2969" style="stroke:#A80036;stroke-width:1.5;" width="118.0156" x="251.5272" y="979.3125"/><text fill="#000000" font-family="sans-serif" font-size="14" lengthAdjust="spacing" textLength="104.0156" x="258.5272" y="999.3076">CustomerForm</text><rect fill="#FEFECE" height="30.2969" style="stroke:#A80036;stroke-width:1.5;" width="128.29" x="379.5428" y="90.2969"/><text fill="#000000" font-family="sans-serif" font-size="14" lengthAdjust="spacing" textLength="114.29" x="386.5428" y="110.292">CustomerHelper</text><rect fill="#FEFECE" height="30.2969" style="stroke:#A80036;stroke-width:1.5;" width="128.29" x="379.5428" y="979.3125"/><text fill="#000000" font-family="sans-serif" font-size="14" lengthAdjust="spacing" textLength="114.29" x="386.5428" y="999.3076">CustomerHelper</text><rect fill="#FEFECE" height="30.2969" style="stroke:#A80036;stroke-width:1.5;" width="133.7451" x="517.8328" y="90.2969"/><text fill="#000000" font-family="sans-serif" font-size="14" lengthAdjust="spacing" textLength="119.7451" x="524.8328" y="110.292">CustomerService</text><rect fill="#FEFECE" height="30.2969" style="stroke:#A80036;stroke-width:1.5;" width="133.7451" x="517.8328" y="979.3125"/><text fill="#000000" font-family="sans-serif" font-size="14" lengthAdjust="spacing" textLength="119.7451" x="524.8328" y="999.3076">CustomerService</text><rect fill="#FEFECE" height="30.2969" style="stroke:#A80036;stroke-width:1.5;" width="157.0762" x="661.5779" y="90.2969"/><text fill="#000000" font-family="sans-serif" font-size="14" lengthAdjust="spacing" textLength="143.0762" x="668.5779" y="110.292">CustomerRepository</text><rect fill="#FEFECE" height="30.2969" style="stroke:#A80036;stroke-width:1.5;" width="157.0762" x="661.5779" y="979.3125"/><text fill="#000000" font-family="sans-serif" font-size="14" lengthAdjust="spacing" textLength="143.0762" x="668.5779" y="999.3076">CustomerRepository</text><text fill="#000000" font-family="sans-serif" font-size="14" lengthAdjust="spacing" textLength="20.3848" x="833.4617" y="118.292">DB</text><path d="M828.6541,69.2969 C828.6541,59.2969 846.6541,59.2969 846.6541,59.2969 C846.6541,59.2969 864.6541,59.2969 864.6541,69.2969 L864.6541,95.2969 C864.6541,105.2969 846.6541,105.2969 846.6541,105.2969 C846.6541,105.2969 828.6541,105.2969 828.6541,95.2969 L828.6541,69.2969 " fill="#FEFECE" style="stroke:#A80036;stroke-width:1.5;"/><path d="M828.6541,69.2969 C828.6541,79.2969 846.6541,79.2969 846.6541,79.2969 C846.6541,79.2969 864.6541,79.2969 864.6541,69.2969 " fill="none" style="stroke:#A80036;stroke-width:1.5;"/><text fill="#000000" font-family="sans-serif" font-size="14" lengthAdjust="spacing" textLength="20.3848" x="833.4617" y="992.3076">DB</text><path d="M828.6541,1005.6094 C828.6541,995.6094 846.6541,995.6094 846.6541,995.6094 C846.6541,995.6094 864.6541,995.6094 864.6541,1005.6094 L864.6541,1031.6094 C864.6541,1041.6094 846.6541,1041.6094 846.6541,1041.6094 C846.6541,1041.6094 828.6541,1041.6094 828.6541,1031.6094 L828.6541,1005.6094 " fill="#FEFECE" style="stroke:#A80036;stroke-width:1.5;"/><path d="M828.6541,1005.6094 C828.6541,1015.6094 846.6541,1015.6094 846.6541,1015.6094 C846.6541,1015.6094 864.6541,1015.6094 864.6541,1005.6094 " fill="none" style="stroke:#A80036;stroke-width:1.5;"/><rect fill="#FFFFFF" height="830.7188" style="stroke:#A80036;stroke-width:1.0;" width="10" x="23.9999" y="131.5938"/><rect fill="#FFFFFF" height="87.3984" style="stroke:#A80036;stroke-width:1.0;" width="10" x="147.2635" y="152.7266"/><rect fill="#FFFFFF" height="87.3984" style="stroke:#A80036;stroke-width:1.0;" width="10" x="147.2635" y="311.3906"/><rect fill="#FFFFFF" height="349.7266" style="stroke:#A80036;stroke-width:1.0;" width="10" x="147.2635" y="470.0547"/><rect fill="#FFFFFF" height="113.3984" style="stroke:#A80036;stroke-width:1.0;" width="10" x="147.2635" y="848.9141"/><rect fill="#FFFFFF" height="29.1328" style="stroke:#A80036;stroke-width:1.0;" width="10" x="305.535" y="181.8594"/><rect fill="#FFFFFF" height="29.1328" style="stroke:#A80036;stroke-width:1.0;" width="10" x="305.535" y="340.5234"/><rect fill="#FFFFFF" height="29.1328" style="stroke:#A80036;stroke-width:1.0;" width="10" x="438.6878" y="556.4531"/><rect fill="#FFFFFF" height="160.7969" style="stroke:#A80036;stroke-width:1.0;" width="10" x="579.7054" y="629.8516"/><rect fill="#FFFFFF" height="87.3984" style="stroke:#A80036;stroke-width:1.0;" width="10" x="735.116" y="674.1172"/><rect fill="#FFFFFF" height="29.1328" style="stroke:#A80036;stroke-width:1.0;" width="10" x="841.6541" y="703.25"/><polygon fill="#A80036" points="135.2635,148.7266,145.2635,152.7266,135.2635,156.7266,139.2635,152.7266" style="stroke:#A80036;stroke-width:1.0;"/><line style="stroke:#A80036;stroke-width:1.0;" x1="33.9999" x2="141.2635" y1="152.7266" y2="152.7266"/><text fill="#000000" font-family="sans-serif" font-size="13" lengthAdjust="spacing" textLength="40.6821" x="40.9999" y="147.6606">form()</text><polygon fill="#A80036" points="293.535,177.8594,303.535,181.8594,293.535,185.8594,297.535,181.8594" style="stroke:#A80036;stroke-width:1.0;"/><line style="stroke:#A80036;stroke-width:1.0;" x1="157.2635" x2="299.535" y1="181.8594" y2="181.8594"/><text fill="#000000" font-family="sans-serif" font-size="13" lengthAdjust="spacing" textLength="26.8696" x="164.2635" y="176.7935">new</text><polygon fill="#A80036" points="168.2635,206.9922,158.2635,210.9922,168.2635,214.9922,164.2635,210.9922" style="stroke:#A80036;stroke-width:1.0;"/><line style="stroke:#A80036;stroke-width:1.0;stroke-dasharray:2.0,2.0;" x1="162.2635" x2="309.535" y1="210.9922" y2="210.9922"/><text fill="#000000" font-family="sans-serif" font-size="13" lengthAdjust="spacing" textLength="96.5859" x="174.2635" y="205.9263">CustomerForm</text><polygon fill="#A80036" points="44.9999,236.125,34.9999,240.125,44.9999,244.125,40.9999,240.125" style="stroke:#A80036;stroke-width:1.0;"/><line style="stroke:#A80036;stroke-width:1.0;" x1="38.9999" x2="151.2635" y1="240.125" y2="240.125"/><text fill="#000000" font-family="sans-serif" font-size="13" lengthAdjust="spacing" textLength="52.0001" x="50.9999" y="235.0591">&#20837;&#21147;&#30011;&#38754;</text><line style="stroke:#A80036;stroke-width:1.0;" x1="33.9999" x2="75.9999" y1="269.2578" y2="269.2578"/><line style="stroke:#A80036;stroke-width:1.0;" x1="75.9999" x2="75.9999" y1="269.2578" y2="282.2578"/><line style="stroke:#A80036;stroke-width:1.0;" x1="34.9999" x2="75.9999" y1="282.2578" y2="282.2578"/><polygon fill="#A80036" points="44.9999,278.2578,34.9999,282.2578,44.9999,286.2578,40.9999,282.2578" style="stroke:#A80036;stroke-width:1.0;"/><text fill="#000000" font-family="sans-serif" font-size="13" lengthAdjust="spacing" textLength="78.0001" x="40.9999" y="264.1919">&#39015;&#23458;&#24773;&#22577;&#20837;&#21147;</text><polygon fill="#A80036" points="135.2635,307.3906,145.2635,311.3906,135.2635,315.3906,139.2635,311.3906" style="stroke:#A80036;stroke-width:1.0;"/><line style="stroke:#A80036;stroke-width:1.0;" x1="33.9999" x2="141.2635" y1="311.3906" y2="311.3906"/><text fill="#000000" font-family="sans-serif" font-size="13" lengthAdjust="spacing" textLength="59.6807" x="40.9999" y="306.3247">confirm()</text><polygon fill="#A80036" points="293.535,336.5234,303.535,340.5234,293.535,344.5234,297.535,340.5234" style="stroke:#A80036;stroke-width:1.0;"/><line style="stroke:#A80036;stroke-width:1.0;" x1="157.2635" x2="299.535" y1="340.5234" y2="340.5234"/><text fill="#000000" font-family="sans-serif" font-size="13" lengthAdjust="spacing" textLength="65.0001" x="164.2635" y="335.4575">&#12496;&#12522;&#12487;&#12540;&#12488;</text><polygon fill="#A80036" points="168.2635,365.6563,158.2635,369.6563,168.2635,373.6563,164.2635,369.6563" style="stroke:#A80036;stroke-width:1.0;"/><line style="stroke:#A80036;stroke-width:1.0;stroke-dasharray:2.0,2.0;" x1="162.2635" x2="309.535" y1="369.6563" y2="369.6563"/><text fill="#000000" font-family="sans-serif" font-size="13" lengthAdjust="spacing" textLength="89.8765" x="174.2635" y="364.5903">BindingResult</text><polygon fill="#A80036" points="44.9999,394.7891,34.9999,398.7891,44.9999,402.7891,40.9999,398.7891" style="stroke:#A80036;stroke-width:1.0;"/><line style="stroke:#A80036;stroke-width:1.0;stroke-dasharray:2.0,2.0;" x1="38.9999" x2="151.2635" y1="398.7891" y2="398.7891"/><text fill="#000000" font-family="sans-serif" font-size="13" lengthAdjust="spacing" textLength="52.0001" x="50.9999" y="393.7231">&#30906;&#35469;&#30011;&#38754;</text><line style="stroke:#A80036;stroke-width:1.0;" x1="33.9999" x2="75.9999" y1="427.9219" y2="427.9219"/><line style="stroke:#A80036;stroke-width:1.0;" x1="75.9999" x2="75.9999" y1="427.9219" y2="440.9219"/><line style="stroke:#A80036;stroke-width:1.0;" x1="34.9999" x2="75.9999" y1="440.9219" y2="440.9219"/><polygon fill="#A80036" points="44.9999,436.9219,34.9999,440.9219,44.9999,444.9219,40.9999,440.9219" style="stroke:#A80036;stroke-width:1.0;"/><text fill="#000000" font-family="sans-serif" font-size="13" lengthAdjust="spacing" textLength="78.0001" x="40.9999" y="422.856">&#20837;&#21147;&#20869;&#23481;&#30906;&#35469;</text><polygon fill="#A80036" points="135.2635,466.0547,145.2635,470.0547,135.2635,474.0547,139.2635,470.0547" style="stroke:#A80036;stroke-width:1.0;"/><line style="stroke:#A80036;stroke-width:1.0;" x1="33.9999" x2="141.2635" y1="470.0547" y2="470.0547"/><text fill="#000000" font-family="sans-serif" font-size="13" lengthAdjust="spacing" textLength="62.3149" x="40.9999" y="464.9888">execute()</text><line style="stroke:#A80036;stroke-width:1.0;" x1="157.2635" x2="199.2635" y1="499.1875" y2="499.1875"/><line style="stroke:#A80036;stroke-width:1.0;" x1="199.2635" x2="199.2635" y1="499.1875" y2="512.1875"/><line style="stroke:#A80036;stroke-width:1.0;" x1="158.2635" x2="199.2635" y1="512.1875" y2="512.1875"/><polygon fill="#A80036" points="168.2635,508.1875,158.2635,512.1875,168.2635,516.1875,164.2635,512.1875" style="stroke:#A80036;stroke-width:1.0;"/><text fill="#000000" font-family="sans-serif" font-size="13" lengthAdjust="spacing" textLength="91.0001" x="164.2635" y="494.1216">&#12475;&#12483;&#12471;&#12519;&#12531;&#30906;&#35469;</text><polygon fill="#A80036" points="426.6878,552.4531,436.6878,556.4531,426.6878,560.4531,430.6878,556.4531" style="stroke:#A80036;stroke-width:1.0;"/><line style="stroke:#A80036;stroke-width:1.0;" x1="157.2635" x2="432.6878" y1="556.4531" y2="556.4531"/><text fill="#000000" font-family="sans-serif" font-size="13" lengthAdjust="spacing" textLength="78.0001" x="164.2635" y="536.2544">&#12501;&#12457;&#12540;&#12512;&#12363;&#12425;</text><text fill="#000000" font-family="sans-serif" font-size="13" lengthAdjust="spacing" textLength="117.0001" x="164.2635" y="551.3872">&#12456;&#12531;&#12486;&#12451;&#12486;&#12451;&#12395;&#22793;&#25563;</text><polygon fill="#A80036" points="168.2635,581.5859,158.2635,585.5859,168.2635,589.5859,164.2635,585.5859" style="stroke:#A80036;stroke-width:1.0;"/><line style="stroke:#A80036;stroke-width:1.0;stroke-dasharray:2.0,2.0;" x1="162.2635" x2="442.6878" y1="585.5859" y2="585.5859"/><text fill="#000000" font-family="sans-serif" font-size="13" lengthAdjust="spacing" textLength="63.1465" x="174.2635" y="580.52">Customer</text><polygon fill="#A80036" points="567.7054,625.8516,577.7054,629.8516,567.7054,633.8516,571.7054,629.8516" style="stroke:#A80036;stroke-width:1.0;"/><line style="stroke:#A80036;stroke-width:1.0;" x1="157.2635" x2="573.7054" y1="629.8516" y2="629.8516"/><text fill="#000000" font-family="sans-serif" font-size="13" lengthAdjust="spacing" textLength="37.064" x="164.2635" y="609.6528">insert</text><text fill="#000000" font-family="sans-serif" font-size="13" lengthAdjust="spacing" textLength="73.29" x="164.2635" y="624.7856">(Customer)</text><polygon fill="#A80036" points="723.116,670.1172,733.116,674.1172,723.116,678.1172,727.116,674.1172" style="stroke:#A80036;stroke-width:1.0;"/><line style="stroke:#A80036;stroke-width:1.0;" x1="589.7054" x2="729.116" y1="674.1172" y2="674.1172"/><text fill="#000000" font-family="sans-serif" font-size="13" lengthAdjust="spacing" textLength="37.064" x="596.7054" y="653.9185">insert</text><text fill="#000000" font-family="sans-serif" font-size="13" lengthAdjust="spacing" textLength="73.29" x="596.7054" y="669.0513">(Customer)</text><polygon fill="#A80036" points="829.6541,699.25,839.6541,703.25,829.6541,707.25,833.6541,703.25" style="stroke:#A80036;stroke-width:1.0;"/><line style="stroke:#A80036;stroke-width:1.0;" x1="745.116" x2="835.6541" y1="703.25" y2="703.25"/><text fill="#000000" font-family="sans-serif" font-size="13" lengthAdjust="spacing" textLength="59.9981" x="752.116" y="698.1841">INSERT&#25991;</text><polygon fill="#A80036" points="756.116,728.3828,746.116,732.3828,756.116,736.3828,752.116,732.3828" style="stroke:#A80036;stroke-width:1.0;"/><line style="stroke:#A80036;stroke-width:1.0;stroke-dasharray:2.0,2.0;" x1="750.116" x2="845.6541" y1="732.3828" y2="732.3828"/><text fill="#000000" font-family="sans-serif" font-size="13" lengthAdjust="spacing" textLength="27.5107" x="762.116" y="727.3169">void</text><polygon fill="#A80036" points="600.7054,757.5156,590.7054,761.5156,600.7054,765.5156,596.7054,761.5156" style="stroke:#A80036;stroke-width:1.0;"/><line style="stroke:#A80036;stroke-width:1.0;stroke-dasharray:2.0,2.0;" x1="594.7054" x2="739.116" y1="761.5156" y2="761.5156"/><text fill="#000000" font-family="sans-serif" font-size="13" lengthAdjust="spacing" textLength="27.5107" x="606.7054" y="756.4497">void</text><polygon fill="#A80036" points="168.2635,786.6484,158.2635,790.6484,168.2635,794.6484,164.2635,790.6484" style="stroke:#A80036;stroke-width:1.0;"/><line style="stroke:#A80036;stroke-width:1.0;" x1="162.2635" x2="583.7054" y1="790.6484" y2="790.6484"/><text fill="#000000" font-family="sans-serif" font-size="13" lengthAdjust="spacing" textLength="27.5107" x="174.2635" y="785.5825">void</text><polygon fill="#A80036" points="44.9999,815.7813,34.9999,819.7813,44.9999,823.7813,40.9999,819.7813" style="stroke:#A80036;stroke-width:1.0;"/><line style="stroke:#A80036;stroke-width:1.0;stroke-dasharray:2.0,2.0;" x1="38.9999" x2="151.2635" y1="819.7813" y2="819.7813"/><text fill="#000000" font-family="sans-serif" font-size="13" lengthAdjust="spacing" textLength="78.0001" x="50.9999" y="814.7153">&#12522;&#12480;&#12452;&#12524;&#12463;&#12488;</text><polygon fill="#A80036" points="135.2635,844.9141,145.2635,848.9141,135.2635,852.9141,139.2635,848.9141" style="stroke:#A80036;stroke-width:1.0;"/><line style="stroke:#A80036;stroke-width:1.0;" x1="33.9999" x2="141.2635" y1="848.9141" y2="848.9141"/><text fill="#000000" font-family="sans-serif" font-size="13" lengthAdjust="spacing" textLength="70.8652" x="40.9999" y="843.8481">complete()</text><line style="stroke:#A80036;stroke-width:1.0;" x1="157.2635" x2="199.2635" y1="878.0469" y2="878.0469"/><line style="stroke:#A80036;stroke-width:1.0;" x1="199.2635" x2="199.2635" y1="878.0469" y2="891.0469"/><line style="stroke:#A80036;stroke-width:1.0;" x1="158.2635" x2="199.2635" y1="891.0469" y2="891.0469"/><polygon fill="#A80036" points="168.2635,887.0469,158.2635,891.0469,168.2635,895.0469,164.2635,891.0469" style="stroke:#A80036;stroke-width:1.0;"/><text fill="#000000" font-family="sans-serif" font-size="13" lengthAdjust="spacing" textLength="91.0001" x="164.2635" y="872.981">&#12475;&#12483;&#12471;&#12519;&#12531;&#30772;&#26820;</text><line style="stroke:#A80036;stroke-width:1.0;" x1="157.2635" x2="199.2635" y1="920.1797" y2="920.1797"/><line style="stroke:#A80036;stroke-width:1.0;" x1="199.2635" x2="199.2635" y1="920.1797" y2="933.1797"/><line style="stroke:#A80036;stroke-width:1.0;" x1="158.2635" x2="199.2635" y1="933.1797" y2="933.1797"/><polygon fill="#A80036" points="168.2635,929.1797,158.2635,933.1797,168.2635,937.1797,164.2635,933.1797" style="stroke:#A80036;stroke-width:1.0;"/><text fill="#000000" font-family="sans-serif" font-size="13" lengthAdjust="spacing" textLength="65.0318" x="164.2635" y="915.1138">Model&#36861;&#21152;</text><polygon fill="#A80036" points="39.9999,958.3125,29.9999,962.3125,39.9999,966.3125,35.9999,962.3125" style="stroke:#A80036;stroke-width:1.0;"/><line style="stroke:#A80036;stroke-width:1.0;" x1="33.9999" x2="151.2635" y1="962.3125" y2="962.3125"/><text fill="#000000" font-family="sans-serif" font-size="13" lengthAdjust="spacing" textLength="52.0001" x="45.9999" y="957.2466">&#23436;&#20102;&#30011;&#38754;</text><!--SRC=[bLJBRjD05DtxAqRTj5KLgUgE2Y7H0885B5BOPUFOasQ4OqVs98KTcI4fRODW0KWeGeIqK19GK0a29Q7gnmpEuo-OXmEsYIkniUVEEVVEFNUExTr7Dd0T3seUNvLqLoy2hw2RpYwoTq1UjpY24ROWk9TUNx-q2MRlJlnUU_9wD6jy7NVUJkaPOEG7epyPEMMqpyZ0R_OrJJUmum96FqZaEz0zKFQWA_PHHSTGHVmyZ0nKqcqCbj9b3pj5w5urpRHZOzUnBEWkYKpZJxWuuuRZ5YKnpnUBAJUXLGgg5UHoCMqRkXLaGCdpAiR6ObO6bXmFSO4F9T7buOPcwbZFwHu4rxR4ffdJj6NWrzxx1yt9Yz7iJLiJaa7gIaWEM5i3cxBhbLKjjCr9ObF1DjmDOvTJAGNozoO8Zo1MGHqdI94kU5UJzd3QVHhhIhxdzpkcDRzrgl8I- -Pn7btOEgFF6UqokYTSG9yaozX2jiaDbu5UsSAHSX4XaSR5U7kDNyFwOY6gURzUyti3bPSe13w0HXd3VuI48gw5Z1YbqkidtEX1oMLWEzpDBjefOA7t9ICTAROLg2RdhDh8sfFEa5MxZEoB0cJ0Q5rGo4T61JrshdBeV8IXajL3NY5hoxo-g46EWcVrat-yFtxMZ8yuA1NnIkmquNDr5hBvW73MNfapLpK9SfBqU29BePncvXJdrftjwvcxurTx0IHQuPXie-8WKzKLkq5g58ZE_YyeBr1anL7fiaUC73FwcP4lmcl9hYsMBFY_jztwDZvwV572RSU4rlJyp3ze9N-7ORkQCF8l_0q0]--></g></svg>