<?xml version="1.0" encoding="UTF-8" standalone="no"?><svg xmlns="http://www.w3.org/2000/svg" xmlns:xlink="http://www.w3.org/1999/xlink" contentScriptType="application/ecmascript" contentStyleType="text/css" height="1235px" preserveAspectRatio="none" style="width:822px;height:1235px;background:#FFFFFF;" version="1.1" viewBox="0 0 822 1235" width="822px" zoomAndPan="magnify"><defs/><g><text fill="#000000" font-family="sans-serif" font-size="18" lengthAdjust="spacing" textLength="399" x="210.75" y="29.4023">UC009: 担当者アカウント登録機能 シーケンス図</text><rect fill="#FFFFFF" height="1004.9375" style="stroke:#A80036;stroke-width:1.0;" width="10" x="24" y="129.6875"/><rect fill="#FFFFFF" height="289.7949" style="stroke:#A80036;stroke-width:1.0;" width="10" x="140" y="150.998"/><rect fill="#FFFFFF" height="71.6211" style="stroke:#A80036;stroke-width:1.0;" width="10" x="140" y="512.4141"/><rect fill="#FFFFFF" height="478.9688" style="stroke:#A80036;stroke-width:1.0;" width="10" x="140" y="655.6563"/><rect fill="#FFFFFF" height="146.5527" style="stroke:#A80036;stroke-width:1.0;" width="10" x="281" y="264.9297"/><rect fill="#FFFFFF" height="87.9316" style="stroke:#A80036;stroke-width:1.0;" width="10" x="418" y="294.2402"/><rect fill="#FFFFFF" height="161.8633" style="stroke:#A80036;stroke-width:1.0;" width="10" x="539.5" y="800.209"/><rect fill="#FFFFFF" height="87.9316" style="stroke:#A80036;stroke-width:1.0;" width="10" x="696.5" y="844.8301"/><rect fill="#FFFFFF" height="29.3105" style="stroke:#A80036;stroke-width:1.0;" width="10" x="792.5" y="323.5508"/><rect fill="#FFFFFF" height="29.3105" style="stroke:#A80036;stroke-width:1.0;" width="10" x="792.5" y="874.1406"/><line style="stroke:#A80036;stroke-width:1.0;stroke-dasharray:5.0,5.0;" x1="29" x2="29" y1="119.6875" y2="1152.625"/><line style="stroke:#A80036;stroke-width:1.0;stroke-dasharray:5.0,5.0;" x1="145" x2="145" y1="119.6875" y2="1152.625"/><line style="stroke:#A80036;stroke-width:1.0;stroke-dasharray:5.0,5.0;" x1="286" x2="286" y1="119.6875" y2="1152.625"/><line style="stroke:#A80036;stroke-width:1.0;stroke-dasharray:5.0,5.0;" x1="422.5" x2="422.5" y1="119.6875" y2="1152.625"/><line style="stroke:#A80036;stroke-width:1.0;stroke-dasharray:5.0,5.0;" x1="544.5" x2="544.5" y1="119.6875" y2="1152.625"/><line style="stroke:#A80036;stroke-width:1.0;stroke-dasharray:5.0,5.0;" x1="701.5" x2="701.5" y1="119.6875" y2="1152.625"/><line style="stroke:#A80036;stroke-width:1.0;stroke-dasharray:5.0,5.0;" x1="797.5" x2="797.5" y1="119.6875" y2="1152.625"/><text fill="#000000" font-family="sans-serif" font-size="14" lengthAdjust="spacing" textLength="42" x="5" y="116.7344">ユーザ</text><ellipse cx="29" cy="50.1992" fill="#FEFECE" rx="8" ry="8" style="stroke:#A80036;stroke-width:2.0;"/><path d="M29,58.1992 L29,85.1992 M16,66.1992 L42,66.1992 M29,85.1992 L16,100.1992 M29,85.1992 L42,100.1992 " fill="none" style="stroke:#A80036;stroke-width:2.0;"/><text fill="#000000" font-family="sans-serif" font-size="14" lengthAdjust="spacing" textLength="42" x="5" y="1165.1602">ユーザ</text><ellipse cx="29" cy="1178.1133" fill="#FEFECE" rx="8" ry="8" style="stroke:#A80036;stroke-width:2.0;"/><path d="M29,1186.1133 L29,1213.1133 M16,1194.1133 L42,1194.1133 M29,1213.1133 L16,1228.1133 M29,1213.1133 L42,1228.1133 " fill="none" style="stroke:#A80036;stroke-width:2.0;"/><rect fill="#FEFECE" height="46.9766" style="stroke:#A80036;stroke-width:1.5;" width="164" x="63" y="71.7109"/><text fill="#000000" font-family="sans-serif" font-size="14" lengthAdjust="spacing" textLength="150" x="70" y="92.2461">EmployeeAccountAdd</text><text fill="#000000" font-family="sans-serif" font-size="14" lengthAdjust="spacing" textLength="70" x="110" y="108.7344">Controller</text><rect fill="#FEFECE" height="46.9766" style="stroke:#A80036;stroke-width:1.5;" width="164" x="63" y="1151.625"/><text fill="#000000" font-family="sans-serif" font-size="14" lengthAdjust="spacing" textLength="150" x="70" y="1172.1602">EmployeeAccountAdd</text><text fill="#000000" font-family="sans-serif" font-size="14" lengthAdjust="spacing" textLength="70" x="110" y="1188.6484">Controller</text><rect fill="#FEFECE" height="46.9766" style="stroke:#A80036;stroke-width:1.5;" width="80" x="246" y="71.7109"/><text fill="#000000" font-family="sans-serif" font-size="14" lengthAdjust="spacing" textLength="66" x="253" y="92.2461">Employee</text><text fill="#000000" font-family="sans-serif" font-size="14" lengthAdjust="spacing" textLength="48" x="262" y="108.7344">Service</text><rect fill="#FEFECE" height="46.9766" style="stroke:#A80036;stroke-width:1.5;" width="80" x="246" y="1151.625"/><text fill="#000000" font-family="sans-serif" font-size="14" lengthAdjust="spacing" textLength="66" x="253" y="1172.1602">Employee</text><text fill="#000000" font-family="sans-serif" font-size="14" lengthAdjust="spacing" textLength="48" x="262" y="1188.6484">Service</text><rect fill="#FEFECE" height="46.9766" style="stroke:#A80036;stroke-width:1.5;" width="87" x="379.5" y="71.7109"/><text fill="#000000" font-family="sans-serif" font-size="14" lengthAdjust="spacing" textLength="66" x="390" y="92.2461">Employee</text><text fill="#000000" font-family="sans-serif" font-size="14" lengthAdjust="spacing" textLength="73" x="386.5" y="108.7344">Repository</text><rect fill="#FEFECE" height="46.9766" style="stroke:#A80036;stroke-width:1.5;" width="87" x="379.5" y="1151.625"/><text fill="#000000" font-family="sans-serif" font-size="14" lengthAdjust="spacing" textLength="66" x="390" y="1172.1602">Employee</text><text fill="#000000" font-family="sans-serif" font-size="14" lengthAdjust="spacing" textLength="73" x="386.5" y="1188.6484">Repository</text><rect fill="#FEFECE" height="46.9766" style="stroke:#A80036;stroke-width:1.5;" width="136" x="476.5" y="71.7109"/><text fill="#000000" font-family="sans-serif" font-size="14" lengthAdjust="spacing" textLength="122" x="483.5" y="92.2461">EmployeeAccount</text><text fill="#000000" font-family="sans-serif" font-size="14" lengthAdjust="spacing" textLength="48" x="520.5" y="108.7344">Service</text><rect fill="#FEFECE" height="46.9766" style="stroke:#A80036;stroke-width:1.5;" width="136" x="476.5" y="1151.625"/><text fill="#000000" font-family="sans-serif" font-size="14" lengthAdjust="spacing" textLength="122" x="483.5" y="1172.1602">EmployeeAccount</text><text fill="#000000" font-family="sans-serif" font-size="14" lengthAdjust="spacing" textLength="48" x="520.5" y="1188.6484">Service</text><rect fill="#FEFECE" height="46.9766" style="stroke:#A80036;stroke-width:1.5;" width="136" x="633.5" y="71.7109"/><text fill="#000000" font-family="sans-serif" font-size="14" lengthAdjust="spacing" textLength="122" x="640.5" y="92.2461">EmployeeAccount</text><text fill="#000000" font-family="sans-serif" font-size="14" lengthAdjust="spacing" textLength="73" x="665" y="108.7344">Repository</text><rect fill="#FEFECE" height="46.9766" style="stroke:#A80036;stroke-width:1.5;" width="136" x="633.5" y="1151.625"/><text fill="#000000" font-family="sans-serif" font-size="14" lengthAdjust="spacing" textLength="122" x="640.5" y="1172.1602">EmployeeAccount</text><text fill="#000000" font-family="sans-serif" font-size="14" lengthAdjust="spacing" textLength="73" x="665" y="1188.6484">Repository</text><text fill="#000000" font-family="sans-serif" font-size="14" lengthAdjust="spacing" textLength="18" x="785.5" y="116.7344">DB</text><path d="M779.5,67.1992 C779.5,57.1992 797.5,57.1992 797.5,57.1992 C797.5,57.1992 815.5,57.1992 815.5,67.1992 L815.5,93.1992 C815.5,103.1992 797.5,103.1992 797.5,103.1992 C797.5,103.1992 779.5,103.1992 779.5,93.1992 L779.5,67.1992 " fill="#FEFECE" style="stroke:#000000;stroke-width:1.5;"/><path d="M779.5,67.1992 C779.5,77.1992 797.5,77.1992 797.5,77.1992 C797.5,77.1992 815.5,77.1992 815.5,67.1992 " fill="none" style="stroke:#000000;stroke-width:1.5;"/><text fill="#000000" font-family="sans-serif" font-size="14" lengthAdjust="spacing" textLength="18" x="785.5" y="1165.1602">DB</text><path d="M779.5,1178.1133 C779.5,1168.1133 797.5,1168.1133 797.5,1168.1133 C797.5,1168.1133 815.5,1168.1133 815.5,1178.1133 L815.5,1204.1133 C815.5,1214.1133 797.5,1214.1133 797.5,1214.1133 C797.5,1214.1133 779.5,1214.1133 779.5,1204.1133 L779.5,1178.1133 " fill="#FEFECE" style="stroke:#000000;stroke-width:1.5;"/><path d="M779.5,1178.1133 C779.5,1188.1133 797.5,1188.1133 797.5,1188.1133 C797.5,1188.1133 815.5,1188.1133 815.5,1178.1133 " fill="none" style="stroke:#000000;stroke-width:1.5;"/><rect fill="#FFFFFF" height="1004.9375" style="stroke:#A80036;stroke-width:1.0;" width="10" x="24" y="129.6875"/><rect fill="#FFFFFF" height="289.7949" style="stroke:#A80036;stroke-width:1.0;" width="10" x="140" y="150.998"/><rect fill="#FFFFFF" height="71.6211" style="stroke:#A80036;stroke-width:1.0;" width="10" x="140" y="512.4141"/><rect fill="#FFFFFF" height="478.9688" style="stroke:#A80036;stroke-width:1.0;" width="10" x="140" y="655.6563"/><rect fill="#FFFFFF" height="146.5527" style="stroke:#A80036;stroke-width:1.0;" width="10" x="281" y="264.9297"/><rect fill="#FFFFFF" height="87.9316" style="stroke:#A80036;stroke-width:1.0;" width="10" x="418" y="294.2402"/><rect fill="#FFFFFF" height="161.8633" style="stroke:#A80036;stroke-width:1.0;" width="10" x="539.5" y="800.209"/><rect fill="#FFFFFF" height="87.9316" style="stroke:#A80036;stroke-width:1.0;" width="10" x="696.5" y="844.8301"/><rect fill="#FFFFFF" height="29.3105" style="stroke:#A80036;stroke-width:1.0;" width="10" x="792.5" y="323.5508"/><rect fill="#FFFFFF" height="29.3105" style="stroke:#A80036;stroke-width:1.0;" width="10" x="792.5" y="874.1406"/><polygon fill="#A80036" points="128,146.998,138,150.998,128,154.998,132,150.998" style="stroke:#A80036;stroke-width:1.0;"/><line style="stroke:#A80036;stroke-width:1.0;" x1="34" x2="134" y1="150.998" y2="150.998"/><text fill="#000000" font-family="sans-serif" font-size="13" lengthAdjust="spacing" textLength="38" x="41" y="146.2559">form()</text><line style="stroke:#A80036;stroke-width:1.0;" x1="150" x2="192" y1="180.3086" y2="180.3086"/><line style="stroke:#A80036;stroke-width:1.0;" x1="192" x2="192" y1="180.3086" y2="193.3086"/><line style="stroke:#A80036;stroke-width:1.0;" x1="151" x2="192" y1="193.3086" y2="193.3086"/><polygon fill="#A80036" points="161,189.3086,151,193.3086,161,197.3086,157,193.3086" style="stroke:#A80036;stroke-width:1.0;"/><text fill="#000000" font-family="sans-serif" font-size="13" lengthAdjust="spacing" textLength="76" x="157" y="175.5664">setUpForm()</text><line style="stroke:#A80036;stroke-width:1.0;" x1="150" x2="192" y1="222.6191" y2="222.6191"/><line style="stroke:#A80036;stroke-width:1.0;" x1="192" x2="192" y1="222.6191" y2="235.6191"/><line style="stroke:#A80036;stroke-width:1.0;" x1="151" x2="192" y1="235.6191" y2="235.6191"/><polygon fill="#A80036" points="161,231.6191,151,235.6191,161,239.6191,157,235.6191" style="stroke:#A80036;stroke-width:1.0;"/><text fill="#000000" font-family="sans-serif" font-size="13" lengthAdjust="spacing" textLength="36" x="157" y="217.877">bind()</text><polygon fill="#A80036" points="269,260.9297,279,264.9297,269,268.9297,273,264.9297" style="stroke:#A80036;stroke-width:1.0;"/><line style="stroke:#A80036;stroke-width:1.0;" x1="150" x2="275" y1="264.9297" y2="264.9297"/><text fill="#000000" font-family="sans-serif" font-size="13" lengthAdjust="spacing" textLength="50" x="157" y="260.1875">findAll()</text><polygon fill="#A80036" points="406,290.2402,416,294.2402,406,298.2402,410,294.2402" style="stroke:#A80036;stroke-width:1.0;"/><line style="stroke:#A80036;stroke-width:1.0;" x1="291" x2="412" y1="294.2402" y2="294.2402"/><text fill="#000000" font-family="sans-serif" font-size="13" lengthAdjust="spacing" textLength="50" x="298" y="289.498">findAll()</text><polygon fill="#A80036" points="780.5,319.5508,790.5,323.5508,780.5,327.5508,784.5,323.5508" style="stroke:#A80036;stroke-width:1.0;"/><line style="stroke:#A80036;stroke-width:1.0;" x1="428" x2="786.5" y1="323.5508" y2="323.5508"/><text fill="#000000" font-family="sans-serif" font-size="13" lengthAdjust="spacing" textLength="58" x="435" y="318.8086">SELECT文</text><polygon fill="#A80036" points="439,348.8613,429,352.8613,439,356.8613,435,352.8613" style="stroke:#A80036;stroke-width:1.0;"/><line style="stroke:#A80036;stroke-width:1.0;stroke-dasharray:2.0,2.0;" x1="433" x2="796.5" y1="352.8613" y2="352.8613"/><text fill="#000000" font-family="sans-serif" font-size="13" lengthAdjust="spacing" textLength="103" x="445" y="348.1191">List&lt;Employee&gt;</text><polygon fill="#A80036" points="302,378.1719,292,382.1719,302,386.1719,298,382.1719" style="stroke:#A80036;stroke-width:1.0;"/><line style="stroke:#A80036;stroke-width:1.0;" x1="296" x2="422" y1="382.1719" y2="382.1719"/><text fill="#000000" font-family="sans-serif" font-size="13" lengthAdjust="spacing" textLength="103" x="308" y="377.4297">List&lt;Employee&gt;</text><polygon fill="#A80036" points="161,407.4824,151,411.4824,161,415.4824,157,411.4824" style="stroke:#A80036;stroke-width:1.0;"/><line style="stroke:#A80036;stroke-width:1.0;stroke-dasharray:2.0,2.0;" x1="155" x2="285" y1="411.4824" y2="411.4824"/><text fill="#000000" font-family="sans-serif" font-size="13" lengthAdjust="spacing" textLength="103" x="167" y="406.7402">List&lt;Employee&gt;</text><polygon fill="#A80036" points="45,436.793,35,440.793,45,444.793,41,440.793" style="stroke:#A80036;stroke-width:1.0;"/><line style="stroke:#A80036;stroke-width:1.0;" x1="39" x2="144" y1="440.793" y2="440.793"/><text fill="#000000" font-family="sans-serif" font-size="13" lengthAdjust="spacing" textLength="52" x="51" y="436.0508">入力画面</text><line style="stroke:#A80036;stroke-width:1.0;" x1="34" x2="76" y1="470.1035" y2="470.1035"/><line style="stroke:#A80036;stroke-width:1.0;" x1="76" x2="76" y1="470.1035" y2="483.1035"/><line style="stroke:#A80036;stroke-width:1.0;" x1="35" x2="76" y1="483.1035" y2="483.1035"/><polygon fill="#A80036" points="45,479.1035,35,483.1035,45,487.1035,41,483.1035" style="stroke:#A80036;stroke-width:1.0;"/><text fill="#000000" font-family="sans-serif" font-size="13" lengthAdjust="spacing" textLength="78" x="41" y="465.3613">商品情報入力</text><polygon fill="#A80036" points="128,508.4141,138,512.4141,128,516.4141,132,512.4141" style="stroke:#A80036;stroke-width:1.0;"/><line style="stroke:#A80036;stroke-width:1.0;" x1="34" x2="134" y1="512.4141" y2="512.4141"/><text fill="#000000" font-family="sans-serif" font-size="13" lengthAdjust="spacing" textLength="57" x="41" y="507.6719">confirm()</text><line style="stroke:#A80036;stroke-width:1.0;" x1="150" x2="192" y1="541.7246" y2="541.7246"/><line style="stroke:#A80036;stroke-width:1.0;" x1="192" x2="192" y1="541.7246" y2="554.7246"/><line style="stroke:#A80036;stroke-width:1.0;" x1="151" x2="192" y1="554.7246" y2="554.7246"/><polygon fill="#A80036" points="161,550.7246,151,554.7246,161,558.7246,157,554.7246" style="stroke:#A80036;stroke-width:1.0;"/><text fill="#000000" font-family="sans-serif" font-size="13" lengthAdjust="spacing" textLength="65" x="157" y="536.9824">バリデート</text><polygon fill="#A80036" points="45,580.0352,35,584.0352,45,588.0352,41,584.0352" style="stroke:#A80036;stroke-width:1.0;"/><line style="stroke:#A80036;stroke-width:1.0;stroke-dasharray:2.0,2.0;" x1="39" x2="144" y1="584.0352" y2="584.0352"/><text fill="#000000" font-family="sans-serif" font-size="13" lengthAdjust="spacing" textLength="52" x="51" y="579.293">確認画面</text><line style="stroke:#A80036;stroke-width:1.0;" x1="34" x2="76" y1="613.3457" y2="613.3457"/><line style="stroke:#A80036;stroke-width:1.0;" x1="76" x2="76" y1="613.3457" y2="626.3457"/><line style="stroke:#A80036;stroke-width:1.0;" x1="35" x2="76" y1="626.3457" y2="626.3457"/><polygon fill="#A80036" points="45,622.3457,35,626.3457,45,630.3457,41,626.3457" style="stroke:#A80036;stroke-width:1.0;"/><text fill="#000000" font-family="sans-serif" font-size="13" lengthAdjust="spacing" textLength="78" x="41" y="608.6035">入力内容確認</text><polygon fill="#A80036" points="128,651.6563,138,655.6563,128,659.6563,132,655.6563" style="stroke:#A80036;stroke-width:1.0;"/><line style="stroke:#A80036;stroke-width:1.0;" x1="34" x2="134" y1="655.6563" y2="655.6563"/><text fill="#000000" font-family="sans-serif" font-size="13" lengthAdjust="spacing" textLength="57" x="41" y="650.9141">execute()</text><line style="stroke:#A80036;stroke-width:1.0;" x1="150" x2="192" y1="684.9668" y2="684.9668"/><line style="stroke:#A80036;stroke-width:1.0;" x1="192" x2="192" y1="684.9668" y2="697.9668"/><line style="stroke:#A80036;stroke-width:1.0;" x1="151" x2="192" y1="697.9668" y2="697.9668"/><polygon fill="#A80036" points="161,693.9668,151,697.9668,161,701.9668,157,697.9668" style="stroke:#A80036;stroke-width:1.0;"/><text fill="#000000" font-family="sans-serif" font-size="13" lengthAdjust="spacing" textLength="91" x="157" y="680.2246">セッション確認</text><line style="stroke:#A80036;stroke-width:1.0;" x1="150" x2="192" y1="742.5879" y2="742.5879"/><line style="stroke:#A80036;stroke-width:1.0;" x1="192" x2="192" y1="742.5879" y2="755.5879"/><line style="stroke:#A80036;stroke-width:1.0;" x1="151" x2="192" y1="755.5879" y2="755.5879"/><polygon fill="#A80036" points="161,751.5879,151,755.5879,161,759.5879,157,755.5879" style="stroke:#A80036;stroke-width:1.0;"/><text fill="#000000" font-family="sans-serif" font-size="13" lengthAdjust="spacing" textLength="78" x="157" y="722.5352">フォームから</text><text fill="#000000" font-family="sans-serif" font-size="13" lengthAdjust="spacing" textLength="117" x="157" y="737.8457">エンティティに変換</text><polygon fill="#A80036" points="527.5,796.209,537.5,800.209,527.5,804.209,531.5,800.209" style="stroke:#A80036;stroke-width:1.0;"/><line style="stroke:#A80036;stroke-width:1.0;" x1="150" x2="533.5" y1="800.209" y2="800.209"/><text fill="#000000" font-family="sans-serif" font-size="13" lengthAdjust="spacing" textLength="36" x="157" y="780.1563">insert</text><text fill="#000000" font-family="sans-serif" font-size="13" lengthAdjust="spacing" textLength="128" x="157" y="795.4668">(EmpployeeAccount)</text><polygon fill="#A80036" points="684.5,840.8301,694.5,844.8301,684.5,848.8301,688.5,844.8301" style="stroke:#A80036;stroke-width:1.0;"/><line style="stroke:#A80036;stroke-width:1.0;" x1="549.5" x2="690.5" y1="844.8301" y2="844.8301"/><text fill="#000000" font-family="sans-serif" font-size="13" lengthAdjust="spacing" textLength="36" x="556.5" y="824.7773">insert</text><text fill="#000000" font-family="sans-serif" font-size="13" lengthAdjust="spacing" textLength="128" x="556.5" y="840.0879">(EmpployeeAccount)</text><polygon fill="#A80036" points="780.5,870.1406,790.5,874.1406,780.5,878.1406,784.5,874.1406" style="stroke:#A80036;stroke-width:1.0;"/><line style="stroke:#A80036;stroke-width:1.0;" x1="706.5" x2="786.5" y1="874.1406" y2="874.1406"/><text fill="#000000" font-family="sans-serif" font-size="13" lengthAdjust="spacing" textLength="57" x="713.5" y="869.3984">INSERT文</text><polygon fill="#A80036" points="717.5,899.4512,707.5,903.4512,717.5,907.4512,713.5,903.4512" style="stroke:#A80036;stroke-width:1.0;"/><line style="stroke:#A80036;stroke-width:1.0;stroke-dasharray:2.0,2.0;" x1="711.5" x2="796.5" y1="903.4512" y2="903.4512"/><text fill="#000000" font-family="sans-serif" font-size="13" lengthAdjust="spacing" textLength="27" x="723.5" y="898.709">void</text><polygon fill="#A80036" points="560.5,928.7617,550.5,932.7617,560.5,936.7617,556.5,932.7617" style="stroke:#A80036;stroke-width:1.0;"/><line style="stroke:#A80036;stroke-width:1.0;stroke-dasharray:2.0,2.0;" x1="554.5" x2="700.5" y1="932.7617" y2="932.7617"/><text fill="#000000" font-family="sans-serif" font-size="13" lengthAdjust="spacing" textLength="27" x="566.5" y="928.0195">void</text><polygon fill="#A80036" points="161,958.0723,151,962.0723,161,966.0723,157,962.0723" style="stroke:#A80036;stroke-width:1.0;"/><line style="stroke:#A80036;stroke-width:1.0;" x1="155" x2="543.5" y1="962.0723" y2="962.0723"/><text fill="#000000" font-family="sans-serif" font-size="13" lengthAdjust="spacing" textLength="27" x="167" y="957.3301">void</text><polygon fill="#A80036" points="45,987.3828,35,991.3828,45,995.3828,41,991.3828" style="stroke:#A80036;stroke-width:1.0;"/><line style="stroke:#A80036;stroke-width:1.0;stroke-dasharray:2.0,2.0;" x1="39" x2="139" y1="991.3828" y2="991.3828"/><text fill="#000000" font-family="sans-serif" font-size="13" lengthAdjust="spacing" textLength="78" x="51" y="986.6406">リダイレクト</text><polygon fill="#A80036" points="128,1016.6934,138,1020.6934,128,1024.6934,132,1020.6934" style="stroke:#A80036;stroke-width:1.0;"/><line style="stroke:#A80036;stroke-width:1.0;" x1="34" x2="134" y1="1020.6934" y2="1020.6934"/><text fill="#000000" font-family="sans-serif" font-size="13" lengthAdjust="spacing" textLength="66" x="41" y="1015.9512">complete()</text><line style="stroke:#A80036;stroke-width:1.0;" x1="150" x2="192" y1="1050.0039" y2="1050.0039"/><line style="stroke:#A80036;stroke-width:1.0;" x1="192" x2="192" y1="1050.0039" y2="1063.0039"/><line style="stroke:#A80036;stroke-width:1.0;" x1="151" x2="192" y1="1063.0039" y2="1063.0039"/><polygon fill="#A80036" points="161,1059.0039,151,1063.0039,161,1067.0039,157,1063.0039" style="stroke:#A80036;stroke-width:1.0;"/><text fill="#000000" font-family="sans-serif" font-size="13" lengthAdjust="spacing" textLength="91" x="157" y="1045.2617">セッション破棄</text><line style="stroke:#A80036;stroke-width:1.0;" x1="150" x2="192" y1="1092.3145" y2="1092.3145"/><line style="stroke:#A80036;stroke-width:1.0;" x1="192" x2="192" y1="1092.3145" y2="1105.3145"/><line style="stroke:#A80036;stroke-width:1.0;" x1="151" x2="192" y1="1105.3145" y2="1105.3145"/><polygon fill="#A80036" points="161,1101.3145,151,1105.3145,161,1109.3145,157,1105.3145" style="stroke:#A80036;stroke-width:1.0;"/><text fill="#000000" font-family="sans-serif" font-size="13" lengthAdjust="spacing" textLength="64" x="157" y="1087.5723">Model追加</text><polygon fill="#A80036" points="40,1130.625,30,1134.625,40,1138.625,36,1134.625" style="stroke:#A80036;stroke-width:1.0;"/><line style="stroke:#A80036;stroke-width:1.0;" x1="34" x2="144" y1="1134.625" y2="1134.625"/><text fill="#000000" font-family="sans-serif" font-size="13" lengthAdjust="spacing" textLength="52" x="46" y="1129.8828">完了画面</text><!--MD5=[87460063324c15322ee4a07ff6c3528a]
@startuml
skin rose
skinparam shadowing false
hide empty methods
hide empty fields

title UC009: 担当者アカウント登録機能 シーケンス図
skinparam shadowing false

actor ユーザ as user
activate user
participant "EmployeeAccountAdd\nController" as controller
participant "Employee\nService" as svc1
participant "Employee\nRepository" as repo1
participant "EmployeeAccount\nService" as svc2
participant "EmployeeAccount\nRepository" as repo2
database DB as db

' 入力画面
user -> controller ++ : form()
controller -> controller : setUpForm()
controller -> controller : bind()
controller -> svc1 ++ : findAll()
svc1 -> repo1 ++ : findAll()
repo1 -> db ++ : SELECT文
repo1 <- - db - - : List<Employee>
svc1 <- repo1 - - : List<Employee>
controller <- - svc1 - -  : List<Employee>
controller -> user - - : 入力画面

' 確認画面
user -> user : 商品情報入力
user -> controller ++ : confirm()
controller -> controller : バリデート
controller - -> user - - : 確認画面

' 完了画面
user -> user : 入力内容確認
user -> controller ++ : execute()
controller -> controller : セッション確認
' note right: フォームデータが\n空ならシステムエラー
controller -> controller : フォームから\nエンティティに変換
controller -> svc2 ++ : insert\n(EmpployeeAccount)
svc2 -> repo2 ++ : insert\n(EmpployeeAccount)
repo2 -> db ++ : INSERT文
repo2 <- - db - - : void
svc2 <- - repo2 - - : void
svc2 -> controller - - : void
user <- - controller : リダイレクト
user -> controller : complete()
controller -> controller : セッション破棄
controller -> controller : Model追加
controller -> user - - : 完了画面
deactivate user
@enduml

@startuml
skin rose
skinparam shadowing false
hide empty methods
hide empty fields

title UC009: 担当者アカウント登録機能 シーケンス図
skinparam shadowing false

actor ユーザ as user
activate user
participant "EmployeeAccountAdd\nController" as controller
participant "Employee\nService" as svc1
participant "Employee\nRepository" as repo1
participant "EmployeeAccount\nService" as svc2
participant "EmployeeAccount\nRepository" as repo2
database DB as db

user -> controller ++ : form()
controller -> controller : setUpForm()
controller -> controller : bind()
controller -> svc1 ++ : findAll()
svc1 -> repo1 ++ : findAll()
repo1 -> db ++ : SELECT文
repo1 <- - db - - : List<Employee>
svc1 <- repo1 - - : List<Employee>
controller <- - svc1 - -  : List<Employee>
controller -> user - - : 入力画面

user -> user : 商品情報入力
user -> controller ++ : confirm()
controller -> controller : バリデート
controller - -> user - - : 確認画面

user -> user : 入力内容確認
user -> controller ++ : execute()
controller -> controller : セッション確認
controller -> controller : フォームから\nエンティティに変換
controller -> svc2 ++ : insert\n(EmpployeeAccount)
svc2 -> repo2 ++ : insert\n(EmpployeeAccount)
repo2 -> db ++ : INSERT文
repo2 <- - db - - : void
svc2 <- - repo2 - - : void
svc2 -> controller - - : void
user <- - controller : リダイレクト
user -> controller : complete()
controller -> controller : セッション破棄
controller -> controller : Model追加
controller -> user - - : 完了画面
deactivate user
@enduml

PlantUML version 1.2022.0(Wed Jan 12 01:16:42 JST 2022)
(GPL source distribution)
Java Runtime: OpenJDK Runtime Environment
JVM: OpenJDK 64-Bit Server VM
Default Encoding: UTF-8
Language: ja
Country: JP
--></g></svg>