<svg xmlns="http://www.w3.org/2000/svg" xmlns:xlink="http://www.w3.org/1999/xlink" contentStyleType="text/css" height="1745px" preserveAspectRatio="none" style="width:1013px;height:1745px;background:#FFFFFF;" version="1.1" viewBox="0 0 1013 1745" width="1013px" zoomAndPan="magnify"><defs/><g><text fill="#000000" font-family="sans-serif" font-size="14" font-weight="bold" lengthAdjust="spacing" textLength="248.2121" x="376.164" y="27.9951">UC010: &#26032;&#21830;&#21697;&#30331;&#37682;&#27231;&#33021; &#12471;&#12540;&#12465;&#12531;&#12473;&#22259;</text><rect fill="#FFFFFF" height="1514.0391" style="stroke:#A80036;stroke-width:1.0;" width="10" x="23.9999" y="131.5938"/><rect fill="#FFFFFF" height="345.4609" style="stroke:#A80036;stroke-width:1.0;" width="10" x="247.0414" y="182.9922"/><rect fill="#FFFFFF" height="243.0625" style="stroke:#A80036;stroke-width:1.0;" width="10" x="247.0414" y="629.9844"/><rect fill="#FFFFFF" height="525.2578" style="stroke:#A80036;stroke-width:1.0;" width="10" x="247.0414" y="974.5781"/><rect fill="#FFFFFF" height="86.3984" style="stroke:#A80036;stroke-width:1.0;" width="10" x="247.0414" y="1559.2344"/><rect fill="#FFFFFF" height="145.6641" style="stroke:#A80036;stroke-width:1.0;" width="10" x="437.0416" y="296.3906"/><rect fill="#FFFFFF" height="265.1953" style="stroke:#A80036;stroke-width:1.0;" width="10" x="546.7267" y="1163.375"/><rect fill="#FFFFFF" height="87.3984" style="stroke:#A80036;stroke-width:1.0;" width="10" x="656.4117" y="325.5234"/><rect fill="#FFFFFF" height="87.3984" style="stroke:#A80036;stroke-width:1.0;" width="10" x="776.7779" y="1195.5078"/><rect fill="#FFFFFF" height="87.3984" style="stroke:#A80036;stroke-width:1.0;" width="10" x="884.5421" y="1312.0391"/><rect fill="#FFFFFF" height="29.1328" style="stroke:#A80036;stroke-width:1.0;" width="10" x="973.5401" y="354.6563"/><rect fill="#FFFFFF" height="29.1328" style="stroke:#A80036;stroke-width:1.0;" width="10" x="973.5401" y="1224.6406"/><rect fill="#FFFFFF" height="29.1328" style="stroke:#A80036;stroke-width:1.0;" width="10" x="973.5401" y="1341.1719"/><line style="stroke:#A80036;stroke-width:1.0;stroke-dasharray:5.0,5.0;" x1="28" x2="28" y1="121.5938" y2="1663.6328"/><line style="stroke:#A80036;stroke-width:1.0;stroke-dasharray:5.0,5.0;" x1="251.5111" x2="251.5111" y1="121.5938" y2="1663.6328"/><line style="stroke:#A80036;stroke-width:1.0;stroke-dasharray:5.0,5.0;" x1="441.2115" x2="441.2115" y1="121.5938" y2="1663.6328"/><line style="stroke:#A80036;stroke-width:1.0;stroke-dasharray:5.0,5.0;" x1="550.8717" x2="550.8717" y1="121.5938" y2="1663.6328"/><line style="stroke:#A80036;stroke-width:1.0;stroke-dasharray:5.0,5.0;" x1="660.5816" x2="660.5816" y1="121.5938" y2="1663.6328"/><line style="stroke:#A80036;stroke-width:1.0;stroke-dasharray:5.0,5.0;" x1="781.2418" x2="781.2418" y1="121.5938" y2="1663.6328"/><line style="stroke:#A80036;stroke-width:1.0;stroke-dasharray:5.0,5.0;" x1="889.3141" x2="889.3141" y1="121.5938" y2="1663.6328"/><line style="stroke:#A80036;stroke-width:1.0;stroke-dasharray:5.0,5.0;" x1="978.5401" x2="978.5401" y1="121.5938" y2="1663.6328"/><text fill="#000000" font-family="sans-serif" font-size="14" lengthAdjust="spacing" textLength="41.9998" x="5" y="118.292">&#12518;&#12540;&#12470;</text><ellipse cx="28.9999" cy="52.2969" fill="#FEFECE" rx="8" ry="8" style="stroke:#A80036;stroke-width:2.0;"/><path d="M28.9999,60.2969 L28.9999,87.2969 M15.9999,68.2969 L41.9999,68.2969 M28.9999,87.2969 L15.9999,102.2969 M28.9999,87.2969 L41.9999,102.2969 " fill="none" style="stroke:#A80036;stroke-width:2.0;"/><text fill="#000000" font-family="sans-serif" font-size="14" lengthAdjust="spacing" textLength="41.9998" x="5" y="1675.6279">&#12518;&#12540;&#12470;</text><ellipse cx="28.9999" cy="1688.9297" fill="#FEFECE" rx="8" ry="8" style="stroke:#A80036;stroke-width:2.0;"/><path d="M28.9999,1696.9297 L28.9999,1723.9297 M15.9999,1704.9297 L41.9999,1704.9297 M28.9999,1723.9297 L15.9999,1738.9297 M28.9999,1723.9297 L41.9999,1738.9297 " fill="none" style="stroke:#A80036;stroke-width:2.0;"/><rect fill="#FEFECE" height="46.5938" style="stroke:#A80036;stroke-width:1.5;" width="95.0605" x="204.5111" y="74"/><text fill="#000000" font-family="sans-serif" font-size="14" lengthAdjust="spacing" textLength="81.0605" x="211.5111" y="93.9951">ProductAdd</text><text fill="#000000" font-family="sans-serif" font-size="14" lengthAdjust="spacing" textLength="69.1729" x="217.455" y="110.292">Controller</text><rect fill="#FEFECE" height="46.5938" style="stroke:#A80036;stroke-width:1.5;" width="95.0605" x="204.5111" y="1662.6328"/><text fill="#000000" font-family="sans-serif" font-size="14" lengthAdjust="spacing" textLength="81.0605" x="211.5111" y="1682.6279">ProductAdd</text><text fill="#000000" font-family="sans-serif" font-size="14" lengthAdjust="spacing" textLength="69.1729" x="217.455" y="1698.9248">Controller</text><rect fill="#FEFECE" height="46.5938" style="stroke:#A80036;stroke-width:1.5;" width="131.6602" x="376.2115" y="74"/><text fill="#000000" font-family="sans-serif" font-size="14" lengthAdjust="spacing" textLength="117.6602" x="383.2115" y="93.9951">ProductCategory</text><text fill="#000000" font-family="sans-serif" font-size="14" lengthAdjust="spacing" textLength="51.7412" x="416.171" y="110.292">Service</text><rect fill="#FEFECE" height="46.5938" style="stroke:#A80036;stroke-width:1.5;" width="131.6602" x="376.2115" y="1662.6328"/><text fill="#000000" font-family="sans-serif" font-size="14" lengthAdjust="spacing" textLength="117.6602" x="383.2115" y="1682.6279">ProductCategory</text><text fill="#000000" font-family="sans-serif" font-size="14" lengthAdjust="spacing" textLength="51.7412" x="416.171" y="1698.9248">Service</text><rect fill="#FEFECE" height="46.5938" style="stroke:#A80036;stroke-width:1.5;" width="67.71" x="517.8717" y="74"/><text fill="#000000" font-family="sans-serif" font-size="14" lengthAdjust="spacing" textLength="53.71" x="524.8717" y="93.9951">Product</text><text fill="#000000" font-family="sans-serif" font-size="14" lengthAdjust="spacing" textLength="51.7412" x="525.856" y="110.292">Service</text><rect fill="#FEFECE" height="46.5938" style="stroke:#A80036;stroke-width:1.5;" width="67.71" x="517.8717" y="1662.6328"/><text fill="#000000" font-family="sans-serif" font-size="14" lengthAdjust="spacing" textLength="53.71" x="524.8717" y="1682.6279">Product</text><text fill="#000000" font-family="sans-serif" font-size="14" lengthAdjust="spacing" textLength="51.7412" x="525.856" y="1698.9248">Service</text><rect fill="#FEFECE" height="46.5938" style="stroke:#A80036;stroke-width:1.5;" width="131.6602" x="595.5816" y="74"/><text fill="#000000" font-family="sans-serif" font-size="14" lengthAdjust="spacing" textLength="117.6602" x="602.5816" y="93.9951">ProductCategory</text><text fill="#000000" font-family="sans-serif" font-size="14" lengthAdjust="spacing" textLength="75.0723" x="623.8756" y="110.292">Repository</text><rect fill="#FEFECE" height="46.5938" style="stroke:#A80036;stroke-width:1.5;" width="131.6602" x="595.5816" y="1662.6328"/><text fill="#000000" font-family="sans-serif" font-size="14" lengthAdjust="spacing" textLength="117.6602" x="602.5816" y="1682.6279">ProductCategory</text><text fill="#000000" font-family="sans-serif" font-size="14" lengthAdjust="spacing" textLength="75.0723" x="623.8756" y="1698.9248">Repository</text><rect fill="#FEFECE" height="46.5938" style="stroke:#A80036;stroke-width:1.5;" width="89.0723" x="737.2418" y="74"/><text fill="#000000" font-family="sans-serif" font-size="14" lengthAdjust="spacing" textLength="53.71" x="754.9229" y="93.9951">Product</text><text fill="#000000" font-family="sans-serif" font-size="14" lengthAdjust="spacing" textLength="75.0723" x="744.2418" y="110.292">Repository</text><rect fill="#FEFECE" height="46.5938" style="stroke:#A80036;stroke-width:1.5;" width="89.0723" x="737.2418" y="1662.6328"/><text fill="#000000" font-family="sans-serif" font-size="14" lengthAdjust="spacing" textLength="53.71" x="754.9229" y="1682.6279">Product</text><text fill="#000000" font-family="sans-serif" font-size="14" lengthAdjust="spacing" textLength="75.0723" x="744.2418" y="1698.9248">Repository</text><rect fill="#FEFECE" height="46.5938" style="stroke:#A80036;stroke-width:1.5;" width="106.4561" x="836.3141" y="74"/><text fill="#000000" font-family="sans-serif" font-size="14" lengthAdjust="spacing" textLength="92.4561" x="843.3141" y="93.9951">ProductStock</text><text fill="#000000" font-family="sans-serif" font-size="14" lengthAdjust="spacing" textLength="75.0723" x="852.006" y="110.292">Repository</text><rect fill="#FEFECE" height="46.5938" style="stroke:#A80036;stroke-width:1.5;" width="106.4561" x="836.3141" y="1662.6328"/><text fill="#000000" font-family="sans-serif" font-size="14" lengthAdjust="spacing" textLength="92.4561" x="843.3141" y="1682.6279">ProductStock</text><text fill="#000000" font-family="sans-serif" font-size="14" lengthAdjust="spacing" textLength="75.0723" x="852.006" y="1698.9248">Repository</text><text fill="#000000" font-family="sans-serif" font-size="14" lengthAdjust="spacing" textLength="20.3848" x="965.3478" y="118.292">DB</text><path d="M960.5401,69.2969 C960.5401,59.2969 978.5401,59.2969 978.5401,59.2969 C978.5401,59.2969 996.5401,59.2969 996.5401,69.2969 L996.5401,95.2969 C996.5401,105.2969 978.5401,105.2969 978.5401,105.2969 C978.5401,105.2969 960.5401,105.2969 960.5401,95.2969 L960.5401,69.2969 " fill="#FEFECE" style="stroke:#A80036;stroke-width:1.5;"/><path d="M960.5401,69.2969 C960.5401,79.2969 978.5401,79.2969 978.5401,79.2969 C978.5401,79.2969 996.5401,79.2969 996.5401,69.2969 " fill="none" style="stroke:#A80036;stroke-width:1.5;"/><text fill="#000000" font-family="sans-serif" font-size="14" lengthAdjust="spacing" textLength="20.3848" x="965.3478" y="1675.6279">DB</text><path d="M960.5401,1688.9297 C960.5401,1678.9297 978.5401,1678.9297 978.5401,1678.9297 C978.5401,1678.9297 996.5401,1678.9297 996.5401,1688.9297 L996.5401,1714.9297 C996.5401,1724.9297 978.5401,1724.9297 978.5401,1724.9297 C978.5401,1724.9297 960.5401,1724.9297 960.5401,1714.9297 L960.5401,1688.9297 " fill="#FEFECE" style="stroke:#A80036;stroke-width:1.5;"/><path d="M960.5401,1688.9297 C960.5401,1698.9297 978.5401,1698.9297 978.5401,1698.9297 C978.5401,1698.9297 996.5401,1698.9297 996.5401,1688.9297 " fill="none" style="stroke:#A80036;stroke-width:1.5;"/><rect fill="#FFFFFF" height="1514.0391" style="stroke:#A80036;stroke-width:1.0;" width="10" x="23.9999" y="131.5938"/><rect fill="#FFFFFF" height="345.4609" style="stroke:#A80036;stroke-width:1.0;" width="10" x="247.0414" y="182.9922"/><rect fill="#FFFFFF" height="243.0625" style="stroke:#A80036;stroke-width:1.0;" width="10" x="247.0414" y="629.9844"/><rect fill="#FFFFFF" height="525.2578" style="stroke:#A80036;stroke-width:1.0;" width="10" x="247.0414" y="974.5781"/><rect fill="#FFFFFF" height="86.3984" style="stroke:#A80036;stroke-width:1.0;" width="10" x="247.0414" y="1559.2344"/><rect fill="#FFFFFF" height="145.6641" style="stroke:#A80036;stroke-width:1.0;" width="10" x="437.0416" y="296.3906"/><rect fill="#FFFFFF" height="265.1953" style="stroke:#A80036;stroke-width:1.0;" width="10" x="546.7267" y="1163.375"/><rect fill="#FFFFFF" height="87.3984" style="stroke:#A80036;stroke-width:1.0;" width="10" x="656.4117" y="325.5234"/><rect fill="#FFFFFF" height="87.3984" style="stroke:#A80036;stroke-width:1.0;" width="10" x="776.7779" y="1195.5078"/><rect fill="#FFFFFF" height="87.3984" style="stroke:#A80036;stroke-width:1.0;" width="10" x="884.5421" y="1312.0391"/><rect fill="#FFFFFF" height="29.1328" style="stroke:#A80036;stroke-width:1.0;" width="10" x="973.5401" y="354.6563"/><rect fill="#FFFFFF" height="29.1328" style="stroke:#A80036;stroke-width:1.0;" width="10" x="973.5401" y="1224.6406"/><rect fill="#FFFFFF" height="29.1328" style="stroke:#A80036;stroke-width:1.0;" width="10" x="973.5401" y="1341.1719"/><polygon fill="#A80036" points="235.0414,178.9922,245.0414,182.9922,235.0414,186.9922,239.0414,182.9922" style="stroke:#A80036;stroke-width:1.0;"/><line style="stroke:#A80036;stroke-width:1.0;" x1="33.9999" x2="241.0414" y1="182.9922" y2="182.9922"/><text fill="#000000" font-family="sans-serif" font-size="13" lengthAdjust="spacing" textLength="26.2285" x="40.9999" y="147.6606">GET</text><text fill="#000000" font-family="sans-serif" font-size="13" lengthAdjust="spacing" textLength="163.8584" x="40.9999" y="162.7935">/admin/product-add/form</text><text fill="#000000" font-family="sans-serif" font-size="13" lengthAdjust="spacing" textLength="40.6821" x="40.9999" y="177.9263">form()</text><line style="stroke:#A80036;stroke-width:1.0;" x1="257.0414" x2="299.0414" y1="212.125" y2="212.125"/><line style="stroke:#A80036;stroke-width:1.0;" x1="299.0414" x2="299.0414" y1="212.125" y2="225.125"/><line style="stroke:#A80036;stroke-width:1.0;" x1="258.0414" x2="299.0414" y1="225.125" y2="225.125"/><polygon fill="#A80036" points="268.0414,221.125,258.0414,225.125,268.0414,229.125,264.0414,225.125" style="stroke:#A80036;stroke-width:1.0;"/><text fill="#000000" font-family="sans-serif" font-size="13" lengthAdjust="spacing" textLength="81.2183" x="264.0414" y="207.0591">setUpForm()</text><line style="stroke:#A80036;stroke-width:1.0;" x1="257.0414" x2="299.0414" y1="254.2578" y2="254.2578"/><line style="stroke:#A80036;stroke-width:1.0;" x1="299.0414" x2="299.0414" y1="254.2578" y2="267.2578"/><line style="stroke:#A80036;stroke-width:1.0;" x1="258.0414" x2="299.0414" y1="267.2578" y2="267.2578"/><polygon fill="#A80036" points="268.0414,263.2578,258.0414,267.2578,268.0414,271.2578,264.0414,267.2578" style="stroke:#A80036;stroke-width:1.0;"/><text fill="#000000" font-family="sans-serif" font-size="13" lengthAdjust="spacing" textLength="38.4985" x="264.0414" y="249.1919">bind()</text><polygon fill="#A80036" points="425.0416,292.3906,435.0416,296.3906,425.0416,300.3906,429.0416,296.3906" style="stroke:#A80036;stroke-width:1.0;"/><line style="stroke:#A80036;stroke-width:1.0;" x1="257.0414" x2="431.0416" y1="296.3906" y2="296.3906"/><text fill="#000000" font-family="sans-serif" font-size="13" lengthAdjust="spacing" textLength="50.9399" x="264.0414" y="291.3247">findAll()</text><polygon fill="#A80036" points="644.4117,321.5234,654.4117,325.5234,644.4117,329.5234,648.4117,325.5234" style="stroke:#A80036;stroke-width:1.0;"/><line style="stroke:#A80036;stroke-width:1.0;" x1="447.0416" x2="650.4117" y1="325.5234" y2="325.5234"/><text fill="#000000" font-family="sans-serif" font-size="13" lengthAdjust="spacing" textLength="50.9399" x="454.0416" y="320.4575">findAll()</text><polygon fill="#A80036" points="961.5401,350.6563,971.5401,354.6563,961.5401,358.6563,965.5401,354.6563" style="stroke:#A80036;stroke-width:1.0;"/><line style="stroke:#A80036;stroke-width:1.0;" x1="666.4117" x2="967.5401" y1="354.6563" y2="354.6563"/><text fill="#000000" font-family="sans-serif" font-size="13" lengthAdjust="spacing" textLength="61.9404" x="673.4117" y="349.5903">SELECT&#25991;</text><polygon fill="#A80036" points="677.4117,379.7891,667.4117,383.7891,677.4117,387.7891,673.4117,383.7891" style="stroke:#A80036;stroke-width:1.0;"/><line style="stroke:#A80036;stroke-width:1.0;stroke-dasharray:2.0,2.0;" x1="671.4117" x2="977.5401" y1="383.7891" y2="383.7891"/><text fill="#000000" font-family="sans-serif" font-size="13" lengthAdjust="spacing" textLength="153.7656" x="683.4117" y="378.7231">List&lt;ProductCategory&gt;</text><polygon fill="#A80036" points="458.0416,408.9219,448.0416,412.9219,458.0416,416.9219,454.0416,412.9219" style="stroke:#A80036;stroke-width:1.0;"/><line style="stroke:#A80036;stroke-width:1.0;stroke-dasharray:2.0,2.0;" x1="452.0416" x2="660.4117" y1="412.9219" y2="412.9219"/><text fill="#000000" font-family="sans-serif" font-size="13" lengthAdjust="spacing" textLength="153.7656" x="464.0416" y="407.856">List&lt;ProductCategory&gt;</text><polygon fill="#A80036" points="268.0414,438.0547,258.0414,442.0547,268.0414,446.0547,264.0414,442.0547" style="stroke:#A80036;stroke-width:1.0;"/><line style="stroke:#A80036;stroke-width:1.0;stroke-dasharray:2.0,2.0;" x1="262.0414" x2="441.0416" y1="442.0547" y2="442.0547"/><text fill="#000000" font-family="sans-serif" font-size="13" lengthAdjust="spacing" textLength="153.7656" x="274.0414" y="436.9888">List&lt;ProductCategory&gt;</text><line style="stroke:#A80036;stroke-width:1.0;" x1="257.0414" x2="299.0414" y1="486.3203" y2="486.3203"/><line style="stroke:#A80036;stroke-width:1.0;" x1="299.0414" x2="299.0414" y1="486.3203" y2="499.3203"/><line style="stroke:#A80036;stroke-width:1.0;" x1="258.0414" x2="299.0414" y1="499.3203" y2="499.3203"/><polygon fill="#A80036" points="268.0414,495.3203,258.0414,499.3203,268.0414,503.3203,264.0414,499.3203" style="stroke:#A80036;stroke-width:1.0;"/><text fill="#000000" font-family="sans-serif" font-size="13" lengthAdjust="spacing" textLength="65.0318" x="264.0414" y="466.1216">Model&#36861;&#21152;</text><text fill="#000000" font-family="sans-serif" font-size="13" lengthAdjust="spacing" textLength="143.0002" x="264.0414" y="481.2544">&#65288;&#21830;&#21697;&#12459;&#12486;&#12468;&#12522;&#12522;&#12473;&#12488;&#65289;</text><polygon fill="#A80036" points="44.9999,524.4531,34.9999,528.4531,44.9999,532.4531,40.9999,528.4531" style="stroke:#A80036;stroke-width:1.0;"/><line style="stroke:#A80036;stroke-width:1.0;stroke-dasharray:2.0,2.0;" x1="38.9999" x2="251.0414" y1="528.4531" y2="528.4531"/><text fill="#000000" font-family="sans-serif" font-size="13" lengthAdjust="spacing" textLength="52.0001" x="50.9999" y="523.3872">&#20837;&#21147;&#30011;&#38754;</text><line style="stroke:#A80036;stroke-width:1.0;" x1="33.9999" x2="75.9999" y1="557.5859" y2="557.5859"/><line style="stroke:#A80036;stroke-width:1.0;" x1="75.9999" x2="75.9999" y1="557.5859" y2="570.5859"/><line style="stroke:#A80036;stroke-width:1.0;" x1="34.9999" x2="75.9999" y1="570.5859" y2="570.5859"/><polygon fill="#A80036" points="44.9999,566.5859,34.9999,570.5859,44.9999,574.5859,40.9999,570.5859" style="stroke:#A80036;stroke-width:1.0;"/><text fill="#000000" font-family="sans-serif" font-size="13" lengthAdjust="spacing" textLength="78.0001" x="40.9999" y="552.52">&#21830;&#21697;&#24773;&#22577;&#20837;&#21147;</text><polygon fill="#A80036" points="235.0414,625.9844,245.0414,629.9844,235.0414,633.9844,239.0414,629.9844" style="stroke:#A80036;stroke-width:1.0;"/><line style="stroke:#A80036;stroke-width:1.0;" x1="33.9999" x2="241.0414" y1="629.9844" y2="629.9844"/><text fill="#000000" font-family="sans-serif" font-size="13" lengthAdjust="spacing" textLength="34.2646" x="40.9999" y="594.6528">POST</text><text fill="#000000" font-family="sans-serif" font-size="13" lengthAdjust="spacing" textLength="182.8569" x="40.9999" y="609.7856">/admin/product-add/confirm</text><text fill="#000000" font-family="sans-serif" font-size="13" lengthAdjust="spacing" textLength="59.6807" x="40.9999" y="624.9185">confirm()</text><line style="stroke:#A80036;stroke-width:1.0;" x1="257.0414" x2="299.0414" y1="659.1172" y2="659.1172"/><line style="stroke:#A80036;stroke-width:1.0;" x1="299.0414" x2="299.0414" y1="659.1172" y2="672.1172"/><line style="stroke:#A80036;stroke-width:1.0;" x1="258.0414" x2="299.0414" y1="672.1172" y2="672.1172"/><polygon fill="#A80036" points="268.0414,668.1172,258.0414,672.1172,268.0414,676.1172,264.0414,672.1172" style="stroke:#A80036;stroke-width:1.0;"/><text fill="#000000" font-family="sans-serif" font-size="13" lengthAdjust="spacing" textLength="65.0001" x="264.0414" y="654.0513">&#12496;&#12522;&#12487;&#12540;&#12488;</text><line style="stroke:#A80036;stroke-width:1.0;" x1="257.0414" x2="299.0414" y1="716.3828" y2="716.3828"/><line style="stroke:#A80036;stroke-width:1.0;" x1="299.0414" x2="299.0414" y1="716.3828" y2="729.3828"/><line style="stroke:#A80036;stroke-width:1.0;" x1="258.0414" x2="299.0414" y1="729.3828" y2="729.3828"/><polygon fill="#A80036" points="268.0414,725.3828,258.0414,729.3828,268.0414,733.3828,264.0414,729.3828" style="stroke:#A80036;stroke-width:1.0;"/><text fill="#000000" font-family="sans-serif" font-size="13" lengthAdjust="spacing" textLength="65.0318" x="264.0414" y="696.1841">Model&#36861;&#21152;</text><text fill="#000000" font-family="sans-serif" font-size="13" lengthAdjust="spacing" textLength="156.0002" x="264.0414" y="711.3169">&#65288;&#36984;&#25246;&#12375;&#12383;&#21830;&#21697;&#12459;&#12486;&#12468;&#12522;&#65289;</text><line style="stroke:#A80036;stroke-width:1.0;" x1="257.0414" x2="299.0414" y1="773.6484" y2="773.6484"/><line style="stroke:#A80036;stroke-width:1.0;" x1="299.0414" x2="299.0414" y1="773.6484" y2="786.6484"/><line style="stroke:#A80036;stroke-width:1.0;" x1="258.0414" x2="299.0414" y1="786.6484" y2="786.6484"/><polygon fill="#A80036" points="268.0414,782.6484,258.0414,786.6484,268.0414,790.6484,264.0414,786.6484" style="stroke:#A80036;stroke-width:1.0;"/><text fill="#000000" font-family="sans-serif" font-size="13" lengthAdjust="spacing" textLength="65.0318" x="264.0414" y="753.4497">Model&#36861;&#21152;</text><text fill="#000000" font-family="sans-serif" font-size="13" lengthAdjust="spacing" textLength="126.1978" x="264.0414" y="768.5825">&#65288;&#21830;&#21697;&#30011;&#20687;Base64&#65289;</text><line style="stroke:#A80036;stroke-width:1.0;" x1="257.0414" x2="299.0414" y1="830.9141" y2="830.9141"/><line style="stroke:#A80036;stroke-width:1.0;" x1="299.0414" x2="299.0414" y1="830.9141" y2="843.9141"/><line style="stroke:#A80036;stroke-width:1.0;" x1="258.0414" x2="299.0414" y1="843.9141" y2="843.9141"/><polygon fill="#A80036" points="268.0414,839.9141,258.0414,843.9141,268.0414,847.9141,264.0414,843.9141" style="stroke:#A80036;stroke-width:1.0;"/><text fill="#000000" font-family="sans-serif" font-size="13" lengthAdjust="spacing" textLength="65.0318" x="264.0414" y="810.7153">Model&#36861;&#21152;</text><text fill="#000000" font-family="sans-serif" font-size="13" lengthAdjust="spacing" textLength="156.0002" x="264.0414" y="825.8481">&#65288;&#21830;&#21697;&#30011;&#20687;&#12496;&#12452;&#12488;&#12487;&#12540;&#12479;&#65289;</text><path d="M442.0002,810.7148 L442.0002,835.7148 L749.0002,835.7148 L749.0002,820.7148 L739.0002,810.7148 L442.0002,810.7148 " fill="#FBFB77" style="stroke:#A80036;stroke-width:1.0;"/><path d="M739.0002,810.7148 L739.0002,820.7148 L749.0002,820.7148 L739.0002,810.7148 " fill="#FBFB77" style="stroke:#A80036;stroke-width:1.0;"/><text fill="#000000" font-family="sans-serif" font-size="13" lengthAdjust="spacing" textLength="286.0003" x="448.0002" y="827.7817">&#30011;&#20687;&#12487;&#12540;&#12479;&#12434;&#23436;&#20102;&#30011;&#38754;&#12391;&#20351;&#12358;&#12398;&#12391;&#12475;&#12483;&#12471;&#12519;&#12531;&#26684;&#32013;</text><polygon fill="#A80036" points="44.9999,869.0469,34.9999,873.0469,44.9999,877.0469,40.9999,873.0469" style="stroke:#A80036;stroke-width:1.0;"/><line style="stroke:#A80036;stroke-width:1.0;stroke-dasharray:2.0,2.0;" x1="38.9999" x2="251.0414" y1="873.0469" y2="873.0469"/><text fill="#000000" font-family="sans-serif" font-size="13" lengthAdjust="spacing" textLength="52.0001" x="50.9999" y="867.981">&#30906;&#35469;&#30011;&#38754;</text><line style="stroke:#A80036;stroke-width:1.0;" x1="33.9999" x2="75.9999" y1="902.1797" y2="902.1797"/><line style="stroke:#A80036;stroke-width:1.0;" x1="75.9999" x2="75.9999" y1="902.1797" y2="915.1797"/><line style="stroke:#A80036;stroke-width:1.0;" x1="34.9999" x2="75.9999" y1="915.1797" y2="915.1797"/><polygon fill="#A80036" points="44.9999,911.1797,34.9999,915.1797,44.9999,919.1797,40.9999,915.1797" style="stroke:#A80036;stroke-width:1.0;"/><text fill="#000000" font-family="sans-serif" font-size="13" lengthAdjust="spacing" textLength="78.0001" x="40.9999" y="897.1138">&#20837;&#21147;&#20869;&#23481;&#30906;&#35469;</text><polygon fill="#A80036" points="235.0414,970.5781,245.0414,974.5781,235.0414,978.5781,239.0414,974.5781" style="stroke:#A80036;stroke-width:1.0;"/><line style="stroke:#A80036;stroke-width:1.0;" x1="33.9999" x2="241.0414" y1="974.5781" y2="974.5781"/><text fill="#000000" font-family="sans-serif" font-size="13" lengthAdjust="spacing" textLength="34.2646" x="40.9999" y="939.2466">POST</text><text fill="#000000" font-family="sans-serif" font-size="13" lengthAdjust="spacing" textLength="185.4912" x="40.9999" y="954.3794">/admin/product-add/execute</text><text fill="#000000" font-family="sans-serif" font-size="13" lengthAdjust="spacing" textLength="62.3149" x="40.9999" y="969.5122">execute()</text><line style="stroke:#A80036;stroke-width:1.0;" x1="257.0414" x2="299.0414" y1="1003.7109" y2="1003.7109"/><line style="stroke:#A80036;stroke-width:1.0;" x1="299.0414" x2="299.0414" y1="1003.7109" y2="1016.7109"/><line style="stroke:#A80036;stroke-width:1.0;" x1="258.0414" x2="299.0414" y1="1016.7109" y2="1016.7109"/><polygon fill="#A80036" points="268.0414,1012.7109,258.0414,1016.7109,268.0414,1020.7109,264.0414,1016.7109" style="stroke:#A80036;stroke-width:1.0;"/><text fill="#000000" font-family="sans-serif" font-size="13" lengthAdjust="spacing" textLength="91.0001" x="264.0414" y="998.645">&#12475;&#12483;&#12471;&#12519;&#12531;&#30906;&#35469;</text><path d="M377.0001,991.0781 L377.0001,1016.0781 L658.0001,1016.0781 L658.0001,1001.0781 L648.0001,991.0781 L377.0001,991.0781 " fill="#FBFB77" style="stroke:#A80036;stroke-width:1.0;"/><path d="M648.0001,991.0781 L648.0001,1001.0781 L658.0001,1001.0781 L648.0001,991.0781 " fill="#FBFB77" style="stroke:#A80036;stroke-width:1.0;"/><text fill="#000000" font-family="sans-serif" font-size="13" lengthAdjust="spacing" textLength="260.0003" x="383.0001" y="1008.145">&#12475;&#12483;&#12471;&#12519;&#12531;&#24773;&#22577;&#12364;&#12394;&#12356;&#22580;&#21512;&#12399;&#12471;&#12473;&#12486;&#12512;&#12456;&#12521;&#12540;</text><line style="stroke:#A80036;stroke-width:1.0;" x1="257.0414" x2="299.0414" y1="1060.9766" y2="1060.9766"/><line style="stroke:#A80036;stroke-width:1.0;" x1="299.0414" x2="299.0414" y1="1060.9766" y2="1073.9766"/><line style="stroke:#A80036;stroke-width:1.0;" x1="258.0414" x2="299.0414" y1="1073.9766" y2="1073.9766"/><polygon fill="#A80036" points="268.0414,1069.9766,258.0414,1073.9766,268.0414,1077.9766,264.0414,1073.9766" style="stroke:#A80036;stroke-width:1.0;"/><text fill="#000000" font-family="sans-serif" font-size="13" lengthAdjust="spacing" textLength="117.0001" x="264.0414" y="1040.7778">&#30011;&#20687;&#20445;&#23384;&#12501;&#12449;&#12452;&#12523;&#21517;</text><text fill="#000000" font-family="sans-serif" font-size="13" lengthAdjust="spacing" textLength="91.0318" x="264.0414" y="1055.9106">&#12434;Model&#12395;&#36861;&#21152;</text><line style="stroke:#A80036;stroke-width:1.0;" x1="257.0414" x2="299.0414" y1="1118.2422" y2="1118.2422"/><line style="stroke:#A80036;stroke-width:1.0;" x1="299.0414" x2="299.0414" y1="1118.2422" y2="1131.2422"/><line style="stroke:#A80036;stroke-width:1.0;" x1="258.0414" x2="299.0414" y1="1131.2422" y2="1131.2422"/><polygon fill="#A80036" points="268.0414,1127.2422,258.0414,1131.2422,268.0414,1135.2422,264.0414,1131.2422" style="stroke:#A80036;stroke-width:1.0;"/><text fill="#000000" font-family="sans-serif" font-size="13" lengthAdjust="spacing" textLength="65.0001" x="264.0414" y="1098.0435">&#12501;&#12457;&#12540;&#12512;&#12434;</text><text fill="#000000" font-family="sans-serif" font-size="13" lengthAdjust="spacing" textLength="117.0001" x="264.0414" y="1113.1763">&#12456;&#12531;&#12486;&#12451;&#12486;&#12451;&#12395;&#22793;&#25563;</text><polygon fill="#A80036" points="534.7267,1159.375,544.7267,1163.375,534.7267,1167.375,538.7267,1163.375" style="stroke:#A80036;stroke-width:1.0;"/><line style="stroke:#A80036;stroke-width:1.0;" x1="257.0414" x2="540.7267" y1="1163.375" y2="1163.375"/><text fill="#000000" font-family="sans-serif" font-size="13" lengthAdjust="spacing" textLength="151.4995" x="264.0414" y="1158.3091">insert(Product product)</text><path d="M561,1144.2422 L561,1169.2422 L712,1169.2422 L712,1154.2422 L702,1144.2422 L561,1144.2422 " fill="#FBFB77" style="stroke:#A80036;stroke-width:1.0;"/><path d="M702,1144.2422 L702,1154.2422 L712,1154.2422 L702,1144.2422 " fill="#FBFB77" style="stroke:#A80036;stroke-width:1.0;"/><text fill="#000000" font-family="sans-serif" font-size="13" lengthAdjust="spacing" textLength="130.0002" x="567" y="1161.3091">&#12488;&#12521;&#12531;&#12470;&#12463;&#12471;&#12519;&#12531;&#20966;&#29702;</text><polygon fill="#A80036" points="764.7779,1191.5078,774.7779,1195.5078,764.7779,1199.5078,768.7779,1195.5078" style="stroke:#A80036;stroke-width:1.0;"/><line style="stroke:#A80036;stroke-width:1.0;" x1="556.7267" x2="770.7779" y1="1195.5078" y2="1195.5078"/><text fill="#000000" font-family="sans-serif" font-size="13" lengthAdjust="spacing" textLength="151.4995" x="563.7267" y="1190.4419">insert(Product product)</text><polygon fill="#A80036" points="961.5401,1220.6406,971.5401,1224.6406,961.5401,1228.6406,965.5401,1224.6406" style="stroke:#A80036;stroke-width:1.0;"/><line style="stroke:#A80036;stroke-width:1.0;" x1="786.7779" x2="967.5401" y1="1224.6406" y2="1224.6406"/><text fill="#000000" font-family="sans-serif" font-size="13" lengthAdjust="spacing" textLength="59.9981" x="793.7779" y="1219.5747">INSERT&#25991;</text><polygon fill="#A80036" points="797.7779,1249.7734,787.7779,1253.7734,797.7779,1257.7734,793.7779,1253.7734" style="stroke:#A80036;stroke-width:1.0;"/><line style="stroke:#A80036;stroke-width:1.0;stroke-dasharray:2.0,2.0;" x1="791.7779" x2="977.5401" y1="1253.7734" y2="1253.7734"/><text fill="#000000" font-family="sans-serif" font-size="13" lengthAdjust="spacing" textLength="27.5107" x="803.7779" y="1248.7075">void</text><polygon fill="#A80036" points="567.7267,1278.9063,557.7267,1282.9063,567.7267,1286.9063,563.7267,1282.9063" style="stroke:#A80036;stroke-width:1.0;"/><line style="stroke:#A80036;stroke-width:1.0;stroke-dasharray:2.0,2.0;" x1="561.7267" x2="780.7779" y1="1282.9063" y2="1282.9063"/><text fill="#000000" font-family="sans-serif" font-size="13" lengthAdjust="spacing" textLength="27.5107" x="573.7267" y="1277.8403">void</text><polygon fill="#A80036" points="872.5421,1308.0391,882.5421,1312.0391,872.5421,1316.0391,876.5421,1312.0391" style="stroke:#A80036;stroke-width:1.0;"/><line style="stroke:#A80036;stroke-width:1.0;" x1="556.7267" x2="878.5421" y1="1312.0391" y2="1312.0391"/><text fill="#000000" font-family="sans-serif" font-size="13" lengthAdjust="spacing" textLength="133.0596" x="563.7267" y="1306.9731">insert(ProductStock)</text><polygon fill="#A80036" points="961.5401,1337.1719,971.5401,1341.1719,961.5401,1345.1719,965.5401,1341.1719" style="stroke:#A80036;stroke-width:1.0;"/><line style="stroke:#A80036;stroke-width:1.0;" x1="894.5421" x2="967.5401" y1="1341.1719" y2="1341.1719"/><text fill="#000000" font-family="sans-serif" font-size="13" lengthAdjust="spacing" textLength="59.9981" x="901.5421" y="1336.106">INSERT&#25991;</text><polygon fill="#A80036" points="905.5421,1366.3047,895.5421,1370.3047,905.5421,1374.3047,901.5421,1370.3047" style="stroke:#A80036;stroke-width:1.0;"/><line style="stroke:#A80036;stroke-width:1.0;stroke-dasharray:2.0,2.0;" x1="899.5421" x2="977.5401" y1="1370.3047" y2="1370.3047"/><text fill="#000000" font-family="sans-serif" font-size="13" lengthAdjust="spacing" textLength="27.5107" x="911.5421" y="1365.2388">void</text><polygon fill="#A80036" points="567.7267,1395.4375,557.7267,1399.4375,567.7267,1403.4375,563.7267,1399.4375" style="stroke:#A80036;stroke-width:1.0;"/><line style="stroke:#A80036;stroke-width:1.0;stroke-dasharray:2.0,2.0;" x1="561.7267" x2="888.5421" y1="1399.4375" y2="1399.4375"/><text fill="#000000" font-family="sans-serif" font-size="13" lengthAdjust="spacing" textLength="27.5107" x="573.7267" y="1394.3716">void</text><polygon fill="#A80036" points="268.0414,1424.5703,258.0414,1428.5703,268.0414,1432.5703,264.0414,1428.5703" style="stroke:#A80036;stroke-width:1.0;"/><line style="stroke:#A80036;stroke-width:1.0;stroke-dasharray:2.0,2.0;" x1="262.0414" x2="550.7267" y1="1428.5703" y2="1428.5703"/><text fill="#000000" font-family="sans-serif" font-size="13" lengthAdjust="spacing" textLength="27.5107" x="274.0414" y="1423.5044">void</text><line style="stroke:#A80036;stroke-width:1.0;" x1="257.0414" x2="299.0414" y1="1457.7031" y2="1457.7031"/><line style="stroke:#A80036;stroke-width:1.0;" x1="299.0414" x2="299.0414" y1="1457.7031" y2="1470.7031"/><line style="stroke:#A80036;stroke-width:1.0;" x1="258.0414" x2="299.0414" y1="1470.7031" y2="1470.7031"/><polygon fill="#A80036" points="268.0414,1466.7031,258.0414,1470.7031,268.0414,1474.7031,264.0414,1470.7031" style="stroke:#A80036;stroke-width:1.0;"/><text fill="#000000" font-family="sans-serif" font-size="13" lengthAdjust="spacing" textLength="91.0001" x="264.0414" y="1452.6372">&#12475;&#12483;&#12471;&#12519;&#12531;&#30772;&#26820;</text><polygon fill="#A80036" points="44.9999,1495.8359,34.9999,1499.8359,44.9999,1503.8359,40.9999,1499.8359" style="stroke:#A80036;stroke-width:1.0;"/><line style="stroke:#A80036;stroke-width:1.0;stroke-dasharray:2.0,2.0;" x1="38.9999" x2="251.0414" y1="1499.8359" y2="1499.8359"/><text fill="#000000" font-family="sans-serif" font-size="13" lengthAdjust="spacing" textLength="78.0001" x="50.9999" y="1494.77">&#12522;&#12480;&#12452;&#12524;&#12463;&#12488;</text><polygon fill="#A80036" points="235.0414,1555.2344,245.0414,1559.2344,235.0414,1563.2344,239.0414,1559.2344" style="stroke:#A80036;stroke-width:1.0;"/><line style="stroke:#A80036;stroke-width:1.0;" x1="33.9999" x2="241.0414" y1="1559.2344" y2="1559.2344"/><text fill="#000000" font-family="sans-serif" font-size="13" lengthAdjust="spacing" textLength="26.2285" x="40.9999" y="1523.9028">GET</text><text fill="#000000" font-family="sans-serif" font-size="13" lengthAdjust="spacing" textLength="194.0415" x="40.9999" y="1539.0356">/admin/product-add/complete</text><text fill="#000000" font-family="sans-serif" font-size="13" lengthAdjust="spacing" textLength="70.8652" x="40.9999" y="1554.1685">complete()</text><line style="stroke:#A80036;stroke-width:1.0;" x1="257.0414" x2="299.0414" y1="1603.5" y2="1603.5"/><line style="stroke:#A80036;stroke-width:1.0;" x1="299.0414" x2="299.0414" y1="1603.5" y2="1616.5"/><line style="stroke:#A80036;stroke-width:1.0;" x1="258.0414" x2="299.0414" y1="1616.5" y2="1616.5"/><polygon fill="#A80036" points="268.0414,1612.5,258.0414,1616.5,268.0414,1620.5,264.0414,1616.5" style="stroke:#A80036;stroke-width:1.0;"/><text fill="#000000" font-family="sans-serif" font-size="13" lengthAdjust="spacing" textLength="78.0318" x="264.0414" y="1583.3013">Model&#12395;&#36861;&#21152;</text><text fill="#000000" font-family="sans-serif" font-size="13" lengthAdjust="spacing" textLength="65.0001" x="264.0414" y="1598.4341">&#65288;&#21830;&#21697;&#21517;&#65289;</text><path d="M364.0318,1583.3008 L364.0318,1608.3008 L555.0318,1608.3008 L555.0318,1593.3008 L545.0318,1583.3008 L364.0318,1583.3008 " fill="#FBFB77" style="stroke:#A80036;stroke-width:1.0;"/><path d="M545.0318,1583.3008 L545.0318,1593.3008 L555.0318,1593.3008 L545.0318,1583.3008 " fill="#FBFB77" style="stroke:#A80036;stroke-width:1.0;"/><text fill="#000000" font-family="sans-serif" font-size="13" lengthAdjust="spacing" textLength="170.8853" x="370.0318" y="1600.3677">RedirectAttributes&#12363;&#12425;&#21462;&#24471;</text><polygon fill="#A80036" points="39.9999,1641.6328,29.9999,1645.6328,39.9999,1649.6328,35.9999,1645.6328" style="stroke:#A80036;stroke-width:1.0;"/><line style="stroke:#A80036;stroke-width:1.0;stroke-dasharray:2.0,2.0;" x1="33.9999" x2="251.0414" y1="1645.6328" y2="1645.6328"/><text fill="#000000" font-family="sans-serif" font-size="13" lengthAdjust="spacing" textLength="52.0001" x="45.9999" y="1640.5669">&#23436;&#20102;&#30011;&#38754;</text><!--SRC=[fLPRJzH057xlhvZmeeHiWDNuG0m9Duq9Ac7nRLzAEy34fTsq0-gRRM6v286We8Oewrr0GPIeo28_vZ2xyCHVS6RQnMrtAHAJJNVQS-lvlZFVrBvB36IPDbPiliggbZgCx25LD-yHOn0Dg1bkKIYX6OpkT3GrDxMWuj8NjfXZZvtIyzsZcQ_5rPL3Rm-1-mEy0hXRu7q3TuSjVrDKZPeM0k-zD7n7ger6R6o9vsHKfTY_uoKfqKXMDIYgwx5CVKIZRRgUDZfCWrfc9eEjEX6gdTpM3EdW2GTDwq7QI65hb6XO1jcZMdDDzogtv1bPUt7Mj0blw86CiFZjfLCort2j_H8fQcftQ_ed5LsbQhzgOzJPhYWN41j_nwQNIqzsZrwyLWHkAD5Q0GbgQ40jw7fNNzfeLFLXOZHc_H89LTSR1qnhE6s8wyLwfI8edA85sPZUoLuxqwsV67gLXq3QVui1RcxBPBY7VCPj4goeqN_8hPtjlYdLrTtLqLTScb3uayH9M2B1RTt4fbSZdBIMKvIhntW6zb0ZCUunpTyqTPmvtDzZq_cqSLoOzBS2kElWvS3T1czD_DmTy2QF2rEXJ3oLpvme72AK4rnw_UjmRJP2iFpdlh96qHjd-Iq_xjGHwBcTgZq3t760Y3485l4KWpSlEvaGMzURF0yWHyxFulHBS9w2ir8DJXIJVqANeyAykNQ-6wvS_ey4eYdtBMydwClT5yaCaokHHGQ7Q0ig-mLcS1VOnip1hvnF2pWV3lRsmSc1iy7NuEw2vqdT-y15hvWlbBPdJoSyHB3OqHMPgmYN9BFSEDlOyUFEJpY-ZxKHYjD6i3Y3y70pGT5ARABjoca4PmQSDN36M7wRpK-2ioaSnFJdmCk3-n6yLOvbN6KVyuFz5-ppC_0MmNqbILfdyxDfWpCW6GLdtISrVcXvzAgSM5vwGKH_5AUHcBqtmTLPPs-dYdFBrUgLzF4a1WUQNWma0GM8reUX42EqAW-wx-1kdc329jwNvdEAJ1ReLtDyLj-bGWHlt4frzKP5C92sKPFevOZoE_yrL5QjsOiyRVoIoJDB9YCbawUNhA6gqdgEQSjl5z-C-ID-bIU8ffDIz52EnIU1DnUaynw1cZcSpM2n7Sgh-FqGdheAAU5Z6LMDNgmJ2_El5aejqi-tcWtE8t2dsDmI-_qqvWYeL015nw7leZy0]--></g></svg>