<?xml version="1.0" encoding="us-ascii" standalone="no"?><svg xmlns="http://www.w3.org/2000/svg" xmlns:xlink="http://www.w3.org/1999/xlink" contentStyleType="text/css" height="1745px" preserveAspectRatio="none" style="width:1017px;height:1745px;background:#FFFFFF;" version="1.1" viewBox="0 0 1017 1745" width="1017px" zoomAndPan="magnify"><defs/><g><text fill="#000000" font-family="sans-serif" font-size="14" font-weight="bold" lengthAdjust="spacing" textLength="262" x="371" y="27.9951">UC010: &#26032;&#21830;&#21697;&#30331;&#37682;&#27231;&#33021; &#12471;&#12540;&#12465;&#12531;&#12473;&#22259;</text><rect fill="#FFFFFF" height="1514.0391" style="stroke:#A80036;stroke-width:1.0;" width="10" x="24" y="131.5938"/><rect fill="#FFFFFF" height="345.4609" style="stroke:#A80036;stroke-width:1.0;" width="10" x="243" y="182.9922"/><rect fill="#FFFFFF" height="243.0625" style="stroke:#A80036;stroke-width:1.0;" width="10" x="243" y="629.9844"/><rect fill="#FFFFFF" height="483.125" style="stroke:#A80036;stroke-width:1.0;" width="10" x="243" y="974.5781"/><rect fill="#FFFFFF" height="128.5313" style="stroke:#A80036;stroke-width:1.0;" width="10" x="243" y="1517.1016"/><rect fill="#FFFFFF" height="145.6641" style="stroke:#A80036;stroke-width:1.0;" width="10" x="427" y="296.3906"/><rect fill="#FFFFFF" height="265.1953" style="stroke:#A80036;stroke-width:1.0;" width="10" x="540" y="1163.375"/><rect fill="#FFFFFF" height="87.3984" style="stroke:#A80036;stroke-width:1.0;" width="10" x="653" y="325.5234"/><rect fill="#FFFFFF" height="87.3984" style="stroke:#A80036;stroke-width:1.0;" width="10" x="777.5" y="1195.5078"/><rect fill="#FFFFFF" height="87.3984" style="stroke:#A80036;stroke-width:1.0;" width="10" x="890" y="1312.0391"/><rect fill="#FFFFFF" height="29.1328" style="stroke:#A80036;stroke-width:1.0;" width="10" x="977" y="354.6563"/><rect fill="#FFFFFF" height="29.1328" style="stroke:#A80036;stroke-width:1.0;" width="10" x="977" y="1224.6406"/><rect fill="#FFFFFF" height="29.1328" style="stroke:#A80036;stroke-width:1.0;" width="10" x="977" y="1341.1719"/><line style="stroke:#A80036;stroke-width:1.0;stroke-dasharray:5.0,5.0;" x1="29" x2="29" y1="121.5938" y2="1663.6328"/><line style="stroke:#A80036;stroke-width:1.0;stroke-dasharray:5.0,5.0;" x1="248" x2="248" y1="121.5938" y2="1663.6328"/><line style="stroke:#A80036;stroke-width:1.0;stroke-dasharray:5.0,5.0;" x1="432" x2="432" y1="121.5938" y2="1663.6328"/><line style="stroke:#A80036;stroke-width:1.0;stroke-dasharray:5.0,5.0;" x1="545" x2="545" y1="121.5938" y2="1663.6328"/><line style="stroke:#A80036;stroke-width:1.0;stroke-dasharray:5.0,5.0;" x1="658" x2="658" y1="121.5938" y2="1663.6328"/><line style="stroke:#A80036;stroke-width:1.0;stroke-dasharray:5.0,5.0;" x1="782" x2="782" y1="121.5938" y2="1663.6328"/><line style="stroke:#A80036;stroke-width:1.0;stroke-dasharray:5.0,5.0;" x1="895" x2="895" y1="121.5938" y2="1663.6328"/><line style="stroke:#A80036;stroke-width:1.0;stroke-dasharray:5.0,5.0;" x1="982" x2="982" y1="121.5938" y2="1663.6328"/><text fill="#000000" font-family="sans-serif" font-size="14" lengthAdjust="spacing" textLength="42" x="5" y="118.292">&#12518;&#12540;&#12470;</text><ellipse cx="29" cy="52.2969" fill="#FEFECE" rx="8" ry="8" style="stroke:#A80036;stroke-width:2.0;"/><path d="M29,60.2969 L29,87.2969 M16,68.2969 L42,68.2969 M29,87.2969 L16,102.2969 M29,87.2969 L42,102.2969 " fill="none" style="stroke:#A80036;stroke-width:2.0;"/><text fill="#000000" font-family="sans-serif" font-size="14" lengthAdjust="spacing" textLength="42" x="5" y="1675.6279">&#12518;&#12540;&#12470;</text><ellipse cx="29" cy="1688.9297" fill="#FEFECE" rx="8" ry="8" style="stroke:#A80036;stroke-width:2.0;"/><path d="M29,1696.9297 L29,1723.9297 M16,1704.9297 L42,1704.9297 M29,1723.9297 L16,1738.9297 M29,1723.9297 L42,1738.9297 " fill="none" style="stroke:#A80036;stroke-width:2.0;"/><rect fill="#FEFECE" height="46.5938" style="stroke:#A80036;stroke-width:1.5;" width="98" x="199" y="74"/><text fill="#000000" font-family="sans-serif" font-size="14" lengthAdjust="spacing" textLength="84" x="206" y="93.9951">ProductAdd</text><text fill="#000000" font-family="sans-serif" font-size="14" lengthAdjust="spacing" textLength="73" x="211.5" y="110.292">Controller</text><rect fill="#FEFECE" height="46.5938" style="stroke:#A80036;stroke-width:1.5;" width="98" x="199" y="1662.6328"/><text fill="#000000" font-family="sans-serif" font-size="14" lengthAdjust="spacing" textLength="84" x="206" y="1682.6279">ProductAdd</text><text fill="#000000" font-family="sans-serif" font-size="14" lengthAdjust="spacing" textLength="73" x="211.5" y="1698.9248">Controller</text><rect fill="#FEFECE" height="46.5938" style="stroke:#A80036;stroke-width:1.5;" width="136" x="364" y="74"/><text fill="#000000" font-family="sans-serif" font-size="14" lengthAdjust="spacing" textLength="122" x="371" y="93.9951">ProductCategory</text><text fill="#000000" font-family="sans-serif" font-size="14" lengthAdjust="spacing" textLength="53" x="405.5" y="110.292">Service</text><rect fill="#FEFECE" height="46.5938" style="stroke:#A80036;stroke-width:1.5;" width="136" x="364" y="1662.6328"/><text fill="#000000" font-family="sans-serif" font-size="14" lengthAdjust="spacing" textLength="122" x="371" y="1682.6279">ProductCategory</text><text fill="#000000" font-family="sans-serif" font-size="14" lengthAdjust="spacing" textLength="53" x="405.5" y="1698.9248">Service</text><rect fill="#FEFECE" height="46.5938" style="stroke:#A80036;stroke-width:1.5;" width="70" x="510" y="74"/><text fill="#000000" font-family="sans-serif" font-size="14" lengthAdjust="spacing" textLength="56" x="517" y="93.9951">Product</text><text fill="#000000" font-family="sans-serif" font-size="14" lengthAdjust="spacing" textLength="53" x="518.5" y="110.292">Service</text><rect fill="#FEFECE" height="46.5938" style="stroke:#A80036;stroke-width:1.5;" width="70" x="510" y="1662.6328"/><text fill="#000000" font-family="sans-serif" font-size="14" lengthAdjust="spacing" textLength="56" x="517" y="1682.6279">Product</text><text fill="#000000" font-family="sans-serif" font-size="14" lengthAdjust="spacing" textLength="53" x="518.5" y="1698.9248">Service</text><rect fill="#FEFECE" height="46.5938" style="stroke:#A80036;stroke-width:1.5;" width="136" x="590" y="74"/><text fill="#000000" font-family="sans-serif" font-size="14" lengthAdjust="spacing" textLength="122" x="597" y="93.9951">ProductCategory</text><text fill="#000000" font-family="sans-serif" font-size="14" lengthAdjust="spacing" textLength="79" x="618.5" y="110.292">Repository</text><rect fill="#FEFECE" height="46.5938" style="stroke:#A80036;stroke-width:1.5;" width="136" x="590" y="1662.6328"/><text fill="#000000" font-family="sans-serif" font-size="14" lengthAdjust="spacing" textLength="122" x="597" y="1682.6279">ProductCategory</text><text fill="#000000" font-family="sans-serif" font-size="14" lengthAdjust="spacing" textLength="79" x="618.5" y="1698.9248">Repository</text><rect fill="#FEFECE" height="46.5938" style="stroke:#A80036;stroke-width:1.5;" width="93" x="736" y="74"/><text fill="#000000" font-family="sans-serif" font-size="14" lengthAdjust="spacing" textLength="56" x="754.5" y="93.9951">Product</text><text fill="#000000" font-family="sans-serif" font-size="14" lengthAdjust="spacing" textLength="79" x="743" y="110.292">Repository</text><rect fill="#FEFECE" height="46.5938" style="stroke:#A80036;stroke-width:1.5;" width="93" x="736" y="1662.6328"/><text fill="#000000" font-family="sans-serif" font-size="14" lengthAdjust="spacing" textLength="56" x="754.5" y="1682.6279">Product</text><text fill="#000000" font-family="sans-serif" font-size="14" lengthAdjust="spacing" textLength="79" x="743" y="1698.9248">Repository</text><rect fill="#FEFECE" height="46.5938" style="stroke:#A80036;stroke-width:1.5;" width="112" x="839" y="74"/><text fill="#000000" font-family="sans-serif" font-size="14" lengthAdjust="spacing" textLength="98" x="846" y="93.9951">ProductStock</text><text fill="#000000" font-family="sans-serif" font-size="14" lengthAdjust="spacing" textLength="79" x="855.5" y="110.292">Repository</text><rect fill="#FEFECE" height="46.5938" style="stroke:#A80036;stroke-width:1.5;" width="112" x="839" y="1662.6328"/><text fill="#000000" font-family="sans-serif" font-size="14" lengthAdjust="spacing" textLength="98" x="846" y="1682.6279">ProductStock</text><text fill="#000000" font-family="sans-serif" font-size="14" lengthAdjust="spacing" textLength="79" x="855.5" y="1698.9248">Repository</text><text fill="#000000" font-family="sans-serif" font-size="14" lengthAdjust="spacing" textLength="21" x="968.5" y="118.292">DB</text><path d="M964,69.2969 C964,59.2969 982,59.2969 982,59.2969 C982,59.2969 1000,59.2969 1000,69.2969 L1000,95.2969 C1000,105.2969 982,105.2969 982,105.2969 C982,105.2969 964,105.2969 964,95.2969 L964,69.2969 " fill="#FEFECE" style="stroke:#A80036;stroke-width:1.5;"/><path d="M964,69.2969 C964,79.2969 982,79.2969 982,79.2969 C982,79.2969 1000,79.2969 1000,69.2969 " fill="none" style="stroke:#A80036;stroke-width:1.5;"/><text fill="#000000" font-family="sans-serif" font-size="14" lengthAdjust="spacing" textLength="21" x="968.5" y="1675.6279">DB</text><path d="M964,1688.9297 C964,1678.9297 982,1678.9297 982,1678.9297 C982,1678.9297 1000,1678.9297 1000,1688.9297 L1000,1714.9297 C1000,1724.9297 982,1724.9297 982,1724.9297 C982,1724.9297 964,1724.9297 964,1714.9297 L964,1688.9297 " fill="#FEFECE" style="stroke:#A80036;stroke-width:1.5;"/><path d="M964,1688.9297 C964,1698.9297 982,1698.9297 982,1698.9297 C982,1698.9297 1000,1698.9297 1000,1688.9297 " fill="none" style="stroke:#A80036;stroke-width:1.5;"/><rect fill="#FFFFFF" height="1514.0391" style="stroke:#A80036;stroke-width:1.0;" width="10" x="24" y="131.5938"/><rect fill="#FFFFFF" height="345.4609" style="stroke:#A80036;stroke-width:1.0;" width="10" x="243" y="182.9922"/><rect fill="#FFFFFF" height="243.0625" style="stroke:#A80036;stroke-width:1.0;" width="10" x="243" y="629.9844"/><rect fill="#FFFFFF" height="483.125" style="stroke:#A80036;stroke-width:1.0;" width="10" x="243" y="974.5781"/><rect fill="#FFFFFF" height="128.5313" style="stroke:#A80036;stroke-width:1.0;" width="10" x="243" y="1517.1016"/><rect fill="#FFFFFF" height="145.6641" style="stroke:#A80036;stroke-width:1.0;" width="10" x="427" y="296.3906"/><rect fill="#FFFFFF" height="265.1953" style="stroke:#A80036;stroke-width:1.0;" width="10" x="540" y="1163.375"/><rect fill="#FFFFFF" height="87.3984" style="stroke:#A80036;stroke-width:1.0;" width="10" x="653" y="325.5234"/><rect fill="#FFFFFF" height="87.3984" style="stroke:#A80036;stroke-width:1.0;" width="10" x="777.5" y="1195.5078"/><rect fill="#FFFFFF" height="87.3984" style="stroke:#A80036;stroke-width:1.0;" width="10" x="890" y="1312.0391"/><rect fill="#FFFFFF" height="29.1328" style="stroke:#A80036;stroke-width:1.0;" width="10" x="977" y="354.6563"/><rect fill="#FFFFFF" height="29.1328" style="stroke:#A80036;stroke-width:1.0;" width="10" x="977" y="1224.6406"/><rect fill="#FFFFFF" height="29.1328" style="stroke:#A80036;stroke-width:1.0;" width="10" x="977" y="1341.1719"/><polygon fill="#A80036" points="231,178.9922,241,182.9922,231,186.9922,235,182.9922" style="stroke:#A80036;stroke-width:1.0;"/><line style="stroke:#A80036;stroke-width:1.0;" x1="34" x2="237" y1="182.9922" y2="182.9922"/><text fill="#000000" font-family="sans-serif" font-size="13" lengthAdjust="spacing" textLength="26" x="41" y="147.6606">GET</text><text fill="#000000" font-family="sans-serif" font-size="13" lengthAdjust="spacing" textLength="161" x="41" y="162.7935">/admin/product-add/form</text><text fill="#000000" font-family="sans-serif" font-size="13" lengthAdjust="spacing" textLength="41" x="41" y="177.9263">form()</text><line style="stroke:#A80036;stroke-width:1.0;" x1="253" x2="295" y1="212.125" y2="212.125"/><line style="stroke:#A80036;stroke-width:1.0;" x1="295" x2="295" y1="212.125" y2="225.125"/><line style="stroke:#A80036;stroke-width:1.0;" x1="254" x2="295" y1="225.125" y2="225.125"/><polygon fill="#A80036" points="264,221.125,254,225.125,264,229.125,260,225.125" style="stroke:#A80036;stroke-width:1.0;"/><text fill="#000000" font-family="sans-serif" font-size="13" lengthAdjust="spacing" textLength="80" x="260" y="207.0591">setUpForm()</text><line style="stroke:#A80036;stroke-width:1.0;" x1="253" x2="295" y1="254.2578" y2="254.2578"/><line style="stroke:#A80036;stroke-width:1.0;" x1="295" x2="295" y1="254.2578" y2="267.2578"/><line style="stroke:#A80036;stroke-width:1.0;" x1="254" x2="295" y1="267.2578" y2="267.2578"/><polygon fill="#A80036" points="264,263.2578,254,267.2578,264,271.2578,260,267.2578" style="stroke:#A80036;stroke-width:1.0;"/><text fill="#000000" font-family="sans-serif" font-size="13" lengthAdjust="spacing" textLength="37" x="260" y="249.1919">bind()</text><polygon fill="#A80036" points="415,292.3906,425,296.3906,415,300.3906,419,296.3906" style="stroke:#A80036;stroke-width:1.0;"/><line style="stroke:#A80036;stroke-width:1.0;" x1="253" x2="421" y1="296.3906" y2="296.3906"/><text fill="#000000" font-family="sans-serif" font-size="13" lengthAdjust="spacing" textLength="49" x="260" y="291.3247">findAll()</text><polygon fill="#A80036" points="641,321.5234,651,325.5234,641,329.5234,645,325.5234" style="stroke:#A80036;stroke-width:1.0;"/><line style="stroke:#A80036;stroke-width:1.0;" x1="437" x2="647" y1="325.5234" y2="325.5234"/><text fill="#000000" font-family="sans-serif" font-size="13" lengthAdjust="spacing" textLength="49" x="444" y="320.4575">findAll()</text><polygon fill="#A80036" points="965,350.6563,975,354.6563,965,358.6563,969,354.6563" style="stroke:#A80036;stroke-width:1.0;"/><line style="stroke:#A80036;stroke-width:1.0;" x1="663" x2="971" y1="354.6563" y2="354.6563"/><text fill="#000000" font-family="sans-serif" font-size="13" lengthAdjust="spacing" textLength="61" x="670" y="349.5903">SELECT&#25991;</text><polygon fill="#A80036" points="674,379.7891,664,383.7891,674,387.7891,670,383.7891" style="stroke:#A80036;stroke-width:1.0;"/><line style="stroke:#A80036;stroke-width:1.0;stroke-dasharray:2.0,2.0;" x1="668" x2="981" y1="383.7891" y2="383.7891"/><text fill="#000000" font-family="sans-serif" font-size="13" lengthAdjust="spacing" textLength="150" x="680" y="378.7231">List&lt;ProductCategory&gt;</text><polygon fill="#A80036" points="448,408.9219,438,412.9219,448,416.9219,444,412.9219" style="stroke:#A80036;stroke-width:1.0;"/><line style="stroke:#A80036;stroke-width:1.0;stroke-dasharray:2.0,2.0;" x1="442" x2="657" y1="412.9219" y2="412.9219"/><text fill="#000000" font-family="sans-serif" font-size="13" lengthAdjust="spacing" textLength="150" x="454" y="407.856">List&lt;ProductCategory&gt;</text><polygon fill="#A80036" points="264,438.0547,254,442.0547,264,446.0547,260,442.0547" style="stroke:#A80036;stroke-width:1.0;"/><line style="stroke:#A80036;stroke-width:1.0;stroke-dasharray:2.0,2.0;" x1="258" x2="431" y1="442.0547" y2="442.0547"/><text fill="#000000" font-family="sans-serif" font-size="13" lengthAdjust="spacing" textLength="150" x="270" y="436.9888">List&lt;ProductCategory&gt;</text><line style="stroke:#A80036;stroke-width:1.0;" x1="253" x2="295" y1="486.3203" y2="486.3203"/><line style="stroke:#A80036;stroke-width:1.0;" x1="295" x2="295" y1="486.3203" y2="499.3203"/><line style="stroke:#A80036;stroke-width:1.0;" x1="254" x2="295" y1="499.3203" y2="499.3203"/><polygon fill="#A80036" points="264,495.3203,254,499.3203,264,503.3203,260,499.3203" style="stroke:#A80036;stroke-width:1.0;"/><text fill="#000000" font-family="sans-serif" font-size="13" lengthAdjust="spacing" textLength="63" x="260" y="466.1216">Model&#36861;&#21152;</text><text fill="#000000" font-family="sans-serif" font-size="13" lengthAdjust="spacing" textLength="143" x="260" y="481.2544">&#65288;&#21830;&#21697;&#12459;&#12486;&#12468;&#12522;&#12522;&#12473;&#12488;&#65289;</text><polygon fill="#A80036" points="45,524.4531,35,528.4531,45,532.4531,41,528.4531" style="stroke:#A80036;stroke-width:1.0;"/><line style="stroke:#A80036;stroke-width:1.0;stroke-dasharray:2.0,2.0;" x1="39" x2="247" y1="528.4531" y2="528.4531"/><text fill="#000000" font-family="sans-serif" font-size="13" lengthAdjust="spacing" textLength="52" x="51" y="523.3872">&#20837;&#21147;&#30011;&#38754;</text><line style="stroke:#A80036;stroke-width:1.0;" x1="34" x2="76" y1="557.5859" y2="557.5859"/><line style="stroke:#A80036;stroke-width:1.0;" x1="76" x2="76" y1="557.5859" y2="570.5859"/><line style="stroke:#A80036;stroke-width:1.0;" x1="35" x2="76" y1="570.5859" y2="570.5859"/><polygon fill="#A80036" points="45,566.5859,35,570.5859,45,574.5859,41,570.5859" style="stroke:#A80036;stroke-width:1.0;"/><text fill="#000000" font-family="sans-serif" font-size="13" lengthAdjust="spacing" textLength="78" x="41" y="552.52">&#21830;&#21697;&#24773;&#22577;&#20837;&#21147;</text><polygon fill="#A80036" points="231,625.9844,241,629.9844,231,633.9844,235,629.9844" style="stroke:#A80036;stroke-width:1.0;"/><line style="stroke:#A80036;stroke-width:1.0;" x1="34" x2="237" y1="629.9844" y2="629.9844"/><text fill="#000000" font-family="sans-serif" font-size="13" lengthAdjust="spacing" textLength="34" x="41" y="594.6528">POST</text><text fill="#000000" font-family="sans-serif" font-size="13" lengthAdjust="spacing" textLength="179" x="41" y="609.7856">/admin/product-add/confirm</text><text fill="#000000" font-family="sans-serif" font-size="13" lengthAdjust="spacing" textLength="59" x="41" y="624.9185">confirm()</text><line style="stroke:#A80036;stroke-width:1.0;" x1="253" x2="295" y1="659.1172" y2="659.1172"/><line style="stroke:#A80036;stroke-width:1.0;" x1="295" x2="295" y1="659.1172" y2="672.1172"/><line style="stroke:#A80036;stroke-width:1.0;" x1="254" x2="295" y1="672.1172" y2="672.1172"/><polygon fill="#A80036" points="264,668.1172,254,672.1172,264,676.1172,260,672.1172" style="stroke:#A80036;stroke-width:1.0;"/><text fill="#000000" font-family="sans-serif" font-size="13" lengthAdjust="spacing" textLength="65" x="260" y="654.0513">&#12496;&#12522;&#12487;&#12540;&#12488;</text><line style="stroke:#A80036;stroke-width:1.0;" x1="253" x2="295" y1="716.3828" y2="716.3828"/><line style="stroke:#A80036;stroke-width:1.0;" x1="295" x2="295" y1="716.3828" y2="729.3828"/><line style="stroke:#A80036;stroke-width:1.0;" x1="254" x2="295" y1="729.3828" y2="729.3828"/><polygon fill="#A80036" points="264,725.3828,254,729.3828,264,733.3828,260,729.3828" style="stroke:#A80036;stroke-width:1.0;"/><text fill="#000000" font-family="sans-serif" font-size="13" lengthAdjust="spacing" textLength="63" x="260" y="696.1841">Model&#36861;&#21152;</text><text fill="#000000" font-family="sans-serif" font-size="13" lengthAdjust="spacing" textLength="156" x="260" y="711.3169">&#65288;&#36984;&#25246;&#12375;&#12383;&#21830;&#21697;&#12459;&#12486;&#12468;&#12522;&#65289;</text><line style="stroke:#A80036;stroke-width:1.0;" x1="253" x2="295" y1="773.6484" y2="773.6484"/><line style="stroke:#A80036;stroke-width:1.0;" x1="295" x2="295" y1="773.6484" y2="786.6484"/><line style="stroke:#A80036;stroke-width:1.0;" x1="254" x2="295" y1="786.6484" y2="786.6484"/><polygon fill="#A80036" points="264,782.6484,254,786.6484,264,790.6484,260,786.6484" style="stroke:#A80036;stroke-width:1.0;"/><text fill="#000000" font-family="sans-serif" font-size="13" lengthAdjust="spacing" textLength="63" x="260" y="753.4497">Model&#36861;&#21152;</text><text fill="#000000" font-family="sans-serif" font-size="13" lengthAdjust="spacing" textLength="125" x="260" y="768.5825">&#65288;&#21830;&#21697;&#30011;&#20687;Base64&#65289;</text><line style="stroke:#A80036;stroke-width:1.0;" x1="253" x2="295" y1="830.9141" y2="830.9141"/><line style="stroke:#A80036;stroke-width:1.0;" x1="295" x2="295" y1="830.9141" y2="843.9141"/><line style="stroke:#A80036;stroke-width:1.0;" x1="254" x2="295" y1="843.9141" y2="843.9141"/><polygon fill="#A80036" points="264,839.9141,254,843.9141,264,847.9141,260,843.9141" style="stroke:#A80036;stroke-width:1.0;"/><text fill="#000000" font-family="sans-serif" font-size="13" lengthAdjust="spacing" textLength="63" x="260" y="810.7153">Model&#36861;&#21152;</text><text fill="#000000" font-family="sans-serif" font-size="13" lengthAdjust="spacing" textLength="156" x="260" y="825.8481">&#65288;&#21830;&#21697;&#30011;&#20687;&#12496;&#12452;&#12488;&#12487;&#12540;&#12479;&#65289;</text><path d="M428,810.7148 L428,835.7148 L735,835.7148 L735,820.7148 L725,810.7148 L428,810.7148 " fill="#FBFB77" style="stroke:#A80036;stroke-width:1.0;"/><path d="M725,810.7148 L725,820.7148 L735,820.7148 L725,810.7148 " fill="#FBFB77" style="stroke:#A80036;stroke-width:1.0;"/><text fill="#000000" font-family="sans-serif" font-size="13" lengthAdjust="spacing" textLength="286" x="434" y="827.7817">&#30011;&#20687;&#12487;&#12540;&#12479;&#12434;&#23436;&#20102;&#30011;&#38754;&#12391;&#20351;&#12358;&#12398;&#12391;&#12475;&#12483;&#12471;&#12519;&#12531;&#26684;&#32013;</text><polygon fill="#A80036" points="45,869.0469,35,873.0469,45,877.0469,41,873.0469" style="stroke:#A80036;stroke-width:1.0;"/><line style="stroke:#A80036;stroke-width:1.0;stroke-dasharray:2.0,2.0;" x1="39" x2="247" y1="873.0469" y2="873.0469"/><text fill="#000000" font-family="sans-serif" font-size="13" lengthAdjust="spacing" textLength="52" x="51" y="867.981">&#30906;&#35469;&#30011;&#38754;</text><line style="stroke:#A80036;stroke-width:1.0;" x1="34" x2="76" y1="902.1797" y2="902.1797"/><line style="stroke:#A80036;stroke-width:1.0;" x1="76" x2="76" y1="902.1797" y2="915.1797"/><line style="stroke:#A80036;stroke-width:1.0;" x1="35" x2="76" y1="915.1797" y2="915.1797"/><polygon fill="#A80036" points="45,911.1797,35,915.1797,45,919.1797,41,915.1797" style="stroke:#A80036;stroke-width:1.0;"/><text fill="#000000" font-family="sans-serif" font-size="13" lengthAdjust="spacing" textLength="78" x="41" y="897.1138">&#20837;&#21147;&#20869;&#23481;&#30906;&#35469;</text><polygon fill="#A80036" points="231,970.5781,241,974.5781,231,978.5781,235,974.5781" style="stroke:#A80036;stroke-width:1.0;"/><line style="stroke:#A80036;stroke-width:1.0;" x1="34" x2="237" y1="974.5781" y2="974.5781"/><text fill="#000000" font-family="sans-serif" font-size="13" lengthAdjust="spacing" textLength="34" x="41" y="939.2466">POST</text><text fill="#000000" font-family="sans-serif" font-size="13" lengthAdjust="spacing" textLength="182" x="41" y="954.3794">/admin/product-add/execute</text><text fill="#000000" font-family="sans-serif" font-size="13" lengthAdjust="spacing" textLength="62" x="41" y="969.5122">execute()</text><line style="stroke:#A80036;stroke-width:1.0;" x1="253" x2="295" y1="1003.7109" y2="1003.7109"/><line style="stroke:#A80036;stroke-width:1.0;" x1="295" x2="295" y1="1003.7109" y2="1016.7109"/><line style="stroke:#A80036;stroke-width:1.0;" x1="254" x2="295" y1="1016.7109" y2="1016.7109"/><polygon fill="#A80036" points="264,1012.7109,254,1016.7109,264,1020.7109,260,1016.7109" style="stroke:#A80036;stroke-width:1.0;"/><text fill="#000000" font-family="sans-serif" font-size="13" lengthAdjust="spacing" textLength="91" x="260" y="998.645">&#12475;&#12483;&#12471;&#12519;&#12531;&#30906;&#35469;</text><path d="M363,991.0781 L363,1016.0781 L644,1016.0781 L644,1001.0781 L634,991.0781 L363,991.0781 " fill="#FBFB77" style="stroke:#A80036;stroke-width:1.0;"/><path d="M634,991.0781 L634,1001.0781 L644,1001.0781 L634,991.0781 " fill="#FBFB77" style="stroke:#A80036;stroke-width:1.0;"/><text fill="#000000" font-family="sans-serif" font-size="13" lengthAdjust="spacing" textLength="260" x="369" y="1008.145">&#12475;&#12483;&#12471;&#12519;&#12531;&#24773;&#22577;&#12364;&#12394;&#12356;&#22580;&#21512;&#12399;&#12471;&#12473;&#12486;&#12512;&#12456;&#12521;&#12540;</text><line style="stroke:#A80036;stroke-width:1.0;" x1="253" x2="295" y1="1060.9766" y2="1060.9766"/><line style="stroke:#A80036;stroke-width:1.0;" x1="295" x2="295" y1="1060.9766" y2="1073.9766"/><line style="stroke:#A80036;stroke-width:1.0;" x1="254" x2="295" y1="1073.9766" y2="1073.9766"/><polygon fill="#A80036" points="264,1069.9766,254,1073.9766,264,1077.9766,260,1073.9766" style="stroke:#A80036;stroke-width:1.0;"/><text fill="#000000" font-family="sans-serif" font-size="13" lengthAdjust="spacing" textLength="117" x="260" y="1040.7778">&#30011;&#20687;&#20445;&#23384;&#12501;&#12449;&#12452;&#12523;&#21517;</text><text fill="#000000" font-family="sans-serif" font-size="13" lengthAdjust="spacing" textLength="89" x="260" y="1055.9106">&#12434;Model&#12395;&#36861;&#21152;</text><line style="stroke:#A80036;stroke-width:1.0;" x1="253" x2="295" y1="1118.2422" y2="1118.2422"/><line style="stroke:#A80036;stroke-width:1.0;" x1="295" x2="295" y1="1118.2422" y2="1131.2422"/><line style="stroke:#A80036;stroke-width:1.0;" x1="254" x2="295" y1="1131.2422" y2="1131.2422"/><polygon fill="#A80036" points="264,1127.2422,254,1131.2422,264,1135.2422,260,1131.2422" style="stroke:#A80036;stroke-width:1.0;"/><text fill="#000000" font-family="sans-serif" font-size="13" lengthAdjust="spacing" textLength="65" x="260" y="1098.0435">&#12501;&#12457;&#12540;&#12512;&#12434;</text><text fill="#000000" font-family="sans-serif" font-size="13" lengthAdjust="spacing" textLength="117" x="260" y="1113.1763">&#12456;&#12531;&#12486;&#12451;&#12486;&#12451;&#12395;&#22793;&#25563;</text><polygon fill="#A80036" points="528,1159.375,538,1163.375,528,1167.375,532,1163.375" style="stroke:#A80036;stroke-width:1.0;"/><line style="stroke:#A80036;stroke-width:1.0;" x1="253" x2="534" y1="1163.375" y2="1163.375"/><text fill="#000000" font-family="sans-serif" font-size="13" lengthAdjust="spacing" textLength="148" x="260" y="1158.3091">insert(Product product)</text><path d="M555,1144.2422 L555,1169.2422 L706,1169.2422 L706,1154.2422 L696,1144.2422 L555,1144.2422 " fill="#FBFB77" style="stroke:#A80036;stroke-width:1.0;"/><path d="M696,1144.2422 L696,1154.2422 L706,1154.2422 L696,1144.2422 " fill="#FBFB77" style="stroke:#A80036;stroke-width:1.0;"/><text fill="#000000" font-family="sans-serif" font-size="13" lengthAdjust="spacing" textLength="130" x="561" y="1161.3091">&#12488;&#12521;&#12531;&#12470;&#12463;&#12471;&#12519;&#12531;&#20966;&#29702;</text><polygon fill="#A80036" points="765.5,1191.5078,775.5,1195.5078,765.5,1199.5078,769.5,1195.5078" style="stroke:#A80036;stroke-width:1.0;"/><line style="stroke:#A80036;stroke-width:1.0;" x1="550" x2="771.5" y1="1195.5078" y2="1195.5078"/><text fill="#000000" font-family="sans-serif" font-size="13" lengthAdjust="spacing" textLength="148" x="557" y="1190.4419">insert(Product product)</text><polygon fill="#A80036" points="965,1220.6406,975,1224.6406,965,1228.6406,969,1224.6406" style="stroke:#A80036;stroke-width:1.0;"/><line style="stroke:#A80036;stroke-width:1.0;" x1="787.5" x2="971" y1="1224.6406" y2="1224.6406"/><text fill="#000000" font-family="sans-serif" font-size="13" lengthAdjust="spacing" textLength="58" x="794.5" y="1219.5747">INSERT&#25991;</text><polygon fill="#A80036" points="798.5,1249.7734,788.5,1253.7734,798.5,1257.7734,794.5,1253.7734" style="stroke:#A80036;stroke-width:1.0;"/><line style="stroke:#A80036;stroke-width:1.0;stroke-dasharray:2.0,2.0;" x1="792.5" x2="981" y1="1253.7734" y2="1253.7734"/><text fill="#000000" font-family="sans-serif" font-size="13" lengthAdjust="spacing" textLength="27" x="804.5" y="1248.7075">void</text><polygon fill="#A80036" points="561,1278.9063,551,1282.9063,561,1286.9063,557,1282.9063" style="stroke:#A80036;stroke-width:1.0;"/><line style="stroke:#A80036;stroke-width:1.0;stroke-dasharray:2.0,2.0;" x1="555" x2="781.5" y1="1282.9063" y2="1282.9063"/><text fill="#000000" font-family="sans-serif" font-size="13" lengthAdjust="spacing" textLength="27" x="567" y="1277.8403">void</text><polygon fill="#A80036" points="878,1308.0391,888,1312.0391,878,1316.0391,882,1312.0391" style="stroke:#A80036;stroke-width:1.0;"/><line style="stroke:#A80036;stroke-width:1.0;" x1="550" x2="884" y1="1312.0391" y2="1312.0391"/><text fill="#000000" font-family="sans-serif" font-size="13" lengthAdjust="spacing" textLength="130" x="557" y="1306.9731">insert(ProductStock)</text><polygon fill="#A80036" points="965,1337.1719,975,1341.1719,965,1345.1719,969,1341.1719" style="stroke:#A80036;stroke-width:1.0;"/><line style="stroke:#A80036;stroke-width:1.0;" x1="900" x2="971" y1="1341.1719" y2="1341.1719"/><text fill="#000000" font-family="sans-serif" font-size="13" lengthAdjust="spacing" textLength="58" x="907" y="1336.106">INSERT&#25991;</text><polygon fill="#A80036" points="911,1366.3047,901,1370.3047,911,1374.3047,907,1370.3047" style="stroke:#A80036;stroke-width:1.0;"/><line style="stroke:#A80036;stroke-width:1.0;stroke-dasharray:2.0,2.0;" x1="905" x2="981" y1="1370.3047" y2="1370.3047"/><text fill="#000000" font-family="sans-serif" font-size="13" lengthAdjust="spacing" textLength="27" x="917" y="1365.2388">void</text><polygon fill="#A80036" points="561,1395.4375,551,1399.4375,561,1403.4375,557,1399.4375" style="stroke:#A80036;stroke-width:1.0;"/><line style="stroke:#A80036;stroke-width:1.0;stroke-dasharray:2.0,2.0;" x1="555" x2="894" y1="1399.4375" y2="1399.4375"/><text fill="#000000" font-family="sans-serif" font-size="13" lengthAdjust="spacing" textLength="27" x="567" y="1394.3716">void</text><polygon fill="#A80036" points="264,1424.5703,254,1428.5703,264,1432.5703,260,1428.5703" style="stroke:#A80036;stroke-width:1.0;"/><line style="stroke:#A80036;stroke-width:1.0;stroke-dasharray:2.0,2.0;" x1="258" x2="544" y1="1428.5703" y2="1428.5703"/><text fill="#000000" font-family="sans-serif" font-size="13" lengthAdjust="spacing" textLength="27" x="270" y="1423.5044">void</text><polygon fill="#A80036" points="45,1453.7031,35,1457.7031,45,1461.7031,41,1457.7031" style="stroke:#A80036;stroke-width:1.0;"/><line style="stroke:#A80036;stroke-width:1.0;stroke-dasharray:2.0,2.0;" x1="39" x2="247" y1="1457.7031" y2="1457.7031"/><text fill="#000000" font-family="sans-serif" font-size="13" lengthAdjust="spacing" textLength="78" x="51" y="1452.6372">&#12522;&#12480;&#12452;&#12524;&#12463;&#12488;</text><polygon fill="#A80036" points="231,1513.1016,241,1517.1016,231,1521.1016,235,1517.1016" style="stroke:#A80036;stroke-width:1.0;"/><line style="stroke:#A80036;stroke-width:1.0;" x1="34" x2="237" y1="1517.1016" y2="1517.1016"/><text fill="#000000" font-family="sans-serif" font-size="13" lengthAdjust="spacing" textLength="26" x="41" y="1481.77">GET</text><text fill="#000000" font-family="sans-serif" font-size="13" lengthAdjust="spacing" textLength="190" x="41" y="1496.9028">/admin/product-add/complete</text><text fill="#000000" font-family="sans-serif" font-size="13" lengthAdjust="spacing" textLength="70" x="41" y="1512.0356">complete()</text><line style="stroke:#A80036;stroke-width:1.0;" x1="253" x2="295" y1="1546.2344" y2="1546.2344"/><line style="stroke:#A80036;stroke-width:1.0;" x1="295" x2="295" y1="1546.2344" y2="1559.2344"/><line style="stroke:#A80036;stroke-width:1.0;" x1="254" x2="295" y1="1559.2344" y2="1559.2344"/><polygon fill="#A80036" points="264,1555.2344,254,1559.2344,264,1563.2344,260,1559.2344" style="stroke:#A80036;stroke-width:1.0;"/><text fill="#000000" font-family="sans-serif" font-size="13" lengthAdjust="spacing" textLength="91" x="260" y="1541.1685">&#12475;&#12483;&#12471;&#12519;&#12531;&#30772;&#26820;</text><line style="stroke:#A80036;stroke-width:1.0;" x1="253" x2="295" y1="1603.5" y2="1603.5"/><line style="stroke:#A80036;stroke-width:1.0;" x1="295" x2="295" y1="1603.5" y2="1616.5"/><line style="stroke:#A80036;stroke-width:1.0;" x1="254" x2="295" y1="1616.5" y2="1616.5"/><polygon fill="#A80036" points="264,1612.5,254,1616.5,264,1620.5,260,1616.5" style="stroke:#A80036;stroke-width:1.0;"/><text fill="#000000" font-family="sans-serif" font-size="13" lengthAdjust="spacing" textLength="76" x="260" y="1583.3013">Model&#12395;&#36861;&#21152;</text><text fill="#000000" font-family="sans-serif" font-size="13" lengthAdjust="spacing" textLength="65" x="260" y="1598.4341">&#65288;&#21830;&#21697;&#21517;&#65289;</text><polygon fill="#A80036" points="40,1641.6328,30,1645.6328,40,1649.6328,36,1645.6328" style="stroke:#A80036;stroke-width:1.0;"/><line style="stroke:#A80036;stroke-width:1.0;stroke-dasharray:2.0,2.0;" x1="34" x2="247" y1="1645.6328" y2="1645.6328"/><text fill="#000000" font-family="sans-serif" font-size="13" lengthAdjust="spacing" textLength="52" x="46" y="1640.5669">&#23436;&#20102;&#30011;&#38754;</text><!--SRC=[fLPTJzfG6BxlhpZnPfg5g6pP1J4cYcnPuZOZUiTDROisGalQokRTsYgYqKZST5kCawbJaKtd96ugXXzpF4Ml_0ixvxGmFWgCB25mJj-lli_pdkUWJeiIK6HLO5IyYh4A6mNg5ClBhqLf4eJP2BOmcgX5133kx-djyG5humTQJw1tUl7JrTtoJokpVMjU0sZyWcOU6gVGF8F61TeyOrXEanK0pNrgE0Ui2cPKGI7FnJYh2VOEbzH4JeonaWOwHXIPd-6q0PuFINvPqXGv4X6K3XBAbRUk8NwSS59MPaDIK53Y8YVG83NEzRgwrxbvMsGT5MAoAkA6Pcc4WhUF6cHsSNL_YQ0cSzEk_bw6PpLsWbK5C3J8C0y0cl-AbZQBxw_kjdOOWXlmz5T00Xu-13xmB30MahfPFYfAtJ6xX8Vb-Uwmh4H34ldkx68gWgfJ-80gQEEnfotT9aI9h_CWIDjl4SRcWKW4Uz1ds4R1gZNQ3x5rQD0s1GF30V-OjR70u2UUSfZ7Wst3eghrrN3INqfHgjx4qx5NDTB4lKdpBsHUYDmMhj5IEYJTvvFsKO165fe9QEIWUKG-nWKqa_VvnQfCE9ND72bSHIWckBXpUNkqKaCm_SM-j8PbpgFqgHtNS0H6NWNTPm0xXaKo1iwYESNGJD5E5iZHDPFj07Ad_xQMFaFz0zItwy6fnUIVqCMe87Dr49-69u__8m5fojZ3xJXz6GMIJ9An4YdYv9Jc0oK_nmoDDNIyV7EPi6c1-i7DTG7g2QWVupKqhg1fKjqxmA9dfVF5t4fZmgi89YUw8dCTuPHab9X7nnTsNFk42sy4RaOJGfApQ45uTJDEqKfiQjkbqmZrPQWVGNqEfNCebOJw2N4Wqv-0PXeQXz3CO2oRLROnlobieUyVeRaEZI-Kf2nAhOGap01b5EfPczJcGukZCtHYSUar4dr8RYCoUxlEjvv5UulMwcQzUdbjF4K90wrrEf8074Ixgg4W8vIX5zqvD4xAcA25_M8gmT1aZdxrDizgkrI8uFENmS1ehGWwqXQNHRuKKNhdluRAggwzqDl6BkbjMT9RKzBRkAIBgb8hdTW-lA-rKcLvIrd-Hk33-jBkZSR9qLX48DDTMhKttkcSjJlNKaVAKrSX9NWic-jwvR5cUA7gpyuV]--></g></svg>