<svg xmlns="http://www.w3.org/2000/svg" xmlns:xlink="http://www.w3.org/1999/xlink" contentStyleType="text/css" height="609px" preserveAspectRatio="none" style="width:804px;height:609px;background:#FFFFFF;" version="1.1" viewBox="0 0 804 609" width="804px" zoomAndPan="magnify"><defs/><g><text fill="#000000" font-family="sans-serif" font-size="14" font-weight="bold" lengthAdjust="spacing" textLength="116.7712" x="336.9544" y="22.9951">entity&#12497;&#12483;&#12465;&#12540;&#12472;</text><!--cluster entity--><g id="cluster_entity"><polygon fill="none" points="16,43.2969,62.6396,43.2969,69.6396,65.5938,787.68,65.5938,787.68,602.2969,16,602.2969,16,43.2969" style="stroke:#000000;stroke-width:1.5;"/><line style="stroke:#000000;stroke-width:1.5;" x1="16" x2="69.6396" y1="65.5938" y2="65.5938"/><text fill="#000000" font-family="sans-serif" font-size="14" lengthAdjust="spacing" textLength="40.6396" x="20" y="58.292">entity</text></g><!--class Product--><g id="elem_Product"><rect codeLine="7" fill="#FEFECE" height="146.0469" id="Product" style="stroke:#A80036;stroke-width:1.0;" width="266.4814" x="32" y="440.2769"/><ellipse cx="134.1357" cy="460.4097" fill="#ADD1B2" rx="11" ry="11" style="stroke:#A80036;stroke-width:1.0;"/><path d="M137.1045,466.0503 Q136.5264,466.3472 135.8857,466.4878 Q135.2451,466.6441 134.542,466.6441 Q132.042,466.6441 130.7139,465.0034 Q129.4014,463.3472 129.4014,460.2222 Q129.4014,457.0972 130.7139,455.4409 Q132.042,453.7847 134.542,453.7847 Q135.2451,453.7847 135.8857,453.9409 Q136.542,454.0972 137.1045,454.3941 L137.1045,457.1128 Q136.4795,456.5347 135.8857,456.2691 Q135.292,455.9878 134.667,455.9878 Q133.3232,455.9878 132.6357,457.0659 Q131.9482,458.1284 131.9482,460.2222 Q131.9482,462.3159 132.6357,463.3941 Q133.3232,464.4566 134.667,464.4566 Q135.292,464.4566 135.8857,464.1909 Q136.4795,463.9097 137.1045,463.3316 L137.1045,466.0503 Z " fill="#000000"/><text fill="#000000" font-family="sans-serif" font-size="12" font-style="italic" lengthAdjust="spacing" textLength="55.3359" x="153.8228" y="456.4155">&#171;@Data&#187;</text><text fill="#000000" font-family="sans-serif" font-size="14" lengthAdjust="spacing" textLength="53.71" x="154.6357" y="472.2407">Product</text><line style="stroke:#A80036;stroke-width:1.0;" x1="33" x2="297.4814" y1="480.5425" y2="480.5425"/><rect fill="none" height="6" style="stroke:#C82930;stroke-width:1.0;" width="6" x="40" y="491.1909"/><text fill="#000000" font-family="sans-serif" font-size="14" lengthAdjust="spacing" textLength="67.8535" x="52" y="497.5376">id:Integer</text><rect fill="none" height="6" style="stroke:#C82930;stroke-width:1.0;" width="6" x="40" y="507.4878"/><text fill="#000000" font-family="sans-serif" font-size="14" lengthAdjust="spacing" textLength="86.2012" x="52" y="513.8345">name:String</text><rect fill="none" height="6" style="stroke:#C82930;stroke-width:1.0;" width="6" x="40" y="523.7847"/><text fill="#000000" font-family="sans-serif" font-size="14" lengthAdjust="spacing" textLength="89.9199" x="52" y="530.1314">price:Integer</text><rect fill="none" height="6" style="stroke:#C82930;stroke-width:1.0;" width="6" x="40" y="540.0816"/><text fill="#000000" font-family="sans-serif" font-size="14" lengthAdjust="spacing" textLength="109.9971" x="52" y="546.4282">imageUrl:String</text><rect fill="none" height="6" style="stroke:#C82930;stroke-width:1.0;" width="6" x="40" y="556.3784"/><text fill="#000000" font-family="sans-serif" font-size="14" lengthAdjust="spacing" textLength="240.4814" x="52" y="562.7251">productCategory:ProductCategory</text><rect fill="none" height="6" style="stroke:#C82930;stroke-width:1.0;" width="6" x="40" y="572.6753"/><text fill="#000000" font-family="sans-serif" font-size="14" lengthAdjust="spacing" textLength="128.5908" x="52" y="579.022">deleteFlag:Integer</text></g><!--class ProductCategory--><g id="elem_ProductCategory"><rect codeLine="15" fill="#FEFECE" height="80.8594" id="ProductCategory" style="stroke:#A80036;stroke-width:1.0;" width="149.6602" x="90.41" y="324.8669"/><ellipse cx="105.41" cy="344.9997" fill="#ADD1B2" rx="11" ry="11" style="stroke:#A80036;stroke-width:1.0;"/><path d="M108.3788,350.6403 Q107.8006,350.9372 107.16,351.0778 Q106.5194,351.2341 105.8163,351.2341 Q103.3163,351.2341 101.9881,349.5934 Q100.6756,347.9372 100.6756,344.8122 Q100.6756,341.6872 101.9881,340.0309 Q103.3163,338.3747 105.8163,338.3747 Q106.5194,338.3747 107.16,338.5309 Q107.8163,338.6872 108.3788,338.9841 L108.3788,341.7028 Q107.7538,341.1247 107.16,340.8591 Q106.5663,340.5778 105.9413,340.5778 Q104.5975,340.5778 103.91,341.6559 Q103.2225,342.7184 103.2225,344.8122 Q103.2225,346.9059 103.91,347.9841 Q104.5975,349.0466 105.9413,349.0466 Q106.5663,349.0466 107.16,348.7809 Q107.7538,348.4997 108.3788,347.9216 L108.3788,350.6403 Z " fill="#000000"/><text fill="#000000" font-family="sans-serif" font-size="12" font-style="italic" lengthAdjust="spacing" textLength="55.3359" x="150.5721" y="341.0055">&#171;@Data&#187;</text><text fill="#000000" font-family="sans-serif" font-size="14" lengthAdjust="spacing" textLength="117.6602" x="119.41" y="356.8307">ProductCategory</text><line style="stroke:#A80036;stroke-width:1.0;" x1="91.41" x2="239.0702" y1="365.1325" y2="365.1325"/><rect fill="none" height="6" style="stroke:#C82930;stroke-width:1.0;" width="6" x="98.41" y="375.7809"/><text fill="#000000" font-family="sans-serif" font-size="14" lengthAdjust="spacing" textLength="67.8535" x="110.41" y="382.1276">id:Integer</text><rect fill="none" height="6" style="stroke:#C82930;stroke-width:1.0;" width="6" x="98.41" y="392.0778"/><text fill="#000000" font-family="sans-serif" font-size="14" lengthAdjust="spacing" textLength="86.2012" x="110.41" y="398.4245">name:String</text></g><!--class ProductStock--><g id="elem_ProductStock"><rect codeLine="19" fill="#FEFECE" height="97.1563" id="ProductStock" style="stroke:#A80036;stroke-width:1.0;" width="148.2471" x="91.12" y="192.7169"/><ellipse cx="116.826" cy="212.8497" fill="#ADD1B2" rx="11" ry="11" style="stroke:#A80036;stroke-width:1.0;"/><path d="M119.7947,218.4903 Q119.2166,218.7872 118.576,218.9278 Q117.9353,219.0841 117.2322,219.0841 Q114.7322,219.0841 113.4041,217.4434 Q112.0916,215.7872 112.0916,212.6622 Q112.0916,209.5372 113.4041,207.8809 Q114.7322,206.2247 117.2322,206.2247 Q117.9353,206.2247 118.576,206.3809 Q119.2322,206.5372 119.7947,206.8341 L119.7947,209.5528 Q119.1697,208.9747 118.576,208.7091 Q117.9822,208.4278 117.3572,208.4278 Q116.0135,208.4278 115.326,209.5059 Q114.6385,210.5684 114.6385,212.6622 Q114.6385,214.7559 115.326,215.8341 Q116.0135,216.8966 117.3572,216.8966 Q117.9822,216.8966 118.576,216.6309 Q119.1697,216.3497 119.7947,215.7716 L119.7947,218.4903 Z " fill="#000000"/><text fill="#000000" font-family="sans-serif" font-size="12" font-style="italic" lengthAdjust="spacing" textLength="55.3359" x="151.7651" y="208.8555">&#171;@Data&#187;</text><text fill="#000000" font-family="sans-serif" font-size="14" lengthAdjust="spacing" textLength="92.4561" x="133.2051" y="224.6807">ProductStock</text><line style="stroke:#A80036;stroke-width:1.0;" x1="92.12" x2="238.3671" y1="232.9825" y2="232.9825"/><rect fill="none" height="6" style="stroke:#C82930;stroke-width:1.0;" width="6" x="99.12" y="243.6309"/><text fill="#000000" font-family="sans-serif" font-size="14" lengthAdjust="spacing" textLength="67.8535" x="111.12" y="249.9776">id:Integer</text><rect fill="none" height="6" style="stroke:#C82930;stroke-width:1.0;" width="6" x="99.12" y="259.9278"/><text fill="#000000" font-family="sans-serif" font-size="14" lengthAdjust="spacing" textLength="113.4424" x="111.12" y="266.2745">quantity:Integer</text><rect fill="none" height="6" style="stroke:#C82930;stroke-width:1.0;" width="6" x="99.12" y="276.2247"/><text fill="#000000" font-family="sans-serif" font-size="14" lengthAdjust="spacing" textLength="122.2471" x="111.12" y="282.5714">productId:Integer</text></g><!--class EmployeeAccount--><g id="elem_EmployeeAccount"><rect codeLine="24" fill="#FEFECE" height="113.4531" id="EmployeeAccount" style="stroke:#A80036;stroke-width:1.0;" width="163.1973" x="365.34" y="472.5669"/><ellipse cx="382.6296" cy="492.6997" fill="#ADD1B2" rx="11" ry="11" style="stroke:#A80036;stroke-width:1.0;"/><path d="M385.5983,498.3403 Q385.0202,498.6372 384.3796,498.7778 Q383.7389,498.9341 383.0358,498.9341 Q380.5358,498.9341 379.2077,497.2934 Q377.8952,495.6372 377.8952,492.5122 Q377.8952,489.3872 379.2077,487.7309 Q380.5358,486.0747 383.0358,486.0747 Q383.7389,486.0747 384.3796,486.2309 Q385.0358,486.3872 385.5983,486.6841 L385.5983,489.4028 Q384.9733,488.8247 384.3796,488.5591 Q383.7858,488.2778 383.1608,488.2778 Q381.8171,488.2778 381.1296,489.3559 Q380.4421,490.4184 380.4421,492.5122 Q380.4421,494.6059 381.1296,495.6841 Q381.8171,496.7466 383.1608,496.7466 Q383.7858,496.7466 384.3796,496.4809 Q384.9733,496.1997 385.5983,495.6216 L385.5983,498.3403 Z " fill="#000000"/><text fill="#000000" font-family="sans-serif" font-size="12" font-style="italic" lengthAdjust="spacing" textLength="55.3359" x="432.5251" y="488.7055">&#171;@Data&#187;</text><text fill="#000000" font-family="sans-serif" font-size="14" lengthAdjust="spacing" textLength="126.1094" x="397.1383" y="504.5307">EmployeeAccount</text><line style="stroke:#A80036;stroke-width:1.0;" x1="366.34" x2="527.5373" y1="512.8325" y2="512.8325"/><rect fill="none" height="6" style="stroke:#C82930;stroke-width:1.0;" width="6" x="373.34" y="523.4809"/><text fill="#000000" font-family="sans-serif" font-size="14" lengthAdjust="spacing" textLength="67.8535" x="385.34" y="529.8276">id:Integer</text><rect fill="none" height="6" style="stroke:#C82930;stroke-width:1.0;" width="6" x="373.34" y="539.7778"/><text fill="#000000" font-family="sans-serif" font-size="14" lengthAdjust="spacing" textLength="86.2012" x="385.34" y="546.1245">name:String</text><rect fill="none" height="6" style="stroke:#C82930;stroke-width:1.0;" width="6" x="373.34" y="556.0747"/><text fill="#000000" font-family="sans-serif" font-size="14" lengthAdjust="spacing" textLength="113.21" x="385.34" y="562.4214">password:String</text><rect fill="none" height="6" style="stroke:#C82930;stroke-width:1.0;" width="6" x="373.34" y="572.3716"/><text fill="#000000" font-family="sans-serif" font-size="14" lengthAdjust="spacing" textLength="137.1973" x="385.34" y="578.7182">employeeId:Integer</text></g><!--class Employee--><g id="elem_Employee"><rect codeLine="30" fill="#FEFECE" height="113.4531" id="Employee" style="stroke:#A80036;stroke-width:1.0;" width="176.917" x="358.48" y="324.5669"/><ellipse cx="408.02" cy="344.6997" fill="#ADD1B2" rx="11" ry="11" style="stroke:#A80036;stroke-width:1.0;"/><path d="M410.9888,350.3403 Q410.4107,350.6372 409.77,350.7778 Q409.1294,350.9341 408.4263,350.9341 Q405.9263,350.9341 404.5982,349.2934 Q403.2857,347.6372 403.2857,344.5122 Q403.2857,341.3872 404.5982,339.7309 Q405.9263,338.0747 408.4263,338.0747 Q409.1294,338.0747 409.77,338.2309 Q410.4263,338.3872 410.9888,338.6841 L410.9888,341.4028 Q410.3638,340.8247 409.77,340.5591 Q409.1763,340.2778 408.5513,340.2778 Q407.2075,340.2778 406.52,341.3559 Q405.8325,342.4184 405.8325,344.5122 Q405.8325,346.6059 406.52,347.6841 Q407.2075,348.7466 408.5513,348.7466 Q409.1763,348.7466 409.77,348.4809 Q410.3638,348.1997 410.9888,347.6216 L410.9888,350.3403 Z " fill="#000000"/><text fill="#000000" font-family="sans-serif" font-size="12" font-style="italic" lengthAdjust="spacing" textLength="55.3359" x="435.5205" y="340.7055">&#171;@Data&#187;</text><text fill="#000000" font-family="sans-serif" font-size="14" lengthAdjust="spacing" textLength="69.3369" x="428.52" y="356.5307">Employee</text><line style="stroke:#A80036;stroke-width:1.0;" x1="359.48" x2="534.397" y1="364.8325" y2="364.8325"/><rect fill="none" height="6" style="stroke:#C82930;stroke-width:1.0;" width="6" x="366.48" y="375.4809"/><text fill="#000000" font-family="sans-serif" font-size="14" lengthAdjust="spacing" textLength="67.8535" x="378.48" y="381.8276">id:Integer</text><rect fill="none" height="6" style="stroke:#C82930;stroke-width:1.0;" width="6" x="366.48" y="391.7778"/><text fill="#000000" font-family="sans-serif" font-size="14" lengthAdjust="spacing" textLength="86.2012" x="378.48" y="398.1245">name:String</text><rect fill="none" height="6" style="stroke:#C82930;stroke-width:1.0;" width="6" x="366.48" y="408.0747"/><text fill="#000000" font-family="sans-serif" font-size="14" lengthAdjust="spacing" textLength="121.4131" x="378.48" y="414.4214">nameKana:String</text><rect fill="none" height="6" style="stroke:#C82930;stroke-width:1.0;" width="6" x="366.48" y="424.3716"/><text fill="#000000" font-family="sans-serif" font-size="14" lengthAdjust="spacing" textLength="150.917" x="378.48" y="430.7182">departmentId:Integer</text></g><!--class Customer--><g id="elem_Customer"><rect codeLine="36" fill="#FEFECE" height="211.2344" id="Customer" style="stroke:#A80036;stroke-width:1.0;" width="172.5488" x="360.67" y="78.6769"/><ellipse cx="408.6925" cy="98.8097" fill="#ADD1B2" rx="11" ry="11" style="stroke:#A80036;stroke-width:1.0;"/><path d="M411.6612,104.4503 Q411.0831,104.7472 410.4425,104.8878 Q409.8018,105.0441 409.0987,105.0441 Q406.5987,105.0441 405.2706,103.4034 Q403.9581,101.7472 403.9581,98.6222 Q403.9581,95.4972 405.2706,93.8409 Q406.5987,92.1847 409.0987,92.1847 Q409.8018,92.1847 410.4425,92.3409 Q411.0987,92.4972 411.6612,92.7941 L411.6612,95.5128 Q411.0362,94.9347 410.4425,94.6691 Q409.8487,94.3878 409.2237,94.3878 Q407.88,94.3878 407.1925,95.4659 Q406.505,96.5284 406.505,98.6222 Q406.505,100.7159 407.1925,101.7941 Q407.88,102.8566 409.2237,102.8566 Q409.8487,102.8566 410.4425,102.5909 Q411.0362,102.3097 411.6612,101.7316 L411.6612,104.4503 Z " fill="#000000"/><text fill="#000000" font-family="sans-serif" font-size="12" font-style="italic" lengthAdjust="spacing" textLength="55.3359" x="435.5264" y="94.8155">&#171;@Data&#187;</text><text fill="#000000" font-family="sans-serif" font-size="14" lengthAdjust="spacing" textLength="68.0039" x="429.1925" y="110.6407">Customer</text><line style="stroke:#A80036;stroke-width:1.0;" x1="361.67" x2="532.2188" y1="118.9425" y2="118.9425"/><rect fill="none" height="6" style="stroke:#C82930;stroke-width:1.0;" width="6" x="368.67" y="129.5909"/><text fill="#000000" font-family="sans-serif" font-size="14" lengthAdjust="spacing" textLength="67.8535" x="380.67" y="135.9376">id:Integer</text><rect fill="none" height="6" style="stroke:#C82930;stroke-width:1.0;" width="6" x="368.67" y="145.8878"/><text fill="#000000" font-family="sans-serif" font-size="14" lengthAdjust="spacing" textLength="86.2012" x="380.67" y="152.2345">name:String</text><rect fill="none" height="6" style="stroke:#C82930;stroke-width:1.0;" width="6" x="368.67" y="162.1847"/><text fill="#000000" font-family="sans-serif" font-size="14" lengthAdjust="spacing" textLength="121.4131" x="380.67" y="168.5314">nameKana:String</text><rect fill="none" height="6" style="stroke:#C82930;stroke-width:1.0;" width="6" x="368.67" y="178.4816"/><text fill="#000000" font-family="sans-serif" font-size="14" lengthAdjust="spacing" textLength="110.7148" x="380.67" y="184.8282">address1:String</text><rect fill="none" height="6" style="stroke:#C82930;stroke-width:1.0;" width="6" x="368.67" y="194.7784"/><text fill="#000000" font-family="sans-serif" font-size="14" lengthAdjust="spacing" textLength="110.7148" x="380.67" y="201.1251">address2:String</text><rect fill="none" height="6" style="stroke:#C82930;stroke-width:1.0;" width="6" x="368.67" y="211.0753"/><text fill="#000000" font-family="sans-serif" font-size="14" lengthAdjust="spacing" textLength="146.5488" x="380.67" y="217.422">phoneNumber:String</text><rect fill="none" height="6" style="stroke:#C82930;stroke-width:1.0;" width="6" x="368.67" y="227.3722"/><text fill="#000000" font-family="sans-serif" font-size="14" lengthAdjust="spacing" textLength="132.8018" x="380.67" y="233.7189">mailAddress:String</text><rect fill="none" height="6" style="stroke:#C82930;stroke-width:1.0;" width="6" x="368.67" y="243.6691"/><text fill="#000000" font-family="sans-serif" font-size="14" lengthAdjust="spacing" textLength="116.7373" x="380.67" y="250.0157">username:String</text><rect fill="none" height="6" style="stroke:#C82930;stroke-width:1.0;" width="6" x="368.67" y="259.9659"/><text fill="#000000" font-family="sans-serif" font-size="14" lengthAdjust="spacing" textLength="113.21" x="380.67" y="266.3126">password:String</text><rect fill="none" height="6" style="stroke:#C82930;stroke-width:1.0;" width="6" x="368.67" y="276.2628"/><text fill="#000000" font-family="sans-serif" font-size="14" lengthAdjust="spacing" textLength="125.6719" x="380.67" y="282.6095">Date registerDate</text></g><!--class Order--><g id="elem_Order"><rect codeLine="48" fill="#FEFECE" height="129.75" id="Order" style="stroke:#A80036;stroke-width:1.0;" width="176.2813" x="595.4" y="456.4269"/><ellipse cx="653.6227" cy="476.5597" fill="#ADD1B2" rx="11" ry="11" style="stroke:#A80036;stroke-width:1.0;"/><path d="M656.5914,482.2003 Q656.0133,482.4972 655.3727,482.6378 Q654.732,482.7941 654.0289,482.7941 Q651.5289,482.7941 650.2008,481.1534 Q648.8883,479.4972 648.8883,476.3722 Q648.8883,473.2472 650.2008,471.5909 Q651.5289,469.9347 654.0289,469.9347 Q654.732,469.9347 655.3727,470.0909 Q656.0289,470.2472 656.5914,470.5441 L656.5914,473.2628 Q655.9664,472.6847 655.3727,472.4191 Q654.7789,472.1378 654.1539,472.1378 Q652.8102,472.1378 652.1227,473.2159 Q651.4352,474.2784 651.4352,476.3722 Q651.4352,478.4659 652.1227,479.5441 Q652.8102,480.6066 654.1539,480.6066 Q654.7789,480.6066 655.3727,480.3409 Q655.9664,480.0597 656.5914,479.4816 L656.5914,482.2003 Z " fill="#000000"/><text fill="#000000" font-family="sans-serif" font-size="12" font-style="italic" lengthAdjust="spacing" textLength="55.3359" x="672.1227" y="472.5655">&#171;@Data&#187;</text><text fill="#000000" font-family="sans-serif" font-size="14" lengthAdjust="spacing" textLength="40.0313" x="679.775" y="488.3907">Order</text><line style="stroke:#A80036;stroke-width:1.0;" x1="596.4" x2="770.6813" y1="496.6925" y2="496.6925"/><rect fill="none" height="6" style="stroke:#C82930;stroke-width:1.0;" width="6" x="603.4" y="507.3409"/><text fill="#000000" font-family="sans-serif" font-size="14" lengthAdjust="spacing" textLength="67.8535" x="615.4" y="513.6876">id:Integer</text><rect fill="none" height="6" style="stroke:#C82930;stroke-width:1.0;" width="6" x="603.4" y="523.6378"/><text fill="#000000" font-family="sans-serif" font-size="14" lengthAdjust="spacing" textLength="134.0186" x="615.4" y="529.9845">customerId:Integer</text><rect fill="none" height="6" style="stroke:#C82930;stroke-width:1.0;" width="6" x="603.4" y="539.9347"/><text fill="#000000" font-family="sans-serif" font-size="14" lengthAdjust="spacing" textLength="150.2813" x="615.4" y="546.2814">orderStatusId:Integer</text><rect fill="none" height="6" style="stroke:#C82930;stroke-width:1.0;" width="6" x="603.4" y="556.2316"/><text fill="#000000" font-family="sans-serif" font-size="14" lengthAdjust="spacing" textLength="109.2178" x="615.4" y="562.5782">orderDate:Date</text><rect fill="none" height="6" style="stroke:#C82930;stroke-width:1.0;" width="6" x="603.4" y="572.5284"/><text fill="#000000" font-family="sans-serif" font-size="14" lengthAdjust="spacing" textLength="144.1699" x="615.4" y="578.8751">amountTotal:Integer</text></g><!--class OrderStatus--><g id="elem_OrderStatus"><rect codeLine="55" fill="#FEFECE" height="80.8594" id="OrderStatus" style="stroke:#A80036;stroke-width:1.0;" width="116.6426" x="625.22" y="340.8669"/><ellipse cx="640.22" cy="360.9997" fill="#ADD1B2" rx="11" ry="11" style="stroke:#A80036;stroke-width:1.0;"/><path d="M643.1888,366.6403 Q642.6106,366.9372 641.97,367.0778 Q641.3294,367.2341 640.6263,367.2341 Q638.1263,367.2341 636.7981,365.5934 Q635.4856,363.9372 635.4856,360.8122 Q635.4856,357.6872 636.7981,356.0309 Q638.1263,354.3747 640.6263,354.3747 Q641.3294,354.3747 641.97,354.5309 Q642.6263,354.6872 643.1888,354.9841 L643.1888,357.7028 Q642.5638,357.1247 641.97,356.8591 Q641.3763,356.5778 640.7513,356.5778 Q639.4075,356.5778 638.72,357.6559 Q638.0325,358.7184 638.0325,360.8122 Q638.0325,362.9059 638.72,363.9841 Q639.4075,365.0466 640.7513,365.0466 Q641.3763,365.0466 641.97,364.7809 Q642.5638,364.4997 643.1888,363.9216 L643.1888,366.6403 Z " fill="#000000"/><text fill="#000000" font-family="sans-serif" font-size="12" font-style="italic" lengthAdjust="spacing" textLength="55.3359" x="668.8733" y="357.0055">&#171;@Data&#187;</text><text fill="#000000" font-family="sans-serif" font-size="14" lengthAdjust="spacing" textLength="84.6426" x="654.22" y="372.8307">OrderStatus</text><line style="stroke:#A80036;stroke-width:1.0;" x1="626.22" x2="740.8626" y1="381.1325" y2="381.1325"/><rect fill="none" height="6" style="stroke:#C82930;stroke-width:1.0;" width="6" x="633.22" y="391.7809"/><text fill="#000000" font-family="sans-serif" font-size="14" lengthAdjust="spacing" textLength="67.8535" x="645.22" y="398.1276">id:Integer</text><rect fill="none" height="6" style="stroke:#C82930;stroke-width:1.0;" width="6" x="633.22" y="408.0778"/><text fill="#000000" font-family="sans-serif" font-size="14" lengthAdjust="spacing" textLength="86.2012" x="645.22" y="414.4245">name:String</text></g><!--class OrderDetail--><g id="elem_OrderDetail"><rect codeLine="59" fill="#FEFECE" height="129.75" id="OrderDetail" style="stroke:#A80036;stroke-width:1.0;" width="160.0186" x="603.53" y="176.4269"/><ellipse cx="639.5657" cy="196.5597" fill="#ADD1B2" rx="11" ry="11" style="stroke:#A80036;stroke-width:1.0;"/><path d="M642.5345,202.2003 Q641.9564,202.4972 641.3157,202.6378 Q640.6751,202.7941 639.972,202.7941 Q637.472,202.7941 636.1439,201.1534 Q634.8314,199.4972 634.8314,196.3722 Q634.8314,193.2472 636.1439,191.5909 Q637.472,189.9347 639.972,189.9347 Q640.6751,189.9347 641.3157,190.0909 Q641.972,190.2472 642.5345,190.5441 L642.5345,193.2628 Q641.9095,192.6847 641.3157,192.4191 Q640.722,192.1378 640.097,192.1378 Q638.7532,192.1378 638.0657,193.2159 Q637.3782,194.2784 637.3782,196.3722 Q637.3782,198.4659 638.0657,199.5441 Q638.7532,200.6066 640.097,200.6066 Q640.722,200.6066 641.3157,200.3409 Q641.9095,200.0597 642.5345,199.4816 L642.5345,202.2003 Z " fill="#000000"/><text fill="#000000" font-family="sans-serif" font-size="12" font-style="italic" lengthAdjust="spacing" textLength="55.3359" x="671.2086" y="192.5655">&#171;@Data&#187;</text><text fill="#000000" font-family="sans-serif" font-size="14" lengthAdjust="spacing" textLength="81.2725" x="658.2404" y="208.3907">OrderDetail</text><line style="stroke:#A80036;stroke-width:1.0;" x1="604.53" x2="762.5486" y1="216.6925" y2="216.6925"/><rect fill="none" height="6" style="stroke:#C82930;stroke-width:1.0;" width="6" x="611.53" y="227.3409"/><text fill="#000000" font-family="sans-serif" font-size="14" lengthAdjust="spacing" textLength="67.8535" x="623.53" y="233.6876">id:Integer</text><rect fill="none" height="6" style="stroke:#C82930;stroke-width:1.0;" width="6" x="611.53" y="243.6378"/><text fill="#000000" font-family="sans-serif" font-size="14" lengthAdjust="spacing" textLength="105.6699" x="623.53" y="249.9845">orderId:Integer</text><rect fill="none" height="6" style="stroke:#C82930;stroke-width:1.0;" width="6" x="611.53" y="259.9347"/><text fill="#000000" font-family="sans-serif" font-size="14" lengthAdjust="spacing" textLength="122.2471" x="623.53" y="266.2814">productId:Integer</text><rect fill="none" height="6" style="stroke:#C82930;stroke-width:1.0;" width="6" x="611.53" y="276.2316"/><text fill="#000000" font-family="sans-serif" font-size="14" lengthAdjust="spacing" textLength="134.0186" x="623.53" y="282.5782">customerId:Integer</text><rect fill="none" height="6" style="stroke:#C82930;stroke-width:1.0;" width="6" x="611.53" y="292.5284"/><text fill="#000000" font-family="sans-serif" font-size="14" lengthAdjust="spacing" textLength="94.5752" x="623.53" y="298.8751">count:Integer</text></g><!--SRC=[jLDBJiCm4Dtd5Bu02rXM256r85L85AbmWC4UKgl-XF54g4BTj2VWAEnOS9jS12Uaq984oiyRn_CoR-OzUy9CEq4-O1BYLmO4LeGfA7-dNIfkm4J4u0qBze9qEcMXDA5axLqorGe5sepdmgAzHWe9QpOnvk8-BrOFnMfLB1-BrNEnV4eoa3D8r-Xz8kAI1a8G5-HLBldmy7W834T7hrYvzeHMlP5ZJ974HjI1nTw4gMno8voHbhZ-VvF4ni9NPEgKhOogz01YYgTvxsBxl4ckq23ZgO5qgyAYAMIT_OMWTZrTf1FsShOxusqEbSyjKArvf3frdDZC-3bYNqgVE_wvZhfWvBppf9e8reLswEMtJPJHCt3GH1J6TyyslijFsXZaWRr5-hysG2d24FOxaOCMPwVUuNbU3byJjA1D_pMr2UO1wRkt5OMZ84nrOAJoq71fJEex5idQr54Rw4kk2GFdeHilk-YzjLBRPSj7U-aPJETrZj_9_sPAAy8XSlHyTy9AGgkuzXdTmRLgO3_8Nhm0]--></g></svg>