<?xml version="1.0" encoding="us-ascii" standalone="no"?><svg xmlns="http://www.w3.org/2000/svg" xmlns:xlink="http://www.w3.org/1999/xlink" contentStyleType="text/css" height="609px" preserveAspectRatio="none" style="width:828px;height:609px;background:#FFFFFF;" version="1.1" viewBox="0 0 828 609" width="828px" zoomAndPan="magnify"><defs/><g><text fill="#000000" font-family="sans-serif" font-size="14" font-weight="bold" lengthAdjust="spacing" textLength="124" x="345" y="22.9951">entity&#12497;&#12483;&#12465;&#12540;&#12472;</text><!--cluster entity--><g id="cluster_entity"><polygon fill="none" points="16,43.2969,71,43.2969,78,65.5938,811,65.5938,811,602.2969,16,602.2969,16,43.2969" style="stroke:#000000;stroke-width:1.5;"/><line style="stroke:#000000;stroke-width:1.5;" x1="16" x2="78" y1="65.5938" y2="65.5938"/><text fill="#000000" font-family="sans-serif" font-size="14" font-weight="bold" lengthAdjust="spacing" textLength="49" x="20" y="58.292">entity</text></g><!--class Product--><g id="elem_Product"><rect codeLine="7" fill="#FEFECE" height="146.0469" id="Product" style="stroke:#A80036;stroke-width:1.0;" width="276" x="32" y="440.2969"/><ellipse cx="137.75" cy="460.4297" fill="#ADD1B2" rx="11" ry="11" style="stroke:#A80036;stroke-width:1.0;"/><path d="M140.0938,456.1016 C139.1563,455.6641 138.5625,455.5234 137.6875,455.5234 C135.0625,455.5234 133.0625,457.6016 133.0625,460.3203 L133.0625,461.4453 C133.0625,464.0234 135.1719,465.9141 138.0625,465.9141 C139.2813,465.9141 140.4375,465.6172 141.1875,465.0703 C141.7656,464.6641 142.0938,464.2109 142.0938,463.8203 C142.0938,463.3672 141.7031,462.9766 141.2344,462.9766 C141.0156,462.9766 140.8125,463.0547 140.625,463.2422 C140.1719,463.7266 140.1719,463.7266 139.9844,463.8203 C139.5625,464.0859 138.875,464.2109 138.1094,464.2109 C136.0625,464.2109 134.7656,463.1172 134.7656,461.4141 L134.7656,460.3203 C134.7656,458.5391 136.0156,457.2266 137.75,457.2266 C138.3281,457.2266 138.9375,457.3828 139.4063,457.6328 C139.8906,457.9141 140.0625,458.1328 140.1563,458.5391 C140.2188,458.9453 140.25,459.0703 140.3906,459.1953 C140.5313,459.3359 140.7656,459.4453 140.9844,459.4453 C141.25,459.4453 141.5156,459.3047 141.6875,459.0859 C141.7969,458.9297 141.8281,458.7422 141.8281,458.3203 L141.8281,456.8984 C141.8281,456.4609 141.8125,456.3359 141.7188,456.1797 C141.5625,455.9141 141.2813,455.7734 140.9844,455.7734 C140.6875,455.7734 140.4844,455.8672 140.2656,456.1797 L140.0938,456.1016 Z " fill="#000000"/><text fill="#000000" font-family="sans-serif" font-size="12" font-style="italic" lengthAdjust="spacing" textLength="54" x="159.25" y="456.4355">&#171;@Data&#187;</text><text fill="#000000" font-family="sans-serif" font-size="14" lengthAdjust="spacing" textLength="56" x="158.25" y="472.2607">Product</text><line style="stroke:#A80036;stroke-width:1.0;" x1="33" x2="307" y1="480.5625" y2="480.5625"/><rect fill="none" height="6" style="stroke:#C82930;stroke-width:1.0;" width="6" x="40" y="491.2109"/><text fill="#000000" font-family="sans-serif" font-size="14" lengthAdjust="spacing" textLength="71" x="52" y="497.5576">id:Integer</text><rect fill="none" height="6" style="stroke:#C82930;stroke-width:1.0;" width="6" x="40" y="507.5078"/><text fill="#000000" font-family="sans-serif" font-size="14" lengthAdjust="spacing" textLength="89" x="52" y="513.8545">name:String</text><rect fill="none" height="6" style="stroke:#C82930;stroke-width:1.0;" width="6" x="40" y="523.8047"/><text fill="#000000" font-family="sans-serif" font-size="14" lengthAdjust="spacing" textLength="95" x="52" y="530.1514">price:Integer</text><rect fill="none" height="6" style="stroke:#C82930;stroke-width:1.0;" width="6" x="40" y="540.1016"/><text fill="#000000" font-family="sans-serif" font-size="14" lengthAdjust="spacing" textLength="112" x="52" y="546.4482">imageUrl:String</text><rect fill="none" height="6" style="stroke:#C82930;stroke-width:1.0;" width="6" x="40" y="556.3984"/><text fill="#000000" font-family="sans-serif" font-size="14" lengthAdjust="spacing" textLength="250" x="52" y="562.7451">productCategory:ProductCategory</text><rect fill="none" height="6" style="stroke:#C82930;stroke-width:1.0;" width="6" x="40" y="572.6953"/><text fill="#000000" font-family="sans-serif" font-size="14" lengthAdjust="spacing" textLength="134" x="52" y="579.042">deleteFlag:Integer</text></g><!--class ProductCategory--><g id="elem_ProductCategory"><rect codeLine="15" fill="#FEFECE" height="80.8594" id="ProductCategory" style="stroke:#A80036;stroke-width:1.0;" width="154" x="93" y="323.7969"/><ellipse cx="108" cy="343.9297" fill="#ADD1B2" rx="11" ry="11" style="stroke:#A80036;stroke-width:1.0;"/><path d="M110.3438,339.6016 C109.4063,339.1641 108.8125,339.0234 107.9375,339.0234 C105.3125,339.0234 103.3125,341.1016 103.3125,343.8203 L103.3125,344.9453 C103.3125,347.5234 105.4219,349.4141 108.3125,349.4141 C109.5313,349.4141 110.6875,349.1172 111.4375,348.5703 C112.0156,348.1641 112.3438,347.7109 112.3438,347.3203 C112.3438,346.8672 111.9531,346.4766 111.4844,346.4766 C111.2656,346.4766 111.0625,346.5547 110.875,346.7422 C110.4219,347.2266 110.4219,347.2266 110.2344,347.3203 C109.8125,347.5859 109.125,347.7109 108.3594,347.7109 C106.3125,347.7109 105.0156,346.6172 105.0156,344.9141 L105.0156,343.8203 C105.0156,342.0391 106.2656,340.7266 108,340.7266 C108.5781,340.7266 109.1875,340.8828 109.6563,341.1328 C110.1406,341.4141 110.3125,341.6328 110.4063,342.0391 C110.4688,342.4453 110.5,342.5703 110.6406,342.6953 C110.7813,342.8359 111.0156,342.9453 111.2344,342.9453 C111.5,342.9453 111.7656,342.8047 111.9375,342.5859 C112.0469,342.4297 112.0781,342.2422 112.0781,341.8203 L112.0781,340.3984 C112.0781,339.9609 112.0625,339.8359 111.9688,339.6797 C111.8125,339.4141 111.5313,339.2734 111.2344,339.2734 C110.9375,339.2734 110.7344,339.3672 110.5156,339.6797 L110.3438,339.6016 Z " fill="#000000"/><text fill="#000000" font-family="sans-serif" font-size="12" font-style="italic" lengthAdjust="spacing" textLength="54" x="156" y="339.9355">&#171;@Data&#187;</text><text fill="#000000" font-family="sans-serif" font-size="14" lengthAdjust="spacing" textLength="122" x="122" y="355.7607">ProductCategory</text><line style="stroke:#A80036;stroke-width:1.0;" x1="94" x2="246" y1="364.0625" y2="364.0625"/><rect fill="none" height="6" style="stroke:#C82930;stroke-width:1.0;" width="6" x="101" y="374.7109"/><text fill="#000000" font-family="sans-serif" font-size="14" lengthAdjust="spacing" textLength="71" x="113" y="381.0576">id:Integer</text><rect fill="none" height="6" style="stroke:#C82930;stroke-width:1.0;" width="6" x="101" y="391.0078"/><text fill="#000000" font-family="sans-serif" font-size="14" lengthAdjust="spacing" textLength="89" x="113" y="397.3545">name:String</text></g><!--class ProductStock--><g id="elem_ProductStock"><rect codeLine="19" fill="#FEFECE" height="97.1563" id="ProductStock" style="stroke:#A80036;stroke-width:1.0;" width="154" x="93" y="191.7969"/><ellipse cx="118.8" cy="211.9297" fill="#ADD1B2" rx="11" ry="11" style="stroke:#A80036;stroke-width:1.0;"/><path d="M121.1438,207.6016 C120.2063,207.1641 119.6125,207.0234 118.7375,207.0234 C116.1125,207.0234 114.1125,209.1016 114.1125,211.8203 L114.1125,212.9453 C114.1125,215.5234 116.2219,217.4141 119.1125,217.4141 C120.3313,217.4141 121.4875,217.1172 122.2375,216.5703 C122.8156,216.1641 123.1438,215.7109 123.1438,215.3203 C123.1438,214.8672 122.7531,214.4766 122.2844,214.4766 C122.0656,214.4766 121.8625,214.5547 121.675,214.7422 C121.2219,215.2266 121.2219,215.2266 121.0344,215.3203 C120.6125,215.5859 119.925,215.7109 119.1594,215.7109 C117.1125,215.7109 115.8156,214.6172 115.8156,212.9141 L115.8156,211.8203 C115.8156,210.0391 117.0656,208.7266 118.8,208.7266 C119.3781,208.7266 119.9875,208.8828 120.4563,209.1328 C120.9406,209.4141 121.1125,209.6328 121.2063,210.0391 C121.2688,210.4453 121.3,210.5703 121.4406,210.6953 C121.5813,210.8359 121.8156,210.9453 122.0344,210.9453 C122.3,210.9453 122.5656,210.8047 122.7375,210.5859 C122.8469,210.4297 122.8781,210.2422 122.8781,209.8203 L122.8781,208.3984 C122.8781,207.9609 122.8625,207.8359 122.7688,207.6797 C122.6125,207.4141 122.3313,207.2734 122.0344,207.2734 C121.7375,207.2734 121.5344,207.3672 121.3156,207.6797 L121.1438,207.6016 Z " fill="#000000"/><text fill="#000000" font-family="sans-serif" font-size="12" font-style="italic" lengthAdjust="spacing" textLength="54" x="157.2" y="207.9355">&#171;@Data&#187;</text><text fill="#000000" font-family="sans-serif" font-size="14" lengthAdjust="spacing" textLength="98" x="135.2" y="223.7607">ProductStock</text><line style="stroke:#A80036;stroke-width:1.0;" x1="94" x2="246" y1="232.0625" y2="232.0625"/><rect fill="none" height="6" style="stroke:#C82930;stroke-width:1.0;" width="6" x="101" y="242.7109"/><text fill="#000000" font-family="sans-serif" font-size="14" lengthAdjust="spacing" textLength="71" x="113" y="249.0576">id:Integer</text><rect fill="none" height="6" style="stroke:#C82930;stroke-width:1.0;" width="6" x="101" y="259.0078"/><text fill="#000000" font-family="sans-serif" font-size="14" lengthAdjust="spacing" textLength="118" x="113" y="265.3545">quantity:Integer</text><rect fill="none" height="6" style="stroke:#C82930;stroke-width:1.0;" width="6" x="101" y="275.3047"/><text fill="#000000" font-family="sans-serif" font-size="14" lengthAdjust="spacing" textLength="128" x="113" y="281.6514">productId:Integer</text></g><!--class EmployeeAccount--><g id="elem_EmployeeAccount"><rect codeLine="24" fill="#FEFECE" height="113.4531" id="EmployeeAccount" style="stroke:#A80036;stroke-width:1.0;" width="169" x="376" y="472.7969"/><ellipse cx="393.7" cy="492.9297" fill="#ADD1B2" rx="11" ry="11" style="stroke:#A80036;stroke-width:1.0;"/><path d="M396.0438,488.6016 C395.1063,488.1641 394.5125,488.0234 393.6375,488.0234 C391.0125,488.0234 389.0125,490.1016 389.0125,492.8203 L389.0125,493.9453 C389.0125,496.5234 391.1219,498.4141 394.0125,498.4141 C395.2313,498.4141 396.3875,498.1172 397.1375,497.5703 C397.7156,497.1641 398.0438,496.7109 398.0438,496.3203 C398.0438,495.8672 397.6531,495.4766 397.1844,495.4766 C396.9656,495.4766 396.7625,495.5547 396.575,495.7422 C396.1219,496.2266 396.1219,496.2266 395.9344,496.3203 C395.5125,496.5859 394.825,496.7109 394.0594,496.7109 C392.0125,496.7109 390.7156,495.6172 390.7156,493.9141 L390.7156,492.8203 C390.7156,491.0391 391.9656,489.7266 393.7,489.7266 C394.2781,489.7266 394.8875,489.8828 395.3563,490.1328 C395.8406,490.4141 396.0125,490.6328 396.1063,491.0391 C396.1688,491.4453 396.2,491.5703 396.3406,491.6953 C396.4813,491.8359 396.7156,491.9453 396.9344,491.9453 C397.2,491.9453 397.4656,491.8047 397.6375,491.5859 C397.7469,491.4297 397.7781,491.2422 397.7781,490.8203 L397.7781,489.3984 C397.7781,488.9609 397.7625,488.8359 397.6688,488.6797 C397.5125,488.4141 397.2313,488.2734 396.9344,488.2734 C396.6375,488.2734 396.4344,488.3672 396.2156,488.6797 L396.0438,488.6016 Z " fill="#000000"/><text fill="#000000" font-family="sans-serif" font-size="12" font-style="italic" lengthAdjust="spacing" textLength="54" x="446.8" y="488.9355">&#171;@Data&#187;</text><text fill="#000000" font-family="sans-serif" font-size="14" lengthAdjust="spacing" textLength="131" x="408.3" y="504.7607">EmployeeAccount</text><line style="stroke:#A80036;stroke-width:1.0;" x1="377" x2="544" y1="513.0625" y2="513.0625"/><rect fill="none" height="6" style="stroke:#C82930;stroke-width:1.0;" width="6" x="384" y="523.7109"/><text fill="#000000" font-family="sans-serif" font-size="14" lengthAdjust="spacing" textLength="71" x="396" y="530.0576">id:Integer</text><rect fill="none" height="6" style="stroke:#C82930;stroke-width:1.0;" width="6" x="384" y="540.0078"/><text fill="#000000" font-family="sans-serif" font-size="14" lengthAdjust="spacing" textLength="89" x="396" y="546.3545">name:String</text><rect fill="none" height="6" style="stroke:#C82930;stroke-width:1.0;" width="6" x="384" y="556.3047"/><text fill="#000000" font-family="sans-serif" font-size="14" lengthAdjust="spacing" textLength="116" x="396" y="562.6514">password:String</text><rect fill="none" height="6" style="stroke:#C82930;stroke-width:1.0;" width="6" x="384" y="572.6016"/><text fill="#000000" font-family="sans-serif" font-size="14" lengthAdjust="spacing" textLength="143" x="396" y="578.9482">employeeId:Integer</text></g><!--class Employee--><g id="elem_Employee"><rect codeLine="30" fill="#FEFECE" height="113.4531" id="Employee" style="stroke:#A80036;stroke-width:1.0;" width="185" x="368" y="324.7969"/><ellipse cx="420.25" cy="344.9297" fill="#ADD1B2" rx="11" ry="11" style="stroke:#A80036;stroke-width:1.0;"/><path d="M422.5938,340.6016 C421.6563,340.1641 421.0625,340.0234 420.1875,340.0234 C417.5625,340.0234 415.5625,342.1016 415.5625,344.8203 L415.5625,345.9453 C415.5625,348.5234 417.6719,350.4141 420.5625,350.4141 C421.7813,350.4141 422.9375,350.1172 423.6875,349.5703 C424.2656,349.1641 424.5938,348.7109 424.5938,348.3203 C424.5938,347.8672 424.2031,347.4766 423.7344,347.4766 C423.5156,347.4766 423.3125,347.5547 423.125,347.7422 C422.6719,348.2266 422.6719,348.2266 422.4844,348.3203 C422.0625,348.5859 421.375,348.7109 420.6094,348.7109 C418.5625,348.7109 417.2656,347.6172 417.2656,345.9141 L417.2656,344.8203 C417.2656,343.0391 418.5156,341.7266 420.25,341.7266 C420.8281,341.7266 421.4375,341.8828 421.9063,342.1328 C422.3906,342.4141 422.5625,342.6328 422.6563,343.0391 C422.7188,343.4453 422.75,343.5703 422.8906,343.6953 C423.0313,343.8359 423.2656,343.9453 423.4844,343.9453 C423.75,343.9453 424.0156,343.8047 424.1875,343.5859 C424.2969,343.4297 424.3281,343.2422 424.3281,342.8203 L424.3281,341.3984 C424.3281,340.9609 424.3125,340.8359 424.2188,340.6797 C424.0625,340.4141 423.7813,340.2734 423.4844,340.2734 C423.1875,340.2734 422.9844,340.3672 422.7656,340.6797 L422.5938,340.6016 Z " fill="#000000"/><text fill="#000000" font-family="sans-serif" font-size="12" font-style="italic" lengthAdjust="spacing" textLength="54" x="449.75" y="340.9355">&#171;@Data&#187;</text><text fill="#000000" font-family="sans-serif" font-size="14" lengthAdjust="spacing" textLength="72" x="440.75" y="356.7607">Employee</text><line style="stroke:#A80036;stroke-width:1.0;" x1="369" x2="552" y1="365.0625" y2="365.0625"/><rect fill="none" height="6" style="stroke:#C82930;stroke-width:1.0;" width="6" x="376" y="375.7109"/><text fill="#000000" font-family="sans-serif" font-size="14" lengthAdjust="spacing" textLength="71" x="388" y="382.0576">id:Integer</text><rect fill="none" height="6" style="stroke:#C82930;stroke-width:1.0;" width="6" x="376" y="392.0078"/><text fill="#000000" font-family="sans-serif" font-size="14" lengthAdjust="spacing" textLength="89" x="388" y="398.3545">name:String</text><rect fill="none" height="6" style="stroke:#C82930;stroke-width:1.0;" width="6" x="376" y="408.3047"/><text fill="#000000" font-family="sans-serif" font-size="14" lengthAdjust="spacing" textLength="124" x="388" y="414.6514">nameKana:String</text><rect fill="none" height="6" style="stroke:#C82930;stroke-width:1.0;" width="6" x="376" y="424.6016"/><text fill="#000000" font-family="sans-serif" font-size="14" lengthAdjust="spacing" textLength="159" x="388" y="430.9482">departmentId:Integer</text></g><!--class Customer--><g id="elem_Customer"><rect codeLine="36" fill="#FEFECE" height="211.2344" id="Customer" style="stroke:#A80036;stroke-width:1.0;" width="178" x="371.5" y="78.7969"/><ellipse cx="421.25" cy="98.9297" fill="#ADD1B2" rx="11" ry="11" style="stroke:#A80036;stroke-width:1.0;"/><path d="M423.5938,94.6016 C422.6563,94.1641 422.0625,94.0234 421.1875,94.0234 C418.5625,94.0234 416.5625,96.1016 416.5625,98.8203 L416.5625,99.9453 C416.5625,102.5234 418.6719,104.4141 421.5625,104.4141 C422.7813,104.4141 423.9375,104.1172 424.6875,103.5703 C425.2656,103.1641 425.5938,102.7109 425.5938,102.3203 C425.5938,101.8672 425.2031,101.4766 424.7344,101.4766 C424.5156,101.4766 424.3125,101.5547 424.125,101.7422 C423.6719,102.2266 423.6719,102.2266 423.4844,102.3203 C423.0625,102.5859 422.375,102.7109 421.6094,102.7109 C419.5625,102.7109 418.2656,101.6172 418.2656,99.9141 L418.2656,98.8203 C418.2656,97.0391 419.5156,95.7266 421.25,95.7266 C421.8281,95.7266 422.4375,95.8828 422.9063,96.1328 C423.3906,96.4141 423.5625,96.6328 423.6563,97.0391 C423.7188,97.4453 423.75,97.5703 423.8906,97.6953 C424.0313,97.8359 424.2656,97.9453 424.4844,97.9453 C424.75,97.9453 425.0156,97.8047 425.1875,97.5859 C425.2969,97.4297 425.3281,97.2422 425.3281,96.8203 L425.3281,95.3984 C425.3281,94.9609 425.3125,94.8359 425.2188,94.6797 C425.0625,94.4141 424.7813,94.2734 424.4844,94.2734 C424.1875,94.2734 423.9844,94.3672 423.7656,94.6797 L423.5938,94.6016 Z " fill="#000000"/><text fill="#000000" font-family="sans-serif" font-size="12" font-style="italic" lengthAdjust="spacing" textLength="54" x="449.75" y="94.9355">&#171;@Data&#187;</text><text fill="#000000" font-family="sans-serif" font-size="14" lengthAdjust="spacing" textLength="70" x="441.75" y="110.7607">Customer</text><line style="stroke:#A80036;stroke-width:1.0;" x1="372.5" x2="548.5" y1="119.0625" y2="119.0625"/><rect fill="none" height="6" style="stroke:#C82930;stroke-width:1.0;" width="6" x="379.5" y="129.7109"/><text fill="#000000" font-family="sans-serif" font-size="14" lengthAdjust="spacing" textLength="71" x="391.5" y="136.0576">id:Integer</text><rect fill="none" height="6" style="stroke:#C82930;stroke-width:1.0;" width="6" x="379.5" y="146.0078"/><text fill="#000000" font-family="sans-serif" font-size="14" lengthAdjust="spacing" textLength="89" x="391.5" y="152.3545">name:String</text><rect fill="none" height="6" style="stroke:#C82930;stroke-width:1.0;" width="6" x="379.5" y="162.3047"/><text fill="#000000" font-family="sans-serif" font-size="14" lengthAdjust="spacing" textLength="124" x="391.5" y="168.6514">nameKana:String</text><rect fill="none" height="6" style="stroke:#C82930;stroke-width:1.0;" width="6" x="379.5" y="178.6016"/><text fill="#000000" font-family="sans-serif" font-size="14" lengthAdjust="spacing" textLength="113" x="391.5" y="184.9482">address1:String</text><rect fill="none" height="6" style="stroke:#C82930;stroke-width:1.0;" width="6" x="379.5" y="194.8984"/><text fill="#000000" font-family="sans-serif" font-size="14" lengthAdjust="spacing" textLength="112" x="391.5" y="201.2451">address2:String</text><rect fill="none" height="6" style="stroke:#C82930;stroke-width:1.0;" width="6" x="379.5" y="211.1953"/><text fill="#000000" font-family="sans-serif" font-size="14" lengthAdjust="spacing" textLength="152" x="391.5" y="217.542">phoneNumber:String</text><rect fill="none" height="6" style="stroke:#C82930;stroke-width:1.0;" width="6" x="379.5" y="227.4922"/><text fill="#000000" font-family="sans-serif" font-size="14" lengthAdjust="spacing" textLength="136" x="391.5" y="233.8389">mailAddress:String</text><rect fill="none" height="6" style="stroke:#C82930;stroke-width:1.0;" width="6" x="379.5" y="243.7891"/><text fill="#000000" font-family="sans-serif" font-size="14" lengthAdjust="spacing" textLength="119" x="391.5" y="250.1357">username:String</text><rect fill="none" height="6" style="stroke:#C82930;stroke-width:1.0;" width="6" x="379.5" y="260.0859"/><text fill="#000000" font-family="sans-serif" font-size="14" lengthAdjust="spacing" textLength="116" x="391.5" y="266.4326">password:String</text><rect fill="none" height="6" style="stroke:#C82930;stroke-width:1.0;" width="6" x="379.5" y="276.3828"/><text fill="#000000" font-family="sans-serif" font-size="14" lengthAdjust="spacing" textLength="131" x="391.5" y="282.7295">Date registerDate</text></g><!--class Order--><g id="elem_Order"><rect codeLine="48" fill="#FEFECE" height="129.75" id="Order" style="stroke:#A80036;stroke-width:1.0;" width="182" x="613" y="456.2969"/><ellipse cx="674.75" cy="476.4297" fill="#ADD1B2" rx="11" ry="11" style="stroke:#A80036;stroke-width:1.0;"/><path d="M677.0938,472.1016 C676.1563,471.6641 675.5625,471.5234 674.6875,471.5234 C672.0625,471.5234 670.0625,473.6016 670.0625,476.3203 L670.0625,477.4453 C670.0625,480.0234 672.1719,481.9141 675.0625,481.9141 C676.2813,481.9141 677.4375,481.6172 678.1875,481.0703 C678.7656,480.6641 679.0938,480.2109 679.0938,479.8203 C679.0938,479.3672 678.7031,478.9766 678.2344,478.9766 C678.0156,478.9766 677.8125,479.0547 677.625,479.2422 C677.1719,479.7266 677.1719,479.7266 676.9844,479.8203 C676.5625,480.0859 675.875,480.2109 675.1094,480.2109 C673.0625,480.2109 671.7656,479.1172 671.7656,477.4141 L671.7656,476.3203 C671.7656,474.5391 673.0156,473.2266 674.75,473.2266 C675.3281,473.2266 675.9375,473.3828 676.4063,473.6328 C676.8906,473.9141 677.0625,474.1328 677.1563,474.5391 C677.2188,474.9453 677.25,475.0703 677.3906,475.1953 C677.5313,475.3359 677.7656,475.4453 677.9844,475.4453 C678.25,475.4453 678.5156,475.3047 678.6875,475.0859 C678.7969,474.9297 678.8281,474.7422 678.8281,474.3203 L678.8281,472.8984 C678.8281,472.4609 678.8125,472.3359 678.7188,472.1797 C678.5625,471.9141 678.2813,471.7734 677.9844,471.7734 C677.6875,471.7734 677.4844,471.8672 677.2656,472.1797 L677.0938,472.1016 Z " fill="#000000"/><text fill="#000000" font-family="sans-serif" font-size="12" font-style="italic" lengthAdjust="spacing" textLength="54" x="693.25" y="472.4355">&#171;@Data&#187;</text><text fill="#000000" font-family="sans-serif" font-size="14" lengthAdjust="spacing" textLength="41" x="699.75" y="488.2607">Order</text><line style="stroke:#A80036;stroke-width:1.0;" x1="614" x2="794" y1="496.5625" y2="496.5625"/><rect fill="none" height="6" style="stroke:#C82930;stroke-width:1.0;" width="6" x="621" y="507.2109"/><text fill="#000000" font-family="sans-serif" font-size="14" lengthAdjust="spacing" textLength="71" x="633" y="513.5576">id:Integer</text><rect fill="none" height="6" style="stroke:#C82930;stroke-width:1.0;" width="6" x="621" y="523.5078"/><text fill="#000000" font-family="sans-serif" font-size="14" lengthAdjust="spacing" textLength="139" x="633" y="529.8545">customerId:Integer</text><rect fill="none" height="6" style="stroke:#C82930;stroke-width:1.0;" width="6" x="621" y="539.8047"/><text fill="#000000" font-family="sans-serif" font-size="14" lengthAdjust="spacing" textLength="156" x="633" y="546.1514">orderStatusId:Integer</text><rect fill="none" height="6" style="stroke:#C82930;stroke-width:1.0;" width="6" x="621" y="556.1016"/><text fill="#000000" font-family="sans-serif" font-size="14" lengthAdjust="spacing" textLength="114" x="633" y="562.4482">orderDate:Date</text><rect fill="none" height="6" style="stroke:#C82930;stroke-width:1.0;" width="6" x="621" y="572.3984"/><text fill="#000000" font-family="sans-serif" font-size="14" lengthAdjust="spacing" textLength="150" x="633" y="578.7451">amountTotal:Integer</text></g><!--class OrderStatus--><g id="elem_OrderStatus"><rect codeLine="55" fill="#FEFECE" height="80.8594" id="OrderStatus" style="stroke:#A80036;stroke-width:1.0;" width="119" x="644.5" y="339.7969"/><ellipse cx="659.5" cy="359.9297" fill="#ADD1B2" rx="11" ry="11" style="stroke:#A80036;stroke-width:1.0;"/><path d="M661.8438,355.6016 C660.9063,355.1641 660.3125,355.0234 659.4375,355.0234 C656.8125,355.0234 654.8125,357.1016 654.8125,359.8203 L654.8125,360.9453 C654.8125,363.5234 656.9219,365.4141 659.8125,365.4141 C661.0313,365.4141 662.1875,365.1172 662.9375,364.5703 C663.5156,364.1641 663.8438,363.7109 663.8438,363.3203 C663.8438,362.8672 663.4531,362.4766 662.9844,362.4766 C662.7656,362.4766 662.5625,362.5547 662.375,362.7422 C661.9219,363.2266 661.9219,363.2266 661.7344,363.3203 C661.3125,363.5859 660.625,363.7109 659.8594,363.7109 C657.8125,363.7109 656.5156,362.6172 656.5156,360.9141 L656.5156,359.8203 C656.5156,358.0391 657.7656,356.7266 659.5,356.7266 C660.0781,356.7266 660.6875,356.8828 661.1563,357.1328 C661.6406,357.4141 661.8125,357.6328 661.9063,358.0391 C661.9688,358.4453 662,358.5703 662.1406,358.6953 C662.2813,358.8359 662.5156,358.9453 662.7344,358.9453 C663,358.9453 663.2656,358.8047 663.4375,358.5859 C663.5469,358.4297 663.5781,358.2422 663.5781,357.8203 L663.5781,356.3984 C663.5781,355.9609 663.5625,355.8359 663.4688,355.6797 C663.3125,355.4141 663.0313,355.2734 662.7344,355.2734 C662.4375,355.2734 662.2344,355.3672 662.0156,355.6797 L661.8438,355.6016 Z " fill="#000000"/><text fill="#000000" font-family="sans-serif" font-size="12" font-style="italic" lengthAdjust="spacing" textLength="54" x="690" y="355.9355">&#171;@Data&#187;</text><text fill="#000000" font-family="sans-serif" font-size="14" lengthAdjust="spacing" textLength="87" x="673.5" y="371.7607">OrderStatus</text><line style="stroke:#A80036;stroke-width:1.0;" x1="645.5" x2="762.5" y1="380.0625" y2="380.0625"/><rect fill="none" height="6" style="stroke:#C82930;stroke-width:1.0;" width="6" x="652.5" y="390.7109"/><text fill="#000000" font-family="sans-serif" font-size="14" lengthAdjust="spacing" textLength="71" x="664.5" y="397.0576">id:Integer</text><rect fill="none" height="6" style="stroke:#C82930;stroke-width:1.0;" width="6" x="652.5" y="407.0078"/><text fill="#000000" font-family="sans-serif" font-size="14" lengthAdjust="spacing" textLength="89" x="664.5" y="413.3545">name:String</text></g><!--class OrderDetail--><g id="elem_OrderDetail"><rect codeLine="59" fill="#FEFECE" height="129.75" id="OrderDetail" style="stroke:#A80036;stroke-width:1.0;" width="165" x="621.5" y="174.2969"/><ellipse cx="658.55" cy="194.4297" fill="#ADD1B2" rx="11" ry="11" style="stroke:#A80036;stroke-width:1.0;"/><path d="M660.8938,190.1016 C659.9563,189.6641 659.3625,189.5234 658.4875,189.5234 C655.8625,189.5234 653.8625,191.6016 653.8625,194.3203 L653.8625,195.4453 C653.8625,198.0234 655.9719,199.9141 658.8625,199.9141 C660.0813,199.9141 661.2375,199.6172 661.9875,199.0703 C662.5656,198.6641 662.8938,198.2109 662.8938,197.8203 C662.8938,197.3672 662.5031,196.9766 662.0344,196.9766 C661.8156,196.9766 661.6125,197.0547 661.425,197.2422 C660.9719,197.7266 660.9719,197.7266 660.7844,197.8203 C660.3625,198.0859 659.675,198.2109 658.9094,198.2109 C656.8625,198.2109 655.5656,197.1172 655.5656,195.4141 L655.5656,194.3203 C655.5656,192.5391 656.8156,191.2266 658.55,191.2266 C659.1281,191.2266 659.7375,191.3828 660.2063,191.6328 C660.6906,191.9141 660.8625,192.1328 660.9563,192.5391 C661.0188,192.9453 661.05,193.0703 661.1906,193.1953 C661.3313,193.3359 661.5656,193.4453 661.7844,193.4453 C662.05,193.4453 662.3156,193.3047 662.4875,193.0859 C662.5969,192.9297 662.6281,192.7422 662.6281,192.3203 L662.6281,190.8984 C662.6281,190.4609 662.6125,190.3359 662.5188,190.1797 C662.3625,189.9141 662.0813,189.7734 661.7844,189.7734 C661.4875,189.7734 661.2844,189.8672 661.0656,190.1797 L660.8938,190.1016 Z " fill="#000000"/><text fill="#000000" font-family="sans-serif" font-size="12" font-style="italic" lengthAdjust="spacing" textLength="54" x="692.45" y="190.4355">&#171;@Data&#187;</text><text fill="#000000" font-family="sans-serif" font-size="14" lengthAdjust="spacing" textLength="84" x="677.45" y="206.2607">OrderDetail</text><line style="stroke:#A80036;stroke-width:1.0;" x1="622.5" x2="785.5" y1="214.5625" y2="214.5625"/><rect fill="none" height="6" style="stroke:#C82930;stroke-width:1.0;" width="6" x="629.5" y="225.2109"/><text fill="#000000" font-family="sans-serif" font-size="14" lengthAdjust="spacing" textLength="71" x="641.5" y="231.5576">id:Integer</text><rect fill="none" height="6" style="stroke:#C82930;stroke-width:1.0;" width="6" x="629.5" y="241.5078"/><text fill="#000000" font-family="sans-serif" font-size="14" lengthAdjust="spacing" textLength="110" x="641.5" y="247.8545">orderId:Integer</text><rect fill="none" height="6" style="stroke:#C82930;stroke-width:1.0;" width="6" x="629.5" y="257.8047"/><text fill="#000000" font-family="sans-serif" font-size="14" lengthAdjust="spacing" textLength="128" x="641.5" y="264.1514">productId:Integer</text><rect fill="none" height="6" style="stroke:#C82930;stroke-width:1.0;" width="6" x="629.5" y="274.1016"/><text fill="#000000" font-family="sans-serif" font-size="14" lengthAdjust="spacing" textLength="139" x="641.5" y="280.4482">customerId:Integer</text><rect fill="none" height="6" style="stroke:#C82930;stroke-width:1.0;" width="6" x="629.5" y="290.3984"/><text fill="#000000" font-family="sans-serif" font-size="14" lengthAdjust="spacing" textLength="99" x="641.5" y="296.7451">count:Integer</text></g><!--SRC=[jLDBJiCm4Dtd5Bu02rXM256r85L85AbmWC4UKgl-XF54g4BTj2VWAEnOS9jS12Uaq984oiyRn_CoR-OzUy9CEq4-O1BYLmO4LeGfA7-dNIfkm4J4u0qBze9qEcMXDA5axLqorGe5sepdmgAzHWe9QpOnvk8-BrOFnMfLB1-BrNEnV4eoa3D8r-Xz8kAI1a8G5-HLBldmy7W834T7hrYvzeHMlP5ZJ974HjI1nTw4gMno8voHbhZ-VvF4ni9NPEgKhOogz01YYgTvxsBxl4ckq23ZgO5qgyAYAMIT_OMWTZrTf1FsShOxusqEbSyjKArvf3frdDZC-3bYNqgVE_wvZhfWvBppf9e8reLswEMtJPJHCt3GH1J6TyyslijFsXZaWRr5-hysG2d24FOxaOCMPwVUuNbU3byJjA1D_pMr2UO1wRkt5OMZ84nrOAJoq71fJEex5idQr54Rw4kk2GFdeHilk-YzjLBRPSj7U-aPJETrZj_9_sPAAy8XSlHyTy9AGgkuzXdTmRLgO3_8Nhm0]--></g></svg>