<?xml version="1.0" encoding="us-ascii" standalone="no"?><svg xmlns="http://www.w3.org/2000/svg" xmlns:xlink="http://www.w3.org/1999/xlink" contentStyleType="text/css" height="871px" preserveAspectRatio="none" style="width:1764px;height:871px;background:#FFFFFF;" version="1.1" viewBox="0 0 1764 871" width="1764px" zoomAndPan="magnify"><defs/><g><text fill="#000000" font-family="sans-serif" font-size="14" font-weight="bold" lengthAdjust="spacing" textLength="155" x="797.5" y="22.9951">controller&#12497;&#12483;&#12465;&#12540;&#12472;</text><!--cluster controller--><g id="cluster_controller"><polygon fill="none" points="16,43.2969,102,43.2969,109,65.5938,1747,65.5938,1747,864.2969,16,864.2969,16,43.2969" style="stroke:#000000;stroke-width:1.5;"/><line style="stroke:#000000;stroke-width:1.5;" x1="16" x2="109" y1="65.5938" y2="65.5938"/><text fill="#000000" font-family="sans-serif" font-size="14" font-weight="bold" lengthAdjust="spacing" textLength="80" x="20" y="58.292">controller</text></g><!--cluster backend--><g id="cluster_backend"><polygon fill="none" points="40,86.2969,113,86.2969,120,108.5938,1723,108.5938,1723,776.2969,40,776.2969,40,86.2969" style="stroke:#000000;stroke-width:1.5;"/><line style="stroke:#000000;stroke-width:1.5;" x1="40" x2="120" y1="108.5938" y2="108.5938"/><text fill="#000000" font-family="sans-serif" font-size="14" font-weight="bold" lengthAdjust="spacing" textLength="67" x="44" y="101.292">backend</text></g><!--class GlobalExceptionAspect--><g id="elem_GlobalExceptionAspect"><rect codeLine="9" fill="#FEFECE" height="56.2969" id="GlobalExceptionAspect" style="stroke:#A80036;stroke-width:1.0;" width="255" x="123.5" y="792.2969"/><ellipse cx="162.35" cy="808.2969" fill="#ADD1B2" rx="11" ry="11" style="stroke:#A80036;stroke-width:1.0;"/><path d="M164.6938,803.9688 C163.7563,803.5313 163.1625,803.3906 162.2875,803.3906 C159.6625,803.3906 157.6625,805.4688 157.6625,808.1875 L157.6625,809.3125 C157.6625,811.8906 159.7719,813.7813 162.6625,813.7813 C163.8813,813.7813 165.0375,813.4844 165.7875,812.9375 C166.3656,812.5313 166.6938,812.0781 166.6938,811.6875 C166.6938,811.2344 166.3031,810.8438 165.8344,810.8438 C165.6156,810.8438 165.4125,810.9219 165.225,811.1094 C164.7719,811.5938 164.7719,811.5938 164.5844,811.6875 C164.1625,811.9531 163.475,812.0781 162.7094,812.0781 C160.6625,812.0781 159.3656,810.9844 159.3656,809.2813 L159.3656,808.1875 C159.3656,806.4063 160.6156,805.0938 162.35,805.0938 C162.9281,805.0938 163.5375,805.25 164.0063,805.5 C164.4906,805.7813 164.6625,806 164.7563,806.4063 C164.8188,806.8125 164.85,806.9375 164.9906,807.0625 C165.1313,807.2031 165.3656,807.3125 165.5844,807.3125 C165.85,807.3125 166.1156,807.1719 166.2875,806.9531 C166.3969,806.7969 166.4281,806.6094 166.4281,806.1875 L166.4281,804.7656 C166.4281,804.3281 166.4125,804.2031 166.3188,804.0469 C166.1625,803.7813 165.8813,803.6406 165.5844,803.6406 C165.2875,803.6406 165.0844,803.7344 164.8656,804.0469 L164.6938,803.9688 Z " fill="#000000"/><text fill="#000000" font-family="sans-serif" font-size="14" lengthAdjust="spacing" textLength="170" x="181.65" y="813.1436">GlobalExceptionAspect</text><line style="stroke:#A80036;stroke-width:1.0;" x1="124.5" x2="377.5" y1="824.2969" y2="824.2969"/><text fill="#000000" font-family="sans-serif" font-size="14" lengthAdjust="spacing" textLength="243" x="129.5" y="841.292">ModelAndView exceptionCaught()</text></g><!--class MenuController--><g id="elem_MenuController"><rect codeLine="13" fill="#FEFECE" height="56.2969" id="MenuController" style="stroke:#A80036;stroke-width:1.0;" width="143" x="179.5" y="626.2969"/><ellipse cx="194.5" cy="642.2969" fill="#ADD1B2" rx="11" ry="11" style="stroke:#A80036;stroke-width:1.0;"/><path d="M196.8438,637.9688 C195.9063,637.5313 195.3125,637.3906 194.4375,637.3906 C191.8125,637.3906 189.8125,639.4688 189.8125,642.1875 L189.8125,643.3125 C189.8125,645.8906 191.9219,647.7813 194.8125,647.7813 C196.0313,647.7813 197.1875,647.4844 197.9375,646.9375 C198.5156,646.5313 198.8438,646.0781 198.8438,645.6875 C198.8438,645.2344 198.4531,644.8438 197.9844,644.8438 C197.7656,644.8438 197.5625,644.9219 197.375,645.1094 C196.9219,645.5938 196.9219,645.5938 196.7344,645.6875 C196.3125,645.9531 195.625,646.0781 194.8594,646.0781 C192.8125,646.0781 191.5156,644.9844 191.5156,643.2813 L191.5156,642.1875 C191.5156,640.4063 192.7656,639.0938 194.5,639.0938 C195.0781,639.0938 195.6875,639.25 196.1563,639.5 C196.6406,639.7813 196.8125,640 196.9063,640.4063 C196.9688,640.8125 197,640.9375 197.1406,641.0625 C197.2813,641.2031 197.5156,641.3125 197.7344,641.3125 C198,641.3125 198.2656,641.1719 198.4375,640.9531 C198.5469,640.7969 198.5781,640.6094 198.5781,640.1875 L198.5781,638.7656 C198.5781,638.3281 198.5625,638.2031 198.4688,638.0469 C198.3125,637.7813 198.0313,637.6406 197.7344,637.6406 C197.4375,637.6406 197.2344,637.7344 197.0156,638.0469 L196.8438,637.9688 Z " fill="#000000"/><text fill="#000000" font-family="sans-serif" font-size="14" lengthAdjust="spacing" textLength="111" x="208.5" y="647.1436">MenuController</text><line style="stroke:#A80036;stroke-width:1.0;" x1="180.5" x2="321.5" y1="658.2969" y2="658.2969"/><ellipse cx="190.5" cy="671.9453" fill="#84BE84" rx="3" ry="3" style="stroke:#038048;stroke-width:1.0;"/><text fill="#000000" font-family="sans-serif" font-size="14" lengthAdjust="spacing" textLength="107" x="199.5" y="675.292">menu() : String</text></g><!--class LoginController--><g id="elem_LoginController"><rect codeLine="16" fill="#FEFECE" height="96.8906" id="LoginController" style="stroke:#A80036;stroke-width:1.0;" width="274" x="114" y="493.7969"/><ellipse cx="190.75" cy="509.7969" fill="#ADD1B2" rx="11" ry="11" style="stroke:#A80036;stroke-width:1.0;"/><path d="M193.0938,505.4688 C192.1563,505.0313 191.5625,504.8906 190.6875,504.8906 C188.0625,504.8906 186.0625,506.9688 186.0625,509.6875 L186.0625,510.8125 C186.0625,513.3906 188.1719,515.2813 191.0625,515.2813 C192.2813,515.2813 193.4375,514.9844 194.1875,514.4375 C194.7656,514.0313 195.0938,513.5781 195.0938,513.1875 C195.0938,512.7344 194.7031,512.3438 194.2344,512.3438 C194.0156,512.3438 193.8125,512.4219 193.625,512.6094 C193.1719,513.0938 193.1719,513.0938 192.9844,513.1875 C192.5625,513.4531 191.875,513.5781 191.1094,513.5781 C189.0625,513.5781 187.7656,512.4844 187.7656,510.7813 L187.7656,509.6875 C187.7656,507.9063 189.0156,506.5938 190.75,506.5938 C191.3281,506.5938 191.9375,506.75 192.4063,507 C192.8906,507.2813 193.0625,507.5 193.1563,507.9063 C193.2188,508.3125 193.25,508.4375 193.3906,508.5625 C193.5313,508.7031 193.7656,508.8125 193.9844,508.8125 C194.25,508.8125 194.5156,508.6719 194.6875,508.4531 C194.7969,508.2969 194.8281,508.1094 194.8281,507.6875 L194.8281,506.2656 C194.8281,505.8281 194.8125,505.7031 194.7188,505.5469 C194.5625,505.2813 194.2813,505.1406 193.9844,505.1406 C193.6875,505.1406 193.4844,505.2344 193.2656,505.5469 L193.0938,505.4688 Z " fill="#000000"/><text fill="#000000" font-family="sans-serif" font-size="14" lengthAdjust="spacing" textLength="112" x="211.25" y="514.6436">LoginController</text><line style="stroke:#A80036;stroke-width:1.0;" x1="115" x2="387" y1="525.7969" y2="525.7969"/><rect fill="none" height="6" style="stroke:#C82930;stroke-width:1.0;" width="6" x="122" y="536.4453"/><text fill="#000000" font-family="sans-serif" font-size="14" lengthAdjust="spacing" textLength="248" x="134" y="542.792">service : EmployeeAccountService</text><line style="stroke:#A80036;stroke-width:1.0;" x1="115" x2="387" y1="550.0938" y2="550.0938"/><ellipse cx="125" cy="563.7422" fill="#84BE84" rx="3" ry="3" style="stroke:#038048;stroke-width:1.0;"/><text fill="#000000" font-family="sans-serif" font-size="14" lengthAdjust="spacing" textLength="178" x="134" y="567.0889">setUpForm() : LoginForm</text><ellipse cx="125" cy="580.0391" fill="#84BE84" rx="3" ry="3" style="stroke:#038048;stroke-width:1.0;"/><text fill="#000000" font-family="sans-serif" font-size="14" lengthAdjust="spacing" textLength="102" x="134" y="583.3857">form() : String</text></g><!--class ProductSearchController--><g id="elem_ProductSearchController"><rect codeLine="21" fill="#FEFECE" height="113.1875" id="ProductSearchController" style="stroke:#A80036;stroke-width:1.0;" width="390" x="56" y="345.7969"/><ellipse cx="157.75" cy="361.7969" fill="#ADD1B2" rx="11" ry="11" style="stroke:#A80036;stroke-width:1.0;"/><path d="M160.0938,357.4688 C159.1563,357.0313 158.5625,356.8906 157.6875,356.8906 C155.0625,356.8906 153.0625,358.9688 153.0625,361.6875 L153.0625,362.8125 C153.0625,365.3906 155.1719,367.2813 158.0625,367.2813 C159.2813,367.2813 160.4375,366.9844 161.1875,366.4375 C161.7656,366.0313 162.0938,365.5781 162.0938,365.1875 C162.0938,364.7344 161.7031,364.3438 161.2344,364.3438 C161.0156,364.3438 160.8125,364.4219 160.625,364.6094 C160.1719,365.0938 160.1719,365.0938 159.9844,365.1875 C159.5625,365.4531 158.875,365.5781 158.1094,365.5781 C156.0625,365.5781 154.7656,364.4844 154.7656,362.7813 L154.7656,361.6875 C154.7656,359.9063 156.0156,358.5938 157.75,358.5938 C158.3281,358.5938 158.9375,358.75 159.4063,359 C159.8906,359.2813 160.0625,359.5 160.1563,359.9063 C160.2188,360.3125 160.25,360.4375 160.3906,360.5625 C160.5313,360.7031 160.7656,360.8125 160.9844,360.8125 C161.25,360.8125 161.5156,360.6719 161.6875,360.4531 C161.7969,360.2969 161.8281,360.1094 161.8281,359.6875 L161.8281,358.2656 C161.8281,357.8281 161.8125,357.7031 161.7188,357.5469 C161.5625,357.2813 161.2813,357.1406 160.9844,357.1406 C160.6875,357.1406 160.4844,357.2344 160.2656,357.5469 L160.0938,357.4688 Z " fill="#000000"/><text fill="#000000" font-family="sans-serif" font-size="14" lengthAdjust="spacing" textLength="178" x="178.25" y="366.6436">ProductSearchController</text><line style="stroke:#A80036;stroke-width:1.0;" x1="57" x2="445" y1="377.7969" y2="377.7969"/><rect fill="none" height="6" style="stroke:#C82930;stroke-width:1.0;" width="6" x="64" y="388.4453"/><text fill="#000000" font-family="sans-serif" font-size="14" lengthAdjust="spacing" textLength="232" x="76" y="394.792">productService : ProductService</text><rect fill="none" height="6" style="stroke:#C82930;stroke-width:1.0;" width="6" x="64" y="404.7422"/><text fill="#000000" font-family="sans-serif" font-size="14" lengthAdjust="spacing" textLength="364" x="76" y="411.0889">productCategoryService : ProductCategoryService</text><line style="stroke:#A80036;stroke-width:1.0;" x1="57" x2="445" y1="418.3906" y2="418.3906"/><ellipse cx="67" cy="432.0391" fill="#84BE84" rx="3" ry="3" style="stroke:#038048;stroke-width:1.0;"/><text fill="#000000" font-family="sans-serif" font-size="14" lengthAdjust="spacing" textLength="181" x="76" y="435.3857">list(Model model) : String</text><ellipse cx="67" cy="448.3359" fill="#84BE84" rx="3" ry="3" style="stroke:#038048;stroke-width:1.0;"/><text fill="#000000" font-family="sans-serif" font-size="14" lengthAdjust="spacing" textLength="206" x="76" y="451.6826">search(Model model) : String</text></g><!--class ProductAddController--><g id="elem_ProductAddController"><rect codeLine="27" fill="#FEFECE" height="210.9688" id="ProductAddController" style="stroke:#A80036;stroke-width:1.0;" width="533" x="506" y="548.7969"/><ellipse cx="689.75" cy="564.7969" fill="#ADD1B2" rx="11" ry="11" style="stroke:#A80036;stroke-width:1.0;"/><path d="M692.0938,560.4688 C691.1563,560.0313 690.5625,559.8906 689.6875,559.8906 C687.0625,559.8906 685.0625,561.9688 685.0625,564.6875 L685.0625,565.8125 C685.0625,568.3906 687.1719,570.2813 690.0625,570.2813 C691.2813,570.2813 692.4375,569.9844 693.1875,569.4375 C693.7656,569.0313 694.0938,568.5781 694.0938,568.1875 C694.0938,567.7344 693.7031,567.3438 693.2344,567.3438 C693.0156,567.3438 692.8125,567.4219 692.625,567.6094 C692.1719,568.0938 692.1719,568.0938 691.9844,568.1875 C691.5625,568.4531 690.875,568.5781 690.1094,568.5781 C688.0625,568.5781 686.7656,567.4844 686.7656,565.7813 L686.7656,564.6875 C686.7656,562.9063 688.0156,561.5938 689.75,561.5938 C690.3281,561.5938 690.9375,561.75 691.4063,562 C691.8906,562.2813 692.0625,562.5 692.1563,562.9063 C692.2188,563.3125 692.25,563.4375 692.3906,563.5625 C692.5313,563.7031 692.7656,563.8125 692.9844,563.8125 C693.25,563.8125 693.5156,563.6719 693.6875,563.4531 C693.7969,563.2969 693.8281,563.1094 693.8281,562.6875 L693.8281,561.2656 C693.8281,560.8281 693.8125,560.7031 693.7188,560.5469 C693.5625,560.2813 693.2813,560.1406 692.9844,560.1406 C692.6875,560.1406 692.4844,560.2344 692.2656,560.5469 L692.0938,560.4688 Z " fill="#000000"/><text fill="#000000" font-family="sans-serif" font-size="14" lengthAdjust="spacing" textLength="157" x="710.25" y="569.6436">ProductAddController</text><line style="stroke:#A80036;stroke-width:1.0;" x1="507" x2="1038" y1="580.7969" y2="580.7969"/><rect fill="none" height="6" style="stroke:#C82930;stroke-width:1.0;" width="6" x="514" y="591.4453"/><text fill="#000000" font-family="sans-serif" font-size="14" lengthAdjust="spacing" textLength="234" x="526" y="597.792">validator : ProductFormValidator</text><rect fill="none" height="6" style="stroke:#C82930;stroke-width:1.0;" width="6" x="514" y="607.7422"/><text fill="#000000" font-family="sans-serif" font-size="14" lengthAdjust="spacing" textLength="232" x="526" y="614.0889">productService : ProductService</text><rect fill="none" height="6" style="stroke:#C82930;stroke-width:1.0;" width="6" x="514" y="624.0391"/><text fill="#000000" font-family="sans-serif" font-size="14" lengthAdjust="spacing" textLength="364" x="526" y="630.3857">productCategoryService : ProductCategoryService</text><line style="stroke:#A80036;stroke-width:1.0;" x1="507" x2="1038" y1="637.6875" y2="637.6875"/><ellipse cx="517" cy="651.3359" fill="#84BE84" rx="3" ry="3" style="stroke:#038048;stroke-width:1.0;"/><text fill="#000000" font-family="sans-serif" font-size="14" lengthAdjust="spacing" textLength="195" x="526" y="654.6826">setUpForm() : ProductForm</text><ellipse cx="517" cy="667.6328" fill="#84BE84" rx="3" ry="3" style="stroke:#038048;stroke-width:1.0;"/><text fill="#000000" font-family="sans-serif" font-size="14" lengthAdjust="spacing" textLength="250" x="526" y="670.9795">bind(WebDataBinder binder) : void</text><ellipse cx="517" cy="683.9297" fill="#84BE84" rx="3" ry="3" style="stroke:#038048;stroke-width:1.0;"/><text fill="#000000" font-family="sans-serif" font-size="14" lengthAdjust="spacing" textLength="194" x="526" y="687.2764">form(Model model) : String</text><ellipse cx="517" cy="700.2266" fill="#84BE84" rx="3" ry="3" style="stroke:#038048;stroke-width:1.0;"/><text fill="#000000" font-family="sans-serif" font-size="14" lengthAdjust="spacing" textLength="507" x="526" y="703.5732">confirm(ProductForm form, BindingResult result, Model model) : String</text><ellipse cx="517" cy="716.5234" fill="#84BE84" rx="3" ry="3" style="stroke:#038048;stroke-width:1.0;"/><text fill="#000000" font-family="sans-serif" font-size="14" lengthAdjust="spacing" textLength="257" x="526" y="719.8701">execute(ProductForm form) : String</text><ellipse cx="517" cy="732.8203" fill="#84BE84" rx="3" ry="3" style="stroke:#038048;stroke-width:1.0;"/><text fill="#000000" font-family="sans-serif" font-size="14" lengthAdjust="spacing" textLength="433" x="526" y="736.167">complete(ProductForm form, SessionStatus session) : String</text><ellipse cx="517" cy="749.1172" fill="#84BE84" rx="3" ry="3" style="stroke:#038048;stroke-width:1.0;"/><text fill="#000000" font-family="sans-serif" font-size="14" lengthAdjust="spacing" textLength="113" x="526" y="752.4639">cancel() : String</text></g><!--class ProductUpdateController--><g id="elem_ProductUpdateController"><rect codeLine="39" fill="#FEFECE" height="210.9688" id="ProductUpdateController" style="stroke:#A80036;stroke-width:1.0;" width="533" x="506" y="302.7969"/><ellipse cx="677.75" cy="318.7969" fill="#ADD1B2" rx="11" ry="11" style="stroke:#A80036;stroke-width:1.0;"/><path d="M680.0938,314.4688 C679.1563,314.0313 678.5625,313.8906 677.6875,313.8906 C675.0625,313.8906 673.0625,315.9688 673.0625,318.6875 L673.0625,319.8125 C673.0625,322.3906 675.1719,324.2813 678.0625,324.2813 C679.2813,324.2813 680.4375,323.9844 681.1875,323.4375 C681.7656,323.0313 682.0938,322.5781 682.0938,322.1875 C682.0938,321.7344 681.7031,321.3438 681.2344,321.3438 C681.0156,321.3438 680.8125,321.4219 680.625,321.6094 C680.1719,322.0938 680.1719,322.0938 679.9844,322.1875 C679.5625,322.4531 678.875,322.5781 678.1094,322.5781 C676.0625,322.5781 674.7656,321.4844 674.7656,319.7813 L674.7656,318.6875 C674.7656,316.9063 676.0156,315.5938 677.75,315.5938 C678.3281,315.5938 678.9375,315.75 679.4063,316 C679.8906,316.2813 680.0625,316.5 680.1563,316.9063 C680.2188,317.3125 680.25,317.4375 680.3906,317.5625 C680.5313,317.7031 680.7656,317.8125 680.9844,317.8125 C681.25,317.8125 681.5156,317.6719 681.6875,317.4531 C681.7969,317.2969 681.8281,317.1094 681.8281,316.6875 L681.8281,315.2656 C681.8281,314.8281 681.8125,314.7031 681.7188,314.5469 C681.5625,314.2813 681.2813,314.1406 680.9844,314.1406 C680.6875,314.1406 680.4844,314.2344 680.2656,314.5469 L680.0938,314.4688 Z " fill="#000000"/><text fill="#000000" font-family="sans-serif" font-size="14" lengthAdjust="spacing" textLength="181" x="698.25" y="323.6436">ProductUpdateController</text><line style="stroke:#A80036;stroke-width:1.0;" x1="507" x2="1038" y1="334.7969" y2="334.7969"/><rect fill="none" height="6" style="stroke:#C82930;stroke-width:1.0;" width="6" x="514" y="345.4453"/><text fill="#000000" font-family="sans-serif" font-size="14" lengthAdjust="spacing" textLength="234" x="526" y="351.792">validator : ProductFormValidator</text><rect fill="none" height="6" style="stroke:#C82930;stroke-width:1.0;" width="6" x="514" y="361.7422"/><text fill="#000000" font-family="sans-serif" font-size="14" lengthAdjust="spacing" textLength="232" x="526" y="368.0889">productService : ProductService</text><rect fill="none" height="6" style="stroke:#C82930;stroke-width:1.0;" width="6" x="514" y="378.0391"/><text fill="#000000" font-family="sans-serif" font-size="14" lengthAdjust="spacing" textLength="364" x="526" y="384.3857">productCategoryService : ProductCategoryService</text><line style="stroke:#A80036;stroke-width:1.0;" x1="507" x2="1038" y1="391.6875" y2="391.6875"/><ellipse cx="517" cy="405.3359" fill="#84BE84" rx="3" ry="3" style="stroke:#038048;stroke-width:1.0;"/><text fill="#000000" font-family="sans-serif" font-size="14" lengthAdjust="spacing" textLength="195" x="526" y="408.6826">setUpForm() : ProductForm</text><ellipse cx="517" cy="421.6328" fill="#84BE84" rx="3" ry="3" style="stroke:#038048;stroke-width:1.0;"/><text fill="#000000" font-family="sans-serif" font-size="14" lengthAdjust="spacing" textLength="250" x="526" y="424.9795">bind(WebDataBinder binder) : void</text><ellipse cx="517" cy="437.9297" fill="#84BE84" rx="3" ry="3" style="stroke:#038048;stroke-width:1.0;"/><text fill="#000000" font-family="sans-serif" font-size="14" lengthAdjust="spacing" textLength="194" x="526" y="441.2764">form(Model model) : String</text><ellipse cx="517" cy="454.2266" fill="#84BE84" rx="3" ry="3" style="stroke:#038048;stroke-width:1.0;"/><text fill="#000000" font-family="sans-serif" font-size="14" lengthAdjust="spacing" textLength="507" x="526" y="457.5732">confirm(ProductForm form, BindingResult result, Model model) : String</text><ellipse cx="517" cy="470.5234" fill="#84BE84" rx="3" ry="3" style="stroke:#038048;stroke-width:1.0;"/><text fill="#000000" font-family="sans-serif" font-size="14" lengthAdjust="spacing" textLength="257" x="526" y="473.8701">execute(ProductForm form) : String</text><ellipse cx="517" cy="486.8203" fill="#84BE84" rx="3" ry="3" style="stroke:#038048;stroke-width:1.0;"/><text fill="#000000" font-family="sans-serif" font-size="14" lengthAdjust="spacing" textLength="433" x="526" y="490.167">complete(ProductForm form, SessionStatus session) : String</text><ellipse cx="517" cy="503.1172" fill="#84BE84" rx="3" ry="3" style="stroke:#038048;stroke-width:1.0;"/><text fill="#000000" font-family="sans-serif" font-size="14" lengthAdjust="spacing" textLength="269" x="526" y="506.4639">cancel(SessionStatus session) : String</text></g><!--class ProductDeleteController--><g id="elem_ProductDeleteController"><rect codeLine="51" fill="#FEFECE" height="145.7813" id="ProductDeleteController" style="stroke:#A80036;stroke-width:1.0;" width="533" x="506" y="121.2969"/><ellipse cx="679.25" cy="137.2969" fill="#ADD1B2" rx="11" ry="11" style="stroke:#A80036;stroke-width:1.0;"/><path d="M681.5938,132.9688 C680.6563,132.5313 680.0625,132.3906 679.1875,132.3906 C676.5625,132.3906 674.5625,134.4688 674.5625,137.1875 L674.5625,138.3125 C674.5625,140.8906 676.6719,142.7813 679.5625,142.7813 C680.7813,142.7813 681.9375,142.4844 682.6875,141.9375 C683.2656,141.5313 683.5938,141.0781 683.5938,140.6875 C683.5938,140.2344 683.2031,139.8438 682.7344,139.8438 C682.5156,139.8438 682.3125,139.9219 682.125,140.1094 C681.6719,140.5938 681.6719,140.5938 681.4844,140.6875 C681.0625,140.9531 680.375,141.0781 679.6094,141.0781 C677.5625,141.0781 676.2656,139.9844 676.2656,138.2813 L676.2656,137.1875 C676.2656,135.4063 677.5156,134.0938 679.25,134.0938 C679.8281,134.0938 680.4375,134.25 680.9063,134.5 C681.3906,134.7813 681.5625,135 681.6563,135.4063 C681.7188,135.8125 681.75,135.9375 681.8906,136.0625 C682.0313,136.2031 682.2656,136.3125 682.4844,136.3125 C682.75,136.3125 683.0156,136.1719 683.1875,135.9531 C683.2969,135.7969 683.3281,135.6094 683.3281,135.1875 L683.3281,133.7656 C683.3281,133.3281 683.3125,133.2031 683.2188,133.0469 C683.0625,132.7813 682.7813,132.6406 682.4844,132.6406 C682.1875,132.6406 681.9844,132.7344 681.7656,133.0469 L681.5938,132.9688 Z " fill="#000000"/><text fill="#000000" font-family="sans-serif" font-size="14" lengthAdjust="spacing" textLength="178" x="699.75" y="142.1436">ProductDeleteController</text><line style="stroke:#A80036;stroke-width:1.0;" x1="507" x2="1038" y1="153.2969" y2="153.2969"/><rect fill="none" height="6" style="stroke:#C82930;stroke-width:1.0;" width="6" x="514" y="163.9453"/><text fill="#000000" font-family="sans-serif" font-size="14" lengthAdjust="spacing" textLength="232" x="526" y="170.292">productService : ProductService</text><rect fill="none" height="6" style="stroke:#C82930;stroke-width:1.0;" width="6" x="514" y="180.2422"/><text fill="#000000" font-family="sans-serif" font-size="14" lengthAdjust="spacing" textLength="364" x="526" y="186.5889">productCategoryService : ProductCategoryService</text><line style="stroke:#A80036;stroke-width:1.0;" x1="507" x2="1038" y1="193.8906" y2="193.8906"/><ellipse cx="517" cy="207.5391" fill="#84BE84" rx="3" ry="3" style="stroke:#038048;stroke-width:1.0;"/><text fill="#000000" font-family="sans-serif" font-size="14" lengthAdjust="spacing" textLength="507" x="526" y="210.8857">confirm(ProductForm form, BindingResult result, Model model) : String</text><ellipse cx="517" cy="223.8359" fill="#84BE84" rx="3" ry="3" style="stroke:#038048;stroke-width:1.0;"/><text fill="#000000" font-family="sans-serif" font-size="14" lengthAdjust="spacing" textLength="433" x="526" y="227.1826">complete(ProductForm form, SessionStatus session) : String</text><ellipse cx="517" cy="240.1328" fill="#84BE84" rx="3" ry="3" style="stroke:#038048;stroke-width:1.0;"/><text fill="#000000" font-family="sans-serif" font-size="14" lengthAdjust="spacing" textLength="257" x="526" y="243.4795">execute(ProductForm form) : String</text><ellipse cx="517" cy="256.4297" fill="#84BE84" rx="3" ry="3" style="stroke:#038048;stroke-width:1.0;"/><text fill="#000000" font-family="sans-serif" font-size="14" lengthAdjust="spacing" textLength="269" x="526" y="259.7764">cancel(SessionStatus session) : String</text></g><!--class ProductCategoryAddController--><g id="elem_ProductCategoryAddController"><rect codeLine="59" fill="#FEFECE" height="129.4844" id="ProductCategoryAddController" style="stroke:#A80036;stroke-width:1.0;" width="516" x="1145" y="589.7969"/><ellipse cx="1287.25" cy="605.7969" fill="#ADD1B2" rx="11" ry="11" style="stroke:#A80036;stroke-width:1.0;"/><path d="M1289.5938,601.4688 C1288.6563,601.0313 1288.0625,600.8906 1287.1875,600.8906 C1284.5625,600.8906 1282.5625,602.9688 1282.5625,605.6875 L1282.5625,606.8125 C1282.5625,609.3906 1284.6719,611.2813 1287.5625,611.2813 C1288.7813,611.2813 1289.9375,610.9844 1290.6875,610.4375 C1291.2656,610.0313 1291.5938,609.5781 1291.5938,609.1875 C1291.5938,608.7344 1291.2031,608.3438 1290.7344,608.3438 C1290.5156,608.3438 1290.3125,608.4219 1290.125,608.6094 C1289.6719,609.0938 1289.6719,609.0938 1289.4844,609.1875 C1289.0625,609.4531 1288.375,609.5781 1287.6094,609.5781 C1285.5625,609.5781 1284.2656,608.4844 1284.2656,606.7813 L1284.2656,605.6875 C1284.2656,603.9063 1285.5156,602.5938 1287.25,602.5938 C1287.8281,602.5938 1288.4375,602.75 1288.9063,603 C1289.3906,603.2813 1289.5625,603.5 1289.6563,603.9063 C1289.7188,604.3125 1289.75,604.4375 1289.8906,604.5625 C1290.0313,604.7031 1290.2656,604.8125 1290.4844,604.8125 C1290.75,604.8125 1291.0156,604.6719 1291.1875,604.4531 C1291.2969,604.2969 1291.3281,604.1094 1291.3281,603.6875 L1291.3281,602.2656 C1291.3281,601.8281 1291.3125,601.7031 1291.2188,601.5469 C1291.0625,601.2813 1290.7813,601.1406 1290.4844,601.1406 C1290.1875,601.1406 1289.9844,601.2344 1289.7656,601.5469 L1289.5938,601.4688 Z " fill="#000000"/><text fill="#000000" font-family="sans-serif" font-size="14" lengthAdjust="spacing" textLength="223" x="1307.75" y="610.6436">ProductCategoryAddController</text><line style="stroke:#A80036;stroke-width:1.0;" x1="1146" x2="1660" y1="621.7969" y2="621.7969"/><rect fill="none" height="6" style="stroke:#C82930;stroke-width:1.0;" width="6" x="1153" y="632.4453"/><text fill="#000000" font-family="sans-serif" font-size="14" lengthAdjust="spacing" textLength="355" x="1165" y="638.792">ProductCategoryService productCategoryService</text><line style="stroke:#A80036;stroke-width:1.0;" x1="1146" x2="1660" y1="646.0938" y2="646.0938"/><ellipse cx="1156" cy="659.7422" fill="#84BE84" rx="3" ry="3" style="stroke:#038048;stroke-width:1.0;"/><text fill="#000000" font-family="sans-serif" font-size="14" lengthAdjust="spacing" textLength="93" x="1165" y="663.0889">String form()</text><ellipse cx="1156" cy="676.0391" fill="#84BE84" rx="3" ry="3" style="stroke:#038048;stroke-width:1.0;"/><text fill="#000000" font-family="sans-serif" font-size="14" lengthAdjust="spacing" textLength="464" x="1165" y="679.3857">String confirm(ProductCategoryForm form, BindingResult result)</text><ellipse cx="1156" cy="692.3359" fill="#84BE84" rx="3" ry="3" style="stroke:#038048;stroke-width:1.0;"/><text fill="#000000" font-family="sans-serif" font-size="14" lengthAdjust="spacing" textLength="490" x="1165" y="695.6826">String complete(ProductCategoryForm form, SessionStatus session)</text><ellipse cx="1156" cy="708.6328" fill="#84BE84" rx="3" ry="3" style="stroke:#038048;stroke-width:1.0;"/><text fill="#000000" font-family="sans-serif" font-size="14" lengthAdjust="spacing" textLength="260" x="1165" y="711.9795">String cancel(SessionStatus session)</text></g><!--class EmployeeAccountAddController--><g id="elem_EmployeeAccountAddController"><rect codeLine="66" fill="#FEFECE" height="194.6719" id="EmployeeAccountAddController" style="stroke:#A80036;stroke-width:1.0;" width="608" x="1099" y="359.7969"/><ellipse cx="1282.75" cy="375.7969" fill="#ADD1B2" rx="11" ry="11" style="stroke:#A80036;stroke-width:1.0;"/><path d="M1285.0938,371.4688 C1284.1563,371.0313 1283.5625,370.8906 1282.6875,370.8906 C1280.0625,370.8906 1278.0625,372.9688 1278.0625,375.6875 L1278.0625,376.8125 C1278.0625,379.3906 1280.1719,381.2813 1283.0625,381.2813 C1284.2813,381.2813 1285.4375,380.9844 1286.1875,380.4375 C1286.7656,380.0313 1287.0938,379.5781 1287.0938,379.1875 C1287.0938,378.7344 1286.7031,378.3438 1286.2344,378.3438 C1286.0156,378.3438 1285.8125,378.4219 1285.625,378.6094 C1285.1719,379.0938 1285.1719,379.0938 1284.9844,379.1875 C1284.5625,379.4531 1283.875,379.5781 1283.1094,379.5781 C1281.0625,379.5781 1279.7656,378.4844 1279.7656,376.7813 L1279.7656,375.6875 C1279.7656,373.9063 1281.0156,372.5938 1282.75,372.5938 C1283.3281,372.5938 1283.9375,372.75 1284.4063,373 C1284.8906,373.2813 1285.0625,373.5 1285.1563,373.9063 C1285.2188,374.3125 1285.25,374.4375 1285.3906,374.5625 C1285.5313,374.7031 1285.7656,374.8125 1285.9844,374.8125 C1286.25,374.8125 1286.5156,374.6719 1286.6875,374.4531 C1286.7969,374.2969 1286.8281,374.1094 1286.8281,373.6875 L1286.8281,372.2656 C1286.8281,371.8281 1286.8125,371.7031 1286.7188,371.5469 C1286.5625,371.2813 1286.2813,371.1406 1285.9844,371.1406 C1285.6875,371.1406 1285.4844,371.2344 1285.2656,371.5469 L1285.0938,371.4688 Z " fill="#000000"/><text fill="#000000" font-family="sans-serif" font-size="14" lengthAdjust="spacing" textLength="232" x="1303.25" y="380.6436">EmployeeAccountAddController</text><line style="stroke:#A80036;stroke-width:1.0;" x1="1100" x2="1706" y1="391.7969" y2="391.7969"/><rect fill="none" height="6" style="stroke:#C82930;stroke-width:1.0;" width="6" x="1107" y="402.4453"/><text fill="#000000" font-family="sans-serif" font-size="14" lengthAdjust="spacing" textLength="381" x="1119" y="408.792">employeeAccountService : EmployeeAccountService</text><rect fill="none" height="6" style="stroke:#C82930;stroke-width:1.0;" width="6" x="1107" y="418.7422"/><text fill="#000000" font-family="sans-serif" font-size="14" lengthAdjust="spacing" textLength="309" x="1119" y="425.0889">validator : EmployeeAccountFormValidator</text><line style="stroke:#A80036;stroke-width:1.0;" x1="1100" x2="1706" y1="432.3906" y2="432.3906"/><ellipse cx="1110" cy="446.0391" fill="#84BE84" rx="3" ry="3" style="stroke:#038048;stroke-width:1.0;"/><text fill="#000000" font-family="sans-serif" font-size="14" lengthAdjust="spacing" textLength="270" x="1119" y="449.3857">setUpForm() : EmployeeAccountForm</text><ellipse cx="1110" cy="462.3359" fill="#84BE84" rx="3" ry="3" style="stroke:#038048;stroke-width:1.0;"/><text fill="#000000" font-family="sans-serif" font-size="14" lengthAdjust="spacing" textLength="250" x="1119" y="465.6826">bind(WebDataBinder binder) : void</text><ellipse cx="1110" cy="478.6328" fill="#84BE84" rx="3" ry="3" style="stroke:#038048;stroke-width:1.0;"/><text fill="#000000" font-family="sans-serif" font-size="14" lengthAdjust="spacing" textLength="194" x="1119" y="481.9795">form(Model model) : String</text><ellipse cx="1110" cy="494.9297" fill="#84BE84" rx="3" ry="3" style="stroke:#038048;stroke-width:1.0;"/><text fill="#000000" font-family="sans-serif" font-size="14" lengthAdjust="spacing" textLength="582" x="1119" y="498.2764">confirm(EmployeeAccountForm form, BindingResult result, Model model) : String</text><ellipse cx="1110" cy="511.2266" fill="#84BE84" rx="3" ry="3" style="stroke:#038048;stroke-width:1.0;"/><text fill="#000000" font-family="sans-serif" font-size="14" lengthAdjust="spacing" textLength="332" x="1119" y="514.5732">execute(EmployeeAccountForm form) : String</text><ellipse cx="1110" cy="527.5234" fill="#84BE84" rx="3" ry="3" style="stroke:#038048;stroke-width:1.0;"/><text fill="#000000" font-family="sans-serif" font-size="14" lengthAdjust="spacing" textLength="344" x="1119" y="530.8701">complete(EmployeeAccountForm form) : String</text><ellipse cx="1110" cy="543.8203" fill="#84BE84" rx="3" ry="3" style="stroke:#038048;stroke-width:1.0;"/><text fill="#000000" font-family="sans-serif" font-size="14" lengthAdjust="spacing" textLength="269" x="1119" y="547.167">cancel(SessionStatus session) : String</text></g><!--SRC=[xLPBRjim4Dth5BDqKFS2tRbEsaq213MIhYboB1EXI86ad1Y5D_49UfJkkkXjT96ISjZO3EbFuNuMqK8VSkRDunlEYEQEIz3AO67SMqCqgS7C25FtN5Om9SBD29nQi0eqhsOM6DT8BLUoc766W7LZ5r1ZNQ8sHM6v5GXKIQkL4AYxrTTkjUeUltMh7ztZzw9e2BqZrQR9bmBSHGKn1ZuALH9nyK2nyI56fd6nrWR-kb8CnKYoMuxtWC5gJ5f7R73McotxUuXIkYTAzeom3dE5iXr71CBrnYr6jeCpU0SJgvqAlsQN4SgbghZCmRm5WthEAJgSYxeHQe4uebIrqaxM4r5KW_Qc-Q1qtOVkiVrNP3KD1dkuNMl5Mkf24KrdUOvDC0jKhxS6qjPZOh5IUl72Avg8g0jkxA3F8DJ-dbX5KCAJtcEQMV28iVngvqHmHgpIpvIznBTX-1-Aivtz3NAHNSab6tp6yfnOyjwze-w7K7ktkU8ijLyE4TtLuvGxsutGlVCGV1Xd_mbDAope_Z64Gp3n0MbhyGNc3XAkKZ3XCOG96kDgVMA9ROsJg__A0n59KHnHA3UDsm7ukdLUjyxJrZdKAREVpj6J-JyQxv_8pydaFZxH9ybFK6pd_oAjRYOR4SqrZQV_TNekoal0svEVBDXsGX9eQSaoSBjKpeeR7NHsYel9Gz5XfwNjVXmvvFjot2iJZd-xPoOedAntvh3t5_NndhzJbCjY-HC0]--></g></svg>