<svg xmlns="http://www.w3.org/2000/svg" xmlns:xlink="http://www.w3.org/1999/xlink" contentStyleType="text/css" height="869px" preserveAspectRatio="none" style="width:1727px;height:869px;background:#FFFFFF;" version="1.1" viewBox="0 0 1727 869" width="1727px" zoomAndPan="magnify"><defs/><g><text fill="#000000" font-family="sans-serif" font-size="14" font-weight="bold" lengthAdjust="spacing" textLength="147.0954" x="783.3473" y="22.9951">controller&#12497;&#12483;&#12465;&#12540;&#12472;</text><!--cluster controller--><g id="cluster_controller"><polygon fill="none" points="16,43.2969,89.0947,43.2969,96.0947,65.5938,1710.79,65.5938,1710.79,862.2969,16,862.2969,16,43.2969" style="stroke:#000000;stroke-width:1.5;"/><line style="stroke:#000000;stroke-width:1.5;" x1="16" x2="96.0947" y1="65.5938" y2="65.5938"/><text fill="#000000" font-family="sans-serif" font-size="14" lengthAdjust="spacing" textLength="67.0947" x="20" y="58.292">controller</text></g><!--cluster backend--><g id="cluster_backend"><polygon fill="none" points="40,150.2969,105.6436,150.2969,112.6436,172.5938,1686.79,172.5938,1686.79,838.2969,40,838.2969,40,150.2969" style="stroke:#000000;stroke-width:1.5;"/><line style="stroke:#000000;stroke-width:1.5;" x1="40" x2="112.6436" y1="172.5938" y2="172.5938"/><text fill="#000000" font-family="sans-serif" font-size="14" lengthAdjust="spacing" textLength="59.6436" x="44" y="165.292">backend</text></g><!--class GlobalExceptionAspect--><g id="elem_GlobalExceptionAspect"><rect codeLine="9" fill="#FEFECE" height="56.2969" id="GlobalExceptionAspect" style="stroke:#A80036;stroke-width:1.0;" width="249.665" x="120.6" y="78.1469"/><ellipse cx="160.9362" cy="94.1469" fill="#ADD1B2" rx="11" ry="11" style="stroke:#A80036;stroke-width:1.0;"/><path d="M163.905,99.7875 Q163.3269,100.0844 162.6862,100.225 Q162.0456,100.3813 161.3425,100.3813 Q158.8425,100.3813 157.5144,98.7406 Q156.2019,97.0844 156.2019,93.9594 Q156.2019,90.8344 157.5144,89.1781 Q158.8425,87.5219 161.3425,87.5219 Q162.0456,87.5219 162.6862,87.6781 Q163.3425,87.8344 163.905,88.1313 L163.905,90.85 Q163.28,90.2719 162.6862,90.0063 Q162.0925,89.725 161.4675,89.725 Q160.1237,89.725 159.4362,90.8031 Q158.7487,91.8656 158.7487,93.9594 Q158.7487,96.0531 159.4362,97.1313 Q160.1237,98.1938 161.4675,98.1938 Q162.0925,98.1938 162.6862,97.9281 Q163.28,97.6469 163.905,97.0688 L163.905,99.7875 Z " fill="#000000"/><text fill="#000000" font-family="sans-serif" font-size="14" lengthAdjust="spacing" textLength="161.3623" x="180.5665" y="98.9936">GlobalExceptionAspect</text><line style="stroke:#A80036;stroke-width:1.0;" x1="121.6" x2="369.265" y1="110.1469" y2="110.1469"/><text fill="#000000" font-family="sans-serif" font-size="14" lengthAdjust="spacing" textLength="237.665" x="126.6" y="127.142">ModelAndView exceptionCaught()</text></g><!--class MenuController--><g id="elem_MenuController"><rect codeLine="13" fill="#FEFECE" height="56.2969" id="MenuController" style="stroke:#A80036;stroke-width:1.0;" width="139.6113" x="175.63" y="689.1469"/><ellipse cx="190.63" cy="705.1469" fill="#ADD1B2" rx="11" ry="11" style="stroke:#A80036;stroke-width:1.0;"/><path d="M193.5988,710.7875 Q193.0206,711.0844 192.38,711.225 Q191.7394,711.3813 191.0363,711.3813 Q188.5363,711.3813 187.2081,709.7406 Q185.8956,708.0844 185.8956,704.9594 Q185.8956,701.8344 187.2081,700.1781 Q188.5363,698.5219 191.0363,698.5219 Q191.7394,698.5219 192.38,698.6781 Q193.0363,698.8344 193.5988,699.1313 L193.5988,701.85 Q192.9738,701.2719 192.38,701.0063 Q191.7863,700.725 191.1613,700.725 Q189.8175,700.725 189.13,701.8031 Q188.4425,702.8656 188.4425,704.9594 Q188.4425,707.0531 189.13,708.1313 Q189.8175,709.1938 191.1613,709.1938 Q191.7863,709.1938 192.38,708.9281 Q192.9738,708.6469 193.5988,708.0688 L193.5988,710.7875 Z " fill="#000000"/><text fill="#000000" font-family="sans-serif" font-size="14" lengthAdjust="spacing" textLength="107.6113" x="204.63" y="709.9936">MenuController</text><line style="stroke:#A80036;stroke-width:1.0;" x1="176.63" x2="314.2413" y1="721.1469" y2="721.1469"/><ellipse cx="186.63" cy="734.7953" fill="#84BE84" rx="3" ry="3" style="stroke:#038048;stroke-width:1.0;"/><text fill="#000000" font-family="sans-serif" font-size="14" lengthAdjust="spacing" textLength="106.3193" x="195.63" y="738.142">menu() : String</text></g><!--class LoginController--><g id="elem_LoginController"><rect codeLine="16" fill="#FEFECE" height="96.8906" id="LoginController" style="stroke:#A80036;stroke-width:1.0;" width="267.6162" x="111.62" y="556.8469"/><ellipse cx="187.5844" cy="572.8469" fill="#ADD1B2" rx="11" ry="11" style="stroke:#A80036;stroke-width:1.0;"/><path d="M190.5531,578.4875 Q189.975,578.7844 189.3344,578.925 Q188.6937,579.0813 187.9906,579.0813 Q185.4906,579.0813 184.1625,577.4406 Q182.85,575.7844 182.85,572.6594 Q182.85,569.5344 184.1625,567.8781 Q185.4906,566.2219 187.9906,566.2219 Q188.6937,566.2219 189.3344,566.3781 Q189.9906,566.5344 190.5531,566.8313 L190.5531,569.55 Q189.9281,568.9719 189.3344,568.7063 Q188.7406,568.425 188.1156,568.425 Q186.7719,568.425 186.0844,569.5031 Q185.3969,570.5656 185.3969,572.6594 Q185.3969,574.7531 186.0844,575.8313 Q186.7719,576.8938 188.1156,576.8938 Q188.7406,576.8938 189.3344,576.6281 Q189.9281,576.3469 190.5531,575.7688 L190.5531,578.4875 Z " fill="#000000"/><text fill="#000000" font-family="sans-serif" font-size="14" lengthAdjust="spacing" textLength="107.1875" x="208.0844" y="577.6936">LoginController</text><line style="stroke:#A80036;stroke-width:1.0;" x1="112.62" x2="378.2362" y1="588.8469" y2="588.8469"/><rect fill="none" height="6" style="stroke:#C82930;stroke-width:1.0;" width="6" x="119.62" y="599.4953"/><text fill="#000000" font-family="sans-serif" font-size="14" lengthAdjust="spacing" textLength="241.6162" x="131.62" y="605.842">service : EmployeeAccountService</text><line style="stroke:#A80036;stroke-width:1.0;" x1="112.62" x2="378.2362" y1="613.1438" y2="613.1438"/><ellipse cx="122.62" cy="626.7922" fill="#84BE84" rx="3" ry="3" style="stroke:#038048;stroke-width:1.0;"/><text fill="#000000" font-family="sans-serif" font-size="14" lengthAdjust="spacing" textLength="175.1094" x="131.62" y="630.1389">setUpForm() : LoginForm</text><ellipse cx="122.62" cy="643.0891" fill="#84BE84" rx="3" ry="3" style="stroke:#038048;stroke-width:1.0;"/><text fill="#000000" font-family="sans-serif" font-size="14" lengthAdjust="spacing" textLength="99.21" x="131.62" y="646.4357">form() : String</text></g><!--class ProductSearchController--><g id="elem_ProductSearchController"><rect codeLine="21" fill="#FEFECE" height="113.1875" id="ProductSearchController" style="stroke:#A80036;stroke-width:1.0;" width="378.8643" x="56" y="408.7069"/><ellipse cx="155.5381" cy="424.7069" fill="#ADD1B2" rx="11" ry="11" style="stroke:#A80036;stroke-width:1.0;"/><path d="M158.5068,430.3475 Q157.9287,430.6444 157.2881,430.785 Q156.6475,430.9413 155.9443,430.9413 Q153.4443,430.9413 152.1162,429.3006 Q150.8037,427.6444 150.8037,424.5194 Q150.8037,421.3944 152.1162,419.7381 Q153.4443,418.0819 155.9443,418.0819 Q156.6475,418.0819 157.2881,418.2381 Q157.9443,418.3944 158.5068,418.6913 L158.5068,421.41 Q157.8818,420.8319 157.2881,420.5663 Q156.6943,420.285 156.0693,420.285 Q154.7256,420.285 154.0381,421.3631 Q153.3506,422.4256 153.3506,424.5194 Q153.3506,426.6131 154.0381,427.6913 Q154.7256,428.7538 156.0693,428.7538 Q156.6943,428.7538 157.2881,428.4881 Q157.8818,428.2069 158.5068,427.6288 L158.5068,430.3475 Z " fill="#000000"/><text fill="#000000" font-family="sans-serif" font-size="14" lengthAdjust="spacing" textLength="171.2881" x="176.0381" y="429.5536">ProductSearchController</text><line style="stroke:#A80036;stroke-width:1.0;" x1="57" x2="433.8643" y1="440.7069" y2="440.7069"/><rect fill="none" height="6" style="stroke:#C82930;stroke-width:1.0;" width="6" x="64" y="451.3553"/><text fill="#000000" font-family="sans-serif" font-size="14" lengthAdjust="spacing" textLength="224.9639" x="76" y="457.702">productService : ProductService</text><rect fill="none" height="6" style="stroke:#C82930;stroke-width:1.0;" width="6" x="64" y="467.6522"/><text fill="#000000" font-family="sans-serif" font-size="14" lengthAdjust="spacing" textLength="352.8643" x="76" y="473.9989">productCategoryService : ProductCategoryService</text><line style="stroke:#A80036;stroke-width:1.0;" x1="57" x2="433.8643" y1="481.3006" y2="481.3006"/><ellipse cx="67" cy="494.9491" fill="#84BE84" rx="3" ry="3" style="stroke:#038048;stroke-width:1.0;"/><text fill="#000000" font-family="sans-serif" font-size="14" lengthAdjust="spacing" textLength="176.9619" x="76" y="498.2957">list(Model model) : String</text><ellipse cx="67" cy="511.2459" fill="#84BE84" rx="3" ry="3" style="stroke:#038048;stroke-width:1.0;"/><text fill="#000000" font-family="sans-serif" font-size="14" lengthAdjust="spacing" textLength="203.2119" x="76" y="514.5926">search(Model model) : String</text></g><!--class ProductAddController--><g id="elem_ProductAddController"><rect codeLine="27" fill="#FEFECE" height="210.9688" id="ProductAddController" style="stroke:#A80036;stroke-width:1.0;" width="521.7627" x="494.86" y="611.8169"/><ellipse cx="676.3746" cy="627.8169" fill="#ADD1B2" rx="11" ry="11" style="stroke:#A80036;stroke-width:1.0;"/><path d="M679.3434,633.4575 Q678.7653,633.7544 678.1246,633.895 Q677.484,634.0513 676.7809,634.0513 Q674.2809,634.0513 672.9528,632.4106 Q671.6403,630.7544 671.6403,627.6294 Q671.6403,624.5044 672.9528,622.8481 Q674.2809,621.1919 676.7809,621.1919 Q677.484,621.1919 678.1246,621.3481 Q678.7809,621.5044 679.3434,621.8013 L679.3434,624.52 Q678.7184,623.9419 678.1246,623.6763 Q677.5309,623.395 676.9059,623.395 Q675.5621,623.395 674.8746,624.4731 Q674.1871,625.5356 674.1871,627.6294 Q674.1871,629.7231 674.8746,630.8013 Q675.5621,631.8638 676.9059,631.8638 Q677.5309,631.8638 678.1246,631.5981 Q678.7184,631.3169 679.3434,630.7388 L679.3434,633.4575 Z " fill="#000000"/><text fill="#000000" font-family="sans-serif" font-size="14" lengthAdjust="spacing" textLength="150.2334" x="696.8746" y="632.6636">ProductAddController</text><line style="stroke:#A80036;stroke-width:1.0;" x1="495.86" x2="1015.6227" y1="643.8169" y2="643.8169"/><rect fill="none" height="6" style="stroke:#C82930;stroke-width:1.0;" width="6" x="502.86" y="654.4653"/><text fill="#000000" font-family="sans-serif" font-size="14" lengthAdjust="spacing" textLength="228.4707" x="514.86" y="660.812">validator : ProductFormValidator</text><rect fill="none" height="6" style="stroke:#C82930;stroke-width:1.0;" width="6" x="502.86" y="670.7622"/><text fill="#000000" font-family="sans-serif" font-size="14" lengthAdjust="spacing" textLength="224.9639" x="514.86" y="677.1089">productService : ProductService</text><rect fill="none" height="6" style="stroke:#C82930;stroke-width:1.0;" width="6" x="502.86" y="687.0591"/><text fill="#000000" font-family="sans-serif" font-size="14" lengthAdjust="spacing" textLength="352.8643" x="514.86" y="693.4057">productCategoryService : ProductCategoryService</text><line style="stroke:#A80036;stroke-width:1.0;" x1="495.86" x2="1015.6227" y1="700.7075" y2="700.7075"/><ellipse cx="505.86" cy="714.3559" fill="#84BE84" rx="3" ry="3" style="stroke:#038048;stroke-width:1.0;"/><text fill="#000000" font-family="sans-serif" font-size="14" lengthAdjust="spacing" textLength="190.8047" x="514.86" y="717.7026">setUpForm() : ProductForm</text><ellipse cx="505.86" cy="730.6528" fill="#84BE84" rx="3" ry="3" style="stroke:#038048;stroke-width:1.0;"/><text fill="#000000" font-family="sans-serif" font-size="14" lengthAdjust="spacing" textLength="244.4531" x="514.86" y="733.9995">bind(WebDataBinder binder) : void</text><ellipse cx="505.86" cy="746.9497" fill="#84BE84" rx="3" ry="3" style="stroke:#038048;stroke-width:1.0;"/><text fill="#000000" font-family="sans-serif" font-size="14" lengthAdjust="spacing" textLength="189.2871" x="514.86" y="750.2964">form(Model model) : String</text><ellipse cx="505.86" cy="763.2466" fill="#84BE84" rx="3" ry="3" style="stroke:#038048;stroke-width:1.0;"/><text fill="#000000" font-family="sans-serif" font-size="14" lengthAdjust="spacing" textLength="495.7627" x="514.86" y="766.5932">confirm(ProductForm form, BindingResult result, Model model) : String</text><ellipse cx="505.86" cy="779.5434" fill="#84BE84" rx="3" ry="3" style="stroke:#038048;stroke-width:1.0;"/><text fill="#000000" font-family="sans-serif" font-size="14" lengthAdjust="spacing" textLength="249.5664" x="514.86" y="782.8901">execute(ProductForm form) : String</text><ellipse cx="505.86" cy="795.8403" fill="#84BE84" rx="3" ry="3" style="stroke:#038048;stroke-width:1.0;"/><text fill="#000000" font-family="sans-serif" font-size="14" lengthAdjust="spacing" textLength="421.9756" x="514.86" y="799.187">complete(ProductForm form, SessionStatus session) : String</text><ellipse cx="505.86" cy="812.1372" fill="#84BE84" rx="3" ry="3" style="stroke:#038048;stroke-width:1.0;"/><text fill="#000000" font-family="sans-serif" font-size="14" lengthAdjust="spacing" textLength="111.6719" x="514.86" y="815.4839">cancel() : String</text></g><!--class ProductUpdateController--><g id="elem_ProductUpdateController"><rect codeLine="39" fill="#FEFECE" height="210.9688" id="ProductUpdateController" style="stroke:#A80036;stroke-width:1.0;" width="521.7627" x="494.86" y="365.8169"/><ellipse cx="664.6989" cy="381.8169" fill="#ADD1B2" rx="11" ry="11" style="stroke:#A80036;stroke-width:1.0;"/><path d="M667.6676,387.4575 Q667.0895,387.7544 666.4489,387.895 Q665.8082,388.0513 665.1051,388.0513 Q662.6051,388.0513 661.277,386.4106 Q659.9645,384.7544 659.9645,381.6294 Q659.9645,378.5044 661.277,376.8481 Q662.6051,375.1919 665.1051,375.1919 Q665.8082,375.1919 666.4489,375.3481 Q667.1051,375.5044 667.6676,375.8013 L667.6676,378.52 Q667.0426,377.9419 666.4489,377.6763 Q665.8551,377.395 665.2301,377.395 Q663.8864,377.395 663.1989,378.4731 Q662.5114,379.5356 662.5114,381.6294 Q662.5114,383.7231 663.1989,384.8013 Q663.8864,385.8638 665.2301,385.8638 Q665.8551,385.8638 666.4489,385.5981 Q667.0426,385.3169 667.6676,384.7388 L667.6676,387.4575 Z " fill="#000000"/><text fill="#000000" font-family="sans-serif" font-size="14" lengthAdjust="spacing" textLength="173.585" x="685.1989" y="386.6636">ProductUpdateController</text><line style="stroke:#A80036;stroke-width:1.0;" x1="495.86" x2="1015.6227" y1="397.8169" y2="397.8169"/><rect fill="none" height="6" style="stroke:#C82930;stroke-width:1.0;" width="6" x="502.86" y="408.4653"/><text fill="#000000" font-family="sans-serif" font-size="14" lengthAdjust="spacing" textLength="228.4707" x="514.86" y="414.812">validator : ProductFormValidator</text><rect fill="none" height="6" style="stroke:#C82930;stroke-width:1.0;" width="6" x="502.86" y="424.7622"/><text fill="#000000" font-family="sans-serif" font-size="14" lengthAdjust="spacing" textLength="224.9639" x="514.86" y="431.1089">productService : ProductService</text><rect fill="none" height="6" style="stroke:#C82930;stroke-width:1.0;" width="6" x="502.86" y="441.0591"/><text fill="#000000" font-family="sans-serif" font-size="14" lengthAdjust="spacing" textLength="352.8643" x="514.86" y="447.4057">productCategoryService : ProductCategoryService</text><line style="stroke:#A80036;stroke-width:1.0;" x1="495.86" x2="1015.6227" y1="454.7075" y2="454.7075"/><ellipse cx="505.86" cy="468.3559" fill="#84BE84" rx="3" ry="3" style="stroke:#038048;stroke-width:1.0;"/><text fill="#000000" font-family="sans-serif" font-size="14" lengthAdjust="spacing" textLength="190.8047" x="514.86" y="471.7026">setUpForm() : ProductForm</text><ellipse cx="505.86" cy="484.6528" fill="#84BE84" rx="3" ry="3" style="stroke:#038048;stroke-width:1.0;"/><text fill="#000000" font-family="sans-serif" font-size="14" lengthAdjust="spacing" textLength="244.4531" x="514.86" y="487.9995">bind(WebDataBinder binder) : void</text><ellipse cx="505.86" cy="500.9497" fill="#84BE84" rx="3" ry="3" style="stroke:#038048;stroke-width:1.0;"/><text fill="#000000" font-family="sans-serif" font-size="14" lengthAdjust="spacing" textLength="189.2871" x="514.86" y="504.2964">form(Model model) : String</text><ellipse cx="505.86" cy="517.2466" fill="#84BE84" rx="3" ry="3" style="stroke:#038048;stroke-width:1.0;"/><text fill="#000000" font-family="sans-serif" font-size="14" lengthAdjust="spacing" textLength="495.7627" x="514.86" y="520.5932">confirm(ProductForm form, BindingResult result, Model model) : String</text><ellipse cx="505.86" cy="533.5434" fill="#84BE84" rx="3" ry="3" style="stroke:#038048;stroke-width:1.0;"/><text fill="#000000" font-family="sans-serif" font-size="14" lengthAdjust="spacing" textLength="249.5664" x="514.86" y="536.8901">execute(ProductForm form) : String</text><ellipse cx="505.86" cy="549.8403" fill="#84BE84" rx="3" ry="3" style="stroke:#038048;stroke-width:1.0;"/><text fill="#000000" font-family="sans-serif" font-size="14" lengthAdjust="spacing" textLength="421.9756" x="514.86" y="553.187">complete(ProductForm form, SessionStatus session) : String</text><ellipse cx="505.86" cy="566.1372" fill="#84BE84" rx="3" ry="3" style="stroke:#038048;stroke-width:1.0;"/><text fill="#000000" font-family="sans-serif" font-size="14" lengthAdjust="spacing" textLength="265.9727" x="514.86" y="569.4839">cancel(SessionStatus session) : String</text></g><!--class ProductDeleteController--><g id="elem_ProductDeleteController"><rect codeLine="51" fill="#FEFECE" height="145.7813" id="ProductDeleteController" style="stroke:#A80036;stroke-width:1.0;" width="521.7627" x="494.86" y="185.4069"/><ellipse cx="667.0504" cy="201.4069" fill="#ADD1B2" rx="11" ry="11" style="stroke:#A80036;stroke-width:1.0;"/><path d="M670.0192,207.0475 Q669.4411,207.3444 668.8004,207.485 Q668.1598,207.6413 667.4567,207.6413 Q664.9567,207.6413 663.6286,206.0006 Q662.3161,204.3444 662.3161,201.2194 Q662.3161,198.0944 663.6286,196.4381 Q664.9567,194.7819 667.4567,194.7819 Q668.1598,194.7819 668.8004,194.9381 Q669.4567,195.0944 670.0192,195.3913 L670.0192,198.11 Q669.3942,197.5319 668.8004,197.2663 Q668.2067,196.985 667.5817,196.985 Q666.2379,196.985 665.5504,198.0631 Q664.8629,199.1256 664.8629,201.2194 Q664.8629,203.3131 665.5504,204.3913 Q666.2379,205.4538 667.5817,205.4538 Q668.2067,205.4538 668.8004,205.1881 Q669.3942,204.9069 670.0192,204.3288 L670.0192,207.0475 Z " fill="#000000"/><text fill="#000000" font-family="sans-serif" font-size="14" lengthAdjust="spacing" textLength="168.8818" x="687.5504" y="206.2536">ProductDeleteController</text><line style="stroke:#A80036;stroke-width:1.0;" x1="495.86" x2="1015.6227" y1="217.4069" y2="217.4069"/><rect fill="none" height="6" style="stroke:#C82930;stroke-width:1.0;" width="6" x="502.86" y="228.0553"/><text fill="#000000" font-family="sans-serif" font-size="14" lengthAdjust="spacing" textLength="224.9639" x="514.86" y="234.402">productService : ProductService</text><rect fill="none" height="6" style="stroke:#C82930;stroke-width:1.0;" width="6" x="502.86" y="244.3522"/><text fill="#000000" font-family="sans-serif" font-size="14" lengthAdjust="spacing" textLength="352.8643" x="514.86" y="250.6989">productCategoryService : ProductCategoryService</text><line style="stroke:#A80036;stroke-width:1.0;" x1="495.86" x2="1015.6227" y1="258.0006" y2="258.0006"/><ellipse cx="505.86" cy="271.6491" fill="#84BE84" rx="3" ry="3" style="stroke:#038048;stroke-width:1.0;"/><text fill="#000000" font-family="sans-serif" font-size="14" lengthAdjust="spacing" textLength="495.7627" x="514.86" y="274.9957">confirm(ProductForm form, BindingResult result, Model model) : String</text><ellipse cx="505.86" cy="287.9459" fill="#84BE84" rx="3" ry="3" style="stroke:#038048;stroke-width:1.0;"/><text fill="#000000" font-family="sans-serif" font-size="14" lengthAdjust="spacing" textLength="421.9756" x="514.86" y="291.2926">complete(ProductForm form, SessionStatus session) : String</text><ellipse cx="505.86" cy="304.2428" fill="#84BE84" rx="3" ry="3" style="stroke:#038048;stroke-width:1.0;"/><text fill="#000000" font-family="sans-serif" font-size="14" lengthAdjust="spacing" textLength="249.5664" x="514.86" y="307.5895">execute(ProductForm form) : String</text><ellipse cx="505.86" cy="320.5397" fill="#84BE84" rx="3" ry="3" style="stroke:#038048;stroke-width:1.0;"/><text fill="#000000" font-family="sans-serif" font-size="14" lengthAdjust="spacing" textLength="265.9727" x="514.86" y="323.8864">cancel(SessionStatus session) : String</text></g><!--class ProductCategoryAddController--><g id="elem_ProductCategoryAddController"><rect codeLine="59" fill="#FEFECE" height="129.4844" id="ProductCategoryAddController" style="stroke:#A80036;stroke-width:1.0;" width="502.7588" x="1122.33" y="652.5569"/><ellipse cx="1262.3676" cy="668.5569" fill="#ADD1B2" rx="11" ry="11" style="stroke:#A80036;stroke-width:1.0;"/><path d="M1265.3363,674.1975 Q1264.7582,674.4944 1264.1176,674.635 Q1263.477,674.7913 1262.7738,674.7913 Q1260.2738,674.7913 1258.9457,673.1506 Q1257.6332,671.4944 1257.6332,668.3694 Q1257.6332,665.2444 1258.9457,663.5881 Q1260.2738,661.9319 1262.7738,661.9319 Q1263.477,661.9319 1264.1176,662.0881 Q1264.7738,662.2444 1265.3363,662.5413 L1265.3363,665.26 Q1264.7113,664.6819 1264.1176,664.4163 Q1263.5238,664.135 1262.8988,664.135 Q1261.5551,664.135 1260.8676,665.2131 Q1260.1801,666.2756 1260.1801,668.3694 Q1260.1801,670.4631 1260.8676,671.5413 Q1261.5551,672.6038 1262.8988,672.6038 Q1263.5238,672.6038 1264.1176,672.3381 Q1264.7113,672.0569 1265.3363,671.4788 L1265.3363,674.1975 Z " fill="#000000"/><text fill="#000000" font-family="sans-serif" font-size="14" lengthAdjust="spacing" textLength="214.1836" x="1282.8676" y="673.4036">ProductCategoryAddController</text><line style="stroke:#A80036;stroke-width:1.0;" x1="1123.33" x2="1624.0888" y1="684.5569" y2="684.5569"/><rect fill="none" height="6" style="stroke:#C82930;stroke-width:1.0;" width="6" x="1130.33" y="695.2053"/><text fill="#000000" font-family="sans-serif" font-size="14" lengthAdjust="spacing" textLength="343.6973" x="1142.33" y="701.552">ProductCategoryService productCategoryService</text><line style="stroke:#A80036;stroke-width:1.0;" x1="1123.33" x2="1624.0888" y1="708.8538" y2="708.8538"/><ellipse cx="1133.33" cy="722.5022" fill="#84BE84" rx="3" ry="3" style="stroke:#038048;stroke-width:1.0;"/><text fill="#000000" font-family="sans-serif" font-size="14" lengthAdjust="spacing" textLength="90.043" x="1142.33" y="725.8489">String form()</text><ellipse cx="1133.33" cy="738.7991" fill="#84BE84" rx="3" ry="3" style="stroke:#038048;stroke-width:1.0;"/><text fill="#000000" font-family="sans-serif" font-size="14" lengthAdjust="spacing" textLength="451.5684" x="1142.33" y="742.1457">String confirm(ProductCategoryForm form, BindingResult result)</text><ellipse cx="1133.33" cy="755.0959" fill="#84BE84" rx="3" ry="3" style="stroke:#038048;stroke-width:1.0;"/><text fill="#000000" font-family="sans-serif" font-size="14" lengthAdjust="spacing" textLength="476.7588" x="1142.33" y="758.4426">String complete(ProductCategoryForm form, SessionStatus session)</text><ellipse cx="1133.33" cy="771.3928" fill="#84BE84" rx="3" ry="3" style="stroke:#038048;stroke-width:1.0;"/><text fill="#000000" font-family="sans-serif" font-size="14" lengthAdjust="spacing" textLength="256.8057" x="1142.33" y="774.7395">String cancel(SessionStatus session)</text></g><!--class EmployeeAccountAddController--><g id="elem_EmployeeAccountAddController"><rect codeLine="66" fill="#FEFECE" height="194.6719" id="EmployeeAccountAddController" style="stroke:#A80036;stroke-width:1.0;" width="594.1621" x="1076.63" y="422.9569"/><ellipse cx="1258.1446" cy="438.9569" fill="#ADD1B2" rx="11" ry="11" style="stroke:#A80036;stroke-width:1.0;"/><path d="M1261.1134,444.5975 Q1260.5353,444.8944 1259.8946,445.035 Q1259.254,445.1913 1258.5509,445.1913 Q1256.0509,445.1913 1254.7228,443.5506 Q1253.4103,441.8944 1253.4103,438.7694 Q1253.4103,435.6444 1254.7228,433.9881 Q1256.0509,432.3319 1258.5509,432.3319 Q1259.254,432.3319 1259.8946,432.4881 Q1260.5509,432.6444 1261.1134,432.9413 L1261.1134,435.66 Q1260.4884,435.0819 1259.8946,434.8163 Q1259.3009,434.535 1258.6759,434.535 Q1257.3321,434.535 1256.6446,435.6131 Q1255.9571,436.6756 1255.9571,438.7694 Q1255.9571,440.8631 1256.6446,441.9413 Q1257.3321,443.0038 1258.6759,443.0038 Q1259.3009,443.0038 1259.8946,442.7381 Q1260.4884,442.4569 1261.1134,441.8788 L1261.1134,444.5975 Z " fill="#000000"/><text fill="#000000" font-family="sans-serif" font-size="14" lengthAdjust="spacing" textLength="222.6328" x="1278.6446" y="443.8036">EmployeeAccountAddController</text><line style="stroke:#A80036;stroke-width:1.0;" x1="1077.63" x2="1669.7921" y1="454.9569" y2="454.9569"/><rect fill="none" height="6" style="stroke:#C82930;stroke-width:1.0;" width="6" x="1084.63" y="465.6053"/><text fill="#000000" font-family="sans-serif" font-size="14" lengthAdjust="spacing" textLength="369.0859" x="1096.63" y="471.952">employeeAccountService : EmployeeAccountService</text><rect fill="none" height="6" style="stroke:#C82930;stroke-width:1.0;" width="6" x="1084.63" y="481.9022"/><text fill="#000000" font-family="sans-serif" font-size="14" lengthAdjust="spacing" textLength="300.8701" x="1096.63" y="488.2489">validator : EmployeeAccountFormValidator</text><line style="stroke:#A80036;stroke-width:1.0;" x1="1077.63" x2="1669.7921" y1="495.5506" y2="495.5506"/><ellipse cx="1087.63" cy="509.1991" fill="#84BE84" rx="3" ry="3" style="stroke:#038048;stroke-width:1.0;"/><text fill="#000000" font-family="sans-serif" font-size="14" lengthAdjust="spacing" textLength="263.2041" x="1096.63" y="512.5457">setUpForm() : EmployeeAccountForm</text><ellipse cx="1087.63" cy="525.4959" fill="#84BE84" rx="3" ry="3" style="stroke:#038048;stroke-width:1.0;"/><text fill="#000000" font-family="sans-serif" font-size="14" lengthAdjust="spacing" textLength="244.4531" x="1096.63" y="528.8426">bind(WebDataBinder binder) : void</text><ellipse cx="1087.63" cy="541.7928" fill="#84BE84" rx="3" ry="3" style="stroke:#038048;stroke-width:1.0;"/><text fill="#000000" font-family="sans-serif" font-size="14" lengthAdjust="spacing" textLength="189.2871" x="1096.63" y="545.1395">form(Model model) : String</text><ellipse cx="1087.63" cy="558.0897" fill="#84BE84" rx="3" ry="3" style="stroke:#038048;stroke-width:1.0;"/><text fill="#000000" font-family="sans-serif" font-size="14" lengthAdjust="spacing" textLength="568.1621" x="1096.63" y="561.4364">confirm(EmployeeAccountForm form, BindingResult result, Model model) : String</text><ellipse cx="1087.63" cy="574.3866" fill="#84BE84" rx="3" ry="3" style="stroke:#038048;stroke-width:1.0;"/><text fill="#000000" font-family="sans-serif" font-size="14" lengthAdjust="spacing" textLength="321.9658" x="1096.63" y="577.7332">execute(EmployeeAccountForm form) : String</text><ellipse cx="1087.63" cy="590.6834" fill="#84BE84" rx="3" ry="3" style="stroke:#038048;stroke-width:1.0;"/><text fill="#000000" font-family="sans-serif" font-size="14" lengthAdjust="spacing" textLength="331.1738" x="1096.63" y="594.0301">complete(EmployeeAccountForm form) : String</text><ellipse cx="1087.63" cy="606.9803" fill="#84BE84" rx="3" ry="3" style="stroke:#038048;stroke-width:1.0;"/><text fill="#000000" font-family="sans-serif" font-size="14" lengthAdjust="spacing" textLength="265.9727" x="1096.63" y="610.327">cancel(SessionStatus session) : String</text></g><!--SRC=[xLPBRjim4Dth5BDqKFS2tRbEsaq213MIhYboB1EXI86ad1Y5D_49UfJkkkXjT96ISjZO3EbFuNuMqK8VSkRDunlEYEQEIz3AO67SMqCqgS7C25FtN5Om9SBD29nQi0eqhsOM6DT8BLUoc766W7LZ5r1ZNQ8sHM6v5GXKIQkL4AYxrTTkjUeUltMh7ztZzw9e2BqZrQR9bmBSHGKn1ZuALH9nyK2nyI56fd6nrWR-kb8CnKYoMuxtWC5gJ5f7R73McotxUuXIkYTAzeom3dE5iXr71CBrnYr6jeCpU0SJgvqAlsQN4SgbghZCmRm5WthEAJgSYxeHQe4uebIrqaxM4r5KW_Qc-Q1qtOVkiVrNP3KD1dkuNMl5Mkf24KrdUOvDC0jKhxS6qjPZOh5IUl72Avg8g0jkxA3F8DJ-dbX5KCAJtcEQMV28iVngvqHmHgpIpvIznBTX-1-Aivtz3NAHNSab6tp6yfnOyjwze-w7K7ktkU8ijLyE4TtLuvGxsutGlVCGV1Xd_mbDAope_Z64Gp3n0MbhyGNc3XAkKZ3XCOG96kDgVMA9ROsJg__A0n59KHnHA3UDsm7ukdLUjyxJrZdKAREVpj6J-JyQxv_8pydaFZxH9ybFK6pd_oAjRYOR4SqrZQV_TNekoal0svEVBDXsGX9eQSaoSBjKpeeR7NHsYel9Gz5XfwNjVXmvvFjot2iJZd-xPoOedAntvh3t5_NndhzJbCjY-HC0]--></g></svg>