<svg xmlns="http://www.w3.org/2000/svg" xmlns:xlink="http://www.w3.org/1999/xlink" contentStyleType="text/css" height="2020px" preserveAspectRatio="none" style="width:1427px;height:2020px;background:#FFFFFF;" version="1.1" viewBox="0 0 1427 2020" width="1427px" zoomAndPan="magnify"><defs/><g><text fill="#000000" font-family="sans-serif" font-size="14" font-weight="bold" lengthAdjust="spacing" textLength="83.9996" x="664.7702" y="22.9951">&#27010;&#35201;&#12463;&#12521;&#12473;&#22259;</text><!--cluster ec--><g id="cluster_ec"><polygon fill="none" points="16,43.2969,130.7666,43.2969,137.7666,65.5938,1410.54,65.5938,1410.54,2013.2969,16,2013.2969,16,43.2969" style="stroke:#000000;stroke-width:1.5;"/><line style="stroke:#000000;stroke-width:1.5;" x1="16" x2="137.7666" y1="65.5938" y2="65.5938"/><text fill="#000000" font-family="sans-serif" font-size="14" lengthAdjust="spacing" textLength="108.7666" x="20" y="58.292">com.fullness.ec</text></g><!--cluster repository--><g id="cluster_repository"><polygon fill="none" points="68.31,1740.2969,145.4106,1740.2969,152.4106,1762.5938,684.05,1762.5938,684.05,1989.2969,68.31,1989.2969,68.31,1740.2969" style="stroke:#000000;stroke-width:1.5;"/><line style="stroke:#000000;stroke-width:1.5;" x1="68.31" x2="152.4106" y1="1762.5938" y2="1762.5938"/><text fill="#000000" font-family="sans-serif" font-size="14" lengthAdjust="spacing" textLength="71.1006" x="72.31" y="1755.292">repository</text></g><!--cluster entity--><g id="cluster_entity"><polygon fill="none" points="68.31,1499.2969,114.9496,1499.2969,121.9496,1521.5938,684.05,1521.5938,684.05,1716.2969,68.31,1716.2969,68.31,1499.2969" style="stroke:#000000;stroke-width:1.5;"/><line style="stroke:#000000;stroke-width:1.5;" x1="68.31" x2="121.9496" y1="1521.5938" y2="1521.5938"/><text fill="#000000" font-family="sans-serif" font-size="14" lengthAdjust="spacing" textLength="40.6396" x="72.31" y="1514.292">entity</text></g><!--cluster service--><g id="cluster_service"><polygon fill="none" points="64.08,1070.2969,120.2284,1070.2969,127.2284,1092.5938,474.69,1092.5938,474.69,1475.2969,64.08,1475.2969,64.08,1070.2969" style="stroke:#000000;stroke-width:1.5;"/><line style="stroke:#000000;stroke-width:1.5;" x1="64.08" x2="127.2284" y1="1092.5938" y2="1092.5938"/><text fill="#000000" font-family="sans-serif" font-size="14" lengthAdjust="spacing" textLength="50.1484" x="68.08" y="1085.292">service</text></g><!--cluster controller--><g id="cluster_controller"><polygon fill="none" points="40,407.2969,113.0947,407.2969,120.0947,429.5938,744.15,429.5938,744.15,1046.2969,40,1046.2969,40,407.2969" style="stroke:#000000;stroke-width:1.5;"/><line style="stroke:#000000;stroke-width:1.5;" x1="40" x2="120.0947" y1="429.5938" y2="429.5938"/><text fill="#000000" font-family="sans-serif" font-size="14" lengthAdjust="spacing" textLength="67.0947" x="44" y="422.292">controller</text></g><!--cluster backend--><g id="cluster_backend"><polygon fill="none" points="76.08,773.2969,141.7236,773.2969,148.7236,795.5938,720.15,795.5938,720.15,1022.2969,76.08,1022.2969,76.08,773.2969" style="stroke:#000000;stroke-width:1.5;"/><line style="stroke:#000000;stroke-width:1.5;" x1="76.08" x2="148.7236" y1="795.5938" y2="795.5938"/><text fill="#000000" font-family="sans-serif" font-size="14" lengthAdjust="spacing" textLength="59.6436" x="80.08" y="788.292">backend</text></g><!--cluster frontend--><g id="cluster_frontend"><polygon fill="none" points="64,500.2969,129.9854,500.2969,136.9854,522.5938,700.82,522.5938,700.82,749.2969,64,749.2969,64,500.2969" style="stroke:#000000;stroke-width:1.5;"/><line style="stroke:#000000;stroke-width:1.5;" x1="64" x2="136.9854" y1="522.5938" y2="522.5938"/><text fill="#000000" font-family="sans-serif" font-size="14" lengthAdjust="spacing" textLength="59.9854" x="68" y="515.292">frontend</text></g><!--cluster form--><g id="cluster_form"><polygon fill="none" points="784.63,1740.2969,823.5177,1740.2969,830.5177,1762.5938,1386.54,1762.5938,1386.54,1989.2969,784.63,1989.2969,784.63,1740.2969" style="stroke:#000000;stroke-width:1.5;"/><line style="stroke:#000000;stroke-width:1.5;" x1="784.63" x2="830.5177" y1="1762.5938" y2="1762.5938"/><text fill="#000000" font-family="sans-serif" font-size="14" lengthAdjust="spacing" textLength="32.8877" x="788.63" y="1755.292">form</text></g><!--cluster security--><g id="cluster_security"><polygon fill="none" points="768.15,1467.2969,830.0475,1467.2969,837.0475,1489.5938,1188.52,1489.5938,1188.52,1716.2969,768.15,1716.2969,768.15,1467.2969" style="stroke:#000000;stroke-width:1.5;"/><line style="stroke:#000000;stroke-width:1.5;" x1="768.15" x2="837.0475" y1="1489.5938" y2="1489.5938"/><text fill="#000000" font-family="sans-serif" font-size="14" lengthAdjust="spacing" textLength="55.8975" x="772.15" y="1482.292">security</text></g><!--cluster advice--><g id="cluster_advice"><polygon fill="none" points="89.99,300.2969,141.9412,300.2969,148.9412,322.5938,228.29,322.5938,228.29,383.2969,89.99,383.2969,89.99,300.2969" style="stroke:#000000;stroke-width:1.5;"/><line style="stroke:#000000;stroke-width:1.5;" x1="89.99" x2="148.9412" y1="322.5938" y2="322.5938"/><text fill="#000000" font-family="sans-serif" font-size="14" lengthAdjust="spacing" textLength="45.9512" x="93.99" y="315.292">advice</text></g><!--cluster exception--><g id="cluster_exception"><polygon fill="none" points="61.7,193.2969,136.6131,193.2969,143.6131,215.5938,256.58,215.5938,256.58,276.2969,61.7,276.2969,61.7,193.2969" style="stroke:#000000;stroke-width:1.5;"/><line style="stroke:#000000;stroke-width:1.5;" x1="61.7" x2="143.6131" y1="215.5938" y2="215.5938"/><text fill="#000000" font-family="sans-serif" font-size="14" lengthAdjust="spacing" textLength="68.9131" x="65.7" y="208.292">exception</text></g><!--cluster config--><g id="cluster_config"><polygon fill="none" points="65.57,86.2969,114.4108,86.2969,121.4108,108.5938,252.71,108.5938,252.71,169.2969,65.57,169.2969,65.57,86.2969" style="stroke:#000000;stroke-width:1.5;"/><line style="stroke:#000000;stroke-width:1.5;" x1="65.57" x2="121.4108" y1="108.5938" y2="108.5938"/><text fill="#000000" font-family="sans-serif" font-size="14" lengthAdjust="spacing" textLength="42.8408" x="69.57" y="101.292">config</text></g><!--class ProductRepository--><g id="elem_ProductRepository"><rect codeLine="8" fill="#FEFECE" height="42.5938" id="ProductRepository" style="stroke:#A80036;stroke-width:1.0;" width="107.0723" x="105.6" y="1930.9969"/><ellipse cx="120.6" cy="1952.2938" fill="#B4A7E5" rx="11" ry="11" style="stroke:#A80036;stroke-width:1.0;"/><path d="M116.5219,1948.0594 L116.5219,1945.9031 L123.9125,1945.9031 L123.9125,1948.0594 L121.4438,1948.0594 L121.4438,1956.1375 L123.9125,1956.1375 L123.9125,1958.2938 L116.5219,1958.2938 L116.5219,1956.1375 L118.9906,1956.1375 L118.9906,1948.0594 L116.5219,1948.0594 Z " fill="#000000"/><text fill="#000000" font-family="sans-serif" font-size="14" font-style="italic" lengthAdjust="spacing" textLength="53.71" x="145.2812" y="1948.992">Product</text><text fill="#000000" font-family="sans-serif" font-size="14" font-style="italic" lengthAdjust="spacing" textLength="75.0723" x="134.6" y="1965.2889">Repository</text></g><!--class ProductCategoryRepository--><g id="elem_ProductCategoryRepository"><rect codeLine="9" fill="#FEFECE" height="42.5938" id="ProductCategoryRepository" style="stroke:#A80036;stroke-width:1.0;" width="149.6602" x="84.31" y="1852.9969"/><ellipse cx="99.31" cy="1874.2938" fill="#B4A7E5" rx="11" ry="11" style="stroke:#A80036;stroke-width:1.0;"/><path d="M95.2319,1870.0594 L95.2319,1867.9031 L102.6225,1867.9031 L102.6225,1870.0594 L100.1538,1870.0594 L100.1538,1878.1375 L102.6225,1878.1375 L102.6225,1880.2938 L95.2319,1880.2938 L95.2319,1878.1375 L97.7006,1878.1375 L97.7006,1870.0594 L95.2319,1870.0594 Z " fill="#000000"/><text fill="#000000" font-family="sans-serif" font-size="14" font-style="italic" lengthAdjust="spacing" textLength="117.6602" x="113.31" y="1870.992">ProductCategory</text><text fill="#000000" font-family="sans-serif" font-size="14" font-style="italic" lengthAdjust="spacing" textLength="75.0723" x="134.6039" y="1887.2889">Repository</text></g><!--class ProductStockRepository--><g id="elem_ProductStockRepository"><rect codeLine="10" fill="#FEFECE" height="42.5938" id="ProductStockRepository" style="stroke:#A80036;stroke-width:1.0;" width="124.4561" x="96.91" y="1774.9969"/><ellipse cx="111.91" cy="1796.2938" fill="#B4A7E5" rx="11" ry="11" style="stroke:#A80036;stroke-width:1.0;"/><path d="M107.8319,1792.0594 L107.8319,1789.9031 L115.2225,1789.9031 L115.2225,1792.0594 L112.7538,1792.0594 L112.7538,1800.1375 L115.2225,1800.1375 L115.2225,1802.2938 L107.8319,1802.2938 L107.8319,1800.1375 L110.3006,1800.1375 L110.3006,1792.0594 L107.8319,1792.0594 Z " fill="#000000"/><text fill="#000000" font-family="sans-serif" font-size="14" font-style="italic" lengthAdjust="spacing" textLength="92.4561" x="125.91" y="1792.992">ProductStock</text><text fill="#000000" font-family="sans-serif" font-size="14" font-style="italic" lengthAdjust="spacing" textLength="75.0723" x="134.6019" y="1809.2889">Repository</text></g><!--class EmployeeAccountRepository--><g id="elem_EmployeeAccountRepository"><rect codeLine="11" fill="#FEFECE" height="42.5938" id="EmployeeAccountRepository" style="stroke:#A80036;stroke-width:1.0;" width="158.1094" x="300.58" y="1930.9969"/><ellipse cx="315.58" cy="1952.2938" fill="#B4A7E5" rx="11" ry="11" style="stroke:#A80036;stroke-width:1.0;"/><path d="M311.5019,1948.0594 L311.5019,1945.9031 L318.8925,1945.9031 L318.8925,1948.0594 L316.4238,1948.0594 L316.4238,1956.1375 L318.8925,1956.1375 L318.8925,1958.2938 L311.5019,1958.2938 L311.5019,1956.1375 L313.9706,1956.1375 L313.9706,1948.0594 L311.5019,1948.0594 Z " fill="#000000"/><text fill="#000000" font-family="sans-serif" font-size="14" font-style="italic" lengthAdjust="spacing" textLength="126.1094" x="329.58" y="1948.992">EmployeeAccount</text><text fill="#000000" font-family="sans-serif" font-size="14" font-style="italic" lengthAdjust="spacing" textLength="75.0723" x="355.0986" y="1965.2889">Repository</text></g><!--class EmployeeRepository--><g id="elem_EmployeeRepository"><rect codeLine="12" fill="#FEFECE" height="42.5938" id="EmployeeRepository" style="stroke:#A80036;stroke-width:1.0;" width="107.0723" x="326.1" y="1852.9969"/><ellipse cx="341.1" cy="1874.2938" fill="#B4A7E5" rx="11" ry="11" style="stroke:#A80036;stroke-width:1.0;"/><path d="M337.0219,1870.0594 L337.0219,1867.9031 L344.4125,1867.9031 L344.4125,1870.0594 L341.9438,1870.0594 L341.9438,1878.1375 L344.4125,1878.1375 L344.4125,1880.2938 L337.0219,1880.2938 L337.0219,1878.1375 L339.4906,1878.1375 L339.4906,1870.0594 L337.0219,1870.0594 Z " fill="#000000"/><text fill="#000000" font-family="sans-serif" font-size="14" font-style="italic" lengthAdjust="spacing" textLength="69.3369" x="357.9677" y="1870.992">Employee</text><text fill="#000000" font-family="sans-serif" font-size="14" font-style="italic" lengthAdjust="spacing" textLength="75.0723" x="355.1" y="1887.2889">Repository</text></g><!--class CustomerRepository--><g id="elem_CustomerRepository"><rect codeLine="13" fill="#FEFECE" height="42.5938" id="CustomerRepository" style="stroke:#A80036;stroke-width:1.0;" width="107.0723" x="326.1" y="1774.9969"/><ellipse cx="341.1" cy="1796.2938" fill="#B4A7E5" rx="11" ry="11" style="stroke:#A80036;stroke-width:1.0;"/><path d="M337.0219,1792.0594 L337.0219,1789.9031 L344.4125,1789.9031 L344.4125,1792.0594 L341.9438,1792.0594 L341.9438,1800.1375 L344.4125,1800.1375 L344.4125,1802.2938 L337.0219,1802.2938 L337.0219,1800.1375 L339.4906,1800.1375 L339.4906,1792.0594 L337.0219,1792.0594 Z " fill="#000000"/><text fill="#000000" font-family="sans-serif" font-size="14" font-style="italic" lengthAdjust="spacing" textLength="68.0039" x="358.6342" y="1792.992">Customer</text><text fill="#000000" font-family="sans-serif" font-size="14" font-style="italic" lengthAdjust="spacing" textLength="75.0723" x="355.1" y="1809.2889">Repository</text></g><!--class OrderRepository--><g id="elem_OrderRepository"><rect codeLine="14" fill="#FEFECE" height="42.5938" id="OrderRepository" style="stroke:#A80036;stroke-width:1.0;" width="107.0723" x="557.88" y="1930.9969"/><ellipse cx="572.88" cy="1952.2938" fill="#B4A7E5" rx="11" ry="11" style="stroke:#A80036;stroke-width:1.0;"/><path d="M568.8019,1948.0594 L568.8019,1945.9031 L576.1925,1945.9031 L576.1925,1948.0594 L573.7238,1948.0594 L573.7238,1956.1375 L576.1925,1956.1375 L576.1925,1958.2938 L568.8019,1958.2938 L568.8019,1956.1375 L571.2706,1956.1375 L571.2706,1948.0594 L568.8019,1948.0594 Z " fill="#000000"/><text fill="#000000" font-family="sans-serif" font-size="14" font-style="italic" lengthAdjust="spacing" textLength="40.0313" x="604.4005" y="1948.992">Order</text><text fill="#000000" font-family="sans-serif" font-size="14" font-style="italic" lengthAdjust="spacing" textLength="75.0723" x="586.88" y="1965.2889">Repository</text></g><!--class OrderDetailRepository--><g id="elem_OrderDetailRepository"><rect codeLine="15" fill="#FEFECE" height="42.5938" id="OrderDetailRepository" style="stroke:#A80036;stroke-width:1.0;" width="113.2725" x="554.78" y="1852.9969"/><ellipse cx="569.78" cy="1874.2938" fill="#B4A7E5" rx="11" ry="11" style="stroke:#A80036;stroke-width:1.0;"/><path d="M565.7019,1870.0594 L565.7019,1867.9031 L573.0925,1867.9031 L573.0925,1870.0594 L570.6238,1870.0594 L570.6238,1878.1375 L573.0925,1878.1375 L573.0925,1880.2938 L565.7019,1880.2938 L565.7019,1878.1375 L568.1706,1878.1375 L568.1706,1870.0594 L565.7019,1870.0594 Z " fill="#000000"/><text fill="#000000" font-family="sans-serif" font-size="14" font-style="italic" lengthAdjust="spacing" textLength="81.2725" x="583.78" y="1870.992">OrderDetail</text><text fill="#000000" font-family="sans-serif" font-size="14" font-style="italic" lengthAdjust="spacing" textLength="75.0723" x="586.8801" y="1887.2889">Repository</text></g><!--class Product--><g id="elem_Product"><rect codeLine="18" fill="#FEFECE" height="32" id="Product" style="stroke:#A80036;stroke-width:1.0;" width="85.71" x="116.28" y="1668.2969"/><ellipse cx="131.28" cy="1684.2969" fill="#ADD1B2" rx="11" ry="11" style="stroke:#A80036;stroke-width:1.0;"/><path d="M134.2488,1689.9375 Q133.6706,1690.2344 133.03,1690.375 Q132.3894,1690.5313 131.6863,1690.5313 Q129.1863,1690.5313 127.8581,1688.8906 Q126.5456,1687.2344 126.5456,1684.1094 Q126.5456,1680.9844 127.8581,1679.3281 Q129.1863,1677.6719 131.6863,1677.6719 Q132.3894,1677.6719 133.03,1677.8281 Q133.6863,1677.9844 134.2488,1678.2813 L134.2488,1681 Q133.6238,1680.4219 133.03,1680.1563 Q132.4363,1679.875 131.8113,1679.875 Q130.4675,1679.875 129.78,1680.9531 Q129.0925,1682.0156 129.0925,1684.1094 Q129.0925,1686.2031 129.78,1687.2813 Q130.4675,1688.3438 131.8113,1688.3438 Q132.4363,1688.3438 133.03,1688.0781 Q133.6238,1687.7969 134.2488,1687.2188 L134.2488,1689.9375 Z " fill="#000000"/><text fill="#000000" font-family="sans-serif" font-size="14" lengthAdjust="spacing" textLength="53.71" x="145.28" y="1689.1436">Product</text></g><!--class ProductCategory--><g id="elem_ProductCategory"><rect codeLine="19" fill="#FEFECE" height="32" id="ProductCategory" style="stroke:#A80036;stroke-width:1.0;" width="149.6602" x="84.31" y="1601.2969"/><ellipse cx="99.31" cy="1617.2969" fill="#ADD1B2" rx="11" ry="11" style="stroke:#A80036;stroke-width:1.0;"/><path d="M102.2788,1622.9375 Q101.7006,1623.2344 101.06,1623.375 Q100.4194,1623.5313 99.7163,1623.5313 Q97.2163,1623.5313 95.8881,1621.8906 Q94.5756,1620.2344 94.5756,1617.1094 Q94.5756,1613.9844 95.8881,1612.3281 Q97.2163,1610.6719 99.7163,1610.6719 Q100.4194,1610.6719 101.06,1610.8281 Q101.7163,1610.9844 102.2788,1611.2813 L102.2788,1614 Q101.6538,1613.4219 101.06,1613.1563 Q100.4663,1612.875 99.8413,1612.875 Q98.4975,1612.875 97.81,1613.9531 Q97.1225,1615.0156 97.1225,1617.1094 Q97.1225,1619.2031 97.81,1620.2813 Q98.4975,1621.3438 99.8413,1621.3438 Q100.4663,1621.3438 101.06,1621.0781 Q101.6538,1620.7969 102.2788,1620.2188 L102.2788,1622.9375 Z " fill="#000000"/><text fill="#000000" font-family="sans-serif" font-size="14" lengthAdjust="spacing" textLength="117.6602" x="113.31" y="1622.1436">ProductCategory</text></g><!--class ProductStock--><g id="elem_ProductStock"><rect codeLine="20" fill="#FEFECE" height="32" id="ProductStock" style="stroke:#A80036;stroke-width:1.0;" width="124.4561" x="96.91" y="1534.2969"/><ellipse cx="111.91" cy="1550.2969" fill="#ADD1B2" rx="11" ry="11" style="stroke:#A80036;stroke-width:1.0;"/><path d="M114.8788,1555.9375 Q114.3006,1556.2344 113.66,1556.375 Q113.0194,1556.5313 112.3163,1556.5313 Q109.8163,1556.5313 108.4881,1554.8906 Q107.1756,1553.2344 107.1756,1550.1094 Q107.1756,1546.9844 108.4881,1545.3281 Q109.8163,1543.6719 112.3163,1543.6719 Q113.0194,1543.6719 113.66,1543.8281 Q114.3163,1543.9844 114.8788,1544.2813 L114.8788,1547 Q114.2538,1546.4219 113.66,1546.1563 Q113.0663,1545.875 112.4413,1545.875 Q111.0975,1545.875 110.41,1546.9531 Q109.7225,1548.0156 109.7225,1550.1094 Q109.7225,1552.2031 110.41,1553.2813 Q111.0975,1554.3438 112.4413,1554.3438 Q113.0663,1554.3438 113.66,1554.0781 Q114.2538,1553.7969 114.8788,1553.2188 L114.8788,1555.9375 Z " fill="#000000"/><text fill="#000000" font-family="sans-serif" font-size="14" lengthAdjust="spacing" textLength="92.4561" x="125.91" y="1555.1436">ProductStock</text></g><!--class EmployeeAccount--><g id="elem_EmployeeAccount"><rect codeLine="21" fill="#FEFECE" height="32" id="EmployeeAccount" style="stroke:#A80036;stroke-width:1.0;" width="158.1094" x="300.58" y="1668.2969"/><ellipse cx="315.58" cy="1684.2969" fill="#ADD1B2" rx="11" ry="11" style="stroke:#A80036;stroke-width:1.0;"/><path d="M318.5488,1689.9375 Q317.9706,1690.2344 317.33,1690.375 Q316.6894,1690.5313 315.9863,1690.5313 Q313.4863,1690.5313 312.1581,1688.8906 Q310.8456,1687.2344 310.8456,1684.1094 Q310.8456,1680.9844 312.1581,1679.3281 Q313.4863,1677.6719 315.9863,1677.6719 Q316.6894,1677.6719 317.33,1677.8281 Q317.9863,1677.9844 318.5488,1678.2813 L318.5488,1681 Q317.9238,1680.4219 317.33,1680.1563 Q316.7363,1679.875 316.1113,1679.875 Q314.7675,1679.875 314.08,1680.9531 Q313.3925,1682.0156 313.3925,1684.1094 Q313.3925,1686.2031 314.08,1687.2813 Q314.7675,1688.3438 316.1113,1688.3438 Q316.7363,1688.3438 317.33,1688.0781 Q317.9238,1687.7969 318.5488,1687.2188 L318.5488,1689.9375 Z " fill="#000000"/><text fill="#000000" font-family="sans-serif" font-size="14" lengthAdjust="spacing" textLength="126.1094" x="329.58" y="1689.1436">EmployeeAccount</text></g><!--class Employee--><g id="elem_Employee"><rect codeLine="22" fill="#FEFECE" height="32" id="Employee" style="stroke:#A80036;stroke-width:1.0;" width="101.3369" x="328.96" y="1601.2969"/><ellipse cx="343.96" cy="1617.2969" fill="#ADD1B2" rx="11" ry="11" style="stroke:#A80036;stroke-width:1.0;"/><path d="M346.9288,1622.9375 Q346.3506,1623.2344 345.71,1623.375 Q345.0694,1623.5313 344.3663,1623.5313 Q341.8663,1623.5313 340.5381,1621.8906 Q339.2256,1620.2344 339.2256,1617.1094 Q339.2256,1613.9844 340.5381,1612.3281 Q341.8663,1610.6719 344.3663,1610.6719 Q345.0694,1610.6719 345.71,1610.8281 Q346.3663,1610.9844 346.9288,1611.2813 L346.9288,1614 Q346.3038,1613.4219 345.71,1613.1563 Q345.1163,1612.875 344.4913,1612.875 Q343.1475,1612.875 342.46,1613.9531 Q341.7725,1615.0156 341.7725,1617.1094 Q341.7725,1619.2031 342.46,1620.2813 Q343.1475,1621.3438 344.4913,1621.3438 Q345.1163,1621.3438 345.71,1621.0781 Q346.3038,1620.7969 346.9288,1620.2188 L346.9288,1622.9375 Z " fill="#000000"/><text fill="#000000" font-family="sans-serif" font-size="14" lengthAdjust="spacing" textLength="69.3369" x="357.96" y="1622.1436">Employee</text></g><!--class Customer--><g id="elem_Customer"><rect codeLine="23" fill="#FEFECE" height="32" id="Customer" style="stroke:#A80036;stroke-width:1.0;" width="100.0039" x="329.63" y="1534.2969"/><ellipse cx="344.63" cy="1550.2969" fill="#ADD1B2" rx="11" ry="11" style="stroke:#A80036;stroke-width:1.0;"/><path d="M347.5988,1555.9375 Q347.0206,1556.2344 346.38,1556.375 Q345.7394,1556.5313 345.0363,1556.5313 Q342.5363,1556.5313 341.2081,1554.8906 Q339.8956,1553.2344 339.8956,1550.1094 Q339.8956,1546.9844 341.2081,1545.3281 Q342.5363,1543.6719 345.0363,1543.6719 Q345.7394,1543.6719 346.38,1543.8281 Q347.0363,1543.9844 347.5988,1544.2813 L347.5988,1547 Q346.9738,1546.4219 346.38,1546.1563 Q345.7863,1545.875 345.1613,1545.875 Q343.8175,1545.875 343.13,1546.9531 Q342.4425,1548.0156 342.4425,1550.1094 Q342.4425,1552.2031 343.13,1553.2813 Q343.8175,1554.3438 345.1613,1554.3438 Q345.7863,1554.3438 346.38,1554.0781 Q346.9738,1553.7969 347.5988,1553.2188 L347.5988,1555.9375 Z " fill="#000000"/><text fill="#000000" font-family="sans-serif" font-size="14" lengthAdjust="spacing" textLength="68.0039" x="358.63" y="1555.1436">Customer</text></g><!--class Order--><g id="elem_Order"><rect codeLine="24" fill="#FEFECE" height="32" id="Order" style="stroke:#A80036;stroke-width:1.0;" width="72.0313" x="575.4" y="1668.2969"/><ellipse cx="590.4" cy="1684.2969" fill="#ADD1B2" rx="11" ry="11" style="stroke:#A80036;stroke-width:1.0;"/><path d="M593.3688,1689.9375 Q592.7906,1690.2344 592.15,1690.375 Q591.5094,1690.5313 590.8063,1690.5313 Q588.3063,1690.5313 586.9781,1688.8906 Q585.6656,1687.2344 585.6656,1684.1094 Q585.6656,1680.9844 586.9781,1679.3281 Q588.3063,1677.6719 590.8063,1677.6719 Q591.5094,1677.6719 592.15,1677.8281 Q592.8063,1677.9844 593.3688,1678.2813 L593.3688,1681 Q592.7438,1680.4219 592.15,1680.1563 Q591.5563,1679.875 590.9313,1679.875 Q589.5875,1679.875 588.9,1680.9531 Q588.2125,1682.0156 588.2125,1684.1094 Q588.2125,1686.2031 588.9,1687.2813 Q589.5875,1688.3438 590.9313,1688.3438 Q591.5563,1688.3438 592.15,1688.0781 Q592.7438,1687.7969 593.3688,1687.2188 L593.3688,1689.9375 Z " fill="#000000"/><text fill="#000000" font-family="sans-serif" font-size="14" lengthAdjust="spacing" textLength="40.0313" x="604.4" y="1689.1436">Order</text></g><!--class OrderDetail--><g id="elem_OrderDetail"><rect codeLine="25" fill="#FEFECE" height="32" id="OrderDetail" style="stroke:#A80036;stroke-width:1.0;" width="113.2725" x="554.78" y="1601.2969"/><ellipse cx="569.78" cy="1617.2969" fill="#ADD1B2" rx="11" ry="11" style="stroke:#A80036;stroke-width:1.0;"/><path d="M572.7488,1622.9375 Q572.1706,1623.2344 571.53,1623.375 Q570.8894,1623.5313 570.1863,1623.5313 Q567.6863,1623.5313 566.3581,1621.8906 Q565.0456,1620.2344 565.0456,1617.1094 Q565.0456,1613.9844 566.3581,1612.3281 Q567.6863,1610.6719 570.1863,1610.6719 Q570.8894,1610.6719 571.53,1610.8281 Q572.1863,1610.9844 572.7488,1611.2813 L572.7488,1614 Q572.1238,1613.4219 571.53,1613.1563 Q570.9363,1612.875 570.3113,1612.875 Q568.9675,1612.875 568.28,1613.9531 Q567.5925,1615.0156 567.5925,1617.1094 Q567.5925,1619.2031 568.28,1620.2813 Q568.9675,1621.3438 570.3113,1621.3438 Q570.9363,1621.3438 571.53,1621.0781 Q572.1238,1620.7969 572.7488,1620.2188 L572.7488,1622.9375 Z " fill="#000000"/><text fill="#000000" font-family="sans-serif" font-size="14" lengthAdjust="spacing" textLength="81.2725" x="583.78" y="1622.1436">OrderDetail</text></g><!--class ProductService--><g id="elem_ProductService"><rect codeLine="29" fill="#FEFECE" height="42.5938" id="ProductService" style="stroke:#A80036;stroke-width:1.0;" width="85.71" x="116.28" y="1416.9969"/><ellipse cx="131.28" cy="1438.2938" fill="#B4A7E5" rx="11" ry="11" style="stroke:#A80036;stroke-width:1.0;"/><path d="M127.2019,1434.0594 L127.2019,1431.9031 L134.5925,1431.9031 L134.5925,1434.0594 L132.1238,1434.0594 L132.1238,1442.1375 L134.5925,1442.1375 L134.5925,1444.2938 L127.2019,1444.2938 L127.2019,1442.1375 L129.6706,1442.1375 L129.6706,1434.0594 L127.2019,1434.0594 Z " fill="#000000"/><text fill="#000000" font-family="sans-serif" font-size="14" font-style="italic" lengthAdjust="spacing" textLength="53.71" x="145.28" y="1434.992">Product</text><text fill="#000000" font-family="sans-serif" font-size="14" font-style="italic" lengthAdjust="spacing" textLength="51.7412" x="146.2644" y="1451.2889">Service</text></g><!--class ProductServiceImpl--><g id="elem_ProductServiceImpl"><rect codeLine="30" fill="#FEFECE" height="42.5938" id="ProductServiceImpl" style="stroke:#A80036;stroke-width:1.0;" width="114.2842" x="322.49" y="1416.9969"/><ellipse cx="337.49" cy="1438.2938" fill="#ADD1B2" rx="11" ry="11" style="stroke:#A80036;stroke-width:1.0;"/><path d="M340.4588,1443.9344 Q339.8806,1444.2313 339.24,1444.3719 Q338.5994,1444.5281 337.8963,1444.5281 Q335.3963,1444.5281 334.0681,1442.8875 Q332.7556,1441.2313 332.7556,1438.1063 Q332.7556,1434.9813 334.0681,1433.325 Q335.3963,1431.6688 337.8963,1431.6688 Q338.5994,1431.6688 339.24,1431.825 Q339.8963,1431.9813 340.4588,1432.2781 L340.4588,1434.9969 Q339.8338,1434.4188 339.24,1434.1531 Q338.6463,1433.8719 338.0213,1433.8719 Q336.6775,1433.8719 335.99,1434.95 Q335.3025,1436.0125 335.3025,1438.1063 Q335.3025,1440.2 335.99,1441.2781 Q336.6775,1442.3406 338.0213,1442.3406 Q338.6463,1442.3406 339.24,1442.075 Q339.8338,1441.7938 340.4588,1441.2156 L340.4588,1443.9344 Z " fill="#000000"/><text fill="#000000" font-family="sans-serif" font-size="14" lengthAdjust="spacing" textLength="53.71" x="365.7771" y="1434.992">Product</text><text fill="#000000" font-family="sans-serif" font-size="14" lengthAdjust="spacing" textLength="82.2842" x="351.49" y="1451.2889">ServiceImpl</text></g><!--class ProductCategoryService--><g id="elem_ProductCategoryService"><rect codeLine="31" fill="#FEFECE" height="42.5938" id="ProductCategoryService" style="stroke:#A80036;stroke-width:1.0;" width="149.6602" x="84.31" y="1338.9969"/><ellipse cx="99.31" cy="1360.2938" fill="#B4A7E5" rx="11" ry="11" style="stroke:#A80036;stroke-width:1.0;"/><path d="M95.2319,1356.0594 L95.2319,1353.9031 L102.6225,1353.9031 L102.6225,1356.0594 L100.1538,1356.0594 L100.1538,1364.1375 L102.6225,1364.1375 L102.6225,1366.2938 L95.2319,1366.2938 L95.2319,1364.1375 L97.7006,1364.1375 L97.7006,1356.0594 L95.2319,1356.0594 Z " fill="#000000"/><text fill="#000000" font-family="sans-serif" font-size="14" font-style="italic" lengthAdjust="spacing" textLength="117.6602" x="113.31" y="1356.992">ProductCategory</text><text fill="#000000" font-family="sans-serif" font-size="14" font-style="italic" lengthAdjust="spacing" textLength="51.7412" x="146.2695" y="1373.2889">Service</text></g><!--class ProductCategoryServiceImpl--><g id="elem_ProductCategoryServiceImpl"><rect codeLine="32" fill="#FEFECE" height="42.5938" id="ProductCategoryServiceImpl" style="stroke:#A80036;stroke-width:1.0;" width="149.6602" x="304.8" y="1338.9969"/><ellipse cx="319.8" cy="1360.2938" fill="#ADD1B2" rx="11" ry="11" style="stroke:#A80036;stroke-width:1.0;"/><path d="M322.7688,1365.9344 Q322.1906,1366.2313 321.55,1366.3719 Q320.9094,1366.5281 320.2063,1366.5281 Q317.7063,1366.5281 316.3781,1364.8875 Q315.0656,1363.2313 315.0656,1360.1063 Q315.0656,1356.9813 316.3781,1355.325 Q317.7063,1353.6688 320.2063,1353.6688 Q320.9094,1353.6688 321.55,1353.825 Q322.2063,1353.9813 322.7688,1354.2781 L322.7688,1356.9969 Q322.1438,1356.4188 321.55,1356.1531 Q320.9563,1355.8719 320.3313,1355.8719 Q318.9875,1355.8719 318.3,1356.95 Q317.6125,1358.0125 317.6125,1360.1063 Q317.6125,1362.2 318.3,1363.2781 Q318.9875,1364.3406 320.3313,1364.3406 Q320.9563,1364.3406 321.55,1364.075 Q322.1438,1363.7938 322.7688,1363.2156 L322.7688,1365.9344 Z " fill="#000000"/><text fill="#000000" font-family="sans-serif" font-size="14" lengthAdjust="spacing" textLength="117.6602" x="333.8" y="1356.992">ProductCategory</text><text fill="#000000" font-family="sans-serif" font-size="14" lengthAdjust="spacing" textLength="82.2842" x="351.488" y="1373.2889">ServiceImpl</text></g><!--class EmployeeAccountService--><g id="elem_EmployeeAccountService"><rect codeLine="33" fill="#FEFECE" height="42.5938" id="EmployeeAccountService" style="stroke:#A80036;stroke-width:1.0;" width="158.1094" x="80.08" y="1260.9969"/><ellipse cx="95.08" cy="1282.2938" fill="#B4A7E5" rx="11" ry="11" style="stroke:#A80036;stroke-width:1.0;"/><path d="M91.0019,1278.0594 L91.0019,1275.9031 L98.3925,1275.9031 L98.3925,1278.0594 L95.9238,1278.0594 L95.9238,1286.1375 L98.3925,1286.1375 L98.3925,1288.2938 L91.0019,1288.2938 L91.0019,1286.1375 L93.4706,1286.1375 L93.4706,1278.0594 L91.0019,1278.0594 Z " fill="#000000"/><text fill="#000000" font-family="sans-serif" font-size="14" font-style="italic" lengthAdjust="spacing" textLength="126.1094" x="109.08" y="1278.992">EmployeeAccount</text><text fill="#000000" font-family="sans-serif" font-size="14" font-style="italic" lengthAdjust="spacing" textLength="51.7412" x="146.2641" y="1295.2889">Service</text></g><!--class EmployeeAccountServiceImpl--><g id="elem_EmployeeAccountServiceImpl"><rect codeLine="34" fill="#FEFECE" height="42.5938" id="EmployeeAccountServiceImpl" style="stroke:#A80036;stroke-width:1.0;" width="158.1094" x="300.58" y="1260.9969"/><ellipse cx="315.58" cy="1282.2938" fill="#ADD1B2" rx="11" ry="11" style="stroke:#A80036;stroke-width:1.0;"/><path d="M318.5488,1287.9344 Q317.9706,1288.2313 317.33,1288.3719 Q316.6894,1288.5281 315.9863,1288.5281 Q313.4863,1288.5281 312.1581,1286.8875 Q310.8456,1285.2313 310.8456,1282.1063 Q310.8456,1278.9813 312.1581,1277.325 Q313.4863,1275.6688 315.9863,1275.6688 Q316.6894,1275.6688 317.33,1275.825 Q317.9863,1275.9813 318.5488,1276.2781 L318.5488,1278.9969 Q317.9238,1278.4188 317.33,1278.1531 Q316.7363,1277.8719 316.1113,1277.8719 Q314.7675,1277.8719 314.08,1278.95 Q313.3925,1280.0125 313.3925,1282.1063 Q313.3925,1284.2 314.08,1285.2781 Q314.7675,1286.3406 316.1113,1286.3406 Q316.7363,1286.3406 317.33,1286.075 Q317.9238,1285.7938 318.5488,1285.2156 L318.5488,1287.9344 Z " fill="#000000"/><text fill="#000000" font-family="sans-serif" font-size="14" lengthAdjust="spacing" textLength="126.1094" x="329.58" y="1278.992">EmployeeAccount</text><text fill="#000000" font-family="sans-serif" font-size="14" lengthAdjust="spacing" textLength="82.2842" x="351.4926" y="1295.2889">ServiceImpl</text></g><!--class OrderService--><g id="elem_OrderService"><rect codeLine="35" fill="#FEFECE" height="42.5938" id="OrderService" style="stroke:#A80036;stroke-width:1.0;" width="83.7412" x="117.27" y="1182.9969"/><ellipse cx="132.27" cy="1204.2938" fill="#B4A7E5" rx="11" ry="11" style="stroke:#A80036;stroke-width:1.0;"/><path d="M128.1919,1200.0594 L128.1919,1197.9031 L135.5825,1197.9031 L135.5825,1200.0594 L133.1137,1200.0594 L133.1137,1208.1375 L135.5825,1208.1375 L135.5825,1210.2938 L128.1919,1210.2938 L128.1919,1208.1375 L130.6606,1208.1375 L130.6606,1200.0594 L128.1919,1200.0594 Z " fill="#000000"/><text fill="#000000" font-family="sans-serif" font-size="14" font-style="italic" lengthAdjust="spacing" textLength="40.0313" x="152.125" y="1200.992">Order</text><text fill="#000000" font-family="sans-serif" font-size="14" font-style="italic" lengthAdjust="spacing" textLength="51.7412" x="146.27" y="1217.2889">Service</text></g><!--class OrderServiceImpl--><g id="elem_OrderServiceImpl"><rect codeLine="36" fill="#FEFECE" height="42.5938" id="OrderServiceImpl" style="stroke:#A80036;stroke-width:1.0;" width="114.2842" x="322.49" y="1182.9969"/><ellipse cx="337.49" cy="1204.2938" fill="#ADD1B2" rx="11" ry="11" style="stroke:#A80036;stroke-width:1.0;"/><path d="M340.4588,1209.9344 Q339.8806,1210.2313 339.24,1210.3719 Q338.5994,1210.5281 337.8963,1210.5281 Q335.3963,1210.5281 334.0681,1208.8875 Q332.7556,1207.2313 332.7556,1204.1063 Q332.7556,1200.9813 334.0681,1199.325 Q335.3963,1197.6688 337.8963,1197.6688 Q338.5994,1197.6688 339.24,1197.825 Q339.8963,1197.9813 340.4588,1198.2781 L340.4588,1200.9969 Q339.8338,1200.4188 339.24,1200.1531 Q338.6463,1199.8719 338.0213,1199.8719 Q336.6775,1199.8719 335.99,1200.95 Q335.3025,1202.0125 335.3025,1204.1063 Q335.3025,1206.2 335.99,1207.2781 Q336.6775,1208.3406 338.0213,1208.3406 Q338.6463,1208.3406 339.24,1208.075 Q339.8338,1207.7938 340.4588,1207.2156 L340.4588,1209.9344 Z " fill="#000000"/><text fill="#000000" font-family="sans-serif" font-size="14" lengthAdjust="spacing" textLength="40.0313" x="372.6165" y="1200.992">Order</text><text fill="#000000" font-family="sans-serif" font-size="14" lengthAdjust="spacing" textLength="82.2842" x="351.49" y="1217.2889">ServiceImpl</text></g><!--class CustomerService--><g id="elem_CustomerService"><rect codeLine="37" fill="#FEFECE" height="42.5938" id="CustomerService" style="stroke:#A80036;stroke-width:1.0;" width="100.0039" x="109.13" y="1104.9969"/><ellipse cx="124.13" cy="1126.2938" fill="#B4A7E5" rx="11" ry="11" style="stroke:#A80036;stroke-width:1.0;"/><path d="M120.0519,1122.0594 L120.0519,1119.9031 L127.4425,1119.9031 L127.4425,1122.0594 L124.9738,1122.0594 L124.9738,1130.1375 L127.4425,1130.1375 L127.4425,1132.2938 L120.0519,1132.2938 L120.0519,1130.1375 L122.5206,1130.1375 L122.5206,1122.0594 L120.0519,1122.0594 Z " fill="#000000"/><text fill="#000000" font-family="sans-serif" font-size="14" font-style="italic" lengthAdjust="spacing" textLength="68.0039" x="138.13" y="1122.992">Customer</text><text fill="#000000" font-family="sans-serif" font-size="14" font-style="italic" lengthAdjust="spacing" textLength="51.7412" x="146.2613" y="1139.2889">Service</text></g><!--class CustomerServiceImpl--><g id="elem_CustomerServiceImpl"><rect codeLine="38" fill="#FEFECE" height="42.5938" id="CustomerServiceImpl" style="stroke:#A80036;stroke-width:1.0;" width="114.2842" x="322.49" y="1104.9969"/><ellipse cx="337.49" cy="1126.2938" fill="#ADD1B2" rx="11" ry="11" style="stroke:#A80036;stroke-width:1.0;"/><path d="M340.4588,1131.9344 Q339.8806,1132.2313 339.24,1132.3719 Q338.5994,1132.5281 337.8963,1132.5281 Q335.3963,1132.5281 334.0681,1130.8875 Q332.7556,1129.2313 332.7556,1126.1063 Q332.7556,1122.9813 334.0681,1121.325 Q335.3963,1119.6688 337.8963,1119.6688 Q338.5994,1119.6688 339.24,1119.825 Q339.8963,1119.9813 340.4588,1120.2781 L340.4588,1122.9969 Q339.8338,1122.4188 339.24,1122.1531 Q338.6463,1121.8719 338.0213,1121.8719 Q336.6775,1121.8719 335.99,1122.95 Q335.3025,1124.0125 335.3025,1126.1063 Q335.3025,1128.2 335.99,1129.2781 Q336.6775,1130.3406 338.0213,1130.3406 Q338.6463,1130.3406 339.24,1130.075 Q339.8338,1129.7938 340.4588,1129.2156 L340.4588,1131.9344 Z " fill="#000000"/><text fill="#000000" font-family="sans-serif" font-size="14" lengthAdjust="spacing" textLength="68.0039" x="358.6301" y="1122.992">Customer</text><text fill="#000000" font-family="sans-serif" font-size="14" lengthAdjust="spacing" textLength="82.2842" x="351.49" y="1139.2889">ServiceImpl</text></g><!--class GlobalExceptionHandler--><g id="elem_GlobalExceptionHandler"><rect codeLine="47" fill="#FEFECE" height="42.5938" id="GlobalExceptionHandler" style="stroke:#A80036;stroke-width:1.0;" width="145.8047" x="86.23" y="441.9969"/><ellipse cx="101.23" cy="463.2938" fill="#ADD1B2" rx="11" ry="11" style="stroke:#A80036;stroke-width:1.0;"/><path d="M104.1988,468.9344 Q103.6206,469.2313 102.98,469.3719 Q102.3394,469.5281 101.6363,469.5281 Q99.1363,469.5281 97.8081,467.8875 Q96.4956,466.2313 96.4956,463.1063 Q96.4956,459.9813 97.8081,458.325 Q99.1363,456.6688 101.6363,456.6688 Q102.3394,456.6688 102.98,456.825 Q103.6363,456.9813 104.1988,457.2781 L104.1988,459.9969 Q103.5738,459.4188 102.98,459.1531 Q102.3863,458.8719 101.7613,458.8719 Q100.4175,458.8719 99.73,459.95 Q99.0425,461.0125 99.0425,463.1063 Q99.0425,465.2 99.73,466.2781 Q100.4175,467.3406 101.7613,467.3406 Q102.3863,467.3406 102.98,467.075 Q103.5738,466.7938 104.1988,466.2156 L104.1988,468.9344 Z " fill="#000000"/><text fill="#000000" font-family="sans-serif" font-size="14" lengthAdjust="spacing" textLength="113.8047" x="115.23" y="459.992">GlobalException</text><text fill="#000000" font-family="sans-serif" font-size="14" lengthAdjust="spacing" textLength="55.125" x="144.5698" y="476.2889">Handler</text></g><!--class MenuController--><g id="elem_MenuController"><rect codeLine="49" fill="#FEFECE" height="42.5938" id="MenuController" style="stroke:#A80036;stroke-width:1.0;" width="101.1729" x="108.55" y="963.9969"/><ellipse cx="123.55" cy="985.2938" fill="#ADD1B2" rx="11" ry="11" style="stroke:#A80036;stroke-width:1.0;"/><path d="M126.5188,990.9344 Q125.9406,991.2313 125.3,991.3719 Q124.6594,991.5281 123.9563,991.5281 Q121.4563,991.5281 120.1281,989.8875 Q118.8156,988.2313 118.8156,985.1063 Q118.8156,981.9813 120.1281,980.325 Q121.4563,978.6688 123.9563,978.6688 Q124.6594,978.6688 125.3,978.825 Q125.9563,978.9813 126.5188,979.2781 L126.5188,981.9969 Q125.8938,981.4188 125.3,981.1531 Q124.7063,980.8719 124.0813,980.8719 Q122.7375,980.8719 122.05,981.95 Q121.3625,983.0125 121.3625,985.1063 Q121.3625,987.2 122.05,988.2781 Q122.7375,989.3406 124.0813,989.3406 Q124.7063,989.3406 125.3,989.075 Q125.8938,988.7938 126.5188,988.2156 L126.5188,990.9344 Z " fill="#000000"/><text fill="#000000" font-family="sans-serif" font-size="14" lengthAdjust="spacing" textLength="38.4385" x="152.9172" y="981.992">Menu</text><text fill="#000000" font-family="sans-serif" font-size="14" lengthAdjust="spacing" textLength="69.1729" x="137.55" y="998.2889">Controller</text></g><!--class LoginController--><g id="elem_LoginController"><rect codeLine="50" fill="#FEFECE" height="42.5938" id="LoginController" style="stroke:#A80036;stroke-width:1.0;" width="101.1729" x="108.55" y="885.9969"/><ellipse cx="123.55" cy="907.2938" fill="#ADD1B2" rx="11" ry="11" style="stroke:#A80036;stroke-width:1.0;"/><path d="M126.5188,912.9344 Q125.9406,913.2313 125.3,913.3719 Q124.6594,913.5281 123.9563,913.5281 Q121.4563,913.5281 120.1281,911.8875 Q118.8156,910.2313 118.8156,907.1063 Q118.8156,903.9813 120.1281,902.325 Q121.4563,900.6688 123.9563,900.6688 Q124.6594,900.6688 125.3,900.825 Q125.9563,900.9813 126.5188,901.2781 L126.5188,903.9969 Q125.8938,903.4188 125.3,903.1531 Q124.7063,902.8719 124.0813,902.8719 Q122.7375,902.8719 122.05,903.95 Q121.3625,905.0125 121.3625,907.1063 Q121.3625,909.2 122.05,910.2781 Q122.7375,911.3406 124.0813,911.3406 Q124.7063,911.3406 125.3,911.075 Q125.8938,910.7938 126.5188,910.2156 L126.5188,912.9344 Z " fill="#000000"/><text fill="#000000" font-family="sans-serif" font-size="14" lengthAdjust="spacing" textLength="38.0146" x="153.1291" y="903.992">Login</text><text fill="#000000" font-family="sans-serif" font-size="14" lengthAdjust="spacing" textLength="69.1729" x="137.55" y="920.2889">Controller</text></g><!--class ProductSearchController--><g id="elem_ProductSearchController"><rect codeLine="51" fill="#FEFECE" height="42.5938" id="ProductSearchController" style="stroke:#A80036;stroke-width:1.0;" width="134.1152" x="92.08" y="807.9969"/><ellipse cx="107.08" cy="829.2938" fill="#ADD1B2" rx="11" ry="11" style="stroke:#A80036;stroke-width:1.0;"/><path d="M110.0488,834.9344 Q109.4706,835.2313 108.83,835.3719 Q108.1894,835.5281 107.4863,835.5281 Q104.9863,835.5281 103.6581,833.8875 Q102.3456,832.2313 102.3456,829.1063 Q102.3456,825.9813 103.6581,824.325 Q104.9863,822.6688 107.4863,822.6688 Q108.1894,822.6688 108.83,822.825 Q109.4863,822.9813 110.0488,823.2781 L110.0488,825.9969 Q109.4238,825.4188 108.83,825.1531 Q108.2363,824.8719 107.6113,824.8719 Q106.2675,824.8719 105.58,825.95 Q104.8925,827.0125 104.8925,829.1063 Q104.8925,831.2 105.58,832.2781 Q106.2675,833.3406 107.6113,833.3406 Q108.2363,833.3406 108.83,833.075 Q109.4238,832.7938 110.0488,832.2156 L110.0488,834.9344 Z " fill="#000000"/><text fill="#000000" font-family="sans-serif" font-size="14" lengthAdjust="spacing" textLength="102.1152" x="121.08" y="825.992">ProductSearch</text><text fill="#000000" font-family="sans-serif" font-size="14" lengthAdjust="spacing" textLength="69.1729" x="137.5512" y="842.2889">Controller</text></g><!--class ProductAddController--><g id="elem_ProductAddController"><rect codeLine="52" fill="#FEFECE" height="42.5938" id="ProductAddController" style="stroke:#A80036;stroke-width:1.0;" width="113.0605" x="323.1" y="963.9969"/><ellipse cx="338.1" cy="985.2938" fill="#ADD1B2" rx="11" ry="11" style="stroke:#A80036;stroke-width:1.0;"/><path d="M341.0688,990.9344 Q340.4906,991.2313 339.85,991.3719 Q339.2094,991.5281 338.5063,991.5281 Q336.0063,991.5281 334.6781,989.8875 Q333.3656,988.2313 333.3656,985.1063 Q333.3656,981.9813 334.6781,980.325 Q336.0063,978.6688 338.5063,978.6688 Q339.2094,978.6688 339.85,978.825 Q340.5063,978.9813 341.0688,979.2781 L341.0688,981.9969 Q340.4438,981.4188 339.85,981.1531 Q339.2563,980.8719 338.6313,980.8719 Q337.2875,980.8719 336.6,981.95 Q335.9125,983.0125 335.9125,985.1063 Q335.9125,987.2 336.6,988.2781 Q337.2875,989.3406 338.6313,989.3406 Q339.2563,989.3406 339.85,989.075 Q340.4438,988.7938 341.0688,988.2156 L341.0688,990.9344 Z " fill="#000000"/><text fill="#000000" font-family="sans-serif" font-size="14" lengthAdjust="spacing" textLength="81.0605" x="352.1" y="981.992">ProductAdd</text><text fill="#000000" font-family="sans-serif" font-size="14" lengthAdjust="spacing" textLength="69.1729" x="358.0438" y="998.2889">Controller</text></g><!--class ProductUpdateController--><g id="elem_ProductUpdateController"><rect codeLine="53" fill="#FEFECE" height="42.5938" id="ProductUpdateController" style="stroke:#A80036;stroke-width:1.0;" width="136.4121" x="311.43" y="885.9969"/><ellipse cx="326.43" cy="907.2938" fill="#ADD1B2" rx="11" ry="11" style="stroke:#A80036;stroke-width:1.0;"/><path d="M329.3988,912.9344 Q328.8206,913.2313 328.18,913.3719 Q327.5394,913.5281 326.8363,913.5281 Q324.3363,913.5281 323.0081,911.8875 Q321.6956,910.2313 321.6956,907.1063 Q321.6956,903.9813 323.0081,902.325 Q324.3363,900.6688 326.8363,900.6688 Q327.5394,900.6688 328.18,900.825 Q328.8363,900.9813 329.3988,901.2781 L329.3988,903.9969 Q328.7738,903.4188 328.18,903.1531 Q327.5863,902.8719 326.9613,902.8719 Q325.6175,902.8719 324.93,903.95 Q324.2425,905.0125 324.2425,907.1063 Q324.2425,909.2 324.93,910.2781 Q325.6175,911.3406 326.9613,911.3406 Q327.5863,911.3406 328.18,911.075 Q328.7738,910.7938 329.3988,910.2156 L329.3988,912.9344 Z " fill="#000000"/><text fill="#000000" font-family="sans-serif" font-size="14" lengthAdjust="spacing" textLength="104.4121" x="340.43" y="903.992">ProductUpdate</text><text fill="#000000" font-family="sans-serif" font-size="14" lengthAdjust="spacing" textLength="69.1729" x="358.0496" y="920.2889">Controller</text></g><!--class ProductDeleteController--><g id="elem_ProductDeleteController"><rect codeLine="54" fill="#FEFECE" height="42.5938" id="ProductDeleteController" style="stroke:#A80036;stroke-width:1.0;" width="131.709" x="313.78" y="807.9969"/><ellipse cx="328.78" cy="829.2938" fill="#ADD1B2" rx="11" ry="11" style="stroke:#A80036;stroke-width:1.0;"/><path d="M331.7488,834.9344 Q331.1706,835.2313 330.53,835.3719 Q329.8894,835.5281 329.1863,835.5281 Q326.6863,835.5281 325.3581,833.8875 Q324.0456,832.2313 324.0456,829.1063 Q324.0456,825.9813 325.3581,824.325 Q326.6863,822.6688 329.1863,822.6688 Q329.8894,822.6688 330.53,822.825 Q331.1863,822.9813 331.7488,823.2781 L331.7488,825.9969 Q331.1238,825.4188 330.53,825.1531 Q329.9363,824.8719 329.3113,824.8719 Q327.9675,824.8719 327.28,825.95 Q326.5925,827.0125 326.5925,829.1063 Q326.5925,831.2 327.28,832.2781 Q327.9675,833.3406 329.3113,833.3406 Q329.9363,833.3406 330.53,833.075 Q331.1238,832.7938 331.7488,832.2156 L331.7488,834.9344 Z " fill="#000000"/><text fill="#000000" font-family="sans-serif" font-size="14" lengthAdjust="spacing" textLength="99.709" x="342.78" y="825.992">ProductDelete</text><text fill="#000000" font-family="sans-serif" font-size="14" lengthAdjust="spacing" textLength="69.1729" x="358.0481" y="842.2889">Controller</text></g><!--class ProductCategoryAddController--><g id="elem_ProductCategoryAddController"><rect codeLine="55" fill="#FEFECE" height="42.5938" id="ProductCategoryAddController" style="stroke:#A80036;stroke-width:1.0;" width="177.0107" x="522.91" y="963.9969"/><ellipse cx="537.91" cy="985.2938" fill="#ADD1B2" rx="11" ry="11" style="stroke:#A80036;stroke-width:1.0;"/><path d="M540.8788,990.9344 Q540.3006,991.2313 539.66,991.3719 Q539.0194,991.5281 538.3163,991.5281 Q535.8163,991.5281 534.4881,989.8875 Q533.1756,988.2313 533.1756,985.1063 Q533.1756,981.9813 534.4881,980.325 Q535.8163,978.6688 538.3163,978.6688 Q539.0194,978.6688 539.66,978.825 Q540.3163,978.9813 540.8788,979.2781 L540.8788,981.9969 Q540.2538,981.4188 539.66,981.1531 Q539.0663,980.8719 538.4413,980.8719 Q537.0975,980.8719 536.41,981.95 Q535.7225,983.0125 535.7225,985.1063 Q535.7225,987.2 536.41,988.2781 Q537.0975,989.3406 538.4413,989.3406 Q539.0663,989.3406 539.66,989.075 Q540.2538,988.7938 540.8788,988.2156 L540.8788,990.9344 Z " fill="#000000"/><text fill="#000000" font-family="sans-serif" font-size="14" lengthAdjust="spacing" textLength="145.0107" x="551.91" y="981.992">ProductCategoryAdd</text><text fill="#000000" font-family="sans-serif" font-size="14" lengthAdjust="spacing" textLength="69.1729" x="589.8289" y="998.2889">Controller</text></g><!--class EmployeeAccountAddController--><g id="elem_EmployeeAccountAddController"><rect codeLine="56" fill="#FEFECE" height="42.5938" id="EmployeeAccountAddController" style="stroke:#A80036;stroke-width:1.0;" width="185.46" x="518.69" y="885.9969"/><ellipse cx="533.69" cy="907.2938" fill="#ADD1B2" rx="11" ry="11" style="stroke:#A80036;stroke-width:1.0;"/><path d="M536.6588,912.9344 Q536.0806,913.2313 535.44,913.3719 Q534.7994,913.5281 534.0963,913.5281 Q531.5963,913.5281 530.2681,911.8875 Q528.9556,910.2313 528.9556,907.1063 Q528.9556,903.9813 530.2681,902.325 Q531.5963,900.6688 534.0963,900.6688 Q534.7994,900.6688 535.44,900.825 Q536.0963,900.9813 536.6588,901.2781 L536.6588,903.9969 Q536.0338,903.4188 535.44,903.1531 Q534.8463,902.8719 534.2213,902.8719 Q532.8775,902.8719 532.19,903.95 Q531.5025,905.0125 531.5025,907.1063 Q531.5025,909.2 532.19,910.2781 Q532.8775,911.3406 534.2213,911.3406 Q534.8463,911.3406 535.44,911.075 Q536.0338,910.7938 536.6588,910.2156 L536.6588,912.9344 Z " fill="#000000"/><text fill="#000000" font-family="sans-serif" font-size="14" lengthAdjust="spacing" textLength="153.46" x="547.69" y="903.992">EmployeeAccountAdd</text><text fill="#000000" font-family="sans-serif" font-size="14" lengthAdjust="spacing" textLength="69.1729" x="589.8336" y="920.2889">Controller</text></g><!--class TopController--><g id="elem_TopController"><rect codeLine="59" fill="#FEFECE" height="42.5938" id="TopController" style="stroke:#A80036;stroke-width:1.0;" width="101.1729" x="108.55" y="690.9969"/><ellipse cx="123.55" cy="712.2938" fill="#ADD1B2" rx="11" ry="11" style="stroke:#A80036;stroke-width:1.0;"/><path d="M126.5188,717.9344 Q125.9406,718.2313 125.3,718.3719 Q124.6594,718.5281 123.9563,718.5281 Q121.4563,718.5281 120.1281,716.8875 Q118.8156,715.2313 118.8156,712.1063 Q118.8156,708.9813 120.1281,707.325 Q121.4563,705.6688 123.9563,705.6688 Q124.6594,705.6688 125.3,705.825 Q125.9563,705.9813 126.5188,706.2781 L126.5188,708.9969 Q125.8938,708.4188 125.3,708.1531 Q124.7063,707.8719 124.0813,707.8719 Q122.7375,707.8719 122.05,708.95 Q121.3625,710.0125 121.3625,712.1063 Q121.3625,714.2 122.05,715.2781 Q122.7375,716.3406 124.0813,716.3406 Q124.7063,716.3406 125.3,716.075 Q125.8938,715.7938 126.5188,715.2156 L126.5188,717.9344 Z " fill="#000000"/><text fill="#000000" font-family="sans-serif" font-size="14" lengthAdjust="spacing" textLength="26.0039" x="159.1345" y="708.992">Top</text><text fill="#000000" font-family="sans-serif" font-size="14" lengthAdjust="spacing" textLength="69.1729" x="137.55" y="725.2889">Controller</text></g><!--class CustomerResigterController--><g id="elem_CustomerResigterController"><rect codeLine="60" fill="#FEFECE" height="42.5938" id="CustomerResigterController" style="stroke:#A80036;stroke-width:1.0;" width="158.2734" x="80" y="612.9969"/><ellipse cx="95" cy="634.2938" fill="#ADD1B2" rx="11" ry="11" style="stroke:#A80036;stroke-width:1.0;"/><path d="M97.9688,639.9344 Q97.3906,640.2313 96.75,640.3719 Q96.1094,640.5281 95.4063,640.5281 Q92.9063,640.5281 91.5781,638.8875 Q90.2656,637.2313 90.2656,634.1063 Q90.2656,630.9813 91.5781,629.325 Q92.9063,627.6688 95.4063,627.6688 Q96.1094,627.6688 96.75,627.825 Q97.4063,627.9813 97.9688,628.2781 L97.9688,630.9969 Q97.3438,630.4188 96.75,630.1531 Q96.1563,629.8719 95.5313,629.8719 Q94.1875,629.8719 93.5,630.95 Q92.8125,632.0125 92.8125,634.1063 Q92.8125,636.2 93.5,637.2781 Q94.1875,638.3406 95.5313,638.3406 Q96.1563,638.3406 96.75,638.075 Q97.3438,637.7938 97.9688,637.2156 L97.9688,639.9344 Z " fill="#000000"/><text fill="#000000" font-family="sans-serif" font-size="14" lengthAdjust="spacing" textLength="126.2734" x="109" y="630.992">CustomerResigter</text><text fill="#000000" font-family="sans-serif" font-size="14" lengthAdjust="spacing" textLength="69.1729" x="137.5503" y="647.2889">Controller</text></g><!--class CustomerLoginController--><g id="elem_CustomerLoginController"><rect codeLine="61" fill="#FEFECE" height="42.5938" id="CustomerLoginController" style="stroke:#A80036;stroke-width:1.0;" width="138.0186" x="90.13" y="534.9969"/><ellipse cx="105.13" cy="556.2938" fill="#ADD1B2" rx="11" ry="11" style="stroke:#A80036;stroke-width:1.0;"/><path d="M108.0988,561.9344 Q107.5206,562.2313 106.88,562.3719 Q106.2394,562.5281 105.5363,562.5281 Q103.0363,562.5281 101.7081,560.8875 Q100.3956,559.2313 100.3956,556.1063 Q100.3956,552.9813 101.7081,551.325 Q103.0363,549.6688 105.5363,549.6688 Q106.2394,549.6688 106.88,549.825 Q107.5363,549.9813 108.0988,550.2781 L108.0988,552.9969 Q107.4738,552.4188 106.88,552.1531 Q106.2863,551.8719 105.6613,551.8719 Q104.3175,551.8719 103.63,552.95 Q102.9425,554.0125 102.9425,556.1063 Q102.9425,558.2 103.63,559.2781 Q104.3175,560.3406 105.6613,560.3406 Q106.2863,560.3406 106.88,560.075 Q107.4738,559.7938 108.0988,559.2156 L108.0988,561.9344 Z " fill="#000000"/><text fill="#000000" font-family="sans-serif" font-size="14" lengthAdjust="spacing" textLength="106.0186" x="119.13" y="552.992">CustomerLogin</text><text fill="#000000" font-family="sans-serif" font-size="14" lengthAdjust="spacing" textLength="69.1729" x="137.5529" y="569.2889">Controller</text></g><!--class ProductListController--><g id="elem_ProductListController"><rect codeLine="62" fill="#FEFECE" height="42.5938" id="ProductListController" style="stroke:#A80036;stroke-width:1.0;" width="110.1826" x="324.54" y="690.9969"/><ellipse cx="339.54" cy="712.2938" fill="#ADD1B2" rx="11" ry="11" style="stroke:#A80036;stroke-width:1.0;"/><path d="M342.5088,717.9344 Q341.9306,718.2313 341.29,718.3719 Q340.6494,718.5281 339.9463,718.5281 Q337.4463,718.5281 336.1181,716.8875 Q334.8056,715.2313 334.8056,712.1063 Q334.8056,708.9813 336.1181,707.325 Q337.4463,705.6688 339.9463,705.6688 Q340.6494,705.6688 341.29,705.825 Q341.9463,705.9813 342.5088,706.2781 L342.5088,708.9969 Q341.8838,708.4188 341.29,708.1531 Q340.6963,707.8719 340.0713,707.8719 Q338.7275,707.8719 338.04,708.95 Q337.3525,710.0125 337.3525,712.1063 Q337.3525,714.2 338.04,715.2781 Q338.7275,716.3406 340.0713,716.3406 Q340.6963,716.3406 341.29,716.075 Q341.8838,715.7938 342.5088,715.2156 L342.5088,717.9344 Z " fill="#000000"/><text fill="#000000" font-family="sans-serif" font-size="14" lengthAdjust="spacing" textLength="78.1826" x="353.54" y="708.992">ProductList</text><text fill="#000000" font-family="sans-serif" font-size="14" lengthAdjust="spacing" textLength="69.1729" x="358.0449" y="725.2889">Controller</text></g><!--class PurchaseController--><g id="elem_PurchaseController"><rect codeLine="63" fill="#FEFECE" height="42.5938" id="PurchaseController" style="stroke:#A80036;stroke-width:1.0;" width="101.1729" x="329.05" y="612.9969"/><ellipse cx="344.05" cy="634.2938" fill="#ADD1B2" rx="11" ry="11" style="stroke:#A80036;stroke-width:1.0;"/><path d="M347.0188,639.9344 Q346.4406,640.2313 345.8,640.3719 Q345.1594,640.5281 344.4563,640.5281 Q341.9563,640.5281 340.6281,638.8875 Q339.3156,637.2313 339.3156,634.1063 Q339.3156,630.9813 340.6281,629.325 Q341.9563,627.6688 344.4563,627.6688 Q345.1594,627.6688 345.8,627.825 Q346.4563,627.9813 347.0188,628.2781 L347.0188,630.9969 Q346.3938,630.4188 345.8,630.1531 Q345.2063,629.8719 344.5813,629.8719 Q343.2375,629.8719 342.55,630.95 Q341.8625,632.0125 341.8625,634.1063 Q341.8625,636.2 342.55,637.2781 Q343.2375,638.3406 344.5813,638.3406 Q345.2063,638.3406 345.8,638.075 Q346.3938,637.7938 347.0188,637.2156 L347.0188,639.9344 Z " fill="#000000"/><text fill="#000000" font-family="sans-serif" font-size="14" lengthAdjust="spacing" textLength="64.1279" x="360.5725" y="630.992">Purchase</text><text fill="#000000" font-family="sans-serif" font-size="14" lengthAdjust="spacing" textLength="69.1729" x="358.05" y="647.2889">Controller</text></g><!--class OrderController--><g id="elem_OrderController"><rect codeLine="64" fill="#FEFECE" height="42.5938" id="OrderController" style="stroke:#A80036;stroke-width:1.0;" width="101.1729" x="329.05" y="534.9969"/><ellipse cx="344.05" cy="556.2938" fill="#ADD1B2" rx="11" ry="11" style="stroke:#A80036;stroke-width:1.0;"/><path d="M347.0188,561.9344 Q346.4406,562.2313 345.8,562.3719 Q345.1594,562.5281 344.4563,562.5281 Q341.9563,562.5281 340.6281,560.8875 Q339.3156,559.2313 339.3156,556.1063 Q339.3156,552.9813 340.6281,551.325 Q341.9563,549.6688 344.4563,549.6688 Q345.1594,549.6688 345.8,549.825 Q346.4563,549.9813 347.0188,550.2781 L347.0188,552.9969 Q346.3938,552.4188 345.8,552.1531 Q345.2063,551.8719 344.5813,551.8719 Q343.2375,551.8719 342.55,552.95 Q341.8625,554.0125 341.8625,556.1063 Q341.8625,558.2 342.55,559.2781 Q343.2375,560.3406 344.5813,560.3406 Q345.2063,560.3406 345.8,560.075 Q346.3938,559.7938 347.0188,559.2156 L347.0188,561.9344 Z " fill="#000000"/><text fill="#000000" font-family="sans-serif" font-size="14" lengthAdjust="spacing" textLength="40.0313" x="372.6208" y="552.992">Order</text><text fill="#000000" font-family="sans-serif" font-size="14" lengthAdjust="spacing" textLength="69.1729" x="358.05" y="569.2889">Controller</text></g><!--class OrderCancelAddController--><g id="elem_OrderCancelAddController"><rect codeLine="65" fill="#FEFECE" height="42.5938" id="OrderCancelAddController" style="stroke:#A80036;stroke-width:1.0;" width="146.8096" x="538.01" y="690.9969"/><ellipse cx="553.01" cy="712.2938" fill="#ADD1B2" rx="11" ry="11" style="stroke:#A80036;stroke-width:1.0;"/><path d="M555.9788,717.9344 Q555.4006,718.2313 554.76,718.3719 Q554.1194,718.5281 553.4163,718.5281 Q550.9163,718.5281 549.5881,716.8875 Q548.2756,715.2313 548.2756,712.1063 Q548.2756,708.9813 549.5881,707.325 Q550.9163,705.6688 553.4163,705.6688 Q554.1194,705.6688 554.76,705.825 Q555.4163,705.9813 555.9788,706.2781 L555.9788,708.9969 Q555.3538,708.4188 554.76,708.1531 Q554.1663,707.8719 553.5413,707.8719 Q552.1975,707.8719 551.51,708.95 Q550.8225,710.0125 550.8225,712.1063 Q550.8225,714.2 551.51,715.2781 Q552.1975,716.3406 553.5413,716.3406 Q554.1663,716.3406 554.76,716.075 Q555.3538,715.7938 555.9788,715.2156 L555.9788,717.9344 Z " fill="#000000"/><text fill="#000000" font-family="sans-serif" font-size="14" lengthAdjust="spacing" textLength="114.8096" x="567.01" y="708.992">OrderCancelAdd</text><text fill="#000000" font-family="sans-serif" font-size="14" lengthAdjust="spacing" textLength="69.1729" x="589.8284" y="725.2889">Controller</text></g><!--class OrderHistoryController--><g id="elem_OrderHistoryController"><rect codeLine="66" fill="#FEFECE" height="42.5938" id="OrderHistoryController" style="stroke:#A80036;stroke-width:1.0;" width="121.8379" x="550.5" y="612.9969"/><ellipse cx="565.5" cy="634.2938" fill="#ADD1B2" rx="11" ry="11" style="stroke:#A80036;stroke-width:1.0;"/><path d="M568.4688,639.9344 Q567.8906,640.2313 567.25,640.3719 Q566.6094,640.5281 565.9063,640.5281 Q563.4063,640.5281 562.0781,638.8875 Q560.7656,637.2313 560.7656,634.1063 Q560.7656,630.9813 562.0781,629.325 Q563.4063,627.6688 565.9063,627.6688 Q566.6094,627.6688 567.25,627.825 Q567.9063,627.9813 568.4688,628.2781 L568.4688,630.9969 Q567.8438,630.4188 567.25,630.1531 Q566.6563,629.8719 566.0313,629.8719 Q564.6875,629.8719 564,630.95 Q563.3125,632.0125 563.3125,634.1063 Q563.3125,636.2 564,637.2781 Q564.6875,638.3406 566.0313,638.3406 Q566.6563,638.3406 567.25,638.075 Q567.8438,637.7938 568.4688,637.2156 L568.4688,639.9344 Z " fill="#000000"/><text fill="#000000" font-family="sans-serif" font-size="14" lengthAdjust="spacing" textLength="89.8379" x="579.5" y="630.992">OrderHistory</text><text fill="#000000" font-family="sans-serif" font-size="14" lengthAdjust="spacing" textLength="69.1729" x="589.8325" y="647.2889">Controller</text></g><!--class LogoutController--><g id="elem_LogoutController"><rect codeLine="67" fill="#FEFECE" height="42.5938" id="LogoutController" style="stroke:#A80036;stroke-width:1.0;" width="101.1729" x="560.83" y="534.9969"/><ellipse cx="575.83" cy="556.2938" fill="#ADD1B2" rx="11" ry="11" style="stroke:#A80036;stroke-width:1.0;"/><path d="M578.7988,561.9344 Q578.2206,562.2313 577.58,562.3719 Q576.9394,562.5281 576.2363,562.5281 Q573.7363,562.5281 572.4081,560.8875 Q571.0956,559.2313 571.0956,556.1063 Q571.0956,552.9813 572.4081,551.325 Q573.7363,549.6688 576.2363,549.6688 Q576.9394,549.6688 577.58,549.825 Q578.2363,549.9813 578.7988,550.2781 L578.7988,552.9969 Q578.1738,552.4188 577.58,552.1531 Q576.9863,551.8719 576.3613,551.8719 Q575.0175,551.8719 574.33,552.95 Q573.6425,554.0125 573.6425,556.1063 Q573.6425,558.2 574.33,559.2781 Q575.0175,560.3406 576.3613,560.3406 Q576.9863,560.3406 577.58,560.075 Q578.1738,559.7938 578.7988,559.2156 L578.7988,561.9344 Z " fill="#000000"/><text fill="#000000" font-family="sans-serif" font-size="14" lengthAdjust="spacing" textLength="48.1797" x="600.3266" y="552.992">Logout</text><text fill="#000000" font-family="sans-serif" font-size="14" lengthAdjust="spacing" textLength="69.1729" x="589.83" y="569.2889">Controller</text></g><!--class LoginForm--><g id="elem_LoginForm"><rect codeLine="72" fill="#FEFECE" height="42.5938" id="LoginForm" style="stroke:#A80036;stroke-width:1.0;" width="70.0146" x="831.23" y="1930.9969"/><ellipse cx="846.23" cy="1952.2938" fill="#ADD1B2" rx="11" ry="11" style="stroke:#A80036;stroke-width:1.0;"/><path d="M849.1988,1957.9344 Q848.6206,1958.2313 847.98,1958.3719 Q847.3394,1958.5281 846.6363,1958.5281 Q844.1363,1958.5281 842.8081,1956.8875 Q841.4956,1955.2313 841.4956,1952.1063 Q841.4956,1948.9813 842.8081,1947.325 Q844.1363,1945.6688 846.6363,1945.6688 Q847.3394,1945.6688 847.98,1945.825 Q848.6363,1945.9813 849.1988,1946.2781 L849.1988,1948.9969 Q848.5738,1948.4188 847.98,1948.1531 Q847.3863,1947.8719 846.7613,1947.8719 Q845.4175,1947.8719 844.73,1948.95 Q844.0425,1950.0125 844.0425,1952.1063 Q844.0425,1954.2 844.73,1955.2781 Q845.4175,1956.3406 846.7613,1956.3406 Q847.3863,1956.3406 847.98,1956.075 Q848.5738,1955.7938 849.1988,1955.2156 L849.1988,1957.9344 Z " fill="#000000"/><text fill="#000000" font-family="sans-serif" font-size="14" lengthAdjust="spacing" textLength="38.0146" x="860.23" y="1948.992">Login</text><text fill="#000000" font-family="sans-serif" font-size="14" lengthAdjust="spacing" textLength="36.0117" x="861.2315" y="1965.2889">Form</text></g><!--class ProductForm--><g id="elem_ProductForm"><rect codeLine="73" fill="#FEFECE" height="42.5938" id="ProductForm" style="stroke:#A80036;stroke-width:1.0;" width="85.71" x="823.38" y="1852.9969"/><ellipse cx="838.38" cy="1874.2938" fill="#ADD1B2" rx="11" ry="11" style="stroke:#A80036;stroke-width:1.0;"/><path d="M841.3488,1879.9344 Q840.7706,1880.2313 840.13,1880.3719 Q839.4894,1880.5281 838.7863,1880.5281 Q836.2863,1880.5281 834.9581,1878.8875 Q833.6456,1877.2313 833.6456,1874.1063 Q833.6456,1870.9813 834.9581,1869.325 Q836.2863,1867.6688 838.7863,1867.6688 Q839.4894,1867.6688 840.13,1867.825 Q840.7863,1867.9813 841.3488,1868.2781 L841.3488,1870.9969 Q840.7238,1870.4188 840.13,1870.1531 Q839.5363,1869.8719 838.9113,1869.8719 Q837.5675,1869.8719 836.88,1870.95 Q836.1925,1872.0125 836.1925,1874.1063 Q836.1925,1876.2 836.88,1877.2781 Q837.5675,1878.3406 838.9113,1878.3406 Q839.5363,1878.3406 840.13,1878.075 Q840.7238,1877.7938 841.3488,1877.2156 L841.3488,1879.9344 Z " fill="#000000"/><text fill="#000000" font-family="sans-serif" font-size="14" lengthAdjust="spacing" textLength="53.71" x="852.38" y="1870.992">Product</text><text fill="#000000" font-family="sans-serif" font-size="14" lengthAdjust="spacing" textLength="36.0117" x="861.2291" y="1887.2889">Form</text></g><!--class ProductFormValidator--><g id="elem_ProductFormValidator"><rect codeLine="74" fill="#FEFECE" height="42.5938" id="ProductFormValidator" style="stroke:#A80036;stroke-width:1.0;" width="131.2236" x="800.63" y="1774.9969"/><ellipse cx="815.63" cy="1796.2938" fill="#ADD1B2" rx="11" ry="11" style="stroke:#A80036;stroke-width:1.0;"/><path d="M818.5988,1801.9344 Q818.0206,1802.2313 817.38,1802.3719 Q816.7394,1802.5281 816.0363,1802.5281 Q813.5363,1802.5281 812.2081,1800.8875 Q810.8956,1799.2313 810.8956,1796.1063 Q810.8956,1792.9813 812.2081,1791.325 Q813.5363,1789.6688 816.0363,1789.6688 Q816.7394,1789.6688 817.38,1789.825 Q818.0363,1789.9813 818.5988,1790.2781 L818.5988,1792.9969 Q817.9738,1792.4188 817.38,1792.1531 Q816.7863,1791.8719 816.1613,1791.8719 Q814.8175,1791.8719 814.13,1792.95 Q813.4425,1794.0125 813.4425,1796.1063 Q813.4425,1798.2 814.13,1799.2781 Q814.8175,1800.3406 816.1613,1800.3406 Q816.7863,1800.3406 817.38,1800.075 Q817.9738,1799.7938 818.5988,1799.2156 L818.5988,1801.9344 Z " fill="#000000"/><text fill="#000000" font-family="sans-serif" font-size="14" lengthAdjust="spacing" textLength="53.71" x="852.3868" y="1792.992">Product</text><text fill="#000000" font-family="sans-serif" font-size="14" lengthAdjust="spacing" textLength="99.2236" x="829.63" y="1809.2889">FormValidator</text></g><!--class ProductCategoryForm--><g id="elem_ProductCategoryForm"><rect codeLine="75" fill="#FEFECE" height="42.5938" id="ProductCategoryForm" style="stroke:#A80036;stroke-width:1.0;" width="149.6602" x="1015.6" y="1930.9969"/><ellipse cx="1030.6" cy="1952.2938" fill="#ADD1B2" rx="11" ry="11" style="stroke:#A80036;stroke-width:1.0;"/><path d="M1033.5688,1957.9344 Q1032.9906,1958.2313 1032.35,1958.3719 Q1031.7094,1958.5281 1031.0063,1958.5281 Q1028.5063,1958.5281 1027.1781,1956.8875 Q1025.8656,1955.2313 1025.8656,1952.1063 Q1025.8656,1948.9813 1027.1781,1947.325 Q1028.5063,1945.6688 1031.0063,1945.6688 Q1031.7094,1945.6688 1032.35,1945.825 Q1033.0063,1945.9813 1033.5688,1946.2781 L1033.5688,1948.9969 Q1032.9438,1948.4188 1032.35,1948.1531 Q1031.7563,1947.8719 1031.1313,1947.8719 Q1029.7875,1947.8719 1029.1,1948.95 Q1028.4125,1950.0125 1028.4125,1952.1063 Q1028.4125,1954.2 1029.1,1955.2781 Q1029.7875,1956.3406 1031.1313,1956.3406 Q1031.7563,1956.3406 1032.35,1956.075 Q1032.9438,1955.7938 1033.5688,1955.2156 L1033.5688,1957.9344 Z " fill="#000000"/><text fill="#000000" font-family="sans-serif" font-size="14" lengthAdjust="spacing" textLength="117.6602" x="1044.6" y="1948.992">ProductCategory</text><text fill="#000000" font-family="sans-serif" font-size="14" lengthAdjust="spacing" textLength="36.0117" x="1085.4242" y="1965.2889">Form</text></g><!--class EmployeeAccountForm--><g id="elem_EmployeeAccountForm"><rect codeLine="76" fill="#FEFECE" height="42.5938" id="EmployeeAccountForm" style="stroke:#A80036;stroke-width:1.0;" width="158.1094" x="1011.37" y="1852.9969"/><ellipse cx="1026.37" cy="1874.2938" fill="#ADD1B2" rx="11" ry="11" style="stroke:#A80036;stroke-width:1.0;"/><path d="M1029.3388,1879.9344 Q1028.7606,1880.2313 1028.12,1880.3719 Q1027.4794,1880.5281 1026.7763,1880.5281 Q1024.2763,1880.5281 1022.9481,1878.8875 Q1021.6356,1877.2313 1021.6356,1874.1063 Q1021.6356,1870.9813 1022.9481,1869.325 Q1024.2763,1867.6688 1026.7763,1867.6688 Q1027.4794,1867.6688 1028.12,1867.825 Q1028.7763,1867.9813 1029.3388,1868.2781 L1029.3388,1870.9969 Q1028.7138,1870.4188 1028.12,1870.1531 Q1027.5263,1869.8719 1026.9013,1869.8719 Q1025.5575,1869.8719 1024.87,1870.95 Q1024.1825,1872.0125 1024.1825,1874.1063 Q1024.1825,1876.2 1024.87,1877.2781 Q1025.5575,1878.3406 1026.9013,1878.3406 Q1027.5263,1878.3406 1028.12,1878.075 Q1028.7138,1877.7938 1029.3388,1877.2156 L1029.3388,1879.9344 Z " fill="#000000"/><text fill="#000000" font-family="sans-serif" font-size="14" lengthAdjust="spacing" textLength="126.1094" x="1040.37" y="1870.992">EmployeeAccount</text><text fill="#000000" font-family="sans-serif" font-size="14" lengthAdjust="spacing" textLength="36.0117" x="1085.4188" y="1887.2889">Form</text></g><!--class CustomerResigterForm--><g id="elem_CustomerResigterForm"><rect codeLine="77" fill="#FEFECE" height="42.5938" id="CustomerResigterForm" style="stroke:#A80036;stroke-width:1.0;" width="158.2734" x="1011.29" y="1774.9969"/><ellipse cx="1026.29" cy="1796.2938" fill="#ADD1B2" rx="11" ry="11" style="stroke:#A80036;stroke-width:1.0;"/><path d="M1029.2588,1801.9344 Q1028.6806,1802.2313 1028.04,1802.3719 Q1027.3994,1802.5281 1026.6963,1802.5281 Q1024.1963,1802.5281 1022.8681,1800.8875 Q1021.5556,1799.2313 1021.5556,1796.1063 Q1021.5556,1792.9813 1022.8681,1791.325 Q1024.1963,1789.6688 1026.6963,1789.6688 Q1027.3994,1789.6688 1028.04,1789.825 Q1028.6963,1789.9813 1029.2588,1790.2781 L1029.2588,1792.9969 Q1028.6338,1792.4188 1028.04,1792.1531 Q1027.4463,1791.8719 1026.8213,1791.8719 Q1025.4775,1791.8719 1024.79,1792.95 Q1024.1025,1794.0125 1024.1025,1796.1063 Q1024.1025,1798.2 1024.79,1799.2781 Q1025.4775,1800.3406 1026.8213,1800.3406 Q1027.4463,1800.3406 1028.04,1800.075 Q1028.6338,1799.7938 1029.2588,1799.2156 L1029.2588,1801.9344 Z " fill="#000000"/><text fill="#000000" font-family="sans-serif" font-size="14" lengthAdjust="spacing" textLength="126.2734" x="1040.29" y="1792.992">CustomerResigter</text><text fill="#000000" font-family="sans-serif" font-size="14" lengthAdjust="spacing" textLength="36.0117" x="1085.4209" y="1809.2889">Form</text></g><!--class CustomerLoginForm--><g id="elem_CustomerLoginForm"><rect codeLine="78" fill="#FEFECE" height="42.5938" id="CustomerLoginForm" style="stroke:#A80036;stroke-width:1.0;" width="138.0186" x="1232.52" y="1930.9969"/><ellipse cx="1247.52" cy="1952.2938" fill="#ADD1B2" rx="11" ry="11" style="stroke:#A80036;stroke-width:1.0;"/><path d="M1250.4888,1957.9344 Q1249.9106,1958.2313 1249.27,1958.3719 Q1248.6294,1958.5281 1247.9263,1958.5281 Q1245.4263,1958.5281 1244.0981,1956.8875 Q1242.7856,1955.2313 1242.7856,1952.1063 Q1242.7856,1948.9813 1244.0981,1947.325 Q1245.4263,1945.6688 1247.9263,1945.6688 Q1248.6294,1945.6688 1249.27,1945.825 Q1249.9263,1945.9813 1250.4888,1946.2781 L1250.4888,1948.9969 Q1249.8638,1948.4188 1249.27,1948.1531 Q1248.6763,1947.8719 1248.0513,1947.8719 Q1246.7075,1947.8719 1246.02,1948.95 Q1245.3325,1950.0125 1245.3325,1952.1063 Q1245.3325,1954.2 1246.02,1955.2781 Q1246.7075,1956.3406 1248.0513,1956.3406 Q1248.6763,1956.3406 1249.27,1956.075 Q1249.8638,1955.7938 1250.4888,1955.2156 L1250.4888,1957.9344 Z " fill="#000000"/><text fill="#000000" font-family="sans-serif" font-size="14" lengthAdjust="spacing" textLength="106.0186" x="1261.52" y="1948.992">CustomerLogin</text><text fill="#000000" font-family="sans-serif" font-size="14" lengthAdjust="spacing" textLength="36.0117" x="1296.5234" y="1965.2889">Form</text></g><!--class OrderForm--><g id="elem_OrderForm"><rect codeLine="79" fill="#FEFECE" height="42.5938" id="OrderForm" style="stroke:#A80036;stroke-width:1.0;" width="72.0313" x="1265.51" y="1852.9969"/><ellipse cx="1280.51" cy="1874.2938" fill="#ADD1B2" rx="11" ry="11" style="stroke:#A80036;stroke-width:1.0;"/><path d="M1283.4788,1879.9344 Q1282.9006,1880.2313 1282.26,1880.3719 Q1281.6194,1880.5281 1280.9163,1880.5281 Q1278.4163,1880.5281 1277.0881,1878.8875 Q1275.7756,1877.2313 1275.7756,1874.1063 Q1275.7756,1870.9813 1277.0881,1869.325 Q1278.4163,1867.6688 1280.9163,1867.6688 Q1281.6194,1867.6688 1282.26,1867.825 Q1282.9163,1867.9813 1283.4788,1868.2781 L1283.4788,1870.9969 Q1282.8538,1870.4188 1282.26,1870.1531 Q1281.6663,1869.8719 1281.0413,1869.8719 Q1279.6975,1869.8719 1279.01,1870.95 Q1278.3225,1872.0125 1278.3225,1874.1063 Q1278.3225,1876.2 1279.01,1877.2781 Q1279.6975,1878.3406 1281.0413,1878.3406 Q1281.6663,1878.3406 1282.26,1878.075 Q1282.8538,1877.7938 1283.4788,1877.2156 L1283.4788,1879.9344 Z " fill="#000000"/><text fill="#000000" font-family="sans-serif" font-size="14" lengthAdjust="spacing" textLength="40.0313" x="1294.51" y="1870.992">Order</text><text fill="#000000" font-family="sans-serif" font-size="14" lengthAdjust="spacing" textLength="36.0117" x="1296.5198" y="1887.2889">Form</text></g><!--class EmployeeAccountUserDetails--><g id="elem_EmployeeAccountUserDetails"><rect codeLine="83" fill="#FEFECE" height="42.5938" id="EmployeeAccountUserDetails" style="stroke:#A80036;stroke-width:1.0;" width="158.1094" x="787.19" y="1657.9969"/><ellipse cx="802.19" cy="1679.2938" fill="#ADD1B2" rx="11" ry="11" style="stroke:#A80036;stroke-width:1.0;"/><path d="M805.1588,1684.9344 Q804.5806,1685.2313 803.94,1685.3719 Q803.2994,1685.5281 802.5963,1685.5281 Q800.0963,1685.5281 798.7681,1683.8875 Q797.4556,1682.2313 797.4556,1679.1063 Q797.4556,1675.9813 798.7681,1674.325 Q800.0963,1672.6688 802.5963,1672.6688 Q803.2994,1672.6688 803.94,1672.825 Q804.5963,1672.9813 805.1588,1673.2781 L805.1588,1675.9969 Q804.5338,1675.4188 803.94,1675.1531 Q803.3463,1674.8719 802.7213,1674.8719 Q801.3775,1674.8719 800.69,1675.95 Q800.0025,1677.0125 800.0025,1679.1063 Q800.0025,1681.2 800.69,1682.2781 Q801.3775,1683.3406 802.7213,1683.3406 Q803.3463,1683.3406 803.94,1683.075 Q804.5338,1682.7938 805.1588,1682.2156 L805.1588,1684.9344 Z " fill="#000000"/><text fill="#000000" font-family="sans-serif" font-size="14" lengthAdjust="spacing" textLength="126.1094" x="816.19" y="1675.992">EmployeeAccount</text><text fill="#000000" font-family="sans-serif" font-size="14" lengthAdjust="spacing" textLength="80.4453" x="839.022" y="1692.2889">UserDetails</text></g><!--class EmployeeAccountUserDetailsService--><g id="elem_EmployeeAccountUserDetailsService"><rect codeLine="84" fill="#FEFECE" height="42.5938" id="EmployeeAccountUserDetailsService" style="stroke:#A80036;stroke-width:1.0;" width="164.1865" x="784.15" y="1579.9969"/><ellipse cx="799.15" cy="1601.2938" fill="#ADD1B2" rx="11" ry="11" style="stroke:#A80036;stroke-width:1.0;"/><path d="M802.1188,1606.9344 Q801.5406,1607.2313 800.9,1607.3719 Q800.2594,1607.5281 799.5563,1607.5281 Q797.0563,1607.5281 795.7281,1605.8875 Q794.4156,1604.2313 794.4156,1601.1063 Q794.4156,1597.9813 795.7281,1596.325 Q797.0563,1594.6688 799.5563,1594.6688 Q800.2594,1594.6688 800.9,1594.825 Q801.5563,1594.9813 802.1188,1595.2781 L802.1188,1597.9969 Q801.4938,1597.4188 800.9,1597.1531 Q800.3063,1596.8719 799.6813,1596.8719 Q798.3375,1596.8719 797.65,1597.95 Q796.9625,1599.0125 796.9625,1601.1063 Q796.9625,1603.2 797.65,1604.2781 Q798.3375,1605.3406 799.6813,1605.3406 Q800.3063,1605.3406 800.9,1605.075 Q801.4938,1604.7938 802.1188,1604.2156 L802.1188,1606.9344 Z " fill="#000000"/><text fill="#000000" font-family="sans-serif" font-size="14" lengthAdjust="spacing" textLength="126.1094" x="816.1886" y="1597.992">EmployeeAccount</text><text fill="#000000" font-family="sans-serif" font-size="14" lengthAdjust="spacing" textLength="132.1865" x="813.15" y="1614.2889">UserDetailsService</text></g><!--class EmployeeAccountSecurityConfig--><g id="elem_EmployeeAccountSecurityConfig"><rect codeLine="85" fill="#FEFECE" height="42.5938" id="EmployeeAccountSecurityConfig" style="stroke:#A80036;stroke-width:1.0;" width="158.1094" x="787.19" y="1501.9969"/><ellipse cx="802.19" cy="1523.2938" fill="#ADD1B2" rx="11" ry="11" style="stroke:#A80036;stroke-width:1.0;"/><path d="M805.1588,1528.9344 Q804.5806,1529.2313 803.94,1529.3719 Q803.2994,1529.5281 802.5963,1529.5281 Q800.0963,1529.5281 798.7681,1527.8875 Q797.4556,1526.2313 797.4556,1523.1063 Q797.4556,1519.9813 798.7681,1518.325 Q800.0963,1516.6688 802.5963,1516.6688 Q803.2994,1516.6688 803.94,1516.825 Q804.5963,1516.9813 805.1588,1517.2781 L805.1588,1519.9969 Q804.5338,1519.4188 803.94,1519.1531 Q803.3463,1518.8719 802.7213,1518.8719 Q801.3775,1518.8719 800.69,1519.95 Q800.0025,1521.0125 800.0025,1523.1063 Q800.0025,1525.2 800.69,1526.2781 Q801.3775,1527.3406 802.7213,1527.3406 Q803.3463,1527.3406 803.94,1527.075 Q804.5338,1526.7938 805.1588,1526.2156 L805.1588,1528.9344 Z " fill="#000000"/><text fill="#000000" font-family="sans-serif" font-size="14" lengthAdjust="spacing" textLength="126.1094" x="816.19" y="1519.992">EmployeeAccount</text><text fill="#000000" font-family="sans-serif" font-size="14" lengthAdjust="spacing" textLength="102.4092" x="828.0401" y="1536.2889">SecurityConfig</text></g><!--class CustomerUserDetails--><g id="elem_CustomerUserDetails"><rect codeLine="86" fill="#FEFECE" height="42.5938" id="CustomerUserDetails" style="stroke:#A80036;stroke-width:1.0;" width="112.4453" x="1034.2" y="1657.9969"/><ellipse cx="1049.2" cy="1679.2938" fill="#ADD1B2" rx="11" ry="11" style="stroke:#A80036;stroke-width:1.0;"/><path d="M1052.1688,1684.9344 Q1051.5906,1685.2313 1050.95,1685.3719 Q1050.3094,1685.5281 1049.6063,1685.5281 Q1047.1063,1685.5281 1045.7781,1683.8875 Q1044.4656,1682.2313 1044.4656,1679.1063 Q1044.4656,1675.9813 1045.7781,1674.325 Q1047.1063,1672.6688 1049.6063,1672.6688 Q1050.3094,1672.6688 1050.95,1672.825 Q1051.6063,1672.9813 1052.1688,1673.2781 L1052.1688,1675.9969 Q1051.5438,1675.4188 1050.95,1675.1531 Q1050.3563,1674.8719 1049.7313,1674.8719 Q1048.3875,1674.8719 1047.7,1675.95 Q1047.0125,1677.0125 1047.0125,1679.1063 Q1047.0125,1681.2 1047.7,1682.2781 Q1048.3875,1683.3406 1049.7313,1683.3406 Q1050.3563,1683.3406 1050.95,1683.075 Q1051.5438,1682.7938 1052.1688,1682.2156 L1052.1688,1684.9344 Z " fill="#000000"/><text fill="#000000" font-family="sans-serif" font-size="14" lengthAdjust="spacing" textLength="68.0039" x="1069.4207" y="1675.992">Customer</text><text fill="#000000" font-family="sans-serif" font-size="14" lengthAdjust="spacing" textLength="80.4453" x="1063.2" y="1692.2889">UserDetails</text></g><!--class CustomerUserDetailsService--><g id="elem_CustomerUserDetailsService"><rect codeLine="87" fill="#FEFECE" height="42.5938" id="CustomerUserDetailsService" style="stroke:#A80036;stroke-width:1.0;" width="164.1865" x="1008.33" y="1579.9969"/><ellipse cx="1023.33" cy="1601.2938" fill="#ADD1B2" rx="11" ry="11" style="stroke:#A80036;stroke-width:1.0;"/><path d="M1026.2988,1606.9344 Q1025.7206,1607.2313 1025.08,1607.3719 Q1024.4394,1607.5281 1023.7363,1607.5281 Q1021.2363,1607.5281 1019.9081,1605.8875 Q1018.5956,1604.2313 1018.5956,1601.1063 Q1018.5956,1597.9813 1019.9081,1596.325 Q1021.2363,1594.6688 1023.7363,1594.6688 Q1024.4394,1594.6688 1025.08,1594.825 Q1025.7363,1594.9813 1026.2988,1595.2781 L1026.2988,1597.9969 Q1025.6738,1597.4188 1025.08,1597.1531 Q1024.4863,1596.8719 1023.8613,1596.8719 Q1022.5175,1596.8719 1021.83,1597.95 Q1021.1425,1599.0125 1021.1425,1601.1063 Q1021.1425,1603.2 1021.83,1604.2781 Q1022.5175,1605.3406 1023.8613,1605.3406 Q1024.4863,1605.3406 1025.08,1605.075 Q1025.6738,1604.7938 1026.2988,1604.2156 L1026.2988,1606.9344 Z " fill="#000000"/><text fill="#000000" font-family="sans-serif" font-size="14" lengthAdjust="spacing" textLength="68.0039" x="1069.4213" y="1597.992">Customer</text><text fill="#000000" font-family="sans-serif" font-size="14" lengthAdjust="spacing" textLength="132.1865" x="1037.33" y="1614.2889">UserDetailsService</text></g><!--class CustomerSecurityConfig--><g id="elem_CustomerSecurityConfig"><rect codeLine="88" fill="#FEFECE" height="42.5938" id="CustomerSecurityConfig" style="stroke:#A80036;stroke-width:1.0;" width="134.4092" x="1023.22" y="1501.9969"/><ellipse cx="1038.22" cy="1523.2938" fill="#ADD1B2" rx="11" ry="11" style="stroke:#A80036;stroke-width:1.0;"/><path d="M1041.1888,1528.9344 Q1040.6106,1529.2313 1039.97,1529.3719 Q1039.3294,1529.5281 1038.6263,1529.5281 Q1036.1263,1529.5281 1034.7981,1527.8875 Q1033.4856,1526.2313 1033.4856,1523.1063 Q1033.4856,1519.9813 1034.7981,1518.325 Q1036.1263,1516.6688 1038.6263,1516.6688 Q1039.3294,1516.6688 1039.97,1516.825 Q1040.6263,1516.9813 1041.1888,1517.2781 L1041.1888,1519.9969 Q1040.5638,1519.4188 1039.97,1519.1531 Q1039.3763,1518.8719 1038.7513,1518.8719 Q1037.4075,1518.8719 1036.72,1519.95 Q1036.0325,1521.0125 1036.0325,1523.1063 Q1036.0325,1525.2 1036.72,1526.2781 Q1037.4075,1527.3406 1038.7513,1527.3406 Q1039.3763,1527.3406 1039.97,1527.075 Q1040.5638,1526.7938 1041.1888,1526.2156 L1041.1888,1528.9344 Z " fill="#000000"/><text fill="#000000" font-family="sans-serif" font-size="14" lengthAdjust="spacing" textLength="68.0039" x="1069.4226" y="1519.992">Customer</text><text fill="#000000" font-family="sans-serif" font-size="14" lengthAdjust="spacing" textLength="102.4092" x="1052.22" y="1536.2889">SecurityConfig</text></g><!--class AppAdvice--><g id="elem_AppAdvice"><rect codeLine="92" fill="#FEFECE" height="32" id="AppAdvice" style="stroke:#A80036;stroke-width:1.0;" width="106.2998" x="105.99" y="335.2969"/><ellipse cx="120.99" cy="351.2969" fill="#ADD1B2" rx="11" ry="11" style="stroke:#A80036;stroke-width:1.0;"/><path d="M123.9588,356.9375 Q123.3806,357.2344 122.74,357.375 Q122.0994,357.5313 121.3963,357.5313 Q118.8963,357.5313 117.5681,355.8906 Q116.2556,354.2344 116.2556,351.1094 Q116.2556,347.9844 117.5681,346.3281 Q118.8963,344.6719 121.3963,344.6719 Q122.0994,344.6719 122.74,344.8281 Q123.3963,344.9844 123.9588,345.2813 L123.9588,348 Q123.3338,347.4219 122.74,347.1563 Q122.1463,346.875 121.5213,346.875 Q120.1775,346.875 119.49,347.9531 Q118.8025,349.0156 118.8025,351.1094 Q118.8025,353.2031 119.49,354.2813 Q120.1775,355.3438 121.5213,355.3438 Q122.1463,355.3438 122.74,355.0781 Q123.3338,354.7969 123.9588,354.2188 L123.9588,356.9375 Z " fill="#000000"/><text fill="#000000" font-family="sans-serif" font-size="14" lengthAdjust="spacing" textLength="74.2998" x="134.99" y="356.1436">AppAdvice</text></g><!--class BusinessException--><g id="elem_BusinessException"><rect codeLine="96" fill="#FEFECE" height="32" id="BusinessException" style="stroke:#A80036;stroke-width:1.0;" width="162.8809" x="77.7" y="228.2969"/><ellipse cx="92.7" cy="244.2969" fill="#ADD1B2" rx="11" ry="11" style="stroke:#A80036;stroke-width:1.0;"/><path d="M95.6688,249.9375 Q95.0906,250.2344 94.45,250.375 Q93.8094,250.5313 93.1063,250.5313 Q90.6063,250.5313 89.2781,248.8906 Q87.9656,247.2344 87.9656,244.1094 Q87.9656,240.9844 89.2781,239.3281 Q90.6063,237.6719 93.1063,237.6719 Q93.8094,237.6719 94.45,237.8281 Q95.1063,237.9844 95.6688,238.2813 L95.6688,241 Q95.0438,240.4219 94.45,240.1563 Q93.8563,239.875 93.2313,239.875 Q91.8875,239.875 91.2,240.9531 Q90.5125,242.0156 90.5125,244.1094 Q90.5125,246.2031 91.2,247.2813 Q91.8875,248.3438 93.2313,248.3438 Q93.8563,248.3438 94.45,248.0781 Q95.0438,247.7969 95.6688,247.2188 L95.6688,249.9375 Z " fill="#000000"/><text fill="#000000" font-family="sans-serif" font-size="14" lengthAdjust="spacing" textLength="130.8809" x="106.7" y="249.1436">BusinessException</text></g><!--class ApplicationConfig--><g id="elem_ApplicationConfig"><rect codeLine="100" fill="#FEFECE" height="32" id="ApplicationConfig" style="stroke:#A80036;stroke-width:1.0;" width="155.1426" x="81.57" y="121.2969"/><ellipse cx="96.57" cy="137.2969" fill="#ADD1B2" rx="11" ry="11" style="stroke:#A80036;stroke-width:1.0;"/><path d="M99.5388,142.9375 Q98.9606,143.2344 98.32,143.375 Q97.6794,143.5313 96.9763,143.5313 Q94.4763,143.5313 93.1481,141.8906 Q91.8356,140.2344 91.8356,137.1094 Q91.8356,133.9844 93.1481,132.3281 Q94.4763,130.6719 96.9763,130.6719 Q97.6794,130.6719 98.32,130.8281 Q98.9763,130.9844 99.5388,131.2813 L99.5388,134 Q98.9138,133.4219 98.32,133.1563 Q97.7263,132.875 97.1013,132.875 Q95.7575,132.875 95.07,133.9531 Q94.3825,135.0156 94.3825,137.1094 Q94.3825,139.2031 95.07,140.2813 Q95.7575,141.3438 97.1013,141.3438 Q97.7263,141.3438 98.32,141.0781 Q98.9138,140.7969 99.5388,140.2188 L99.5388,142.9375 Z " fill="#000000"/><text fill="#000000" font-family="sans-serif" font-size="14" lengthAdjust="spacing" textLength="123.1426" x="110.57" y="142.1436">ApplicationConfig</text></g><!--reverse link OrderService to OrderServiceImpl--><g id="link_OrderService_OrderServiceImpl"><path codeLine="39" d="M219.49,1204.2969 C253.64,1204.2969 284.44,1204.2969 322.18,1204.2969 " fill="none" id="OrderService-backto-OrderServiceImpl" style="stroke:#A80036;stroke-width:1.0;stroke-dasharray:7.0,7.0;"/><polygon fill="none" points="201.49,1204.2969,219.49,1210.2969,219.49,1198.2969,201.49,1204.2969" style="stroke:#A80036;stroke-width:1.0;"/></g><!--reverse link ProductService to ProductServiceImpl--><g id="link_ProductService_ProductServiceImpl"><path codeLine="40" d="M220.26,1438.2969 C254.37,1438.2969 284.72,1438.2969 322.17,1438.2969 " fill="none" id="ProductService-backto-ProductServiceImpl" style="stroke:#A80036;stroke-width:1.0;stroke-dasharray:7.0,7.0;"/><polygon fill="none" points="202.26,1438.2969,220.26,1444.2969,220.26,1432.2969,202.26,1438.2969" style="stroke:#A80036;stroke-width:1.0;"/></g><!--reverse link CustomerService to CustomerServiceImpl--><g id="link_CustomerService_CustomerServiceImpl"><path codeLine="41" d="M227.44,1126.2969 C260.92,1126.2969 287.28,1126.2969 322.18,1126.2969 " fill="none" id="CustomerService-backto-CustomerServiceImpl" style="stroke:#A80036;stroke-width:1.0;stroke-dasharray:7.0,7.0;"/><polygon fill="none" points="209.44,1126.2969,227.44,1132.2969,227.44,1120.2969,209.44,1126.2969" style="stroke:#A80036;stroke-width:1.0;"/></g><!--reverse link ProductCategoryService to ProductCategoryServiceImpl--><g id="link_ProductCategoryService_ProductCategoryServiceImpl"><path codeLine="42" d="M252.41,1360.2969 C275.05,1360.2969 281.93,1360.2969 304.56,1360.2969 " fill="none" id="ProductCategoryService-backto-ProductCategoryServiceImpl" style="stroke:#A80036;stroke-width:1.0;stroke-dasharray:7.0,7.0;"/><polygon fill="none" points="234.41,1360.2969,252.41,1366.2969,252.41,1354.2969,234.41,1360.2969" style="stroke:#A80036;stroke-width:1.0;"/></g><!--reverse link EmployeeAccountService to EmployeeAccountServiceImpl--><g id="link_EmployeeAccountService_EmployeeAccountServiceImpl"><path codeLine="43" d="M256.4,1282.2969 C276.48,1282.2969 280.09,1282.2969 300.18,1282.2969 " fill="none" id="EmployeeAccountService-backto-EmployeeAccountServiceImpl" style="stroke:#A80036;stroke-width:1.0;stroke-dasharray:7.0,7.0;"/><polygon fill="none" points="238.4,1282.2969,256.4,1288.2969,256.4,1276.2969,238.4,1282.2969" style="stroke:#A80036;stroke-width:1.0;"/></g><!--SRC=[bLZDRjGm43wpJs7rmgbz08GgBTj2aOf0b7BgnNMykrOTEx8Te2ezK1w3UoLE73ZnF1M8ny29OyVntuQzj9bllczcxB5tilAAC22un0kf_skWW3MGMrZnZuHjm1fIZL2yLa1n8CXcgq1514QASBROaWe3N3Vg6jIuliH2BXHH58C_ztT_xxyytFru-FhzuUxNxsy_5mr4Lt23mHxYzS6wfPHXAGymsWDG0enk5a1_h9F03PT4SN5jx8y8KrYi8TByDu9NBL8NxArpwZK6-sZDCLTGuOt6SmeMtwrqfZYwoidqO47Zk6uelyPuYH1lMLnFWCzGoaeKkAjMAbvZ4N4jKE2-5bM2s5jtiOwmWeIckGOB56ud_O6PxZFR6uX2wLOzORBxcO3wFVBjmQAd8Dzc5yctzJL41bFKKCga5ed51uAmAQRxf7hzp3XD-ikO7Cq4YoWlTTe9McSkH1pFI2Ao1SiPH19X9e5CBgFedFWP1M0cevo4ooWjayjew7i_ZzwKYJvrTp5zIYxIU3hzODQQYHUHNCY0E8dgfmEUVZuuo2SuxIJZNEYk8AhnBwMIxez9d5Blf3VJq7TiT70q4MTAS4gnk0aN-GNbbv0UVqAuwRuABzW9P9LsxDSv00V8ILZvI_qNishKzlHVOTPUi9LBeDVjZACfHJlb6y8YNcyj4zt-GO6saS04dIMqhAgSYePcIPmtbTxbd8f1PmaTOOhpGWQT9MIxhb2SvrAM33en9Hcx92HlexPQ2-sLwwjtl8dYQ5ivrt4Ma6IZkfibK0WTvicbctM2pjgMKo9LRZywR8T8gtiQoaH_342PFjpk0RUtpY2k84EOfZP_2i-GEj6Lzb-tAQ41t7bvy5QbRWzjphPUS6UkkQX1T5qEM_rSW-EDr3rbnnVdEbXsEh-7bEWhWOkGvO2TWqeOqoAfsD5CuSW1aYB71ygnGwX43rTrOayHXsPrXFxPEPhz38PJr0etQfVAFvTso9MfLV3W_v4gp7gnruonprIZUtbDDkd9p_V8JrPXjHOfb9aafyQwtONv4rvKqJXPHQK4HnLMqnUFGNtPDClAPUMUKWhOZZYHoBDMakuDtmr1lLXapKnTEk5KMfGWsB6yQYFheAWr5u-z0Gxix-yVsdSjy0Iq4eVueRcxB6PzEs3yFKB325AgSS_MkPXNKiF-1m00]--></g></svg>