<svg xmlns="http://www.w3.org/2000/svg" xmlns:xlink="http://www.w3.org/1999/xlink" contentStyleType="text/css" height="761px" preserveAspectRatio="none" style="width:905px;height:761px;background:#FFFFFF;" version="1.1" viewBox="0 0 905 761" width="905px" zoomAndPan="magnify"><defs/><g><text fill="#000000" font-family="sans-serif" font-size="14" font-weight="bold" lengthAdjust="spacing" textLength="262.212" x="315.0278" y="27.9951">UC002: &#39015;&#23458;&#12525;&#12464;&#12452;&#12531;&#27231;&#33021; &#12471;&#12540;&#12465;&#12531;&#12473;&#22259;</text><rect fill="#FFFFFF" height="529.5234" style="stroke:#A80036;stroke-width:1.0;" width="10" x="23.9999" y="131.5938"/><rect fill="#FFFFFF" height="29.1328" style="stroke:#A80036;stroke-width:1.0;" width="10" x="136" y="152.7266"/><rect fill="#FFFFFF" height="29.1328" style="stroke:#A80036;stroke-width:1.0;" width="10" x="247.5957" y="631.9844"/><rect fill="#FFFFFF" height="391.8594" style="stroke:#A80036;stroke-width:1.0;" width="10" x="357.5166" y="210.9922"/><rect fill="#FFFFFF" height="249.3281" style="stroke:#A80036;stroke-width:1.0;" width="10" x="537.1846" y="240.125"/><rect fill="#FFFFFF" height="87.3984" style="stroke:#A80036;stroke-width:1.0;" width="10" x="688.2861" y="284.3906"/><rect fill="#FFFFFF" height="44.2656" style="stroke:#A80036;stroke-width:1.0;" width="10" x="790.0449" y="400.9219"/><rect fill="#FFFFFF" height="29.1328" style="stroke:#A80036;stroke-width:1.0;" width="10" x="865.2676" y="313.5234"/><line style="stroke:#A80036;stroke-width:1.0;stroke-dasharray:5.0,5.0;" x1="28" x2="28" y1="121.5938" y2="679.1172"/><line style="stroke:#A80036;stroke-width:1.0;stroke-dasharray:5.0,5.0;" x1="140.9907" x2="140.9907" y1="121.5938" y2="679.1172"/><line style="stroke:#A80036;stroke-width:1.0;stroke-dasharray:5.0,5.0;" x1="252.0093" x2="252.0093" y1="121.5938" y2="679.1172"/><line style="stroke:#A80036;stroke-width:1.0;stroke-dasharray:5.0,5.0;" x1="362.1821" x2="362.1821" y1="121.5938" y2="679.1172"/><line style="stroke:#A80036;stroke-width:1.0;stroke-dasharray:5.0,5.0;" x1="542.0913" x2="542.0913" y1="121.5938" y2="679.1172"/><line style="stroke:#A80036;stroke-width:1.0;stroke-dasharray:5.0,5.0;" x1="692.75" x2="692.75" y1="121.5938" y2="679.1172"/><line style="stroke:#A80036;stroke-width:1.0;stroke-dasharray:5.0,5.0;" x1="794.8223" x2="794.8223" y1="121.5938" y2="679.1172"/><line style="stroke:#A80036;stroke-width:1.0;stroke-dasharray:5.0,5.0;" x1="870.2676" x2="870.2676" y1="121.5938" y2="679.1172"/><text fill="#000000" font-family="sans-serif" font-size="14" lengthAdjust="spacing" textLength="41.9998" x="5" y="118.292">&#12518;&#12540;&#12470;</text><ellipse cx="28.9999" cy="52.2969" fill="#FEFECE" rx="8" ry="8" style="stroke:#A80036;stroke-width:2.0;"/><path d="M28.9999,60.2969 L28.9999,87.2969 M15.9999,68.2969 L41.9999,68.2969 M28.9999,87.2969 L15.9999,102.2969 M28.9999,87.2969 L41.9999,102.2969 " fill="none" style="stroke:#A80036;stroke-width:2.0;"/><text fill="#000000" font-family="sans-serif" font-size="14" lengthAdjust="spacing" textLength="41.9998" x="5" y="691.1123">&#12518;&#12540;&#12470;</text><ellipse cx="28.9999" cy="704.4141" fill="#FEFECE" rx="8" ry="8" style="stroke:#A80036;stroke-width:2.0;"/><path d="M28.9999,712.4141 L28.9999,739.4141 M15.9999,720.4141 L41.9999,720.4141 M28.9999,739.4141 L15.9999,754.4141 M28.9999,739.4141 L41.9999,754.4141 " fill="none" style="stroke:#A80036;stroke-width:2.0;"/><rect fill="#FEFECE" height="46.5938" style="stroke:#A80036;stroke-width:1.5;" width="120.0186" x="80.9907" y="74"/><text fill="#000000" font-family="sans-serif" font-size="14" lengthAdjust="spacing" textLength="106.0186" x="87.9907" y="93.9951">CustomerLogin</text><text fill="#000000" font-family="sans-serif" font-size="14" lengthAdjust="spacing" textLength="69.1729" x="106.4136" y="110.292">Controller</text><rect fill="#FEFECE" height="46.5938" style="stroke:#A80036;stroke-width:1.5;" width="120.0186" x="80.9907" y="678.1172"/><text fill="#000000" font-family="sans-serif" font-size="14" lengthAdjust="spacing" textLength="106.0186" x="87.9907" y="698.1123">CustomerLogin</text><text fill="#000000" font-family="sans-serif" font-size="14" lengthAdjust="spacing" textLength="69.1729" x="106.4136" y="714.4092">Controller</text><rect fill="#FEFECE" height="46.5938" style="stroke:#A80036;stroke-width:1.5;" width="83.1729" x="211.0093" y="74"/><text fill="#000000" font-family="sans-serif" font-size="14" lengthAdjust="spacing" textLength="26.0039" x="239.5938" y="93.9951">Top</text><text fill="#000000" font-family="sans-serif" font-size="14" lengthAdjust="spacing" textLength="69.1729" x="218.0093" y="110.292">Controller</text><rect fill="#FEFECE" height="46.5938" style="stroke:#A80036;stroke-width:1.5;" width="83.1729" x="211.0093" y="678.1172"/><text fill="#000000" font-family="sans-serif" font-size="14" lengthAdjust="spacing" textLength="26.0039" x="239.5938" y="698.1123">Top</text><text fill="#000000" font-family="sans-serif" font-size="14" lengthAdjust="spacing" textLength="69.1729" x="218.0093" y="714.4092">Controller</text><rect fill="#FEFECE" height="30.2969" style="stroke:#A80036;stroke-width:1.5;" width="116.6689" x="304.1821" y="90.2969"/><text fill="#000000" font-family="sans-serif" font-size="14" lengthAdjust="spacing" textLength="102.6689" x="311.1821" y="110.292">SpringSecurity</text><rect fill="#FEFECE" height="30.2969" style="stroke:#A80036;stroke-width:1.5;" width="116.6689" x="304.1821" y="678.1172"/><text fill="#000000" font-family="sans-serif" font-size="14" lengthAdjust="spacing" textLength="102.6689" x="311.1821" y="698.1123">SpringSecurity</text><rect fill="#FEFECE" height="46.5938" style="stroke:#A80036;stroke-width:1.5;" width="146.1865" x="469.0913" y="74"/><text fill="#000000" font-family="sans-serif" font-size="14" lengthAdjust="spacing" textLength="68.0039" x="508.1826" y="93.9951">Customer</text><text fill="#000000" font-family="sans-serif" font-size="14" lengthAdjust="spacing" textLength="132.1865" x="476.0913" y="110.292">UserDetailsService</text><rect fill="#FEFECE" height="46.5938" style="stroke:#A80036;stroke-width:1.5;" width="146.1865" x="469.0913" y="678.1172"/><text fill="#000000" font-family="sans-serif" font-size="14" lengthAdjust="spacing" textLength="68.0039" x="508.1826" y="698.1123">Customer</text><text fill="#000000" font-family="sans-serif" font-size="14" lengthAdjust="spacing" textLength="132.1865" x="476.0913" y="714.4092">UserDetailsService</text><rect fill="#FEFECE" height="46.5938" style="stroke:#A80036;stroke-width:1.5;" width="89.0723" x="648.75" y="74"/><text fill="#000000" font-family="sans-serif" font-size="14" lengthAdjust="spacing" textLength="68.0039" x="659.2842" y="93.9951">Customer</text><text fill="#000000" font-family="sans-serif" font-size="14" lengthAdjust="spacing" textLength="75.0723" x="655.75" y="110.292">Repository</text><rect fill="#FEFECE" height="46.5938" style="stroke:#A80036;stroke-width:1.5;" width="89.0723" x="648.75" y="678.1172"/><text fill="#000000" font-family="sans-serif" font-size="14" lengthAdjust="spacing" textLength="68.0039" x="659.2842" y="698.1123">Customer</text><text fill="#000000" font-family="sans-serif" font-size="14" lengthAdjust="spacing" textLength="75.0723" x="655.75" y="714.4092">Repository</text><rect fill="#FEFECE" height="46.5938" style="stroke:#A80036;stroke-width:1.5;" width="94.4453" x="747.8223" y="74"/><text fill="#000000" font-family="sans-serif" font-size="14" lengthAdjust="spacing" textLength="68.0039" x="761.043" y="93.9951">Customer</text><text fill="#000000" font-family="sans-serif" font-size="14" lengthAdjust="spacing" textLength="80.4453" x="754.8223" y="110.292">UserDetails</text><rect fill="#FEFECE" height="46.5938" style="stroke:#A80036;stroke-width:1.5;" width="94.4453" x="747.8223" y="678.1172"/><text fill="#000000" font-family="sans-serif" font-size="14" lengthAdjust="spacing" textLength="68.0039" x="761.043" y="698.1123">Customer</text><text fill="#000000" font-family="sans-serif" font-size="14" lengthAdjust="spacing" textLength="80.4453" x="754.8223" y="714.4092">UserDetails</text><text fill="#000000" font-family="sans-serif" font-size="14" lengthAdjust="spacing" textLength="20.3848" x="857.0752" y="118.292">DB</text><path d="M852.2676,69.2969 C852.2676,59.2969 870.2676,59.2969 870.2676,59.2969 C870.2676,59.2969 888.2676,59.2969 888.2676,69.2969 L888.2676,95.2969 C888.2676,105.2969 870.2676,105.2969 870.2676,105.2969 C870.2676,105.2969 852.2676,105.2969 852.2676,95.2969 L852.2676,69.2969 " fill="#FEFECE" style="stroke:#A80036;stroke-width:1.5;"/><path d="M852.2676,69.2969 C852.2676,79.2969 870.2676,79.2969 870.2676,79.2969 C870.2676,79.2969 888.2676,79.2969 888.2676,69.2969 " fill="none" style="stroke:#A80036;stroke-width:1.5;"/><text fill="#000000" font-family="sans-serif" font-size="14" lengthAdjust="spacing" textLength="20.3848" x="857.0752" y="691.1123">DB</text><path d="M852.2676,704.4141 C852.2676,694.4141 870.2676,694.4141 870.2676,694.4141 C870.2676,694.4141 888.2676,694.4141 888.2676,704.4141 L888.2676,730.4141 C888.2676,740.4141 870.2676,740.4141 870.2676,740.4141 C870.2676,740.4141 852.2676,740.4141 852.2676,730.4141 L852.2676,704.4141 " fill="#FEFECE" style="stroke:#A80036;stroke-width:1.5;"/><path d="M852.2676,704.4141 C852.2676,714.4141 870.2676,714.4141 870.2676,714.4141 C870.2676,714.4141 888.2676,714.4141 888.2676,704.4141 " fill="none" style="stroke:#A80036;stroke-width:1.5;"/><rect fill="#FFFFFF" height="529.5234" style="stroke:#A80036;stroke-width:1.0;" width="10" x="23.9999" y="131.5938"/><rect fill="#FFFFFF" height="29.1328" style="stroke:#A80036;stroke-width:1.0;" width="10" x="136" y="152.7266"/><rect fill="#FFFFFF" height="29.1328" style="stroke:#A80036;stroke-width:1.0;" width="10" x="247.5957" y="631.9844"/><rect fill="#FFFFFF" height="391.8594" style="stroke:#A80036;stroke-width:1.0;" width="10" x="357.5166" y="210.9922"/><rect fill="#FFFFFF" height="249.3281" style="stroke:#A80036;stroke-width:1.0;" width="10" x="537.1846" y="240.125"/><rect fill="#FFFFFF" height="87.3984" style="stroke:#A80036;stroke-width:1.0;" width="10" x="688.2861" y="284.3906"/><rect fill="#FFFFFF" height="44.2656" style="stroke:#A80036;stroke-width:1.0;" width="10" x="790.0449" y="400.9219"/><rect fill="#FFFFFF" height="29.1328" style="stroke:#A80036;stroke-width:1.0;" width="10" x="865.2676" y="313.5234"/><polygon fill="#A80036" points="124,148.7266,134,152.7266,124,156.7266,128,152.7266" style="stroke:#A80036;stroke-width:1.0;"/><line style="stroke:#A80036;stroke-width:1.0;" x1="33.9999" x2="130" y1="152.7266" y2="152.7266"/><text fill="#000000" font-family="sans-serif" font-size="13" lengthAdjust="spacing" textLength="40.6821" x="40.9999" y="147.6606">form()</text><polygon fill="#A80036" points="44.9999,177.8594,34.9999,181.8594,44.9999,185.8594,40.9999,181.8594" style="stroke:#A80036;stroke-width:1.0;"/><line style="stroke:#A80036;stroke-width:1.0;" x1="38.9999" x2="140" y1="181.8594" y2="181.8594"/><text fill="#000000" font-family="sans-serif" font-size="13" lengthAdjust="spacing" textLength="78.0001" x="50.9999" y="176.7935">&#12525;&#12464;&#12452;&#12531;&#30011;&#38754;</text><polygon fill="#A80036" points="345.5166,206.9922,355.5166,210.9922,345.5166,214.9922,349.5166,210.9922" style="stroke:#A80036;stroke-width:1.0;"/><line style="stroke:#A80036;stroke-width:1.0;" x1="33.9999" x2="351.5166" y1="210.9922" y2="210.9922"/><text fill="#000000" font-family="sans-serif" font-size="13" lengthAdjust="spacing" textLength="26" x="40.9999" y="205.9263">&#35469;&#35388;</text><polygon fill="#A80036" points="525.1846,236.125,535.1846,240.125,525.1846,244.125,529.1846,240.125" style="stroke:#A80036;stroke-width:1.0;"/><line style="stroke:#A80036;stroke-width:1.0;" x1="367.5166" x2="531.1846" y1="240.125" y2="240.125"/><text fill="#000000" font-family="sans-serif" font-size="13" lengthAdjust="spacing" textLength="150.668" x="374.5166" y="235.0591">loadUserByUsername()</text><polygon fill="#A80036" points="676.2861,280.3906,686.2861,284.3906,676.2861,288.3906,680.2861,284.3906" style="stroke:#A80036;stroke-width:1.0;"/><line style="stroke:#A80036;stroke-width:1.0;" x1="547.1846" x2="682.2861" y1="284.3906" y2="284.3906"/><text fill="#000000" font-family="sans-serif" font-size="13" lengthAdjust="spacing" textLength="109.2749" x="554.1846" y="264.1919">findByUserName</text><text fill="#000000" font-family="sans-serif" font-size="13" lengthAdjust="spacing" textLength="76.8511" x="554.1846" y="279.3247">(userName)</text><polygon fill="#A80036" points="853.2676,309.5234,863.2676,313.5234,853.2676,317.5234,857.2676,313.5234" style="stroke:#A80036;stroke-width:1.0;"/><line style="stroke:#A80036;stroke-width:1.0;" x1="698.2861" x2="859.2676" y1="313.5234" y2="313.5234"/><text fill="#000000" font-family="sans-serif" font-size="13" lengthAdjust="spacing" textLength="61.9404" x="705.2861" y="308.4575">SELECT&#25991;</text><polygon fill="#A80036" points="709.2861,338.6563,699.2861,342.6563,709.2861,346.6563,705.2861,342.6563" style="stroke:#A80036;stroke-width:1.0;"/><line style="stroke:#A80036;stroke-width:1.0;stroke-dasharray:2.0,2.0;" x1="703.2861" x2="869.2676" y1="342.6563" y2="342.6563"/><text fill="#000000" font-family="sans-serif" font-size="13" lengthAdjust="spacing" textLength="117.1016" x="715.2861" y="337.5903">EmployeeAccount</text><polygon fill="#A80036" points="558.1846,367.7891,548.1846,371.7891,558.1846,375.7891,554.1846,371.7891" style="stroke:#A80036;stroke-width:1.0;"/><line style="stroke:#A80036;stroke-width:1.0;stroke-dasharray:2.0,2.0;" x1="552.1846" x2="692.2861" y1="371.7891" y2="371.7891"/><text fill="#000000" font-family="sans-serif" font-size="13" lengthAdjust="spacing" textLength="117.1016" x="564.1846" y="366.7231">EmployeeAccount</text><polygon fill="#A80036" points="778.0449,396.9219,788.0449,400.9219,778.0449,404.9219,782.0449,400.9219" style="stroke:#A80036;stroke-width:1.0;"/><line style="stroke:#A80036;stroke-width:1.0;" x1="547.1846" x2="784.0449" y1="400.9219" y2="400.9219"/><text fill="#000000" font-family="sans-serif" font-size="13" lengthAdjust="spacing" textLength="26.8696" x="554.1846" y="395.856">new</text><polygon fill="#A80036" points="558.1846,441.1875,548.1846,445.1875,558.1846,449.1875,554.1846,445.1875" style="stroke:#A80036;stroke-width:1.0;"/><line style="stroke:#A80036;stroke-width:1.0;stroke-dasharray:2.0,2.0;" x1="552.1846" x2="794.0449" y1="445.1875" y2="445.1875"/><text fill="#000000" font-family="sans-serif" font-size="13" lengthAdjust="spacing" textLength="117.1016" x="564.1846" y="424.9888">EmployeeAccount</text><text fill="#000000" font-family="sans-serif" font-size="13" lengthAdjust="spacing" textLength="74.6992" x="564.1846" y="440.1216">UserDetails</text><polygon fill="#A80036" points="378.5166,485.4531,368.5166,489.4531,378.5166,493.4531,374.5166,489.4531" style="stroke:#A80036;stroke-width:1.0;"/><line style="stroke:#A80036;stroke-width:1.0;stroke-dasharray:2.0,2.0;" x1="372.5166" x2="541.1846" y1="489.4531" y2="489.4531"/><text fill="#000000" font-family="sans-serif" font-size="13" lengthAdjust="spacing" textLength="117.1016" x="384.5166" y="469.2544">EmployeeAccount</text><text fill="#000000" font-family="sans-serif" font-size="13" lengthAdjust="spacing" textLength="74.6992" x="384.5166" y="484.3872">UserDetails</text><line style="stroke:#A80036;stroke-width:1.0;" x1="367.5166" x2="409.5166" y1="518.5859" y2="518.5859"/><line style="stroke:#A80036;stroke-width:1.0;" x1="409.5166" x2="409.5166" y1="518.5859" y2="531.5859"/><line style="stroke:#A80036;stroke-width:1.0;" x1="368.5166" x2="409.5166" y1="531.5859" y2="531.5859"/><polygon fill="#A80036" points="378.5166,527.5859,368.5166,531.5859,378.5166,535.5859,374.5166,531.5859" style="stroke:#A80036;stroke-width:1.0;"/><text fill="#000000" font-family="sans-serif" font-size="13" lengthAdjust="spacing" textLength="26" x="374.5166" y="513.52">&#35469;&#35388;</text><line style="stroke:#A80036;stroke-width:1.0;" x1="367.5166" x2="409.5166" y1="560.7188" y2="560.7188"/><line style="stroke:#A80036;stroke-width:1.0;" x1="409.5166" x2="409.5166" y1="560.7188" y2="573.7188"/><line style="stroke:#A80036;stroke-width:1.0;" x1="368.5166" x2="409.5166" y1="573.7188" y2="573.7188"/><polygon fill="#A80036" points="378.5166,569.7188,368.5166,573.7188,378.5166,577.7188,374.5166,573.7188" style="stroke:#A80036;stroke-width:1.0;"/><text fill="#000000" font-family="sans-serif" font-size="13" lengthAdjust="spacing" textLength="104.0001" x="374.5166" y="555.6528">&#12475;&#12483;&#12471;&#12519;&#12531;&#12395;&#26684;&#32013;</text><polygon fill="#A80036" points="44.9999,598.8516,34.9999,602.8516,44.9999,606.8516,40.9999,602.8516" style="stroke:#A80036;stroke-width:1.0;"/><line style="stroke:#A80036;stroke-width:1.0;stroke-dasharray:2.0,2.0;" x1="38.9999" x2="361.5166" y1="602.8516" y2="602.8516"/><text fill="#000000" font-family="sans-serif" font-size="13" lengthAdjust="spacing" textLength="104.0001" x="50.9999" y="597.7856">&#12522;&#12480;&#12452;&#12524;&#12463;&#12488;&#35201;&#27714;</text><polygon fill="#A80036" points="235.5957,627.9844,245.5957,631.9844,235.5957,635.9844,239.5957,631.9844" style="stroke:#A80036;stroke-width:1.0;"/><line style="stroke:#A80036;stroke-width:1.0;" x1="33.9999" x2="241.5957" y1="631.9844" y2="631.9844"/><text fill="#000000" font-family="sans-serif" font-size="13" lengthAdjust="spacing" textLength="47.2837" x="40.9999" y="626.9185">menu()</text><polygon fill="#A80036" points="39.9999,657.1172,29.9999,661.1172,39.9999,665.1172,35.9999,661.1172" style="stroke:#A80036;stroke-width:1.0;"/><line style="stroke:#A80036;stroke-width:1.0;stroke-dasharray:2.0,2.0;" x1="33.9999" x2="251.5957" y1="661.1172" y2="661.1172"/><text fill="#000000" font-family="sans-serif" font-size="13" lengthAdjust="spacing" textLength="65.0001" x="45.9999" y="656.0513">&#12488;&#12483;&#12503;&#30011;&#38754;</text><!--SRC=[ZLFFJnGn5BxthsZs126Ru1uvcCYoD-B1XTjUkZCFR9nf9srdoTvaUf0BDwC7OrHYG55GWj4Orh-cOLd-2r-drJYo6YupVT_xllUprO-ue4fg81fF1LCif_eXI-KE5zjqYsNeCTnaG3UxoykT5NhzvkZozC3P4rTzTjLRPy-dxr_Dx0_ggc_EJbnrXf2hlb- -E2SiCLBHbhE7jUThYp9DImtAU_Y86GWMfZKyuGKJXhQwfJOo1xKkjxaOYAuKHiai0rMh4wEoEqt1XYpcqZfDMhzGs58Vab9nCwvP6fBvkGTY4-jQ0yDuflkWHZo1e1ZzK_402gavDXnYApHl4JoC92KfCsp8DD2rLO-aGqByQ6ZxRcYPBYtH5RebLRwmI0A2ha1fe-VFXLmzlRX-UV1RZrq6zUnuV_PkGhpjuL64CybINz7gs7y5om5JU2-IV1SnDHTfODn7na0ibF6uI6eIajDXeFPxwxtknlJP4u98-rUKkinUNcHo370lIMGfJ9J6QkOoOY5b6c8Bs25u_f-aCT-WZrEu1JlE1dytvbLZhhfmrjPt_SXVzDqFqzUJgo_xWVNNIewTVLolvAEhFZcxDplSdPvLZSLsGbivY38kjdCZp9xFQ9_7jP8K6g_d9m00]--></g></svg>