<?xml version="1.0" encoding="us-ascii" standalone="no"?><svg xmlns="http://www.w3.org/2000/svg" xmlns:xlink="http://www.w3.org/1999/xlink" contentStyleType="text/css" height="761px" preserveAspectRatio="none" style="width:911px;height:761px;background:#FFFFFF;" version="1.1" viewBox="0 0 911 761" width="911px" zoomAndPan="magnify"><defs/><g><text fill="#000000" font-family="sans-serif" font-size="14" font-weight="bold" lengthAdjust="spacing" textLength="277" x="310.5" y="27.9951">UC002: &#39015;&#23458;&#12525;&#12464;&#12452;&#12531;&#27231;&#33021; &#12471;&#12540;&#12465;&#12531;&#12473;&#22259;</text><rect fill="#FFFFFF" height="529.5234" style="stroke:#A80036;stroke-width:1.0;" width="10" x="24" y="131.5938"/><rect fill="#FFFFFF" height="29.1328" style="stroke:#A80036;stroke-width:1.0;" width="10" x="136" y="152.7266"/><rect fill="#FFFFFF" height="29.1328" style="stroke:#A80036;stroke-width:1.0;" width="10" x="251" y="631.9844"/><rect fill="#FFFFFF" height="391.8594" style="stroke:#A80036;stroke-width:1.0;" width="10" x="364.5" y="210.9922"/><rect fill="#FFFFFF" height="249.3281" style="stroke:#A80036;stroke-width:1.0;" width="10" x="541.5" y="240.125"/><rect fill="#FFFFFF" height="87.3984" style="stroke:#A80036;stroke-width:1.0;" width="10" x="691.5" y="284.3906"/><rect fill="#FFFFFF" height="44.2656" style="stroke:#A80036;stroke-width:1.0;" width="10" x="795.5" y="400.9219"/><rect fill="#FFFFFF" height="29.1328" style="stroke:#A80036;stroke-width:1.0;" width="10" x="871" y="313.5234"/><line style="stroke:#A80036;stroke-width:1.0;stroke-dasharray:5.0,5.0;" x1="29" x2="29" y1="121.5938" y2="679.1172"/><line style="stroke:#A80036;stroke-width:1.0;stroke-dasharray:5.0,5.0;" x1="140.5" x2="140.5" y1="121.5938" y2="679.1172"/><line style="stroke:#A80036;stroke-width:1.0;stroke-dasharray:5.0,5.0;" x1="255.5" x2="255.5" y1="121.5938" y2="679.1172"/><line style="stroke:#A80036;stroke-width:1.0;stroke-dasharray:5.0,5.0;" x1="369.5" x2="369.5" y1="121.5938" y2="679.1172"/><line style="stroke:#A80036;stroke-width:1.0;stroke-dasharray:5.0,5.0;" x1="546.5" x2="546.5" y1="121.5938" y2="679.1172"/><line style="stroke:#A80036;stroke-width:1.0;stroke-dasharray:5.0,5.0;" x1="696" x2="696" y1="121.5938" y2="679.1172"/><line style="stroke:#A80036;stroke-width:1.0;stroke-dasharray:5.0,5.0;" x1="800" x2="800" y1="121.5938" y2="679.1172"/><line style="stroke:#A80036;stroke-width:1.0;stroke-dasharray:5.0,5.0;" x1="876" x2="876" y1="121.5938" y2="679.1172"/><text fill="#000000" font-family="sans-serif" font-size="14" lengthAdjust="spacing" textLength="42" x="5" y="118.292">&#12518;&#12540;&#12470;</text><ellipse cx="29" cy="52.2969" fill="#FEFECE" rx="8" ry="8" style="stroke:#A80036;stroke-width:2.0;"/><path d="M29,60.2969 L29,87.2969 M16,68.2969 L42,68.2969 M29,87.2969 L16,102.2969 M29,87.2969 L42,102.2969 " fill="none" style="stroke:#A80036;stroke-width:2.0;"/><text fill="#000000" font-family="sans-serif" font-size="14" lengthAdjust="spacing" textLength="42" x="5" y="691.1123">&#12518;&#12540;&#12470;</text><ellipse cx="29" cy="704.4141" fill="#FEFECE" rx="8" ry="8" style="stroke:#A80036;stroke-width:2.0;"/><path d="M29,712.4141 L29,739.4141 M16,720.4141 L42,720.4141 M29,739.4141 L16,754.4141 M29,739.4141 L42,754.4141 " fill="none" style="stroke:#A80036;stroke-width:2.0;"/><rect fill="#FEFECE" height="46.5938" style="stroke:#A80036;stroke-width:1.5;" width="123" x="79.5" y="74"/><text fill="#000000" font-family="sans-serif" font-size="14" lengthAdjust="spacing" textLength="109" x="86.5" y="93.9951">CustomerLogin</text><text fill="#000000" font-family="sans-serif" font-size="14" lengthAdjust="spacing" textLength="73" x="104.5" y="110.292">Controller</text><rect fill="#FEFECE" height="46.5938" style="stroke:#A80036;stroke-width:1.5;" width="123" x="79.5" y="678.1172"/><text fill="#000000" font-family="sans-serif" font-size="14" lengthAdjust="spacing" textLength="109" x="86.5" y="698.1123">CustomerLogin</text><text fill="#000000" font-family="sans-serif" font-size="14" lengthAdjust="spacing" textLength="73" x="104.5" y="714.4092">Controller</text><rect fill="#FEFECE" height="46.5938" style="stroke:#A80036;stroke-width:1.5;" width="87" x="212.5" y="74"/><text fill="#000000" font-family="sans-serif" font-size="14" lengthAdjust="spacing" textLength="28" x="242" y="93.9951">Top</text><text fill="#000000" font-family="sans-serif" font-size="14" lengthAdjust="spacing" textLength="73" x="219.5" y="110.292">Controller</text><rect fill="#FEFECE" height="46.5938" style="stroke:#A80036;stroke-width:1.5;" width="87" x="212.5" y="678.1172"/><text fill="#000000" font-family="sans-serif" font-size="14" lengthAdjust="spacing" textLength="28" x="242" y="698.1123">Top</text><text fill="#000000" font-family="sans-serif" font-size="14" lengthAdjust="spacing" textLength="73" x="219.5" y="714.4092">Controller</text><rect fill="#FEFECE" height="30.2969" style="stroke:#A80036;stroke-width:1.5;" width="120" x="309.5" y="90.2969"/><text fill="#000000" font-family="sans-serif" font-size="14" lengthAdjust="spacing" textLength="106" x="316.5" y="110.292">SpringSecurity</text><rect fill="#FEFECE" height="30.2969" style="stroke:#A80036;stroke-width:1.5;" width="120" x="309.5" y="678.1172"/><text fill="#000000" font-family="sans-serif" font-size="14" lengthAdjust="spacing" textLength="106" x="316.5" y="698.1123">SpringSecurity</text><rect fill="#FEFECE" height="46.5938" style="stroke:#A80036;stroke-width:1.5;" width="148" x="472.5" y="74"/><text fill="#000000" font-family="sans-serif" font-size="14" lengthAdjust="spacing" textLength="70" x="511.5" y="93.9951">Customer</text><text fill="#000000" font-family="sans-serif" font-size="14" lengthAdjust="spacing" textLength="134" x="479.5" y="110.292">UserDetailsService</text><rect fill="#FEFECE" height="46.5938" style="stroke:#A80036;stroke-width:1.5;" width="148" x="472.5" y="678.1172"/><text fill="#000000" font-family="sans-serif" font-size="14" lengthAdjust="spacing" textLength="70" x="511.5" y="698.1123">Customer</text><text fill="#000000" font-family="sans-serif" font-size="14" lengthAdjust="spacing" textLength="134" x="479.5" y="714.4092">UserDetailsService</text><rect fill="#FEFECE" height="46.5938" style="stroke:#A80036;stroke-width:1.5;" width="93" x="650" y="74"/><text fill="#000000" font-family="sans-serif" font-size="14" lengthAdjust="spacing" textLength="70" x="661.5" y="93.9951">Customer</text><text fill="#000000" font-family="sans-serif" font-size="14" lengthAdjust="spacing" textLength="79" x="657" y="110.292">Repository</text><rect fill="#FEFECE" height="46.5938" style="stroke:#A80036;stroke-width:1.5;" width="93" x="650" y="678.1172"/><text fill="#000000" font-family="sans-serif" font-size="14" lengthAdjust="spacing" textLength="70" x="661.5" y="698.1123">Customer</text><text fill="#000000" font-family="sans-serif" font-size="14" lengthAdjust="spacing" textLength="79" x="657" y="714.4092">Repository</text><rect fill="#FEFECE" height="46.5938" style="stroke:#A80036;stroke-width:1.5;" width="95" x="753" y="74"/><text fill="#000000" font-family="sans-serif" font-size="14" lengthAdjust="spacing" textLength="70" x="765.5" y="93.9951">Customer</text><text fill="#000000" font-family="sans-serif" font-size="14" lengthAdjust="spacing" textLength="81" x="760" y="110.292">UserDetails</text><rect fill="#FEFECE" height="46.5938" style="stroke:#A80036;stroke-width:1.5;" width="95" x="753" y="678.1172"/><text fill="#000000" font-family="sans-serif" font-size="14" lengthAdjust="spacing" textLength="70" x="765.5" y="698.1123">Customer</text><text fill="#000000" font-family="sans-serif" font-size="14" lengthAdjust="spacing" textLength="81" x="760" y="714.4092">UserDetails</text><text fill="#000000" font-family="sans-serif" font-size="14" lengthAdjust="spacing" textLength="21" x="862.5" y="118.292">DB</text><path d="M858,69.2969 C858,59.2969 876,59.2969 876,59.2969 C876,59.2969 894,59.2969 894,69.2969 L894,95.2969 C894,105.2969 876,105.2969 876,105.2969 C876,105.2969 858,105.2969 858,95.2969 L858,69.2969 " fill="#FEFECE" style="stroke:#A80036;stroke-width:1.5;"/><path d="M858,69.2969 C858,79.2969 876,79.2969 876,79.2969 C876,79.2969 894,79.2969 894,69.2969 " fill="none" style="stroke:#A80036;stroke-width:1.5;"/><text fill="#000000" font-family="sans-serif" font-size="14" lengthAdjust="spacing" textLength="21" x="862.5" y="691.1123">DB</text><path d="M858,704.4141 C858,694.4141 876,694.4141 876,694.4141 C876,694.4141 894,694.4141 894,704.4141 L894,730.4141 C894,740.4141 876,740.4141 876,740.4141 C876,740.4141 858,740.4141 858,730.4141 L858,704.4141 " fill="#FEFECE" style="stroke:#A80036;stroke-width:1.5;"/><path d="M858,704.4141 C858,714.4141 876,714.4141 876,714.4141 C876,714.4141 894,714.4141 894,704.4141 " fill="none" style="stroke:#A80036;stroke-width:1.5;"/><rect fill="#FFFFFF" height="529.5234" style="stroke:#A80036;stroke-width:1.0;" width="10" x="24" y="131.5938"/><rect fill="#FFFFFF" height="29.1328" style="stroke:#A80036;stroke-width:1.0;" width="10" x="136" y="152.7266"/><rect fill="#FFFFFF" height="29.1328" style="stroke:#A80036;stroke-width:1.0;" width="10" x="251" y="631.9844"/><rect fill="#FFFFFF" height="391.8594" style="stroke:#A80036;stroke-width:1.0;" width="10" x="364.5" y="210.9922"/><rect fill="#FFFFFF" height="249.3281" style="stroke:#A80036;stroke-width:1.0;" width="10" x="541.5" y="240.125"/><rect fill="#FFFFFF" height="87.3984" style="stroke:#A80036;stroke-width:1.0;" width="10" x="691.5" y="284.3906"/><rect fill="#FFFFFF" height="44.2656" style="stroke:#A80036;stroke-width:1.0;" width="10" x="795.5" y="400.9219"/><rect fill="#FFFFFF" height="29.1328" style="stroke:#A80036;stroke-width:1.0;" width="10" x="871" y="313.5234"/><polygon fill="#A80036" points="124,148.7266,134,152.7266,124,156.7266,128,152.7266" style="stroke:#A80036;stroke-width:1.0;"/><line style="stroke:#A80036;stroke-width:1.0;" x1="34" x2="130" y1="152.7266" y2="152.7266"/><text fill="#000000" font-family="sans-serif" font-size="13" lengthAdjust="spacing" textLength="41" x="41" y="147.6606">form()</text><polygon fill="#A80036" points="45,177.8594,35,181.8594,45,185.8594,41,181.8594" style="stroke:#A80036;stroke-width:1.0;"/><line style="stroke:#A80036;stroke-width:1.0;" x1="39" x2="140" y1="181.8594" y2="181.8594"/><text fill="#000000" font-family="sans-serif" font-size="13" lengthAdjust="spacing" textLength="78" x="51" y="176.7935">&#12525;&#12464;&#12452;&#12531;&#30011;&#38754;</text><polygon fill="#A80036" points="352.5,206.9922,362.5,210.9922,352.5,214.9922,356.5,210.9922" style="stroke:#A80036;stroke-width:1.0;"/><line style="stroke:#A80036;stroke-width:1.0;" x1="34" x2="358.5" y1="210.9922" y2="210.9922"/><text fill="#000000" font-family="sans-serif" font-size="13" lengthAdjust="spacing" textLength="26" x="41" y="205.9263">&#35469;&#35388;</text><polygon fill="#A80036" points="529.5,236.125,539.5,240.125,529.5,244.125,533.5,240.125" style="stroke:#A80036;stroke-width:1.0;"/><line style="stroke:#A80036;stroke-width:1.0;" x1="374.5" x2="535.5" y1="240.125" y2="240.125"/><text fill="#000000" font-family="sans-serif" font-size="13" lengthAdjust="spacing" textLength="148" x="381.5" y="235.0591">loadUserByUsername()</text><polygon fill="#A80036" points="679.5,280.3906,689.5,284.3906,679.5,288.3906,683.5,284.3906" style="stroke:#A80036;stroke-width:1.0;"/><line style="stroke:#A80036;stroke-width:1.0;" x1="551.5" x2="685.5" y1="284.3906" y2="284.3906"/><text fill="#000000" font-family="sans-serif" font-size="13" lengthAdjust="spacing" textLength="107" x="558.5" y="264.1919">findByUserName</text><text fill="#000000" font-family="sans-serif" font-size="13" lengthAdjust="spacing" textLength="76" x="558.5" y="279.3247">(userName)</text><polygon fill="#A80036" points="859,309.5234,869,313.5234,859,317.5234,863,313.5234" style="stroke:#A80036;stroke-width:1.0;"/><line style="stroke:#A80036;stroke-width:1.0;" x1="701.5" x2="865" y1="313.5234" y2="313.5234"/><text fill="#000000" font-family="sans-serif" font-size="13" lengthAdjust="spacing" textLength="61" x="708.5" y="308.4575">SELECT&#25991;</text><polygon fill="#A80036" points="712.5,338.6563,702.5,342.6563,712.5,346.6563,708.5,342.6563" style="stroke:#A80036;stroke-width:1.0;"/><line style="stroke:#A80036;stroke-width:1.0;stroke-dasharray:2.0,2.0;" x1="706.5" x2="875" y1="342.6563" y2="342.6563"/><text fill="#000000" font-family="sans-serif" font-size="13" lengthAdjust="spacing" textLength="116" x="718.5" y="337.5903">EmployeeAccount</text><polygon fill="#A80036" points="562.5,367.7891,552.5,371.7891,562.5,375.7891,558.5,371.7891" style="stroke:#A80036;stroke-width:1.0;"/><line style="stroke:#A80036;stroke-width:1.0;stroke-dasharray:2.0,2.0;" x1="556.5" x2="695.5" y1="371.7891" y2="371.7891"/><text fill="#000000" font-family="sans-serif" font-size="13" lengthAdjust="spacing" textLength="116" x="568.5" y="366.7231">EmployeeAccount</text><polygon fill="#A80036" points="783.5,396.9219,793.5,400.9219,783.5,404.9219,787.5,400.9219" style="stroke:#A80036;stroke-width:1.0;"/><line style="stroke:#A80036;stroke-width:1.0;" x1="551.5" x2="789.5" y1="400.9219" y2="400.9219"/><text fill="#000000" font-family="sans-serif" font-size="13" lengthAdjust="spacing" textLength="27" x="558.5" y="395.856">new</text><polygon fill="#A80036" points="562.5,441.1875,552.5,445.1875,562.5,449.1875,558.5,445.1875" style="stroke:#A80036;stroke-width:1.0;"/><line style="stroke:#A80036;stroke-width:1.0;stroke-dasharray:2.0,2.0;" x1="556.5" x2="799.5" y1="445.1875" y2="445.1875"/><text fill="#000000" font-family="sans-serif" font-size="13" lengthAdjust="spacing" textLength="116" x="568.5" y="424.9888">EmployeeAccount</text><text fill="#000000" font-family="sans-serif" font-size="13" lengthAdjust="spacing" textLength="73" x="568.5" y="440.1216">UserDetails</text><polygon fill="#A80036" points="385.5,485.4531,375.5,489.4531,385.5,493.4531,381.5,489.4531" style="stroke:#A80036;stroke-width:1.0;"/><line style="stroke:#A80036;stroke-width:1.0;stroke-dasharray:2.0,2.0;" x1="379.5" x2="545.5" y1="489.4531" y2="489.4531"/><text fill="#000000" font-family="sans-serif" font-size="13" lengthAdjust="spacing" textLength="116" x="391.5" y="469.2544">EmployeeAccount</text><text fill="#000000" font-family="sans-serif" font-size="13" lengthAdjust="spacing" textLength="73" x="391.5" y="484.3872">UserDetails</text><line style="stroke:#A80036;stroke-width:1.0;" x1="374.5" x2="416.5" y1="518.5859" y2="518.5859"/><line style="stroke:#A80036;stroke-width:1.0;" x1="416.5" x2="416.5" y1="518.5859" y2="531.5859"/><line style="stroke:#A80036;stroke-width:1.0;" x1="375.5" x2="416.5" y1="531.5859" y2="531.5859"/><polygon fill="#A80036" points="385.5,527.5859,375.5,531.5859,385.5,535.5859,381.5,531.5859" style="stroke:#A80036;stroke-width:1.0;"/><text fill="#000000" font-family="sans-serif" font-size="13" lengthAdjust="spacing" textLength="26" x="381.5" y="513.52">&#35469;&#35388;</text><line style="stroke:#A80036;stroke-width:1.0;" x1="374.5" x2="416.5" y1="560.7188" y2="560.7188"/><line style="stroke:#A80036;stroke-width:1.0;" x1="416.5" x2="416.5" y1="560.7188" y2="573.7188"/><line style="stroke:#A80036;stroke-width:1.0;" x1="375.5" x2="416.5" y1="573.7188" y2="573.7188"/><polygon fill="#A80036" points="385.5,569.7188,375.5,573.7188,385.5,577.7188,381.5,573.7188" style="stroke:#A80036;stroke-width:1.0;"/><text fill="#000000" font-family="sans-serif" font-size="13" lengthAdjust="spacing" textLength="104" x="381.5" y="555.6528">&#12475;&#12483;&#12471;&#12519;&#12531;&#12395;&#26684;&#32013;</text><polygon fill="#A80036" points="45,598.8516,35,602.8516,45,606.8516,41,602.8516" style="stroke:#A80036;stroke-width:1.0;"/><line style="stroke:#A80036;stroke-width:1.0;stroke-dasharray:2.0,2.0;" x1="39" x2="368.5" y1="602.8516" y2="602.8516"/><text fill="#000000" font-family="sans-serif" font-size="13" lengthAdjust="spacing" textLength="104" x="51" y="597.7856">&#12522;&#12480;&#12452;&#12524;&#12463;&#12488;&#35201;&#27714;</text><polygon fill="#A80036" points="239,627.9844,249,631.9844,239,635.9844,243,631.9844" style="stroke:#A80036;stroke-width:1.0;"/><line style="stroke:#A80036;stroke-width:1.0;" x1="34" x2="245" y1="631.9844" y2="631.9844"/><text fill="#000000" font-family="sans-serif" font-size="13" lengthAdjust="spacing" textLength="47" x="41" y="626.9185">menu()</text><polygon fill="#A80036" points="40,657.1172,30,661.1172,40,665.1172,36,661.1172" style="stroke:#A80036;stroke-width:1.0;"/><line style="stroke:#A80036;stroke-width:1.0;stroke-dasharray:2.0,2.0;" x1="34" x2="255" y1="661.1172" y2="661.1172"/><text fill="#000000" font-family="sans-serif" font-size="13" lengthAdjust="spacing" textLength="65" x="46" y="656.0513">&#12488;&#12483;&#12503;&#30011;&#38754;</text><!--SRC=[ZLFFJnGn5BxthsZs126Ru1uvcCYoD-B1XTjUkZCFR9nf9srdoTvaUf0BDwC7OrHYG55GWj4Orh-cOLd-2r-drJYo6YupVT_xllUprO-ue4fg81fF1LCif_eXI-KE5zjqYsNeCTnaG3UxoykT5NhzvkZozC3P4rTzTjLRPy-dxr_Dx0_ggc_EJbnrXf2hlb- -E2SiCLBHbhE7jUThYp9DImtAU_Y86GWMfZKyuGKJXhQwfJOo1xKkjxaOYAuKHiai0rMh4wEoEqt1XYpcqZfDMhzGs58Vab9nCwvP6fBvkGTY4-jQ0yDuflkWHZo1e1ZzK_402gavDXnYApHl4JoC92KfCsp8DD2rLO-aGqByQ6ZxRcYPBYtH5RebLRwmI0A2ha1fe-VFXLmzlRX-UV1RZrq6zUnuV_PkGhpjuL64CybINz7gs7y5om5JU2-IV1SnDHTfODn7na0ibF6uI6eIajDXeFPxwxtknlJP4u98-rUKkinUNcHo370lIMGfJ9J6QkOoOY5b6c8Bs25u_f-aCT-WZrEu1JlE1dytvbLZhhfmrjPt_SXVzDqFqzUJgo_xWVNNIewTVLolvAEhFZcxDplSdPvLZSLsGbivY38kjdCZp9xFQ9_7jP8K6g_d9m00]--></g></svg>