<svg xmlns="http://www.w3.org/2000/svg" xmlns:xlink="http://www.w3.org/1999/xlink" contentStyleType="text/css" height="1187px" preserveAspectRatio="none" style="width:932px;height:1187px;background:#FFFFFF;" version="1.1" viewBox="0 0 932 1187" width="932px" zoomAndPan="magnify"><defs/><g><text fill="#000000" font-family="sans-serif" font-size="14" font-weight="bold" lengthAdjust="spacing" textLength="234.2122" x="350.3036" y="27.9951">UC003: &#21830;&#21697;&#26908;&#32034;&#27231;&#33021; &#12471;&#12540;&#12465;&#12531;&#12473;&#22259;</text><rect fill="#FFFFFF" height="955.3828" style="stroke:#A80036;stroke-width:1.0;" width="10" x="23.9999" y="131.5938"/><rect fill="#FFFFFF" height="570.6563" style="stroke:#A80036;stroke-width:1.0;" width="10" x="136" y="152.7266"/><rect fill="#FFFFFF" height="292.3281" style="stroke:#A80036;stroke-width:1.0;" width="10" x="136" y="794.6484"/><rect fill="#FFFFFF" height="145.6641" style="stroke:#A80036;stroke-width:1.0;" width="10" x="323.7656" y="221.125"/><rect fill="#FFFFFF" height="145.6641" style="stroke:#A80036;stroke-width:1.0;" width="10" x="433.4507" y="427.0547"/><rect fill="#FFFFFF" height="145.6641" style="stroke:#A80036;stroke-width:1.0;" width="10" x="433.4507" y="847.9141"/><rect fill="#FFFFFF" height="87.3984" style="stroke:#A80036;stroke-width:1.0;" width="10" x="584.6875" y="456.1875"/><rect fill="#FFFFFF" height="87.3984" style="stroke:#A80036;stroke-width:1.0;" width="10" x="584.6875" y="877.0469"/><rect fill="#FFFFFF" height="87.3984" style="stroke:#A80036;stroke-width:1.0;" width="10" x="705.0537" y="250.2578"/><rect fill="#FFFFFF" height="29.1328" style="stroke:#A80036;stroke-width:1.0;" width="10" x="892.8193" y="279.3906"/><rect fill="#FFFFFF" height="29.1328" style="stroke:#A80036;stroke-width:1.0;" width="10" x="892.8193" y="485.3203"/><rect fill="#FFFFFF" height="29.1328" style="stroke:#A80036;stroke-width:1.0;" width="10" x="892.8193" y="906.1797"/><rect fill="none" height="207.0625" style="stroke:#000000;stroke-width:2.0;" width="840.9106" x="84.9087" y="167.7266"/><rect fill="none" height="191.9297" style="stroke:#000000;stroke-width:2.0;" width="840.9106" x="84.9087" y="388.7891"/><rect fill="none" height="191.9297" style="stroke:#000000;stroke-width:2.0;" width="840.9106" x="84.9087" y="809.6484"/><line style="stroke:#A80036;stroke-width:1.0;stroke-dasharray:5.0,5.0;" x1="28" x2="28" y1="121.5938" y2="1104.9766"/><line style="stroke:#A80036;stroke-width:1.0;stroke-dasharray:5.0,5.0;" x1="140.9087" x2="140.9087" y1="121.5938" y2="1104.9766"/><line style="stroke:#A80036;stroke-width:1.0;stroke-dasharray:5.0,5.0;" x1="327.9355" x2="327.9355" y1="121.5938" y2="1104.9766"/><line style="stroke:#A80036;stroke-width:1.0;stroke-dasharray:5.0,5.0;" x1="437.5957" x2="437.5957" y1="121.5938" y2="1104.9766"/><line style="stroke:#A80036;stroke-width:1.0;stroke-dasharray:5.0,5.0;" x1="589.1514" x2="589.1514" y1="121.5938" y2="1104.9766"/><line style="stroke:#A80036;stroke-width:1.0;stroke-dasharray:5.0,5.0;" x1="709.2236" x2="709.2236" y1="121.5938" y2="1104.9766"/><line style="stroke:#A80036;stroke-width:1.0;stroke-dasharray:5.0,5.0;" x1="897.8193" x2="897.8193" y1="121.5938" y2="1104.9766"/><text fill="#000000" font-family="sans-serif" font-size="14" lengthAdjust="spacing" textLength="41.9998" x="5" y="118.292">&#12518;&#12540;&#12470;</text><ellipse cx="28.9999" cy="52.2969" fill="#FEFECE" rx="8" ry="8" style="stroke:#A80036;stroke-width:2.0;"/><path d="M28.9999,60.2969 L28.9999,87.2969 M15.9999,68.2969 L41.9999,68.2969 M28.9999,87.2969 L15.9999,102.2969 M28.9999,87.2969 L41.9999,102.2969 " fill="none" style="stroke:#A80036;stroke-width:2.0;"/><text fill="#000000" font-family="sans-serif" font-size="14" lengthAdjust="spacing" textLength="41.9998" x="5" y="1116.9717">&#12518;&#12540;&#12470;</text><ellipse cx="28.9999" cy="1130.2734" fill="#FEFECE" rx="8" ry="8" style="stroke:#A80036;stroke-width:2.0;"/><path d="M28.9999,1138.2734 L28.9999,1165.2734 M15.9999,1146.2734 L41.9999,1146.2734 M28.9999,1165.2734 L15.9999,1180.2734 M28.9999,1165.2734 L41.9999,1180.2734 " fill="none" style="stroke:#A80036;stroke-width:2.0;"/><rect fill="#FEFECE" height="46.5938" style="stroke:#A80036;stroke-width:1.5;" width="92.1826" x="94.9087" y="74"/><text fill="#000000" font-family="sans-serif" font-size="14" lengthAdjust="spacing" textLength="78.1826" x="101.9087" y="93.9951">ProductList</text><text fill="#000000" font-family="sans-serif" font-size="14" lengthAdjust="spacing" textLength="69.1729" x="106.4136" y="110.292">Controller</text><rect fill="#FEFECE" height="46.5938" style="stroke:#A80036;stroke-width:1.5;" width="92.1826" x="94.9087" y="1103.9766"/><text fill="#000000" font-family="sans-serif" font-size="14" lengthAdjust="spacing" textLength="78.1826" x="101.9087" y="1123.9717">ProductList</text><text fill="#000000" font-family="sans-serif" font-size="14" lengthAdjust="spacing" textLength="69.1729" x="106.4136" y="1140.2686">Controller</text><rect fill="#FEFECE" height="46.5938" style="stroke:#A80036;stroke-width:1.5;" width="131.6602" x="262.9355" y="74"/><text fill="#000000" font-family="sans-serif" font-size="14" lengthAdjust="spacing" textLength="117.6602" x="269.9355" y="93.9951">ProductCategory</text><text fill="#000000" font-family="sans-serif" font-size="14" lengthAdjust="spacing" textLength="51.7412" x="302.895" y="110.292">Service</text><rect fill="#FEFECE" height="46.5938" style="stroke:#A80036;stroke-width:1.5;" width="131.6602" x="262.9355" y="1103.9766"/><text fill="#000000" font-family="sans-serif" font-size="14" lengthAdjust="spacing" textLength="117.6602" x="269.9355" y="1123.9717">ProductCategory</text><text fill="#000000" font-family="sans-serif" font-size="14" lengthAdjust="spacing" textLength="51.7412" x="302.895" y="1140.2686">Service</text><rect fill="#FEFECE" height="46.5938" style="stroke:#A80036;stroke-width:1.5;" width="67.71" x="404.5957" y="74"/><text fill="#000000" font-family="sans-serif" font-size="14" lengthAdjust="spacing" textLength="53.71" x="411.5957" y="93.9951">Product</text><text fill="#000000" font-family="sans-serif" font-size="14" lengthAdjust="spacing" textLength="51.7412" x="412.5801" y="110.292">Service</text><rect fill="#FEFECE" height="46.5938" style="stroke:#A80036;stroke-width:1.5;" width="67.71" x="404.5957" y="1103.9766"/><text fill="#000000" font-family="sans-serif" font-size="14" lengthAdjust="spacing" textLength="53.71" x="411.5957" y="1123.9717">Product</text><text fill="#000000" font-family="sans-serif" font-size="14" lengthAdjust="spacing" textLength="51.7412" x="412.5801" y="1140.2686">Service</text><rect fill="#FEFECE" height="46.5938" style="stroke:#A80036;stroke-width:1.5;" width="89.0723" x="545.1514" y="74"/><text fill="#000000" font-family="sans-serif" font-size="14" lengthAdjust="spacing" textLength="53.71" x="562.8325" y="93.9951">Product</text><text fill="#000000" font-family="sans-serif" font-size="14" lengthAdjust="spacing" textLength="75.0723" x="552.1514" y="110.292">Repository</text><rect fill="#FEFECE" height="46.5938" style="stroke:#A80036;stroke-width:1.5;" width="89.0723" x="545.1514" y="1103.9766"/><text fill="#000000" font-family="sans-serif" font-size="14" lengthAdjust="spacing" textLength="53.71" x="562.8325" y="1123.9717">Product</text><text fill="#000000" font-family="sans-serif" font-size="14" lengthAdjust="spacing" textLength="75.0723" x="552.1514" y="1140.2686">Repository</text><rect fill="#FEFECE" height="46.5938" style="stroke:#A80036;stroke-width:1.5;" width="131.6602" x="644.2236" y="74"/><text fill="#000000" font-family="sans-serif" font-size="14" lengthAdjust="spacing" textLength="117.6602" x="651.2236" y="93.9951">ProductCategory</text><text fill="#000000" font-family="sans-serif" font-size="14" lengthAdjust="spacing" textLength="75.0723" x="672.5176" y="110.292">Repository</text><rect fill="#FEFECE" height="46.5938" style="stroke:#A80036;stroke-width:1.5;" width="131.6602" x="644.2236" y="1103.9766"/><text fill="#000000" font-family="sans-serif" font-size="14" lengthAdjust="spacing" textLength="117.6602" x="651.2236" y="1123.9717">ProductCategory</text><text fill="#000000" font-family="sans-serif" font-size="14" lengthAdjust="spacing" textLength="75.0723" x="672.5176" y="1140.2686">Repository</text><text fill="#000000" font-family="sans-serif" font-size="14" lengthAdjust="spacing" textLength="20.3848" x="884.627" y="118.292">DB</text><path d="M879.8193,69.2969 C879.8193,59.2969 897.8193,59.2969 897.8193,59.2969 C897.8193,59.2969 915.8193,59.2969 915.8193,69.2969 L915.8193,95.2969 C915.8193,105.2969 897.8193,105.2969 897.8193,105.2969 C897.8193,105.2969 879.8193,105.2969 879.8193,95.2969 L879.8193,69.2969 " fill="#FEFECE" style="stroke:#A80036;stroke-width:1.5;"/><path d="M879.8193,69.2969 C879.8193,79.2969 897.8193,79.2969 897.8193,79.2969 C897.8193,79.2969 915.8193,79.2969 915.8193,69.2969 " fill="none" style="stroke:#A80036;stroke-width:1.5;"/><text fill="#000000" font-family="sans-serif" font-size="14" lengthAdjust="spacing" textLength="20.3848" x="884.627" y="1116.9717">DB</text><path d="M879.8193,1130.2734 C879.8193,1120.2734 897.8193,1120.2734 897.8193,1120.2734 C897.8193,1120.2734 915.8193,1120.2734 915.8193,1130.2734 L915.8193,1156.2734 C915.8193,1166.2734 897.8193,1166.2734 897.8193,1166.2734 C897.8193,1166.2734 879.8193,1166.2734 879.8193,1156.2734 L879.8193,1130.2734 " fill="#FEFECE" style="stroke:#A80036;stroke-width:1.5;"/><path d="M879.8193,1130.2734 C879.8193,1140.2734 897.8193,1140.2734 897.8193,1140.2734 C897.8193,1140.2734 915.8193,1140.2734 915.8193,1130.2734 " fill="none" style="stroke:#A80036;stroke-width:1.5;"/><rect fill="#FFFFFF" height="955.3828" style="stroke:#A80036;stroke-width:1.0;" width="10" x="23.9999" y="131.5938"/><rect fill="#FFFFFF" height="570.6563" style="stroke:#A80036;stroke-width:1.0;" width="10" x="136" y="152.7266"/><rect fill="#FFFFFF" height="292.3281" style="stroke:#A80036;stroke-width:1.0;" width="10" x="136" y="794.6484"/><rect fill="#FFFFFF" height="145.6641" style="stroke:#A80036;stroke-width:1.0;" width="10" x="323.7656" y="221.125"/><rect fill="#FFFFFF" height="145.6641" style="stroke:#A80036;stroke-width:1.0;" width="10" x="433.4507" y="427.0547"/><rect fill="#FFFFFF" height="145.6641" style="stroke:#A80036;stroke-width:1.0;" width="10" x="433.4507" y="847.9141"/><rect fill="#FFFFFF" height="87.3984" style="stroke:#A80036;stroke-width:1.0;" width="10" x="584.6875" y="456.1875"/><rect fill="#FFFFFF" height="87.3984" style="stroke:#A80036;stroke-width:1.0;" width="10" x="584.6875" y="877.0469"/><rect fill="#FFFFFF" height="87.3984" style="stroke:#A80036;stroke-width:1.0;" width="10" x="705.0537" y="250.2578"/><rect fill="#FFFFFF" height="29.1328" style="stroke:#A80036;stroke-width:1.0;" width="10" x="892.8193" y="279.3906"/><rect fill="#FFFFFF" height="29.1328" style="stroke:#A80036;stroke-width:1.0;" width="10" x="892.8193" y="485.3203"/><rect fill="#FFFFFF" height="29.1328" style="stroke:#A80036;stroke-width:1.0;" width="10" x="892.8193" y="906.1797"/><polygon fill="#A80036" points="124,148.7266,134,152.7266,124,156.7266,128,152.7266" style="stroke:#A80036;stroke-width:1.0;"/><line style="stroke:#A80036;stroke-width:1.0;" x1="33.9999" x2="130" y1="152.7266" y2="152.7266"/><text fill="#000000" font-family="sans-serif" font-size="13" lengthAdjust="spacing" textLength="29.2373" x="40.9999" y="147.6606">list()</text><path d="M84.9087,167.7266 L311.9089,167.7266 L311.9089,189.9922 L301.9089,199.9922 L84.9087,199.9922 L84.9087,167.7266 " fill="#EEEEEE" style="stroke:#000000;stroke-width:1.0;"/><rect fill="none" height="207.0625" style="stroke:#000000;stroke-width:2.0;" width="840.9106" x="84.9087" y="167.7266"/><text fill="#000000" font-family="sans-serif" font-size="13" font-weight="bold" lengthAdjust="spacing" textLength="143.0002" x="99.9087" y="180.7935">&#21830;&#21697;&#12459;&#12486;&#12468;&#12522;&#12522;&#12473;&#12488;&#21462;&#24471;</text><text fill="#000000" font-family="sans-serif" font-size="13" font-weight="bold" lengthAdjust="spacing" textLength="182.0002" x="99.9087" y="195.9263">&#65288;&#26908;&#32034;&#12503;&#12523;&#12480;&#12454;&#12531;&#34920;&#31034;&#12398;&#12383;&#12417;&#65289;</text><polygon fill="#A80036" points="311.7656,217.125,321.7656,221.125,311.7656,225.125,315.7656,221.125" style="stroke:#A80036;stroke-width:1.0;"/><line style="stroke:#A80036;stroke-width:1.0;" x1="146" x2="317.7656" y1="221.125" y2="221.125"/><text fill="#000000" font-family="sans-serif" font-size="13" lengthAdjust="spacing" textLength="50.9399" x="153" y="216.0591">findAll()</text><polygon fill="#A80036" points="693.0537,246.2578,703.0537,250.2578,693.0537,254.2578,697.0537,250.2578" style="stroke:#A80036;stroke-width:1.0;"/><line style="stroke:#A80036;stroke-width:1.0;" x1="333.7656" x2="699.0537" y1="250.2578" y2="250.2578"/><text fill="#000000" font-family="sans-serif" font-size="13" lengthAdjust="spacing" textLength="50.9399" x="340.7656" y="245.1919">findAll()</text><polygon fill="#A80036" points="880.8193,275.3906,890.8193,279.3906,880.8193,283.3906,884.8193,279.3906" style="stroke:#A80036;stroke-width:1.0;"/><line style="stroke:#A80036;stroke-width:1.0;" x1="715.0537" x2="886.8193" y1="279.3906" y2="279.3906"/><text fill="#000000" font-family="sans-serif" font-size="13" lengthAdjust="spacing" textLength="61.9404" x="722.0537" y="274.3247">SELECT&#25991;</text><polygon fill="#A80036" points="726.0537,304.5234,716.0537,308.5234,726.0537,312.5234,722.0537,308.5234" style="stroke:#A80036;stroke-width:1.0;"/><line style="stroke:#A80036;stroke-width:1.0;stroke-dasharray:2.0,2.0;" x1="720.0537" x2="896.8193" y1="308.5234" y2="308.5234"/><text fill="#000000" font-family="sans-serif" font-size="13" lengthAdjust="spacing" textLength="153.7656" x="732.0537" y="303.4575">List&lt;ProductCategory&gt;</text><polygon fill="#A80036" points="344.7656,333.6563,334.7656,337.6563,344.7656,341.6563,340.7656,337.6563" style="stroke:#A80036;stroke-width:1.0;"/><line style="stroke:#A80036;stroke-width:1.0;stroke-dasharray:2.0,2.0;" x1="338.7656" x2="709.0537" y1="337.6563" y2="337.6563"/><text fill="#000000" font-family="sans-serif" font-size="13" lengthAdjust="spacing" textLength="153.7656" x="350.7656" y="332.5903">List&lt;ProductCategory&gt;</text><polygon fill="#A80036" points="157,362.7891,147,366.7891,157,370.7891,153,366.7891" style="stroke:#A80036;stroke-width:1.0;"/><line style="stroke:#A80036;stroke-width:1.0;stroke-dasharray:2.0,2.0;" x1="151" x2="327.7656" y1="366.7891" y2="366.7891"/><text fill="#000000" font-family="sans-serif" font-size="13" lengthAdjust="spacing" textLength="153.7656" x="163" y="361.7231">List&lt;ProductCategory&gt;</text><path d="M84.9087,388.7891 L233.9088,388.7891 L233.9088,395.9219 L223.9088,405.9219 L84.9087,405.9219 L84.9087,388.7891 " fill="#EEEEEE" style="stroke:#000000;stroke-width:1.0;"/><rect fill="none" height="191.9297" style="stroke:#000000;stroke-width:2.0;" width="840.9106" x="84.9087" y="388.7891"/><text fill="#000000" font-family="sans-serif" font-size="13" font-weight="bold" lengthAdjust="spacing" textLength="104.0001" x="99.9087" y="401.856">&#20840;&#21830;&#21697;&#12522;&#12473;&#12488;&#21462;&#24471;</text><polygon fill="#A80036" points="421.4507,423.0547,431.4507,427.0547,421.4507,431.0547,425.4507,427.0547" style="stroke:#A80036;stroke-width:1.0;"/><line style="stroke:#A80036;stroke-width:1.0;" x1="146" x2="427.4507" y1="427.0547" y2="427.0547"/><text fill="#000000" font-family="sans-serif" font-size="13" lengthAdjust="spacing" textLength="50.9399" x="153" y="421.9888">findAll()</text><polygon fill="#A80036" points="572.6875,452.1875,582.6875,456.1875,572.6875,460.1875,576.6875,456.1875" style="stroke:#A80036;stroke-width:1.0;"/><line style="stroke:#A80036;stroke-width:1.0;" x1="443.4507" x2="578.6875" y1="456.1875" y2="456.1875"/><text fill="#000000" font-family="sans-serif" font-size="13" lengthAdjust="spacing" textLength="50.9399" x="450.4507" y="451.1216">findAll()</text><polygon fill="#A80036" points="880.8193,481.3203,890.8193,485.3203,880.8193,489.3203,884.8193,485.3203" style="stroke:#A80036;stroke-width:1.0;"/><line style="stroke:#A80036;stroke-width:1.0;" x1="594.6875" x2="886.8193" y1="485.3203" y2="485.3203"/><text fill="#000000" font-family="sans-serif" font-size="13" lengthAdjust="spacing" textLength="61.9404" x="601.6875" y="480.2544">SELECT&#25991;</text><polygon fill="#A80036" points="605.6875,510.4531,595.6875,514.4531,605.6875,518.4531,601.6875,514.4531" style="stroke:#A80036;stroke-width:1.0;"/><line style="stroke:#A80036;stroke-width:1.0;stroke-dasharray:2.0,2.0;" x1="599.6875" x2="896.8193" y1="514.4531" y2="514.4531"/><text fill="#000000" font-family="sans-serif" font-size="13" lengthAdjust="spacing" textLength="94.3833" x="611.6875" y="509.3872">List&lt;Product&gt;</text><polygon fill="#A80036" points="454.4507,539.5859,444.4507,543.5859,454.4507,547.5859,450.4507,543.5859" style="stroke:#A80036;stroke-width:1.0;"/><line style="stroke:#A80036;stroke-width:1.0;stroke-dasharray:2.0,2.0;" x1="448.4507" x2="588.6875" y1="543.5859" y2="543.5859"/><text fill="#000000" font-family="sans-serif" font-size="13" lengthAdjust="spacing" textLength="94.3833" x="460.4507" y="538.52">List&lt;Product&gt;</text><polygon fill="#A80036" points="157,568.7188,147,572.7188,157,576.7188,153,572.7188" style="stroke:#A80036;stroke-width:1.0;"/><line style="stroke:#A80036;stroke-width:1.0;stroke-dasharray:2.0,2.0;" x1="151" x2="437.4507" y1="572.7188" y2="572.7188"/><text fill="#000000" font-family="sans-serif" font-size="13" lengthAdjust="spacing" textLength="94.3833" x="163" y="567.6528">List&lt;Product&gt;</text><line style="stroke:#A80036;stroke-width:1.0;" x1="146" x2="188" y1="623.9844" y2="623.9844"/><line style="stroke:#A80036;stroke-width:1.0;" x1="188" x2="188" y1="623.9844" y2="636.9844"/><line style="stroke:#A80036;stroke-width:1.0;" x1="147" x2="188" y1="636.9844" y2="636.9844"/><polygon fill="#A80036" points="157,632.9844,147,636.9844,157,640.9844,153,636.9844" style="stroke:#A80036;stroke-width:1.0;"/><text fill="#000000" font-family="sans-serif" font-size="13" lengthAdjust="spacing" textLength="65.3301" x="153" y="603.7856">Mpdel&#36861;&#21152;</text><text fill="#000000" font-family="sans-serif" font-size="13" lengthAdjust="spacing" textLength="117.0001" x="153" y="618.9185">&#65288;&#12459;&#12486;&#12468;&#12522;&#12522;&#12473;&#12488;&#65289;</text><line style="stroke:#A80036;stroke-width:1.0;" x1="146" x2="188" y1="681.25" y2="681.25"/><line style="stroke:#A80036;stroke-width:1.0;" x1="188" x2="188" y1="681.25" y2="694.25"/><line style="stroke:#A80036;stroke-width:1.0;" x1="147" x2="188" y1="694.25" y2="694.25"/><polygon fill="#A80036" points="157,690.25,147,694.25,157,698.25,153,694.25" style="stroke:#A80036;stroke-width:1.0;"/><text fill="#000000" font-family="sans-serif" font-size="13" lengthAdjust="spacing" textLength="65.0318" x="153" y="661.0513">Model&#36861;&#21152;</text><text fill="#000000" font-family="sans-serif" font-size="13" lengthAdjust="spacing" textLength="91.0001" x="153" y="676.1841">&#65288;&#21830;&#21697;&#12522;&#12473;&#12488;&#65289;</text><polygon fill="#A80036" points="44.9999,719.3828,34.9999,723.3828,44.9999,727.3828,40.9999,723.3828" style="stroke:#A80036;stroke-width:1.0;"/><line style="stroke:#A80036;stroke-width:1.0;" x1="38.9999" x2="140" y1="723.3828" y2="723.3828"/><text fill="#000000" font-family="sans-serif" font-size="13" lengthAdjust="spacing" textLength="78.0001" x="50.9999" y="718.3169">&#26908;&#32034;&#21021;&#26399;&#30011;&#38754;</text><line style="stroke:#A80036;stroke-width:1.0;" x1="33.9999" x2="75.9999" y1="752.5156" y2="752.5156"/><line style="stroke:#A80036;stroke-width:1.0;" x1="75.9999" x2="75.9999" y1="752.5156" y2="765.5156"/><line style="stroke:#A80036;stroke-width:1.0;" x1="34.9999" x2="75.9999" y1="765.5156" y2="765.5156"/><polygon fill="#A80036" points="44.9999,761.5156,34.9999,765.5156,44.9999,769.5156,40.9999,765.5156" style="stroke:#A80036;stroke-width:1.0;"/><text fill="#000000" font-family="sans-serif" font-size="13" lengthAdjust="spacing" textLength="78.0001" x="40.9999" y="747.4497">&#12459;&#12486;&#12468;&#12522;&#36984;&#25246;</text><polygon fill="#A80036" points="124,790.6484,134,794.6484,124,798.6484,128,794.6484" style="stroke:#A80036;stroke-width:1.0;"/><line style="stroke:#A80036;stroke-width:1.0;" x1="33.9999" x2="130" y1="794.6484" y2="794.6484"/><text fill="#000000" font-family="sans-serif" font-size="13" lengthAdjust="spacing" textLength="53.6123" x="40.9999" y="789.5825">search()</text><path d="M84.9087,809.6484 L337.9089,809.6484 L337.9089,816.7813 L327.9089,826.7813 L84.9087,826.7813 L84.9087,809.6484 " fill="#EEEEEE" style="stroke:#000000;stroke-width:1.0;"/><rect fill="none" height="191.9297" style="stroke:#000000;stroke-width:2.0;" width="840.9106" x="84.9087" y="809.6484"/><text fill="#000000" font-family="sans-serif" font-size="13" font-weight="bold" lengthAdjust="spacing" textLength="208.0002" x="99.9087" y="822.7153">&#25351;&#23450;&#12375;&#12383;&#12459;&#12486;&#12468;&#12522;&#12398;&#21830;&#21697;&#12522;&#12473;&#12488;&#21462;&#24471;</text><polygon fill="#A80036" points="421.4507,843.9141,431.4507,847.9141,421.4507,851.9141,425.4507,847.9141" style="stroke:#A80036;stroke-width:1.0;"/><line style="stroke:#A80036;stroke-width:1.0;" x1="146" x2="427.4507" y1="847.9141" y2="847.9141"/><text fill="#000000" font-family="sans-serif" font-size="13" lengthAdjust="spacing" textLength="122.2368" x="153" y="842.8481">findbyCategoryId()</text><polygon fill="#A80036" points="572.6875,873.0469,582.6875,877.0469,572.6875,881.0469,576.6875,877.0469" style="stroke:#A80036;stroke-width:1.0;"/><line style="stroke:#A80036;stroke-width:1.0;" x1="443.4507" x2="578.6875" y1="877.0469" y2="877.0469"/><text fill="#000000" font-family="sans-serif" font-size="13" lengthAdjust="spacing" textLength="122.2368" x="450.4507" y="871.981">findbyCategoryId()</text><polygon fill="#A80036" points="880.8193,902.1797,890.8193,906.1797,880.8193,910.1797,884.8193,906.1797" style="stroke:#A80036;stroke-width:1.0;"/><line style="stroke:#A80036;stroke-width:1.0;" x1="594.6875" x2="886.8193" y1="906.1797" y2="906.1797"/><text fill="#000000" font-family="sans-serif" font-size="13" lengthAdjust="spacing" textLength="61.9404" x="601.6875" y="901.1138">SELECT&#25991;</text><polygon fill="#A80036" points="605.6875,931.3125,595.6875,935.3125,605.6875,939.3125,601.6875,935.3125" style="stroke:#A80036;stroke-width:1.0;"/><line style="stroke:#A80036;stroke-width:1.0;stroke-dasharray:2.0,2.0;" x1="599.6875" x2="896.8193" y1="935.3125" y2="935.3125"/><text fill="#000000" font-family="sans-serif" font-size="13" lengthAdjust="spacing" textLength="94.3833" x="611.6875" y="930.2466">List&lt;Product&gt;</text><polygon fill="#A80036" points="454.4507,960.4453,444.4507,964.4453,454.4507,968.4453,450.4507,964.4453" style="stroke:#A80036;stroke-width:1.0;"/><line style="stroke:#A80036;stroke-width:1.0;stroke-dasharray:2.0,2.0;" x1="448.4507" x2="588.6875" y1="964.4453" y2="964.4453"/><text fill="#000000" font-family="sans-serif" font-size="13" lengthAdjust="spacing" textLength="94.3833" x="460.4507" y="959.3794">List&lt;Product&gt;</text><polygon fill="#A80036" points="157,989.5781,147,993.5781,157,997.5781,153,993.5781" style="stroke:#A80036;stroke-width:1.0;"/><line style="stroke:#A80036;stroke-width:1.0;stroke-dasharray:2.0,2.0;" x1="151" x2="437.4507" y1="993.5781" y2="993.5781"/><text fill="#000000" font-family="sans-serif" font-size="13" lengthAdjust="spacing" textLength="94.3833" x="163" y="988.5122">List&lt;Product&gt;</text><line style="stroke:#A80036;stroke-width:1.0;" x1="146" x2="188" y1="1044.8438" y2="1044.8438"/><line style="stroke:#A80036;stroke-width:1.0;" x1="188" x2="188" y1="1044.8438" y2="1057.8438"/><line style="stroke:#A80036;stroke-width:1.0;" x1="147" x2="188" y1="1057.8438" y2="1057.8438"/><polygon fill="#A80036" points="157,1053.8438,147,1057.8438,157,1061.8438,153,1057.8438" style="stroke:#A80036;stroke-width:1.0;"/><text fill="#000000" font-family="sans-serif" font-size="13" lengthAdjust="spacing" textLength="65.0318" x="153" y="1024.645">Model&#36861;&#21152;</text><text fill="#000000" font-family="sans-serif" font-size="13" lengthAdjust="spacing" textLength="104.0001" x="153" y="1039.7778">&#65288;&#36984;&#25246;&#12459;&#12486;&#12468;&#12522;&#65289;</text><path d="M279.0001,1017.0781 L279.0001,1057.0781 L521.0001,1057.0781 L521.0001,1027.0781 L511.0001,1017.0781 L279.0001,1017.0781 " fill="#FBFB77" style="stroke:#A80036;stroke-width:1.0;"/><path d="M511.0001,1017.0781 L511.0001,1027.0781 L521.0001,1027.0781 L511.0001,1017.0781 " fill="#FBFB77" style="stroke:#A80036;stroke-width:1.0;"/><text fill="#000000" font-family="sans-serif" font-size="13" lengthAdjust="spacing" textLength="117.0001" x="285.0001" y="1034.145">&#36984;&#25246;&#12375;&#12383;&#12459;&#12486;&#12468;&#12522;&#12364;</text><text fill="#000000" font-family="sans-serif" font-size="13" lengthAdjust="spacing" textLength="221.0003" x="285.0001" y="1049.2778">&#12475;&#12524;&#12463;&#12488;&#12508;&#12483;&#12463;&#12473;&#12391;&#36984;&#25246;&#12373;&#12428;&#12427;&#12424;&#12358;&#12395;</text><polygon fill="#A80036" points="39.9999,1082.9766,29.9999,1086.9766,39.9999,1090.9766,35.9999,1086.9766" style="stroke:#A80036;stroke-width:1.0;"/><line style="stroke:#A80036;stroke-width:1.0;" x1="33.9999" x2="140" y1="1086.9766" y2="1086.9766"/><text fill="#000000" font-family="sans-serif" font-size="13" lengthAdjust="spacing" textLength="78.0001" x="45.9999" y="1081.9106">&#26908;&#32034;&#32080;&#26524;&#30011;&#38754;</text><!--SRC=[hLLTRz9G6BxlhpZXHir2Cl2E61B5NPZCn3YzuwQqPz1OMt9QCDpPSoB3IQA9RYJAXYwBJcSmXlann_J7l6bXL_iBdhQKjAm5BoGaz9ptUR-UztcByK3H4D4DB1ZygIeIyI4oAgAiFrAqCbeNLMun5LF5w7vXUVbg3jbRJVkbvUntHqTxpiVUc9qYe3-03O5-1JO0Uco_6GYYPEe40Nll6RuZqK0r0nFtNgcB9lPFF9sfI4fLr4oKkaDqkIQPgufX5hM2hfb4LrLCKgwlD3t6-XHunB9E6aLj3PEw8c7FoQXBcLZu1LWs0NONLtL3uPqqF2JXnyo20c9Sie8icc99D31AtRpXNSibGRY4V1BjrexJxOrUdPpjx0akBIYT3pMCbfPG3gcSbSjNX3BHQzN9280U0ci2FGBsoVtIOs0j-_cs_RjJrCw7BJywi0um3dmCbCzYC7vtCDh_1LOVh1vGwtpuL43y4qh7axl4-MdN5Ks-hgeyiuloxhdTQoeEu1iuGYxvvhMLrPN2FMTxmpFps_JKFPtcTdVOrsOup8T31TKiG4ym4Txck61DHW6NJmucT4OfZASbcq1BDg0baqHBvfzeYMaq7muHL960cjZcq-2rBqHR2vrow7PLnkhupwcz-TOJKgpGNENCYw57OynmVD7R5xvRQynMJ7TbzEs5izkTsHNlDuV2PPvPFvtDtSHjCh18fCfqdvpsXjr_3LR7MufGirO_NXlpT55g13gx9VCC2UAOGSrHo29rB5R6VrB5p4HzYiDqkKFLTFvk9qgvOkRG1153Qxke0Jq1zXde5yugi2umvZvpagqFWTyMq3RGPq1RO3N1EboWc8Ws11b7_ch-0W00]--></g></svg>