<?xml version="1.0" encoding="us-ascii" standalone="no"?><svg xmlns="http://www.w3.org/2000/svg" xmlns:xlink="http://www.w3.org/1999/xlink" contentStyleType="text/css" height="1187px" preserveAspectRatio="none" style="width:930px;height:1187px;background:#FFFFFF;" version="1.1" viewBox="0 0 930 1187" width="930px" zoomAndPan="magnify"><defs/><g><text fill="#000000" font-family="sans-serif" font-size="14" font-weight="bold" lengthAdjust="spacing" textLength="247" x="342.75" y="27.9951">UC003: &#21830;&#21697;&#26908;&#32034;&#27231;&#33021; &#12471;&#12540;&#12465;&#12531;&#12473;&#22259;</text><rect fill="#FFFFFF" height="955.3828" style="stroke:#A80036;stroke-width:1.0;" width="10" x="24" y="131.5938"/><rect fill="#FFFFFF" height="570.6563" style="stroke:#A80036;stroke-width:1.0;" width="10" x="136" y="152.7266"/><rect fill="#FFFFFF" height="292.3281" style="stroke:#A80036;stroke-width:1.0;" width="10" x="136" y="794.6484"/><rect fill="#FFFFFF" height="145.6641" style="stroke:#A80036;stroke-width:1.0;" width="10" x="320" y="221.125"/><rect fill="#FFFFFF" height="145.6641" style="stroke:#A80036;stroke-width:1.0;" width="10" x="433" y="427.0547"/><rect fill="#FFFFFF" height="145.6641" style="stroke:#A80036;stroke-width:1.0;" width="10" x="433" y="847.9141"/><rect fill="#FFFFFF" height="87.3984" style="stroke:#A80036;stroke-width:1.0;" width="10" x="582" y="456.1875"/><rect fill="#FFFFFF" height="87.3984" style="stroke:#A80036;stroke-width:1.0;" width="10" x="582" y="877.0469"/><rect fill="#FFFFFF" height="87.3984" style="stroke:#A80036;stroke-width:1.0;" width="10" x="706.5" y="250.2578"/><rect fill="#FFFFFF" height="29.1328" style="stroke:#A80036;stroke-width:1.0;" width="10" x="890.5" y="279.3906"/><rect fill="#FFFFFF" height="29.1328" style="stroke:#A80036;stroke-width:1.0;" width="10" x="890.5" y="485.3203"/><rect fill="#FFFFFF" height="29.1328" style="stroke:#A80036;stroke-width:1.0;" width="10" x="890.5" y="906.1797"/><rect fill="none" height="207.0625" style="stroke:#000000;stroke-width:2.0;" width="840.5" x="83" y="167.7266"/><rect fill="none" height="191.9297" style="stroke:#000000;stroke-width:2.0;" width="840.5" x="83" y="388.7891"/><rect fill="none" height="191.9297" style="stroke:#000000;stroke-width:2.0;" width="840.5" x="83" y="809.6484"/><line style="stroke:#A80036;stroke-width:1.0;stroke-dasharray:5.0,5.0;" x1="29" x2="29" y1="121.5938" y2="1104.9766"/><line style="stroke:#A80036;stroke-width:1.0;stroke-dasharray:5.0,5.0;" x1="141" x2="141" y1="121.5938" y2="1104.9766"/><line style="stroke:#A80036;stroke-width:1.0;stroke-dasharray:5.0,5.0;" x1="325" x2="325" y1="121.5938" y2="1104.9766"/><line style="stroke:#A80036;stroke-width:1.0;stroke-dasharray:5.0,5.0;" x1="438" x2="438" y1="121.5938" y2="1104.9766"/><line style="stroke:#A80036;stroke-width:1.0;stroke-dasharray:5.0,5.0;" x1="586.5" x2="586.5" y1="121.5938" y2="1104.9766"/><line style="stroke:#A80036;stroke-width:1.0;stroke-dasharray:5.0,5.0;" x1="711.5" x2="711.5" y1="121.5938" y2="1104.9766"/><line style="stroke:#A80036;stroke-width:1.0;stroke-dasharray:5.0,5.0;" x1="895.5" x2="895.5" y1="121.5938" y2="1104.9766"/><text fill="#000000" font-family="sans-serif" font-size="14" lengthAdjust="spacing" textLength="42" x="5" y="118.292">&#12518;&#12540;&#12470;</text><ellipse cx="29" cy="52.2969" fill="#FEFECE" rx="8" ry="8" style="stroke:#A80036;stroke-width:2.0;"/><path d="M29,60.2969 L29,87.2969 M16,68.2969 L42,68.2969 M29,87.2969 L16,102.2969 M29,87.2969 L42,102.2969 " fill="none" style="stroke:#A80036;stroke-width:2.0;"/><text fill="#000000" font-family="sans-serif" font-size="14" lengthAdjust="spacing" textLength="42" x="5" y="1116.9717">&#12518;&#12540;&#12470;</text><ellipse cx="29" cy="1130.2734" fill="#FEFECE" rx="8" ry="8" style="stroke:#A80036;stroke-width:2.0;"/><path d="M29,1138.2734 L29,1165.2734 M16,1146.2734 L42,1146.2734 M29,1165.2734 L16,1180.2734 M29,1165.2734 L42,1180.2734 " fill="none" style="stroke:#A80036;stroke-width:2.0;"/><rect fill="#FEFECE" height="46.5938" style="stroke:#A80036;stroke-width:1.5;" width="96" x="93" y="74"/><text fill="#000000" font-family="sans-serif" font-size="14" lengthAdjust="spacing" textLength="82" x="100" y="93.9951">ProductList</text><text fill="#000000" font-family="sans-serif" font-size="14" lengthAdjust="spacing" textLength="73" x="104.5" y="110.292">Controller</text><rect fill="#FEFECE" height="46.5938" style="stroke:#A80036;stroke-width:1.5;" width="96" x="93" y="1103.9766"/><text fill="#000000" font-family="sans-serif" font-size="14" lengthAdjust="spacing" textLength="82" x="100" y="1123.9717">ProductList</text><text fill="#000000" font-family="sans-serif" font-size="14" lengthAdjust="spacing" textLength="73" x="104.5" y="1140.2686">Controller</text><rect fill="#FEFECE" height="46.5938" style="stroke:#A80036;stroke-width:1.5;" width="136" x="257" y="74"/><text fill="#000000" font-family="sans-serif" font-size="14" lengthAdjust="spacing" textLength="122" x="264" y="93.9951">ProductCategory</text><text fill="#000000" font-family="sans-serif" font-size="14" lengthAdjust="spacing" textLength="53" x="298.5" y="110.292">Service</text><rect fill="#FEFECE" height="46.5938" style="stroke:#A80036;stroke-width:1.5;" width="136" x="257" y="1103.9766"/><text fill="#000000" font-family="sans-serif" font-size="14" lengthAdjust="spacing" textLength="122" x="264" y="1123.9717">ProductCategory</text><text fill="#000000" font-family="sans-serif" font-size="14" lengthAdjust="spacing" textLength="53" x="298.5" y="1140.2686">Service</text><rect fill="#FEFECE" height="46.5938" style="stroke:#A80036;stroke-width:1.5;" width="70" x="403" y="74"/><text fill="#000000" font-family="sans-serif" font-size="14" lengthAdjust="spacing" textLength="56" x="410" y="93.9951">Product</text><text fill="#000000" font-family="sans-serif" font-size="14" lengthAdjust="spacing" textLength="53" x="411.5" y="110.292">Service</text><rect fill="#FEFECE" height="46.5938" style="stroke:#A80036;stroke-width:1.5;" width="70" x="403" y="1103.9766"/><text fill="#000000" font-family="sans-serif" font-size="14" lengthAdjust="spacing" textLength="56" x="410" y="1123.9717">Product</text><text fill="#000000" font-family="sans-serif" font-size="14" lengthAdjust="spacing" textLength="53" x="411.5" y="1140.2686">Service</text><rect fill="#FEFECE" height="46.5938" style="stroke:#A80036;stroke-width:1.5;" width="93" x="540.5" y="74"/><text fill="#000000" font-family="sans-serif" font-size="14" lengthAdjust="spacing" textLength="56" x="559" y="93.9951">Product</text><text fill="#000000" font-family="sans-serif" font-size="14" lengthAdjust="spacing" textLength="79" x="547.5" y="110.292">Repository</text><rect fill="#FEFECE" height="46.5938" style="stroke:#A80036;stroke-width:1.5;" width="93" x="540.5" y="1103.9766"/><text fill="#000000" font-family="sans-serif" font-size="14" lengthAdjust="spacing" textLength="56" x="559" y="1123.9717">Product</text><text fill="#000000" font-family="sans-serif" font-size="14" lengthAdjust="spacing" textLength="79" x="547.5" y="1140.2686">Repository</text><rect fill="#FEFECE" height="46.5938" style="stroke:#A80036;stroke-width:1.5;" width="136" x="643.5" y="74"/><text fill="#000000" font-family="sans-serif" font-size="14" lengthAdjust="spacing" textLength="122" x="650.5" y="93.9951">ProductCategory</text><text fill="#000000" font-family="sans-serif" font-size="14" lengthAdjust="spacing" textLength="79" x="672" y="110.292">Repository</text><rect fill="#FEFECE" height="46.5938" style="stroke:#A80036;stroke-width:1.5;" width="136" x="643.5" y="1103.9766"/><text fill="#000000" font-family="sans-serif" font-size="14" lengthAdjust="spacing" textLength="122" x="650.5" y="1123.9717">ProductCategory</text><text fill="#000000" font-family="sans-serif" font-size="14" lengthAdjust="spacing" textLength="79" x="672" y="1140.2686">Repository</text><text fill="#000000" font-family="sans-serif" font-size="14" lengthAdjust="spacing" textLength="21" x="882" y="118.292">DB</text><path d="M877.5,69.2969 C877.5,59.2969 895.5,59.2969 895.5,59.2969 C895.5,59.2969 913.5,59.2969 913.5,69.2969 L913.5,95.2969 C913.5,105.2969 895.5,105.2969 895.5,105.2969 C895.5,105.2969 877.5,105.2969 877.5,95.2969 L877.5,69.2969 " fill="#FEFECE" style="stroke:#A80036;stroke-width:1.5;"/><path d="M877.5,69.2969 C877.5,79.2969 895.5,79.2969 895.5,79.2969 C895.5,79.2969 913.5,79.2969 913.5,69.2969 " fill="none" style="stroke:#A80036;stroke-width:1.5;"/><text fill="#000000" font-family="sans-serif" font-size="14" lengthAdjust="spacing" textLength="21" x="882" y="1116.9717">DB</text><path d="M877.5,1130.2734 C877.5,1120.2734 895.5,1120.2734 895.5,1120.2734 C895.5,1120.2734 913.5,1120.2734 913.5,1130.2734 L913.5,1156.2734 C913.5,1166.2734 895.5,1166.2734 895.5,1166.2734 C895.5,1166.2734 877.5,1166.2734 877.5,1156.2734 L877.5,1130.2734 " fill="#FEFECE" style="stroke:#A80036;stroke-width:1.5;"/><path d="M877.5,1130.2734 C877.5,1140.2734 895.5,1140.2734 895.5,1140.2734 C895.5,1140.2734 913.5,1140.2734 913.5,1130.2734 " fill="none" style="stroke:#A80036;stroke-width:1.5;"/><rect fill="#FFFFFF" height="955.3828" style="stroke:#A80036;stroke-width:1.0;" width="10" x="24" y="131.5938"/><rect fill="#FFFFFF" height="570.6563" style="stroke:#A80036;stroke-width:1.0;" width="10" x="136" y="152.7266"/><rect fill="#FFFFFF" height="292.3281" style="stroke:#A80036;stroke-width:1.0;" width="10" x="136" y="794.6484"/><rect fill="#FFFFFF" height="145.6641" style="stroke:#A80036;stroke-width:1.0;" width="10" x="320" y="221.125"/><rect fill="#FFFFFF" height="145.6641" style="stroke:#A80036;stroke-width:1.0;" width="10" x="433" y="427.0547"/><rect fill="#FFFFFF" height="145.6641" style="stroke:#A80036;stroke-width:1.0;" width="10" x="433" y="847.9141"/><rect fill="#FFFFFF" height="87.3984" style="stroke:#A80036;stroke-width:1.0;" width="10" x="582" y="456.1875"/><rect fill="#FFFFFF" height="87.3984" style="stroke:#A80036;stroke-width:1.0;" width="10" x="582" y="877.0469"/><rect fill="#FFFFFF" height="87.3984" style="stroke:#A80036;stroke-width:1.0;" width="10" x="706.5" y="250.2578"/><rect fill="#FFFFFF" height="29.1328" style="stroke:#A80036;stroke-width:1.0;" width="10" x="890.5" y="279.3906"/><rect fill="#FFFFFF" height="29.1328" style="stroke:#A80036;stroke-width:1.0;" width="10" x="890.5" y="485.3203"/><rect fill="#FFFFFF" height="29.1328" style="stroke:#A80036;stroke-width:1.0;" width="10" x="890.5" y="906.1797"/><polygon fill="#A80036" points="124,148.7266,134,152.7266,124,156.7266,128,152.7266" style="stroke:#A80036;stroke-width:1.0;"/><line style="stroke:#A80036;stroke-width:1.0;" x1="34" x2="130" y1="152.7266" y2="152.7266"/><text fill="#000000" font-family="sans-serif" font-size="13" lengthAdjust="spacing" textLength="28" x="41" y="147.6606">list()</text><path d="M83,167.7266 L324,167.7266 L324,189.9922 L314,199.9922 L83,199.9922 L83,167.7266 " fill="#EEEEEE" style="stroke:#000000;stroke-width:1.0;"/><rect fill="none" height="207.0625" style="stroke:#000000;stroke-width:2.0;" width="840.5" x="83" y="167.7266"/><text fill="#000000" font-family="sans-serif" font-size="13" font-weight="bold" lengthAdjust="spacing" textLength="154" x="98" y="180.7935">&#21830;&#21697;&#12459;&#12486;&#12468;&#12522;&#12522;&#12473;&#12488;&#21462;&#24471;</text><text fill="#000000" font-family="sans-serif" font-size="13" font-weight="bold" lengthAdjust="spacing" textLength="196" x="98" y="195.9263">&#65288;&#26908;&#32034;&#12503;&#12523;&#12480;&#12454;&#12531;&#34920;&#31034;&#12398;&#12383;&#12417;&#65289;</text><polygon fill="#A80036" points="308,217.125,318,221.125,308,225.125,312,221.125" style="stroke:#A80036;stroke-width:1.0;"/><line style="stroke:#A80036;stroke-width:1.0;" x1="146" x2="314" y1="221.125" y2="221.125"/><text fill="#000000" font-family="sans-serif" font-size="13" lengthAdjust="spacing" textLength="49" x="153" y="216.0591">findAll()</text><polygon fill="#A80036" points="694.5,246.2578,704.5,250.2578,694.5,254.2578,698.5,250.2578" style="stroke:#A80036;stroke-width:1.0;"/><line style="stroke:#A80036;stroke-width:1.0;" x1="330" x2="700.5" y1="250.2578" y2="250.2578"/><text fill="#000000" font-family="sans-serif" font-size="13" lengthAdjust="spacing" textLength="49" x="337" y="245.1919">findAll()</text><polygon fill="#A80036" points="878.5,275.3906,888.5,279.3906,878.5,283.3906,882.5,279.3906" style="stroke:#A80036;stroke-width:1.0;"/><line style="stroke:#A80036;stroke-width:1.0;" x1="716.5" x2="884.5" y1="279.3906" y2="279.3906"/><text fill="#000000" font-family="sans-serif" font-size="13" lengthAdjust="spacing" textLength="61" x="723.5" y="274.3247">SELECT&#25991;</text><polygon fill="#A80036" points="727.5,304.5234,717.5,308.5234,727.5,312.5234,723.5,308.5234" style="stroke:#A80036;stroke-width:1.0;"/><line style="stroke:#A80036;stroke-width:1.0;stroke-dasharray:2.0,2.0;" x1="721.5" x2="894.5" y1="308.5234" y2="308.5234"/><text fill="#000000" font-family="sans-serif" font-size="13" lengthAdjust="spacing" textLength="150" x="733.5" y="303.4575">List&lt;ProductCategory&gt;</text><polygon fill="#A80036" points="341,333.6563,331,337.6563,341,341.6563,337,337.6563" style="stroke:#A80036;stroke-width:1.0;"/><line style="stroke:#A80036;stroke-width:1.0;stroke-dasharray:2.0,2.0;" x1="335" x2="710.5" y1="337.6563" y2="337.6563"/><text fill="#000000" font-family="sans-serif" font-size="13" lengthAdjust="spacing" textLength="150" x="347" y="332.5903">List&lt;ProductCategory&gt;</text><polygon fill="#A80036" points="157,362.7891,147,366.7891,157,370.7891,153,366.7891" style="stroke:#A80036;stroke-width:1.0;"/><line style="stroke:#A80036;stroke-width:1.0;stroke-dasharray:2.0,2.0;" x1="151" x2="324" y1="366.7891" y2="366.7891"/><text fill="#000000" font-family="sans-serif" font-size="13" lengthAdjust="spacing" textLength="150" x="163" y="361.7231">List&lt;ProductCategory&gt;</text><path d="M83,388.7891 L240,388.7891 L240,395.9219 L230,405.9219 L83,405.9219 L83,388.7891 " fill="#EEEEEE" style="stroke:#000000;stroke-width:1.0;"/><rect fill="none" height="191.9297" style="stroke:#000000;stroke-width:2.0;" width="840.5" x="83" y="388.7891"/><text fill="#000000" font-family="sans-serif" font-size="13" font-weight="bold" lengthAdjust="spacing" textLength="112" x="98" y="401.856">&#20840;&#21830;&#21697;&#12522;&#12473;&#12488;&#21462;&#24471;</text><polygon fill="#A80036" points="421,423.0547,431,427.0547,421,431.0547,425,427.0547" style="stroke:#A80036;stroke-width:1.0;"/><line style="stroke:#A80036;stroke-width:1.0;" x1="146" x2="427" y1="427.0547" y2="427.0547"/><text fill="#000000" font-family="sans-serif" font-size="13" lengthAdjust="spacing" textLength="49" x="153" y="421.9888">findAll()</text><polygon fill="#A80036" points="570,452.1875,580,456.1875,570,460.1875,574,456.1875" style="stroke:#A80036;stroke-width:1.0;"/><line style="stroke:#A80036;stroke-width:1.0;" x1="443" x2="576" y1="456.1875" y2="456.1875"/><text fill="#000000" font-family="sans-serif" font-size="13" lengthAdjust="spacing" textLength="49" x="450" y="451.1216">findAll()</text><polygon fill="#A80036" points="878.5,481.3203,888.5,485.3203,878.5,489.3203,882.5,485.3203" style="stroke:#A80036;stroke-width:1.0;"/><line style="stroke:#A80036;stroke-width:1.0;" x1="592" x2="884.5" y1="485.3203" y2="485.3203"/><text fill="#000000" font-family="sans-serif" font-size="13" lengthAdjust="spacing" textLength="61" x="599" y="480.2544">SELECT&#25991;</text><polygon fill="#A80036" points="603,510.4531,593,514.4531,603,518.4531,599,514.4531" style="stroke:#A80036;stroke-width:1.0;"/><line style="stroke:#A80036;stroke-width:1.0;stroke-dasharray:2.0,2.0;" x1="597" x2="894.5" y1="514.4531" y2="514.4531"/><text fill="#000000" font-family="sans-serif" font-size="13" lengthAdjust="spacing" textLength="91" x="609" y="509.3872">List&lt;Product&gt;</text><polygon fill="#A80036" points="454,539.5859,444,543.5859,454,547.5859,450,543.5859" style="stroke:#A80036;stroke-width:1.0;"/><line style="stroke:#A80036;stroke-width:1.0;stroke-dasharray:2.0,2.0;" x1="448" x2="586" y1="543.5859" y2="543.5859"/><text fill="#000000" font-family="sans-serif" font-size="13" lengthAdjust="spacing" textLength="91" x="460" y="538.52">List&lt;Product&gt;</text><polygon fill="#A80036" points="157,568.7188,147,572.7188,157,576.7188,153,572.7188" style="stroke:#A80036;stroke-width:1.0;"/><line style="stroke:#A80036;stroke-width:1.0;stroke-dasharray:2.0,2.0;" x1="151" x2="437" y1="572.7188" y2="572.7188"/><text fill="#000000" font-family="sans-serif" font-size="13" lengthAdjust="spacing" textLength="91" x="163" y="567.6528">List&lt;Product&gt;</text><line style="stroke:#A80036;stroke-width:1.0;" x1="146" x2="188" y1="623.9844" y2="623.9844"/><line style="stroke:#A80036;stroke-width:1.0;" x1="188" x2="188" y1="623.9844" y2="636.9844"/><line style="stroke:#A80036;stroke-width:1.0;" x1="147" x2="188" y1="636.9844" y2="636.9844"/><polygon fill="#A80036" points="157,632.9844,147,636.9844,157,640.9844,153,636.9844" style="stroke:#A80036;stroke-width:1.0;"/><text fill="#000000" font-family="sans-serif" font-size="13" lengthAdjust="spacing" textLength="63" x="153" y="603.7856">Mpdel&#36861;&#21152;</text><text fill="#000000" font-family="sans-serif" font-size="13" lengthAdjust="spacing" textLength="117" x="153" y="618.9185">&#65288;&#12459;&#12486;&#12468;&#12522;&#12522;&#12473;&#12488;&#65289;</text><line style="stroke:#A80036;stroke-width:1.0;" x1="146" x2="188" y1="681.25" y2="681.25"/><line style="stroke:#A80036;stroke-width:1.0;" x1="188" x2="188" y1="681.25" y2="694.25"/><line style="stroke:#A80036;stroke-width:1.0;" x1="147" x2="188" y1="694.25" y2="694.25"/><polygon fill="#A80036" points="157,690.25,147,694.25,157,698.25,153,694.25" style="stroke:#A80036;stroke-width:1.0;"/><text fill="#000000" font-family="sans-serif" font-size="13" lengthAdjust="spacing" textLength="63" x="153" y="661.0513">Model&#36861;&#21152;</text><text fill="#000000" font-family="sans-serif" font-size="13" lengthAdjust="spacing" textLength="91" x="153" y="676.1841">&#65288;&#21830;&#21697;&#12522;&#12473;&#12488;&#65289;</text><polygon fill="#A80036" points="45,719.3828,35,723.3828,45,727.3828,41,723.3828" style="stroke:#A80036;stroke-width:1.0;"/><line style="stroke:#A80036;stroke-width:1.0;" x1="39" x2="140" y1="723.3828" y2="723.3828"/><text fill="#000000" font-family="sans-serif" font-size="13" lengthAdjust="spacing" textLength="78" x="51" y="718.3169">&#26908;&#32034;&#21021;&#26399;&#30011;&#38754;</text><line style="stroke:#A80036;stroke-width:1.0;" x1="34" x2="76" y1="752.5156" y2="752.5156"/><line style="stroke:#A80036;stroke-width:1.0;" x1="76" x2="76" y1="752.5156" y2="765.5156"/><line style="stroke:#A80036;stroke-width:1.0;" x1="35" x2="76" y1="765.5156" y2="765.5156"/><polygon fill="#A80036" points="45,761.5156,35,765.5156,45,769.5156,41,765.5156" style="stroke:#A80036;stroke-width:1.0;"/><text fill="#000000" font-family="sans-serif" font-size="13" lengthAdjust="spacing" textLength="78" x="41" y="747.4497">&#12459;&#12486;&#12468;&#12522;&#36984;&#25246;</text><polygon fill="#A80036" points="124,790.6484,134,794.6484,124,798.6484,128,794.6484" style="stroke:#A80036;stroke-width:1.0;"/><line style="stroke:#A80036;stroke-width:1.0;" x1="34" x2="130" y1="794.6484" y2="794.6484"/><text fill="#000000" font-family="sans-serif" font-size="13" lengthAdjust="spacing" textLength="53" x="41" y="789.5825">search()</text><path d="M83,809.6484 L352,809.6484 L352,816.7813 L342,826.7813 L83,826.7813 L83,809.6484 " fill="#EEEEEE" style="stroke:#000000;stroke-width:1.0;"/><rect fill="none" height="191.9297" style="stroke:#000000;stroke-width:2.0;" width="840.5" x="83" y="809.6484"/><text fill="#000000" font-family="sans-serif" font-size="13" font-weight="bold" lengthAdjust="spacing" textLength="224" x="98" y="822.7153">&#25351;&#23450;&#12375;&#12383;&#12459;&#12486;&#12468;&#12522;&#12398;&#21830;&#21697;&#12522;&#12473;&#12488;&#21462;&#24471;</text><polygon fill="#A80036" points="421,843.9141,431,847.9141,421,851.9141,425,847.9141" style="stroke:#A80036;stroke-width:1.0;"/><line style="stroke:#A80036;stroke-width:1.0;" x1="146" x2="427" y1="847.9141" y2="847.9141"/><text fill="#000000" font-family="sans-serif" font-size="13" lengthAdjust="spacing" textLength="120" x="153" y="842.8481">findbyCategoryId()</text><polygon fill="#A80036" points="570,873.0469,580,877.0469,570,881.0469,574,877.0469" style="stroke:#A80036;stroke-width:1.0;"/><line style="stroke:#A80036;stroke-width:1.0;" x1="443" x2="576" y1="877.0469" y2="877.0469"/><text fill="#000000" font-family="sans-serif" font-size="13" lengthAdjust="spacing" textLength="120" x="450" y="871.981">findbyCategoryId()</text><polygon fill="#A80036" points="878.5,902.1797,888.5,906.1797,878.5,910.1797,882.5,906.1797" style="stroke:#A80036;stroke-width:1.0;"/><line style="stroke:#A80036;stroke-width:1.0;" x1="592" x2="884.5" y1="906.1797" y2="906.1797"/><text fill="#000000" font-family="sans-serif" font-size="13" lengthAdjust="spacing" textLength="61" x="599" y="901.1138">SELECT&#25991;</text><polygon fill="#A80036" points="603,931.3125,593,935.3125,603,939.3125,599,935.3125" style="stroke:#A80036;stroke-width:1.0;"/><line style="stroke:#A80036;stroke-width:1.0;stroke-dasharray:2.0,2.0;" x1="597" x2="894.5" y1="935.3125" y2="935.3125"/><text fill="#000000" font-family="sans-serif" font-size="13" lengthAdjust="spacing" textLength="91" x="609" y="930.2466">List&lt;Product&gt;</text><polygon fill="#A80036" points="454,960.4453,444,964.4453,454,968.4453,450,964.4453" style="stroke:#A80036;stroke-width:1.0;"/><line style="stroke:#A80036;stroke-width:1.0;stroke-dasharray:2.0,2.0;" x1="448" x2="586" y1="964.4453" y2="964.4453"/><text fill="#000000" font-family="sans-serif" font-size="13" lengthAdjust="spacing" textLength="91" x="460" y="959.3794">List&lt;Product&gt;</text><polygon fill="#A80036" points="157,989.5781,147,993.5781,157,997.5781,153,993.5781" style="stroke:#A80036;stroke-width:1.0;"/><line style="stroke:#A80036;stroke-width:1.0;stroke-dasharray:2.0,2.0;" x1="151" x2="437" y1="993.5781" y2="993.5781"/><text fill="#000000" font-family="sans-serif" font-size="13" lengthAdjust="spacing" textLength="91" x="163" y="988.5122">List&lt;Product&gt;</text><line style="stroke:#A80036;stroke-width:1.0;" x1="146" x2="188" y1="1044.8438" y2="1044.8438"/><line style="stroke:#A80036;stroke-width:1.0;" x1="188" x2="188" y1="1044.8438" y2="1057.8438"/><line style="stroke:#A80036;stroke-width:1.0;" x1="147" x2="188" y1="1057.8438" y2="1057.8438"/><polygon fill="#A80036" points="157,1053.8438,147,1057.8438,157,1061.8438,153,1057.8438" style="stroke:#A80036;stroke-width:1.0;"/><text fill="#000000" font-family="sans-serif" font-size="13" lengthAdjust="spacing" textLength="63" x="153" y="1024.645">Model&#36861;&#21152;</text><text fill="#000000" font-family="sans-serif" font-size="13" lengthAdjust="spacing" textLength="104" x="153" y="1039.7778">&#65288;&#36984;&#25246;&#12459;&#12486;&#12468;&#12522;&#65289;</text><path d="M269,1017.0781 L269,1057.0781 L511,1057.0781 L511,1027.0781 L501,1017.0781 L269,1017.0781 " fill="#FBFB77" style="stroke:#A80036;stroke-width:1.0;"/><path d="M501,1017.0781 L501,1027.0781 L511,1027.0781 L501,1017.0781 " fill="#FBFB77" style="stroke:#A80036;stroke-width:1.0;"/><text fill="#000000" font-family="sans-serif" font-size="13" lengthAdjust="spacing" textLength="117" x="275" y="1034.145">&#36984;&#25246;&#12375;&#12383;&#12459;&#12486;&#12468;&#12522;&#12364;</text><text fill="#000000" font-family="sans-serif" font-size="13" lengthAdjust="spacing" textLength="221" x="275" y="1049.2778">&#12475;&#12524;&#12463;&#12488;&#12508;&#12483;&#12463;&#12473;&#12391;&#36984;&#25246;&#12373;&#12428;&#12427;&#12424;&#12358;&#12395;</text><polygon fill="#A80036" points="40,1082.9766,30,1086.9766,40,1090.9766,36,1086.9766" style="stroke:#A80036;stroke-width:1.0;"/><line style="stroke:#A80036;stroke-width:1.0;" x1="34" x2="140" y1="1086.9766" y2="1086.9766"/><text fill="#000000" font-family="sans-serif" font-size="13" lengthAdjust="spacing" textLength="78" x="46" y="1081.9106">&#26908;&#32034;&#32080;&#26524;&#30011;&#38754;</text><!--SRC=[hLLTRz9G6BxlhpZXHir2Cl2E61B5NPZCn3YzuwQqPz1OMt9QCDpPSoB3IQA9RYJAXYwBJcSmXlann_J7l6bXL_iBdhQKjAm5BoGaz9ptUR-UztcByK3H4D4DB1ZygIeIyI4oAgAiFrAqCbeNLMun5LF5w7vXUVbg3jbRJVkbvUntHqTxpiVUc9qYe3-03O5-1JO0Uco_6GYYPEe40Nll6RuZqK0r0nFtNgcB9lPFF9sfI4fLr4oKkaDqkIQPgufX5hM2hfb4LrLCKgwlD3t6-XHunB9E6aLj3PEw8c7FoQXBcLZu1LWs0NONLtL3uPqqF2JXnyo20c9Sie8icc99D31AtRpXNSibGRY4V1BjrexJxOrUdPpjx0akBIYT3pMCbfPG3gcSbSjNX3BHQzN9280U0ci2FGBsoVtIOs0j-_cs_RjJrCw7BJywi0um3dmCbCzYC7vtCDh_1LOVh1vGwtpuL43y4qh7axl4-MdN5Ks-hgeyiuloxhdTQoeEu1iuGYxvvhMLrPN2FMTxmpFps_JKFPtcTdVOrsOup8T31TKiG4ym4Txck61DHW6NJmucT4OfZASbcq1BDg0baqHBvfzeYMaq7muHL960cjZcq-2rBqHR2vrow7PLnkhupwcz-TOJKgpGNENCYw57OynmVD7R5xvRQynMJ7TbzEs5izkTsHNlDuV2PPvPFvtDtSHjCh18fCfqdvpsXjr_3LR7MufGirO_NXlpT55g13gx9VCC2UAOGSrHo29rB5R6VrB5p4HzYiDqkKFLTFvk9qgvOkRG1153Qxke0Jq1zXde5yugi2umvZvpagqFWTyMq3RGPq1RO3N1EboWc8Ws11b7_ch-0W00]--></g></svg>